<?xml version="1.0" encoding="UTF-8"?>
<!DOCTYPE svg PUBLIC "-//W3C//DTD SVG 1.1//EN" "http://www.w3.org/Graphics/SVG/1.1/DTD/svg11.dtd">
<svg xmlns="http://www.w3.org/2000/svg" version="1.1" width="500px" height="500px" style="shape-rendering:geometricPrecision; text-rendering:geometricPrecision; image-rendering:optimizeQuality; fill-rule:evenodd; clip-rule:evenodd" xmlns:xlink="http://www.w3.org/1999/xlink">
<g><path style="opacity:0.982" fill="#bbe2f2" d="M 220.5,121.5 C 227.184,121.17 233.184,123.003 238.5,127C 279.319,168.653 320.319,210.153 361.5,251.5C 320.345,291.821 279.012,331.987 237.5,372C 221.561,380.032 207.728,377.198 196,363.5C 187.847,354.553 185.18,344.22 188,332.5C 189.248,329.421 191.081,326.754 193.5,324.5C 219.526,300.139 245.526,275.805 271.5,251.5C 245.846,226.013 220.013,200.68 194,175.5C 183.439,158.339 185.939,143.172 201.5,130C 207.268,125.697 213.601,122.864 220.5,121.5 Z"/></g>
</svg>
