<?xml version="1.0" encoding="UTF-8"?>
<!DOCTYPE svg PUBLIC "-//W3C//DTD SVG 1.1//EN" "http://www.w3.org/Graphics/SVG/1.1/DTD/svg11.dtd">
<svg xmlns="http://www.w3.org/2000/svg" version="1.1" width="500px" height="500px" style="shape-rendering:geometricPrecision; text-rendering:geometricPrecision; image-rendering:optimizeQuality; fill-rule:evenodd; clip-rule:evenodd" xmlns:xlink="http://www.w3.org/1999/xlink">
<g><path style="opacity:0.982" fill="#bbe2f2" d="M 269.5,122.5 C 294.156,122.155 308.489,134.155 312.5,158.5C 312.348,164.803 310.015,170.136 305.5,174.5C 279.474,198.861 253.474,223.195 227.5,247.5C 253.154,272.987 278.987,298.32 305,323.5C 315.561,340.661 313.061,355.828 297.5,369C 288.574,376.051 278.574,378.384 267.5,376C 265.004,374.92 262.67,373.586 260.5,372C 219.681,330.347 178.681,288.847 137.5,247.5C 178.655,207.179 219.988,167.013 261.5,127C 264.391,125.726 267.058,124.226 269.5,122.5 Z"/></g>
</svg>
