<?xml version="1.0" encoding="UTF-8"?>
<!DOCTYPE svg PUBLIC "-//W3C//DTD SVG 1.1//EN" "http://www.w3.org/Graphics/SVG/1.1/DTD/svg11.dtd">
<svg xmlns="http://www.w3.org/2000/svg" version="1.1" width="500px" height="500px" style="shape-rendering:geometricPrecision; text-rendering:geometricPrecision; image-rendering:optimizeQuality; fill-rule:evenodd; clip-rule:evenodd" xmlns:xlink="http://www.w3.org/1999/xlink">
<g><path style="opacity:0.999" fill="#bce2f3" d="M 255.5,499.5 C 252.167,499.5 248.833,499.5 245.5,499.5C 161.318,470.157 102.152,414.157 68,331.5C 58.8967,308.318 53.23,284.318 51,259.5C 50.5,173.167 50.3333,86.834 50.5,0.5C 183.833,0.5 317.167,0.5 450.5,0.5C 450.667,86.834 450.5,173.167 450,259.5C 436.886,355.872 388.719,428.706 305.5,478C 289.325,486.595 272.658,493.762 255.5,499.5 Z"/></g>
<g><path style="opacity:1" fill="#fdfdfd" d="M 235.5,81.5 C 288.024,78.345 328.524,98.6783 357,142.5C 383.154,191.952 379.821,239.286 347,284.5C 312.989,322.979 270.489,337.813 219.5,329C 192.552,321.886 170.885,307.052 154.5,284.5C 145.318,275.484 135.984,266.651 126.5,258C 130.049,252.626 134.716,251.292 140.5,254C 143.661,255.413 146.661,257.08 149.5,259C 161.348,270.855 174.348,281.188 188.5,290C 206.029,300.916 223.696,301.249 241.5,291C 248.884,284.536 247.884,279.87 238.5,277C 228.347,275.875 218.347,276.542 208.5,279C 204.5,279.667 200.5,279.667 196.5,279C 192.5,275.333 192.5,271.667 196.5,268C 213.414,260.82 231.081,258.487 249.5,261C 260.028,262.882 270.361,265.549 280.5,269C 291.221,270.138 300.888,267.472 309.5,261C 338.561,232.255 348.061,198.088 338,158.5C 317.014,113.149 281.348,89.8153 231,88.5C 223.802,88.5745 216.636,89.0745 209.5,90C 204.84,91.3975 200.174,92.3975 195.5,93C 208.303,86.7815 221.636,82.9482 235.5,81.5 Z"/></g>
<g><path style="opacity:1" fill="#fcfdfd" d="M 192.5,100.5 C 193.771,106.064 195.938,111.397 199,116.5C 205.667,121.833 212.333,127.167 219,132.5C 226.87,141.307 229.036,151.307 225.5,162.5C 225.167,162.833 224.833,163.167 224.5,163.5C 222.052,159.518 218.719,157.018 214.5,156C 217.653,158.805 219.319,162.305 219.5,166.5C 203.997,167.51 193.164,160.843 187,146.5C 181.064,130.289 182.897,114.955 192.5,100.5 Z"/></g>
<g><path style="opacity:1" fill="#fdfdfd" d="M 274.5,110.5 C 286.493,126.845 288.659,144.512 281,163.5C 274.028,181.055 261.194,190.388 242.5,191.5C 242.927,187.144 244.594,183.311 247.5,180C 242.979,180.863 239.479,183.363 237,187.5C 232.162,174.087 234.162,161.753 243,150.5C 250.667,143.833 258.333,137.167 266,130.5C 269.658,124.185 272.491,117.518 274.5,110.5 Z"/></g>
<g><path style="opacity:1" fill="#fcfdfd" d="M 214.5,177.5 C 214.631,178.376 214.298,179.043 213.5,179.5C 207.558,178.459 207.225,179.293 212.5,182C 213.252,182.671 213.586,183.504 213.5,184.5C 204.347,190.126 194.68,190.959 184.5,187C 175.055,181.228 169.221,173.061 167,162.5C 170.776,164.915 174.943,166.082 179.5,166C 187.167,166.333 194.833,166.667 202.5,167C 208.572,168.245 212.572,171.745 214.5,177.5 Z"/></g>
<g><path style="opacity:1" fill="#fbfdfd" d="M 216.5,184.5 C 216.5,184.167 216.5,183.833 216.5,183.5C 218.853,185.101 221.02,187.101 223,189.5C 224.517,183.92 224.851,178.253 224,172.5C 222.686,169.911 222.019,167.244 222,164.5C 227.441,173.047 230.275,182.381 230.5,192.5C 229.588,202.231 228.255,211.898 226.5,221.5C 227.021,228.275 227.854,234.941 229,241.5C 220.523,231.718 217.523,220.384 220,207.5C 222.639,199.202 221.473,191.536 216.5,184.5 Z"/></g>
<g><path style="opacity:1" fill="#cee9f5" d="M 214.5,177.5 C 215.791,178.542 215.791,179.708 214.5,181C 215.381,181.708 216.047,182.542 216.5,183.5C 216.5,183.833 216.5,184.167 216.5,184.5C 215.5,183.167 214.5,183.167 213.5,184.5C 213.586,183.504 213.252,182.671 212.5,182C 207.225,179.293 207.558,178.459 213.5,179.5C 214.298,179.043 214.631,178.376 214.5,177.5 Z"/></g>
<g><path style="opacity:1" fill="#fcfdfd" d="M 300.5,186.5 C 301.5,186.5 302.5,186.5 303.5,186.5C 299.346,212.155 284.346,223.655 258.5,221C 253.303,218.637 249.637,214.803 247.5,209.5C 248.982,207.517 250.649,205.684 252.5,204C 250.343,203.922 248.343,203.755 246.5,203.5C 249.23,196.602 254.23,192.436 261.5,191C 271.833,190.667 282.167,190.333 292.5,190C 295.53,189.422 298.197,188.255 300.5,186.5 Z"/></g>
<g><path style="opacity:1" fill="#fbfcfd" d="M 239.5,188.5 C 240.054,190.771 239.554,193.104 238,195.5C 237.333,201.5 237.333,207.5 238,213.5C 240.467,209.987 243.634,207.821 247.5,207C 244.067,210.104 241.9,213.937 241,218.5C 239.896,227.989 240.562,237.323 243,246.5C 243.499,250.152 243.665,253.818 243.5,257.5C 240.5,257.5 237.5,257.5 234.5,257.5C 232.78,248.186 230.947,238.853 229,229.5C 227.875,220.913 228.875,212.579 232,204.5C 234.733,199.27 237.233,193.936 239.5,188.5 Z"/></g>
<g><path style="opacity:1" fill="#fcfdfd" d="M 143.5,235.5 C 147.694,235.177 151.527,236.177 155,238.5C 160.587,248.006 165.92,257.673 171,267.5C 172.318,270.43 172.985,273.43 173,276.5C 159.324,267.497 149.324,255.497 143,240.5C 142.36,238.735 142.527,237.068 143.5,235.5 Z"/></g>
<g><path style="opacity:1" fill="#fbfcfd" d="M 169.5,247.5 C 174.991,247.16 178.824,249.494 181,254.5C 184.849,264.381 187.682,274.548 189.5,285C 189.167,285.833 188.833,286.667 188.5,287.5C 184.174,285.092 180.341,282.092 177,278.5C 173.344,268.215 170.844,257.882 169.5,247.5 Z"/></g>
<g><path style="opacity:1" fill="#f0f8fb" d="M 233.5,279.5 C 234.675,279.281 235.675,279.614 236.5,280.5C 230.168,291.471 229.168,291.138 233.5,279.5 Z"/></g>
<g><path style="opacity:1" fill="#fafcfd" d="M 222.5,367.5 C 224.604,367.201 226.604,367.534 228.5,368.5C 231.937,377.645 235.27,386.812 238.5,396C 236.527,396.495 234.527,396.662 232.5,396.5C 233.031,391.199 230.698,388.866 225.5,389.5C 220.349,388.866 218.016,391.199 218.5,396.5C 216.833,396.5 215.167,396.5 213.5,396.5C 216.292,386.79 219.292,377.124 222.5,367.5 Z"/></g>
<g><path style="opacity:1" fill="#d3ebf6" d="M 260.5,368.5 C 255.167,368.5 249.833,368.5 244.5,368.5C 244.5,377.833 244.5,387.167 244.5,396.5C 243.506,387.014 243.173,377.348 243.5,367.5C 249.358,367.178 255.025,367.511 260.5,368.5 Z"/></g>
<g><path style="opacity:1" fill="#fcfdfd" d="M 260.5,368.5 C 260.5,369.833 260.5,371.167 260.5,372.5C 256.833,372.5 253.167,372.5 249.5,372.5C 249.5,380.5 249.5,388.5 249.5,396.5C 247.833,396.5 246.167,396.5 244.5,396.5C 244.5,387.167 244.5,377.833 244.5,368.5C 249.833,368.5 255.167,368.5 260.5,368.5 Z"/></g>
<g><path style="opacity:1" fill="#f9fcfd" d="M 263.5,367.5 C 265.467,367.261 267.301,367.594 269,368.5C 271.246,373.326 273.746,377.992 276.5,382.5C 278.605,377.954 280.439,373.287 282,368.5C 283.814,367.24 285.647,367.24 287.5,368.5C 284.389,375.722 281.556,383.056 279,390.5C 276.983,395.924 273.15,397.758 267.5,396C 266.352,392.482 267.518,391.315 271,392.5C 272.434,392.07 273.601,391.236 274.5,390C 270.422,382.678 266.755,375.178 263.5,367.5 Z"/></g>
<g><path style="opacity:1" fill="#c3e4f4" d="M 228.5,383.5 C 226.5,384.833 224.5,384.833 222.5,383.5C 224.496,370.178 226.496,370.178 228.5,383.5 Z"/></g>
<g><path style="opacity:1" fill="#f9fcfd" d="M 200.5,383.5 C 203.352,383.352 205.019,384.686 205.5,387.5C 203.167,392.833 200.833,392.833 198.5,387.5C 198.752,385.927 199.418,384.594 200.5,383.5 Z"/></g>
<g><path style="opacity:1" fill="#e2f2f9" d="M 222.5,383.5 C 224.5,384.833 226.5,384.833 228.5,383.5C 229.043,383.56 229.376,383.893 229.5,384.5C 226.833,385.833 224.167,385.833 221.5,384.5C 221.624,383.893 221.957,383.56 222.5,383.5 Z"/></g>
<g><path style="opacity:1" fill="#fafcfd" d="M 297.5,383.5 C 300.352,383.352 302.019,384.686 302.5,387.5C 300.167,392.833 297.833,392.833 295.5,387.5C 295.752,385.927 296.418,384.594 297.5,383.5 Z"/></g>
</svg>
