<?xml version="1.0" encoding="UTF-8"?>
<!DOCTYPE svg PUBLIC "-//W3C//DTD SVG 1.1//EN" "http://www.w3.org/Graphics/SVG/1.1/DTD/svg11.dtd">
<svg xmlns="http://www.w3.org/2000/svg" version="1.1" width="500px" height="500px" style="shape-rendering:geometricPrecision; text-rendering:geometricPrecision; image-rendering:optimizeQuality; fill-rule:evenodd; clip-rule:evenodd" xmlns:xlink="http://www.w3.org/1999/xlink">
<g><path style="opacity:0.995" fill="#63a735" d="M 251.5,499.5 C 250.167,499.5 248.833,499.5 247.5,499.5C 174.277,475.107 119.111,429.107 82,361.5C 62.7654,325.563 52.0987,287.23 50,246.5C 49.5,164.501 49.3333,82.5007 49.5,0.5C 182.833,0.5 316.167,0.5 449.5,0.5C 449.667,83.5007 449.5,166.501 449,249.5C 440.721,336.579 401.887,406.412 332.5,459C 307.639,476.764 280.639,490.264 251.5,499.5 Z"/></g>
<g><path style="opacity:1" fill="#fcfdfc" d="M 238.5,80.5 C 290.32,79.4865 329.82,100.82 357,144.5C 375.429,180.256 377.429,216.923 363,254.5C 343.009,297.473 309.509,322.64 262.5,330C 228.96,334.869 199.293,326.536 173.5,305C 158.321,288.655 142.654,272.821 126.5,257.5C 127.032,255.259 128.365,253.759 130.5,253C 134.261,252.262 137.928,252.595 141.5,254C 151.37,260.198 160.37,267.531 168.5,276C 178.031,283.601 188.364,289.934 199.5,295C 213.446,300.234 226.779,298.9 239.5,291C 241.709,289.127 243.542,286.96 245,284.5C 245.522,280.404 243.688,277.904 239.5,277C 229.052,274.674 218.719,275.007 208.5,278C 204.167,278.667 199.833,278.667 195.5,278C 191.908,275.029 191.575,271.696 194.5,268C 213.712,259.493 233.712,257.16 254.5,261C 262.884,263.461 271.217,266.128 279.5,269C 295.425,269.455 308.259,263.289 318,250.5C 337.711,225.321 344.711,196.988 339,165.5C 328.426,132.857 307.26,110.024 275.5,97C 249.599,87.7783 223.266,86.1116 196.5,92C 209.976,85.7786 223.976,81.9453 238.5,80.5 Z"/></g>
<g><path style="opacity:1" fill="#fbfcfa" d="M 191.5,100.5 C 194.127,112.645 201.127,121.478 212.5,127C 224.813,136.6 228.646,148.767 224,163.5C 221.9,159.374 218.733,156.874 214.5,156C 217.11,158.995 218.443,162.495 218.5,166.5C 207.152,167.577 197.985,163.577 191,154.5C 179.687,136.486 179.853,118.486 191.5,100.5 Z"/></g>
<g><path style="opacity:1" fill="#fbfcfa" d="M 273.5,110.5 C 281.721,121.009 285.221,133.009 284,146.5C 282.097,168.535 270.93,183.369 250.5,191C 247.518,191.498 244.518,191.665 241.5,191.5C 241.927,187.144 243.594,183.311 246.5,180C 242.136,180.447 238.636,182.613 236,186.5C 231.561,174.028 233.228,162.362 241,151.5C 248.371,144.46 256.038,137.794 264,131.5C 268.261,124.979 271.428,117.979 273.5,110.5 Z"/></g>
<g><path style="opacity:1" fill="#fbfcfb" d="M 165.5,163.5 C 165.56,162.957 165.893,162.624 166.5,162.5C 169.538,164.519 172.871,165.686 176.5,166C 186.226,166.108 195.893,166.775 205.5,168C 210.606,170.533 213.272,174.366 213.5,179.5C 211.568,178.48 209.568,178.313 207.5,179C 214.318,183.111 213.651,186.111 205.5,188C 193.015,190.85 182.515,187.683 174,178.5C 170.619,173.73 167.786,168.73 165.5,163.5 Z"/></g>
<g><path style="opacity:1" fill="#f8fbf7" d="M 226.5,231.5 C 227.091,234.94 228.091,238.273 229.5,241.5C 229.376,242.107 229.043,242.44 228.5,242.5C 224.043,237.255 220.876,231.255 219,224.5C 218.553,214.111 218.886,203.777 220,193.5C 219.254,188.838 217.087,185.005 213.5,182C 217.139,183.288 219.972,185.788 222,189.5C 222.972,185.903 223.472,182.236 223.5,178.5C 223.376,174.041 222.876,169.708 222,165.5C 229.024,176.563 231.357,188.563 229,201.5C 225.853,211.346 225.02,221.346 226.5,231.5 Z"/></g>
<g><path style="opacity:1" fill="#fbfcfa" d="M 300.5,185.5 C 301.586,185.62 302.253,186.287 302.5,187.5C 298.774,208.696 286.274,220.029 265,221.5C 258.788,221.058 253.455,218.725 249,214.5C 245.965,208.832 247.465,204.999 253.5,203C 250.8,202.747 248.133,202.747 245.5,203C 248.322,196.844 252.989,192.844 259.5,191C 269.167,190.667 278.833,190.333 288.5,190C 292.894,189.293 296.894,187.793 300.5,185.5 Z"/></g>
<g><path style="opacity:1" fill="#f7faf5" d="M 231.5,243.5 C 230.298,238.353 228.965,233.353 227.5,228.5C 226.984,213.916 230.817,200.582 239,188.5C 238.975,190.92 238.309,193.253 237,195.5C 236.333,201.167 236.333,206.833 237,212.5C 240.025,209.515 243.192,207.515 246.5,206.5C 243.262,209.909 241.095,213.909 240,218.5C 239.333,224.5 239.333,230.5 240,236.5C 241.988,243.353 242.821,250.353 242.5,257.5C 239.5,257.5 236.5,257.5 233.5,257.5C 233.112,252.781 232.445,248.114 231.5,243.5 Z"/></g>
<g><path style="opacity:1" fill="#f9fbf8" d="M 142.5,235.5 C 147.162,234.804 151.329,235.804 155,238.5C 159.08,246.329 163.413,253.996 168,261.5C 170.498,266.327 172.165,271.327 173,276.5C 164.682,270.181 157.016,263.181 150,255.5C 146.894,249.621 144.06,243.621 141.5,237.5C 141.863,236.817 142.196,236.15 142.5,235.5 Z"/></g>
<g><path style="opacity:1" fill="#81b75b" d="M 227.5,228.5 C 228.965,233.353 230.298,238.353 231.5,243.5C 230.209,243.737 229.209,243.404 228.5,242.5C 229.043,242.44 229.376,242.107 229.5,241.5C 228.091,238.273 227.091,234.94 226.5,231.5C 227.404,230.791 227.737,229.791 227.5,228.5 Z"/></g>
<g><path style="opacity:1" fill="#fafbf8" d="M 168.5,247.5 C 174.059,246.231 177.892,248.231 180,253.5C 183.746,263.238 186.579,273.238 188.5,283.5C 188.167,284.5 187.833,285.5 187.5,286.5C 183.742,284.539 180.242,282.205 177,279.5C 173.224,269.063 170.391,258.397 168.5,247.5 Z"/></g>
<g><path style="opacity:1" fill="#e4efdc" d="M 232.5,278.5 C 233.5,278.5 234.5,278.5 235.5,278.5C 234.804,281.554 233.304,284.22 231,286.5C 231.73,283.979 232.23,281.313 232.5,278.5 Z"/></g>
<g><path style="opacity:1" fill="#f4f8f0" d="M 222.5,367.5 C 224.604,367.201 226.604,367.534 228.5,368.5C 231.937,377.645 235.27,386.812 238.5,396C 236.527,396.495 234.527,396.662 232.5,396.5C 232.984,391.199 230.651,388.866 225.5,389.5C 220.349,388.866 218.016,391.199 218.5,396.5C 216.833,396.5 215.167,396.5 213.5,396.5C 216.292,386.79 219.292,377.124 222.5,367.5 Z"/></g>
<g><path style="opacity:1" fill="#9ac67d" d="M 260.5,368.5 C 255.167,368.5 249.833,368.5 244.5,368.5C 244.5,377.833 244.5,387.167 244.5,396.5C 243.506,387.014 243.173,377.348 243.5,367.5C 249.358,367.178 255.025,367.511 260.5,368.5 Z"/></g>
<g><path style="opacity:1" fill="#fbfcfa" d="M 260.5,368.5 C 260.5,369.833 260.5,371.167 260.5,372.5C 256.833,372.5 253.167,372.5 249.5,372.5C 249.5,380.5 249.5,388.5 249.5,396.5C 247.833,396.5 246.167,396.5 244.5,396.5C 244.5,387.167 244.5,377.833 244.5,368.5C 249.833,368.5 255.167,368.5 260.5,368.5 Z"/></g>
<g><path style="opacity:1" fill="#f4f8f1" d="M 263.5,367.5 C 265.467,367.261 267.301,367.594 269,368.5C 271.246,373.326 273.746,377.992 276.5,382.5C 278.605,377.954 280.439,373.287 282,368.5C 283.814,367.24 285.647,367.24 287.5,368.5C 284.389,375.722 281.556,383.056 279,390.5C 276.983,395.924 273.15,397.758 267.5,396C 266.352,392.482 267.518,391.315 271,392.5C 272.434,392.07 273.601,391.236 274.5,390C 270.422,382.678 266.755,375.178 263.5,367.5 Z"/></g>
<g><path style="opacity:1" fill="#6bab40" d="M 228.5,383.5 C 226.5,384.833 224.5,384.833 222.5,383.5C 224.549,372.886 226.549,372.886 228.5,383.5 Z"/></g>
<g><path style="opacity:1" fill="#f1f6ec" d="M 198.5,383.5 C 204.465,382.928 206.131,385.095 203.5,390C 198.262,390.594 196.595,388.427 198.5,383.5 Z"/></g>
<g><path style="opacity:1" fill="#f6f9f4" d="M 295.5,383.5 C 301.555,382.942 302.888,385.109 299.5,390C 298.101,390.595 296.768,390.428 295.5,389.5C 294.306,387.484 294.306,385.484 295.5,383.5 Z"/></g>
<g><path style="opacity:1" fill="#bdd9aa" d="M 222.5,383.5 C 224.5,384.833 226.5,384.833 228.5,383.5C 229.043,383.56 229.376,383.893 229.5,384.5C 226.833,385.833 224.167,385.833 221.5,384.5C 221.624,383.893 221.957,383.56 222.5,383.5 Z"/></g>
</svg>
