<?xml version="1.0" encoding="UTF-8"?>
<!DOCTYPE svg PUBLIC "-//W3C//DTD SVG 1.1//EN" "http://www.w3.org/Graphics/SVG/1.1/DTD/svg11.dtd">
<svg xmlns="http://www.w3.org/2000/svg" version="1.1" width="770px" height="626px" style="shape-rendering:geometricPrecision; text-rendering:geometricPrecision; image-rendering:optimizeQuality; fill-rule:evenodd; clip-rule:evenodd" xmlns:xlink="http://www.w3.org/1999/xlink">
<g><path style="opacity:1" fill="#addbf0" d="M 200.5,611.5 C 200.027,610.094 199.027,609.427 197.5,609.5C 190.46,604.786 185.293,598.453 182,590.5C 174.733,558.166 168.233,525.666 162.5,493C 163.052,484.625 165.385,476.792 169.5,469.5C 149.029,473.392 132.196,467.059 119,450.5C 116.449,446.065 114.449,441.399 113,436.5C 106.9,406 101.066,375.5 95.5,345C 97.3288,322.008 109.329,307.342 131.5,301C 155.144,296.304 178.811,291.804 202.5,287.5C 203.675,287.719 204.675,287.386 205.5,286.5C 205.376,285.893 205.043,285.56 204.5,285.5C 198.619,280.754 194.452,274.754 192,267.5C 187.638,246.19 183.471,224.857 179.5,203.5C 141.814,199.581 104.148,195.414 66.5,191C 60.7752,190.722 55.2752,189.555 50,187.5C 52.1385,202.867 54.8052,218.2 58,233.5C 79.5235,245.367 94.1901,263.033 102,286.5C 105.094,298.811 100.927,307.311 89.5,312C 72.0347,316.362 54.3681,319.029 36.5,320C 26.3669,314.407 21.7002,305.741 22.5,294C 22.6753,271.957 30.0087,252.791 44.5,236.5C 40.038,214.19 35.7047,191.857 31.5,169.5C 32.3407,161.985 35.674,155.819 41.5,151C 45.5,148.333 49.5,145.667 53.5,143C 118.66,107.921 183.66,72.5875 248.5,37C 281.682,19.7041 317.015,10.5374 354.5,9.5C 434.541,17.9305 514.541,26.7638 594.5,36C 606.442,36.2488 617.275,39.7488 627,46.5C 632.633,53.8848 632.966,61.5515 628,69.5C 625.167,72.3333 622.333,75.1667 619.5,78C 581.644,98.759 543.977,119.759 506.5,141C 510.461,160.471 514.294,179.971 518,199.5C 519.535,208.878 518.035,217.711 513.5,226C 551.933,218.848 590.433,211.681 629,204.5C 650.099,205.617 664.432,215.95 672,235.5C 677.922,263.779 683.589,292.112 689,320.5C 690.978,332.183 689.145,343.183 683.5,353.5C 698.642,350.796 712.642,353.962 725.5,363C 730.831,367.998 734.997,373.831 738,380.5C 744.813,413.564 750.98,446.73 756.5,480C 754.767,501.737 743.433,515.737 722.5,522C 559.809,553.538 397.142,585.205 234.5,617C 222.306,619.801 210.972,617.967 200.5,611.5 Z M 354.5,23.5 C 439.625,32.1991 524.625,42.0324 609.5,53C 612.898,53.6888 615.565,55.3555 617.5,58C 614.513,63.6541 610.179,67.9874 604.5,71C 535.167,108.667 465.833,146.333 396.5,184C 368.445,196.178 339.112,202.678 308.5,203.5C 224.062,194.914 139.729,185.414 55.5,175C 51.9382,174.261 48.7716,172.761 46,170.5C 45.5825,168.212 46.2491,166.212 48,164.5C 50.894,161.639 54.0607,159.139 57.5,157C 130.372,117.398 203.372,78.0644 276.5,39C 301.871,29.8923 327.871,24.7256 354.5,23.5 Z M 492.5,147.5 C 493.167,148.167 493.833,148.833 494.5,149.5C 497.832,168.496 501.166,187.496 504.5,206.5C 504.041,216.929 499.375,224.762 490.5,230C 404.015,247.997 317.348,265.164 230.5,281.5C 217.454,280.62 208.954,273.953 205,261.5C 201.304,242.856 197.804,224.189 194.5,205.5C 228.462,209.588 262.462,213.422 296.5,217C 331.476,218.338 365.143,212.338 397.5,199C 429.548,182.313 461.215,165.147 492.5,147.5 Z M 668.5,350.5 C 666.5,351.833 664.833,353.5 663.5,355.5C 660.337,357.246 657.004,358.746 653.5,360C 487.94,392.745 322.273,424.912 156.5,456.5C 141.837,455.59 132.004,448.257 127,434.5C 121.451,407.207 116.118,379.874 111,352.5C 108.059,334.126 115.226,321.626 132.5,315C 298.263,282.447 464.096,250.281 630,218.5C 644.63,219.974 654.296,227.64 659,241.5C 664.461,268.473 669.795,295.473 675,322.5C 677.196,332.947 675.029,342.28 668.5,350.5 Z M 52.5,248.5 C 57.244,248.04 61.244,249.54 64.5,253C 74.447,263.061 82.2803,274.561 88,287.5C 88.7886,291.091 88.6219,294.591 87.5,298C 72.483,301.103 57.483,304.27 42.5,307.5C 37.8845,303.836 35.8845,299.003 36.5,293C 36.4149,276.079 41.7482,261.246 52.5,248.5 Z M 692.5,366.5 C 710.935,366.78 722.435,375.78 727,393.5C 732.748,421.407 737.915,449.407 742.5,477.5C 742.336,491.333 736.003,501.166 723.5,507C 558.554,539.589 393.554,571.923 228.5,604C 213.296,605.126 202.129,598.959 195,585.5C 188.322,554.778 182.156,523.944 176.5,493C 177.721,479.553 184.388,469.886 196.5,464C 361.945,431.411 527.278,398.911 692.5,366.5 Z"/></g>
<g><path style="opacity:0.082" fill="#e7f4fa" d="M 492.5,147.5 C 492.56,146.957 492.893,146.624 493.5,146.5C 494.386,147.325 494.719,148.325 494.5,149.5C 493.833,148.833 493.167,148.167 492.5,147.5 Z"/></g>
<g><path style="opacity:1" fill="#aedbf0" d="M 601.5,259.5 C 611.007,257.709 614.673,261.375 612.5,270.5C 611.088,271.806 609.421,272.64 607.5,273C 459.222,302.156 310.889,330.989 162.5,359.5C 155.243,358.997 153.076,355.33 156,348.5C 157.171,347.107 158.671,346.273 160.5,346C 307.717,317.579 454.717,288.745 601.5,259.5 Z"/></g>
<g><path style="opacity:0.447" fill="#e6f4fa" d="M 204.5,285.5 C 205.043,285.56 205.376,285.893 205.5,286.5C 204.675,287.386 203.675,287.719 202.5,287.5C 203.167,286.833 203.833,286.167 204.5,285.5 Z"/></g>
<g><path style="opacity:1" fill="#addbf0" d="M 166.5,409.5 C 167.906,409.027 168.573,408.027 168.5,406.5C 173.861,404.32 179.527,402.82 185.5,402C 327.524,374.462 469.524,346.795 611.5,319C 615.225,318.24 618.892,318.407 622.5,319.5C 626.747,324.926 625.747,329.093 619.5,332C 472.476,360.538 325.476,389.205 178.5,418C 170.344,420.652 166.344,417.819 166.5,409.5 Z"/></g>
<g><path style="opacity:0.812" fill="#cce8f5" d="M 668.5,350.5 C 667.833,353.167 666.167,354.833 663.5,355.5C 664.833,353.5 666.5,351.833 668.5,350.5 Z"/></g>
<g><path style="opacity:1" fill="#aedbf0" d="M 677.5,406.5 C 677.427,408.027 678.094,409.027 679.5,409.5C 681.625,415.721 679.291,419.221 672.5,420C 524.642,448.705 376.809,477.538 229,506.5C 221.832,504.664 219.998,500.497 223.5,494C 373.327,463.801 523.327,434.301 673.5,405.5C 674.925,405.623 676.258,405.957 677.5,406.5 Z"/></g>
<g><path style="opacity:0.827" fill="#d4ecf7" d="M 677.5,406.5 C 678.906,406.973 679.573,407.973 679.5,409.5C 678.094,409.027 677.427,408.027 677.5,406.5 Z"/></g>
<g><path style="opacity:0.518" fill="#d7edf7" d="M 168.5,406.5 C 168.573,408.027 167.906,409.027 166.5,409.5C 166.427,407.973 167.094,406.973 168.5,406.5 Z"/></g>
<g><path style="opacity:1" fill="#addbf0" d="M 680.5,464.5 C 689.489,463.316 692.989,466.983 691,475.5C 690.097,476.701 688.931,477.535 687.5,478C 540.52,506.774 393.52,535.441 246.5,564C 237.199,567.004 233.032,563.837 234,554.5C 235.008,552.741 236.508,551.574 238.5,551C 386.028,522.46 533.361,493.627 680.5,464.5 Z"/></g>
<g><path style="opacity:0.529" fill="#d7edf7" d="M 197.5,609.5 C 199.027,609.427 200.027,610.094 200.5,611.5C 198.973,611.573 197.973,610.906 197.5,609.5 Z"/></g>
</svg>
