<?xml version="1.0" encoding="UTF-8"?>
<!DOCTYPE svg PUBLIC "-//W3C//DTD SVG 1.1//EN" "http://www.w3.org/Graphics/SVG/1.1/DTD/svg11.dtd">
<svg xmlns="http://www.w3.org/2000/svg" version="1.1" width="715px" height="1080px" style="shape-rendering:geometricPrecision; text-rendering:geometricPrecision; image-rendering:optimizeQuality; fill-rule:evenodd; clip-rule:evenodd" xmlns:xlink="http://www.w3.org/1999/xlink">
<g><path style="opacity:1" fill="#daeef7" d="M 497.5,133.5 C 528.22,134.108 546.72,149.441 553,179.5C 553.414,179.957 553.914,180.291 554.5,180.5C 651.927,142.761 698.76,176.094 695,280.5C 690.545,325.394 673.545,364.728 644,398.5C 626.663,417.559 607.496,434.392 586.5,449C 589.202,485.268 586.369,521.101 578,556.5C 569.244,588.195 552.744,615.028 528.5,637C 519.107,644.409 509.774,651.742 500.5,659C 512.078,704.145 523.578,749.312 535,794.5C 535.414,794.957 535.914,795.291 536.5,795.5C 558.119,789.845 579.785,784.345 601.5,779C 624.25,776.459 641.416,784.959 653,804.5C 661.677,823.732 659.677,841.732 647,858.5C 643.133,862.846 638.633,866.346 633.5,869C 548.167,890.667 462.833,912.333 377.5,934C 353.351,932.993 337.851,920.827 331,897.5C 326.181,870.635 336.014,851.468 360.5,840C 382.324,834.628 403.991,828.795 425.5,822.5C 413.518,776.572 401.851,730.572 390.5,684.5C 331.4,679.711 285.567,652.711 253,603.5C 239.981,584.14 228.481,563.807 218.5,542.5C 190.326,539.123 162.992,532.29 136.5,522C 88.4348,502.268 52.9348,469.101 30,422.5C 19.7536,400.533 15.4203,377.533 17,353.5C 21.7984,334.704 32.6318,320.537 49.5,311C 71.8231,299.56 95.4898,292.56 120.5,290C 112.112,266.889 116.778,246.889 134.5,230C 138.241,227.268 142.241,224.934 146.5,223C 263.586,192.979 380.586,163.146 497.5,133.5 Z M 502.5,150.5 C 518.044,151.877 528.544,159.877 534,174.5C 538.157,190.796 542.157,207.13 546,223.5C 556.081,291.893 563.747,360.56 569,429.5C 570.982,456.167 570.982,482.834 569,509.5C 565.771,555.781 547.605,594.947 514.5,627C 460.802,669.67 401.802,678.67 337.5,654C 301.995,637.828 274.828,612.661 256,578.5C 227.142,525.117 201.808,470.117 180,413.5C 167.94,381.987 156.273,350.321 145,318.5C 141.333,303.833 137.667,289.167 134,274.5C 132.278,255.426 140.444,242.926 158.5,237C 273.229,207.818 387.896,178.985 502.5,150.5 Z M 563.5,212.5 C 562.391,212.443 561.391,212.11 560.5,211.5C 559.974,207.064 558.974,202.731 557.5,198.5C 583.347,184.803 610.68,180.303 639.5,185C 657.318,190.824 668.151,202.991 672,221.5C 684.537,269.947 677.87,315.613 652,358.5C 634.464,385.704 612.464,408.704 586,427.5C 585.205,420.168 584.871,412.834 585,405.5C 636.023,369.082 660.356,319.415 658,256.5C 653.125,211.619 628.625,194.785 584.5,206C 577.315,207.674 570.315,209.84 563.5,212.5 Z M 583.5,385.5 C 582.833,383.5 582.167,381.5 581.5,379.5C 576.819,329.388 571.153,279.388 564.5,229.5C 578.5,224.042 593,220.709 608,219.5C 623.825,219.73 633.825,227.396 638,242.5C 646.468,284.96 637.468,323.293 611,357.5C 602.301,367.365 593.134,376.699 583.5,385.5 Z M 478.5,353.5 C 479.167,353.5 479.5,353.833 479.5,354.5C 463.865,372.308 448.365,390.308 433,408.5C 430.042,412.566 429.708,416.899 432,421.5C 444.958,441.248 457.791,461.082 470.5,481C 447.061,473.296 423.728,464.962 400.5,456C 398.167,455.333 395.833,455.333 393.5,456C 376.052,475.063 358.719,494.23 341.5,513.5C 342.567,491.155 343.901,468.822 345.5,446.5C 345.589,442.715 345.089,439.048 344,435.5C 320.616,425.093 296.782,415.759 272.5,407.5C 272.5,406.833 272.5,406.167 272.5,405.5C 296.85,399.496 321.184,393.329 345.5,387C 349.545,384.747 351.378,381.247 351,376.5C 353,353.167 355,329.833 357,306.5C 371.059,326.895 384.726,347.562 398,368.5C 400.995,371.265 404.495,372.098 408.5,371C 431.873,365.157 455.206,359.324 478.5,353.5 Z M 71.5,344.5 C 69.2512,345.08 67.5846,346.413 66.5,348.5C 58.2263,357.913 55.0597,368.913 57,381.5C 63.8713,416.018 81.038,444.184 108.5,466C 135.3,486.276 165.466,498.776 199,503.5C 202.364,508.884 205.364,514.551 208,520.5C 208.749,521.635 208.583,522.635 207.5,523.5C 161.39,517.539 120.723,499.706 85.5,470C 55.2753,442.051 37.9419,407.551 33.5,366.5C 33.7269,350.545 40.3936,338.045 53.5,329C 75.5375,315.701 99.3709,308.868 125,308.5C 126.012,312.883 127.179,317.216 128.5,321.5C 116.746,324.189 105.079,327.356 93.5,331C 85.2219,334.142 77.8886,338.642 71.5,344.5 Z M 191.5,483.5 C 191.158,484.338 190.492,484.672 189.5,484.5C 149.391,476.659 117.057,456.659 92.5,424.5C 92.573,422.973 91.9063,421.973 90.5,421.5C 83.1624,410.148 77.9957,397.815 75,384.5C 71.6105,372.559 74.7771,362.726 84.5,355C 99.8567,345.496 116.523,340.662 134.5,340.5C 152.529,388.593 171.529,436.26 191.5,483.5 Z M 518.5,797.5 C 518.443,798.609 518.11,799.609 517.5,800.5C 492.225,806.444 467.058,812.777 442,819.5C 430.961,775.674 419.794,732.007 408.5,688.5C 408.5,687.167 408.5,685.833 408.5,684.5C 413.363,684.819 418.03,684.486 422.5,683.5C 444.269,681.891 464.935,676.224 484.5,666.5C 495.995,710.147 507.328,753.814 518.5,797.5 Z M 603.5,795.5 C 625.783,794.467 638.45,804.967 641.5,827C 640.672,840.808 634.006,850.474 621.5,856C 541.876,876.489 462.209,896.823 382.5,917C 366.897,918.115 355.73,911.615 349,897.5C 343.529,879.91 348.696,866.41 364.5,857C 444.241,836.316 523.907,815.816 603.5,795.5 Z"/></g>
<g><path style="opacity:0.247" fill="#f5fbfd" d="M 560.5,211.5 C 561.391,212.11 562.391,212.443 563.5,212.5C 562.053,213.885 561.053,213.552 560.5,211.5 Z"/></g>
<g><path style="opacity:1" fill="#daeef7" d="M 375.5,303.5 C 375.427,305.027 376.094,306.027 377.5,306.5C 388.141,322.149 398.808,337.815 409.5,353.5C 439.415,345.688 469.415,338.188 499.5,331C 511.443,329.719 514.943,334.552 510,345.5C 489.646,369.02 469.479,392.686 449.5,416.5C 467.016,443.536 484.016,470.869 500.5,498.5C 499.402,505.432 495.402,508.265 488.5,507C 458.93,495.963 429.43,484.796 400,473.5C 379.294,496.538 358.96,519.871 339,543.5C 335.879,547.329 332.046,548.662 327.5,547.5C 327.027,546.094 326.027,545.427 324.5,545.5C 323.386,544.115 322.386,542.615 321.5,541C 324.52,509.556 326.52,478.056 327.5,446.5C 297.833,435 268.167,423.5 238.5,412C 233.184,407.041 233.184,402.041 238.5,397C 270.44,388.515 302.44,380.348 334.5,372.5C 336.834,342.159 339.334,311.825 342,281.5C 341.836,275.33 344.836,271.997 351,271.5C 352.893,272.196 354.726,273.03 356.5,274C 363.083,283.734 369.416,293.567 375.5,303.5 Z M 478.5,353.5 C 479.167,353.5 479.5,353.833 479.5,354.5C 463.865,372.308 448.365,390.308 433,408.5C 430.042,412.566 429.708,416.899 432,421.5C 444.958,441.248 457.791,461.082 470.5,481C 447.061,473.296 423.728,464.962 400.5,456C 398.167,455.333 395.833,455.333 393.5,456C 376.052,475.063 358.719,494.23 341.5,513.5C 342.567,491.155 343.901,468.822 345.5,446.5C 345.589,442.715 345.089,439.048 344,435.5C 320.616,425.093 296.782,415.759 272.5,407.5C 272.5,406.833 272.5,406.167 272.5,405.5C 296.85,399.496 321.184,393.329 345.5,387C 349.545,384.747 351.378,381.247 351,376.5C 353,353.167 355,329.833 357,306.5C 371.059,326.895 384.726,347.562 398,368.5C 400.995,371.265 404.495,372.098 408.5,371C 431.873,365.157 455.206,359.324 478.5,353.5 Z"/></g>
<g><path style="opacity:0.549" fill="#ecf6fb" d="M 375.5,303.5 C 376.906,303.973 377.573,304.973 377.5,306.5C 376.094,306.027 375.427,305.027 375.5,303.5 Z"/></g>
<g><path style="opacity:0.82" fill="#e9f5fa" d="M 71.5,344.5 C 70.4154,346.587 68.7488,347.92 66.5,348.5C 67.5846,346.413 69.2512,345.08 71.5,344.5 Z"/></g>
<g><path style="opacity:0.406" fill="#eff8fc" d="M 478.5,353.5 C 479.251,352.427 480.251,352.26 481.5,353C 480.956,353.717 480.289,354.217 479.5,354.5C 479.5,353.833 479.167,353.5 478.5,353.5 Z"/></g>
<g><path style="opacity:0.522" fill="#eff8fb" d="M 581.5,379.5 C 582.167,381.5 582.833,383.5 583.5,385.5C 583.44,386.043 583.107,386.376 582.5,386.5C 581.526,384.257 581.192,381.924 581.5,379.5 Z"/></g>
<g><path style="opacity:0.118" fill="#f5fafd" d="M 272.5,405.5 C 272.5,406.167 272.5,406.833 272.5,407.5C 270.067,406.452 270.067,405.786 272.5,405.5 Z"/></g>
<g><path style="opacity:0.573" fill="#edf6fb" d="M 90.5,421.5 C 91.9063,421.973 92.573,422.973 92.5,424.5C 91.0937,424.027 90.427,423.027 90.5,421.5 Z"/></g>
<g><path style="opacity:0.2" fill="#f2f9fc" d="M 191.5,483.5 C 192.885,484.302 192.718,484.969 191,485.5C 190.235,485.43 189.735,485.097 189.5,484.5C 190.492,484.672 191.158,484.338 191.5,483.5 Z"/></g>
<g><path style="opacity:0.455" fill="#eff7fb" d="M 324.5,545.5 C 326.027,545.427 327.027,546.094 327.5,547.5C 325.973,547.573 324.973,546.906 324.5,545.5 Z"/></g>
<g><path style="opacity:0.535" fill="#ebf6fa" d="M 422.5,683.5 C 418.03,684.486 413.363,684.819 408.5,684.5C 408.5,685.833 408.5,687.167 408.5,688.5C 407.549,687.081 407.216,685.415 407.5,683.5C 412.5,683.5 417.5,683.5 422.5,683.5 Z"/></g>
<g><path style="opacity:0.455" fill="#f0f8fb" d="M 518.5,797.5 C 519.885,798.947 519.552,799.947 517.5,800.5C 518.11,799.609 518.443,798.609 518.5,797.5 Z"/></g>
</svg>
