<?xml version="1.0" encoding="UTF-8"?>
<!DOCTYPE svg PUBLIC "-//W3C//DTD SVG 1.1//EN" "http://www.w3.org/Graphics/SVG/1.1/DTD/svg11.dtd">
<svg xmlns="http://www.w3.org/2000/svg" version="1.1" width="899px" height="973px" style="shape-rendering:geometricPrecision; text-rendering:geometricPrecision; image-rendering:optimizeQuality; fill-rule:evenodd; clip-rule:evenodd" xmlns:xlink="http://www.w3.org/1999/xlink">
<g><path style="opacity:1" fill="#acdaef" d="M 471.5,31.5 C 504.344,30.4884 531.01,42.6551 551.5,68C 588.135,58.9487 619.968,67.4487 647,93.5C 650.575,97.653 653.909,101.986 657,106.5C 732.196,304.422 807.196,502.422 882,700.5C 888.146,745.709 871.313,779.209 831.5,801C 705.5,848.667 579.5,896.333 453.5,944C 411.701,955.565 377.034,944.732 349.5,911.5C 305.949,922.265 271.116,909.599 245,873.5C 241.621,867.373 238.621,861.039 236,854.5C 165.53,667.422 94.8631,480.422 24,293.5C 11.0432,247.784 23.8765,211.284 62.5,184C 66.5,182 70.5,180 74.5,178C 197.244,131.863 319.911,85.5298 442.5,39C 452.017,35.3718 461.684,32.8718 471.5,31.5 Z M 289.5,887.5 C 288.71,886.599 287.71,885.932 286.5,885.5C 271.541,876.613 261.041,863.946 255,847.5C 183.667,658.167 112.333,468.833 41,279.5C 34.559,239.541 49.7257,211.375 86.5,195C 210.244,148.53 333.911,101.863 457.5,55C 505.693,46.8011 536.86,66.3011 551,113.5C 619,293.5 687,473.5 755,653.5C 766.432,681.509 763.099,707.509 745,731.5C 735.26,741.625 723.76,749.125 710.5,754C 585.966,801.066 461.299,847.733 336.5,894C 320.099,897.044 304.432,894.877 289.5,887.5 Z M 579.5,84.5 C 611.464,86.6385 633.964,102.305 647,131.5C 717.47,318.578 788.137,505.578 859,692.5C 869.111,725.234 861.278,752.734 835.5,775C 831.833,777.333 828.167,779.667 824.5,782C 701.167,828.667 577.833,875.333 454.5,922C 422.397,934.638 394.397,928.638 370.5,904C 489.5,859 608.5,814 727.5,769C 771.642,745.876 788.808,709.709 779,660.5C 707.324,469.306 635.158,278.306 562.5,87.5C 568.226,86.1176 573.893,85.1176 579.5,84.5 Z"/></g>
<g><path style="opacity:1" fill="#acdaef" d="M 524.5,238.5 C 535.193,238.344 539.36,243.344 537,253.5C 535.457,255.378 533.624,256.878 531.5,258C 408.833,304.333 286.167,350.667 163.5,397C 152.198,398.208 148.032,393.375 151,382.5C 152.543,380.622 154.376,379.122 156.5,378C 279.46,331.962 402.127,285.462 524.5,238.5 Z"/></g>
<g><path style="opacity:1" fill="#acdaef" d="M 556.5,315.5 C 568.141,316.112 571.641,321.779 567,332.5C 566.097,333.701 564.931,334.535 563.5,335C 441.167,381.333 318.833,427.667 196.5,474C 184.557,478.041 179.057,473.875 180,461.5C 181.167,459 183,457.167 185.5,456C 309.46,409.629 433.127,362.796 556.5,315.5 Z"/></g>
<g><path style="opacity:1" fill="#acdaef" d="M 585.5,392.5 C 595.429,392.025 599.595,396.691 598,406.5C 596.833,409 595,410.833 592.5,412C 470.167,458.333 347.833,504.667 225.5,551C 213.557,555.041 208.057,550.875 209,538.5C 210.167,536 212,534.167 214.5,533C 338.46,486.629 462.127,439.796 585.5,392.5 Z"/></g>
<g><path style="opacity:1" fill="#acdaef" d="M 614.5,469.5 C 625.938,469.432 629.771,474.765 626,485.5C 624.269,487.617 622.102,489.117 619.5,490C 497.756,535.804 376.089,581.804 254.5,628C 242.557,632.041 237.057,627.875 238,615.5C 239.167,613 241,611.167 243.5,610C 367.46,563.629 491.127,516.796 614.5,469.5 Z"/></g>
<g><path style="opacity:1" fill="#acdaef" d="M 267.5,692.5 C 268.906,692.027 269.573,691.027 269.5,689.5C 342.716,660.478 416.383,632.312 490.5,605C 502.598,603.681 506.765,608.848 503,620.5C 500.749,622.377 498.249,623.877 495.5,625C 423.833,652 352.167,679 280.5,706C 269.691,707.363 265.358,702.863 267.5,692.5 Z"/></g>
<g><path style="opacity:0.549" fill="#d7edf7" d="M 269.5,689.5 C 269.573,691.027 268.906,692.027 267.5,692.5C 267.427,690.973 268.094,689.973 269.5,689.5 Z"/></g>
<g><path style="opacity:0.902" fill="#d7edf7" d="M 286.5,885.5 C 287.71,885.932 288.71,886.599 289.5,887.5C 287.821,887.715 286.821,887.048 286.5,885.5 Z"/></g>
</svg>
