<?xml version="1.0" encoding="UTF-8"?>
<!DOCTYPE svg PUBLIC "-//W3C//DTD SVG 1.1//EN" "http://www.w3.org/Graphics/SVG/1.1/DTD/svg11.dtd">
<svg xmlns="http://www.w3.org/2000/svg" version="1.1" width="778px" height="1080px" style="shape-rendering:geometricPrecision; text-rendering:geometricPrecision; image-rendering:optimizeQuality; fill-rule:evenodd; clip-rule:evenodd" xmlns:xlink="http://www.w3.org/1999/xlink">
<g><path style="opacity:0.999" fill="#daeef7" d="M 379.5,160.5 C 406.979,158.322 429.979,167.322 448.5,187.5C 483.639,176.323 513.139,184.657 537,212.5C 610.326,373.132 683.659,533.799 757,694.5C 765.488,722.728 760.154,748.062 741,770.5C 735.791,775.378 730.291,779.878 724.5,784C 621.5,831 518.5,878 415.5,925C 388.057,935.896 362.057,933.23 337.5,917C 332.685,913.352 328.352,909.185 324.5,904.5C 295.066,914.512 268.399,909.679 244.5,890C 239.622,884.791 235.122,879.291 231,873.5C 160.059,718.619 89.3927,563.619 19,408.5C 2.55719,366.506 12.7239,332.673 49.5,307C 151.286,260.941 252.952,214.607 354.5,168C 362.63,164.39 370.963,161.89 379.5,160.5 Z M 380.5,177.5 C 405.986,175.828 425.82,185.494 440,206.5C 512.248,364.248 583.915,522.248 655,680.5C 660.733,708.526 651.9,730.693 628.5,747C 526.286,793.941 423.952,840.607 321.5,887C 286.751,899.086 260.251,889.253 242,857.5C 172.333,704.167 102.667,550.833 33,397.5C 22.9764,367.91 30.143,343.41 54.5,324C 155.749,277.473 257.082,231.14 358.5,185C 365.708,181.765 373.042,179.265 380.5,177.5 Z M 468.5,199.5 C 493.577,198.122 513.077,207.789 527,228.5C 597.941,383.381 668.607,538.381 739,693.5C 750.288,727.307 740.788,753.474 710.5,772C 608.5,818.333 506.5,864.667 404.5,911C 380.616,918.692 359.616,914.026 341.5,897C 439.5,852.333 537.5,807.667 635.5,763C 664.832,744.163 677.332,717.33 673,682.5C 671.67,674.842 669.336,667.509 666,660.5C 596.355,508.044 526.855,355.544 457.5,203C 461.114,201.409 464.78,200.242 468.5,199.5 Z"/></g>
<g><path style="opacity:1" fill="#daeef7" d="M 435.5,330.5 C 442.967,331.131 446.134,335.131 445,342.5C 444.215,344.286 443.049,345.786 441.5,347C 340.833,392.667 240.167,438.333 139.5,484C 129.827,484.995 126.327,480.828 129,471.5C 132.081,468.707 135.581,466.54 139.5,465C 238.376,420.391 337.043,375.558 435.5,330.5 Z"/></g>
<g><path style="opacity:0.999" fill="#daeef7" d="M 466.5,393.5 C 472.329,393.659 475.662,396.659 476.5,402.5C 475.093,408.23 471.427,411.73 465.5,413C 365.511,458.578 265.345,503.745 165,548.5C 156.614,546.06 154.614,541.06 159,533.5C 261.47,486.521 363.97,439.855 466.5,393.5 Z"/></g>
<g><path style="opacity:0.999" fill="#daeef7" d="M 493.5,456.5 C 503.36,456.543 506.527,461.21 503,470.5C 401.844,517.66 300.344,564.16 198.5,610C 193.361,612.506 189.194,611.339 186,606.5C 184.703,601.883 185.87,598.05 189.5,595C 291.043,549.058 392.376,502.891 493.5,456.5 Z"/></g>
<g><path style="opacity:0.999" fill="#daeef7" d="M 219.5,673.5 C 219.027,672.094 218.027,671.427 216.5,671.5C 212.199,664.26 214.199,659.094 222.5,656C 323.168,610.082 424.001,564.582 525,519.5C 533.377,521.924 535.377,526.924 531,534.5C 428.243,581.712 325.243,628.379 222,674.5C 221.098,674.257 220.265,673.923 219.5,673.5 Z"/></g>
<g><path style="opacity:0.999" fill="#daeef7" d="M 427.5,638.5 C 436.008,638.833 439.175,643.166 437,651.5C 435.833,652.667 434.667,653.833 433.5,655C 374.167,682 314.833,709 255.5,736C 246.338,738.161 242.171,734.661 243,725.5C 243.785,723.714 244.951,722.214 246.5,721C 306.977,693.574 367.311,666.074 427.5,638.5 Z"/></g>
<g><path style="opacity:0.439" fill="#eff8fb" d="M 216.5,671.5 C 218.027,671.427 219.027,672.094 219.5,673.5C 217.973,673.573 216.973,672.906 216.5,671.5 Z"/></g>
</svg>
