<?xml version="1.0" encoding="UTF-8"?>
<!DOCTYPE svg PUBLIC "-//W3C//DTD SVG 1.1//EN" "http://www.w3.org/Graphics/SVG/1.1/DTD/svg11.dtd">
<svg xmlns="http://www.w3.org/2000/svg" version="1.1" width="500px" height="500px" style="shape-rendering:geometricPrecision; text-rendering:geometricPrecision; image-rendering:optimizeQuality; fill-rule:evenodd; clip-rule:evenodd" xmlns:xlink="http://www.w3.org/1999/xlink">
<g><path style="opacity:0.999" fill="#bbe2f0" d="M 53.5,0.5 C 53.1671,125.668 53.5004,250.668 54.5,375.5C 54.6311,379.285 55.2978,382.952 56.5,386.5C 54.3881,385.725 52.3881,385.725 50.5,386.5C 50.5,257.833 50.5,129.167 50.5,0.5C 51.5,0.5 52.5,0.5 53.5,0.5 Z"/></g>
<g><path style="opacity:0.998" fill="#bedff5" d="M 53.5,0.5 C 54.5,0.5 55.5,0.5 56.5,0.5C 55.8611,125.661 55.1944,250.661 54.5,375.5C 53.5004,250.668 53.1671,125.668 53.5,0.5 Z"/></g>
<g><path style="opacity:0.998" fill="#bce2f2" d="M 63.5,0.5 C 192.5,0.5 321.5,0.5 450.5,0.5C 450.477,65.9883 450.477,131.322 450.5,196.5C 449.778,196.918 449.278,197.584 449,198.5C 448.333,255.5 448.333,312.5 449,369.5C 449.191,371.708 449.691,373.708 450.5,375.5C 450.805,380.762 450.471,385.928 449.5,391C 383.246,426.955 317.246,463.122 251.5,499.5C 250.167,499.5 248.833,499.5 247.5,499.5C 218.167,482.5 188.833,465.5 159.5,448.5C 159.5,446.833 159.5,445.167 159.5,443.5C 158.325,443.719 157.325,443.386 156.5,442.5C 156.938,441.494 157.604,441.494 158.5,442.5C 159.386,441.675 159.719,440.675 159.5,439.5C 158.127,439.343 156.793,439.51 155.5,440C 153.365,440.876 152.031,442.376 151.5,444.5C 148.797,442.819 146.131,441.153 143.5,439.5C 142.798,437.443 142.465,435.443 142.5,433.5C 141.148,434.524 139.815,435.524 138.5,436.5C 112.699,422.432 87.0324,408.099 61.5,393.5C 64.1918,390.858 67.5251,389.858 71.5,390.5C 71.6658,385.821 71.4992,381.155 71,376.5C 68.6194,375.565 66.1194,375.232 63.5,375.5C 63.5,372.833 63.5,370.167 63.5,367.5C 70.6593,369.18 72.9926,366.68 70.5,360C 68.1902,359.503 65.8568,359.337 63.5,359.5C 63.5,356.833 63.5,354.167 63.5,351.5C 70.6593,353.18 72.9926,350.68 70.5,344C 68.1902,343.503 65.8568,343.337 63.5,343.5C 63.5,340.833 63.5,338.167 63.5,335.5C 70.6593,337.18 72.9926,334.68 70.5,328C 68.1902,327.503 65.8568,327.337 63.5,327.5C 63.5,324.833 63.5,322.167 63.5,319.5C 70.6593,321.18 72.9926,318.68 70.5,312C 68.1902,311.503 65.8568,311.337 63.5,311.5C 63.5,308.833 63.5,306.167 63.5,303.5C 70.6593,305.18 72.9926,302.68 70.5,296C 68.1902,295.503 65.8568,295.337 63.5,295.5C 63.5,292.833 63.5,290.167 63.5,287.5C 70.6593,289.18 72.9926,286.68 70.5,280C 68.1902,279.503 65.8568,279.337 63.5,279.5C 63.5,276.833 63.5,274.167 63.5,271.5C 70.6593,273.18 72.9926,270.68 70.5,264C 68.1902,263.503 65.8568,263.337 63.5,263.5C 63.5,260.833 63.5,258.167 63.5,255.5C 70.6593,257.18 72.9926,254.68 70.5,248C 68.1902,247.503 65.8568,247.337 63.5,247.5C 63.5,244.833 63.5,242.167 63.5,239.5C 70.6593,241.18 72.9926,238.68 70.5,232C 68.1902,231.503 65.8568,231.337 63.5,231.5C 63.5,228.833 63.5,226.167 63.5,223.5C 70.6593,225.18 72.9926,222.68 70.5,216C 68.1902,215.503 65.8568,215.337 63.5,215.5C 63.5,212.833 63.5,210.167 63.5,207.5C 70.6593,209.18 72.9926,206.68 70.5,200C 68.1902,199.503 65.8568,199.337 63.5,199.5C 63.5,196.833 63.5,194.167 63.5,191.5C 70.6593,193.18 72.9926,190.68 70.5,184C 68.1902,183.503 65.8568,183.337 63.5,183.5C 63.5,180.833 63.5,178.167 63.5,175.5C 70.6593,177.18 72.9926,174.68 70.5,168C 68.1902,167.503 65.8568,167.337 63.5,167.5C 63.5,164.833 63.5,162.167 63.5,159.5C 70.6593,161.18 72.9926,158.68 70.5,152C 68.1902,151.503 65.8568,151.337 63.5,151.5C 63.5,148.833 63.5,146.167 63.5,143.5C 70.6593,145.18 72.9926,142.68 70.5,136C 68.1902,135.503 65.8568,135.337 63.5,135.5C 63.5,132.833 63.5,130.167 63.5,127.5C 70.6593,129.18 72.9926,126.68 70.5,120C 68.1902,119.503 65.8568,119.337 63.5,119.5C 63.5,116.833 63.5,114.167 63.5,111.5C 70.6593,113.18 72.9926,110.68 70.5,104C 68.1902,103.503 65.8568,103.337 63.5,103.5C 63.5,100.833 63.5,98.1667 63.5,95.5C 70.6593,97.1797 72.9926,94.6797 70.5,88C 68.1902,87.5034 65.8568,87.3367 63.5,87.5C 63.5,84.8333 63.5,82.1667 63.5,79.5C 70.6593,81.1797 72.9926,78.6797 70.5,72C 68.1902,71.5034 65.8568,71.3367 63.5,71.5C 63.5,68.8333 63.5,66.1667 63.5,63.5C 70.6593,65.1797 72.9926,62.6797 70.5,56C 68.1902,55.5034 65.8568,55.3367 63.5,55.5C 63.5,52.8333 63.5,50.1667 63.5,47.5C 70.6593,49.1797 72.9926,46.6797 70.5,40C 68.1902,39.5034 65.8568,39.3367 63.5,39.5C 63.5,36.8333 63.5,34.1667 63.5,31.5C 70.6593,33.1797 72.9926,30.6797 70.5,24C 68.1902,23.5034 65.8568,23.3367 63.5,23.5C 63.5,20.8333 63.5,18.1667 63.5,15.5C 70.6593,17.1797 72.9926,14.6797 70.5,8C 68.1902,7.50335 65.8568,7.33669 63.5,7.5C 63.5,5.16667 63.5,2.83333 63.5,0.5 Z"/></g>
<g><path style="opacity:1" fill="#bce1f4" d="M 56.5,0.5 C 58.8333,0.5 61.1667,0.5 63.5,0.5C 63.5,2.83333 63.5,5.16667 63.5,7.5C 65.8568,7.33669 68.1902,7.50335 70.5,8C 72.9926,14.6797 70.6593,17.1797 63.5,15.5C 63.5,18.1667 63.5,20.8333 63.5,23.5C 65.8568,23.3367 68.1902,23.5034 70.5,24C 72.9926,30.6797 70.6593,33.1797 63.5,31.5C 63.5,34.1667 63.5,36.8333 63.5,39.5C 65.8568,39.3367 68.1902,39.5034 70.5,40C 72.9926,46.6797 70.6593,49.1797 63.5,47.5C 63.5,50.1667 63.5,52.8333 63.5,55.5C 65.8568,55.3367 68.1902,55.5034 70.5,56C 72.9926,62.6797 70.6593,65.1797 63.5,63.5C 63.5,66.1667 63.5,68.8333 63.5,71.5C 65.8568,71.3367 68.1902,71.5034 70.5,72C 72.9926,78.6797 70.6593,81.1797 63.5,79.5C 63.5,82.1667 63.5,84.8333 63.5,87.5C 65.8568,87.3367 68.1902,87.5034 70.5,88C 72.9926,94.6797 70.6593,97.1797 63.5,95.5C 63.5,98.1667 63.5,100.833 63.5,103.5C 65.8568,103.337 68.1902,103.503 70.5,104C 72.9926,110.68 70.6593,113.18 63.5,111.5C 63.5,114.167 63.5,116.833 63.5,119.5C 65.8568,119.337 68.1902,119.503 70.5,120C 72.9926,126.68 70.6593,129.18 63.5,127.5C 63.5,130.167 63.5,132.833 63.5,135.5C 65.8568,135.337 68.1902,135.503 70.5,136C 72.9926,142.68 70.6593,145.18 63.5,143.5C 63.5,146.167 63.5,148.833 63.5,151.5C 65.8568,151.337 68.1902,151.503 70.5,152C 72.9926,158.68 70.6593,161.18 63.5,159.5C 63.5,162.167 63.5,164.833 63.5,167.5C 65.8568,167.337 68.1902,167.503 70.5,168C 72.9926,174.68 70.6593,177.18 63.5,175.5C 63.5,178.167 63.5,180.833 63.5,183.5C 65.8568,183.337 68.1902,183.503 70.5,184C 72.9926,190.68 70.6593,193.18 63.5,191.5C 63.5,194.167 63.5,196.833 63.5,199.5C 65.8568,199.337 68.1902,199.503 70.5,200C 72.9926,206.68 70.6593,209.18 63.5,207.5C 63.5,210.167 63.5,212.833 63.5,215.5C 65.8568,215.337 68.1902,215.503 70.5,216C 72.9926,222.68 70.6593,225.18 63.5,223.5C 63.5,226.167 63.5,228.833 63.5,231.5C 65.8568,231.337 68.1902,231.503 70.5,232C 72.9926,238.68 70.6593,241.18 63.5,239.5C 63.5,242.167 63.5,244.833 63.5,247.5C 65.8568,247.337 68.1902,247.503 70.5,248C 72.9926,254.68 70.6593,257.18 63.5,255.5C 63.5,258.167 63.5,260.833 63.5,263.5C 65.8568,263.337 68.1902,263.503 70.5,264C 72.9926,270.68 70.6593,273.18 63.5,271.5C 63.5,274.167 63.5,276.833 63.5,279.5C 65.8568,279.337 68.1902,279.503 70.5,280C 72.9926,286.68 70.6593,289.18 63.5,287.5C 63.5,290.167 63.5,292.833 63.5,295.5C 65.8568,295.337 68.1902,295.503 70.5,296C 72.9926,302.68 70.6593,305.18 63.5,303.5C 63.5,306.167 63.5,308.833 63.5,311.5C 65.8568,311.337 68.1902,311.503 70.5,312C 72.9926,318.68 70.6593,321.18 63.5,319.5C 63.5,322.167 63.5,324.833 63.5,327.5C 65.8568,327.337 68.1902,327.503 70.5,328C 72.9926,334.68 70.6593,337.18 63.5,335.5C 63.5,338.167 63.5,340.833 63.5,343.5C 65.8568,343.337 68.1902,343.503 70.5,344C 72.9926,350.68 70.6593,353.18 63.5,351.5C 63.5,354.167 63.5,356.833 63.5,359.5C 65.8568,359.337 68.1902,359.503 70.5,360C 72.9926,366.68 70.6593,369.18 63.5,367.5C 63.5,370.167 63.5,372.833 63.5,375.5C 66.1194,375.232 68.6194,375.565 71,376.5C 71.4992,381.155 71.6658,385.821 71.5,390.5C 67.5251,389.858 64.1918,390.858 61.5,393.5C 57.6277,391.403 53.961,389.069 50.5,386.5C 52.3881,385.725 54.3881,385.725 56.5,386.5C 55.2978,382.952 54.6311,379.285 54.5,375.5C 55.1944,250.661 55.8611,125.661 56.5,0.5 Z"/></g>
<g><path style="opacity:1" fill="#fdfdfd" d="M 301.5,76.5 C 303.932,84.4743 306.932,92.1409 310.5,99.5C 310.394,102.079 311.061,104.412 312.5,106.5C 314.386,113.827 317.052,120.827 320.5,127.5C 321.538,131.913 322.871,136.246 324.5,140.5C 322.147,146.532 319.814,152.532 317.5,158.5C 316.21,159.058 315.377,160.058 315,161.5C 312.597,168.721 309.764,175.721 306.5,182.5C 302.461,190.932 298.795,199.599 295.5,208.5C 293.027,212.459 291.36,216.793 290.5,221.5C 287.688,224.913 286.021,228.913 285.5,233.5C 283.864,234.749 282.697,236.416 282,238.5C 278.387,247.184 274.887,255.851 271.5,264.5C 268.575,270.018 265.908,275.684 263.5,281.5C 260.791,289.06 257.791,296.394 254.5,303.5C 252.175,308.799 249.841,314.132 247.5,319.5C 246.25,319.577 245.417,320.244 245,321.5C 244.911,318.157 243.411,315.824 240.5,314.5C 239.628,308.85 237.628,303.85 234.5,299.5C 234.768,297.901 234.434,296.568 233.5,295.5C 233.326,293.139 232.993,290.806 232.5,288.5C 231.461,281.75 230.794,275.083 230.5,268.5C 229.686,270.766 229.186,273.1 229,275.5C 228.31,274.262 227.81,274.262 227.5,275.5C 225.697,270.089 223.697,264.756 221.5,259.5C 221.768,257.901 221.434,256.568 220.5,255.5C 223.513,247.455 226.513,239.455 229.5,231.5C 231.343,229.147 232.677,226.48 233.5,223.5C 234.546,220.81 235.546,218.143 236.5,215.5C 238.585,213.316 239.585,210.649 239.5,207.5C 240.167,207.5 240.5,207.167 240.5,206.5C 242.833,201.833 245.167,197.167 247.5,192.5C 248.351,190.29 249.684,188.29 251.5,186.5C 252.466,184.604 252.799,182.604 252.5,180.5C 254.167,175.833 255.833,171.167 257.5,166.5C 259.462,162.576 261.462,158.576 263.5,154.5C 275.204,127.949 286.704,101.282 298,74.5C 298.308,73.6919 298.808,73.0253 299.5,72.5C 300.362,73.7658 301.029,75.0992 301.5,76.5 Z"/></g>
<g><path style="opacity:1" fill="#c3e2ec" d="M 301.5,76.5 C 302.376,76.3691 303.043,76.7025 303.5,77.5C 304.279,81.0573 305.612,84.3907 307.5,87.5C 308.931,87.9766 310.264,88.6433 311.5,89.5C 311.274,92.5725 310.941,95.9058 310.5,99.5C 306.932,92.1409 303.932,84.4743 301.5,76.5 Z"/></g>
<g><path style="opacity:1" fill="#fdfdfd" d="M 219.5,119.5 C 219.875,123.96 221.209,127.96 223.5,131.5C 227.165,143.662 231.332,155.662 236,167.5C 236.953,170.432 237.453,173.432 237.5,176.5C 235.112,181.328 233.112,186.328 231.5,191.5C 229.408,194.088 228.075,197.088 227.5,200.5C 227.5,200.833 227.5,201.167 227.5,201.5C 226.883,201.611 226.383,201.944 226,202.5C 219.404,222.25 211.904,241.584 203.5,260.5C 201.271,264.291 198.937,268.124 196.5,272C 196.986,274.027 196.986,276.193 196.5,278.5C 195.681,280.772 195.015,283.106 194.5,285.5C 174.833,285.5 155.167,285.5 135.5,285.5C 135.5,283.833 135.5,282.167 135.5,280.5C 135.989,279.005 136.655,277.671 137.5,276.5C 139.185,275.816 140.185,274.483 140.5,272.5C 141.325,271.614 142.325,271.281 143.5,271.5C 142.835,266.498 144.168,262.165 147.5,258.5C 146.754,257.264 146.421,255.93 146.5,254.5C 149.721,245.238 153.388,236.238 157.5,227.5C 158.397,228.598 159.23,228.598 160,227.5C 161.254,221.662 163.587,216.328 167,211.5C 167.748,206.314 168.914,201.314 170.5,196.5C 171.629,192.247 173.295,188.247 175.5,184.5C 178.165,182.165 179.498,179.165 179.5,175.5C 180.439,172.197 181.439,168.864 182.5,165.5C 184.567,161.394 186.234,157.06 187.5,152.5C 192.269,143.203 196.269,133.537 199.5,123.5C 201.071,121.365 202.404,119.032 203.5,116.5C 204.75,116.423 205.583,115.756 206,114.5C 207.608,111.379 208.441,108.046 208.5,104.5C 209.148,102.914 209.648,101.247 210,99.5C 210.667,98.1667 211.333,98.1667 212,99.5C 214.03,106.432 216.53,113.099 219.5,119.5 Z"/></g>
<g><path style="opacity:1" fill="#ecfbfc" d="M 208.5,104.5 C 208.441,108.046 207.608,111.379 206,114.5C 205.583,115.756 204.75,116.423 203.5,116.5C 203.539,113.465 204.539,110.798 206.5,108.5C 206.989,107.005 207.655,105.671 208.5,104.5 Z"/></g>
<g><path style="opacity:1" fill="#c4e1eb" d="M 206.5,108.5 C 204.539,110.798 203.539,113.465 203.5,116.5C 202.404,119.032 201.071,121.365 199.5,123.5C 199.966,121.799 199.966,120.299 199.5,119C 201.593,116.218 202.76,113.051 203,109.5C 204.011,108.663 205.178,108.33 206.5,108.5 Z"/></g>
<g><path style="opacity:1" fill="#c8e4f0" d="M 312.5,106.5 C 313.906,108.474 315.406,110.474 317,112.5C 318.17,117.531 319.337,122.531 320.5,127.5C 317.052,120.827 314.386,113.827 312.5,106.5 Z"/></g>
<g><path style="opacity:1" fill="#c3e5ec" d="M 219.5,119.5 C 222.773,119.471 223.44,120.804 221.5,123.5C 223.049,125.902 223.716,128.568 223.5,131.5C 221.209,127.96 219.875,123.96 219.5,119.5 Z"/></g>
<g><path style="opacity:1" fill="#c2dff3" d="M 263.5,154.5 C 261.462,158.576 259.462,162.576 257.5,166.5C 256.223,165.306 255.556,163.64 255.5,161.5C 255.833,159.833 256.167,158.167 256.5,156.5C 258.283,160.403 259.45,160.07 260,155.5C 261.011,154.663 262.178,154.33 263.5,154.5 Z"/></g>
<g><path style="opacity:1" fill="#c5e3ec" d="M 187.5,152.5 C 186.234,157.06 184.567,161.394 182.5,165.5C 182.256,160.339 183.922,156.006 187.5,152.5 Z"/></g>
<g><path style="opacity:1" fill="#fdfdfd" d="M 344.5,182.5 C 346.59,185.84 347.923,189.507 348.5,193.5C 349.827,199.136 351.327,204.802 353,210.5C 353.671,211.252 354.504,211.586 355.5,211.5C 357.715,214.596 359.381,217.929 360.5,221.5C 362.511,227.515 364.511,233.515 366.5,239.5C 368.413,245.378 370.08,251.378 371.5,257.5C 370.167,257.5 368.833,257.5 367.5,257.5C 344.67,256.668 321.67,256.168 298.5,256C 296.893,254.951 296.227,253.451 296.5,251.5C 299.181,248.114 300.847,244.114 301.5,239.5C 302.774,237.007 303.44,234.341 303.5,231.5C 305.874,228.051 307.874,224.384 309.5,220.5C 310.496,220.586 311.329,220.252 312,219.5C 312.363,216.456 312.863,213.456 313.5,210.5C 314.11,209.609 314.443,208.609 314.5,207.5C 316.969,206.393 317.969,204.393 317.5,201.5C 317.833,200.167 318.167,198.833 318.5,197.5C 321.397,191.36 324.064,185.026 326.5,178.5C 329.036,172.071 331.869,165.737 335,159.5C 338.321,167.138 341.488,174.805 344.5,182.5 Z"/></g>
<g><path style="opacity:1" fill="#c6e1ee" d="M 317.5,158.5 C 317.799,160.604 317.466,162.604 316.5,164.5C 313.626,168.251 311.626,172.418 310.5,177C 311.672,178.868 311.505,180.702 310,182.5C 308.855,181.316 307.688,181.316 306.5,182.5C 309.764,175.721 312.597,168.721 315,161.5C 315.377,160.058 316.21,159.058 317.5,158.5 Z"/></g>
<g><path style="opacity:1" fill="#eefbfd" d="M 252.5,180.5 C 252.799,182.604 252.466,184.604 251.5,186.5C 249.684,188.29 248.351,190.29 247.5,192.5C 247.4,189.892 248.067,187.558 249.5,185.5C 250.687,183.928 251.687,182.261 252.5,180.5 Z"/></g>
<g><path style="opacity:1" fill="#effcfc" d="M 179.5,175.5 C 179.498,179.165 178.165,182.165 175.5,184.5C 175.924,181.082 177.258,178.082 179.5,175.5 Z"/></g>
<g><path style="opacity:1" fill="#c2e4ef" d="M 237.5,176.5 C 237.84,178.679 238.84,180.512 240.5,182C 239.095,183.269 237.429,183.769 235.5,183.5C 234.753,186.587 233.42,189.254 231.5,191.5C 233.112,186.328 235.112,181.328 237.5,176.5 Z"/></g>
<g><path style="opacity:1" fill="#bbe2f0" d="M 239.5,207.5 C 238.603,206.402 237.77,206.402 237,207.5C 234.907,205.427 233.073,205.927 231.5,209C 233.016,211.341 234.683,213.508 236.5,215.5C 235.546,218.143 234.546,220.81 233.5,223.5C 231.824,222.817 231.157,221.483 231.5,219.5C 228.833,219.5 226.167,219.5 223.5,219.5C 223.417,216.61 224.917,215.943 228,217.5C 230.034,217.646 231.701,216.98 233,215.5C 231.296,212.742 230.129,209.575 229.5,206C 230.63,203.593 231.463,201.093 232,198.5C 233.011,197.663 234.178,197.33 235.5,197.5C 235.26,194.421 235.593,191.421 236.5,188.5C 238.782,187.1 240.282,187.766 241,190.5C 240.107,196.05 239.607,201.717 239.5,207.5 Z"/></g>
<g><path style="opacity:1" fill="#bde2f1" d="M 322.5,183.5 C 321.612,186.243 320.445,188.91 319,191.5C 318.505,193.473 318.338,195.473 318.5,197.5C 318.167,198.833 317.833,200.167 317.5,201.5C 315.755,203.033 314.755,205.033 314.5,207.5C 314.443,208.609 314.11,209.609 313.5,210.5C 311.787,211.635 311.12,213.302 311.5,215.5C 310.761,215.369 310.094,215.536 309.5,216C 308.624,217.586 307.624,219.086 306.5,220.5C 304.833,218.833 303.833,219.167 303.5,221.5C 304.167,222.833 304.833,224.167 305.5,225.5C 304.822,227.516 304.156,229.516 303.5,231.5C 303.44,234.341 302.774,237.007 301.5,239.5C 299.345,243.162 297.678,247.162 296.5,251.5C 295.326,252.514 294.66,253.847 294.5,255.5C 292.554,256.035 291.554,257.368 291.5,259.5C 287.522,261.293 285.522,259.96 285.5,255.5C 284.041,255.433 282.708,255.766 281.5,256.5C 281.296,253.482 280.963,250.482 280.5,247.5C 280.589,243.715 282.256,242.381 285.5,243.5C 288.694,243.327 292.027,243.66 295.5,244.5C 297.954,240.625 300.12,236.625 302,232.5C 301.29,223.996 301.457,215.496 302.5,207C 302.182,204.625 300.849,203.458 298.5,203.5C 298.896,206.044 298.229,208.211 296.5,210C 298.036,217.968 297.703,225.802 295.5,233.5C 292.751,233.726 290.084,233.393 287.5,232.5C 286.818,233.243 286.151,233.909 285.5,234.5C 285.5,234.167 285.5,233.833 285.5,233.5C 286.021,228.913 287.688,224.913 290.5,221.5C 290.821,223.048 291.821,223.715 293.5,223.5C 294.167,218.5 294.833,213.5 295.5,208.5C 298.795,199.599 302.461,190.932 306.5,182.5C 306.037,185.482 305.704,188.482 305.5,191.5C 306.675,191.719 307.675,191.386 308.5,190.5C 311.08,188.085 313.08,185.251 314.5,182C 316.934,181.667 317.934,182.834 317.5,185.5C 319.554,185.635 321.221,184.968 322.5,183.5 Z"/></g>
<g><path style="opacity:1" fill="#c5e2ec" d="M 326.5,178.5 C 324.064,185.026 321.397,191.36 318.5,197.5C 318.338,195.473 318.505,193.473 319,191.5C 320.445,188.91 321.612,186.243 322.5,183.5C 323.128,181.338 324.461,179.672 326.5,178.5 Z"/></g>
<g><path style="opacity:1" fill="#c3e1f1" d="M 249.5,185.5 C 248.067,187.558 247.4,189.892 247.5,192.5C 245.167,197.167 242.833,201.833 240.5,206.5C 241.238,199.241 243.404,192.574 247,186.5C 247.671,185.748 248.504,185.414 249.5,185.5 Z"/></g>
<g><path style="opacity:1" fill="#c3e1ec" d="M 360.5,221.5 C 359.381,217.929 357.715,214.596 355.5,211.5C 353.552,205.319 351.219,199.319 348.5,193.5C 347.923,189.507 346.59,185.84 344.5,182.5C 345.117,182.389 345.617,182.056 346,181.5C 350.141,191.684 354.141,202.017 358,212.5C 358.333,212.167 358.667,211.833 359,211.5C 360.043,214.757 360.543,218.09 360.5,221.5 Z"/></g>
<g><path style="opacity:1" fill="#cfe6f0" d="M 231.5,191.5 C 231.657,192.873 231.49,194.207 231,195.5C 230.098,197.431 228.931,199.097 227.5,200.5C 228.075,197.088 229.408,194.088 231.5,191.5 Z"/></g>
<g><path style="opacity:1" fill="#f2fdfe" d="M 348.5,193.5 C 351.219,199.319 353.552,205.319 355.5,211.5C 354.504,211.586 353.671,211.252 353,210.5C 351.327,204.802 349.827,199.136 348.5,193.5 Z"/></g>
<g><path style="opacity:1" fill="#bce3e9" d="M 239.5,207.5 C 239.585,210.649 238.585,213.316 236.5,215.5C 234.683,213.508 233.016,211.341 231.5,209C 233.073,205.927 234.907,205.427 237,207.5C 237.77,206.402 238.603,206.402 239.5,207.5 Z"/></g>
<g><path style="opacity:1" fill="#e8f6fd" d="M 317.5,201.5 C 317.969,204.393 316.969,206.393 314.5,207.5C 314.755,205.033 315.755,203.033 317.5,201.5 Z"/></g>
<g><path style="opacity:1" fill="#f3fcfe" d="M 170.5,196.5 C 168.914,201.314 167.748,206.314 167,211.5C 163.587,216.328 161.254,221.662 160,227.5C 159.23,228.598 158.397,228.598 157.5,227.5C 158.655,224.543 159.655,221.543 160.5,218.5C 164.202,212.732 166.536,206.399 167.5,199.5C 168.728,198.694 169.728,197.694 170.5,196.5 Z"/></g>
<g><path style="opacity:1" fill="#c6e1ef" d="M 167.5,199.5 C 166.536,206.399 164.202,212.732 160.5,218.5C 161.864,211.736 164.197,205.402 167.5,199.5 Z"/></g>
<g><path style="opacity:0.98" fill="#cae2f1" d="M 450.5,196.5 C 449.187,256.158 449.187,315.825 450.5,375.5C 449.691,373.708 449.191,371.708 449,369.5C 448.333,312.5 448.333,255.5 449,198.5C 449.278,197.584 449.778,196.918 450.5,196.5 Z"/></g>
<g><path style="opacity:1" fill="#c0e3ec" d="M 295.5,208.5 C 294.833,213.5 294.167,218.5 293.5,223.5C 291.821,223.715 290.821,223.048 290.5,221.5C 291.36,216.793 293.027,212.459 295.5,208.5 Z"/></g>
<g><path style="opacity:1" fill="#eefafd" d="M 313.5,210.5 C 312.863,213.456 312.363,216.456 312,219.5C 311.329,220.252 310.496,220.586 309.5,220.5C 309.893,218.716 310.559,217.05 311.5,215.5C 311.12,213.302 311.787,211.635 313.5,210.5 Z"/></g>
<g><path style="opacity:1" fill="#c4e3eb" d="M 311.5,215.5 C 310.559,217.05 309.893,218.716 309.5,220.5C 307.874,224.384 305.874,228.051 303.5,231.5C 304.156,229.516 304.822,227.516 305.5,225.5C 304.833,224.167 304.167,222.833 303.5,221.5C 303.833,219.167 304.833,218.833 306.5,220.5C 307.624,219.086 308.624,217.586 309.5,216C 310.094,215.536 310.761,215.369 311.5,215.5 Z"/></g>
<g><path style="opacity:1" fill="#bae3f4" d="M 285.5,243.5 C 284.412,240.556 284.412,237.556 285.5,234.5C 286.151,233.909 286.818,233.243 287.5,232.5C 290.084,233.393 292.751,233.726 295.5,233.5C 297.703,225.802 298.036,217.968 296.5,210C 298.229,208.211 298.896,206.044 298.5,203.5C 300.849,203.458 302.182,204.625 302.5,207C 301.457,215.496 301.29,223.996 302,232.5C 300.12,236.625 297.954,240.625 295.5,244.5C 292.027,243.66 288.694,243.327 285.5,243.5 Z"/></g>
<g><path style="opacity:1" fill="#bee2f0" d="M 219.5,227.5 C 220.583,227.539 221.583,227.873 222.5,228.5C 223.167,230.833 223.833,233.167 224.5,235.5C 226.111,234.68 226.778,233.346 226.5,231.5C 227.5,231.5 228.5,231.5 229.5,231.5C 226.513,239.455 223.513,247.455 220.5,255.5C 218.833,255.5 217.167,255.5 215.5,255.5C 215.5,254.167 215.5,252.833 215.5,251.5C 218.127,251.707 219.793,250.54 220.5,248C 219.555,241.212 219.222,234.379 219.5,227.5 Z"/></g>
<g><path style="opacity:1" fill="#c5e1f1" d="M 285.5,233.5 C 285.5,233.833 285.5,234.167 285.5,234.5C 284.412,237.556 284.412,240.556 285.5,243.5C 282.256,242.381 280.589,243.715 280.5,247.5C 278.446,253.657 275.446,259.324 271.5,264.5C 274.887,255.851 278.387,247.184 282,238.5C 282.697,236.416 283.864,234.749 285.5,233.5 Z"/></g>
<g><path style="opacity:1" fill="#e8fafd" d="M 301.5,239.5 C 300.847,244.114 299.181,248.114 296.5,251.5C 297.678,247.162 299.345,243.162 301.5,239.5 Z"/></g>
<g><path style="opacity:1" fill="#c1e2f0" d="M 227.5,201.5 C 228.665,206.878 227.165,211.545 223,215.5C 221.702,219.507 220.535,223.507 219.5,227.5C 216.736,232.863 214.07,238.363 211.5,244C 213.045,245.822 213.712,247.989 213.5,250.5C 212.954,253.566 212.288,256.566 211.5,259.5C 206.833,260.167 204.167,262.833 203.5,267.5C 202.833,267.5 202.167,267.5 201.5,267.5C 202.167,265.167 202.833,262.833 203.5,260.5C 211.904,241.584 219.404,222.25 226,202.5C 226.383,201.944 226.883,201.611 227.5,201.5 Z"/></g>
<g><path style="opacity:1" fill="#f0fdfe" d="M 366.5,239.5 C 369.344,245.344 372.011,251.344 374.5,257.5C 373.5,257.5 372.5,257.5 371.5,257.5C 370.08,251.378 368.413,245.378 366.5,239.5 Z"/></g>
<g><path style="opacity:1" fill="#f5fcfe" d="M 296.5,251.5 C 296.227,253.451 296.893,254.951 298.5,256C 321.67,256.168 344.67,256.668 367.5,257.5C 342.994,257.831 318.661,257.498 294.5,256.5C 294.5,256.167 294.5,255.833 294.5,255.5C 294.66,253.847 295.326,252.514 296.5,251.5 Z"/></g>
<g><path style="opacity:1" fill="#f1fcfe" d="M 146.5,254.5 C 146.421,255.93 146.754,257.264 147.5,258.5C 144.168,262.165 142.835,266.498 143.5,271.5C 142.325,271.281 141.325,271.614 140.5,272.5C 140.185,274.483 139.185,275.816 137.5,276.5C 137.5,275.833 137.5,275.167 137.5,274.5C 140.136,267.559 143.136,260.892 146.5,254.5 Z"/></g>
<g><path style="opacity:1" fill="#dceef8" d="M 294.5,256.5 C 318.661,257.498 342.994,257.831 367.5,257.5C 368.833,257.5 370.167,257.5 371.5,257.5C 372.5,257.5 373.5,257.5 374.5,257.5C 373.791,258.404 372.791,258.737 371.5,258.5C 345.491,258.833 319.491,258.5 293.5,257.5C 293.624,256.893 293.957,256.56 294.5,256.5 Z"/></g>
<g><path style="opacity:1" fill="#bde2f5" d="M 291.5,259.5 C 317.971,259.559 344.638,259.559 371.5,259.5C 374.032,259.829 375.032,260.995 374.5,263C 370.891,262.762 367.225,262.595 363.5,262.5C 343.833,262.5 324.167,262.5 304.5,262.5C 303.673,267.651 303.173,272.984 303,278.5C 296.32,280.993 293.82,278.659 295.5,271.5C 292.833,271.5 290.167,271.5 287.5,271.5C 287.665,268.482 287.498,265.482 287,262.5C 285.301,263.406 283.467,263.739 281.5,263.5C 281.5,261.167 281.5,258.833 281.5,256.5C 282.708,255.766 284.041,255.433 285.5,255.5C 285.522,259.96 287.522,261.293 291.5,259.5 Z"/></g>
<g><path style="opacity:1" fill="#c1dced" d="M 294.5,255.5 C 294.5,255.833 294.5,256.167 294.5,256.5C 293.957,256.56 293.624,256.893 293.5,257.5C 319.491,258.5 345.491,258.833 371.5,258.5C 371.5,258.833 371.5,259.167 371.5,259.5C 344.638,259.559 317.971,259.559 291.5,259.5C 291.554,257.368 292.554,256.035 294.5,255.5 Z"/></g>
<g><path style="opacity:1" fill="#bae3f1" d="M 304.5,262.5 C 324.167,262.5 343.833,262.5 363.5,262.5C 368.95,265.105 374.45,265.105 380,262.5C 383.281,263.965 386.781,264.632 390.5,264.5C 390.5,266.833 390.5,269.167 390.5,271.5C 388.143,271.663 385.81,271.497 383.5,271C 384.951,267.972 384.284,265.472 381.5,263.5C 379.677,264.747 377.677,265.414 375.5,265.5C 375.5,267.5 375.5,269.5 375.5,271.5C 353.831,271.667 332.164,271.5 310.5,271C 311.591,268.936 311.758,266.769 311,264.5C 308.723,263.883 306.556,263.216 304.5,262.5 Z"/></g>
<g><path style="opacity:1" fill="#ebfafc" d="M 203.5,260.5 C 202.833,262.833 202.167,265.167 201.5,267.5C 201.167,268.833 200.833,270.167 200.5,271.5C 198.9,273.703 197.567,276.036 196.5,278.5C 196.986,276.193 196.986,274.027 196.5,272C 198.937,268.124 201.271,264.291 203.5,260.5 Z"/></g>
<g><path style="opacity:1" fill="#c5e1ec" d="M 221.5,259.5 C 223.697,264.756 225.697,270.089 227.5,275.5C 227.833,276.833 228.167,278.167 228.5,279.5C 227.504,279.586 226.671,279.252 226,278.5C 224.482,272.144 222.982,265.811 221.5,259.5 Z"/></g>
<g><path style="opacity:1" fill="#cfe6f0" d="M 271.5,264.5 C 271.027,271.244 268.36,276.91 263.5,281.5C 265.908,275.684 268.575,270.018 271.5,264.5 Z"/></g>
<g><path style="opacity:1" fill="#b8e4ef" d="M 200.5,277.5 C 200.5,275.5 200.5,273.5 200.5,271.5C 200.833,270.167 201.167,268.833 201.5,267.5C 202.167,267.5 202.833,267.5 203.5,267.5C 204.583,267.461 205.583,267.127 206.5,266.5C 207.265,270.325 207.932,274.158 208.5,278C 208.333,279.5 207.5,280.333 206,280.5C 203.915,279.876 202.082,278.876 200.5,277.5 Z"/></g>
<g><path style="opacity:1" fill="#f4fdfc" d="M 232.5,288.5 C 231.797,286.371 230.797,284.371 229.5,282.5C 229.443,281.391 229.11,280.391 228.5,279.5C 228.167,278.167 227.833,276.833 227.5,275.5C 227.81,274.262 228.31,274.262 229,275.5C 229.186,273.1 229.686,270.766 230.5,268.5C 230.794,275.083 231.461,281.75 232.5,288.5 Z"/></g>
<g><path style="opacity:1" fill="#c4e1ec" d="M 200.5,271.5 C 200.5,273.5 200.5,275.5 200.5,277.5C 198.215,280.335 196.882,283.668 196.5,287.5C 175.156,287.833 153.823,287.5 132.5,286.5C 131.626,284.253 131.292,281.92 131.5,279.5C 132.5,279.5 133.5,279.5 134.5,279.5C 134.273,277.067 135.273,275.401 137.5,274.5C 137.5,275.167 137.5,275.833 137.5,276.5C 136.655,277.671 135.989,279.005 135.5,280.5C 134.262,282.214 133.595,284.214 133.5,286.5C 154.007,286.83 174.34,286.497 194.5,285.5C 195.015,283.106 195.681,280.772 196.5,278.5C 197.567,276.036 198.9,273.703 200.5,271.5 Z"/></g>
<g><path style="opacity:1" fill="#e6f7fe" d="M 135.5,280.5 C 135.5,282.167 135.5,283.833 135.5,285.5C 155.167,285.5 174.833,285.5 194.5,285.5C 174.34,286.497 154.007,286.83 133.5,286.5C 133.595,284.214 134.262,282.214 135.5,280.5 Z"/></g>
<g><path style="opacity:1" fill="#b9e3f0" d="M 223.5,284.5 C 224.586,284.62 225.253,285.287 225.5,286.5C 226.569,291.8 226.736,297.134 226,302.5C 225,303.833 224,303.833 223,302.5C 222.359,296.472 222.526,290.472 223.5,284.5 Z"/></g>
<g><path style="opacity:1" fill="#bde3ef" d="M 229.5,282.5 C 230.797,284.371 231.797,286.371 232.5,288.5C 232.993,290.806 233.326,293.139 233.5,295.5C 232.85,295.804 232.183,296.137 231.5,296.5C 230.833,298.833 230.167,301.167 229.5,303.5C 228.914,303.291 228.414,302.957 228,302.5C 227.563,295.76 228.063,289.094 229.5,282.5 Z"/></g>
<g><path style="opacity:1" fill="#c5e4eb" d="M 234.5,299.5 C 237.628,303.85 239.628,308.85 240.5,314.5C 240.893,316.284 241.559,317.95 242.5,319.5C 241.5,319.5 240.5,319.5 239.5,319.5C 239.591,312.784 237.591,306.784 233.5,301.5C 233.543,300.584 233.876,299.917 234.5,299.5 Z"/></g>
<g><path style="opacity:1" fill="#eefbfd" d="M 240.5,314.5 C 243.411,315.824 244.911,318.157 245,321.5C 245.417,320.244 246.25,319.577 247.5,319.5C 246.89,320.391 246.557,321.391 246.5,322.5C 246.217,323.289 245.717,323.956 245,324.5C 243.628,323.09 242.795,321.423 242.5,319.5C 241.559,317.95 240.893,316.284 240.5,314.5 Z"/></g>
<g><path style="opacity:1" fill="#cae3ef" d="M 254.5,303.5 C 253.307,308.896 251.807,314.229 250,319.5C 249.241,321.063 248.074,322.063 246.5,322.5C 246.557,321.391 246.89,320.391 247.5,319.5C 249.841,314.132 252.175,308.799 254.5,303.5 Z"/></g>
<g><path style="opacity:1" fill="#daf0fa" d="M 240.5,367.5 C 246.167,366.167 251.833,366.167 257.5,367.5C 257.5,368.833 257.5,370.167 257.5,371.5C 257.167,371.5 256.833,371.5 256.5,371.5C 256.5,370.167 256.5,368.833 256.5,367.5C 251.5,367.5 246.5,367.5 241.5,367.5C 241.167,367.5 240.833,367.5 240.5,367.5 Z"/></g>
<g><path style="opacity:1" fill="#fbfdfe" d="M 241.5,367.5 C 246.5,367.5 251.5,367.5 256.5,367.5C 256.5,368.833 256.5,370.167 256.5,371.5C 252.833,371.5 249.167,371.5 245.5,371.5C 244.964,378.488 244.131,385.488 243,392.5C 242.705,384.141 242.205,375.808 241.5,367.5 Z"/></g>
<g><path style="opacity:1" fill="#f9fbfe" d="M 225.5,369.5 C 225.517,371.565 225.85,373.565 226.5,375.5C 226.657,376.873 226.49,378.207 226,379.5C 225.623,378.058 224.79,377.058 223.5,376.5C 223.291,375.078 222.791,373.745 222,372.5C 221.155,374.611 220.322,376.611 219.5,378.5C 218.883,378.611 218.383,378.944 218,379.5C 217.505,377.527 217.338,375.527 217.5,373.5C 217.833,371.5 218.167,369.5 218.5,367.5C 221.388,366.99 223.721,367.656 225.5,369.5 Z"/></g>
<g><path style="opacity:1" fill="#f4fdfe" d="M 240.5,367.5 C 240.833,367.5 241.167,367.5 241.5,367.5C 242.205,375.808 242.705,384.141 243,392.5C 244.131,385.488 244.964,378.488 245.5,371.5C 245.5,379.5 245.5,387.5 245.5,395.5C 243.833,395.5 242.167,395.5 240.5,395.5C 240.5,386.5 240.5,377.5 240.5,368.5C 240.5,368.167 240.5,367.833 240.5,367.5 Z"/></g>
<g><path style="opacity:1" fill="#f5fcfd" d="M 265.5,367.5 C 267.199,370.899 268.866,374.232 270.5,377.5C 270.795,379.423 271.628,381.09 273,382.5C 274.136,380.257 274.97,377.924 275.5,375.5C 276.298,373.114 277.298,370.78 278.5,368.5C 280.167,367.167 281.833,367.167 283.5,368.5C 280.245,376.427 277.078,384.427 274,392.5C 271.103,395.231 267.603,396.231 263.5,395.5C 263.12,393.302 263.787,391.635 265.5,390.5C 269.494,392.349 270.994,391.015 270,386.5C 269.623,385.058 268.79,384.058 267.5,383.5C 265.754,378.282 263.421,373.282 260.5,368.5C 262.045,367.548 263.712,367.215 265.5,367.5 Z"/></g>
<g><path style="opacity:1" fill="#e7f1fe" d="M 225.5,369.5 C 227.074,371.102 227.741,373.102 227.5,375.5C 227.167,375.5 226.833,375.5 226.5,375.5C 225.85,373.565 225.517,371.565 225.5,369.5 Z"/></g>
<g><path style="opacity:1" fill="#c0e2f0" d="M 240.5,368.5 C 240.5,377.5 240.5,386.5 240.5,395.5C 239.566,394.432 239.232,393.099 239.5,391.5C 239.688,389.897 239.188,388.563 238,387.5C 237.124,389.635 235.624,390.969 233.5,391.5C 231.86,386.919 230.193,382.252 228.5,377.5C 229.15,377.804 229.817,378.137 230.5,378.5C 231.452,376.955 231.785,375.288 231.5,373.5C 233.833,373.5 236.167,373.5 238.5,373.5C 238.12,371.302 238.787,369.635 240.5,368.5 Z"/></g>
<g><path style="opacity:1" fill="#c7e2f1" d="M 265.5,367.5 C 263.712,367.215 262.045,367.548 260.5,368.5C 263.421,373.282 265.754,378.282 267.5,383.5C 267.5,384.833 266.833,385.5 265.5,385.5C 266.658,384.05 266.158,383.05 264,382.5C 263.049,378.973 261.716,375.64 260,372.5C 259.329,371.748 258.496,371.414 257.5,371.5C 257.5,370.167 257.5,368.833 257.5,367.5C 260.307,366.343 262.974,366.343 265.5,367.5 Z"/></g>
<g><path style="opacity:1" fill="#cbe1ef" d="M 275.5,375.5 C 274.97,377.924 274.136,380.257 273,382.5C 271.628,381.09 270.795,379.423 270.5,377.5C 271.496,377.414 272.329,377.748 273,378.5C 273.236,376.881 274.069,375.881 275.5,375.5 Z"/></g>
<g><path style="opacity:1" fill="#c4e5e7" d="M 223.5,376.5 C 223.961,378.55 224.628,380.55 225.5,382.5C 223.604,383.466 221.604,383.799 219.5,383.5C 219.5,381.833 219.5,380.167 219.5,378.5C 220.322,376.611 221.155,374.611 222,372.5C 222.791,373.745 223.291,375.078 223.5,376.5 Z"/></g>
<g><path style="opacity:1" fill="#f4fcfd" d="M 217.5,373.5 C 217.338,375.527 217.505,377.527 218,379.5C 218.383,378.944 218.883,378.611 219.5,378.5C 219.5,380.167 219.5,381.833 219.5,383.5C 221.604,383.799 223.604,383.466 225.5,382.5C 224.628,380.55 223.961,378.55 223.5,376.5C 224.79,377.058 225.623,378.058 226,379.5C 226.49,378.207 226.657,376.873 226.5,375.5C 226.833,375.5 227.167,375.5 227.5,375.5C 228.338,375.842 228.672,376.508 228.5,377.5C 230.193,382.252 231.86,386.919 233.5,391.5C 233.539,392.583 233.873,393.583 234.5,394.5C 232.833,395.833 231.167,395.833 229.5,394.5C 229.006,392.974 228.339,391.641 227.5,390.5C 226.129,389.213 224.295,388.547 222,388.5C 219.705,388.547 217.871,389.213 216.5,390.5C 215.549,391.919 215.216,393.585 215.5,395.5C 212.918,395.975 210.918,395.308 209.5,393.5C 211.074,391.898 211.741,389.898 211.5,387.5C 213.698,382.904 215.698,378.237 217.5,373.5 Z"/></g>
<g><path style="opacity:1" fill="#effbfe" d="M 201.5,385.5 C 197.424,383.745 196.091,384.912 197.5,389C 198.448,389.483 199.448,389.649 200.5,389.5C 197.107,391.281 195.107,390.114 194.5,386C 194.862,384.115 196.029,383.281 198,383.5C 199.699,383.387 200.866,384.053 201.5,385.5 Z"/></g>
<g><path style="opacity:1" fill="#f8fbfe" d="M 297.5,390.5 C 295.435,390.483 293.435,390.15 291.5,389.5C 291.007,383.453 293.174,382.12 298,385.5C 298.384,387.197 298.218,388.863 297.5,390.5 Z"/></g>
<g><path style="opacity:1" fill="#f9f7fd" d="M 201.5,385.5 C 201.768,387.099 201.434,388.432 200.5,389.5C 199.448,389.649 198.448,389.483 197.5,389C 196.091,384.912 197.424,383.745 201.5,385.5 Z"/></g>
<g><path style="opacity:1" fill="#c5e5ee" d="M 267.5,383.5 C 268.79,384.058 269.623,385.058 270,386.5C 270.994,391.015 269.494,392.349 265.5,390.5C 264.929,389.027 264.929,387.36 265.5,385.5C 266.833,385.5 267.5,384.833 267.5,383.5 Z"/></g>
<g><path style="opacity:1" fill="#cde0ef" d="M 211.5,387.5 C 211.741,389.898 211.074,391.898 209.5,393.5C 209.259,391.102 209.926,389.102 211.5,387.5 Z"/></g>
<g><path style="opacity:1" fill="#c8e2e8" d="M 291.5,389.5 C 293.435,390.15 295.435,390.483 297.5,390.5C 296.726,391.147 295.726,391.48 294.5,391.5C 292.97,391.36 291.97,390.693 291.5,389.5 Z"/></g>
<g><path style="opacity:1" fill="#bce3ed" d="M 216.5,390.5 C 217.209,391.404 218.209,391.737 219.5,391.5C 219.5,393.167 219.5,394.833 219.5,396.5C 220.978,396.238 222.311,396.571 223.5,397.5C 218.896,398.826 214.229,399.326 209.5,399C 204.39,397.258 204.39,395.424 209.5,393.5C 210.918,395.308 212.918,395.975 215.5,395.5C 215.216,393.585 215.549,391.919 216.5,390.5 Z"/></g>
<g><path style="opacity:1" fill="#bce3ed" d="M 239.5,391.5 C 237.692,392.918 237.025,394.918 237.5,397.5C 235.738,397.643 234.071,397.309 232.5,396.5C 230.45,397.077 229.45,398.41 229.5,400.5C 228.178,400.67 227.011,400.337 226,399.5C 225.792,397.141 225.626,394.974 225.5,393C 226.066,392.005 226.733,391.172 227.5,390.5C 228.339,391.641 229.006,392.974 229.5,394.5C 231.167,395.833 232.833,395.833 234.5,394.5C 233.873,393.583 233.539,392.583 233.5,391.5C 235.624,390.969 237.124,389.635 238,387.5C 239.188,388.563 239.688,389.897 239.5,391.5 Z"/></g>
<g><path style="opacity:1" fill="#bde5ed" d="M 143.5,439.5 C 141.326,439.25 139.659,438.25 138.5,436.5C 139.815,435.524 141.148,434.524 142.5,433.5C 142.465,435.443 142.798,437.443 143.5,439.5 Z"/></g>
<g><path style="opacity:0.992" fill="#b9e3ef" d="M 159.5,448.5 C 156.86,447.18 154.193,445.847 151.5,444.5C 152.031,442.376 153.365,440.876 155.5,440C 156.793,439.51 158.127,439.343 159.5,439.5C 159.719,440.675 159.386,441.675 158.5,442.5C 157.604,441.494 156.938,441.494 156.5,442.5C 157.325,443.386 158.325,443.719 159.5,443.5C 159.5,445.167 159.5,446.833 159.5,448.5 Z"/></g>
</svg>
