<?xml version="1.0" encoding="UTF-8"?>
<!DOCTYPE svg PUBLIC "-//W3C//DTD SVG 1.1//EN" "http://www.w3.org/Graphics/SVG/1.1/DTD/svg11.dtd">
<svg xmlns="http://www.w3.org/2000/svg" version="1.1" width="500px" height="500px" style="shape-rendering:geometricPrecision; text-rendering:geometricPrecision; image-rendering:optimizeQuality; fill-rule:evenodd; clip-rule:evenodd" xmlns:xlink="http://www.w3.org/1999/xlink">
<g><path style="opacity:0.998" fill="#19308e" d="M 53.5,0.5 C 185.5,0.5 317.5,0.5 449.5,0.5C 449.051,130.346 448.385,260.346 447.5,390.5C 381.751,427.039 315.751,463.039 249.5,498.5C 183.849,462.009 118.516,425.009 53.5,387.5C 53.3118,385.897 53.8118,384.563 55,383.5C 55.1667,319.833 55.3333,256.167 55.5,192.5C 55.4965,128.291 54.8298,64.2905 53.5,0.5 Z"/></g>
<g><path style="opacity:1" fill="#192e88" d="M 53.5,0.5 C 54.8298,64.2905 55.4965,128.291 55.5,192.5C 55.3333,256.167 55.1667,319.833 55,383.5C 53.8118,384.563 53.3118,385.897 53.5,387.5C 52.2794,386.972 51.1127,386.305 50,385.5C 49.8333,379.333 49.6667,373.167 49.5,367C 50.0409,246.616 50.0409,126.616 49.5,7C 49.6667,5.16667 49.8333,3.33333 50,1.5C 51.0113,0.663368 52.1779,0.330034 53.5,0.5 Z"/></g>
<g><path style="opacity:1" fill="#fbfcfd" d="M 309.5,98.5 C 312.361,109.201 316.028,119.534 320.5,129.5C 321.093,132.945 322.093,136.279 323.5,139.5C 319.749,149.328 315.749,158.994 311.5,168.5C 310.637,170.421 309.971,172.421 309.5,174.5C 302.672,188.835 296.339,203.502 290.5,218.5C 281.138,238.89 272.138,259.557 263.5,280.5C 263.5,280.833 263.5,281.167 263.5,281.5C 257.713,292.75 252.713,304.417 248.5,316.5C 246.76,318.974 245.26,321.641 244,324.5C 242.296,318.539 240.129,312.872 237.5,307.5C 232.949,291.512 227.616,275.846 221.5,260.5C 221.679,258.046 221.013,255.879 219.5,254C 223.966,243.566 228.3,233.066 232.5,222.5C 242.072,201.682 251.406,180.682 260.5,159.5C 264.443,150.614 268.11,141.614 271.5,132.5C 274.939,126.523 277.606,120.19 279.5,113.5C 286.082,99.6101 292.582,85.6101 299,71.5C 302.43,80.6387 305.93,89.6387 309.5,98.5 Z"/></g>
<g><path style="opacity:1" fill="#fbfcfd" d="M 229.5,151.5 C 232.357,158.734 235.023,166.067 237.5,173.5C 235.908,176.275 234.908,179.275 234.5,182.5C 228.6,195.518 223.267,208.852 218.5,222.5C 213.784,232.975 209.45,243.642 205.5,254.5C 205.5,254.833 205.5,255.167 205.5,255.5C 201.526,265.066 197.526,274.733 193.5,284.5C 174.845,285.5 156.179,285.833 137.5,285.5C 136.167,285.5 134.833,285.5 133.5,285.5C 134.546,281.076 135.879,276.743 137.5,272.5C 140.4,267.152 142.733,261.485 144.5,255.5C 147.529,249.44 150.196,243.107 152.5,236.5C 158.204,223.737 163.538,210.737 168.5,197.5C 173.399,187.487 177.733,177.154 181.5,166.5C 184.069,161.015 186.403,155.349 188.5,149.5C 193.019,139.782 197.019,129.782 200.5,119.5C 203.795,113.477 206.629,107.144 209,100.5C 209.893,99.2888 210.726,99.2888 211.5,100.5C 217.902,117.372 223.902,134.372 229.5,151.5 Z"/></g>
<g><path style="opacity:1" fill="#203682" d="M 309.5,98.5 C 312.642,106.117 316.308,113.45 320.5,120.5C 319.643,123.451 319.643,126.451 320.5,129.5C 316.028,119.534 312.361,109.201 309.5,98.5 Z"/></g>
<g><path style="opacity:1" fill="#28397d" d="M 279.5,113.5 C 277.606,120.19 274.939,126.523 271.5,132.5C 271.844,129.438 272.511,126.438 273.5,123.5C 275.48,121.205 276.647,118.539 277,115.5C 277.708,114.619 278.542,113.953 279.5,113.5 Z"/></g>
<g><path style="opacity:1" fill="#293b84" d="M 200.5,119.5 C 197.019,129.782 193.019,139.782 188.5,149.5C 191.055,140.728 193.888,132.061 197,123.5C 198.405,122.269 199.571,120.936 200.5,119.5 Z"/></g>
<g><path style="opacity:1" fill="#283880" d="M 320.5,129.5 C 324.362,134.86 325.362,140.86 323.5,147.5C 318.919,153.255 316.919,159.922 317.5,167.5C 315.379,167.325 313.379,167.659 311.5,168.5C 315.749,158.994 319.749,149.328 323.5,139.5C 322.093,136.279 321.093,132.945 320.5,129.5 Z"/></g>
<g><path style="opacity:1" fill="#2c3d7d" d="M 188.5,149.5 C 186.403,155.349 184.069,161.015 181.5,166.5C 181.991,159.833 184.325,154.167 188.5,149.5 Z"/></g>
<g><path style="opacity:1" fill="#fbfbfd" d="M 333.5,159.5 C 335.136,160.749 336.303,162.416 337,164.5C 348.716,195.177 360.883,225.511 373.5,255.5C 346.854,257.491 319.854,258.158 292.5,257.5C 297.56,245.986 302.227,234.319 306.5,222.5C 313.936,207.203 320.602,191.536 326.5,175.5C 329.204,170.409 331.537,165.076 333.5,159.5 Z"/></g>
<g><path style="opacity:1" fill="#263782" d="M 229.5,151.5 C 231.533,153.163 233.366,155.163 235,157.5C 235.818,161.284 236.818,164.95 238,168.5C 239.253,174.024 238.087,178.691 234.5,182.5C 234.908,179.275 235.908,176.275 237.5,173.5C 235.023,166.067 232.357,158.734 229.5,151.5 Z"/></g>
<g><path style="opacity:1" fill="#203488" d="M 260.5,159.5 C 251.406,180.682 242.072,201.682 232.5,222.5C 232.89,219.161 233.39,215.827 234,212.5C 237.226,206.511 240.393,200.511 243.5,194.5C 242.538,191.755 240.705,189.755 238,188.5C 237.506,186.866 237.34,185.199 237.5,183.5C 240.336,184.776 243.336,185.442 246.5,185.5C 246.421,182.729 246.921,180.063 248,177.5C 250.333,176.5 252,174.833 253,172.5C 253.604,167.963 254.771,163.629 256.5,159.5C 257.833,159.5 259.167,159.5 260.5,159.5 Z"/></g>
<g><path style="opacity:1" fill="#1d3289" d="M 333.5,159.5 C 333.56,158.957 333.893,158.624 334.5,158.5C 335.826,159.99 337.326,161.324 339,162.5C 339.333,162.167 339.667,161.833 340,161.5C 342.869,164.318 344.369,163.652 344.5,159.5C 346.833,159.5 349.167,159.5 351.5,159.5C 351.5,161.833 351.5,164.167 351.5,166.5C 349.167,166.5 346.833,166.5 344.5,166.5C 344.334,171.179 344.501,175.845 345,180.5C 347.041,179.577 349.208,179.244 351.5,179.5C 351.5,180.833 351.5,182.167 351.5,183.5C 354.167,183.5 356.833,183.5 359.5,183.5C 359.742,193.089 358.909,202.422 357,211.5C 358.333,214.833 359.667,218.167 361,221.5C 362.526,219.415 364.36,219.415 366.5,221.5C 365.943,224.36 365.609,227.193 365.5,230C 365.954,232.036 366.787,233.87 368,235.5C 368.495,237.473 368.662,239.473 368.5,241.5C 370.143,241.52 371.476,240.853 372.5,239.5C 373.91,241.949 373.576,244.116 371.5,246C 372.432,249.085 373.099,252.252 373.5,255.5C 360.883,225.511 348.716,195.177 337,164.5C 336.303,162.416 335.136,160.749 333.5,159.5 Z"/></g>
<g><path style="opacity:1" fill="#243483" d="M 326.5,175.5 C 320.602,191.536 313.936,207.203 306.5,222.5C 306.757,219.068 307.424,215.734 308.5,212.5C 309.586,212.38 310.253,211.713 310.5,210.5C 311.108,207.855 311.608,205.188 312,202.5C 315.7,200.446 316.2,197.946 313.5,195C 314.665,193.916 315.998,193.083 317.5,192.5C 320.338,186.478 323.338,180.812 326.5,175.5 Z"/></g>
<g><path style="opacity:1" fill="#1d318a" d="M 301.5,202.5 C 301.647,209.653 302.647,216.653 304.5,223.5C 305.318,220.893 305.818,218.226 306,215.5C 306.852,214.429 307.685,213.429 308.5,212.5C 307.424,215.734 306.757,219.068 306.5,222.5C 302.227,234.319 297.56,245.986 292.5,257.5C 291.549,256.081 291.216,254.415 291.5,252.5C 288.23,252.698 286.23,251.198 285.5,248C 286.744,247.544 287.577,248.044 288,249.5C 288.5,249 289,248.5 289.5,248C 288.094,245.555 286.76,243.055 285.5,240.5C 284.726,239.289 283.893,239.289 283,240.5C 282.464,242.869 281.297,244.869 279.5,246.5C 281.429,249.225 281.929,252.225 281,255.5C 280.781,254.062 280.281,252.729 279.5,251.5C 278.231,253.695 278.231,255.861 279.5,258C 278.283,259.648 277.45,261.481 277,263.5C 275.921,261.606 274.587,261.273 273,262.5C 272.07,267.799 271.403,273.133 271,278.5C 269.989,279.337 268.822,279.67 267.5,279.5C 267.318,274.206 266.818,274.206 266,279.5C 265.329,280.252 264.496,280.586 263.5,280.5C 272.138,259.557 281.138,238.89 290.5,218.5C 291.815,217.524 293.148,216.524 294.5,215.5C 294.517,209.792 296.851,205.458 301.5,202.5 Z"/></g>
<g><path style="opacity:1" fill="#283783" d="M 309.5,174.5 C 307.976,178.891 306.642,183.391 305.5,188C 305.231,189.607 304.397,190.774 303,191.5C 301.602,195.227 301.102,198.894 301.5,202.5C 296.851,205.458 294.517,209.792 294.5,215.5C 293.148,216.524 291.815,217.524 290.5,218.5C 296.339,203.502 302.672,188.835 309.5,174.5 Z"/></g>
<g><path style="opacity:1" fill="#243683" d="M 168.5,197.5 C 163.538,210.737 158.204,223.737 152.5,236.5C 153.365,228.3 156.032,220.8 160.5,214C 159.047,212.287 159.214,210.787 161,209.5C 161.333,209.833 161.667,210.167 162,210.5C 163.37,205.631 165.537,201.298 168.5,197.5 Z"/></g>
<g><path style="opacity:1" fill="#2c3a82" d="M 218.5,222.5 C 217.894,229.351 215.728,235.685 212,241.5C 210.945,245.275 209.612,248.942 208,252.5C 207.292,253.381 206.458,254.047 205.5,254.5C 209.45,243.642 213.784,232.975 218.5,222.5 Z"/></g>
<g><path style="opacity:1" fill="#27397d" d="M 144.5,255.5 C 142.733,261.485 140.4,267.152 137.5,272.5C 137.34,270.801 137.506,269.134 138,267.5C 139.42,262.986 141.587,258.986 144.5,255.5 Z"/></g>
<g><path style="opacity:1" fill="#21357f" d="M 205.5,255.5 C 204.721,260 204.721,264.333 205.5,268.5C 205.462,271.187 204.462,271.854 202.5,270.5C 199.434,272.709 198.768,275.543 200.5,279C 200.347,281.61 199.014,283.943 196.5,286C 176.662,286.829 156.996,286.662 137.5,285.5C 156.179,285.833 174.845,285.5 193.5,284.5C 197.526,274.733 201.526,265.066 205.5,255.5 Z"/></g>
<g><path style="opacity:1" fill="#243588" d="M 221.5,260.5 C 227.616,275.846 232.949,291.512 237.5,307.5C 235.259,304.282 233.759,300.616 233,296.5C 231.333,295.833 229.667,295.167 228,294.5C 227.808,292.423 227.308,290.423 226.5,288.5C 225.833,293.5 225.167,298.5 224.5,303.5C 223.712,296.95 223.379,290.45 223.5,284C 224.01,282.174 224.844,282.007 226,283.5C 226.167,282.5 226.333,281.5 226.5,280.5C 224.738,273.787 223.071,267.121 221.5,260.5 Z"/></g>
<g><path style="opacity:1" fill="#233482" d="M 263.5,281.5 C 262.258,285.659 261.425,289.993 261,294.5C 260,295.167 259,295.833 258,296.5C 257.751,299.177 256.751,301.51 255,303.5C 254.755,307.853 254.755,312.187 255,316.5C 253.078,315.655 250.912,315.655 248.5,316.5C 252.713,304.417 257.713,292.75 263.5,281.5 Z"/></g>
<g><path style="opacity:1" fill="#314088" d="M 237.5,307.5 C 240.129,312.872 242.296,318.539 244,324.5C 245.26,321.641 246.76,318.974 248.5,316.5C 248.856,319.564 248.023,322.231 246,324.5C 244.062,325.86 242.396,325.527 241,323.5C 239.643,318.195 238.476,312.862 237.5,307.5 Z"/></g>
<g><path style="opacity:1" fill="#eff5fc" d="M 265.5,367.5 C 267.987,372.473 270.487,377.473 273,382.5C 274.85,377.475 276.683,372.475 278.5,367.5C 280.167,367.5 281.833,367.5 283.5,367.5C 280.835,375.993 277.668,384.326 274,392.5C 271.006,395.62 267.506,396.286 263.5,394.5C 262.441,392.93 262.941,391.597 265,390.5C 267.48,392.09 269.313,391.59 270.5,389C 267.861,382.886 264.861,377.053 261.5,371.5C 260.176,368.205 261.509,366.872 265.5,367.5 Z"/></g>
<g><path style="opacity:1" fill="#2c3e86" d="M 278.5,367.5 C 280.265,366.539 282.265,366.205 284.5,366.5C 285.159,369.455 285.492,372.455 285.5,375.5C 284.325,375.281 283.325,375.614 282.5,376.5C 280.324,380.223 278.991,384.223 278.5,388.5C 276.525,393.324 273.025,395.991 268,396.5C 266.014,396.431 264.514,395.765 263.5,394.5C 267.506,396.286 271.006,395.62 274,392.5C 277.668,384.326 280.835,375.993 283.5,367.5C 281.833,367.5 280.167,367.5 278.5,367.5 Z"/></g>
<g><path style="opacity:1" fill="#eaf0f9" d="M 225.5,368.5 C 228.79,377.412 231.79,386.412 234.5,395.5C 230.078,396.021 227.745,394.021 227.5,389.5C 223.833,388.167 220.167,388.167 216.5,389.5C 216.241,393.413 214.241,395.413 210.5,395.5C 212.318,386.185 215.151,376.852 219,367.5C 221.552,365.98 223.718,366.313 225.5,368.5 Z"/></g>
<g><path style="opacity:1" fill="#313a77" d="M 225.5,383.5 C 222.918,383.975 220.918,383.308 219.5,381.5C 219.826,378.689 220.659,376.022 222,373.5C 223.468,376.696 224.635,380.029 225.5,383.5 Z"/></g>
<g><path style="opacity:1" fill="#8f96b4" d="M 219.5,381.5 C 220.918,383.308 222.918,383.975 225.5,383.5C 223.393,384.468 221.059,384.802 218.5,384.5C 218.263,383.209 218.596,382.209 219.5,381.5 Z"/></g>
<g><path style="opacity:1" fill="#e8f0fa" d="M 292.5,382.5 C 297.328,382.385 298.661,384.552 296.5,389C 290.339,389.878 289.006,387.711 292.5,382.5 Z"/></g>
<g><path style="opacity:1" fill="#edf2fb" d="M 195.5,382.5 C 200.486,382.305 202.152,384.472 200.5,389C 194.741,390.139 193.074,387.972 195.5,382.5 Z"/></g>
<g><path style="opacity:1" fill="#253688" d="M 265.5,367.5 C 261.509,366.872 260.176,368.205 261.5,371.5C 260.292,370.766 258.959,370.433 257.5,370.5C 257.5,369.167 257.5,367.833 257.5,366.5C 251.833,366.5 246.167,366.5 240.5,366.5C 240.173,376.348 240.506,386.014 241.5,395.5C 242.833,395.5 244.167,395.5 245.5,395.5C 245.5,387.5 245.5,379.5 245.5,371.5C 249.167,371.5 252.833,371.5 256.5,371.5C 253.713,372.477 250.713,372.81 247.5,372.5C 247.5,381.5 247.5,390.5 247.5,399.5C 242.821,399.666 238.155,399.499 233.5,399C 230.594,395.837 227.761,396.004 225,399.5C 222.758,398.762 220.924,397.428 219.5,395.5C 218.359,394.575 218.359,393.741 219.5,393C 218.975,392.308 218.308,391.808 217.5,391.5C 216.77,393.341 216.103,395.175 215.5,397C 213.326,397.877 211.659,397.377 210.5,395.5C 214.241,395.413 216.241,393.413 216.5,389.5C 220.167,388.167 223.833,388.167 227.5,389.5C 227.745,394.021 230.078,396.021 234.5,395.5C 231.79,386.412 228.79,377.412 225.5,368.5C 226.496,368.414 227.329,368.748 228,369.5C 228.202,371.256 228.702,372.922 229.5,374.5C 232.421,375.407 235.421,375.74 238.5,375.5C 238.5,371.833 238.5,368.167 238.5,364.5C 246.86,364.169 255.193,364.502 263.5,365.5C 264.243,366.182 264.909,366.849 265.5,367.5 Z"/></g>
<g><path style="opacity:1" fill="#f9fcfe" d="M 256.5,371.5 C 252.833,371.5 249.167,371.5 245.5,371.5C 245.5,379.5 245.5,387.5 245.5,395.5C 244.167,395.5 242.833,395.5 241.5,395.5C 241.5,386.167 241.5,376.833 241.5,367.5C 246.5,367.5 251.5,367.5 256.5,367.5C 256.5,368.833 256.5,370.167 256.5,371.5 Z"/></g>
<g><path style="opacity:1" fill="#a0aee3" d="M 257.5,370.5 C 257.5,371.167 257.167,371.5 256.5,371.5C 256.5,370.167 256.5,368.833 256.5,367.5C 251.5,367.5 246.5,367.5 241.5,367.5C 241.5,376.833 241.5,386.167 241.5,395.5C 240.506,386.014 240.173,376.348 240.5,366.5C 246.167,366.5 251.833,366.5 257.5,366.5C 257.5,367.833 257.5,369.167 257.5,370.5 Z"/></g>
</svg>
