<?xml version="1.0" encoding="UTF-8"?>
<!DOCTYPE svg PUBLIC "-//W3C//DTD SVG 1.1//EN" "http://www.w3.org/Graphics/SVG/1.1/DTD/svg11.dtd">
<svg xmlns="http://www.w3.org/2000/svg" version="1.1" width="60px" height="60px" style="shape-rendering:geometricPrecision; text-rendering:geometricPrecision; image-rendering:optimizeQuality; fill-rule:evenodd; clip-rule:evenodd" xmlns:xlink="http://www.w3.org/1999/xlink">
<g><path style="opacity:0.685" fill="#fefffe" d="M 22.5,-0.5 C 27.1667,-0.5 31.8333,-0.5 36.5,-0.5C 50.5171,6.88074 54.3504,17.8807 48,32.5C 45.8333,34.6667 43.6667,36.8333 41.5,39C 47.5807,39.2092 53.5807,39.7092 59.5,40.5C 59.5,42.1667 59.5,43.8333 59.5,45.5C 54.2046,48.2811 54.2046,50.9477 59.5,53.5C 59.5,55.1667 59.5,56.8333 59.5,58.5C 58.8333,58.5 58.5,58.8333 58.5,59.5C 40.5,59.5 22.5,59.5 4.5,59.5C 2.83333,57.8333 1.16667,56.1667 -0.5,54.5C -0.5,51.5 -0.5,48.5 -0.5,45.5C 0.93142,43.563 2.59809,41.7297 4.5,40C 8.83333,39.6667 13.1667,39.3333 17.5,39C 6.95935,30.007 5.12602,19.507 12,7.5C 14.94,3.96319 18.44,1.29652 22.5,-0.5 Z M 24.5,2.5 C 33.7824,1.39239 40.9491,4.72573 46,12.5C 46.4828,13.448 46.6495,14.448 46.5,15.5C 42.1539,15.3343 37.8206,15.501 33.5,16C 30.8333,18.3333 30.8333,20.6667 33.5,23C 36.1667,23.3333 38.8333,23.6667 41.5,24C 36.0147,24.46 34.348,27.1266 36.5,32C 38.087,32.8624 39.7536,33.5291 41.5,34C 32.3547,41.2491 23.688,40.5824 15.5,32C 21.1667,31.6667 26.8333,31.3333 32.5,31C 35.1715,28.3212 34.8382,25.9879 31.5,24C 26.8333,23.6667 22.1667,23.3333 17.5,23C 20.8333,22.6667 24.1667,22.3333 27.5,22C 30.1667,19.6667 30.1667,17.3333 27.5,15C 25.4233,14.8078 23.4233,14.3078 21.5,13.5C 26.2704,13.083 30.7704,12.083 35,10.5C 35.624,8.53554 35.124,6.86887 33.5,5.5C 29.8889,4.73818 26.2222,4.23818 22.5,4C 23.4158,3.72158 24.0825,3.22158 24.5,2.5 Z M 15.5,8.5 C 20.8437,8.33398 26.1771,8.50065 31.5,9C 27.5,9.33333 23.5,9.66667 19.5,10C 17.9644,11.5994 17.4644,13.4328 18,15.5C 20.2428,16.9708 22.7428,17.9708 25.5,18.5C 22.2152,19.3236 18.8818,19.8236 15.5,20C 14.0183,22.5918 14.3517,24.9251 16.5,27C 21.1667,27.3333 25.8333,27.6667 30.5,28C 24.5092,28.4995 18.5092,28.6662 12.5,28.5C 10.4831,21.2977 11.4831,14.631 15.5,8.5 Z M 35.5,18.5 C 39.5,18.5 43.5,18.5 47.5,18.5C 47.6989,21.941 47.1989,25.2744 46,28.5C 43.5991,29.6023 41.0991,29.769 38.5,29C 43.4452,28.727 45.2785,26.227 44,21.5C 40.7456,21.162 37.9123,20.162 35.5,18.5 Z M 5.5,44.5 C 5.61071,43.8826 5.94404,43.3826 6.5,43C 23.1667,42.3333 39.8333,42.3333 56.5,43C 39.4563,43.1945 22.4563,43.6945 5.5,44.5 Z M 4.5,45.5 C 3.16667,48.1667 3.16667,50.8333 4.5,53.5C 3.00691,52.6879 2.34024,51.3545 2.5,49.5C 2.34024,47.6455 3.00691,46.3121 4.5,45.5 Z M 7.5,47.5 C 22.5037,47.3334 37.5037,47.5001 52.5,48C 51.1667,49 51.1667,50 52.5,51C 37.5037,51.4999 22.5037,51.6666 7.5,51.5C 7.5,50.1667 7.5,48.8333 7.5,47.5 Z M 5.5,54.5 C 22.4563,55.3055 39.4563,55.8055 56.5,56C 39.8333,56.6667 23.1667,56.6667 6.5,56C 5.94404,55.6174 5.61071,55.1174 5.5,54.5 Z"/></g>
</svg>
