<?xml version="1.0" encoding="UTF-8"?>
<!DOCTYPE svg PUBLIC "-//W3C//DTD SVG 1.1//EN" "http://www.w3.org/Graphics/SVG/1.1/DTD/svg11.dtd">
<svg xmlns="http://www.w3.org/2000/svg" version="1.1" width="60px" height="60px" style="shape-rendering:geometricPrecision; text-rendering:geometricPrecision; image-rendering:optimizeQuality; fill-rule:evenodd; clip-rule:evenodd" xmlns:xlink="http://www.w3.org/1999/xlink">
<g><path style="opacity:0.802" fill="#fefffe" d="M 13.5,2.5 C 26.1988,2.69818 31.3655,9.03152 29,21.5C 28.214,24.5827 26.3807,26.7494 23.5,28C 26.4601,27.6799 29.4601,27.6799 32.5,28C 40.1667,30.3333 47.8333,32.6667 55.5,35C 56.8333,42 56.8333,49 55.5,56C 54.2161,56.6838 53.0495,56.5171 52,55.5C 51.829,50.4671 51.329,45.4671 50.5,40.5C 48.9411,41.0736 47.4411,41.7402 46,42.5C 46.5984,45.1606 46.4317,47.8273 45.5,50.5C 40.1667,52.5 34.8333,54.5 29.5,56.5C 24.1667,54.5 18.8333,52.5 13.5,50.5C 12.4911,47.5274 12.4911,44.5274 13.5,41.5C 10.0534,41.1857 6.72007,40.3524 3.5,39C 2.16667,37.6667 2.16667,36.3333 3.5,35C 8.77238,33.1314 14.1057,31.4647 19.5,30C 4.78456,29.3892 -0.0487729,22.2225 5,8.5C 7.32184,5.60473 10.1552,3.60473 13.5,2.5 Z M 18.5,7.5 C 20.7602,8.23764 20.9269,9.23764 19,10.5C 18.5172,9.55198 18.3505,8.55198 18.5,7.5 Z M 23.5,12.5 C 24.7733,13.0768 24.7733,13.7435 23.5,14.5C 22.537,14.0302 22.537,13.3635 23.5,12.5 Z M 8.5,18.5 C 11.0009,18.5109 11.1676,19.1776 9,20.5C 8.53566,19.9056 8.36899,19.2389 8.5,18.5 Z M 13.5,22.5 C 14.7733,23.0768 14.7733,23.7435 13.5,24.5C 12.537,24.0302 12.537,23.3635 13.5,22.5 Z M 26.5,32.5 C 29.6074,32.3512 32.6074,32.8512 35.5,34C 33.1667,34.3333 30.8333,34.6667 28.5,35C 27.1667,36.3333 27.1667,37.6667 28.5,39C 36.9142,39.3604 37.2475,40.1938 29.5,41.5C 24.0838,40.3125 18.7505,38.8125 13.5,37C 18.0023,35.6349 22.3357,34.1349 26.5,32.5 Z M 17.5,43.5 C 25.0383,47.3454 32.5383,47.3454 40,43.5C 40.6924,44.0253 41.1924,44.6919 41.5,45.5C 37.8723,48.0551 33.8723,50.0551 29.5,51.5C 25.8736,49.9023 22.2069,48.4023 18.5,47C 17.6634,45.9887 17.33,44.8221 17.5,43.5 Z"/></g>
<g><path style="opacity:0.782" fill="#fefffe" d="M 39.5,2.5 C 45.1712,3.62579 50.6712,5.29246 56,7.5C 56.9196,14.276 56.5863,20.9427 55,27.5C 47,31.8333 43.6667,29.5 45,20.5C 46.7342,18.5494 48.9009,17.5494 51.5,17.5C 51.5,15.1667 51.5,12.8333 51.5,10.5C 49.0628,10.2437 46.7294,9.57706 44.5,8.5C 43.6725,12.7956 43.1725,17.1289 43,21.5C 38.1072,28.3266 33.9405,27.8266 30.5,20C 31.4082,15.5899 34.0749,13.7566 38.5,14.5C 38.2367,10.3998 38.5701,6.39977 39.5,2.5 Z M 36.5,18.5 C 38.7602,19.2376 38.9269,20.2376 37,21.5C 35.2716,20.6477 35.105,19.6477 36.5,18.5 Z M 49.5,22.5 C 51.7602,23.2376 51.9269,24.2376 50,25.5C 48.2716,24.6477 48.105,23.6477 49.5,22.5 Z"/></g>
</svg>
