<?xml version="1.0" encoding="UTF-8"?>
<!DOCTYPE svg PUBLIC "-//W3C//DTD SVG 1.1//EN" "http://www.w3.org/Graphics/SVG/1.1/DTD/svg11.dtd">
<svg xmlns="http://www.w3.org/2000/svg" version="1.1" width="500px" height="500px" style="shape-rendering:geometricPrecision; text-rendering:geometricPrecision; image-rendering:optimizeQuality; fill-rule:evenodd; clip-rule:evenodd" xmlns:xlink="http://www.w3.org/1999/xlink">
<g><path style="opacity:0.999" fill="#bce2f3" d="M 48.5,-0.5 C 89.5,-0.5 130.5,-0.5 171.5,-0.5C 190.241,0.61962 208.241,5.11962 225.5,13C 241.492,23.3297 252.659,37.4964 259,55.5C 259.58,49.3122 258.747,43.3122 256.5,37.5C 271.792,15.8462 292.792,4.01283 319.5,2C 346.983,0.94801 374.317,0.114677 401.5,-0.5C 417.833,-0.5 434.167,-0.5 450.5,-0.5C 450.012,103.815 449.845,208.481 450,313.5C 441.838,391.704 402.672,448.204 332.5,483C 313.758,491.015 294.424,496.515 274.5,499.5C 257.833,499.5 241.167,499.5 224.5,499.5C 145.947,486.45 91.4473,443.117 61,369.5C 53.9196,349.431 49.9196,328.765 49,307.5C 48.5,204.834 48.3333,102.167 48.5,-0.5 Z"/></g>
<g><path style="opacity:1" fill="#f8fbfd" d="M 213.5,108.5 C 218.384,109.054 223.217,109.054 228,108.5C 229.895,108.615 231.562,109.282 233,110.5C 233.333,112.833 233.667,115.167 234,117.5C 247.81,134.271 259.477,152.271 269,171.5C 257.845,153.359 245.345,136.192 231.5,120C 226.449,120.446 223.116,118.279 221.5,113.5C 216.617,112.023 213.117,113.69 211,118.5C 210.833,122 210.667,125.5 210.5,129C 211.314,142.706 213.148,156.206 216,169.5C 207.731,152.284 205.065,134.284 208,115.5C 209.666,113.004 211.5,110.671 213.5,108.5 Z"/></g>
<g><path style="opacity:1" fill="#f8fbfd" d="M 303.5,114.5 C 307.182,114.335 310.848,114.501 314.5,115C 315.931,115.465 317.097,116.299 318,117.5C 319.563,124.965 321.396,132.298 323.5,139.5C 323.221,144.278 320.721,146.945 316,147.5C 309.12,164.257 301.454,180.59 293,196.5C 292.333,195.5 292.333,194.5 293,193.5C 299.914,178.172 306.414,162.672 312.5,147C 308.193,141.912 308.526,137.245 313.5,133C 314.448,132.517 315.448,132.351 316.5,132.5C 318.003,120.838 313.003,116.338 301.5,119C 287.917,126.245 275.75,135.411 265,146.5C 264.333,145.833 264.333,145.167 265,144.5C 276.038,131.934 288.872,121.934 303.5,114.5 Z"/></g>
<g><path style="opacity:1" fill="#f8fbfd" d="M 216.5,181.5 C 203.383,173.771 190.05,166.271 176.5,159C 170.418,156.188 164.084,154.854 157.5,155C 155.331,156.328 154.998,157.994 156.5,160C 154.049,165.51 154.215,171.01 157,176.5C 160.756,185.02 165.756,192.687 172,199.5C 172.667,200.167 172.667,200.833 172,201.5C 158.72,189.598 150.72,174.932 148,157.5C 155.235,150.822 163.401,149.656 172.5,154C 188.649,161.02 203.316,170.187 216.5,181.5 Z"/></g>
<g><path style="opacity:1" fill="#edf6fb" d="M 216.5,181.5 C 217.756,181.461 218.756,181.961 219.5,183C 218.002,183.585 217.002,183.085 216.5,181.5 Z"/></g>
<g><path style="opacity:1" fill="#ddf0f8" d="M 320.5,183.5 C 324.5,184.167 328.5,184.833 332.5,185.5C 326.491,185.666 320.491,185.499 314.5,185C 316.436,184.187 318.436,183.687 320.5,183.5 Z"/></g>
<g><path style="opacity:1" fill="#fafcfd" d="M 320.5,183.5 C 332.214,183.139 343.881,183.639 355.5,185C 373.778,190.561 375.445,199.394 360.5,211.5C 359.813,221.233 355.147,224.233 346.5,220.5C 333.798,226.621 320.798,231.955 307.5,236.5C 307.167,236.5 306.833,236.5 306.5,236.5C 318.286,230.441 330.286,224.608 342.5,219C 343.755,215.174 345.422,211.507 347.5,208C 351.018,206.242 354.518,206.408 358,208.5C 366.141,203.797 367.308,197.963 361.5,191C 352.244,186.969 342.577,185.136 332.5,185.5C 328.5,184.833 324.5,184.167 320.5,183.5 Z"/></g>
<g><path style="opacity:1" fill="#fcfdfd" d="M 260.5,215.5 C 262.167,215.5 263.833,215.5 265.5,215.5C 265.5,217.5 265.5,219.5 265.5,221.5C 276.085,219.922 281.085,224.422 280.5,235C 281.085,245.578 276.085,250.078 265.5,248.5C 265.5,250.5 265.5,252.5 265.5,254.5C 263.833,254.5 262.167,254.5 260.5,254.5C 260.5,252.5 260.5,250.5 260.5,248.5C 249.915,250.078 244.915,245.578 245.5,235C 244.169,224.331 248.835,219.665 259.5,221C 260.406,219.301 260.739,217.467 260.5,215.5 Z"/></g>
<g><path style="opacity:1" fill="#f9fcfd" d="M 160.5,218.5 C 162.167,218.5 163.833,218.5 165.5,218.5C 165.5,228.167 165.5,237.833 165.5,247.5C 169.833,247.5 174.167,247.5 178.5,247.5C 178.5,237.833 178.5,228.167 178.5,218.5C 180.5,218.5 182.5,218.5 184.5,218.5C 184.5,228.167 184.5,237.833 184.5,247.5C 185.833,247.5 187.167,247.5 188.5,247.5C 188.5,252.167 188.5,256.833 188.5,261.5C 186.5,261.5 184.5,261.5 182.5,261.5C 182.5,258.833 182.5,256.167 182.5,253.5C 175.167,253.5 167.833,253.5 160.5,253.5C 160.5,241.833 160.5,230.167 160.5,218.5 Z"/></g>
<g><path style="opacity:1" fill="#edf6fa" d="M 213.5,219.5 C 205.5,219.5 197.5,219.5 189.5,219.5C 189.5,220.833 189.5,222.167 189.5,223.5C 188.549,222.081 188.216,220.415 188.5,218.5C 197.017,218.174 205.35,218.507 213.5,219.5 Z"/></g>
<g><path style="opacity:1" fill="#fcfdfd" d="M 134.5,219.5 C 134.334,226.841 134.5,234.174 135,241.5C 138.994,234.021 143.161,226.688 147.5,219.5C 149.167,219.5 150.833,219.5 152.5,219.5C 152.5,230.5 152.5,241.5 152.5,252.5C 151.167,252.5 149.833,252.5 148.5,252.5C 148.666,244.493 148.5,236.493 148,228.5C 147.283,229.044 146.783,229.711 146.5,230.5C 142.93,238.069 138.93,245.403 134.5,252.5C 132.833,252.5 131.167,252.5 129.5,252.5C 129.5,241.5 129.5,230.5 129.5,219.5C 131.167,219.5 132.833,219.5 134.5,219.5 Z"/></g>
<g><path style="opacity:1" fill="#fdfdfe" d="M 213.5,219.5 C 213.5,220.833 213.5,222.167 213.5,223.5C 210.5,223.5 207.5,223.5 204.5,223.5C 203.506,232.986 203.173,242.652 203.5,252.5C 201.833,252.5 200.167,252.5 198.5,252.5C 198.5,242.833 198.5,233.167 198.5,223.5C 195.5,223.5 192.5,223.5 189.5,223.5C 189.5,222.167 189.5,220.833 189.5,219.5C 197.5,219.5 205.5,219.5 213.5,219.5 Z"/></g>
<g><path style="opacity:1" fill="#fafcfd" d="M 221.5,218.5 C 229.039,216.851 235.205,218.851 240,224.5C 240.667,232.167 240.667,239.833 240,247.5C 237.013,251.924 232.847,253.591 227.5,252.5C 221.438,253.986 217.605,251.986 216,246.5C 217,245.5 218,244.5 219,243.5C 220.167,244.667 221.333,245.833 222.5,247C 226.167,247.667 229.833,247.667 233.5,247C 234.444,244.281 234.777,241.448 234.5,238.5C 230.5,238.5 226.5,238.5 222.5,238.5C 222.5,236.833 222.5,235.167 222.5,233.5C 226.5,233.5 230.5,233.5 234.5,233.5C 235.989,224.493 232.323,221.326 223.5,224C 221.771,225.789 221.104,227.956 221.5,230.5C 219.5,230.5 217.5,230.5 215.5,230.5C 215.338,228.473 215.505,226.473 216,224.5C 218.04,222.63 219.873,220.63 221.5,218.5 Z"/></g>
<g><path style="opacity:1" fill="#e1f1f8" d="M 204.5,223.5 C 204.5,233.5 204.5,243.5 204.5,253.5C 202.265,253.795 200.265,253.461 198.5,252.5C 200.167,252.5 201.833,252.5 203.5,252.5C 203.173,242.652 203.506,232.986 204.5,223.5 Z"/></g>
<g><path style="opacity:1" fill="#bfe3f3" d="M 252.5,226.5 C 255.167,226.5 257.833,226.5 260.5,226.5C 260.5,232.167 260.5,237.833 260.5,243.5C 257.552,243.777 254.719,243.444 252,242.5C 251.219,237.083 251.385,231.75 252.5,226.5 Z"/></g>
<g><path style="opacity:1" fill="#bde2f3" d="M 265.5,226.5 C 268.187,226.336 270.854,226.503 273.5,227C 274.635,231.748 274.802,236.581 274,241.5C 271.519,243.314 268.685,243.98 265.5,243.5C 265.5,237.833 265.5,232.167 265.5,226.5 Z"/></g>
<g><path style="opacity:1" fill="#ebf5fa" d="M 147.5,219.5 C 149.265,218.539 151.265,218.205 153.5,218.5C 153.5,230.167 153.5,241.833 153.5,253.5C 151.5,253.5 149.5,253.5 147.5,253.5C 147.825,245.648 147.492,237.982 146.5,230.5C 146.783,229.711 147.283,229.044 148,228.5C 148.5,236.493 148.666,244.493 148.5,252.5C 149.833,252.5 151.167,252.5 152.5,252.5C 152.5,241.5 152.5,230.5 152.5,219.5C 150.833,219.5 149.167,219.5 147.5,219.5 Z"/></g>
<g><path style="opacity:1" fill="#e5f3f9" d="M 134.5,219.5 C 132.833,219.5 131.167,219.5 129.5,219.5C 129.5,230.5 129.5,241.5 129.5,252.5C 131.167,252.5 132.833,252.5 134.5,252.5C 132.735,253.461 130.735,253.795 128.5,253.5C 128.5,241.833 128.5,230.167 128.5,218.5C 130.735,218.205 132.735,218.539 134.5,219.5 Z"/></g>
<g><path style="opacity:1" fill="#e1f1f9" d="M 306.5,236.5 C 306.833,236.5 307.167,236.5 307.5,236.5C 303.48,238.896 299.147,240.396 294.5,241C 298.342,238.998 302.342,237.498 306.5,236.5 Z"/></g>
<g><path style="opacity:1" fill="#f8fbfd" d="M 278.5,278.5 C 290.871,282.01 303.204,285.676 315.5,289.5C 317.556,288.952 319.223,287.786 320.5,286C 325.82,285.337 329.154,287.671 330.5,293C 357.729,297.023 363.229,287.856 347,265.5C 340.952,259.63 335.452,253.964 330.5,248.5C 341.48,256.313 350.98,265.646 359,276.5C 363.817,286.387 361.317,293.554 351.5,298C 344.69,298.935 338.024,298.435 331.5,296.5C 328.758,297.614 325.925,298.614 323,299.5C 321.188,299.507 319.688,298.84 318.5,297.5C 317.865,295.217 316.532,293.551 314.5,292.5C 302.194,288.336 290.194,283.67 278.5,278.5 Z"/></g>
<g><path style="opacity:1" fill="#e7f4fa" d="M 278.5,278.5 C 275.689,278.174 273.022,277.341 270.5,276C 273.539,275.736 276.206,276.569 278.5,278.5 Z"/></g>
<g><path style="opacity:1" fill="#e7f4fa" d="M 200.5,284.5 C 201.343,281.484 202.843,278.817 205,276.5C 204.625,279.73 203.125,282.397 200.5,284.5 Z"/></g>
<g><path style="opacity:1" fill="#f8fbfd" d="M 292.5,307.5 C 293.167,307.5 293.833,307.5 294.5,307.5C 295.282,319.738 294.115,331.738 291,343.5C 284.156,355.997 276.156,356.664 267,345.5C 263.745,339.992 260.745,334.325 258,328.5C 251.216,326.13 249.716,321.797 253.5,315.5C 250.816,306.425 247.983,297.425 245,288.5C 244.005,285.874 243.672,283.207 244,280.5C 248,291.833 252,303.167 256,314.5C 258.134,315.992 260.134,317.659 262,319.5C 261.492,330.336 265.325,339.503 273.5,347C 280.316,350.225 285.149,348.392 288,341.5C 291.538,330.468 293.038,319.135 292.5,307.5 Z"/></g>
<g><path style="opacity:1" fill="#f8fbfd" d="M 200.5,284.5 C 198.477,288.222 197.311,292.222 197,296.5C 195.795,297.071 194.628,297.738 193.5,298.5C 188.351,306.112 185.518,314.446 185,323.5C 187.909,326.394 191.409,327.227 195.5,326C 202.637,322.774 209.303,319.107 215.5,315C 208.049,324.557 198.383,329.557 186.5,330C 184.667,329.5 183.5,328.333 183,326.5C 182.333,322.833 182.333,319.167 183,315.5C 185.394,309.713 188.06,304.046 191,298.5C 191.333,296.167 191.667,293.833 192,291.5C 193.509,290.91 195.009,290.244 196.5,289.5C 197.612,287.581 198.946,285.914 200.5,284.5 Z"/></g>
<g><path style="opacity:1" fill="#dff0f8" d="M 294.5,307.5 C 293.833,307.5 293.167,307.5 292.5,307.5C 292.512,288.896 293.179,288.896 294.5,307.5 Z"/></g>
<g><path style="opacity:1" fill="#f9fcfd" d="M 221.5,367.5 C 223.467,367.261 225.301,367.594 227,368.5C 230.474,377.757 233.641,387.09 236.5,396.5C 232.078,397.021 229.745,395.021 229.5,390.5C 225.833,389.167 222.167,389.167 218.5,390.5C 217.833,392.167 217.167,393.833 216.5,395.5C 214.833,396.833 213.167,396.833 211.5,395.5C 214.645,386.062 217.978,376.729 221.5,367.5 Z"/></g>
<g><path style="opacity:1" fill="#e0f0f8" d="M 259.5,368.5 C 254.167,368.5 248.833,368.5 243.5,368.5C 243.5,377.833 243.5,387.167 243.5,396.5C 242.506,387.014 242.173,377.348 242.5,367.5C 248.358,367.178 254.025,367.511 259.5,368.5 Z"/></g>
<g><path style="opacity:1" fill="#fafcfd" d="M 259.5,368.5 C 259.5,369.833 259.5,371.167 259.5,372.5C 255.833,372.5 252.167,372.5 248.5,372.5C 248.5,380.5 248.5,388.5 248.5,396.5C 246.833,396.5 245.167,396.5 243.5,396.5C 243.5,387.167 243.5,377.833 243.5,368.5C 248.833,368.5 254.167,368.5 259.5,368.5 Z"/></g>
<g><path style="opacity:1" fill="#fafcfd" d="M 262.5,367.5 C 264.5,367.5 266.5,367.5 268.5,367.5C 270.27,373.044 272.603,378.377 275.5,383.5C 277.33,378.505 279.163,373.505 281,368.5C 282.814,367.24 284.647,367.24 286.5,368.5C 283.277,377.28 279.777,385.946 276,394.5C 272.826,396.621 269.493,396.954 266,395.5C 265.508,394.451 265.674,393.451 266.5,392.5C 268.021,392.12 269.687,391.954 271.5,392C 272.167,391.333 272.833,390.667 273.5,390C 269.422,382.678 265.755,375.178 262.5,367.5 Z"/></g>
<g><path style="opacity:1" fill="#c2e4f4" d="M 223.5,373.5 C 225.601,376.797 226.935,380.463 227.5,384.5C 225.076,384.808 222.743,384.474 220.5,383.5C 221.909,380.273 222.909,376.94 223.5,373.5 Z"/></g>
<g><path style="opacity:1" fill="#fafcfd" d="M 199.5,383.5 C 204.328,383.385 205.661,385.552 203.5,390C 197.339,390.878 196.006,388.711 199.5,383.5 Z"/></g>
<g><path style="opacity:1" fill="#fbfcfd" d="M 296.5,383.5 C 300.935,383.752 302.268,385.919 300.5,390C 294.339,390.878 293.006,388.711 296.5,383.5 Z"/></g>
</svg>
