<?xml version="1.0" encoding="UTF-8"?>
<!DOCTYPE svg PUBLIC "-//W3C//DTD SVG 1.1//EN" "http://www.w3.org/Graphics/SVG/1.1/DTD/svg11.dtd">
<svg xmlns="http://www.w3.org/2000/svg" version="1.1" width="500px" height="500px" style="shape-rendering:geometricPrecision; text-rendering:geometricPrecision; image-rendering:optimizeQuality; fill-rule:evenodd; clip-rule:evenodd" xmlns:xlink="http://www.w3.org/1999/xlink">
<g><path style="opacity:0.998" fill="#473f8f" d="M 47.5,-0.5 C 88.1667,-0.5 128.833,-0.5 169.5,-0.5C 188.639,0.232745 206.972,4.73275 224.5,13C 240.289,23.0635 251.455,36.8968 258,54.5C 258.488,49.0951 257.988,43.7618 256.5,38.5C 259.219,31.6019 263.553,25.7685 269.5,21C 287.256,7.97005 307.256,1.30339 329.5,1C 353.337,0.832089 377.004,0.332089 400.5,-0.5C 416.833,-0.5 433.167,-0.5 449.5,-0.5C 449.667,105.167 449.5,210.834 449,316.5C 439.27,393.195 399.77,448.362 330.5,482C 305.094,492.645 278.761,498.478 251.5,499.5C 247.5,499.5 243.5,499.5 239.5,499.5C 171.588,494.638 118.421,464.304 80,408.5C 60.5226,378.065 49.8559,344.732 48,308.5C 47.5,205.501 47.3333,102.501 47.5,-0.5 Z"/></g>
<g><path style="opacity:1" fill="#eceaf3" d="M 213.5,107.5 C 217.054,107.15 220.388,107.816 223.5,109.5C 230.25,107.116 233.25,109.283 232.5,116C 246.855,133.576 259.022,152.409 269,172.5C 257.712,153.877 244.878,136.377 230.5,120C 224.888,120.55 221.888,118.05 221.5,112.5C 215.086,111.613 211.253,114.28 210,120.5C 209.333,126.833 209.333,133.167 210,139.5C 211.571,149.26 213.237,158.927 215,168.5C 206.828,151.626 204.161,133.959 207,115.5C 208.305,112.039 210.471,109.372 213.5,107.5 Z"/></g>
<g><path style="opacity:1" fill="#f0eff5" d="M 292.5,195.5 C 292.167,195.5 291.833,195.5 291.5,195.5C 298.287,179.979 304.787,164.312 311,148.5C 311.667,147.167 311.667,145.833 311,144.5C 306.919,138.6 308.252,134.267 315,131.5C 316.705,119.768 311.872,115.601 300.5,119C 287.761,125.403 276.428,133.736 266.5,144C 265.833,144.667 265.167,144.667 264.5,144C 275.113,132.044 287.446,122.377 301.5,115C 309.609,111.39 315.442,113.557 319,121.5C 319.333,125.5 319.667,129.5 320,133.5C 324.555,140.399 322.889,145.066 315,147.5C 308.306,163.888 300.806,179.888 292.5,195.5 Z"/></g>
<g><path style="opacity:1" fill="#edecf4" d="M 219.5,183.5 C 205.221,175.357 190.888,167.19 176.5,159C 170.219,155.569 163.552,154.235 156.5,155C 154.342,155.959 154.009,157.459 155.5,159.5C 153.068,163.664 152.901,167.998 155,172.5C 158.576,181.997 163.409,190.663 169.5,198.5C 156.937,187.48 149.437,173.813 147,157.5C 152.319,151.833 158.819,149.999 166.5,152C 185.816,159.836 203.483,170.336 219.5,183.5 Z"/></g>
<g><path style="opacity:1" fill="#eeedf4" d="M 301.5,237.5 C 315.106,231.032 328.773,224.532 342.5,218C 342.454,211.577 345.454,207.411 351.5,205.5C 353.697,205.848 355.53,206.848 357,208.5C 362.865,205.106 365.198,200.106 364,193.5C 361.374,190.769 358.207,188.936 354.5,188C 340.65,185.223 326.65,183.89 312.5,184C 324.468,182.557 336.468,182.223 348.5,183C 356.486,183.875 363.32,187.042 369,192.5C 369.735,200.363 366.735,206.363 360,210.5C 359.018,221.236 353.518,224.736 343.5,221C 329.803,227.397 315.803,232.897 301.5,237.5 Z"/></g>
<g><path style="opacity:1" fill="#b8b5d4" d="M 219.5,183.5 C 221.027,183.427 222.027,184.094 222.5,185.5C 220.973,185.573 219.973,184.906 219.5,183.5 Z"/></g>
<g><path style="opacity:1" fill="#a39fc6" d="M 222.5,185.5 C 223.756,185.461 224.756,185.961 225.5,187C 224.002,187.585 223.002,187.085 222.5,185.5 Z"/></g>
<g><path style="opacity:1" fill="#b4b0d1" d="M 169.5,198.5 C 171.296,199.793 172.963,201.293 174.5,203C 171.814,202.823 170.148,201.323 169.5,198.5 Z"/></g>
<g><path style="opacity:1" fill="#8b86b8" d="M 291.5,195.5 C 291.833,195.5 292.167,195.5 292.5,195.5C 291.347,197.807 290.18,200.14 289,202.5C 288.705,199.758 289.538,197.425 291.5,195.5 Z"/></g>
<g><path style="opacity:1" fill="#f8f7fa" d="M 274.5,247.5 C 271.167,247.5 267.833,247.5 264.5,247.5C 264.5,249.5 264.5,251.5 264.5,253.5C 262.833,253.5 261.167,253.5 259.5,253.5C 259.5,251.5 259.5,249.5 259.5,247.5C 256.5,247.5 253.5,247.5 250.5,247.5C 248.537,246.04 246.704,244.373 245,242.5C 244.333,236.833 244.333,231.167 245,225.5C 248.691,220.89 253.524,219.224 259.5,220.5C 259.5,218.5 259.5,216.5 259.5,214.5C 261.167,214.5 262.833,214.5 264.5,214.5C 264.5,216.5 264.5,218.5 264.5,220.5C 270.476,219.224 275.309,220.89 279,225.5C 279.83,231.528 279.664,237.528 278.5,243.5C 277.451,245.216 276.118,246.549 274.5,247.5 Z"/></g>
<g><path style="opacity:1" fill="#9d99c3" d="M 188.5,218.5 C 196.65,217.507 204.983,217.174 213.5,217.5C 213.795,219.735 213.461,221.735 212.5,223.5C 212.5,221.833 212.5,220.167 212.5,218.5C 204.5,218.5 196.5,218.5 188.5,218.5 Z"/></g>
<g><path style="opacity:1" fill="#fafafb" d="M 133.5,218.5 C 133.334,225.841 133.5,233.174 134,240.5C 138.253,233.663 142.253,226.663 146,219.5C 147.699,218.594 149.533,218.261 151.5,218.5C 151.5,229.5 151.5,240.5 151.5,251.5C 150.167,251.5 148.833,251.5 147.5,251.5C 147.666,243.493 147.5,235.493 147,227.5C 145.961,228.244 145.461,229.244 145.5,230.5C 141.753,237.663 137.753,244.663 133.5,251.5C 131.833,251.5 130.167,251.5 128.5,251.5C 128.5,240.5 128.5,229.5 128.5,218.5C 130.167,218.5 131.833,218.5 133.5,218.5 Z"/></g>
<g><path style="opacity:1" fill="#f6f5f9" d="M 164.5,218.5 C 164.5,227.833 164.5,237.167 164.5,246.5C 168.833,246.5 173.167,246.5 177.5,246.5C 178.494,237.348 178.827,228.015 178.5,218.5C 180.167,218.5 181.833,218.5 183.5,218.5C 183.5,228.167 183.5,237.833 183.5,247.5C 184.833,247.5 186.167,247.5 187.5,247.5C 187.5,251.833 187.5,256.167 187.5,260.5C 185.5,260.5 183.5,260.5 181.5,260.5C 181.5,257.833 181.5,255.167 181.5,252.5C 174.167,252.5 166.833,252.5 159.5,252.5C 159.5,241.167 159.5,229.833 159.5,218.5C 161.167,218.5 162.833,218.5 164.5,218.5 Z"/></g>
<g><path style="opacity:1" fill="#c5c2db" d="M 183.5,218.5 C 181.833,218.5 180.167,218.5 178.5,218.5C 178.827,228.015 178.494,237.348 177.5,246.5C 177.5,236.833 177.5,227.167 177.5,217.5C 179.735,217.205 181.735,217.539 183.5,218.5 Z"/></g>
<g><path style="opacity:1" fill="#f9f8fb" d="M 188.5,218.5 C 196.5,218.5 204.5,218.5 212.5,218.5C 212.5,220.167 212.5,221.833 212.5,223.5C 209.5,223.5 206.5,223.5 203.5,223.5C 202.506,232.652 202.173,241.985 202.5,251.5C 200.833,251.5 199.167,251.5 197.5,251.5C 197.5,242.167 197.5,232.833 197.5,223.5C 194.167,223.5 190.833,223.5 187.5,223.5C 187.216,221.585 187.549,219.919 188.5,218.5 Z"/></g>
<g><path style="opacity:1" fill="#f1f1f6" d="M 233.5,238.5 C 230.038,237.518 226.371,237.185 222.5,237.5C 222.5,236.167 222.5,234.833 222.5,233.5C 226.371,233.815 230.038,233.482 233.5,232.5C 234.477,223.992 230.81,221.158 222.5,224C 220.845,225.444 220.178,227.278 220.5,229.5C 218.5,229.5 216.5,229.5 214.5,229.5C 214.015,224.458 216.015,220.624 220.5,218C 228.032,215.856 234.199,217.689 239,223.5C 239.667,231.5 239.667,239.5 239,247.5C 233.459,252.361 226.959,253.861 219.5,252C 217.649,250.316 215.982,248.483 214.5,246.5C 217.225,242.549 219.892,242.716 222.5,247C 230.81,249.842 234.477,247.008 233.5,238.5 Z"/></g>
<g><path style="opacity:1" fill="#4d4492" d="M 252.5,225.5 C 254.833,225.5 257.167,225.5 259.5,225.5C 259.5,231.167 259.5,236.833 259.5,242.5C 256.552,242.777 253.719,242.444 251,241.5C 249.946,235.886 250.446,230.552 252.5,225.5 Z"/></g>
<g><path style="opacity:1" fill="#4e4593" d="M 264.5,225.5 C 271.828,224.161 274.828,227.161 273.5,234.5C 273.473,237.089 273.139,239.589 272.5,242C 269.854,242.497 267.187,242.664 264.5,242.5C 264.5,236.833 264.5,231.167 264.5,225.5 Z"/></g>
<g><path style="opacity:1" fill="#b9b6d4" d="M 133.5,218.5 C 131.833,218.5 130.167,218.5 128.5,218.5C 128.5,229.5 128.5,240.5 128.5,251.5C 130.167,251.5 131.833,251.5 133.5,251.5C 131.735,252.461 129.735,252.795 127.5,252.5C 127.5,240.833 127.5,229.167 127.5,217.5C 129.735,217.205 131.735,217.539 133.5,218.5 Z"/></g>
<g><path style="opacity:1" fill="#9691bf" d="M 164.5,218.5 C 162.833,218.5 161.167,218.5 159.5,218.5C 159.5,229.833 159.5,241.167 159.5,252.5C 158.505,241.012 158.172,229.345 158.5,217.5C 160.735,217.205 162.735,217.539 164.5,218.5 Z"/></g>
<g><path style="opacity:1" fill="#c1bfd9" d="M 203.5,223.5 C 203.5,233.167 203.5,242.833 203.5,252.5C 201.265,252.795 199.265,252.461 197.5,251.5C 199.167,251.5 200.833,251.5 202.5,251.5C 202.173,241.985 202.506,232.652 203.5,223.5 Z"/></g>
<g><path style="opacity:1" fill="#a39fc6" d="M 233.5,232.5 C 230.038,233.482 226.371,233.815 222.5,233.5C 222.5,234.833 222.5,236.167 222.5,237.5C 226.371,237.185 230.038,237.518 233.5,238.5C 229.5,238.5 225.5,238.5 221.5,238.5C 221.5,236.5 221.5,234.5 221.5,232.5C 225.5,232.5 229.5,232.5 233.5,232.5 Z"/></g>
<g><path style="opacity:1" fill="#d1cfe2" d="M 151.5,218.5 C 152.495,229.654 152.828,240.988 152.5,252.5C 150.5,252.5 148.5,252.5 146.5,252.5C 146.825,244.981 146.492,237.648 145.5,230.5C 145.461,229.244 145.961,228.244 147,227.5C 147.5,235.493 147.666,243.493 147.5,251.5C 148.833,251.5 150.167,251.5 151.5,251.5C 151.5,240.5 151.5,229.5 151.5,218.5 Z"/></g>
<g><path style="opacity:1" fill="#b6b2d2" d="M 301.5,237.5 C 299.575,239.462 297.242,240.295 294.5,240C 296.65,238.589 298.984,237.755 301.5,237.5 Z"/></g>
<g><path style="opacity:1" fill="#928dbc" d="M 250.5,247.5 C 253.5,247.5 256.5,247.5 259.5,247.5C 259.5,249.5 259.5,251.5 259.5,253.5C 258.549,252.081 258.216,250.415 258.5,248.5C 255.615,248.806 252.948,248.473 250.5,247.5 Z"/></g>
<g><path style="opacity:1" fill="#7e79b0" d="M 274.5,247.5 C 271.713,248.477 268.713,248.81 265.5,248.5C 265.784,250.415 265.451,252.081 264.5,253.5C 264.5,251.5 264.5,249.5 264.5,247.5C 267.833,247.5 271.167,247.5 274.5,247.5 Z"/></g>
<g><path style="opacity:1" fill="#f0f0f6" d="M 271.5,275.5 C 285.755,280.029 300.088,284.362 314.5,288.5C 316.208,288.297 317.541,287.464 318.5,286C 324.306,284.147 327.972,286.147 329.5,292C 357.381,296.411 362.881,287.244 346,264.5C 340.469,258.634 334.635,253.134 328.5,248C 340.814,255.309 350.981,265.143 359,277.5C 362.351,286.8 359.517,293.3 350.5,297C 343.059,297.848 335.726,297.348 328.5,295.5C 325.26,298.817 321.593,299.317 317.5,297C 316.139,295.416 315.472,293.582 315.5,291.5C 312.053,291.186 308.72,290.352 305.5,289C 293.868,284.962 282.535,280.462 271.5,275.5 Z"/></g>
<g><path style="opacity:1" fill="#9b97c2" d="M 271.5,275.5 C 269.692,275.509 268.025,275.009 266.5,274C 268.535,273.401 270.201,273.901 271.5,275.5 Z"/></g>
<g><path style="opacity:1" fill="#b0acce" d="M 203.5,277.5 C 203.461,276.244 203.961,275.244 205,274.5C 205.585,275.998 205.085,276.998 203.5,277.5 Z"/></g>
<g><path style="opacity:1" fill="#bfbcd8" d="M 247.5,292.5 C 246.662,292.842 246.328,293.508 246.5,294.5C 243.633,286.725 241.466,278.725 240,270.5C 242.804,277.745 245.304,285.078 247.5,292.5 Z"/></g>
<g><path style="opacity:1" fill="#f1f1f6" d="M 247.5,292.5 C 250.355,299.728 253.022,307.062 255.5,314.5C 261.196,316.278 262.863,319.945 260.5,325.5C 263.052,334.119 267.719,341.286 274.5,347C 281.745,348.624 286.245,345.79 288,338.5C 290.225,329.979 291.391,321.312 291.5,312.5C 292.167,309.5 292.833,306.5 293.5,303.5C 293.666,312.173 293.5,320.84 293,329.5C 292.489,335.033 291.156,340.367 289,345.5C 285.96,351.603 281.126,353.769 274.5,352C 266.013,345.881 260.346,337.715 257.5,327.5C 250.339,325.53 248.673,321.363 252.5,315C 250.393,308.181 248.393,301.348 246.5,294.5C 246.328,293.508 246.662,292.842 247.5,292.5 Z"/></g>
<g><path style="opacity:1" fill="#e6e5ef" d="M 203.5,277.5 C 201.612,281.606 199.446,285.606 197,289.5C 196.667,291.5 196.333,293.5 196,295.5C 194.795,296.071 193.628,296.738 192.5,297.5C 189.727,302.713 187.227,308.046 185,313.5C 184.333,316.833 184.333,320.167 185,323.5C 186.473,325.007 188.307,325.674 190.5,325.5C 201.483,323.364 210.649,318.03 218,309.5C 216.422,313.114 213.922,316.281 210.5,319C 205.081,323.376 199.081,326.71 192.5,329C 188.013,330.378 184.513,329.212 182,325.5C 181.333,321.833 181.333,318.167 182,314.5C 184.394,308.713 187.06,303.046 190,297.5C 190.333,295.167 190.667,292.833 191,290.5C 192.667,289.833 194.333,289.167 196,288.5C 198.029,284.42 200.529,280.754 203.5,277.5 Z"/></g>
<g><path style="opacity:1" fill="#9e9ac4" d="M 293.5,303.5 C 292.833,306.5 292.167,309.5 291.5,312.5C 291.334,305.825 291.5,299.158 292,292.5C 292.719,296.145 293.219,299.812 293.5,303.5 Z"/></g>
<g><path style="opacity:1" fill="#f1f0f6" d="M 221.5,367.5 C 223.5,367.5 225.5,367.5 227.5,367.5C 230.698,377.095 233.698,386.762 236.5,396.5C 232.078,397.021 229.745,395.021 229.5,390.5C 225.893,389.511 222.226,389.177 218.5,389.5C 218.995,395.231 216.662,397.231 211.5,395.5C 214.645,386.062 217.978,376.729 221.5,367.5 Z"/></g>
<g><path style="opacity:1" fill="#aca8cc" d="M 259.5,368.5 C 254.167,368.5 248.833,368.5 243.5,368.5C 243.5,377.833 243.5,387.167 243.5,396.5C 242.506,387.014 242.173,377.348 242.5,367.5C 248.358,367.178 254.025,367.511 259.5,368.5 Z"/></g>
<g><path style="opacity:1" fill="#f4f4f8" d="M 259.5,368.5 C 259.5,369.833 259.5,371.167 259.5,372.5C 255.833,372.5 252.167,372.5 248.5,372.5C 248.5,380.5 248.5,388.5 248.5,396.5C 246.833,396.5 245.167,396.5 243.5,396.5C 243.5,387.167 243.5,377.833 243.5,368.5C 248.833,368.5 254.167,368.5 259.5,368.5 Z"/></g>
<g><path style="opacity:1" fill="#f1f1f6" d="M 262.5,367.5 C 264.5,367.5 266.5,367.5 268.5,367.5C 270.012,372.859 272.346,377.859 275.5,382.5C 277.605,377.954 279.439,373.287 281,368.5C 282.814,367.24 284.647,367.24 286.5,368.5C 283.277,377.28 279.777,385.946 276,394.5C 273.159,396.504 269.993,397.004 266.5,396C 265.352,392.482 266.518,391.315 270,392.5C 271.434,392.07 272.601,391.236 273.5,390C 269.422,382.678 265.755,375.178 262.5,367.5 Z"/></g>
<g><path style="opacity:1" fill="#5a5199" d="M 223.5,373.5 C 225.601,376.797 226.935,380.463 227.5,384.5C 225.076,384.808 222.743,384.474 220.5,383.5C 221.909,380.273 222.909,376.94 223.5,373.5 Z"/></g>
<g><path style="opacity:1" fill="#f2f2f7" d="M 198.5,382.5 C 203.328,382.385 204.661,384.552 202.5,389C 196.339,389.878 195.006,387.711 198.5,382.5 Z"/></g>
<g><path style="opacity:1" fill="#f2f2f7" d="M 295.5,382.5 C 300.328,382.385 301.661,384.552 299.5,389C 293.339,389.878 292.006,387.711 295.5,382.5 Z"/></g>
</svg>
