<?xml version="1.0" encoding="UTF-8"?>
<!DOCTYPE svg PUBLIC "-//W3C//DTD SVG 1.1//EN" "http://www.w3.org/Graphics/SVG/1.1/DTD/svg11.dtd">
<svg xmlns="http://www.w3.org/2000/svg" version="1.1" width="24px" height="21px" style="shape-rendering:geometricPrecision; text-rendering:geometricPrecision; image-rendering:optimizeQuality; fill-rule:evenodd; clip-rule:evenodd" xmlns:xlink="http://www.w3.org/1999/xlink">
<g><path style="opacity:0.596" fill="#000000" d="M 23.5,1.5 C 23.5,7.16667 23.5,12.8333 23.5,18.5C 15.5,19.8333 7.5,19.8333 -0.5,18.5C -0.5,12.8333 -0.5,7.16667 -0.5,1.5C 7.5,0.166667 15.5,0.166667 23.5,1.5 Z M 4.5,4.5 C 8.98115,3.35159 13.6478,3.18492 18.5,4C 16.6917,6.83848 14.3583,9.00515 11.5,10.5C 8.74768,9.00344 6.41435,7.00344 4.5,4.5 Z M 1.5,5.5 C 4.55172,8.55527 7.88505,11.2219 11.5,13.5C 15.0794,11.4288 18.246,8.76212 21,5.5C 21.4986,9.15159 21.6653,12.8183 21.5,16.5C 14.8333,16.5 8.16667,16.5 1.5,16.5C 1.5,12.8333 1.5,9.16667 1.5,5.5 Z"/></g>
</svg>
