<svg width="24" height="21" viewBox="0 0 24 21" fill="none" xmlns="http://www.w3.org/2000/svg">
<path d="M21.75 19.2428H2.25C1.005 19.2428 0 18.2665 0 17.0571V3.94279C0 2.73337 1.005 1.75708 2.25 1.75708H21.75C22.995 1.75708 24 2.73337 24 3.94279V17.0571C24 18.2665 22.995 19.2428 21.75 19.2428ZM2.25 3.21422C1.83 3.21422 1.5 3.53479 1.5 3.94279V17.0571C1.5 17.4651 1.83 17.7857 2.25 17.7857H21.75C22.17 17.7857 22.5 17.4651 22.5 17.0571V3.94279C22.5 3.53479 22.17 3.21422 21.75 3.21422H2.25Z" fill="black"/>
<path d="M11.9999 13.356C10.9499 13.356 9.98988 12.948 9.26988 12.2049L1.39488 4.074C1.10988 3.78257 1.12488 3.31628 1.42488 3.03943C1.72488 2.76257 2.20488 2.77714 2.48988 3.06857L10.3649 11.1994C11.2199 12.0883 12.7799 12.0883 13.6349 11.1994L21.5099 3.08314C21.7949 2.79171 22.2749 2.77714 22.5749 3.054C22.8749 3.33086 22.8899 3.79714 22.6049 4.08857L14.7299 12.2194C14.0099 12.9626 13.0499 13.3706 11.9999 13.3706V13.356Z" fill="black"/>
</svg>
