<?xml version="1.0" encoding="UTF-8"?>
<!DOCTYPE svg PUBLIC "-//W3C//DTD SVG 1.1//EN" "http://www.w3.org/Graphics/SVG/1.1/DTD/svg11.dtd">
<svg xmlns="http://www.w3.org/2000/svg" version="1.1" width="500px" height="500px" style="shape-rendering:geometricPrecision; text-rendering:geometricPrecision; image-rendering:optimizeQuality; fill-rule:evenodd; clip-rule:evenodd" xmlns:xlink="http://www.w3.org/1999/xlink">
<g><path style="opacity:0.995" fill="#0198a4" d="M 50.5,0.5 C 183.5,0.5 316.5,0.5 449.5,0.5C 449.667,84.834 449.5,169.167 449,253.5C 439.659,339.38 400.493,407.88 331.5,459C 306.557,476.553 279.391,489.72 250,498.5C 166.712,471.882 107.379,418.548 72,338.5C 59.8095,310.071 52.8095,280.404 51,249.5C 50.5,166.501 50.3333,83.5007 50.5,0.5 Z"/></g>
<g><path style="opacity:1" fill="#ebf7f7" d="M 238.5,44.5 C 308.31,42.8882 358.476,73.2216 389,135.5C 409.615,189.857 402.948,240.524 369,287.5C 334.069,329.488 289.236,348.322 234.5,344C 178.926,335.97 138.759,306.804 114,256.5C 87.8189,188.734 100.986,129.901 153.5,80C 178.396,59.87 206.729,48.0367 238.5,44.5 Z"/></g>
<g><path style="opacity:1" fill="#0c99a5" d="M 238.5,46.5 C 301.23,44.6058 348.73,70.2725 381,123.5C 399.364,158.469 403.697,195.135 394,233.5C 377.071,286.763 341.904,321.596 288.5,338C 218.737,351.984 163.904,329.817 124,271.5C 91.2574,210.701 95.924,153.034 138,98.5C 165.049,68.5596 198.549,51.2263 238.5,46.5 Z"/></g>
<g><path style="opacity:1" fill="#fbfdfd" d="M 234.5,294.5 C 229.249,293.519 229.249,292.519 234.5,291.5C 236.806,291.993 239.139,292.326 241.5,292.5C 239.934,279.102 237.934,265.769 235.5,252.5C 234.791,251.596 233.791,251.263 232.5,251.5C 231.504,251.586 230.671,251.252 230,250.5C 229.333,251.167 228.667,251.833 228,252.5C 223.33,263.173 218.164,273.506 212.5,283.5C 215.556,271.663 219.223,259.996 223.5,248.5C 221.164,245.645 219.331,245.978 218,249.5C 217.647,248.328 217.813,247.162 218.5,246C 217.902,244.699 216.902,243.865 215.5,243.5C 208.464,248.218 201.464,252.885 194.5,257.5C 201.624,251.104 209.291,245.437 217.5,240.5C 221.79,245.815 227.456,248.815 234.5,249.5C 234.143,243.401 233.143,237.401 231.5,231.5C 229.132,232.889 226.799,234.222 224.5,235.5C 226.17,232.998 228.336,230.998 231,229.5C 231.945,223.863 229.778,220.363 224.5,219C 207.994,236.339 191.327,253.506 174.5,270.5C 172.238,271.345 171.571,272.678 172.5,274.5C 171.185,275.476 169.852,276.476 168.5,277.5C 168.167,277.167 167.833,276.833 167.5,276.5C 170.253,271.992 173.253,267.659 176.5,263.5C 169.317,254.972 163.317,245.639 158.5,235.5C 159.274,234.289 160.107,234.289 161,235.5C 165.174,245.192 170.841,253.859 178,261.5C 185.088,250.991 192.421,240.658 200,230.5C 200.49,229.207 200.657,227.873 200.5,226.5C 200.5,225.833 200.833,225.5 201.5,225.5C 203.017,225.489 204.184,224.823 205,223.5C 207.305,219.696 209.805,216.03 212.5,212.5C 207.609,210.963 202.609,209.963 197.5,209.5C 197.842,208.662 198.508,208.328 199.5,208.5C 203.683,209.003 207.849,209.669 212,210.5C 215.138,209.195 216.972,206.861 217.5,203.5C 216.838,200.532 216.505,197.532 216.5,194.5C 183.833,194.5 151.167,194.5 118.5,194.5C 117.833,194.833 117.167,195.167 116.5,195.5C 114.473,195.662 112.473,195.495 110.5,195C 111.623,193.956 112.956,193.29 114.5,193C 126.301,191.9 137.967,190.067 149.5,187.5C 150.463,177.111 152.963,167.111 157,157.5C 157.692,158.025 158.192,158.692 158.5,159.5C 154.261,168.439 152.594,177.772 153.5,187.5C 165.459,185.196 177.459,183.029 189.5,181C 191.343,180.841 192.009,180.341 191.5,179.5C 191.5,179.167 191.5,178.833 191.5,178.5C 192.833,178.5 193.5,177.833 193.5,176.5C 194.161,177.718 194.828,179.051 195.5,180.5C 196.107,180.376 196.44,180.043 196.5,179.5C 201.957,179.146 207.291,178.146 212.5,176.5C 211.873,175.583 211.539,174.583 211.5,173.5C 214.907,177.098 218.741,177.431 223,174.5C 224.289,172.945 224.956,171.279 225,169.5C 208,152.5 191,135.5 174,118.5C 174.134,120.189 174.634,121.856 175.5,123.5C 171.972,118.978 168.305,114.478 164.5,110C 165.167,109.333 165.833,109.333 166.5,110C 171.085,113.873 175.919,117.373 181,120.5C 185.272,117.899 189.272,114.899 193,111.5C 193.903,112.701 195.069,113.535 196.5,114C 191.561,115.809 187.228,118.643 183.5,122.5C 193.814,130.657 204.48,138.324 215.5,145.5C 218.709,144.352 219.375,142.352 217.5,139.5C 218.712,140.23 219.712,141.23 220.5,142.5C 221.902,142.135 222.902,141.301 223.5,140C 219.342,128.538 215.842,117.038 213,105.5C 218.318,116.136 223.651,126.802 229,137.5C 229.986,138.171 231.153,138.171 232.5,137.5C 233.71,137.068 234.71,136.401 235.5,135.5C 237.393,122.478 239.393,109.478 241.5,96.5C 238.187,97.0448 234.854,97.5448 231.5,98C 230.934,98.9947 230.267,99.828 229.5,100.5C 227.876,100.64 226.71,99.9733 226,98.5C 225.51,96.4546 225.677,94.4546 226.5,92.5C 228.711,93.0366 230.711,94.0366 232.5,95.5C 235.735,94.969 238.902,94.3024 242,93.5C 244.333,79.8348 246.666,66.1682 249,52.5C 249.5,66.1626 249.667,79.8293 249.5,93.5C 300.748,96.5949 333.915,122.595 349,171.5C 356.833,218.708 341,255.541 301.5,282C 285.254,290.617 267.921,295.117 249.5,295.5C 249.667,308.837 249.5,322.171 249,335.5C 247.19,321.798 244.69,308.298 241.5,295C 239.19,294.503 236.857,294.337 234.5,294.5 Z"/></g>
<g><path style="opacity:1" fill="#f2f9fa" d="M 262.5,60.5 C 263.5,60.5 264.5,60.5 265.5,60.5C 264.903,64.8316 264.737,69.1649 265,73.5C 268.298,69.2002 271.965,65.2002 276,61.5C 277.471,62.3805 278.304,63.7139 278.5,65.5C 277.458,71.1293 276.791,76.796 276.5,82.5C 275.167,82.5 273.833,82.5 272.5,82.5C 273.338,77.8352 273.838,73.1685 274,68.5C 270.869,72.6328 267.369,76.4662 263.5,80C 262.207,80.49 260.873,80.6567 259.5,80.5C 260.337,73.8008 261.337,67.1341 262.5,60.5 Z"/></g>
<g><path style="opacity:1" fill="#f4fafb" d="M 287.5,64.5 C 289.103,64.3118 290.437,64.8118 291.5,66C 290.407,68.4433 289.407,70.9433 288.5,73.5C 291.593,75.3089 294.926,76.3089 298.5,76.5C 298.687,74.4357 299.187,72.4357 300,70.5C 301.011,69.6634 302.178,69.33 303.5,69.5C 301.964,76.4421 299.63,83.1088 296.5,89.5C 295.119,89.0004 294.453,88.0004 294.5,86.5C 295.467,84.2383 296.134,81.905 296.5,79.5C 293.502,78.6584 290.502,78.1584 287.5,78C 286.331,80.0065 285.665,82.1732 285.5,84.5C 284.167,84.5 282.833,84.5 281.5,84.5C 283.698,77.904 285.698,71.2373 287.5,64.5 Z"/></g>
<g><path style="opacity:1" fill="#ecf7f8" d="M 311.5,76.5 C 317.741,76.1196 322.407,78.6196 325.5,84C 324.975,84.6924 324.308,85.1924 323.5,85.5C 321.309,82.9573 318.642,81.2906 315.5,80.5C 309.288,81.5729 307.121,85.2395 309,91.5C 311.546,94.1856 314.713,95.1856 318.5,94.5C 318.5,95.8333 318.5,97.1667 318.5,98.5C 308.65,98.8194 304.15,94.1527 305,84.5C 306.305,81.0386 308.471,78.372 311.5,76.5 Z"/></g>
<g><path style="opacity:1" fill="#f3fafa" d="M 330.5,86.5 C 335.554,89.3741 340.22,92.8741 344.5,97C 343.975,97.6924 343.308,98.1924 342.5,98.5C 340.503,97.2526 338.503,96.4192 336.5,96C 333.353,100.314 329.686,104.148 325.5,107.5C 323.899,106.965 323.399,105.965 324,104.5C 327.314,100.352 330.814,96.3519 334.5,92.5C 332.684,91.1851 331.017,89.6851 329.5,88C 330.056,87.6174 330.389,87.1174 330.5,86.5 Z"/></g>
<g><path style="opacity:1" fill="#f2f9fa" d="M 222.5,97.5 C 223.833,98.1667 224.833,99.1667 225.5,100.5C 217.048,101.885 209.048,104.718 201.5,109C 200.887,113.348 199.054,114.181 196,111.5C 194.991,109.975 194.491,108.308 194.5,106.5C 196.262,106.357 197.929,106.691 199.5,107.5C 206.866,103.382 214.532,100.048 222.5,97.5 Z"/></g>
<g><path style="opacity:1" fill="#63bbc3" d="M 226.5,92.5 C 225.677,94.4546 225.51,96.4546 226,98.5C 226.71,99.9733 227.876,100.64 229.5,100.5C 228.167,101.833 226.833,101.833 225.5,100.5C 224.833,99.1667 223.833,98.1667 222.5,97.5C 222.67,94.796 224.003,93.1293 226.5,92.5 Z"/></g>
<g><path style="opacity:1" fill="#f1f9fa" d="M 347.5,101.5 C 349.686,101.511 350.519,102.511 350,104.5C 347.131,107.704 343.965,110.537 340.5,113C 345.87,112.717 351.203,111.883 356.5,110.5C 357.833,111.167 358.833,112.167 359.5,113.5C 354.821,118.178 349.821,122.511 344.5,126.5C 342.899,125.965 342.399,124.965 343,123.5C 346.115,121.353 348.948,118.853 351.5,116C 346.613,115.745 341.78,116.245 337,117.5C 335.566,117.07 334.399,116.236 333.5,115C 338.062,110.269 342.729,105.769 347.5,101.5 Z"/></g>
<g><path style="opacity:1" fill="#cbe9ec" d="M 235.5,135.5 C 234.71,136.401 233.71,137.068 232.5,137.5C 230.51,129.883 229.01,122.216 228,114.5C 229.986,120.777 231.82,127.11 233.5,133.5C 233.747,134.713 234.414,135.38 235.5,135.5 Z"/></g>
<g><path style="opacity:1" fill="#0f9aa6" d="M 316.5,148.5 C 317.166,143.827 317.999,140.494 319,138.5C 316.938,136.099 315.271,133.433 314,130.5C 313.23,129.402 312.397,129.402 311.5,130.5C 310.005,130.011 308.671,129.345 307.5,128.5C 306.612,125.946 306.279,123.279 306.5,120.5C 309.75,121.137 312.417,121.137 314.5,120.5C 317.739,125.971 321.239,131.304 325,136.5C 324.545,133.315 323.379,130.315 321.5,127.5C 321.667,127.167 321.833,126.833 322,126.5C 350.33,158.496 356.663,194.496 341,234.5C 337.919,240.331 334.585,245.998 331,251.5C 330.667,247.167 330.333,242.833 330,238.5C 329.667,238.167 329.333,237.833 329,237.5C 328.185,239.623 327.185,241.623 326,243.5C 322.923,241.698 322.757,239.698 325.5,237.5C 324.833,237.167 324.167,236.833 323.5,236.5C 320.585,237.617 318.585,239.617 317.5,242.5C 316.549,241.674 315.549,241.508 314.5,242C 311.833,245 309.167,248 306.5,251C 303.671,252.247 301.005,253.747 298.5,255.5C 298.03,257.774 297.03,259.774 295.5,261.5C 296.983,264.411 296.65,267.078 294.5,269.5C 295,269.833 295.5,270.167 296,270.5C 300.672,268.719 305.172,266.552 309.5,264C 311.809,263.244 313.809,263.744 315.5,265.5C 314.359,266.425 314.359,267.259 315.5,268C 296.591,284.14 274.591,292.307 249.5,292.5C 249.5,263.833 249.5,235.167 249.5,206.5C 242.004,206.927 238.004,203.427 237.5,196C 238.024,189.977 241.358,186.811 247.5,186.5C 251.211,186.875 254.211,188.542 256.5,191.5C 257.607,190.978 258.774,190.645 260,190.5C 262.306,191.449 264.639,192.449 267,193.5C 269.453,192.507 271.953,192.34 274.5,193C 275.402,195.202 276.402,197.368 277.5,199.5C 278.478,199.023 279.311,198.357 280,197.5C 282.605,201.909 283.605,206.575 283,211.5C 284.218,216.055 286.718,219.721 290.5,222.5C 290.833,222.167 291.167,221.833 291.5,221.5C 289.256,217.249 286.589,213.249 283.5,209.5C 284.041,207.465 284.708,205.465 285.5,203.5C 287.856,205.69 290.356,207.69 293,209.5C 298.567,206.066 298.9,202.066 294,197.5C 291.481,192.498 292.815,190.498 298,191.5C 299.925,189.099 302.092,187.932 304.5,188C 307.457,184.702 309.457,180.869 310.5,176.5C 308.668,174.702 308.335,172.868 309.5,171C 305.252,168.514 304.585,165.347 307.5,161.5C 306.349,160.269 305.183,160.269 304,161.5C 300.871,159.043 301.038,156.709 304.5,154.5C 305.281,155.729 305.781,157.062 306,158.5C 306.388,157.572 307.055,156.905 308,156.5C 310.799,159.311 312.799,162.644 314,166.5C 316.025,162.766 315.191,159.599 311.5,157C 313.229,155.211 313.896,153.044 313.5,150.5C 315.179,150.715 316.179,150.048 316.5,148.5 Z"/></g>
<g><path style="opacity:1" fill="#f2fafa" d="M 362.5,120.5 C 363.496,120.414 364.329,120.748 365,121.5C 366.746,125.327 368.746,128.993 371,132.5C 371.699,134.074 371.365,135.407 370,136.5C 368.667,134.5 367.333,132.5 366,130.5C 361.162,134.005 355.995,136.505 350.5,138C 349.289,137.107 349.289,136.274 350.5,135.5C 355.333,132.918 360,130.085 364.5,127C 362.662,124.917 361.995,122.75 362.5,120.5 Z"/></g>
<g><path style="opacity:1" fill="#aadce0" d="M 306.5,120.5 C 306.279,123.279 306.612,125.946 307.5,128.5C 306.252,127.666 305.585,126.333 305.5,124.5C 305.511,122.955 305.844,121.622 306.5,120.5 Z"/></g>
<g><path style="opacity:1" fill="#1a9da8" d="M 211.5,173.5 C 210.567,170.63 208.9,168.296 206.5,166.5C 202.934,159.936 198.601,153.936 193.5,148.5C 192.567,145.63 190.9,143.296 188.5,141.5C 187.567,138.63 185.9,136.296 183.5,134.5C 181.6,130.268 178.933,126.601 175.5,123.5C 174.634,121.856 174.134,120.189 174,118.5C 191,135.5 208,152.5 225,169.5C 224.956,171.279 224.289,172.945 223,174.5C 218.741,177.431 214.907,177.098 211.5,173.5 Z"/></g>
<g><path style="opacity:1" fill="#139ba6" d="M 183.5,134.5 C 184.433,137.37 186.1,139.704 188.5,141.5C 189.433,144.37 191.1,146.704 193.5,148.5C 195.816,152.489 198.149,156.489 200.5,160.5C 200.219,162.778 198.885,163.945 196.5,164C 197.93,165.88 197.596,167.38 195.5,168.5C 183.807,164.991 172.307,160.991 161,156.5C 164.14,145.902 169.64,136.569 177.5,128.5C 179.507,130.533 181.507,132.533 183.5,134.5 Z"/></g>
<g><path style="opacity:1" fill="#e0f2f3" d="M 217.5,139.5 C 213.266,134.36 210.1,128.693 208,122.5C 211.698,127.898 214.864,133.565 217.5,139.5 Z"/></g>
<g><path style="opacity:1" fill="#9cd5da" d="M 316.5,148.5 C 317.563,141.642 315.896,135.642 311.5,130.5C 312.397,129.402 313.23,129.402 314,130.5C 315.271,133.433 316.938,136.099 319,138.5C 317.999,140.494 317.166,143.827 316.5,148.5 Z"/></g>
<g><path style="opacity:1" fill="#d4edef" d="M 183.5,134.5 C 185.9,136.296 187.567,138.63 188.5,141.5C 186.1,139.704 184.433,137.37 183.5,134.5 Z"/></g>
<g><path style="opacity:1" fill="#f3fafa" d="M 379.5,152.5 C 373.021,153.491 366.354,153.824 359.5,153.5C 357.025,152.313 356.025,150.313 356.5,147.5C 357.5,147.5 358.5,147.5 359.5,147.5C 359.5,148.5 359.5,149.5 359.5,150.5C 360.552,150.649 361.552,150.483 362.5,150C 366.377,146.292 370.043,142.458 373.5,138.5C 374.287,139.242 374.953,140.075 375.5,141C 372.833,144 370.167,147 367.5,150C 371.956,149.898 375.956,150.732 379.5,152.5 Z"/></g>
<g><path style="opacity:1" fill="#1e9da9" d="M 231.5,139.5 C 232.5,139.5 233.5,139.5 234.5,139.5C 233.844,145.592 232.677,151.592 231,157.5C 226.41,154.121 221.91,150.621 217.5,147C 222.101,144.202 226.768,141.702 231.5,139.5 Z"/></g>
<g><path style="opacity:1" fill="#d8eff1" d="M 188.5,141.5 C 190.9,143.296 192.567,145.63 193.5,148.5C 191.1,146.704 189.433,144.37 188.5,141.5 Z"/></g>
<g><path style="opacity:1" fill="#dcf0f2" d="M 321.5,147.5 C 323.893,148.353 325.226,150.019 325.5,152.5C 324.127,152.657 322.793,152.49 321.5,152C 322.413,150.586 322.413,149.086 321.5,147.5 Z"/></g>
<g><path style="opacity:1" fill="#98d5da" d="M 379.5,152.5 C 380.043,152.56 380.376,152.893 380.5,153.5C 373.344,154.819 366.344,154.819 359.5,153.5C 366.354,153.824 373.021,153.491 379.5,152.5 Z"/></g>
<g><path style="opacity:1" fill="#f0f8f9" d="M 323.5,168.5 C 322.778,168.082 322.278,167.416 322,166.5C 320.989,167.337 319.822,167.67 318.5,167.5C 320.398,165.617 322.231,163.617 324,161.5C 324,159.5 324,157.5 324,155.5C 325.653,158.926 326.487,162.593 326.5,166.5C 324.821,166.285 323.821,166.952 323.5,168.5 Z"/></g>
<g><path style="opacity:1" fill="#f2f9fa" d="M 378.5,158.5 C 380.124,158.36 381.29,159.027 382,160.5C 383.156,165.46 383.989,170.46 384.5,175.5C 383.5,175.5 382.5,175.5 381.5,175.5C 381.662,173.473 381.495,171.473 381,169.5C 380.586,169.043 380.086,168.709 379.5,168.5C 374.5,169.833 369.5,171.167 364.5,172.5C 363.571,171.311 363.238,169.978 363.5,168.5C 368.531,167.659 373.531,166.659 378.5,165.5C 379.363,163.229 379.363,160.895 378.5,158.5 Z"/></g>
<g><path style="opacity:1" fill="#eef8f8" d="M 175.5,123.5 C 178.933,126.601 181.6,130.268 183.5,134.5C 181.507,132.533 179.507,130.533 177.5,128.5C 169.64,136.569 164.14,145.902 161,156.5C 172.307,160.991 183.807,164.991 195.5,168.5C 197.596,167.38 197.93,165.88 196.5,164C 198.885,163.945 200.219,162.778 200.5,160.5C 198.149,156.489 195.816,152.489 193.5,148.5C 198.601,153.936 202.934,159.936 206.5,166.5C 204.855,165.521 203.521,164.188 202.5,162.5C 200.079,166.34 197.912,170.34 196,174.5C 195.22,176.387 195.387,178.054 196.5,179.5C 196.44,180.043 196.107,180.376 195.5,180.5C 194.828,179.051 194.161,177.718 193.5,176.5C 192.358,174.567 190.692,173.067 188.5,172C 177.677,166.755 167.01,161.255 156.5,155.5C 162.053,144.888 168.72,135.055 176.5,126C 175.748,125.329 175.414,124.496 175.5,123.5 Z"/></g>
<g><path style="opacity:1" fill="#c0e5e8" d="M 182.5,155.5 C 184.423,155.795 186.09,156.628 187.5,158C 185.332,158.249 183.665,157.416 182.5,155.5 Z"/></g>
<g><path style="opacity:1" fill="#c6e7ea" d="M 182.5,155.5 C 180.577,155.205 178.91,154.372 177.5,153C 179.668,152.751 181.335,153.584 182.5,155.5 Z"/></g>
<g><path style="opacity:1" fill="#aedde1" d="M 189.5,160.5 C 190.497,159.287 191.497,159.454 192.5,161C 191.423,161.47 190.423,161.303 189.5,160.5 Z"/></g>
<g><path style="opacity:1" fill="#199ca8" d="M 206.5,166.5 C 207.433,169.37 209.1,171.704 211.5,173.5C 211.539,174.583 211.873,175.583 212.5,176.5C 207.291,178.146 201.957,179.146 196.5,179.5C 195.387,178.054 195.22,176.387 196,174.5C 197.912,170.34 200.079,166.34 202.5,162.5C 203.521,164.188 204.855,165.521 206.5,166.5 Z"/></g>
<g><path style="opacity:1" fill="#6bc1c8" d="M 323.5,168.5 C 321.485,169.525 320.152,171.192 319.5,173.5C 318.893,173.376 318.56,173.043 318.5,172.5C 319.124,172.083 319.457,171.416 319.5,170.5C 319.253,169.287 318.586,168.62 317.5,168.5C 317.5,167.833 317.833,167.5 318.5,167.5C 319.822,167.67 320.989,167.337 322,166.5C 322.278,167.416 322.778,168.082 323.5,168.5 Z"/></g>
<g><path style="opacity:1" fill="#d8eff1" d="M 206.5,166.5 C 208.9,168.296 210.567,170.63 211.5,173.5C 209.1,171.704 207.433,169.37 206.5,166.5 Z"/></g>
<g><path style="opacity:1" fill="#f1f9fa" d="M 317.5,168.5 C 318.586,168.62 319.253,169.287 319.5,170.5C 319.457,171.416 319.124,172.083 318.5,172.5C 318.567,171.041 318.234,169.708 317.5,168.5 Z"/></g>
<g><path style="opacity:1" fill="#c4e6e9" d="M 191.5,178.5 C 191.5,178.833 191.5,179.167 191.5,179.5C 184.083,177.645 176.749,175.479 169.5,173C 177.027,173.895 184.361,175.728 191.5,178.5 Z"/></g>
<g><path style="opacity:1" fill="#ceebed" d="M 310.5,183.5 C 311.613,184.946 311.78,186.613 311,188.5C 309.372,187.038 309.205,185.372 310.5,183.5 Z"/></g>
<g><path style="opacity:1" fill="#fbfdfd" d="M 296.5,192.5 C 298.337,192.639 298.67,193.306 297.5,194.5C 296.702,194.043 296.369,193.376 296.5,192.5 Z"/></g>
<g><path style="opacity:1" fill="#0e9aa5" d="M 118.5,194.5 C 151.167,194.5 183.833,194.5 216.5,194.5C 216.505,197.532 216.838,200.532 217.5,203.5C 216.972,206.861 215.138,209.195 212,210.5C 207.849,209.669 203.683,209.003 199.5,208.5C 198.791,207.596 197.791,207.263 196.5,207.5C 170.283,203.645 144.283,199.312 118.5,194.5 Z"/></g>
<g><path style="opacity:1" fill="#f3fafa" d="M 365.5,197.5 C 372.18,197.612 378.847,197.946 385.5,198.5C 385.5,202.5 385.5,206.5 385.5,210.5C 384.5,210.5 383.5,210.5 382.5,210.5C 382.5,207.5 382.5,204.5 382.5,201.5C 376.833,201.5 371.167,201.5 365.5,201.5C 365.5,200.167 365.5,198.833 365.5,197.5 Z"/></g>
<g><path style="opacity:1" fill="#cfebed" d="M 311.5,195.5 C 312.997,197.562 314.33,199.895 315.5,202.5C 314.738,202.911 313.738,203.077 312.5,203C 313.696,203.654 313.696,204.154 312.5,204.5C 311.516,201.572 311.183,198.572 311.5,195.5 Z"/></g>
<g><path style="opacity:1" fill="#ecf7f8" d="M 118.5,194.5 C 144.283,199.312 170.283,203.645 196.5,207.5C 195.722,208.156 195.056,208.989 194.5,210C 194.57,210.765 194.903,211.265 195.5,211.5C 196.952,216.403 198.952,221.07 201.5,225.5C 200.833,225.5 200.5,225.833 200.5,226.5C 198.455,225.077 197.455,223.077 197.5,220.5C 185.003,223.554 172.669,227.221 160.5,231.5C 159.105,233.3 157.439,233.634 155.5,232.5C 155.833,231.833 156.167,231.167 156.5,230.5C 152.459,221.252 150.459,211.585 150.5,201.5C 138.929,200.128 127.595,198.128 116.5,195.5C 117.167,195.167 117.833,194.833 118.5,194.5 Z"/></g>
<g><path style="opacity:1" fill="#129ba6" d="M 160.5,231.5 C 158.163,229.035 156.663,226.035 156,222.5C 153.994,215.969 152.827,209.302 152.5,202.5C 165.949,203.908 179.282,206.075 192.5,209C 185.455,210.845 178.455,212.845 171.5,215C 170.304,215.654 170.304,216.154 171.5,216.5C 178.789,214.292 186.122,212.292 193.5,210.5C 193.762,211.978 193.429,213.311 192.5,214.5C 181.455,219.686 170.788,225.353 160.5,231.5 Z"/></g>
<g><path style="opacity:1" fill="#98d5d9" d="M 196.5,207.5 C 197.791,207.263 198.791,207.596 199.5,208.5C 198.508,208.328 197.842,208.662 197.5,209.5C 196.167,209.5 195.5,210.167 195.5,211.5C 194.903,211.265 194.57,210.765 194.5,210C 195.056,208.989 195.722,208.156 196.5,207.5 Z"/></g>
<g><path style="opacity:1" fill="#1c9da8" d="M 197.5,209.5 C 202.609,209.963 207.609,210.963 212.5,212.5C 209.805,216.03 207.305,219.696 205,223.5C 204.184,224.823 203.017,225.489 201.5,225.5C 198.952,221.07 196.952,216.403 195.5,211.5C 195.5,210.167 196.167,209.5 197.5,209.5 Z"/></g>
<g><path style="opacity:1" fill="#f9fcfc" d="M 317.5,208.5 C 318.709,210.435 318.542,212.435 317,214.5C 316.682,212.939 315.849,211.772 314.5,211C 315.942,210.623 316.942,209.79 317.5,208.5 Z"/></g>
<g><path style="opacity:1" fill="#f5fbfb" d="M 363.5,212.5 C 370.587,212.85 377.587,213.85 384.5,215.5C 383.756,218.443 383.256,221.443 383,224.5C 382.29,225.973 381.124,226.64 379.5,226.5C 380.159,223.545 380.492,220.545 380.5,217.5C 375.5,216.5 373.5,218.5 374.5,223.5C 373.5,223.5 372.5,223.5 371.5,223.5C 371.674,221.139 372.007,218.806 372.5,216.5C 370.5,216.167 368.5,215.833 366.5,215.5C 365.841,218.455 365.508,221.455 365.5,224.5C 364.5,224.5 363.5,224.5 362.5,224.5C 363.021,220.519 363.354,216.519 363.5,212.5 Z"/></g>
<g><path style="opacity:1" fill="#eff8f9" d="M 265.5,212.5 C 266.995,212.415 267.995,213.081 268.5,214.5C 267.68,216.111 266.346,216.778 264.5,216.5C 264.433,215.041 264.766,213.708 265.5,212.5 Z"/></g>
<g><path style="opacity:1" fill="#f5fbfb" d="M 306.5,213.5 C 307.922,213.75 308.922,214.583 309.5,216C 308.167,218 308.167,220 309.5,222C 307.726,224.368 306.059,226.868 304.5,229.5C 298.97,229.568 296.637,226.902 297.5,221.5C 301.734,220.269 304.734,217.602 306.5,213.5 Z"/></g>
<g><path style="opacity:1" fill="#f2f9fa" d="M 278.5,216.5 C 284.851,219.518 289.518,224.184 292.5,230.5C 292.444,231.737 291.944,232.737 291,233.5C 288.333,230.079 285.333,227.079 282,224.5C 280.555,221.91 279.388,219.243 278.5,216.5 Z"/></g>
<g><path style="opacity:1" fill="#189ca8" d="M 224.5,235.5 C 222.973,235.427 221.973,236.094 221.5,237.5C 219.596,237.738 218.262,238.738 217.5,240.5C 209.291,245.437 201.624,251.104 194.5,257.5C 192.596,257.738 191.262,258.738 190.5,260.5C 186.268,262.4 182.601,265.067 179.5,268.5C 177.833,269.167 176.167,269.833 174.5,270.5C 191.327,253.506 207.994,236.339 224.5,219C 229.778,220.363 231.945,223.863 231,229.5C 228.336,230.998 226.17,232.998 224.5,235.5 Z"/></g>
<g><path style="opacity:1" fill="#c1e5e8" d="M 315.5,220.5 C 316.043,220.56 316.376,220.893 316.5,221.5C 314.926,222.631 313.259,222.798 311.5,222C 313.058,221.79 314.391,221.29 315.5,220.5 Z"/></g>
<g><path style="opacity:1" fill="#f0f9f9" d="M 323.5,222.5 C 324.931,222.881 325.764,223.881 326,225.5C 328.243,223.213 330.743,223.047 333.5,225C 335.016,226.897 335.683,229.064 335.5,231.5C 332.938,230.629 330.272,230.629 327.5,231.5C 325.902,228.737 324.569,225.737 323.5,222.5 Z"/></g>
<g><path style="opacity:1" fill="#89ced4" d="M 337.5,222.5 C 338.848,223.527 339.348,224.86 339,226.5C 337.992,226.018 336.825,225.852 335.5,226C 336.823,225.184 337.489,224.017 337.5,222.5 Z"/></g>
<g><path style="opacity:1" fill="#dff2f3" d="M 313.5,223.5 C 313.277,224.888 313.277,226.388 313.5,228C 312.576,229.811 311.743,229.645 311,227.5C 310.453,232.734 309.62,232.734 308.5,227.5C 309.654,225.435 311.32,224.102 313.5,223.5 Z"/></g>
<g><path style="opacity:1" fill="#bfe4e7" d="M 182.5,233.5 C 186.3,229.938 190.634,227.438 195.5,226C 191.52,229.155 187.186,231.655 182.5,233.5 Z"/></g>
<g><path style="opacity:1" fill="#f3fafa" d="M 363.5,229.5 C 374.54,228.704 379.04,233.704 377,244.5C 373.945,249.635 369.445,251.468 363.5,250C 354.232,243.171 354.232,236.338 363.5,229.5 Z"/></g>
<g><path style="opacity:1" fill="#1c9da8" d="M 217.5,240.5 C 219.404,240.262 220.738,239.262 221.5,237.5C 223.027,237.573 224.027,236.906 224.5,235.5C 226.799,234.222 229.132,232.889 231.5,231.5C 233.143,237.401 234.143,243.401 234.5,249.5C 227.456,248.815 221.79,245.815 217.5,240.5 Z"/></g>
<g><path style="opacity:1" fill="#eaf6f7" d="M 303.5,235.5 C 303.5,235.833 303.5,236.167 303.5,236.5C 299.833,236.5 296.167,236.5 292.5,236.5C 292.5,235.5 292.5,234.5 292.5,233.5C 296.258,233.848 299.924,234.515 303.5,235.5 Z"/></g>
<g><path style="opacity:1" fill="#129ba6" d="M 363.5,233.5 C 370.996,232.174 374.496,235.174 374,242.5C 371.947,246.292 368.781,247.458 364.5,246C 360.708,243.947 359.542,240.781 361,236.5C 362.045,235.627 362.878,234.627 363.5,233.5 Z"/></g>
<g><path style="opacity:1" fill="#cbeaec" d="M 182.5,233.5 C 181.685,234.837 180.518,235.837 179,236.5C 179.033,234.522 180.2,233.522 182.5,233.5 Z"/></g>
<g><path style="opacity:1" fill="#a6dade" d="M 314.5,234.5 C 315.239,234.369 315.906,234.536 316.5,235C 315.534,236.678 314.201,237.345 312.5,237C 313.381,236.292 314.047,235.458 314.5,234.5 Z"/></g>
<g><path style="opacity:1" fill="#cfebed" d="M 224.5,235.5 C 224.027,236.906 223.027,237.573 221.5,237.5C 221.973,236.094 222.973,235.427 224.5,235.5 Z"/></g>
<g><path style="opacity:1" fill="#a1d8dc" d="M 303.5,236.5 C 303.5,236.167 303.5,235.833 303.5,235.5C 306.187,235.336 308.854,235.503 311.5,236C 308.836,237.513 306.17,237.68 303.5,236.5 Z"/></g>
<g><path style="opacity:1" fill="#dbf0f2" d="M 221.5,237.5 C 220.738,239.262 219.404,240.262 217.5,240.5C 218.262,238.738 219.596,237.738 221.5,237.5 Z"/></g>
<g><path style="opacity:1" fill="#169ba6" d="M 212.5,283.5 C 211.85,283.804 211.183,284.137 210.5,284.5C 206.611,282.726 202.945,280.726 199.5,278.5C 199.727,276.067 198.727,274.401 196.5,273.5C 194.679,272.883 192.679,272.716 190.5,273C 188.353,270.763 186.02,268.763 183.5,267C 185.907,264.817 188.24,262.65 190.5,260.5C 192.404,260.262 193.738,259.262 194.5,257.5C 201.464,252.885 208.464,248.218 215.5,243.5C 216.902,243.865 217.902,244.699 218.5,246C 217.813,247.162 217.647,248.328 218,249.5C 219.331,245.978 221.164,245.645 223.5,248.5C 219.223,259.996 215.556,271.663 212.5,283.5 Z"/></g>
<g><path style="opacity:1" fill="#f2f9fa" d="M 351.5,249.5 C 357.353,253.172 363.353,256.672 369.5,260C 367.455,262.586 365.789,265.42 364.5,268.5C 363.675,269.386 362.675,269.719 361.5,269.5C 361.924,266.646 362.924,263.979 364.5,261.5C 360.334,258.583 356.001,255.916 351.5,253.5C 350.374,252.192 350.374,250.858 351.5,249.5 Z"/></g>
<g><path style="opacity:1" fill="#169ba7" d="M 232.5,251.5 C 230.193,259.052 228.693,266.719 228,274.5C 230.138,267.92 231.971,261.253 233.5,254.5C 233.747,253.287 234.414,252.62 235.5,252.5C 237.934,265.769 239.934,279.102 241.5,292.5C 239.139,292.326 236.806,291.993 234.5,291.5C 232.3,290.138 230.3,288.471 228.5,286.5C 226.325,286.682 224.325,287.349 222.5,288.5C 219.803,287.768 217.136,286.934 214.5,286C 213.244,285.583 212.577,284.75 212.5,283.5C 218.164,273.506 223.33,263.173 228,252.5C 228.667,251.833 229.333,251.167 230,250.5C 230.671,251.252 231.504,251.586 232.5,251.5 Z"/></g>
<g><path style="opacity:1" fill="#c9e8eb" d="M 215.5,251.5 C 216.334,253.263 215.834,254.93 214,256.5C 213.878,254.718 214.378,253.052 215.5,251.5 Z"/></g>
<g><path style="opacity:1" fill="#d7eef0" d="M 194.5,257.5 C 193.738,259.262 192.404,260.262 190.5,260.5C 191.262,258.738 192.596,257.738 194.5,257.5 Z"/></g>
<g><path style="opacity:1" fill="#bee4e7" d="M 211.5,258.5 C 212.334,260.263 211.834,261.93 210,263.5C 209.878,261.718 210.378,260.052 211.5,258.5 Z"/></g>
<g><path style="opacity:1" fill="#f3fafa" d="M 343.5,262.5 C 349.244,266.07 354.578,270.237 359.5,275C 356.822,280.731 352.489,283.398 346.5,283C 341.233,278.542 341.233,274.042 346.5,269.5C 344.874,268.01 343.208,266.51 341.5,265C 342.381,264.292 343.047,263.458 343.5,262.5 Z"/></g>
<g><path style="opacity:1" fill="#eff8f9" d="M 190.5,260.5 C 188.24,262.65 185.907,264.817 183.5,267C 186.02,268.763 188.353,270.763 190.5,273C 192.679,272.716 194.679,272.883 196.5,273.5C 197.091,276.675 196.091,279.009 193.5,280.5C 191.419,278.231 189.419,275.731 187.5,273C 185.545,272.047 183.878,270.713 182.5,269C 181.552,268.517 180.552,268.351 179.5,268.5C 182.601,265.067 186.268,262.4 190.5,260.5 Z"/></g>
<g><path style="opacity:1" fill="#d9eff1" d="M 232.5,251.5 C 233.791,251.263 234.791,251.596 235.5,252.5C 234.414,252.62 233.747,253.287 233.5,254.5C 231.971,261.253 230.138,267.92 228,274.5C 228.693,266.719 230.193,259.052 232.5,251.5 Z"/></g>
<g><path style="opacity:1" fill="#b8e1e4" d="M 179.5,268.5 C 177.393,270.727 175.06,272.727 172.5,274.5C 171.571,272.678 172.238,271.345 174.5,270.5C 176.167,269.833 177.833,269.167 179.5,268.5 Z"/></g>
<g><path style="opacity:1" fill="#2aa1ac" d="M 348.5,271.5 C 351.069,272.396 353.069,274.062 354.5,276.5C 351.558,281.736 348.892,281.736 346.5,276.5C 347.187,274.823 347.854,273.156 348.5,271.5 Z"/></g>
<g><path style="opacity:1" fill="#f0f9f9" d="M 332.5,274.5 C 333.675,274.281 334.675,274.614 335.5,275.5C 338.038,281.408 340.705,287.242 343.5,293C 342.328,295.055 340.661,295.722 338.5,295C 332.675,292.255 327.008,289.255 321.5,286C 322.354,284.978 323.354,284.145 324.5,283.5C 328.448,286.064 331.781,285.231 334.5,281C 332.984,279.103 332.317,276.936 332.5,274.5 Z"/></g>
<g><path style="opacity:1" fill="#f1f9fa" d="M 199.5,278.5 C 202.945,280.726 206.611,282.726 210.5,284.5C 211.183,284.137 211.85,283.804 212.5,283.5C 212.577,284.75 213.244,285.583 214.5,286C 217.136,286.934 219.803,287.768 222.5,288.5C 224.325,287.349 226.325,286.682 228.5,286.5C 228.663,288.857 228.497,291.19 228,293.5C 227.329,294.252 226.496,294.586 225.5,294.5C 221.818,291.37 217.484,289.37 212.5,288.5C 207.423,285.295 202.09,282.628 196.5,280.5C 196.973,279.094 197.973,278.427 199.5,278.5 Z"/></g>
<g><path style="opacity:1" fill="#5cbac2" d="M 196.5,273.5 C 198.727,274.401 199.727,276.067 199.5,278.5C 197.973,278.427 196.973,279.094 196.5,280.5C 195.5,281.833 194.5,281.833 193.5,280.5C 196.091,279.009 197.091,276.675 196.5,273.5 Z"/></g>
<g><path style="opacity:1" fill="#30a3ae" d="M 334.5,284.5 C 336.602,286.193 338.268,288.359 339.5,291C 337.035,290.435 334.702,289.268 332.5,287.5C 333.193,286.482 333.859,285.482 334.5,284.5 Z"/></g>
<g><path style="opacity:1" fill="#51b3bb" d="M 228.5,286.5 C 230.3,288.471 232.3,290.138 234.5,291.5C 229.249,292.519 229.249,293.519 234.5,294.5C 231.304,295.112 228.304,295.112 225.5,294.5C 226.496,294.586 227.329,294.252 228,293.5C 228.497,291.19 228.663,288.857 228.5,286.5 Z"/></g>
<g><path style="opacity:1" fill="#f5fafb" d="M 310.5,291.5 C 312.017,291.511 313.184,292.177 314,293.5C 319.22,290.412 323.553,291.412 327,296.5C 327.667,298.833 327.667,301.167 327,303.5C 324.856,305.624 323.356,308.124 322.5,311C 321.256,311.456 320.423,310.956 320,309.5C 310.223,313.397 305.89,310.064 307,299.5C 307.785,297.714 308.951,296.214 310.5,295C 309.316,293.855 309.316,292.688 310.5,291.5 Z"/></g>
<g><path style="opacity:1" fill="#32a4ae" d="M 316.5,294.5 C 321.651,294.814 324.151,297.481 324,302.5C 323.163,304.007 321.996,304.507 320.5,304C 319,301.833 317.5,299.667 316,297.5C 315.53,296.423 315.697,295.423 316.5,294.5 Z"/></g>
<g><path style="opacity:1" fill="#28a1ac" d="M 311.5,298.5 C 313.969,301.144 316.302,303.977 318.5,307C 313.499,309.815 310.499,308.315 309.5,302.5C 309.752,300.927 310.418,299.594 311.5,298.5 Z"/></g>
<g><path style="opacity:1" fill="#f4fafb" d="M 295.5,300.5 C 296.5,300.5 297.5,300.5 298.5,300.5C 300.576,307.063 302.243,313.729 303.5,320.5C 302.325,320.719 301.325,320.386 300.5,319.5C 299.153,315.112 297.653,310.779 296,306.5C 294.759,312.555 292.926,318.388 290.5,324C 289.552,324.483 288.552,324.649 287.5,324.5C 285.836,317.839 284.169,311.173 282.5,304.5C 283.822,304.33 284.989,304.663 286,305.5C 287.027,309.608 288.36,313.608 290,317.5C 291.158,311.528 292.991,305.861 295.5,300.5 Z"/></g>
<g><path style="opacity:1" fill="#f1f9f9" d="M 273.5,306.5 C 274.833,306.5 276.167,306.5 277.5,306.5C 278.175,313.55 279.175,320.55 280.5,327.5C 279.167,327.5 277.833,327.5 276.5,327.5C 276.42,322.684 275.586,318.017 274,313.5C 272,318.167 270,322.833 268,327.5C 266.89,329.037 265.39,329.703 263.5,329.5C 262.933,322.764 261.933,316.098 260.5,309.5C 261.833,309.5 263.167,309.5 264.5,309.5C 264.589,313.717 265.423,317.717 267,321.5C 269.179,316.479 271.346,311.479 273.5,306.5 Z"/></g>
<g><path style="opacity:1" fill="#f5fafa" d="M 228.5,368.5 C 230.792,368.244 232.959,368.577 235,369.5C 237.778,378.502 240.944,387.335 244.5,396C 242.527,396.495 240.527,396.662 238.5,396.5C 238.326,394.139 237.993,391.806 237.5,389.5C 233.818,389.335 230.152,389.501 226.5,390C 225.331,392.007 224.665,394.173 224.5,396.5C 222.833,396.5 221.167,396.5 219.5,396.5C 222.1,387.033 225.1,377.7 228.5,368.5 Z"/></g>
<g><path style="opacity:1" fill="#f9fcfc" d="M 250.5,368.5 C 255.833,368.5 261.167,368.5 266.5,368.5C 266.5,369.833 266.5,371.167 266.5,372.5C 262.833,372.5 259.167,372.5 255.5,372.5C 255.5,380.5 255.5,388.5 255.5,396.5C 253.833,396.5 252.167,396.5 250.5,396.5C 250.5,387.167 250.5,377.833 250.5,368.5 Z"/></g>
<g><path style="opacity:1" fill="#f5fafa" d="M 269.5,369.5 C 271.364,368.207 273.364,368.207 275.5,369.5C 277.849,374.198 280.182,378.864 282.5,383.5C 284.429,378.882 286.262,374.216 288,369.5C 289.726,368.424 291.559,368.257 293.5,369C 290.28,375.991 287.446,383.158 285,390.5C 282.203,396.622 278.037,397.956 272.5,394.5C 273.253,391.399 274.919,390.732 277.5,392.5C 278.91,392.132 279.91,391.299 280.5,390C 276.932,383.025 273.265,376.192 269.5,369.5 Z"/></g>
<g><path style="opacity:1" fill="#32a3ae" d="M 234.5,383.5 C 232.5,384.833 230.5,384.833 228.5,383.5C 230.5,370.167 232.5,370.167 234.5,383.5 Z"/></g>
<g><path style="opacity:1" fill="#f5fbfb" d="M 204.5,382.5 C 209.328,382.385 210.661,384.552 208.5,389C 202.738,389.418 201.404,387.251 204.5,382.5 Z"/></g>
<g><path style="opacity:1" fill="#eff8f9" d="M 300.5,382.5 C 306.016,382.473 307.349,384.64 304.5,389C 298.738,389.418 297.404,387.251 300.5,382.5 Z"/></g>
<g><path style="opacity:1" fill="#95d3d8" d="M 228.5,383.5 C 230.5,384.833 232.5,384.833 234.5,383.5C 235.043,383.56 235.376,383.893 235.5,384.5C 232.833,385.833 230.167,385.833 227.5,384.5C 227.624,383.893 227.957,383.56 228.5,383.5 Z"/></g>
</svg>
