<?xml version="1.0" encoding="UTF-8"?>
<!DOCTYPE svg PUBLIC "-//W3C//DTD SVG 1.1//EN" "http://www.w3.org/Graphics/SVG/1.1/DTD/svg11.dtd">
<svg xmlns="http://www.w3.org/2000/svg" version="1.1" width="500px" height="500px" style="shape-rendering:geometricPrecision; text-rendering:geometricPrecision; image-rendering:optimizeQuality; fill-rule:evenodd; clip-rule:evenodd" xmlns:xlink="http://www.w3.org/1999/xlink">
<g><path style="opacity:0.997" fill="#bfe2f3" d="M 50.5,0.5 C 183.5,0.5 316.5,0.5 449.5,0.5C 449.667,84.834 449.5,169.167 449,253.5C 439.279,339.133 400.112,407.633 331.5,459C 306.557,476.553 279.391,489.72 250,498.5C 189.302,479.791 140.302,444.791 103,393.5C 72.6306,351.069 55.2973,303.736 51,251.5C 50.5,167.834 50.3333,84.1673 50.5,0.5 Z"/></g>
<g><path style="opacity:1" fill="#f7fbfd" d="M 234.5,44.5 C 298.247,41.1202 347.08,66.1202 381,119.5C 401.71,156.525 406.377,195.525 395,236.5C 375.383,295.781 334.883,331.281 273.5,343C 209.093,350.208 158.927,327.041 123,273.5C 91.9589,217.978 93.2922,163.312 127,109.5C 153.75,72.8723 189.584,51.2056 234.5,44.5 Z"/></g>
<g><path style="opacity:1" fill="#bfe2f3" d="M 239.5,46.5 C 301.852,44.9152 349.018,70.5819 381,123.5C 404.253,170.787 404.253,218.121 381,265.5C 354.526,311.507 314.693,337.007 261.5,342C 193.597,343.808 144.764,314.308 115,253.5C 93.9762,199.878 100.31,149.878 134,103.5C 161.445,70.1945 196.611,51.1945 239.5,46.5 Z"/></g>
<g><path style="opacity:1" fill="#f9fcfe" d="M 273.5,306.5 C 274.833,306.5 276.167,306.5 277.5,306.5C 278.608,313.484 279.608,320.484 280.5,327.5C 279.167,327.5 277.833,327.5 276.5,327.5C 276.42,322.684 275.586,318.017 274,313.5C 271.931,318.541 269.764,323.541 267.5,328.5C 266.311,329.429 264.978,329.762 263.5,329.5C 262.933,322.764 261.933,316.098 260.5,309.5C 261.833,309.5 263.167,309.5 264.5,309.5C 265.01,313.56 265.844,317.56 267,321.5C 269.179,316.479 271.346,311.479 273.5,306.5 Z"/></g>
<g><path style="opacity:1" fill="#fafdfe" d="M 294.5,300.5 C 296.451,300.227 297.951,300.893 299,302.5C 301.023,308.395 302.523,314.395 303.5,320.5C 302.325,320.719 301.325,320.386 300.5,319.5C 299.085,315.417 297.585,311.417 296,307.5C 294.34,313.142 292.84,318.809 291.5,324.5C 290.167,324.5 288.833,324.5 287.5,324.5C 285.836,317.839 284.169,311.173 282.5,304.5C 283.822,304.33 284.989,304.663 286,305.5C 287.15,309.288 288.483,312.954 290,316.5C 291.504,311.148 293.004,305.815 294.5,300.5 Z"/></g>
<g><path style="opacity:1" fill="#fbfdfe" d="M 310.5,291.5 C 312.017,291.511 313.184,292.177 314,293.5C 319.22,290.412 323.553,291.412 327,296.5C 327.667,298.833 327.667,301.167 327,303.5C 324.856,305.624 323.356,308.124 322.5,311C 318.942,311.075 315.275,311.075 311.5,311C 306.845,308.103 305.345,303.937 307,298.5C 308.167,297.333 309.333,296.167 310.5,295C 309.316,293.855 309.316,292.688 310.5,291.5 Z"/></g>
<g><path style="opacity:1" fill="#c4e4f3" d="M 311.5,298.5 C 313.969,301.144 316.302,303.977 318.5,307C 313.439,309.789 310.439,308.289 309.5,302.5C 309.752,300.927 310.418,299.594 311.5,298.5 Z"/></g>
<g><path style="opacity:1" fill="#c2e3f3" d="M 316.5,294.5 C 323.507,295.316 325.174,298.65 321.5,304.5C 319.377,301.754 317.377,298.921 315.5,296C 316.056,295.617 316.389,295.117 316.5,294.5 Z"/></g>
<g><path style="opacity:1" fill="#d5ebf7" d="M 196.5,273.5 C 198.727,274.401 199.727,276.067 199.5,278.5C 197.973,278.427 196.973,279.094 196.5,280.5C 195.5,281.833 194.5,281.833 193.5,280.5C 196.091,279.009 197.091,276.675 196.5,273.5 Z"/></g>
<g><path style="opacity:1" fill="#f9fcfe" d="M 333.5,273.5 C 337.187,279.704 340.52,286.204 343.5,293C 342.328,295.055 340.661,295.722 338.5,295C 332.675,292.255 327.008,289.255 321.5,286C 323.534,282.986 325.868,282.819 328.5,285.5C 329.833,284.5 331.167,283.5 332.5,282.5C 332.667,279.49 333.001,276.49 333.5,273.5 Z"/></g>
<g><path style="opacity:1" fill="#c1e3f3" d="M 334.5,284.5 C 336.179,286 337.512,287.833 338.5,290C 336.24,290.044 334.24,289.211 332.5,287.5C 333.193,286.482 333.859,285.482 334.5,284.5 Z"/></g>
<g><path style="opacity:1" fill="#f7fbfd" d="M 215.5,241.5 C 215.833,242.167 216.167,242.833 216.5,243.5C 213.91,244.128 211.577,245.295 209.5,247C 200.833,253.667 192.167,260.333 183.5,267C 185.5,268.667 187.5,270.333 189.5,272C 191.872,273.044 194.205,273.544 196.5,273.5C 197.091,276.675 196.091,279.009 193.5,280.5C 191.419,278.231 189.419,275.731 187.5,273C 185.323,271.485 183.156,269.985 181,268.5C 178.067,270.381 175.234,272.381 172.5,274.5C 171.571,272.678 172.238,271.345 174.5,270.5C 188.426,261.247 202.093,251.58 215.5,241.5 Z"/></g>
<g><path style="opacity:1" fill="#fbfdfe" d="M 342.5,262.5 C 349.007,265.666 354.674,269.999 359.5,275.5C 357.35,278.151 355.017,280.651 352.5,283C 341.772,282.606 339.772,278.106 346.5,269.5C 344.874,268.01 343.208,266.51 341.5,265C 342.252,264.329 342.586,263.496 342.5,262.5 Z"/></g>
<g><path style="opacity:1" fill="#c3e3f3" d="M 348.5,271.5 C 350.716,272.203 352.549,273.536 354,275.5C 354.507,276.996 354.007,278.163 352.5,279C 350.559,279.743 348.726,279.576 347,278.5C 346.4,275.905 346.9,273.571 348.5,271.5 Z"/></g>
<g><path style="opacity:1" fill="#fafcfe" d="M 351.5,249.5 C 357.637,252.736 363.637,256.236 369.5,260C 367.959,262.916 366.293,265.749 364.5,268.5C 363.675,269.386 362.675,269.719 361.5,269.5C 361.924,266.646 362.924,263.979 364.5,261.5C 360.296,258.8 355.963,256.3 351.5,254C 350.272,252.51 350.272,251.01 351.5,249.5 Z"/></g>
<g><path style="opacity:1" fill="#c0e2f3" d="M 216.5,243.5 C 217.278,244.156 217.944,244.989 218.5,246C 216.096,249.975 214.096,254.142 212.5,258.5C 215.143,254.565 217.81,250.565 220.5,246.5C 221.672,246.919 222.672,247.585 223.5,248.5C 219.554,260.675 215.22,272.675 210.5,284.5C 206.646,282.742 202.979,280.742 199.5,278.5C 199.727,276.067 198.727,274.401 196.5,273.5C 194.205,273.544 191.872,273.044 189.5,272C 187.5,270.333 185.5,268.667 183.5,267C 192.167,260.333 200.833,253.667 209.5,247C 211.577,245.295 213.91,244.128 216.5,243.5 Z"/></g>
<g><path style="opacity:1" fill="#fbfdfe" d="M 362.5,229.5 C 374.011,228.176 378.845,233.176 377,244.5C 374.081,250.025 369.581,251.858 363.5,250C 354.528,243.668 354.195,236.835 362.5,229.5 Z"/></g>
<g><path style="opacity:1" fill="#c0e2f3" d="M 363.5,233.5 C 369.428,232.123 373.095,234.289 374.5,240C 374.262,244.404 371.928,246.571 367.5,246.5C 362.833,246.5 360.5,244.167 360.5,239.5C 360.628,237.045 361.628,235.045 363.5,233.5 Z"/></g>
<g><path style="opacity:1" fill="#ebf6fb" d="M 197.5,222.5 C 198.401,223.29 199.068,224.29 199.5,225.5C 193.723,227.888 188.057,230.554 182.5,233.5C 186.762,230.026 191.429,227.026 196.5,224.5C 197.298,224.043 197.631,223.376 197.5,222.5 Z"/></g>
<g><path style="opacity:1" fill="#fafcfe" d="M 364.5,212.5 C 371.152,213.297 377.819,213.964 384.5,214.5C 383.962,218.524 383.295,222.524 382.5,226.5C 381.5,226.5 380.5,226.5 379.5,226.5C 379.704,223.482 380.037,220.482 380.5,217.5C 375.094,216.735 373.094,219.069 374.5,224.5C 373.5,224.5 372.5,224.5 371.5,224.5C 371.5,221.833 371.5,219.167 371.5,216.5C 369.833,216.5 368.167,216.5 366.5,216.5C 366.167,219.167 365.833,221.833 365.5,224.5C 364.5,224.5 363.5,224.5 362.5,224.5C 362.334,220.326 363,216.326 364.5,212.5 Z"/></g>
<g><path style="opacity:1" fill="#eff8fc" d="M 190.5,209.5 C 190.5,210.167 190.833,210.5 191.5,210.5C 184.346,212.955 177.012,214.789 169.5,216C 176.322,213.376 183.322,211.209 190.5,209.5 Z"/></g>
<g><path style="opacity:1" fill="#e6f4fa" d="M 165.5,202.5 C 171.037,203.087 176.37,204.087 181.5,205.5C 180.209,205.263 179.209,205.596 178.5,206.5C 172.963,205.913 167.63,204.913 162.5,203.5C 163.791,203.737 164.791,203.404 165.5,202.5 Z"/></g>
<g><path style="opacity:1" fill="#c0e2f3" d="M 162.5,203.5 C 167.63,204.913 172.963,205.913 178.5,206.5C 184.046,206.739 188.046,207.739 190.5,209.5C 183.322,211.209 176.322,213.376 169.5,216C 177.012,214.789 184.346,212.955 191.5,210.5C 192.586,210.62 193.253,211.287 193.5,212.5C 193.167,213.167 192.833,213.833 192.5,214.5C 181.983,219.591 171.65,224.924 161.5,230.5C 158.654,230.191 157.154,228.525 157,225.5C 154.442,218.033 152.942,210.367 152.5,202.5C 155.833,202.833 159.167,203.167 162.5,203.5 Z"/></g>
<g><path style="opacity:1" fill="#f5fafd" d="M 119.5,196.5 C 120.833,196.5 122.167,196.5 123.5,196.5C 137.634,197.634 151.634,199.634 165.5,202.5C 164.791,203.404 163.791,203.737 162.5,203.5C 159.167,203.167 155.833,202.833 152.5,202.5C 152.942,210.367 154.442,218.033 157,225.5C 157.154,228.525 158.654,230.191 161.5,230.5C 161.5,230.833 161.5,231.167 161.5,231.5C 159.692,233.105 157.692,233.439 155.5,232.5C 155.833,231.833 156.167,231.167 156.5,230.5C 152.45,221.249 150.45,211.582 150.5,201.5C 139.955,200.394 129.621,198.728 119.5,196.5 Z"/></g>
<g><path style="opacity:1" fill="#fcfdfe" d="M 365.5,197.5 C 372.167,197.833 378.833,198.167 385.5,198.5C 385.5,202.5 385.5,206.5 385.5,210.5C 384.5,210.5 383.5,210.5 382.5,210.5C 382.5,207.5 382.5,204.5 382.5,201.5C 376.833,201.5 371.167,201.5 365.5,201.5C 365.5,200.167 365.5,198.833 365.5,197.5 Z"/></g>
<g><path style="opacity:1" fill="#bfe2f3" d="M 209.5,210.5 C 205.425,208.882 201.092,207.882 196.5,207.5C 191.5,206.833 186.5,206.167 181.5,205.5C 176.37,204.087 171.037,203.087 165.5,202.5C 151.634,199.634 137.634,197.634 123.5,196.5C 122.048,195.698 120.382,195.198 118.5,195C 151.165,194.5 183.832,194.333 216.5,194.5C 216.595,198.225 216.762,201.891 217,205.5C 215.904,209.272 213.404,210.939 209.5,210.5 Z"/></g>
<g><path style="opacity:1" fill="#f9fcfe" d="M 379.5,157.5 C 381.397,159.269 382.564,161.602 383,164.5C 383.719,168.145 384.219,171.812 384.5,175.5C 383.5,175.5 382.5,175.5 381.5,175.5C 381.838,172.843 381.171,170.51 379.5,168.5C 374.897,170.034 370.231,171.367 365.5,172.5C 363.085,172.281 362.085,170.948 362.5,168.5C 368.196,167.713 373.863,166.713 379.5,165.5C 378.768,162.734 378.768,160.068 379.5,157.5 Z"/></g>
<g><path style="opacity:1" fill="#f8fcfd" d="M 173.5,118.5 C 187.142,137.815 200.808,157.149 214.5,176.5C 213.833,176.833 213.167,177.167 212.5,177.5C 209.931,172.041 206.598,167.041 202.5,162.5C 200.079,166.34 197.912,170.34 196,174.5C 195.22,176.387 195.387,178.054 196.5,179.5C 196.44,180.043 196.107,180.376 195.5,180.5C 194.828,179.051 194.161,177.718 193.5,176.5C 191.669,174.224 189.336,172.391 186.5,171C 176.374,166.104 166.374,160.937 156.5,155.5C 162.053,144.888 168.72,135.055 176.5,126C 174.768,124.028 173.435,121.861 172.5,119.5C 172.461,117.776 172.794,117.443 173.5,118.5 Z"/></g>
<g><path style="opacity:1" fill="#e5f3fa" d="M 379.5,152.5 C 380.043,152.56 380.376,152.893 380.5,153.5C 373.344,154.819 366.344,154.819 359.5,153.5C 366.354,153.824 373.021,153.491 379.5,152.5 Z"/></g>
<g><path style="opacity:1" fill="#fbfdfe" d="M 379.5,152.5 C 373.021,153.491 366.354,153.824 359.5,153.5C 356.908,151.964 355.908,149.631 356.5,146.5C 357.5,146.5 358.5,146.5 359.5,146.5C 359.5,147.833 359.5,149.167 359.5,150.5C 360.552,150.649 361.552,150.483 362.5,150C 366.291,146.22 369.958,142.387 373.5,138.5C 374.287,139.242 374.953,140.075 375.5,141C 372.833,144 370.167,147 367.5,150C 371.956,149.898 375.956,150.732 379.5,152.5 Z"/></g>
<g><path style="opacity:1" fill="#c0e2f3" d="M 176.5,128.5 C 178.017,128.511 179.184,129.177 180,130.5C 186.667,139.833 193.333,149.167 200,158.5C 200.72,160.112 200.554,161.612 199.5,163C 197.793,163.195 196.126,163.195 194.5,163C 197.806,164.544 198.14,166.378 195.5,168.5C 183.935,164.59 172.435,160.59 161,156.5C 161.427,152.619 162.76,148.953 165,145.5C 168.689,139.661 172.522,133.994 176.5,128.5 Z"/></g>
<g><path style="opacity:1" fill="#eff7fc" d="M 182.5,155.5 C 184.674,155.75 186.341,156.75 187.5,158.5C 185.326,158.25 183.659,157.25 182.5,155.5 Z"/></g>
<g><path style="opacity:1" fill="#f0f8fc" d="M 182.5,155.5 C 180.577,155.205 178.91,154.372 177.5,153C 179.668,152.751 181.335,153.584 182.5,155.5 Z"/></g>
<g><path style="opacity:1" fill="#c1e3f3" d="M 173.5,118.5 C 190.799,135.298 207.965,152.298 225,169.5C 224.973,171.417 224.139,173.084 222.5,174.5C 219.92,175.549 217.254,176.216 214.5,176.5C 200.808,157.149 187.142,137.815 173.5,118.5 Z"/></g>
<g><path style="opacity:1" fill="#fafcfe" d="M 362.5,120.5 C 363.496,120.414 364.329,120.748 365,121.5C 367.3,125.963 369.8,130.296 372.5,134.5C 371.758,135.287 370.925,135.953 370,136.5C 368.667,134.5 367.333,132.5 366,130.5C 361.916,133.126 357.75,135.626 353.5,138C 350.326,138.829 349.326,137.829 350.5,135C 355.492,132.839 360.159,130.172 364.5,127C 362.662,124.917 361.995,122.75 362.5,120.5 Z"/></g>
<g><path style="opacity:1" fill="#fafcfe" d="M 347.5,101.5 C 349.686,101.511 350.519,102.511 350,104.5C 347.131,107.704 343.965,110.537 340.5,113C 345.451,112.397 350.451,111.564 355.5,110.5C 357.397,110.728 358.73,111.728 359.5,113.5C 354.83,118.003 349.996,122.336 345,126.5C 343.054,126.237 342.388,125.237 343,123.5C 346.115,121.353 348.948,118.853 351.5,116C 346.613,115.745 341.78,116.245 337,117.5C 335.378,117.046 334.212,116.046 333.5,114.5C 338.213,110.117 342.88,105.783 347.5,101.5 Z"/></g>
<g><path style="opacity:1" fill="#d5ebf7" d="M 226.5,92.5 C 225.677,94.4546 225.51,96.4546 226,98.5C 226.71,99.9733 227.876,100.64 229.5,100.5C 228.167,101.833 226.833,101.833 225.5,100.5C 224.833,99.1667 223.833,98.1667 222.5,97.5C 222.67,94.796 224.003,93.1293 226.5,92.5 Z"/></g>
<g><path style="opacity:1" fill="#fafcfe" d="M 330.5,86.5 C 335.554,89.3741 340.22,92.8741 344.5,97C 343.892,97.8699 343.059,98.3699 342,98.5C 340.3,97.0734 338.467,96.24 336.5,96C 333,100.167 329.5,104.333 326,108.5C 324.978,107.646 324.145,106.646 323.5,105.5C 326.958,101.407 330.292,97.2401 333.5,93C 332.561,91.0561 331.227,89.3894 329.5,88C 330.056,87.6174 330.389,87.1174 330.5,86.5 Z"/></g>
<g><path style="opacity:1" fill="#f9fcfe" d="M 311.5,76.5 C 317.741,76.1196 322.407,78.6196 325.5,84C 324.975,84.6924 324.308,85.1924 323.5,85.5C 321.309,82.9573 318.642,81.2906 315.5,80.5C 309.288,81.5729 307.121,85.2395 309,91.5C 311.546,94.1856 314.713,95.1856 318.5,94.5C 318.5,95.8333 318.5,97.1667 318.5,98.5C 308.14,98.6444 303.64,93.6444 305,83.5C 306.694,80.6424 308.861,78.309 311.5,76.5 Z"/></g>
<g><path style="opacity:1" fill="#fafcfe" d="M 287.5,64.5 C 289.103,64.3118 290.437,64.8118 291.5,66C 287.73,72.9284 289.73,76.2617 297.5,76C 298.669,73.9935 299.335,71.8268 299.5,69.5C 300.833,69.5 302.167,69.5 303.5,69.5C 301.964,76.4421 299.63,83.1088 296.5,89.5C 295.328,89.0814 294.328,88.4147 293.5,87.5C 295.076,85.0207 296.076,82.354 296.5,79.5C 293.502,78.6584 290.502,78.1584 287.5,78C 286.331,80.0065 285.665,82.1732 285.5,84.5C 284.167,84.5 282.833,84.5 281.5,84.5C 283.297,77.7742 285.297,71.1076 287.5,64.5 Z"/></g>
<g><path style="opacity:1" fill="#fafcfe" d="M 262.5,59.5 C 263.5,59.5 264.5,59.5 265.5,59.5C 264.997,64.1724 264.831,68.8391 265,73.5C 268.131,69.3672 271.631,65.5338 275.5,62C 276.793,61.51 278.127,61.3433 279.5,61.5C 277.848,68.3976 276.848,75.3976 276.5,82.5C 275.167,82.5 273.833,82.5 272.5,82.5C 273.243,77.8095 273.743,73.1428 274,68.5C 270.869,72.6328 267.369,76.4662 263.5,80C 262.207,80.49 260.873,80.6567 259.5,80.5C 260.221,73.4557 261.221,66.4557 262.5,59.5 Z"/></g>
<g><path style="opacity:1" fill="#fdfefe" d="M 233.5,255.5 C 232.662,255.158 232.328,254.492 232.5,253.5C 231.951,251.313 230.785,250.646 229,251.5C 223.5,262.5 218,273.5 212.5,284.5C 217.566,288.436 222.899,289.102 228.5,286.5C 229.084,289.983 228.251,292.983 226,295.5C 222.426,291.573 217.926,289.239 212.5,288.5C 207.423,285.295 202.09,282.628 196.5,280.5C 196.973,279.094 197.973,278.427 199.5,278.5C 202.979,280.742 206.646,282.742 210.5,284.5C 215.22,272.675 219.554,260.675 223.5,248.5C 222.672,247.585 221.672,246.919 220.5,246.5C 217.81,250.565 215.143,254.565 212.5,258.5C 214.096,254.142 216.096,249.975 218.5,246C 217.944,244.989 217.278,244.156 216.5,243.5C 216.167,242.833 215.833,242.167 215.5,241.5C 215.842,240.662 216.508,240.328 217.5,240.5C 222.383,236.561 227.049,232.395 231.5,228C 231.243,223.105 228.91,220.105 224.5,219C 207.994,236.339 191.327,253.506 174.5,270.5C 172.238,271.345 171.571,272.678 172.5,274.5C 171.185,275.476 169.852,276.476 168.5,277.5C 168.167,277.167 167.833,276.833 167.5,276.5C 170.253,271.992 173.253,267.659 176.5,263.5C 169.05,254.774 162.717,245.274 157.5,235C 158.416,234.626 159.25,234.126 160,233.5C 164.339,243.522 170.172,252.522 177.5,260.5C 186.121,250.373 193.787,239.54 200.5,228C 200.257,227.098 199.923,226.265 199.5,225.5C 199.068,224.29 198.401,223.29 197.5,222.5C 197.209,221.351 196.376,220.684 195,220.5C 183.724,223.87 172.557,227.537 161.5,231.5C 161.5,231.167 161.5,230.833 161.5,230.5C 171.65,224.924 181.983,219.591 192.5,214.5C 192.833,213.833 193.167,213.167 193.5,212.5C 193.253,211.287 192.586,210.62 191.5,210.5C 190.833,210.5 190.5,210.167 190.5,209.5C 188.046,207.739 184.046,206.739 178.5,206.5C 179.209,205.596 180.209,205.263 181.5,205.5C 186.5,206.167 191.5,206.833 196.5,207.5C 195.722,208.156 195.056,208.989 194.5,210C 194.57,210.765 194.903,211.265 195.5,211.5C 196.785,216.737 199.118,221.404 202.5,225.5C 206.064,221.386 209.397,217.052 212.5,212.5C 211.675,211.614 210.675,211.281 209.5,211.5C 209.5,211.167 209.5,210.833 209.5,210.5C 213.404,210.939 215.904,209.272 217,205.5C 216.762,201.891 216.595,198.225 216.5,194.5C 183.832,194.333 151.165,194.5 118.5,195C 120.382,195.198 122.048,195.698 123.5,196.5C 122.167,196.5 120.833,196.5 119.5,196.5C 116.432,196.453 113.432,195.953 110.5,195C 111.623,193.956 112.956,193.29 114.5,193C 126.505,191.165 138.505,189.332 150.5,187.5C 150.451,177.027 152.618,167.027 157,157.5C 157.692,158.025 158.192,158.692 158.5,159.5C 154.993,168.176 152.993,177.176 152.5,186.5C 166.407,185.317 179.407,182.984 191.5,179.5C 191.5,179.167 191.5,178.833 191.5,178.5C 192.833,178.5 193.5,177.833 193.5,176.5C 194.161,177.718 194.828,179.051 195.5,180.5C 196.107,180.376 196.44,180.043 196.5,179.5C 201.781,178.444 207.114,177.777 212.5,177.5C 213.167,177.167 213.833,176.833 214.5,176.5C 217.254,176.216 219.92,175.549 222.5,174.5C 224.139,173.084 224.973,171.417 225,169.5C 207.965,152.298 190.799,135.298 173.5,118.5C 172.794,117.443 172.461,117.776 172.5,119.5C 169.698,116.524 167.031,113.358 164.5,110C 164.833,109.833 165.167,109.667 165.5,109.5C 170.42,113.541 175.587,117.207 181,120.5C 185.272,117.899 189.272,114.899 193,111.5C 193.903,112.701 195.069,113.535 196.5,114C 192.147,115.6 188.314,118.1 185,121.5C 184.333,122.167 184.333,122.833 185,123.5C 195.027,131.027 205.194,138.36 215.5,145.5C 217.724,144.919 218.557,143.586 218,141.5C 213.817,135.462 210.484,129.128 208,122.5C 212.417,128.998 216.584,135.665 220.5,142.5C 221.902,142.135 222.902,141.301 223.5,140C 219.845,127.865 215.512,116.031 210.5,104.5C 207.5,106 204.5,107.5 201.5,109C 200.887,113.348 199.054,114.181 196,111.5C 194.991,109.975 194.491,108.308 194.5,106.5C 196.262,106.357 197.929,106.691 199.5,107.5C 206.866,103.382 214.532,100.048 222.5,97.5C 223.833,98.1667 224.833,99.1667 225.5,100.5C 220.933,100.744 216.599,101.91 212.5,104C 217.856,115.213 223.356,126.379 229,137.5C 229.741,138.641 230.575,138.641 231.5,137.5C 232.429,136.311 232.762,134.978 232.5,133.5C 232.833,133.5 233.167,133.5 233.5,133.5C 233.281,134.675 233.614,135.675 234.5,136.5C 237.02,123.187 239.354,109.854 241.5,96.5C 238.187,97.0448 234.854,97.5448 231.5,98C 230.934,98.9947 230.267,99.828 229.5,100.5C 227.876,100.64 226.71,99.9733 226,98.5C 225.51,96.4546 225.677,94.4546 226.5,92.5C 228.923,92.4236 230.756,93.4236 232,95.5C 235.386,94.9127 238.72,94.2461 242,93.5C 244.442,79.1814 246.775,64.8481 249,50.5C 249.5,64.8295 249.667,79.1628 249.5,93.5C 302.616,96.8062 336.116,124.14 350,175.5C 355.912,218.807 341.412,253.307 306.5,279C 289.077,289.939 270.077,295.439 249.5,295.5C 249.667,309.171 249.5,322.837 249,336.5C 247.207,322.739 244.873,309.073 242,295.5C 238.255,294.512 234.422,293.845 230.5,293.5C 230.34,291.801 230.506,290.134 231,288.5C 231.772,289.849 232.939,290.682 234.5,291C 236.81,291.497 239.143,291.663 241.5,291.5C 240.135,278.309 237.802,265.309 234.5,252.5C 233.614,253.325 233.281,254.325 233.5,255.5 Z"/></g>
<g><path style="opacity:1" fill="#f0f8fc" d="M 232.5,253.5 C 232.328,254.492 232.662,255.158 233.5,255.5C 231.753,261.886 229.753,268.22 227.5,274.5C 227.167,274.167 226.833,273.833 226.5,273.5C 228.523,266.721 230.523,260.054 232.5,253.5 Z"/></g>
<g><path style="opacity:1" fill="#e8f4fa" d="M 212.5,258.5 C 211.788,260.928 210.788,263.261 209.5,265.5C 208.998,266.521 208.332,266.688 207.5,266C 208.818,263.176 210.485,260.676 212.5,258.5 Z"/></g>
<g><path style="opacity:1" fill="#f2f9fd" d="M 182.5,233.5 C 181.685,234.837 180.518,235.837 179,236.5C 179.033,234.522 180.2,233.522 182.5,233.5 Z"/></g>
<g><path style="opacity:1" fill="#c1e3f3" d="M 217.5,240.5 C 222.131,237.553 226.798,234.553 231.5,231.5C 232.933,237.432 233.933,243.432 234.5,249.5C 229.546,248.527 224.879,246.694 220.5,244C 218.937,243.241 217.937,242.074 217.5,240.5 Z"/></g>
<g><path style="opacity:1" fill="#c1e2f3" d="M 217.5,240.5 C 216.508,240.328 215.842,240.662 215.5,241.5C 202.093,251.58 188.426,261.247 174.5,270.5C 191.327,253.506 207.994,236.339 224.5,219C 228.91,220.105 231.243,223.105 231.5,228C 227.049,232.395 222.383,236.561 217.5,240.5 Z"/></g>
<g><path style="opacity:1" fill="#ecf6fb" d="M 196.5,207.5 C 201.092,207.882 205.425,208.882 209.5,210.5C 209.5,210.833 209.5,211.167 209.5,211.5C 205.473,211.051 201.473,210.384 197.5,209.5C 196.287,209.747 195.62,210.414 195.5,211.5C 194.903,211.265 194.57,210.765 194.5,210C 195.056,208.989 195.722,208.156 196.5,207.5 Z"/></g>
<g><path style="opacity:1" fill="#c1e2f3" d="M 209.5,211.5 C 210.675,211.281 211.675,211.614 212.5,212.5C 209.397,217.052 206.064,221.386 202.5,225.5C 199.118,221.404 196.785,216.737 195.5,211.5C 195.62,210.414 196.287,209.747 197.5,209.5C 201.473,210.384 205.473,211.051 209.5,211.5 Z"/></g>
<g><path style="opacity:1" fill="#eff7fc" d="M 191.5,178.5 C 191.5,178.833 191.5,179.167 191.5,179.5C 184.025,177.842 176.692,175.675 169.5,173C 177.027,173.895 184.361,175.728 191.5,178.5 Z"/></g>
<g><path style="opacity:1" fill="#c1e2f3" d="M 212.5,177.5 C 207.114,177.777 201.781,178.444 196.5,179.5C 195.387,178.054 195.22,176.387 196,174.5C 197.912,170.34 200.079,166.34 202.5,162.5C 206.598,167.041 209.931,172.041 212.5,177.5 Z"/></g>
<g><path style="opacity:1" fill="#e9f5fb" d="M 187.5,158.5 C 189.423,158.795 191.09,159.628 192.5,161C 190.332,161.249 188.665,160.416 187.5,158.5 Z"/></g>
<g><path style="opacity:1" fill="#c2e3f3" d="M 231.5,139.5 C 232.5,139.5 233.5,139.5 234.5,139.5C 233.872,145.6 232.705,151.6 231,157.5C 226.41,154.121 221.91,150.621 217.5,147C 222.101,144.202 226.768,141.702 231.5,139.5 Z"/></g>
<g><path style="opacity:1" fill="#e6f3fa" d="M 319.5,142.5 C 318.778,142.082 318.278,141.416 318,140.5C 317.819,143.695 317.319,146.695 316.5,149.5C 317.622,142.319 315.955,135.985 311.5,130.5C 312.397,129.402 313.23,129.402 314,130.5C 315.776,133.941 317.943,137.108 320.5,140C 319.748,140.671 319.414,141.504 319.5,142.5 Z"/></g>
<g><path style="opacity:1" fill="#c0e2f3" d="M 316.5,149.5 C 317.319,146.695 317.819,143.695 318,140.5C 318.278,141.416 318.778,142.082 319.5,142.5C 319.414,141.504 319.748,140.671 320.5,140C 317.943,137.108 315.776,133.941 314,130.5C 313.23,129.402 312.397,129.402 311.5,130.5C 306.974,128.826 305.308,125.493 306.5,120.5C 308.467,120.261 310.301,120.594 312,121.5C 312.333,120.833 312.667,120.167 313,119.5C 317.246,124.991 321.246,130.658 325,136.5C 324.555,133.349 323.388,130.349 321.5,127.5C 321.667,127.167 321.833,126.833 322,126.5C 351.333,160.13 357,197.464 339,238.5C 336.916,242.336 334.583,246.003 332,249.5C 330.927,245.916 330.26,242.25 330,238.5C 329.667,238.167 329.333,237.833 329,237.5C 328.185,239.623 327.185,241.623 326,243.5C 322.923,241.698 322.757,239.698 325.5,237.5C 324.833,237.167 324.167,236.833 323.5,236.5C 320.585,237.617 318.585,239.617 317.5,242.5C 316.549,241.674 315.549,241.508 314.5,242C 310.862,247.746 305.862,251.913 299.5,254.5C 295.946,258.252 294.779,262.585 296,267.5C 294.216,268.667 294.216,269.667 296,270.5C 300.707,268.712 305.207,266.545 309.5,264C 310.944,263.219 312.277,263.386 313.5,264.5C 314.04,265.748 314.707,266.915 315.5,268C 296.56,284.15 274.56,292.316 249.5,292.5C 249.5,263.833 249.5,235.167 249.5,206.5C 242.004,206.927 238.004,203.427 237.5,196C 238.814,188.831 243.148,185.831 250.5,187C 252.641,188.308 254.641,189.808 256.5,191.5C 257.607,190.978 258.774,190.645 260,190.5C 262.527,191.759 265.194,192.759 268,193.5C 270.154,192.748 272.32,192.581 274.5,193C 275.402,195.202 276.402,197.368 277.5,199.5C 278.478,199.023 279.311,198.357 280,197.5C 281.765,201.989 282.765,206.655 283,211.5C 284.218,216.055 286.718,219.721 290.5,222.5C 290.833,222.167 291.167,221.833 291.5,221.5C 289.256,217.249 286.589,213.249 283.5,209.5C 284.041,207.465 284.708,205.465 285.5,203.5C 287.884,205.885 290.55,207.885 293.5,209.5C 298.611,205.795 298.778,201.795 294,197.5C 292.813,195.956 292.48,194.289 293,192.5C 296.834,191.838 300.667,190.338 304.5,188C 307.457,184.702 309.457,180.869 310.5,176.5C 309.811,174.556 309.311,172.556 309,170.5C 305.117,167.986 304.617,164.986 307.5,161.5C 301.103,161.06 300.103,158.727 304.5,154.5C 305.281,155.729 305.781,157.062 306,158.5C 307.011,157.663 308.178,157.33 309.5,157.5C 311.45,160.124 312.95,163.124 314,166.5C 316.067,162.744 315.234,159.578 311.5,157C 313.229,155.211 313.896,153.044 313.5,150.5C 314.791,150.737 315.791,150.404 316.5,149.5 Z"/></g>
<g><path style="opacity:1" fill="#e5f3fa" d="M 304.5,236.5 C 304.5,236.167 304.5,235.833 304.5,235.5C 308.7,234.568 312.7,234.402 316.5,235C 315.646,236.022 314.646,236.855 313.5,237.5C 310.37,237.082 307.37,236.749 304.5,236.5 Z"/></g>
<g><path style="opacity:1" fill="#f9fcfd" d="M 304.5,235.5 C 304.5,235.833 304.5,236.167 304.5,236.5C 300.5,236.5 296.5,236.5 292.5,236.5C 292.5,235.5 292.5,234.5 292.5,233.5C 296.546,233.952 300.546,234.619 304.5,235.5 Z"/></g>
<g><path style="opacity:1" fill="#f3fafc" d="M 315.5,220.5 C 316.043,220.56 316.376,220.893 316.5,221.5C 314.726,222.187 313.059,223.02 311.5,224C 312.738,223.923 313.738,224.089 314.5,224.5C 313.985,226.225 313.318,227.892 312.5,229.5C 311.808,228.975 311.308,228.308 311,227.5C 310.453,232.734 309.62,232.734 308.5,227.5C 309.256,223.41 311.59,221.076 315.5,220.5 Z"/></g>
<g><path style="opacity:1" fill="#def0f8" d="M 335.5,227.5 C 334.833,227.5 334.5,227.167 334.5,226.5C 336.173,225.657 337.34,224.324 338,222.5C 338.5,223.5 339,224.5 339.5,225.5C 338.164,225.345 336.831,226.012 335.5,227.5 Z"/></g>
<g><path style="opacity:1" fill="#fafcfe" d="M 334.5,226.5 C 334.5,227.167 334.833,227.5 335.5,227.5C 335.5,228.833 335.5,230.167 335.5,231.5C 332.938,230.629 330.272,230.629 327.5,231.5C 327.833,228.5 326.5,227.167 323.5,227.5C 323.579,226.07 323.246,224.736 322.5,223.5C 323.325,222.614 324.325,222.281 325.5,222.5C 325.351,223.552 325.517,224.552 326,225.5C 329.083,223.128 331.916,223.462 334.5,226.5 Z"/></g>
<g><path style="opacity:1" fill="#fbfdfe" d="M 278.5,216.5 C 283.816,218.819 287.816,222.486 290.5,227.5C 291.552,227.351 292.552,227.517 293.5,228C 292.89,229.947 292.057,231.781 291,233.5C 288.211,230.221 285.211,227.221 282,224.5C 280.555,221.91 279.388,219.243 278.5,216.5 Z"/></g>
<g><path style="opacity:1" fill="#fafdfe" d="M 306.5,213.5 C 308.121,213.787 309.121,214.787 309.5,216.5C 308.233,218.371 308.233,220.204 309.5,222C 307.613,223.969 306.28,226.302 305.5,229C 303.19,229.497 300.857,229.663 298.5,229.5C 297.908,226.873 297.575,224.206 297.5,221.5C 301.751,220.249 304.751,217.582 306.5,213.5 Z"/></g>
<g><path style="opacity:1" fill="#f9fcfe" d="M 265.5,212.5 C 267.912,212.694 268.912,214.027 268.5,216.5C 267.167,216.5 265.833,216.5 264.5,216.5C 264.433,215.041 264.766,213.708 265.5,212.5 Z"/></g>
<g><path style="opacity:1" fill="#f6fafd" d="M 317.5,208.5 C 318.735,210.017 318.735,211.684 317.5,213.5C 316.236,213.64 315.069,213.64 314,213.5C 313.333,212.833 313.333,212.167 314,211.5C 315.518,210.837 316.685,209.837 317.5,208.5 Z"/></g>
<g><path style="opacity:1" fill="#f2f9fc" d="M 311.5,195.5 C 312.997,197.562 314.33,199.895 315.5,202.5C 314.738,202.911 313.738,203.077 312.5,203C 313.696,203.654 313.696,204.154 312.5,204.5C 311.516,201.572 311.183,198.572 311.5,195.5 Z"/></g>
<g><path style="opacity:1" fill="#e9f4fa" d="M 296.5,192.5 C 298.048,192.821 298.715,193.821 298.5,195.5C 295.752,195.598 295.086,194.598 296.5,192.5 Z"/></g>
<g><path style="opacity:1" fill="#f2f9fc" d="M 310.5,183.5 C 311.613,184.946 311.78,186.613 311,188.5C 309.372,187.038 309.205,185.372 310.5,183.5 Z"/></g>
<g><path style="opacity:1" fill="#dff0f8" d="M 323.5,168.5 C 321.485,169.525 320.152,171.192 319.5,173.5C 317.802,171.503 317.468,169.503 318.5,167.5C 319.822,167.67 320.989,167.337 322,166.5C 322.278,167.416 322.778,168.082 323.5,168.5 Z"/></g>
<g><path style="opacity:1" fill="#f9fcfd" d="M 323.5,168.5 C 322.778,168.082 322.278,167.416 322,166.5C 320.989,167.337 319.822,167.67 318.5,167.5C 320.398,165.617 322.231,163.617 324,161.5C 324,159.5 324,157.5 324,155.5C 325.331,158.128 326.164,160.962 326.5,164C 326.478,166.183 325.478,167.683 323.5,168.5 Z"/></g>
<g><path style="opacity:1" fill="#f8fcfe" d="M 322.5,148.5 C 324.532,149.048 325.532,150.381 325.5,152.5C 323.901,152.768 322.568,152.434 321.5,151.5C 322.404,150.791 322.737,149.791 322.5,148.5 Z"/></g>
<g><path style="opacity:1" fill="#d8edf7" d="M 319.5,142.5 C 321.245,144.033 322.245,146.033 322.5,148.5C 322.737,149.791 322.404,150.791 321.5,151.5C 320.99,148.461 320.323,145.461 319.5,142.5 Z"/></g>
<g><path style="opacity:1" fill="#c0e2f3" d="M 233.5,133.5 C 232.125,126.994 230.292,120.66 228,114.5C 228.727,121.07 230.227,127.404 232.5,133.5C 232.762,134.978 232.429,136.311 231.5,137.5C 230.575,138.641 229.741,138.641 229,137.5C 223.356,126.379 217.856,115.213 212.5,104C 216.599,101.91 220.933,100.744 225.5,100.5C 226.833,101.833 228.167,101.833 229.5,100.5C 230.267,99.828 230.934,98.9947 231.5,98C 234.854,97.5448 238.187,97.0448 241.5,96.5C 239.354,109.854 237.02,123.187 234.5,136.5C 233.614,135.675 233.281,134.675 233.5,133.5 Z"/></g>
<g><path style="opacity:1" fill="#f0f8fc" d="M 233.5,133.5 C 233.167,133.5 232.833,133.5 232.5,133.5C 230.227,127.404 228.727,121.07 228,114.5C 230.292,120.66 232.125,126.994 233.5,133.5 Z"/></g>
<g><path style="opacity:1" fill="#f9fbfd" d="M 228.5,367.5 C 230.604,367.201 232.604,367.534 234.5,368.5C 237.937,377.645 241.27,386.812 244.5,396C 242.527,396.495 240.527,396.662 238.5,396.5C 239.031,391.199 236.698,388.866 231.5,389.5C 226.349,388.866 224.016,391.199 224.5,396.5C 222.473,396.662 220.473,396.495 218.5,396C 222.328,386.682 225.662,377.182 228.5,367.5 Z"/></g>
<g><path style="opacity:1" fill="#fafcfd" d="M 250.5,367.5 C 255.833,367.5 261.167,367.5 266.5,367.5C 266.5,369.167 266.5,370.833 266.5,372.5C 262.833,372.5 259.167,372.5 255.5,372.5C 255.5,380.5 255.5,388.5 255.5,396.5C 253.833,396.5 252.167,396.5 250.5,396.5C 250.5,386.833 250.5,377.167 250.5,367.5 Z"/></g>
<g><path style="opacity:1" fill="#fafcfd" d="M 269.5,367.5 C 271.467,367.261 273.301,367.594 275,368.5C 277.246,373.326 279.746,377.992 282.5,382.5C 284.605,377.954 286.439,373.287 288,368.5C 289.814,367.24 291.647,367.24 293.5,368.5C 290.389,375.722 287.556,383.056 285,390.5C 282.983,395.924 279.15,397.758 273.5,396C 272.439,392.23 273.773,391.063 277.5,392.5C 278.91,392.132 279.91,391.299 280.5,390C 276.422,382.678 272.755,375.178 269.5,367.5 Z"/></g>
<g><path style="opacity:1" fill="#c5e4f4" d="M 230.5,373.5 C 232.968,376.553 234.301,380.22 234.5,384.5C 232.5,384.5 230.5,384.5 228.5,384.5C 229.463,380.899 230.13,377.233 230.5,373.5 Z"/></g>
<g><path style="opacity:1" fill="#fbfdfe" d="M 203.5,382.5 C 209.158,381.679 210.825,383.846 208.5,389C 203.262,389.594 201.595,387.427 203.5,382.5 Z"/></g>
<g><path style="opacity:1" fill="#fafdfe" d="M 300.5,382.5 C 306.016,382.473 307.349,384.64 304.5,389C 298.738,389.418 297.404,387.251 300.5,382.5 Z"/></g>
</svg>
