<?xml version="1.0" encoding="UTF-8"?>
<!DOCTYPE svg PUBLIC "-//W3C//DTD SVG 1.1//EN" "http://www.w3.org/Graphics/SVG/1.1/DTD/svg11.dtd">
<svg xmlns="http://www.w3.org/2000/svg" version="1.1" width="500px" height="500px" style="shape-rendering:geometricPrecision; text-rendering:geometricPrecision; image-rendering:optimizeQuality; fill-rule:evenodd; clip-rule:evenodd" xmlns:xlink="http://www.w3.org/1999/xlink">
<g><path style="opacity:0.976" fill="#bce2f1" d="M 51.5,0.5 C 51.5,95.8333 51.5,191.167 51.5,286.5C 50.6745,282.018 50.1745,277.351 50,272.5C 49.8333,227.167 49.6667,181.833 49.5,136.5C 49.5001,90.8284 50.1667,45.4951 51.5,0.5 Z"/></g>
<g><path style="opacity:0.999" fill="#bce2f2" d="M 51.5,0.5 C 53.1667,0.5 54.8333,0.5 56.5,0.5C 56.5,96.1667 56.5,191.833 56.5,287.5C 61.43,287.803 66.2633,287.469 71,286.5C 72.6071,280.082 70.1071,277.749 63.5,279.5C 63.5,276.833 63.5,274.167 63.5,271.5C 70.6593,273.18 72.9926,270.68 70.5,264C 68.1902,263.503 65.8568,263.337 63.5,263.5C 63.5,260.833 63.5,258.167 63.5,255.5C 70.6593,257.18 72.9926,254.68 70.5,248C 68.1902,247.503 65.8568,247.337 63.5,247.5C 63.5,244.833 63.5,242.167 63.5,239.5C 70.6593,241.18 72.9926,238.68 70.5,232C 68.1902,231.503 65.8568,231.337 63.5,231.5C 63.5,228.833 63.5,226.167 63.5,223.5C 70.6593,225.18 72.9926,222.68 70.5,216C 68.1902,215.503 65.8568,215.337 63.5,215.5C 63.5,212.833 63.5,210.167 63.5,207.5C 70.6593,209.18 72.9926,206.68 70.5,200C 68.1902,199.503 65.8568,199.337 63.5,199.5C 63.5,196.833 63.5,194.167 63.5,191.5C 70.6593,193.18 72.9926,190.68 70.5,184C 68.1902,183.503 65.8568,183.337 63.5,183.5C 63.5,180.833 63.5,178.167 63.5,175.5C 70.6593,177.18 72.9926,174.68 70.5,168C 68.1902,167.503 65.8568,167.337 63.5,167.5C 63.5,164.833 63.5,162.167 63.5,159.5C 70.6593,161.18 72.9926,158.68 70.5,152C 68.1902,151.503 65.8568,151.337 63.5,151.5C 63.5,148.833 63.5,146.167 63.5,143.5C 70.6593,145.18 72.9926,142.68 70.5,136C 68.1902,135.503 65.8568,135.337 63.5,135.5C 63.5,132.833 63.5,130.167 63.5,127.5C 70.6593,129.18 72.9926,126.68 70.5,120C 68.1902,119.503 65.8568,119.337 63.5,119.5C 63.5,116.833 63.5,114.167 63.5,111.5C 70.6593,113.18 72.9926,110.68 70.5,104C 68.1902,103.503 65.8568,103.337 63.5,103.5C 63.5,100.833 63.5,98.1667 63.5,95.5C 70.6593,97.1797 72.9926,94.6797 70.5,88C 68.1902,87.5034 65.8568,87.3367 63.5,87.5C 63.5,84.8333 63.5,82.1667 63.5,79.5C 70.6593,81.1797 72.9926,78.6797 70.5,72C 68.1902,71.5034 65.8568,71.3367 63.5,71.5C 63.5,68.8333 63.5,66.1667 63.5,63.5C 70.6593,65.1797 72.9926,62.6797 70.5,56C 68.1902,55.5034 65.8568,55.3367 63.5,55.5C 63.5,52.8333 63.5,50.1667 63.5,47.5C 70.6593,49.1797 72.9926,46.6797 70.5,40C 68.1902,39.5034 65.8568,39.3367 63.5,39.5C 63.5,36.8333 63.5,34.1667 63.5,31.5C 70.6593,33.1797 72.9926,30.6797 70.5,24C 68.1902,23.5034 65.8568,23.3367 63.5,23.5C 63.5,20.8333 63.5,18.1667 63.5,15.5C 70.6593,17.1797 72.9926,14.6797 70.5,8C 68.1902,7.50335 65.8568,7.33669 63.5,7.5C 63.5,5.16667 63.5,2.83333 63.5,0.5C 192.167,0.5 320.833,0.5 449.5,0.5C 449.167,109.335 449.501,218.001 450.5,326.5C 443.587,385.847 415.587,432.347 366.5,466C 338.599,483.958 308.266,495.125 275.5,499.5C 267.167,499.5 258.833,499.5 250.5,499.5C 250.5,487.5 250.5,475.5 250.5,463.5C 252.199,463.34 253.866,463.506 255.5,464C 256.059,464.725 256.392,465.558 256.5,466.5C 256.553,473.413 256.22,480.413 255.5,487.5C 258.167,487.5 260.833,487.5 263.5,487.5C 263.334,482.489 263.501,477.489 264,472.5C 268.733,471.387 273.566,470.72 278.5,470.5C 278.5,468.5 278.5,466.5 278.5,464.5C 276.167,464.5 273.833,464.5 271.5,464.5C 271.5,463.5 271.5,462.5 271.5,461.5C 270.167,461.5 268.833,461.5 267.5,461.5C 269.5,460.833 271.5,460.167 273.5,459.5C 274.568,458.566 275.901,458.232 277.5,458.5C 281.708,458.323 285.374,456.99 288.5,454.5C 289.391,453.89 290.391,453.557 291.5,453.5C 293.593,452.955 295.593,452.122 297.5,451C 294.861,450.412 292.527,450.912 290.5,452.5C 289.833,452.5 289.167,452.5 288.5,452.5C 283.696,450.913 279.363,451.579 275.5,454.5C 264.808,455.198 253.974,455.865 243,456.5C 232.687,455.24 222.52,453.906 212.5,452.5C 219.442,451.957 226.442,451.957 233.5,452.5C 237.833,452.167 242.167,451.833 246.5,451.5C 246.709,450.914 247.043,450.414 247.5,450C 238.31,450.102 229.31,449.269 220.5,447.5C 215.457,450.158 210.457,450.158 205.5,447.5C 203.292,448.272 203.625,449.105 206.5,450C 205.584,450.278 204.918,450.778 204.5,451.5C 198.905,450.768 193.571,449.435 188.5,447.5C 189.5,447.5 190.5,447.5 191.5,447.5C 191.5,444.833 191.5,442.167 191.5,439.5C 188.721,439.721 186.054,439.388 183.5,438.5C 183.663,436.143 183.497,433.81 183,431.5C 178.175,430.619 173.342,430.952 168.5,432.5C 167.691,434.071 167.357,435.738 167.5,437.5C 165.901,437.232 164.568,437.566 163.5,438.5C 105.671,411.828 69.1714,367.495 54,305.5C 52.5129,299.246 51.6796,292.912 51.5,286.5C 51.5,191.167 51.5,95.8333 51.5,0.5 Z"/></g>
<g><path style="opacity:0.999" fill="#bbe2f4" d="M 56.5,0.5 C 58.8333,0.5 61.1667,0.5 63.5,0.5C 63.5,2.83333 63.5,5.16667 63.5,7.5C 65.8568,7.33669 68.1902,7.50335 70.5,8C 72.9926,14.6797 70.6593,17.1797 63.5,15.5C 63.5,18.1667 63.5,20.8333 63.5,23.5C 65.8568,23.3367 68.1902,23.5034 70.5,24C 72.9926,30.6797 70.6593,33.1797 63.5,31.5C 63.5,34.1667 63.5,36.8333 63.5,39.5C 65.8568,39.3367 68.1902,39.5034 70.5,40C 72.9926,46.6797 70.6593,49.1797 63.5,47.5C 63.5,50.1667 63.5,52.8333 63.5,55.5C 65.8568,55.3367 68.1902,55.5034 70.5,56C 72.9926,62.6797 70.6593,65.1797 63.5,63.5C 63.5,66.1667 63.5,68.8333 63.5,71.5C 65.8568,71.3367 68.1902,71.5034 70.5,72C 72.9926,78.6797 70.6593,81.1797 63.5,79.5C 63.5,82.1667 63.5,84.8333 63.5,87.5C 65.8568,87.3367 68.1902,87.5034 70.5,88C 72.9926,94.6797 70.6593,97.1797 63.5,95.5C 63.5,98.1667 63.5,100.833 63.5,103.5C 65.8568,103.337 68.1902,103.503 70.5,104C 72.9926,110.68 70.6593,113.18 63.5,111.5C 63.5,114.167 63.5,116.833 63.5,119.5C 65.8568,119.337 68.1902,119.503 70.5,120C 72.9926,126.68 70.6593,129.18 63.5,127.5C 63.5,130.167 63.5,132.833 63.5,135.5C 65.8568,135.337 68.1902,135.503 70.5,136C 72.9926,142.68 70.6593,145.18 63.5,143.5C 63.5,146.167 63.5,148.833 63.5,151.5C 65.8568,151.337 68.1902,151.503 70.5,152C 72.9926,158.68 70.6593,161.18 63.5,159.5C 63.5,162.167 63.5,164.833 63.5,167.5C 65.8568,167.337 68.1902,167.503 70.5,168C 72.9926,174.68 70.6593,177.18 63.5,175.5C 63.5,178.167 63.5,180.833 63.5,183.5C 65.8568,183.337 68.1902,183.503 70.5,184C 72.9926,190.68 70.6593,193.18 63.5,191.5C 63.5,194.167 63.5,196.833 63.5,199.5C 65.8568,199.337 68.1902,199.503 70.5,200C 72.9926,206.68 70.6593,209.18 63.5,207.5C 63.5,210.167 63.5,212.833 63.5,215.5C 65.8568,215.337 68.1902,215.503 70.5,216C 72.9926,222.68 70.6593,225.18 63.5,223.5C 63.5,226.167 63.5,228.833 63.5,231.5C 65.8568,231.337 68.1902,231.503 70.5,232C 72.9926,238.68 70.6593,241.18 63.5,239.5C 63.5,242.167 63.5,244.833 63.5,247.5C 65.8568,247.337 68.1902,247.503 70.5,248C 72.9926,254.68 70.6593,257.18 63.5,255.5C 63.5,258.167 63.5,260.833 63.5,263.5C 65.8568,263.337 68.1902,263.503 70.5,264C 72.9926,270.68 70.6593,273.18 63.5,271.5C 63.5,274.167 63.5,276.833 63.5,279.5C 70.1071,277.749 72.6071,280.082 71,286.5C 66.2633,287.469 61.43,287.803 56.5,287.5C 56.5,191.833 56.5,96.1667 56.5,0.5 Z"/></g>
<g><path style="opacity:0.996" fill="#c1dff1" d="M 449.5,0.5 C 450.833,54.1625 451.5,108.163 451.5,162.5C 451.496,217.207 451.163,271.874 450.5,326.5C 449.501,218.001 449.167,109.335 449.5,0.5 Z"/></g>
<g><path style="opacity:1" fill="#fbfdfd" d="M 310.5,95.5 C 305.474,100.195 300.474,104.861 295.5,109.5C 290.114,114.556 284.781,119.556 279.5,124.5C 272.451,130.371 265.784,136.705 259.5,143.5C 254.61,147.637 249.943,151.97 245.5,156.5C 241.079,159.71 237.079,163.377 233.5,167.5C 231.5,168.833 229.833,170.5 228.5,172.5C 218.553,181.111 208.886,190.111 199.5,199.5C 196.308,202.527 192.975,205.361 189.5,208C 187.21,209.777 185.543,211.944 184.5,214.5C 182.006,221.439 183.673,227.272 189.5,232C 195.379,233.41 201.379,233.91 207.5,233.5C 219.275,235.576 231.275,236.909 243.5,237.5C 256.827,238.165 270.16,238.165 283.5,237.5C 287.5,237.5 291.5,237.5 295.5,237.5C 297.915,238.814 300.748,239.481 304,239.5C 317.154,240.317 330.321,240.65 343.5,240.5C 348.833,240.5 354.167,240.5 359.5,240.5C 364.067,242.285 369.067,243.118 374.5,243C 375.025,243.692 375.692,244.192 376.5,244.5C 377.736,243.754 379.07,243.421 380.5,243.5C 380.768,246.119 380.435,248.619 379.5,251C 320.822,251.818 262.155,251.651 203.5,250.5C 201.667,250.585 200.334,251.252 199.5,252.5C 196.833,252.5 194.167,252.5 191.5,252.5C 183.825,251.661 177.159,248.661 171.5,243.5C 169.413,239.656 167.08,235.989 164.5,232.5C 163.475,224.861 163.309,217.195 164,209.5C 165.592,205.979 167.425,202.646 169.5,199.5C 172.827,196.182 176.493,193.182 180.5,190.5C 182.274,191.881 183.774,191.548 185,189.5C 186.113,190.711 187.28,190.711 188.5,189.5C 189.271,187.138 190.105,184.804 191,182.5C 193.147,181.887 195.314,181.221 197.5,180.5C 198.711,179.28 198.711,178.113 197.5,177C 198.756,176.583 199.423,175.75 199.5,174.5C 199.414,173.504 199.748,172.671 200.5,172C 206.987,167.342 212.987,162.176 218.5,156.5C 221.786,154.549 224.786,152.215 227.5,149.5C 229.23,148.974 230.564,147.974 231.5,146.5C 245.881,134.443 260.214,122.443 274.5,110.5C 279.023,106.733 283.357,102.733 287.5,98.5C 295.487,92.1835 303.487,85.8502 311.5,79.5C 314.192,81.8623 316.859,84.1956 319.5,86.5C 316.812,89.8544 313.812,92.8544 310.5,95.5 Z"/></g>
<g><path style="opacity:1" fill="#bde1f5" d="M 319.5,111.5 C 316.833,111.5 314.167,111.5 311.5,111.5C 313.251,118.107 310.918,120.607 304.5,119C 303.663,117.989 303.33,116.822 303.5,115.5C 304.09,111.684 306.423,110.017 310.5,110.5C 311.74,107.519 311.073,104.852 308.5,102.5C 312.096,101.921 315.762,101.921 319.5,102.5C 319.5,105.5 319.5,108.5 319.5,111.5 Z"/></g>
<g><path style="opacity:1" fill="#c5e1ed" d="M 287.5,98.5 C 283.357,102.733 279.023,106.733 274.5,110.5C 275.442,107.58 276.776,104.914 278.5,102.5C 279.833,102.5 281.167,102.5 282.5,102.5C 282.384,99.0897 284.05,97.7564 287.5,98.5 Z"/></g>
<g><path style="opacity:1" fill="#b9e3f2" d="M 335.5,111.5 C 338.167,111.5 340.833,111.5 343.5,111.5C 343.5,114.167 343.5,116.833 343.5,119.5C 346.167,119.5 348.833,119.5 351.5,119.5C 351.5,122.167 351.5,124.833 351.5,127.5C 348.833,127.5 346.167,127.5 343.5,127.5C 343.5,130.167 343.5,132.833 343.5,135.5C 346.167,135.5 348.833,135.5 351.5,135.5C 351.5,138.167 351.5,140.833 351.5,143.5C 349.143,143.663 346.81,143.497 344.5,143C 343.833,140.667 343.167,138.333 342.5,136C 337.81,135.497 333.143,134.83 328.5,134C 333.898,134.921 336.231,132.754 335.5,127.5C 342.659,129.18 344.993,126.68 342.5,120C 340.19,119.503 337.857,119.337 335.5,119.5C 335.5,116.833 335.5,114.167 335.5,111.5 Z"/></g>
<g><path style="opacity:1" fill="#c9e2ee" d="M 295.5,109.5 C 294.615,112.061 293.282,114.394 291.5,116.5C 287.231,118.77 283.231,121.437 279.5,124.5C 284.781,119.556 290.114,114.556 295.5,109.5 Z"/></g>
<g><path style="opacity:1" fill="#bee1f3" d="M 310.5,95.5 C 310.719,96.675 310.386,97.675 309.5,98.5C 305.279,101.886 301.612,105.719 298.5,110C 299.936,112.182 301.603,114.016 303.5,115.5C 303.33,116.822 303.663,117.989 304.5,119C 310.918,120.607 313.251,118.107 311.5,111.5C 314.167,111.5 316.833,111.5 319.5,111.5C 317.393,112.468 315.059,112.802 312.5,112.5C 312.5,114.5 312.5,116.5 312.5,118.5C 316.371,118.185 320.038,118.518 323.5,119.5C 321.12,122.881 318.12,125.547 314.5,127.5C 313.5,127.5 312.5,127.5 311.5,127.5C 312.833,121.5 310.5,119.167 304.5,120.5C 304.212,123.866 304.046,127.2 304,130.5C 305.113,131.305 306.279,131.972 307.5,132.5C 306.738,134.262 305.404,135.262 303.5,135.5C 301.034,134.366 298.367,134.199 295.5,135C 295.043,135.414 294.709,135.914 294.5,136.5C 296.005,137.842 296.672,139.508 296.5,141.5C 292.094,145.246 287.427,148.58 282.5,151.5C 281.167,151.5 279.833,151.5 278.5,151.5C 277.577,147.151 278.91,143.817 282.5,141.5C 283.487,138.232 283.82,134.898 283.5,131.5C 284.833,131.5 286.167,131.5 287.5,131.5C 287.5,130.167 287.5,128.833 287.5,127.5C 288.833,127.5 290.167,127.5 291.5,127.5C 291.5,128.833 291.5,130.167 291.5,131.5C 292.833,131.5 294.167,131.5 295.5,131.5C 294.618,127.951 294.618,124.451 295.5,121C 295.605,118.127 294.272,116.627 291.5,116.5C 293.282,114.394 294.615,112.061 295.5,109.5C 300.474,104.861 305.474,100.195 310.5,95.5 Z"/></g>
<g><path style="opacity:1" fill="#bce3f0" d="M 314.5,127.5 C 312.469,129.522 310.135,131.189 307.5,132.5C 306.279,131.972 305.113,131.305 304,130.5C 304.046,127.2 304.212,123.866 304.5,120.5C 310.5,119.167 312.833,121.5 311.5,127.5C 312.5,127.5 313.5,127.5 314.5,127.5 Z"/></g>
<g><path style="opacity:1" fill="#cae3ed" d="M 155.5,131.5 C 162.655,130.345 169.988,130.178 177.5,131C 178.756,131.417 179.423,132.25 179.5,133.5C 176.873,132.908 174.206,132.575 171.5,132.5C 166.36,131.512 161.026,131.179 155.5,131.5 Z"/></g>
<g><path style="opacity:1" fill="#cae4ef" d="M 329.5,127.5 C 328.55,130.115 326.883,132.115 324.5,133.5C 323.311,134.429 321.978,134.762 320.5,134.5C 323.349,131.916 326.349,129.583 329.5,127.5 Z"/></g>
<g><path style="opacity:1" fill="#fcfdfd" d="M 171.5,132.5 C 174.206,132.575 176.873,132.908 179.5,133.5C 182.579,135.536 185.912,137.202 189.5,138.5C 190.795,139.488 192.128,140.488 193.5,141.5C 196.092,144.78 198.426,147.78 200.5,150.5C 200.137,151.183 199.804,151.85 199.5,152.5C 193.902,158.427 187.902,164.094 181.5,169.5C 172.822,176.181 164.822,183.515 157.5,191.5C 155.412,193.336 154.079,195.669 153.5,198.5C 152.026,199.436 151.026,200.77 150.5,202.5C 148.955,203.23 148.122,204.563 148,206.5C 147.333,216.5 147.333,226.5 148,236.5C 149.4,237.748 150.9,238.748 152.5,239.5C 152.833,239.5 153.167,239.5 153.5,239.5C 154.706,243.577 156.706,247.243 159.5,250.5C 159.5,250.833 159.5,251.167 159.5,251.5C 161.177,254.025 162.677,256.691 164,259.5C 164.414,259.043 164.914,258.709 165.5,258.5C 166.927,261.09 169.093,262.756 172,263.5C 172.671,262.748 173.504,262.414 174.5,262.5C 177.327,263.958 180.327,264.958 183.5,265.5C 184.334,266.748 185.667,267.415 187.5,267.5C 193.553,268.18 199.553,269.18 205.5,270.5C 212.839,269.277 220.172,269.277 227.5,270.5C 231.407,269.189 235.407,268.522 239.5,268.5C 266.163,269.055 292.83,269.389 319.5,269.5C 323.575,271.118 327.908,272.118 332.5,272.5C 337.388,274.708 342.054,277.374 346.5,280.5C 346.238,281.978 346.571,283.311 347.5,284.5C 353.911,288.248 358.577,293.581 361.5,300.5C 361.167,301.167 360.833,301.833 360.5,302.5C 361.614,303.776 362.614,303.776 363.5,302.5C 364.404,303.209 364.737,304.209 364.5,305.5C 364.261,309.842 363.927,314.176 363.5,318.5C 358.284,318.945 355.617,316.612 355.5,311.5C 353.865,308.854 352.198,306.187 350.5,303.5C 345.433,294.118 337.766,287.785 327.5,284.5C 322.213,283.658 316.88,283.324 311.5,283.5C 268.972,282.62 226.306,282.287 183.5,282.5C 174.549,281.613 166.549,278.613 159.5,273.5C 159.5,272.5 159.5,271.5 159.5,270.5C 156.613,268.712 153.613,266.878 150.5,265C 149.406,263.22 148.406,261.386 147.5,259.5C 146.264,258.754 144.93,258.421 143.5,258.5C 141.066,254.618 138.399,250.952 135.5,247.5C 134.536,242.294 133.203,237.294 131.5,232.5C 131.5,230.833 131.5,229.167 131.5,227.5C 131.209,221.077 131.542,214.744 132.5,208.5C 134.166,206.813 135.5,204.813 136.5,202.5C 135.956,199.618 136.789,196.951 139,194.5C 139.494,192.866 139.66,191.199 139.5,189.5C 139.975,187.216 140.975,185.216 142.5,183.5C 144.025,180.963 145.692,178.463 147.5,176C 145.982,174.649 144.649,173.149 143.5,171.5C 142.415,169.413 140.749,168.08 138.5,167.5C 137.5,166.833 136.5,166.167 135.5,165.5C 130.58,160.756 125.413,156.089 120,151.5C 119.517,150.552 119.351,149.552 119.5,148.5C 122.518,146.474 125.518,144.474 128.5,142.5C 130.54,143.519 132.54,143.519 134.5,142.5C 134.167,141.833 133.833,141.167 133.5,140.5C 135.162,139.673 136.495,138.507 137.5,137C 142.181,135.971 146.681,134.471 151,132.5C 152.18,133.684 153.68,134.351 155.5,134.5C 160.265,131.971 164.932,131.971 169.5,134.5C 170.713,134.253 171.38,133.586 171.5,132.5 Z"/></g>
<g><path style="opacity:1" fill="#bbe2f2" d="M 291.5,116.5 C 294.272,116.627 295.605,118.127 295.5,121C 294.618,124.451 294.618,127.951 295.5,131.5C 294.167,131.5 292.833,131.5 291.5,131.5C 291.5,130.167 291.5,128.833 291.5,127.5C 290.167,127.5 288.833,127.5 287.5,127.5C 287.5,128.833 287.5,130.167 287.5,131.5C 286.167,131.5 284.833,131.5 283.5,131.5C 283.82,134.898 283.487,138.232 282.5,141.5C 278.91,143.817 277.577,147.151 278.5,151.5C 279.833,151.5 281.167,151.5 282.5,151.5C 280.766,154.2 278.432,156.2 275.5,157.5C 274.548,156.548 273.548,155.548 272.5,154.5C 271.509,156.323 270.176,157.823 268.5,159C 265.447,159.179 262.447,159.679 259.5,160.5C 261.391,161.311 262.724,162.644 263.5,164.5C 260.818,166.677 257.985,168.677 255,170.5C 253.153,169.831 251.986,168.497 251.5,166.5C 252.391,165.41 253.391,165.41 254.5,166.5C 255.386,165.675 255.719,164.675 255.5,163.5C 254.167,163.5 252.833,163.5 251.5,163.5C 251.5,162.5 251.5,161.5 251.5,160.5C 248.122,161.109 246.122,159.776 245.5,156.5C 250.117,153.075 255.117,150.409 260.5,148.5C 261.043,145.962 262.043,143.628 263.5,141.5C 268.42,136.919 273.42,132.253 278.5,127.5C 279.386,126.675 279.719,125.675 279.5,124.5C 283.231,121.437 287.231,118.77 291.5,116.5 Z"/></g>
<g><path style="opacity:1" fill="#f4fdfd" d="M 155.5,131.5 C 161.026,131.179 166.36,131.512 171.5,132.5C 171.38,133.586 170.713,134.253 169.5,134.5C 164.932,131.971 160.265,131.971 155.5,134.5C 153.68,134.351 152.18,133.684 151,132.5C 146.681,134.471 142.181,135.971 137.5,137C 136.495,138.507 135.162,139.673 133.5,140.5C 133.833,141.167 134.167,141.833 134.5,142.5C 132.54,143.519 130.54,143.519 128.5,142.5C 130.913,140.113 133.58,137.946 136.5,136C 142.82,134.002 149.154,132.502 155.5,131.5 Z"/></g>
<g><path style="opacity:1" fill="#cce6ef" d="M 179.5,133.5 C 183.8,133.468 187.133,135.135 189.5,138.5C 185.912,137.202 182.579,135.536 179.5,133.5 Z"/></g>
<g><path style="opacity:1" fill="#c3e1ee" d="M 303.5,135.5 C 301.192,137.471 298.858,139.471 296.5,141.5C 296.672,139.508 296.005,137.842 294.5,136.5C 294.709,135.914 295.043,135.414 295.5,135C 298.367,134.199 301.034,134.366 303.5,135.5 Z"/></g>
<g><path style="opacity:1" fill="#c9e3ee" d="M 279.5,124.5 C 279.719,125.675 279.386,126.675 278.5,127.5C 273.42,132.253 268.42,136.919 263.5,141.5C 262.395,142.6 261.062,143.267 259.5,143.5C 265.784,136.705 272.451,130.371 279.5,124.5 Z"/></g>
<g><path style="opacity:1" fill="#c4e1eb" d="M 189.5,138.5 C 191.604,138.201 193.604,138.534 195.5,139.5C 196.526,141.831 197.86,143.831 199.5,145.5C 197.228,144.559 195.228,143.226 193.5,141.5C 192.128,140.488 190.795,139.488 189.5,138.5 Z"/></g>
<g><path style="opacity:1" fill="#c3e3eb" d="M 320.5,134.5 C 320.07,137.812 318.403,140.312 315.5,142C 315.833,142.333 316.167,142.667 316.5,143C 314.598,144.796 312.598,144.963 310.5,143.5C 313.792,140.51 317.126,137.51 320.5,134.5 Z"/></g>
<g><path style="opacity:1" fill="#c4def1" d="M 263.5,141.5 C 262.043,143.628 261.043,145.962 260.5,148.5C 255.117,150.409 250.117,153.075 245.5,156.5C 249.943,151.97 254.61,147.637 259.5,143.5C 261.062,143.267 262.395,142.6 263.5,141.5 Z"/></g>
<g><path style="opacity:1" fill="#c1e4eb" d="M 231.5,146.5 C 230.564,147.974 229.23,148.974 227.5,149.5C 227.082,148.778 226.416,148.278 225.5,148C 227.162,145.553 229.162,145.053 231.5,146.5 Z"/></g>
<g><path style="opacity:1" fill="#c2e2ee" d="M 309.5,144.5 C 309.833,149.833 310.167,155.167 310.5,160.5C 315.947,160.52 320.614,158.687 324.5,155C 326.134,154.506 327.801,154.34 329.5,154.5C 328.167,155.5 326.833,156.5 325.5,157.5C 318.122,160.527 310.789,163.527 303.5,166.5C 304.936,164.917 306.602,163.417 308.5,162C 307.011,159.287 307.344,156.787 309.5,154.5C 308.855,153.354 308.022,152.354 307,151.5C 304.853,152.113 302.686,152.779 300.5,153.5C 297.472,155.541 294.472,157.541 291.5,159.5C 296.91,153.753 302.91,148.753 309.5,144.5 Z"/></g>
<g><path style="opacity:1" fill="#b5e3ec" d="M 341.5,146.5 C 340.33,148.279 338.664,149.279 336.5,149.5C 335.566,148.432 335.232,147.099 335.5,145.5C 337.621,145.325 339.621,145.659 341.5,146.5 Z"/></g>
<g><path style="opacity:1" fill="#c2e1ed" d="M 343.5,159.5 C 344.306,158.272 345.306,157.272 346.5,156.5C 349.793,155.68 350.126,154.013 347.5,151.5C 347.778,149.654 347.111,148.32 345.5,147.5C 342.352,149.435 339.019,150.768 335.5,151.5C 335.833,150.833 336.167,150.167 336.5,149.5C 338.664,149.279 340.33,148.279 341.5,146.5C 343.258,146.123 344.925,145.456 346.5,144.5C 349.489,145.751 350.489,147.751 349.5,150.5C 350.325,151.386 351.325,151.719 352.5,151.5C 352.5,153.5 352.5,155.5 352.5,157.5C 349.574,158.461 346.574,159.127 343.5,159.5 Z"/></g>
<g><path style="opacity:1" fill="#effcfd" d="M 193.5,141.5 C 195.228,143.226 197.228,144.559 199.5,145.5C 199.5,146.167 199.833,146.5 200.5,146.5C 203.47,149.225 203.137,151.225 199.5,152.5C 199.804,151.85 200.137,151.183 200.5,150.5C 198.426,147.78 196.092,144.78 193.5,141.5 Z"/></g>
<g><path style="opacity:1" fill="#fcfbfd" d="M 347.5,151.5 C 350.126,154.013 349.793,155.68 346.5,156.5C 342.329,157.946 337.662,158.613 332.5,158.5C 333.038,154.482 335.205,153.149 339,154.5C 341.69,153.071 344.523,152.071 347.5,151.5 Z"/></g>
<g><path style="opacity:1" fill="#bce1f6" d="M 359.5,151.5 C 362.187,151.336 364.854,151.503 367.5,152C 369.822,158.68 367.488,161.347 360.5,160C 359.556,157.281 359.223,154.448 359.5,151.5 Z"/></g>
<g><path style="opacity:1" fill="#f2fbfd" d="M 347.5,151.5 C 344.523,152.071 341.69,153.071 339,154.5C 335.205,153.149 333.038,154.482 332.5,158.5C 337.662,158.613 342.329,157.946 346.5,156.5C 345.306,157.272 344.306,158.272 343.5,159.5C 341.62,159.229 340.287,159.896 339.5,161.5C 337.297,161.604 335.297,162.27 333.5,163.5C 333.577,162.25 334.244,161.417 335.5,161C 335.167,160.667 334.833,160.333 334.5,160C 331.279,159.722 328.279,158.889 325.5,157.5C 326.833,156.5 328.167,155.5 329.5,154.5C 332.089,154.539 334.089,153.539 335.5,151.5C 339.019,150.768 342.352,149.435 345.5,147.5C 347.111,148.32 347.778,149.654 347.5,151.5 Z"/></g>
<g><path style="opacity:1" fill="#c4e1ec" d="M 119.5,148.5 C 119.351,149.552 119.517,150.552 120,151.5C 125.413,156.089 130.58,160.756 135.5,165.5C 133.321,165.16 131.488,164.16 130,162.5C 129.667,162.833 129.333,163.167 129,163.5C 126.484,160.064 123.484,157.064 120,154.5C 118.458,152.435 118.291,150.435 119.5,148.5 Z"/></g>
<g><path style="opacity:1" fill="#bde1f0" d="M 200.5,146.5 C 201.833,146.5 203.167,146.5 204.5,146.5C 205.93,150.625 207.264,154.792 208.5,159C 211.855,158.504 215.188,157.67 218.5,156.5C 212.987,162.176 206.987,167.342 200.5,172C 199.748,172.671 199.414,173.504 199.5,174.5C 193.884,178.115 188.55,182.115 183.5,186.5C 185.043,184.072 186.043,181.406 186.5,178.5C 188.484,178.617 190.15,177.95 191.5,176.5C 185.148,173.768 182.482,175.768 183.5,182.5C 181.599,182.567 179.766,182.233 178,181.5C 176.908,182.296 175.741,182.963 174.5,183.5C 172.482,182.183 170.482,182.183 168.5,183.5C 171.31,180.066 174.643,177.066 178.5,174.5C 179.952,173.06 180.952,171.394 181.5,169.5C 187.902,164.094 193.902,158.427 199.5,152.5C 203.137,151.225 203.47,149.225 200.5,146.5 Z"/></g>
<g><path style="opacity:1" fill="#f9fcfd" d="M 329.5,127.5 C 326.349,129.583 323.349,131.916 320.5,134.5C 317.126,137.51 313.792,140.51 310.5,143.5C 309.833,143.5 309.5,143.833 309.5,144.5C 302.91,148.753 296.91,153.753 291.5,159.5C 289.596,159.738 288.262,160.738 287.5,162.5C 279.519,168.81 271.519,175.143 263.5,181.5C 264.412,179.405 265.579,177.405 267,175.5C 269.573,174.346 271.739,172.68 273.5,170.5C 271.821,169.218 269.987,168.218 268,167.5C 264.998,169.995 261.831,172.328 258.5,174.5C 257.583,173.873 256.583,173.539 255.5,173.5C 262.191,168.136 268.858,162.803 275.5,157.5C 278.432,156.2 280.766,154.2 282.5,151.5C 287.427,148.58 292.094,145.246 296.5,141.5C 298.858,139.471 301.192,137.471 303.5,135.5C 305.404,135.262 306.738,134.262 307.5,132.5C 310.135,131.189 312.469,129.522 314.5,127.5C 318.12,125.547 321.12,122.881 323.5,119.5C 324.738,118.588 326.072,118.421 327.5,119C 328.304,120.771 329.471,122.271 331,123.5C 331.3,125.066 330.8,126.399 329.5,127.5 Z"/></g>
<g><path style="opacity:1" fill="#f9fcfc" d="M 325.5,157.5 C 328.279,158.889 331.279,159.722 334.5,160C 334.833,160.333 335.167,160.667 335.5,161C 334.244,161.417 333.577,162.25 333.5,163.5C 331.566,164.11 329.899,165.11 328.5,166.5C 328.167,166.5 327.833,166.5 327.5,166.5C 321.246,169.131 315.246,172.131 309.5,175.5C 307.216,175.975 305.216,176.975 303.5,178.5C 297.246,181.131 291.246,184.131 285.5,187.5C 284.833,187.5 284.167,187.5 283.5,187.5C 283.659,185.087 283.659,182.587 283.5,180C 281.5,179.333 279.5,179.333 277.5,180C 275.347,182.165 272.681,182.998 269.5,182.5C 277.663,177.61 286.329,173.61 295.5,170.5C 297.99,168.644 300.656,167.31 303.5,166.5C 310.789,163.527 318.122,160.527 325.5,157.5 Z"/></g>
<g><path style="opacity:1" fill="#bce0f1" d="M 303.5,166.5 C 300.656,167.31 297.99,168.644 295.5,170.5C 292.355,170.792 289.021,170.792 285.5,170.5C 284.369,168.926 284.202,167.259 285,165.5C 286.045,164.627 286.878,163.627 287.5,162.5C 288.262,160.738 289.596,159.738 291.5,159.5C 294.472,157.541 297.472,155.541 300.5,153.5C 302.686,152.779 304.853,152.113 307,151.5C 308.022,152.354 308.855,153.354 309.5,154.5C 307.344,156.787 307.011,159.287 308.5,162C 306.602,163.417 304.936,164.917 303.5,166.5 Z"/></g>
<g><path style="opacity:1" fill="#c8e2e8" d="M 339.5,161.5 C 337.415,163.884 334.748,165.551 331.5,166.5C 330.5,166.5 329.5,166.5 328.5,166.5C 329.899,165.11 331.566,164.11 333.5,163.5C 335.297,162.27 337.297,161.604 339.5,161.5 Z"/></g>
<g><path style="opacity:1" fill="#fcfcf7" d="M 310.5,166.5 C 312.263,165.666 313.93,166.166 315.5,168C 313.68,168.979 312.513,170.479 312,172.5C 310.938,171.903 309.772,171.57 308.5,171.5C 305.725,172.923 302.725,173.589 299.5,173.5C 299.561,171.408 300.561,169.908 302.5,169C 305.716,166.942 308.383,166.109 310.5,166.5 Z"/></g>
<g><path style="opacity:1" fill="#e7f8fa" d="M 138.5,167.5 C 140.749,168.08 142.415,169.413 143.5,171.5C 141.251,170.92 139.585,169.587 138.5,167.5 Z"/></g>
<g><path style="opacity:1" fill="#bde1f4" d="M 233.5,167.5 C 236.833,167.5 240.167,167.5 243.5,167.5C 243.5,170.167 243.5,172.833 243.5,175.5C 240.603,175.125 237.937,175.625 235.5,177C 238.212,177.639 240.212,179.139 241.5,181.5C 240.003,182.306 238.336,182.972 236.5,183.5C 235.614,184.325 235.281,185.325 235.5,186.5C 234.167,186.5 232.833,186.5 231.5,186.5C 231.5,188.167 231.5,189.833 231.5,191.5C 230.167,191.5 228.833,191.5 227.5,191.5C 227.5,188.833 227.5,186.167 227.5,183.5C 226.127,183.657 224.793,183.49 223.5,183C 224.264,180.931 224.764,178.764 225,176.5C 226.376,175.295 227.542,173.962 228.5,172.5C 229.833,170.5 231.5,168.833 233.5,167.5 Z"/></g>
<g><path style="opacity:1" fill="#bee0f1" d="M 275.5,157.5 C 268.858,162.803 262.191,168.136 255.5,173.5C 252.816,175.193 250.149,176.86 247.5,178.5C 245.801,178.34 244.134,178.506 242.5,179C 244.857,180.22 244.524,181.053 241.5,181.5C 240.212,179.139 238.212,177.639 235.5,177C 237.937,175.625 240.603,175.125 243.5,175.5C 243.5,172.833 243.5,170.167 243.5,167.5C 240.167,167.5 236.833,167.5 233.5,167.5C 237.079,163.377 241.079,159.71 245.5,156.5C 246.122,159.776 248.122,161.109 251.5,160.5C 251.5,161.5 251.5,162.5 251.5,163.5C 252.833,163.5 254.167,163.5 255.5,163.5C 255.719,164.675 255.386,165.675 254.5,166.5C 253.391,165.41 252.391,165.41 251.5,166.5C 251.986,168.497 253.153,169.831 255,170.5C 257.985,168.677 260.818,166.677 263.5,164.5C 262.724,162.644 261.391,161.311 259.5,160.5C 262.447,159.679 265.447,159.179 268.5,159C 270.176,157.823 271.509,156.323 272.5,154.5C 273.548,155.548 274.548,156.548 275.5,157.5 Z"/></g>
<g><path style="opacity:1" fill="#fcfdfd" d="M 263.5,181.5 C 263.167,182.167 262.833,182.833 262.5,183.5C 260.804,183.685 259.471,184.519 258.5,186C 260.282,186.122 261.948,185.622 263.5,184.5C 265.297,183.27 267.297,182.604 269.5,182.5C 272.681,182.998 275.347,182.165 277.5,180C 279.5,179.333 281.5,179.333 283.5,180C 283.659,182.587 283.659,185.087 283.5,187.5C 282.41,188.857 281.076,189.857 279.5,190.5C 275.751,191.872 272.085,193.539 268.5,195.5C 267.527,195.987 266.527,196.487 265.5,197C 269.752,198.774 273.752,198.274 277.5,195.5C 279.435,194.85 281.435,194.517 283.5,194.5C 286.119,194.232 288.619,194.565 291,195.5C 293.072,193.95 295.239,192.617 297.5,191.5C 300.397,191.681 303.23,191.348 306,190.5C 309.447,191.358 312.78,192.358 316,193.5C 317.167,193.167 318.333,192.833 319.5,192.5C 318.167,191.5 318.167,190.5 319.5,189.5C 321.396,188.534 323.396,188.201 325.5,188.5C 324.282,189.161 322.949,189.828 321.5,190.5C 322.651,191.731 323.817,191.731 325,190.5C 325.925,191.047 326.758,191.713 327.5,192.5C 322.732,193.472 318.065,194.639 313.5,196C 312.244,196.417 311.577,197.25 311.5,198.5C 311.5,198.833 311.5,199.167 311.5,199.5C 305.875,200.205 300.542,201.538 295.5,203.5C 287.443,205.01 279.443,206.844 271.5,209C 274.482,209.498 277.482,209.665 280.5,209.5C 308.141,211.082 335.808,212.082 363.5,212.5C 363.833,212.5 364.167,212.5 364.5,212.5C 364.5,215.5 364.5,218.5 364.5,221.5C 349.324,221.171 334.324,221.504 319.5,222.5C 281.094,222.827 242.761,222.494 204.5,221.5C 203.833,220.833 203.167,220.167 202.5,219.5C 203.622,216.51 205.456,213.843 208,211.5C 209.141,214.472 211.308,216.139 214.5,216.5C 216.052,213.433 215.385,210.933 212.5,209C 214.141,207.871 215.141,206.371 215.5,204.5C 220.833,200.167 226.167,195.833 231.5,191.5C 232.167,191.167 232.833,190.833 233.5,190.5C 236.606,189.293 239.606,187.793 242.5,186C 245.623,185.794 248.623,185.127 251.5,184C 249.744,183.798 248.078,183.298 246.5,182.5C 249.93,179.737 252.93,176.737 255.5,173.5C 256.583,173.539 257.583,173.873 258.5,174.5C 261.831,172.328 264.998,169.995 268,167.5C 269.987,168.218 271.821,169.218 273.5,170.5C 271.739,172.68 269.573,174.346 267,175.5C 265.579,177.405 264.412,179.405 263.5,181.5 Z"/></g>
<g><path style="opacity:1" fill="#c4e1ec" d="M 287.5,162.5 C 286.878,163.627 286.045,164.627 285,165.5C 284.202,167.259 284.369,168.926 285.5,170.5C 289.021,170.792 292.355,170.792 295.5,170.5C 286.329,173.61 277.663,177.61 269.5,182.5C 267.297,182.604 265.297,183.27 263.5,184.5C 263.5,183.833 263.167,183.5 262.5,183.5C 262.833,182.833 263.167,182.167 263.5,181.5C 271.519,175.143 279.519,168.81 287.5,162.5 Z"/></g>
<g><path style="opacity:1" fill="#bde3f0" d="M 327.5,166.5 C 327.833,166.5 328.167,166.5 328.5,166.5C 329.5,166.5 330.5,166.5 331.5,166.5C 331.306,168.912 329.973,169.912 327.5,169.5C 327.372,173.881 327.705,178.215 328.5,182.5C 323.916,183.277 319.25,183.777 314.5,184C 315.308,184.308 315.975,184.808 316.5,185.5C 314.955,186.452 313.288,186.785 311.5,186.5C 310.198,184.31 308.531,182.31 306.5,180.5C 305.675,179.614 304.675,179.281 303.5,179.5C 303.5,179.167 303.5,178.833 303.5,178.5C 305.216,176.975 307.216,175.975 309.5,175.5C 311.857,175.663 314.19,175.497 316.5,175C 315.167,174.333 315.167,173.667 316.5,173C 321.027,172.02 324.694,169.853 327.5,166.5 Z"/></g>
<g><path style="opacity:1" fill="#cde5eb" d="M 327.5,166.5 C 324.694,169.853 321.027,172.02 316.5,173C 315.167,173.667 315.167,174.333 316.5,175C 314.19,175.497 311.857,175.663 309.5,175.5C 315.246,172.131 321.246,169.131 327.5,166.5 Z"/></g>
<g><path style="opacity:1" fill="#c8e3ec" d="M 181.5,169.5 C 180.952,171.394 179.952,173.06 178.5,174.5C 174.643,177.066 171.31,180.066 168.5,183.5C 166.137,185.857 163.47,187.857 160.5,189.5C 159.778,190.551 158.778,191.218 157.5,191.5C 164.822,183.515 172.822,176.181 181.5,169.5 Z"/></g>
<g><path style="opacity:1" fill="#c8e3ed" d="M 359.5,179.5 C 355.915,179.152 352.582,179.819 349.5,181.5C 347.5,181.5 345.5,181.5 343.5,181.5C 347.007,179.532 351.007,178.532 355.5,178.5C 357.045,178.511 358.378,178.844 359.5,179.5 Z"/></g>
<g><path style="opacity:1" fill="#bde3f0" d="M 303.5,180.5 C 303.5,181.833 303.5,183.167 303.5,184.5C 305.933,184.273 307.599,185.273 308.5,187.5C 305.653,187.782 302.987,187.782 300.5,187.5C 298.083,187.994 296.416,189.328 295.5,191.5C 294.5,191.5 293.5,191.5 292.5,191.5C 290.621,191.607 290.288,191.107 291.5,190C 290.619,189.292 289.953,188.458 289.5,187.5C 294.429,185.582 299.095,183.249 303.5,180.5 Z"/></g>
<g><path style="opacity:1" fill="#bde2f5" d="M 303.5,179.5 C 304.675,179.281 305.675,179.614 306.5,180.5C 308.531,182.31 310.198,184.31 311.5,186.5C 311.5,186.833 311.5,187.167 311.5,187.5C 310.5,187.5 309.5,187.5 308.5,187.5C 307.599,185.273 305.933,184.273 303.5,184.5C 303.5,183.167 303.5,181.833 303.5,180.5C 303.5,180.167 303.5,179.833 303.5,179.5 Z"/></g>
<g><path style="opacity:1" fill="#f2fbfd" d="M 255.5,173.5 C 252.93,176.737 249.93,179.737 246.5,182.5C 248.078,183.298 249.744,183.798 251.5,184C 248.623,185.127 245.623,185.794 242.5,186C 239.606,187.793 236.606,189.293 233.5,190.5C 238.539,186.974 243.206,182.974 247.5,178.5C 250.149,176.86 252.816,175.193 255.5,173.5 Z"/></g>
<g><path style="opacity:1" fill="#f9fcfd" d="M 359.5,179.5 C 359.232,181.099 359.566,182.432 360.5,183.5C 360.714,185.144 360.38,186.644 359.5,188C 343.532,191.826 327.532,195.326 311.5,198.5C 311.577,197.25 312.244,196.417 313.5,196C 318.065,194.639 322.732,193.472 327.5,192.5C 326.758,191.713 325.925,191.047 325,190.5C 323.817,191.731 322.651,191.731 321.5,190.5C 322.949,189.828 324.282,189.161 325.5,188.5C 328.314,186.177 331.481,185.51 335,186.5C 336.667,185.833 338.333,185.167 340,184.5C 343.785,185.943 347.285,185.443 350.5,183C 349.944,182.617 349.611,182.117 349.5,181.5C 352.582,179.819 355.915,179.152 359.5,179.5 Z"/></g>
<g><path style="opacity:1" fill="#c0e2f0" d="M 228.5,172.5 C 227.542,173.962 226.376,175.295 225,176.5C 224.764,178.764 224.264,180.931 223.5,183C 224.793,183.49 226.127,183.657 227.5,183.5C 227.5,186.167 227.5,188.833 227.5,191.5C 228.833,191.5 230.167,191.5 231.5,191.5C 226.167,195.833 220.833,200.167 215.5,204.5C 210.211,207.465 205.544,211.132 201.5,215.5C 201.681,212.805 202.681,210.472 204.5,208.5C 207.94,208.109 210.273,206.276 211.5,203C 214.901,203.266 216.567,201.766 216.5,198.5C 210.855,199.134 205.189,199.468 199.5,199.5C 208.886,190.111 218.553,181.111 228.5,172.5 Z"/></g>
<g><path style="opacity:1" fill="#c4e0ef" d="M 343.5,181.5 C 333.148,184.561 322.481,186.561 311.5,187.5C 311.5,187.167 311.5,186.833 311.5,186.5C 313.288,186.785 314.955,186.452 316.5,185.5C 315.975,184.808 315.308,184.308 314.5,184C 319.25,183.777 323.916,183.277 328.5,182.5C 331.948,182.892 335.114,182.225 338,180.5C 339.766,181.233 341.599,181.567 343.5,181.5 Z"/></g>
<g><path style="opacity:1" fill="#f3fdfe" d="M 199.5,174.5 C 199.423,175.75 198.756,176.583 197.5,177C 198.711,178.113 198.711,179.28 197.5,180.5C 195.314,181.221 193.147,181.887 191,182.5C 190.105,184.804 189.271,187.138 188.5,189.5C 187.28,190.711 186.113,190.711 185,189.5C 183.774,191.548 182.274,191.881 180.5,190.5C 181.5,189.167 182.5,187.833 183.5,186.5C 188.55,182.115 193.884,178.115 199.5,174.5 Z"/></g>
<g><path style="opacity:1" fill="#cfe5de" d="M 262.5,183.5 C 263.167,183.5 263.5,183.833 263.5,184.5C 261.948,185.622 260.282,186.122 258.5,186C 259.471,184.519 260.804,183.685 262.5,183.5 Z"/></g>
<g><path style="opacity:1" fill="#c9e4ed" d="M 303.5,178.5 C 303.5,178.833 303.5,179.167 303.5,179.5C 303.5,179.833 303.5,180.167 303.5,180.5C 299.095,183.249 294.429,185.582 289.5,187.5C 288.167,187.5 286.833,187.5 285.5,187.5C 291.246,184.131 297.246,181.131 303.5,178.5 Z"/></g>
<g><path style="opacity:1" fill="#f4fcfd" d="M 343.5,181.5 C 345.5,181.5 347.5,181.5 349.5,181.5C 349.611,182.117 349.944,182.617 350.5,183C 347.285,185.443 343.785,185.943 340,184.5C 338.333,185.167 336.667,185.833 335,186.5C 331.481,185.51 328.314,186.177 325.5,188.5C 323.396,188.201 321.396,188.534 319.5,189.5C 318.167,190.5 318.167,191.5 319.5,192.5C 318.333,192.833 317.167,193.167 316,193.5C 312.78,192.358 309.447,191.358 306,190.5C 303.23,191.348 300.397,191.681 297.5,191.5C 302.296,190.59 306.963,189.257 311.5,187.5C 322.481,186.561 333.148,184.561 343.5,181.5 Z"/></g>
<g><path style="opacity:1" fill="#c6e0ea" d="M 142.5,183.5 C 140.975,185.216 139.975,187.216 139.5,189.5C 138.167,191.5 136.833,193.5 135.5,195.5C 134.963,189.659 137.297,185.659 142.5,183.5 Z"/></g>
<g><path style="opacity:1" fill="#c2e2ee" d="M 247.5,178.5 C 243.206,182.974 238.539,186.974 233.5,190.5C 232.833,190.833 232.167,191.167 231.5,191.5C 231.5,189.833 231.5,188.167 231.5,186.5C 232.833,186.5 234.167,186.5 235.5,186.5C 235.281,185.325 235.614,184.325 236.5,183.5C 238.336,182.972 240.003,182.306 241.5,181.5C 244.524,181.053 244.857,180.22 242.5,179C 244.134,178.506 245.801,178.34 247.5,178.5 Z"/></g>
<g><path style="opacity:1" fill="#c5e1ed" d="M 308.5,187.5 C 309.5,187.5 310.5,187.5 311.5,187.5C 306.963,189.257 302.296,190.59 297.5,191.5C 296.833,191.5 296.167,191.5 295.5,191.5C 296.416,189.328 298.083,187.994 300.5,187.5C 302.987,187.782 305.653,187.782 308.5,187.5 Z"/></g>
<g><path style="opacity:1" fill="#bbe3f0" d="M 160.5,189.5 C 160.911,191.772 162.078,192.105 164,190.5C 167.583,191.058 171.083,191.891 174.5,193C 168.987,194.725 163.32,195.725 157.5,196C 156.299,196.903 155.465,198.069 155,199.5C 154.617,198.944 154.117,198.611 153.5,198.5C 154.079,195.669 155.412,193.336 157.5,191.5C 158.778,191.218 159.778,190.551 160.5,189.5 Z"/></g>
<g><path style="opacity:1" fill="#c3e0f1" d="M 283.5,187.5 C 284.167,187.5 284.833,187.5 285.5,187.5C 286.833,187.5 288.167,187.5 289.5,187.5C 289.953,188.458 290.619,189.292 291.5,190C 290.288,191.107 290.621,191.607 292.5,191.5C 289.727,192.657 286.727,193.324 283.5,193.5C 281.801,193.66 280.134,193.494 278.5,193C 279.252,192.329 279.586,191.496 279.5,190.5C 281.076,189.857 282.41,188.857 283.5,187.5 Z"/></g>
<g><path style="opacity:1" fill="#c2e0ef" d="M 360.5,183.5 C 363.936,185.527 364.936,188.361 363.5,192C 359.937,191.303 356.27,190.803 352.5,190.5C 353.647,197.367 351.314,199.033 345.5,195.5C 340.843,195.974 336.343,196.974 332,198.5C 330.853,197.542 329.853,197.875 329,199.5C 323.241,198.706 317.407,198.706 311.5,199.5C 311.5,199.167 311.5,198.833 311.5,198.5C 327.532,195.326 343.532,191.826 359.5,188C 360.38,186.644 360.714,185.144 360.5,183.5 Z"/></g>
<g><path style="opacity:1" fill="#effcfe" d="M 292.5,191.5 C 293.5,191.5 294.5,191.5 295.5,191.5C 296.167,191.5 296.833,191.5 297.5,191.5C 295.239,192.617 293.072,193.95 291,195.5C 288.619,194.565 286.119,194.232 283.5,194.5C 283.5,194.167 283.5,193.833 283.5,193.5C 286.727,193.324 289.727,192.657 292.5,191.5 Z"/></g>
<g><path style="opacity:1" fill="#cbdfea" d="M 279.5,190.5 C 279.586,191.496 279.252,192.329 278.5,193C 280.134,193.494 281.801,193.66 283.5,193.5C 283.5,193.833 283.5,194.167 283.5,194.5C 281.435,194.517 279.435,194.85 277.5,195.5C 274.327,196.368 271.327,196.368 268.5,195.5C 272.085,193.539 275.751,191.872 279.5,190.5 Z"/></g>
<g><path style="opacity:1" fill="#ebf8fa" d="M 268.5,195.5 C 271.327,196.368 274.327,196.368 277.5,195.5C 273.752,198.274 269.752,198.774 265.5,197C 266.527,196.487 267.527,195.987 268.5,195.5 Z"/></g>
<g><path style="opacity:1" fill="#bde2f6" d="M 204.5,208.5 C 202.183,207.058 200.016,207.392 198,209.5C 197.607,207.284 198.107,205.284 199.5,203.5C 199.5,202.167 199.5,200.833 199.5,199.5C 205.189,199.468 210.855,199.134 216.5,198.5C 216.567,201.766 214.901,203.266 211.5,203C 210.273,206.276 207.94,208.109 204.5,208.5 Z"/></g>
<g><path style="opacity:1" fill="#bee1f3" d="M 183.5,186.5 C 182.5,187.833 181.5,189.167 180.5,190.5C 176.493,193.182 172.827,196.182 169.5,199.5C 168.5,199.5 167.5,199.5 166.5,199.5C 166.5,200.5 166.5,201.5 166.5,202.5C 165.5,202.5 164.5,202.5 163.5,202.5C 163.277,207.131 162.11,211.464 160,215.5C 159.501,220.823 159.334,226.156 159.5,231.5C 160.5,231.5 161.5,231.5 162.5,231.5C 162.347,234.801 161.347,237.801 159.5,240.5C 160.156,242.453 160.489,244.453 160.5,246.5C 159.5,246.5 158.5,246.5 157.5,246.5C 157.002,243.674 155.669,241.34 153.5,239.5C 153.167,239.5 152.833,239.5 152.5,239.5C 152.5,238.833 152.5,238.167 152.5,237.5C 150.192,228.335 149.192,219.002 149.5,209.5C 149.448,207.097 149.781,204.764 150.5,202.5C 151.026,200.77 152.026,199.436 153.5,198.5C 154.117,198.611 154.617,198.944 155,199.5C 155.465,198.069 156.299,196.903 157.5,196C 163.32,195.725 168.987,194.725 174.5,193C 171.083,191.891 167.583,191.058 164,190.5C 162.078,192.105 160.911,191.772 160.5,189.5C 163.47,187.857 166.137,185.857 168.5,183.5C 170.482,182.183 172.482,182.183 174.5,183.5C 175.741,182.963 176.908,182.296 178,181.5C 179.766,182.233 181.599,182.567 183.5,182.5C 182.482,175.768 185.148,173.768 191.5,176.5C 190.15,177.95 188.484,178.617 186.5,178.5C 186.043,181.406 185.043,184.072 183.5,186.5 Z"/></g>
<g><path style="opacity:1" fill="#f3fdfe" d="M 139.5,189.5 C 139.66,191.199 139.494,192.866 139,194.5C 136.789,196.951 135.956,199.618 136.5,202.5C 135.5,204.813 134.166,206.813 132.5,208.5C 132.916,205.417 133.583,202.417 134.5,199.5C 134.833,198.167 135.167,196.833 135.5,195.5C 136.833,193.5 138.167,191.5 139.5,189.5 Z"/></g>
<g><path style="opacity:1" fill="#c5e1ed" d="M 311.5,199.5 C 311.67,200.822 311.337,201.989 310.5,203C 305.511,203.499 300.511,203.666 295.5,203.5C 300.542,201.538 305.875,200.205 311.5,199.5 Z"/></g>
<g><path style="opacity:1" fill="#c3e2ec" d="M 295.5,203.5 C 295.5,204.833 295.5,206.167 295.5,207.5C 294.209,207.263 293.209,207.596 292.5,208.5C 289.65,208.364 286.817,208.031 284,207.5C 282.319,207.608 281.152,208.275 280.5,209.5C 277.482,209.665 274.482,209.498 271.5,209C 279.443,206.844 287.443,205.01 295.5,203.5 Z"/></g>
<g><path style="opacity:1" fill="#bae2f1" d="M 150.5,206.5 C 153.054,207.388 155.721,207.721 158.5,207.5C 158.5,210.167 158.5,212.833 158.5,215.5C 155.833,215.5 153.167,215.5 150.5,215.5C 150.5,212.5 150.5,209.5 150.5,206.5 Z"/></g>
<g><path style="opacity:1" fill="#bee1e9" d="M 199.5,199.5 C 199.5,200.833 199.5,202.167 199.5,203.5C 198.325,203.281 197.325,203.614 196.5,204.5C 193.723,207.872 191.057,211.372 188.5,215C 187.207,215.49 185.873,215.657 184.5,215.5C 184.5,215.167 184.5,214.833 184.5,214.5C 185.543,211.944 187.21,209.777 189.5,208C 192.975,205.361 196.308,202.527 199.5,199.5 Z"/></g>
<g><path style="opacity:1" fill="#f4fdfe" d="M 215.5,204.5 C 215.141,206.371 214.141,207.871 212.5,209C 215.385,210.933 216.052,213.433 214.5,216.5C 211.308,216.139 209.141,214.472 208,211.5C 205.456,213.843 203.622,216.51 202.5,219.5C 201.662,219.158 201.328,218.492 201.5,217.5C 201.5,216.833 201.5,216.167 201.5,215.5C 205.544,211.132 210.211,207.465 215.5,204.5 Z"/></g>
<g><path style="opacity:1" fill="#cae3f1" d="M 134.5,199.5 C 133.583,202.417 132.916,205.417 132.5,208.5C 131.542,214.744 131.209,221.077 131.5,227.5C 130.417,218.327 130.417,208.993 131.5,199.5C 132.5,199.5 133.5,199.5 134.5,199.5 Z"/></g>
<g><path style="opacity:1" fill="#c6e3f0" d="M 292.5,208.5 C 306.837,208.333 321.171,208.5 335.5,209C 345.055,209.671 354.388,210.837 363.5,212.5C 335.808,212.082 308.141,211.082 280.5,209.5C 281.152,208.275 282.319,207.608 284,207.5C 286.817,208.031 289.65,208.364 292.5,208.5 Z"/></g>
<g><path style="opacity:1" fill="#c5e1ed" d="M 169.5,199.5 C 167.425,202.646 165.592,205.979 164,209.5C 163.309,217.195 163.475,224.861 164.5,232.5C 163.833,232.167 163.167,231.833 162.5,231.5C 161.5,231.5 160.5,231.5 159.5,231.5C 159.334,226.156 159.501,220.823 160,215.5C 162.11,211.464 163.277,207.131 163.5,202.5C 164.5,202.5 165.5,202.5 166.5,202.5C 166.5,201.5 166.5,200.5 166.5,199.5C 167.5,199.5 168.5,199.5 169.5,199.5 Z"/></g>
<g><path style="opacity:1" fill="#c3ddf4" d="M 201.5,217.5 C 201.328,218.492 201.662,219.158 202.5,219.5C 203.167,220.167 203.833,220.833 204.5,221.5C 204.5,222.167 204.5,222.833 204.5,223.5C 199.544,222.863 198.544,220.863 201.5,217.5 Z"/></g>
<g><path style="opacity:1" fill="#e1f6fc" d="M 364.5,212.5 C 365.16,213.964 365.493,215.631 365.5,217.5C 365.444,219.64 364.777,221.306 363.5,222.5C 350.167,222.5 336.833,222.5 323.5,222.5C 322.167,222.5 320.833,222.5 319.5,222.5C 334.324,221.504 349.324,221.171 364.5,221.5C 364.5,218.5 364.5,215.5 364.5,212.5 Z"/></g>
<g><path style="opacity:1" fill="#c6dce6" d="M 204.5,221.5 C 242.761,222.494 281.094,222.827 319.5,222.5C 320.833,222.5 322.167,222.5 323.5,222.5C 284.337,223.499 245.004,223.832 205.5,223.5C 205.167,223.5 204.833,223.5 204.5,223.5C 204.5,222.833 204.5,222.167 204.5,221.5 Z"/></g>
<g><path style="opacity:1" fill="#c1e0ee" d="M 323.5,222.5 C 336.833,222.5 350.167,222.5 363.5,222.5C 363.5,222.833 363.5,223.167 363.5,223.5C 347.441,223.033 331.441,223.7 315.5,225.5C 292.479,224.665 269.479,224.331 246.5,224.5C 246.5,225.5 246.5,226.5 246.5,227.5C 244.5,227.5 242.5,227.5 240.5,227.5C 240.5,226.5 240.5,225.5 240.5,224.5C 237.167,224.5 233.833,224.5 230.5,224.5C 230.5,225.5 230.5,226.5 230.5,227.5C 228.5,227.5 226.5,227.5 224.5,227.5C 224.5,226.5 224.5,225.5 224.5,224.5C 221.167,224.5 217.833,224.5 214.5,224.5C 214.5,225.5 214.5,226.5 214.5,227.5C 212.5,227.5 210.5,227.5 208.5,227.5C 208.5,226.5 208.5,225.5 208.5,224.5C 207.209,224.737 206.209,224.404 205.5,223.5C 245.004,223.832 284.337,223.499 323.5,222.5 Z"/></g>
<g><path style="opacity:1" fill="#f2fdfe" d="M 150.5,202.5 C 149.781,204.764 149.448,207.097 149.5,209.5C 148.347,215.319 148.181,221.319 149,227.5C 149.572,231.163 150.738,234.497 152.5,237.5C 152.5,238.167 152.5,238.833 152.5,239.5C 150.9,238.748 149.4,237.748 148,236.5C 147.333,226.5 147.333,216.5 148,206.5C 148.122,204.563 148.955,203.23 150.5,202.5 Z"/></g>
<g><path style="opacity:1" fill="#bbe1f1" d="M 199.5,203.5 C 198.107,205.284 197.607,207.284 198,209.5C 200.016,207.392 202.183,207.058 204.5,208.5C 202.681,210.472 201.681,212.805 201.5,215.5C 201.5,216.167 201.5,216.833 201.5,217.5C 198.544,220.863 199.544,222.863 204.5,223.5C 204.833,223.5 205.167,223.5 205.5,223.5C 206.209,224.404 207.209,224.737 208.5,224.5C 208.5,225.5 208.5,226.5 208.5,227.5C 210.5,227.5 212.5,227.5 214.5,227.5C 214.5,226.5 214.5,225.5 214.5,224.5C 217.833,224.5 221.167,224.5 224.5,224.5C 224.5,225.5 224.5,226.5 224.5,227.5C 226.5,227.5 228.5,227.5 230.5,227.5C 230.5,226.5 230.5,225.5 230.5,224.5C 233.833,224.5 237.167,224.5 240.5,224.5C 240.5,225.5 240.5,226.5 240.5,227.5C 242.5,227.5 244.5,227.5 246.5,227.5C 246.5,226.5 246.5,225.5 246.5,224.5C 269.479,224.331 292.479,224.665 315.5,225.5C 331.441,223.7 347.441,223.033 363.5,223.5C 362.432,224.434 361.099,224.768 359.5,224.5C 358.406,230.905 361.073,233.238 367.5,231.5C 367.5,233.833 367.5,236.167 367.5,238.5C 364.833,238.5 362.167,238.5 359.5,238.5C 360.594,232.095 357.927,229.762 351.5,231.5C 351.67,230.178 351.337,229.011 350.5,228C 348.5,227.333 346.5,227.333 344.5,228C 343.167,229.333 343.167,230.667 344.5,232C 346.81,232.497 349.143,232.663 351.5,232.5C 351.357,234.262 351.691,235.929 352.5,237.5C 354.631,238.169 356.631,238.835 358.5,239.5C 345.395,239.136 332.395,238.136 319.5,236.5C 319.389,235.883 319.056,235.383 318.5,235C 323.888,234.284 329.222,233.284 334.5,232C 336.166,228.869 335.166,227.369 331.5,227.5C 328.995,228.746 326.328,229.746 323.5,230.5C 321.381,230.402 319.714,229.569 318.5,228C 316.5,227.333 314.5,227.333 312.5,228C 311.826,229.751 311.493,231.417 311.5,233C 302.31,233.529 302.31,234.362 311.5,235.5C 305.24,236.42 298.574,236.087 291.5,234.5C 290.106,234.621 288.772,234.954 287.5,235.5C 256.21,234.059 224.877,232.892 193.5,232C 192.234,231.691 191.067,231.191 190,230.5C 189.869,227.629 188.703,225.295 186.5,223.5C 185.914,223.709 185.414,224.043 185,224.5C 184.502,221.518 184.335,218.518 184.5,215.5C 185.873,215.657 187.207,215.49 188.5,215C 191.057,211.372 193.723,207.872 196.5,204.5C 197.325,203.614 198.325,203.281 199.5,203.5 Z"/></g>
<g><path style="opacity:1" fill="#bbe1f5" d="M 319.5,236.5 C 316.833,236.167 314.167,235.833 311.5,235.5C 302.31,234.362 302.31,233.529 311.5,233C 311.493,231.417 311.826,229.751 312.5,228C 314.5,227.333 316.5,227.333 318.5,228C 319.714,229.569 321.381,230.402 323.5,230.5C 326.328,229.746 328.995,228.746 331.5,227.5C 335.166,227.369 336.166,228.869 334.5,232C 329.222,233.284 323.888,234.284 318.5,235C 319.056,235.383 319.389,235.883 319.5,236.5 Z"/></g>
<g><path style="opacity:1" fill="#c9e2ec" d="M 149.5,209.5 C 149.192,219.002 150.192,228.335 152.5,237.5C 150.738,234.497 149.572,231.163 149,227.5C 148.181,221.319 148.347,215.319 149.5,209.5 Z"/></g>
<g><path style="opacity:1" fill="#c0e3f0" d="M 162.5,231.5 C 163.167,231.833 163.833,232.167 164.5,232.5C 164.215,234.288 164.548,235.955 165.5,237.5C 166.861,239.028 168.028,240.695 169,242.5C 169.671,243.252 170.504,243.586 171.5,243.5C 177.159,248.661 183.825,251.661 191.5,252.5C 191.5,252.833 191.5,253.167 191.5,253.5C 191.5,253.833 191.5,254.167 191.5,254.5C 187.266,254.193 183.266,254.86 179.5,256.5C 176.779,255.546 174.112,255.546 171.5,256.5C 171.667,256.833 171.833,257.167 172,257.5C 180.514,260.555 189.347,262.222 198.5,262.5C 197.624,263.251 196.624,263.751 195.5,264C 196.737,264.232 197.737,264.732 198.5,265.5C 194.833,265.5 191.167,265.5 187.5,265.5C 186.167,265.5 184.833,265.5 183.5,265.5C 180.327,264.958 177.327,263.958 174.5,262.5C 173.205,261.512 171.872,260.512 170.5,259.5C 167.981,257.055 165.648,254.388 163.5,251.5C 162.264,250.754 160.93,250.421 159.5,250.5C 156.706,247.243 154.706,243.577 153.5,239.5C 155.669,241.34 157.002,243.674 157.5,246.5C 158.5,246.5 159.5,246.5 160.5,246.5C 160.489,244.453 160.156,242.453 159.5,240.5C 161.347,237.801 162.347,234.801 162.5,231.5 Z"/></g>
<g><path style="opacity:1" fill="#c6e2ed" d="M 184.5,214.5 C 184.5,214.833 184.5,215.167 184.5,215.5C 184.335,218.518 184.502,221.518 185,224.5C 185.414,224.043 185.914,223.709 186.5,223.5C 188.703,225.295 189.869,227.629 190,230.5C 191.067,231.191 192.234,231.691 193.5,232C 224.877,232.892 256.21,234.059 287.5,235.5C 288.772,234.954 290.106,234.621 291.5,234.5C 298.574,236.087 305.24,236.42 311.5,235.5C 314.167,235.833 316.833,236.167 319.5,236.5C 332.395,238.136 345.395,239.136 358.5,239.5C 364.598,238.883 370.265,239.55 375.5,241.5C 370.167,241.167 364.833,240.833 359.5,240.5C 354.167,240.5 348.833,240.5 343.5,240.5C 327.653,239.503 311.653,238.503 295.5,237.5C 291.5,237.5 287.5,237.5 283.5,237.5C 258.314,236.169 232.981,234.836 207.5,233.5C 201.379,233.91 195.379,233.41 189.5,232C 183.673,227.272 182.006,221.439 184.5,214.5 Z"/></g>
<g><path style="opacity:1" fill="#eef9fc" d="M 207.5,233.5 C 232.981,234.836 258.314,236.169 283.5,237.5C 270.16,238.165 256.827,238.165 243.5,237.5C 231.275,236.909 219.275,235.576 207.5,233.5 Z"/></g>
<g><path style="opacity:1" fill="#f1fbfc" d="M 295.5,237.5 C 311.653,238.503 327.653,239.503 343.5,240.5C 330.321,240.65 317.154,240.317 304,239.5C 300.748,239.481 297.915,238.814 295.5,237.5 Z"/></g>
<g><path style="opacity:1" fill="#c2e3ea" d="M 131.5,232.5 C 133.203,237.294 134.536,242.294 135.5,247.5C 133.876,247.64 132.71,246.973 132,245.5C 131.501,241.179 131.334,236.846 131.5,232.5 Z"/></g>
<g><path style="opacity:1" fill="#cae4eb" d="M 164.5,232.5 C 167.08,235.989 169.413,239.656 171.5,243.5C 170.504,243.586 169.671,243.252 169,242.5C 168.028,240.695 166.861,239.028 165.5,237.5C 164.548,235.955 164.215,234.288 164.5,232.5 Z"/></g>
<g><path style="opacity:1" fill="#ceebef" d="M 382.5,243.5 C 382.971,245.288 383.304,247.122 383.5,249C 383.392,250.681 382.725,251.848 381.5,252.5C 381.5,252.167 381.5,251.833 381.5,251.5C 381.194,248.615 381.527,245.948 382.5,243.5 Z"/></g>
<g><path style="opacity:1" fill="#f2fcfe" d="M 359.5,240.5 C 364.833,240.833 370.167,241.167 375.5,241.5C 378.388,240.99 380.721,241.656 382.5,243.5C 381.527,245.948 381.194,248.615 381.5,251.5C 320.905,252.496 260.238,252.829 199.5,252.5C 200.334,251.252 201.667,250.585 203.5,250.5C 262.155,251.651 320.822,251.818 379.5,251C 380.435,248.619 380.768,246.119 380.5,243.5C 379.07,243.421 377.736,243.754 376.5,244.5C 375.692,244.192 375.025,243.692 374.5,243C 369.067,243.118 364.067,242.285 359.5,240.5 Z"/></g>
<g><path style="opacity:1" fill="#e0f2fc" d="M 381.5,251.5 C 381.5,251.833 381.5,252.167 381.5,252.5C 381.5,252.833 381.5,253.167 381.5,253.5C 374.167,253.5 366.833,253.5 359.5,253.5C 354.167,253.5 348.833,253.5 343.5,253.5C 292.833,253.5 242.167,253.5 191.5,253.5C 191.5,253.167 191.5,252.833 191.5,252.5C 194.167,252.5 196.833,252.5 199.5,252.5C 260.238,252.829 320.905,252.496 381.5,251.5 Z"/></g>
<g><path style="opacity:1" fill="#c1deee" d="M 191.5,254.5 C 191.5,254.167 191.5,253.833 191.5,253.5C 242.167,253.5 292.833,253.5 343.5,253.5C 336.24,255.465 328.573,256.132 320.5,255.5C 286.004,254.502 251.337,254.168 216.5,254.5C 208.167,254.5 199.833,254.5 191.5,254.5 Z"/></g>
<g><path style="opacity:1" fill="#bee0e9" d="M 359.5,253.5 C 366.833,253.5 374.167,253.5 381.5,253.5C 381.389,254.117 381.056,254.617 380.5,255C 377,255.167 373.5,255.333 370,255.5C 366.098,255.488 362.598,254.821 359.5,253.5 Z"/></g>
<g><path style="opacity:1" fill="#bce1f1" d="M 191.5,254.5 C 199.833,254.5 208.167,254.5 216.5,254.5C 213.862,258.234 214.862,260.567 219.5,261.5C 223.212,261.214 224.545,259.381 223.5,256C 226.167,255.333 228.833,255.333 231.5,256C 230.448,259.684 231.948,261.518 236,261.5C 237.728,261.546 239.228,261.046 240.5,260C 240.384,258.732 240.051,257.398 239.5,256C 242.167,255.333 244.833,255.333 247.5,256C 246.455,259.381 247.788,261.214 251.5,261.5C 255.212,261.214 256.545,259.381 255.5,256C 258.554,255.179 261.554,255.345 264.5,256.5C 263.253,258.042 263.253,259.542 264.5,261C 266.833,261.667 269.167,261.667 271.5,261C 271.888,259.475 271.888,257.808 271.5,256C 274.167,255.333 276.833,255.333 279.5,256C 278.521,257.779 278.854,259.445 280.5,261C 282.473,261.495 284.473,261.662 286.5,261.5C 289.187,261.336 291.854,261.503 294.5,262C 295.337,263.011 295.67,264.178 295.5,265.5C 303.196,265.169 310.862,265.503 318.5,266.5C 318.863,267.183 319.196,267.85 319.5,268.5C 295.331,268.657 271.331,267.657 247.5,265.5C 231.083,266.115 214.75,266.115 198.5,265.5C 197.737,264.732 196.737,264.232 195.5,264C 196.624,263.751 197.624,263.251 198.5,262.5C 189.347,262.222 180.514,260.555 172,257.5C 171.833,257.167 171.667,256.833 171.5,256.5C 174.112,255.546 176.779,255.546 179.5,256.5C 183.266,254.86 187.266,254.193 191.5,254.5 Z"/></g>
<g><path style="opacity:1" fill="#bbe0f4" d="M 216.5,254.5 C 251.337,254.168 286.004,254.502 320.5,255.5C 320.277,261.262 317.444,262.929 312,260.5C 310.632,259.007 310.465,257.507 311.5,256C 308.833,255.333 306.167,255.333 303.5,256C 304.051,257.398 304.384,258.732 304.5,260C 301.782,261.768 298.949,261.934 296,260.5C 295.405,259.101 295.572,257.768 296.5,256.5C 293.554,255.345 290.554,255.179 287.5,256C 288.332,257.909 287.999,259.742 286.5,261.5C 284.473,261.662 282.473,261.495 280.5,261C 278.854,259.445 278.521,257.779 279.5,256C 276.833,255.333 274.167,255.333 271.5,256C 271.888,257.808 271.888,259.475 271.5,261C 269.167,261.667 266.833,261.667 264.5,261C 263.253,259.542 263.253,258.042 264.5,256.5C 261.554,255.345 258.554,255.179 255.5,256C 256.545,259.381 255.212,261.214 251.5,261.5C 247.788,261.214 246.455,259.381 247.5,256C 244.833,255.333 242.167,255.333 239.5,256C 240.051,257.398 240.384,258.732 240.5,260C 239.228,261.046 237.728,261.546 236,261.5C 231.948,261.518 230.448,259.684 231.5,256C 228.833,255.333 226.167,255.333 223.5,256C 224.545,259.381 223.212,261.214 219.5,261.5C 214.862,260.567 213.862,258.234 216.5,254.5 Z"/></g>
<g><path style="opacity:1" fill="#bcdff5" d="M 199.5,255.5 C 202.807,255.063 205.807,255.73 208.5,257.5C 207.359,258.425 207.359,259.259 208.5,260C 206.045,261.54 203.379,261.874 200.5,261C 198.701,259.3 198.368,257.467 199.5,255.5 Z"/></g>
<g><path style="opacity:1" fill="#cbe2e9" d="M 159.5,251.5 C 159.5,251.167 159.5,250.833 159.5,250.5C 160.93,250.421 162.264,250.754 163.5,251.5C 165.648,254.388 167.981,257.055 170.5,259.5C 166.332,257.577 162.665,254.91 159.5,251.5 Z"/></g>
<g><path style="opacity:1" fill="#f1fbfb" d="M 159.5,251.5 C 162.665,254.91 166.332,257.577 170.5,259.5C 171.872,260.512 173.205,261.512 174.5,262.5C 173.504,262.414 172.671,262.748 172,263.5C 169.093,262.756 166.927,261.09 165.5,258.5C 164.914,258.709 164.414,259.043 164,259.5C 162.677,256.691 161.177,254.025 159.5,251.5 Z"/></g>
<g><path style="opacity:1" fill="#bde1f4" d="M 367.5,311.5 C 365.926,309.898 365.259,307.898 365.5,305.5C 364.167,302.167 364.167,298.833 365.5,295.5C 363.833,295.5 362.167,295.5 360.5,295.5C 360.5,294.167 360.5,292.833 360.5,291.5C 358.57,282.511 358.404,273.511 360,264.5C 360.499,269.155 360.666,273.821 360.5,278.5C 365.454,278.565 370.287,279.232 375,280.5C 376.607,286.918 374.107,289.251 367.5,287.5C 368.591,295.561 368.591,303.561 367.5,311.5 Z"/></g>
<g><path style="opacity:1" fill="#f2fdfe" d="M 143.5,258.5 C 144.93,258.421 146.264,258.754 147.5,259.5C 148.406,261.386 149.406,263.22 150.5,265C 153.613,266.878 156.613,268.712 159.5,270.5C 159.5,271.5 159.5,272.5 159.5,273.5C 152.882,269.882 147.548,264.882 143.5,258.5 Z"/></g>
<g><path style="opacity:1" fill="#c6e2eb" d="M 187.5,265.5 C 191.167,265.5 194.833,265.5 198.5,265.5C 214.75,266.115 231.083,266.115 247.5,265.5C 271.331,267.657 295.331,268.657 319.5,268.5C 319.5,268.833 319.5,269.167 319.5,269.5C 292.83,269.389 266.163,269.055 239.5,268.5C 224.005,267.669 208.339,267.169 192.5,267C 190.618,266.802 188.952,266.302 187.5,265.5 Z"/></g>
<g><path style="opacity:1" fill="#f2fbfd" d="M 183.5,265.5 C 184.833,265.5 186.167,265.5 187.5,265.5C 188.952,266.302 190.618,266.802 192.5,267C 208.339,267.169 224.005,267.669 239.5,268.5C 235.407,268.522 231.407,269.189 227.5,270.5C 220.172,269.277 212.839,269.277 205.5,270.5C 199.553,269.18 193.553,268.18 187.5,267.5C 185.667,267.415 184.334,266.748 183.5,265.5 Z"/></g>
<g><path style="opacity:1" fill="#c7e2ed" d="M 351.5,283.5 C 349.589,282.925 347.922,281.925 346.5,280.5C 342.054,277.374 337.388,274.708 332.5,272.5C 334.06,272.481 335.56,272.148 337,271.5C 339.658,273.327 342.158,275.327 344.5,277.5C 346.396,278.466 348.396,278.799 350.5,278.5C 350.629,280.216 350.962,281.883 351.5,283.5 Z"/></g>
<g><path style="opacity:1" fill="#f1fcfc" d="M 346.5,280.5 C 347.922,281.925 349.589,282.925 351.5,283.5C 354.479,287.432 357.479,291.432 360.5,295.5C 361.773,297.713 362.773,300.046 363.5,302.5C 362.614,303.776 361.614,303.776 360.5,302.5C 360.833,301.833 361.167,301.167 361.5,300.5C 358.577,293.581 353.911,288.248 347.5,284.5C 346.571,283.311 346.238,281.978 346.5,280.5 Z"/></g>
<g><path style="opacity:1" fill="#cce5ee" d="M 183.5,282.5 C 226.306,282.287 268.972,282.62 311.5,283.5C 290.494,283.55 269.494,283.883 248.5,284.5C 245.5,284.5 242.5,284.5 239.5,284.5C 220.833,284.5 202.167,284.5 183.5,284.5C 183.5,283.833 183.5,283.167 183.5,282.5 Z"/></g>
<g><path style="opacity:1" fill="#bbe3ee" d="M 311.5,283.5 C 316.88,283.324 322.213,283.658 327.5,284.5C 327.586,285.496 327.252,286.329 326.5,287C 319.912,287.755 313.412,287.255 307,285.5C 293.849,285.361 280.682,285.695 267.5,286.5C 261.005,285.955 254.672,285.288 248.5,284.5C 269.494,283.883 290.494,283.55 311.5,283.5 Z"/></g>
<g><path style="opacity:1" fill="#bae3f1" d="M 183.5,284.5 C 202.167,284.5 220.833,284.5 239.5,284.5C 242.028,285.166 244.694,285.832 247.5,286.5C 245.234,287.314 242.9,287.814 240.5,288C 239.577,290.041 239.244,292.208 239.5,294.5C 237.167,294.5 234.833,294.5 232.5,294.5C 233.002,286.514 229.835,284.514 223,288.5C 222.505,290.473 222.338,292.473 222.5,294.5C 220.5,294.5 218.5,294.5 216.5,294.5C 217.002,286.514 213.835,284.514 207,288.5C 206.505,290.473 206.338,292.473 206.5,294.5C 204.5,294.5 202.5,294.5 200.5,294.5C 200.945,291.635 200.278,289.135 198.5,287C 194.822,286.582 191.155,286.082 187.5,285.5C 186.228,285.57 185.062,285.903 184,286.5C 183.536,285.906 183.369,285.239 183.5,284.5 Z"/></g>
<g><path style="opacity:1" fill="#c7e2ee" d="M 351.5,283.5 C 352.552,283.351 353.552,283.517 354.5,284C 355.679,287.209 357.679,289.709 360.5,291.5C 360.5,292.833 360.5,294.167 360.5,295.5C 357.479,291.432 354.479,287.432 351.5,283.5 Z"/></g>
<g><path style="opacity:1" fill="#c1e1e8" d="M 360.5,295.5 C 362.167,295.5 363.833,295.5 365.5,295.5C 364.167,298.833 364.167,302.167 365.5,305.5C 365.167,305.5 364.833,305.5 364.5,305.5C 364.737,304.209 364.404,303.209 363.5,302.5C 362.773,300.046 361.773,297.713 360.5,295.5 Z"/></g>
<g><path style="opacity:1" fill="#c8e2ed" d="M 350.5,303.5 C 352.198,306.187 353.865,308.854 355.5,311.5C 355.401,314.237 355.735,316.904 356.5,319.5C 354.718,314.163 352.718,308.83 350.5,303.5 Z"/></g>
<g><path style="opacity:1" fill="#ecfafb" d="M 364.5,305.5 C 364.833,305.5 365.167,305.5 365.5,305.5C 365.259,307.898 365.926,309.898 367.5,311.5C 367.5,314.167 367.5,316.833 367.5,319.5C 363.833,319.5 360.167,319.5 356.5,319.5C 355.735,316.904 355.401,314.237 355.5,311.5C 355.617,316.612 358.284,318.945 363.5,318.5C 363.927,314.176 364.261,309.842 364.5,305.5 Z"/></g>
<g><path style="opacity:1" fill="#e1f1f9" d="M 248.5,368.5 C 248.5,368.167 248.5,367.833 248.5,367.5C 254.167,367.5 259.833,367.5 265.5,367.5C 265.784,369.415 265.451,371.081 264.5,372.5C 264.5,371.167 264.5,369.833 264.5,368.5C 259.167,368.5 253.833,368.5 248.5,368.5 Z"/></g>
<g><path style="opacity:1" fill="#f4fdfe" d="M 248.5,368.5 C 253.833,368.5 259.167,368.5 264.5,368.5C 264.5,369.833 264.5,371.167 264.5,372.5C 261.167,372.5 257.833,372.5 254.5,372.5C 253.51,378.645 253.177,384.978 253.5,391.5C 253.5,393.167 253.5,394.833 253.5,396.5C 252.833,396.5 252.167,396.5 251.5,396.5C 252.634,388.245 252.801,379.912 252,371.5C 251.333,372.833 250.667,372.833 250,371.5C 249.199,379.912 249.366,388.245 250.5,396.5C 248.528,387.56 247.861,378.227 248.5,368.5 Z"/></g>
<g><path style="opacity:1" fill="#f6fcfe" d="M 267.5,367.5 C 269.735,367.205 271.735,367.539 273.5,368.5C 275.641,373.59 277.974,378.59 280.5,383.5C 282.107,381.083 283.107,378.416 283.5,375.5C 284.942,373.46 285.942,371.127 286.5,368.5C 288.167,367.167 289.833,367.167 291.5,368.5C 289.628,373.45 287.961,378.45 286.5,383.5C 284.679,387.895 282.346,392.062 279.5,396C 276.854,396.497 274.187,396.664 271.5,396.5C 270.47,392.863 271.803,391.53 275.5,392.5C 276.902,392.135 277.902,391.301 278.5,390C 277.434,387.581 276.1,385.414 274.5,383.5C 272.167,378.167 269.833,372.833 267.5,367.5 Z"/></g>
<g><path style="opacity:1" fill="#c0e3ed" d="M 265.5,367.5 C 266.167,367.5 266.833,367.5 267.5,367.5C 269.833,372.833 272.167,378.167 274.5,383.5C 273.167,383.5 271.833,383.5 270.5,383.5C 272.159,380.466 271.659,377.8 269,375.5C 264.992,375.048 260.492,375.048 255.5,375.5C 254.614,374.675 254.281,373.675 254.5,372.5C 257.833,372.5 261.167,372.5 264.5,372.5C 265.451,371.081 265.784,369.415 265.5,367.5 Z"/></g>
<g><path style="opacity:1" fill="#fcfcfd" d="M 251.5,396.5 C 251.167,396.5 250.833,396.5 250.5,396.5C 249.366,388.245 249.199,379.912 250,371.5C 250.667,372.833 251.333,372.833 252,371.5C 252.801,379.912 252.634,388.245 251.5,396.5 Z"/></g>
<g><path style="opacity:1" fill="#c4e0ec" d="M 248.5,367.5 C 248.5,367.833 248.5,368.167 248.5,368.5C 247.861,378.227 248.528,387.56 250.5,396.5C 250.833,396.5 251.167,396.5 251.5,396.5C 252.167,396.5 252.833,396.5 253.5,396.5C 251.5,397.167 249.5,397.833 247.5,398.5C 246.761,398.631 246.094,398.464 245.5,398C 246.318,389.578 246.818,381.078 247,372.5C 247.198,370.618 247.698,368.952 248.5,367.5 Z"/></g>
<g><path style="opacity:1" fill="#c6e4ed" d="M 223.5,377.5 C 223.5,378.167 223.5,378.833 223.5,379.5C 221.415,381.684 220.415,384.351 220.5,387.5C 220.167,387.5 219.833,387.5 219.5,387.5C 218.576,383.116 219.909,379.782 223.5,377.5 Z"/></g>
<g><path style="opacity:1" fill="#eafafa" d="M 223.5,379.5 C 224.5,380.833 225.5,382.167 226.5,383.5C 228.265,384.461 230.265,384.795 232.5,384.5C 232.737,383.209 232.404,382.209 231.5,381.5C 231.5,380.833 231.5,380.167 231.5,379.5C 233.28,380.99 233.946,382.99 233.5,385.5C 229.993,386.006 226.826,385.34 224,383.5C 223.51,384.793 223.343,386.127 223.5,387.5C 222.5,387.5 221.5,387.5 220.5,387.5C 220.415,384.351 221.415,381.684 223.5,379.5 Z"/></g>
<g><path style="opacity:1" fill="#cae4ec" d="M 273.5,368.5 C 275.074,368.937 276.241,369.937 277,371.5C 277.353,374.539 278.52,377.205 280.5,379.5C 281.057,377.668 282.057,376.335 283.5,375.5C 283.107,378.416 282.107,381.083 280.5,383.5C 277.974,378.59 275.641,373.59 273.5,368.5 Z"/></g>
<g><path style="opacity:1" fill="#f6fcfd" d="M 241.5,396.5 C 239.833,396.5 238.167,396.5 236.5,396.5C 236.326,394.139 235.993,391.806 235.5,389.5C 232.833,389.5 230.167,389.5 227.5,389.5C 226.325,389.281 225.325,389.614 224.5,390.5C 224.255,395.021 221.922,397.021 217.5,396.5C 218.167,393.5 218.833,390.5 219.5,387.5C 219.833,387.5 220.167,387.5 220.5,387.5C 221.5,387.5 222.5,387.5 223.5,387.5C 223.343,386.127 223.51,384.793 224,383.5C 226.826,385.34 229.993,386.006 233.5,385.5C 233.946,382.99 233.28,380.99 231.5,379.5C 229.626,374.303 228.292,374.636 227.5,380.5C 226.596,381.209 226.263,382.209 226.5,383.5C 225.5,382.167 224.5,380.833 223.5,379.5C 223.5,378.833 223.5,378.167 223.5,377.5C 224.901,374.296 225.901,370.963 226.5,367.5C 228.604,367.201 230.604,367.534 232.5,368.5C 233.188,372.209 234.688,375.543 237,378.5C 237.83,384.657 239.663,390.49 242.5,396C 242.272,396.399 241.938,396.565 241.5,396.5 Z"/></g>
<g><path style="opacity:1" fill="#c5e1f3" d="M 231.5,379.5 C 231.5,380.167 231.5,380.833 231.5,381.5C 230.817,383.176 229.483,383.843 227.5,383.5C 227.5,382.5 227.5,381.5 227.5,380.5C 228.292,374.636 229.626,374.303 231.5,379.5 Z"/></g>
<g><path style="opacity:1" fill="#c9e4e8" d="M 227.5,380.5 C 227.5,381.5 227.5,382.5 227.5,383.5C 229.483,383.843 230.817,383.176 231.5,381.5C 232.404,382.209 232.737,383.209 232.5,384.5C 230.265,384.795 228.265,384.461 226.5,383.5C 226.263,382.209 226.596,381.209 227.5,380.5 Z"/></g>
<g><path style="opacity:1" fill="#cce7f0" d="M 203.5,384.5 C 202.425,388.938 204.092,390.938 208.5,390.5C 204.711,392.352 202.045,391.186 200.5,387C 201.13,385.69 202.13,384.856 203.5,384.5 Z"/></g>
<g><path style="opacity:1" fill="#f6fbfe" d="M 208.5,390.5 C 204.092,390.938 202.425,388.938 203.5,384.5C 205.817,383.058 207.984,383.392 210,385.5C 210.599,387.535 210.099,389.201 208.5,390.5 Z"/></g>
<g><path style="opacity:1" fill="#e8f9fb" d="M 300.5,389.5 C 299.006,385.15 300.672,383.317 305.5,384C 308.218,387.398 307.551,389.898 303.5,391.5C 301.962,391.547 300.962,390.88 300.5,389.5 Z"/></g>
<g><path style="opacity:1" fill="#fdfdfd" d="M 300.5,389.5 C 301.234,388.292 301.567,386.959 301.5,385.5C 302.833,385.5 304.167,385.5 305.5,385.5C 305.5,386.833 305.5,388.167 305.5,389.5C 303.833,389.5 302.167,389.5 300.5,389.5 Z"/></g>
<g><path style="opacity:1" fill="#bae2ef" d="M 253.5,391.5 C 256.324,391.892 259.324,391.892 262.5,391.5C 262.5,394.167 262.5,396.833 262.5,399.5C 257.305,399.821 252.305,399.487 247.5,398.5C 249.5,397.833 251.5,397.167 253.5,396.5C 253.5,394.833 253.5,393.167 253.5,391.5 Z"/></g>
<g><path style="opacity:1" fill="#c3e3eb" d="M 286.5,383.5 C 286.4,384.465 286.734,385.632 287.5,387C 286.018,390.251 284.684,393.585 283.5,397C 280.139,397.337 276.806,397.837 273.5,398.5C 272.287,398.253 271.62,397.586 271.5,396.5C 274.187,396.664 276.854,396.497 279.5,396C 282.346,392.062 284.679,387.895 286.5,383.5 Z"/></g>
<g><path style="opacity:1" fill="#c3e2ea" d="M 227.5,389.5 C 230.167,389.5 232.833,389.5 235.5,389.5C 235.993,391.806 236.326,394.139 236.5,396.5C 238.167,396.5 239.833,396.5 241.5,396.5C 241.5,397.5 241.5,398.5 241.5,399.5C 235.385,399.616 232.718,396.616 233.5,390.5C 231.265,390.795 229.265,390.461 227.5,389.5 Z"/></g>
<g><path style="opacity:0.998" fill="#bce1f5" d="M 183.5,438.5 C 181.623,438.9 180.123,439.9 179,441.5C 176.719,439.471 174.219,439.138 171.5,440.5C 169.739,439.965 168.406,438.965 167.5,437.5C 167.357,435.738 167.691,434.071 168.5,432.5C 173.342,430.952 178.175,430.619 183,431.5C 183.497,433.81 183.663,436.143 183.5,438.5 Z"/></g>
<g><path style="opacity:0.992" fill="#bae3f1" d="M 167.5,437.5 C 168.406,438.965 169.739,439.965 171.5,440.5C 174.219,439.138 176.719,439.471 179,441.5C 180.123,439.9 181.623,438.9 183.5,438.5C 186.054,439.388 188.721,439.721 191.5,439.5C 191.5,442.167 191.5,444.833 191.5,447.5C 190.5,447.5 189.5,447.5 188.5,447.5C 179.587,445.864 171.254,442.864 163.5,438.5C 164.568,437.566 165.901,437.232 167.5,437.5 Z"/></g>
<g><path style="opacity:0.99" fill="#b9e3f1" d="M 212.5,452.5 C 209.763,452.599 207.096,452.265 204.5,451.5C 204.918,450.778 205.584,450.278 206.5,450C 203.625,449.105 203.292,448.272 205.5,447.5C 210.457,450.158 215.457,450.158 220.5,447.5C 229.31,449.269 238.31,450.102 247.5,450C 247.043,450.414 246.709,450.914 246.5,451.5C 242.167,451.833 237.833,452.167 233.5,452.5C 226.442,451.957 219.442,451.957 212.5,452.5 Z"/></g>
<g><path style="opacity:0.008" fill="#e2fbff" d="M 291.5,453.5 C 291.5,452.833 291.167,452.5 290.5,452.5C 292.527,450.912 294.861,450.412 297.5,451C 295.593,452.122 293.593,452.955 291.5,453.5 Z"/></g>
<g><path style="opacity:0.761" fill="#d1f0f4" d="M 288.5,452.5 C 284.433,454.054 280.1,454.72 275.5,454.5C 279.363,451.579 283.696,450.913 288.5,452.5 Z"/></g>
<g><path style="opacity:0.004" fill="#fdfefb" d="M 238.5,456.5 C 239.833,457.167 239.833,457.167 238.5,456.5 Z"/></g>
<g><path style="opacity:0.005" fill="#fdfefd" d="M 234.5,457.5 C 235.239,457.369 235.906,457.536 236.5,458C 234.833,459 233.5,460.333 232.5,462C 231.365,462.749 230.365,462.583 229.5,461.5C 231.015,459.918 232.681,458.584 234.5,457.5 Z"/></g>
<g><path style="opacity:0.941" fill="#daf4f9" d="M 288.5,454.5 C 285.374,456.99 281.708,458.323 277.5,458.5C 280.939,456.796 284.605,455.462 288.5,454.5 Z"/></g>
<g><path style="opacity:0.004" fill="#fdfdfb" d="M 244.5,460.5 C 245.601,459.402 246.934,459.235 248.5,460C 247.436,461.511 246.103,461.677 244.5,460.5 Z"/></g>
<g><path style="opacity:0.014" fill="#e6fbfd" d="M 273.5,459.5 C 271.5,460.167 269.5,460.833 267.5,461.5C 265.167,461.5 262.833,461.5 260.5,461.5C 264.591,460.105 268.924,459.438 273.5,459.5 Z"/></g>
<g><path style="opacity:0.004" fill="#fcfcfc" d="M 233.5,463.5 C 238.65,462.349 243.984,462.183 249.5,463C 244.177,463.499 238.844,463.666 233.5,463.5 Z"/></g>
<g><path style="opacity:0.998" fill="#bbe4f3" d="M 260.5,461.5 C 262.833,461.5 265.167,461.5 267.5,461.5C 268.833,461.5 270.167,461.5 271.5,461.5C 271.5,462.5 271.5,463.5 271.5,464.5C 273.833,464.5 276.167,464.5 278.5,464.5C 278.5,466.5 278.5,468.5 278.5,470.5C 273.566,470.72 268.733,471.387 264,472.5C 263.501,477.489 263.334,482.489 263.5,487.5C 260.833,487.5 258.167,487.5 255.5,487.5C 256.22,480.413 256.553,473.413 256.5,466.5C 256.392,465.558 256.059,464.725 255.5,464C 253.866,463.506 252.199,463.34 250.5,463.5C 250.918,462.778 251.584,462.278 252.5,462C 255.146,461.503 257.813,461.336 260.5,461.5 Z"/></g>
</svg>
