<?xml version="1.0" encoding="UTF-8"?>
<!DOCTYPE svg PUBLIC "-//W3C//DTD SVG 1.1//EN" "http://www.w3.org/Graphics/SVG/1.1/DTD/svg11.dtd">
<svg xmlns="http://www.w3.org/2000/svg" version="1.1" width="500px" height="500px" style="shape-rendering:geometricPrecision; text-rendering:geometricPrecision; image-rendering:optimizeQuality; fill-rule:evenodd; clip-rule:evenodd" xmlns:xlink="http://www.w3.org/1999/xlink">
<g><path style="opacity:0.982" fill="#ce254e" d="M 49.5,-0.5 C 50.1667,-0.5 50.8333,-0.5 51.5,-0.5C 51.8284,93.5408 51.4951,187.541 50.5,281.5C 49.5006,187.668 49.1673,93.6681 49.5,-0.5 Z"/></g>
<g><path style="opacity:0.997" fill="#e4194c" d="M 51.5,-0.5 C 184.167,-0.5 316.833,-0.5 449.5,-0.5C 449.667,106.167 449.5,212.834 449,319.5C 443.072,381.889 414.239,430.389 362.5,465C 327.691,486.879 289.691,497.712 248.5,497.5C 248.5,485.167 248.5,472.833 248.5,460.5C 253.75,460.698 258.75,460.031 263.5,458.5C 265.435,457.85 267.435,457.517 269.5,457.5C 274.986,456.756 280.32,455.422 285.5,453.5C 287.882,452.428 290.216,451.262 292.5,450C 287.978,449.774 283.645,450.274 279.5,451.5C 267.185,452.315 254.852,452.649 242.5,452.5C 178.517,452.256 126.684,427.256 87,377.5C 65.6838,349.061 53.5171,317.061 50.5,281.5C 51.4951,187.541 51.8284,93.5408 51.5,-0.5 Z"/></g>
<g><path style="opacity:1" fill="#ffe4ee" d="M 313.5,90.5 C 313.167,90.5 312.833,90.5 312.5,90.5C 312.5,89.5 312.5,88.5 312.5,87.5C 313.675,87.719 314.675,87.3857 315.5,86.5C 313.5,85.1667 311.5,83.8333 309.5,82.5C 303.741,84.0978 299.741,87.5978 297.5,93C 296.181,93.195 294.847,93.0283 293.5,92.5C 294.167,91.5 294.833,90.5 295.5,89.5C 299.877,85.7945 304.543,82.4612 309.5,79.5C 312.595,81.0907 315.262,83.2573 317.5,86C 316.685,87.9802 315.352,89.4802 313.5,90.5 Z"/></g>
<g><path style="opacity:1" fill="#d52b53" d="M 310.5,95.5 C 311.925,94.078 312.925,92.4113 313.5,90.5C 315.352,89.4802 316.685,87.9802 317.5,86C 315.262,83.2573 312.595,81.0907 309.5,79.5C 304.543,82.4612 299.877,85.7945 295.5,89.5C 296.933,87.4418 297.6,85.1085 297.5,82.5C 298.873,82.6567 300.207,82.49 301.5,82C 301.043,81.586 300.709,81.086 300.5,80.5C 302.709,79.937 304.209,78.6036 305,76.5C 309.54,77.704 314.04,79.704 318.5,82.5C 318.546,86.1384 318.879,89.8051 319.5,93.5C 316.564,94.4058 313.564,95.0725 310.5,95.5 Z"/></g>
<g><path style="opacity:1" fill="#fdfafb" d="M 312.5,90.5 C 302.833,99.8333 293.167,109.167 283.5,118.5C 280.167,121.167 277.167,124.167 274.5,127.5C 267.195,133.47 260.195,139.803 253.5,146.5C 249.141,150.528 244.807,154.528 240.5,158.5C 236.167,162.167 232.167,166.167 228.5,170.5C 222.531,175.135 216.864,180.135 211.5,185.5C 201.567,193.93 192.067,202.93 183,212.5C 180.278,218.777 181.445,224.111 186.5,228.5C 187.306,229.728 188.306,230.728 189.5,231.5C 192.488,233.14 195.821,233.974 199.5,234C 229.475,235.763 259.475,236.597 289.5,236.5C 299.824,237.078 310.157,237.412 320.5,237.5C 323.203,238.963 326.203,239.796 329.5,240C 345.897,240.051 362.231,240.884 378.5,242.5C 378.5,245.167 378.5,247.833 378.5,250.5C 313.148,250.816 247.815,250.482 182.5,249.5C 175.723,247.385 170.389,243.385 166.5,237.5C 165.545,235.254 164.878,232.921 164.5,230.5C 164.643,228.738 164.309,227.071 163.5,225.5C 164.292,219.551 164.792,213.551 165,207.5C 166.953,205.159 168.119,202.493 168.5,199.5C 171.129,195.203 174.463,191.537 178.5,188.5C 178.833,188.5 179.167,188.5 179.5,188.5C 185.489,183.843 191.156,178.843 196.5,173.5C 200.482,170.848 204.149,167.848 207.5,164.5C 211.817,161.514 215.817,158.18 219.5,154.5C 224.486,150.845 229.153,146.845 233.5,142.5C 243.351,134.739 253.018,126.739 262.5,118.5C 268.823,113.509 274.823,108.176 280.5,102.5C 284.833,99.1667 289.167,95.8333 293.5,92.5C 294.847,93.0283 296.181,93.195 297.5,93C 299.741,87.5978 303.741,84.0978 309.5,82.5C 311.5,83.8333 313.5,85.1667 315.5,86.5C 314.675,87.3857 313.675,87.719 312.5,87.5C 312.5,88.5 312.5,89.5 312.5,90.5 Z"/></g>
<g><path style="opacity:1" fill="#ce3154" d="M 295.5,89.5 C 294.833,90.5 294.167,91.5 293.5,92.5C 289.167,95.8333 284.833,99.1667 280.5,102.5C 280.586,101.504 280.252,100.671 279.5,100C 280.793,99.51 282.127,99.3433 283.5,99.5C 283.5,98.1667 283.5,96.8333 283.5,95.5C 286.01,94.2166 288.677,93.2166 291.5,92.5C 291.5,91.5 291.5,90.5 291.5,89.5C 292.833,89.5 294.167,89.5 295.5,89.5 Z"/></g>
<g><path style="opacity:1" fill="#c73b5f" d="M 312.5,90.5 C 312.833,90.5 313.167,90.5 313.5,90.5C 312.925,92.4113 311.925,94.078 310.5,95.5C 307.833,97.5 305.5,99.8333 303.5,102.5C 297.374,106.792 292.041,111.958 287.5,118C 286.207,118.49 284.873,118.657 283.5,118.5C 293.167,109.167 302.833,99.8333 312.5,90.5 Z"/></g>
<g><path style="opacity:1" fill="#e01d50" d="M 303.5,102.5 C 303.351,103.552 303.517,104.552 304,105.5C 306.041,104.577 308.208,104.244 310.5,104.5C 310.5,106.833 310.5,109.167 310.5,111.5C 308.5,111.5 306.5,111.5 304.5,111.5C 304.762,110.022 304.429,108.689 303.5,107.5C 303.446,108.687 303.113,110.02 302.5,111.5C 300.139,110.224 297.972,110.558 296,112.5C 295.548,115.149 294.714,117.649 293.5,120C 290.881,119.917 288.214,119.75 285.5,119.5C 285.084,122.36 286.084,124.526 288.5,126C 288.355,126.772 288.022,127.439 287.5,128C 285.426,127.773 283.426,127.939 281.5,128.5C 280.522,128.023 279.689,127.357 279,126.5C 278.074,132.393 274.574,135.06 268.5,134.5C 270.626,132.146 272.626,129.813 274.5,127.5C 277.167,124.167 280.167,121.167 283.5,118.5C 284.873,118.657 286.207,118.49 287.5,118C 292.041,111.958 297.374,106.792 303.5,102.5 Z"/></g>
<g><path style="opacity:1" fill="#d62f54" d="M 280.5,102.5 C 274.823,108.176 268.823,113.509 262.5,118.5C 262.5,117.5 262.5,116.5 262.5,115.5C 260.139,115.326 257.806,114.993 255.5,114.5C 255.633,111.104 256.633,110.771 258.5,113.5C 262.822,113.087 266.822,111.754 270.5,109.5C 270.291,108.914 269.957,108.414 269.5,108C 273.332,106.294 276.999,104.46 280.5,102.5 Z"/></g>
<g><path style="opacity:1" fill="#ce355a" d="M 328.5,121.5 C 327.185,120.524 325.852,119.524 324.5,118.5C 321.482,120.526 318.482,122.526 315.5,124.5C 315.525,121.821 316.858,120.488 319.5,120.5C 319.5,119.5 319.5,118.5 319.5,117.5C 321.401,117.567 323.234,117.233 325,116.5C 327.176,117.516 328.343,119.182 328.5,121.5 Z"/></g>
<g><path style="opacity:1" fill="#cc375b" d="M 315.5,124.5 C 313.23,126.975 310.563,128.975 307.5,130.5C 307.539,129.417 307.873,128.417 308.5,127.5C 310.758,126.201 313.092,125.201 315.5,124.5 Z"/></g>
<g><path style="opacity:1" fill="#cc355b" d="M 199.5,146.5 C 180.462,129.882 159.128,126.216 135.5,135.5C 137.674,133.919 140.007,132.419 142.5,131C 154.325,128.038 166.325,127.705 178.5,130C 182.153,133.325 186.487,135.325 191.5,136C 194.376,139.371 197.042,142.871 199.5,146.5 Z"/></g>
<g><path style="opacity:1" fill="#fef9fb" d="M 199.5,146.5 C 199.833,147.5 200.5,148.167 201.5,148.5C 201.489,150.017 200.823,151.184 199.5,152C 191.341,158.328 183.675,165.161 176.5,172.5C 165.473,179.695 156.64,189.029 150,200.5C 146.086,213.914 146.919,226.914 152.5,239.5C 154.425,243.751 157.092,247.417 160.5,250.5C 164.248,255.874 169.248,259.541 175.5,261.5C 178.087,262.749 180.754,263.749 183.5,264.5C 183.918,265.222 184.584,265.722 185.5,266C 216.79,268.187 248.124,269.02 279.5,268.5C 292.833,268.5 306.167,268.5 319.5,268.5C 323.702,269.967 328.035,270.967 332.5,271.5C 343.641,276.304 352.307,283.971 358.5,294.5C 359.286,299.023 360.786,303.357 363,307.5C 363.498,310.482 363.665,313.482 363.5,316.5C 360.833,316.5 358.167,316.5 355.5,316.5C 355.41,314.304 355.077,312.137 354.5,310C 354.316,308.624 353.649,307.791 352.5,307.5C 343.716,289.727 329.383,281.06 309.5,281.5C 267.669,280.667 225.669,280.167 183.5,280C 180.044,280.093 177.044,279.093 174.5,277C 172.19,276.503 169.857,276.337 167.5,276.5C 161.672,274.329 156.338,271.329 151.5,267.5C 148.871,264.369 146.038,261.369 143,258.5C 140.56,255.272 138.394,251.939 136.5,248.5C 131.124,237.1 129.124,225.1 130.5,212.5C 131.444,202.001 134.777,192.334 140.5,183.5C 142.884,180.712 144.718,177.712 146,174.5C 136.359,166.692 127.192,158.359 118.5,149.5C 120.856,146.814 123.189,144.147 125.5,141.5C 129.1,139.89 132.434,137.89 135.5,135.5C 159.128,126.216 180.462,129.882 199.5,146.5 Z"/></g>
<g><path style="opacity:1" fill="#c73b5b" d="M 274.5,127.5 C 272.626,129.813 270.626,132.146 268.5,134.5C 266.833,135.5 265.5,136.833 264.5,138.5C 261.375,141.965 257.708,144.632 253.5,146.5C 260.195,139.803 267.195,133.47 274.5,127.5 Z"/></g>
<g><path style="opacity:1" fill="#fef7fa" d="M 328.5,121.5 C 329.626,122.858 329.626,124.192 328.5,125.5C 320.574,131.948 312.908,138.615 305.5,145.5C 301.122,148.359 297.122,151.692 293.5,155.5C 284.602,161.789 276.269,168.789 268.5,176.5C 264.728,179.094 261.061,181.927 257.5,185C 263.38,183.062 269.046,180.562 274.5,177.5C 274.833,177.5 275.167,177.5 275.5,177.5C 285.138,173.679 294.471,169.346 303.5,164.5C 309.804,162.344 315.804,159.678 321.5,156.5C 328.692,153.657 335.859,150.657 343,147.5C 345.77,149.365 347.27,152.032 347.5,155.5C 347.167,155.5 346.833,155.5 346.5,155.5C 337.547,159.31 328.88,163.643 320.5,168.5C 309.339,173.581 298.339,178.914 287.5,184.5C 280.274,187.446 273.274,190.946 266.5,195C 276.186,193.925 285.853,192.425 295.5,190.5C 301.567,190.201 307.567,189.368 313.5,188C 314.416,187.722 315.082,187.222 315.5,186.5C 323.587,184.216 331.92,182.549 340.5,181.5C 345.512,181.08 350.512,180.913 355.5,181C 355.205,182.714 355.538,184.547 356.5,186.5C 347.771,188.58 339.104,190.913 330.5,193.5C 330.167,193.5 329.833,193.5 329.5,193.5C 321.535,194.754 313.868,196.754 306.5,199.5C 305.833,199.5 305.167,199.5 304.5,199.5C 297.357,200.634 290.357,202.3 283.5,204.5C 278.05,205.09 272.717,206.257 267.5,208C 271.486,208.499 275.486,208.666 279.5,208.5C 290.167,209.167 300.833,209.833 311.5,210.5C 313.631,211.314 315.964,211.814 318.5,212C 332.5,212.333 346.5,212.667 360.5,213C 361.669,215.007 362.335,217.173 362.5,219.5C 309.15,219.807 255.817,219.474 202.5,218.5C 201.872,214.842 203.206,212.342 206.5,211C 207.252,210.329 207.586,209.496 207.5,208.5C 209.36,207.061 211.027,205.395 212.5,203.5C 223.097,196.243 233.43,188.577 243.5,180.5C 247.817,177.514 251.817,174.18 255.5,170.5C 260.409,167.926 264.742,164.592 268.5,160.5C 282.094,151.235 295.094,141.235 307.5,130.5C 310.563,128.975 313.23,126.975 315.5,124.5C 318.482,122.526 321.482,120.526 324.5,118.5C 325.852,119.524 327.185,120.524 328.5,121.5 Z"/></g>
<g><path style="opacity:1" fill="#e11d4d" d="M 264.5,138.5 C 263.924,141.393 263.924,144.393 264.5,147.5C 266.833,147.5 269.167,147.5 271.5,147.5C 271.738,150.069 273.071,151.735 275.5,152.5C 272.457,154.543 270.124,157.21 268.5,160.5C 264.742,164.592 260.409,167.926 255.5,170.5C 251.826,171.665 248.492,173.499 245.5,176C 243.963,177.11 243.297,178.61 243.5,180.5C 233.43,188.577 223.097,196.243 212.5,203.5C 209.111,204.728 206.111,206.561 203.5,209C 202.207,209.49 200.873,209.657 199.5,209.5C 199.194,212.385 199.527,215.052 200.5,217.5C 201.338,217.842 201.672,218.508 201.5,219.5C 201.414,220.496 201.748,221.329 202.5,222C 254.832,222.5 307.166,222.667 359.5,222.5C 306.336,223.499 253.003,223.832 199.5,223.5C 198.836,218.532 198.336,213.532 198,208.5C 197.568,205.928 196.068,204.594 193.5,204.5C 199.354,198.964 205.188,193.297 211,187.5C 211.464,186.906 211.631,186.239 211.5,185.5C 213.255,184.928 214.922,184.094 216.5,183C 220.78,178.891 224.78,174.724 228.5,170.5C 233.5,167.5 237.5,163.5 240.5,158.5C 246.113,155.887 250.446,151.887 253.5,146.5C 257.708,144.632 261.375,141.965 264.5,138.5 Z"/></g>
<g><path style="opacity:1" fill="#ca3b5b" d="M 233.5,142.5 C 229.153,146.845 224.486,150.845 219.5,154.5C 219.539,153.417 219.873,152.417 220.5,151.5C 223.182,149.495 225.848,147.495 228.5,145.5C 229.641,144.575 229.641,143.741 228.5,143C 230.134,142.506 231.801,142.34 233.5,142.5 Z"/></g>
<g><path style="opacity:1" fill="#cd2f56" d="M 307.5,130.5 C 295.094,141.235 282.094,151.235 268.5,160.5C 270.124,157.21 272.457,154.543 275.5,152.5C 276.183,150.824 277.517,150.157 279.5,150.5C 279.5,149.5 279.5,148.5 279.5,147.5C 283.85,146.332 287.85,144.499 291.5,142C 292.337,140.989 292.67,139.822 292.5,138.5C 293.5,138.5 294.5,138.5 295.5,138.5C 295.5,137.5 295.5,136.5 295.5,135.5C 298.89,132.874 302.89,131.207 307.5,130.5 Z"/></g>
<g><path style="opacity:1" fill="#d23058" d="M 347.5,155.5 C 347.27,152.032 345.77,149.365 343,147.5C 335.859,150.657 328.692,153.657 321.5,156.5C 328.947,151.024 337.113,146.691 346,143.5C 347.882,143.688 349.048,144.688 349.5,146.5C 349.009,149.674 348.343,152.674 347.5,155.5 Z"/></g>
<g><path style="opacity:1" fill="#c6415f" d="M 305.5,145.5 C 302.248,149.784 298.248,153.118 293.5,155.5C 297.122,151.692 301.122,148.359 305.5,145.5 Z"/></g>
<g><path style="opacity:1" fill="#c13a59" d="M 253.5,146.5 C 250.446,151.887 246.113,155.887 240.5,158.5C 244.807,154.528 249.141,150.528 253.5,146.5 Z"/></g>
<g><path style="opacity:1" fill="#d1315b" d="M 201.5,148.5 C 202.573,149.251 202.74,150.251 202,151.5C 197,156.122 192.167,160.955 187.5,166C 183.428,167.592 179.761,169.759 176.5,172.5C 183.675,165.161 191.341,158.328 199.5,152C 200.823,151.184 201.489,150.017 201.5,148.5 Z"/></g>
<g><path style="opacity:1" fill="#c63a5c" d="M 346.5,155.5 C 343.921,158.135 340.921,160.301 337.5,162C 332.007,164.752 326.34,166.918 320.5,168.5C 328.88,163.643 337.547,159.31 346.5,155.5 Z"/></g>
<g><path style="opacity:1" fill="#cc3156" d="M 293.5,155.5 C 291.919,157.142 291.253,159.142 291.5,161.5C 287.737,163.885 283.737,166.052 279.5,168C 276.134,171.335 272.468,174.168 268.5,176.5C 276.269,168.789 284.602,161.789 293.5,155.5 Z"/></g>
<g><path style="opacity:1" fill="#cd3558" d="M 207.5,164.5 C 204.149,167.848 200.482,170.848 196.5,173.5C 196.5,172.5 196.5,171.5 196.5,170.5C 197.5,170.5 198.5,170.5 199.5,170.5C 200.167,168.5 200.833,166.5 201.5,164.5C 203.5,164.5 205.5,164.5 207.5,164.5 Z"/></g>
<g><path style="opacity:1" fill="#c63a59" d="M 240.5,158.5 C 237.5,163.5 233.5,167.5 228.5,170.5C 232.167,166.167 236.167,162.167 240.5,158.5 Z"/></g>
<g><path style="opacity:1" fill="#c8375b" d="M 255.5,170.5 C 251.817,174.18 247.817,177.514 243.5,180.5C 243.297,178.61 243.963,177.11 245.5,176C 248.492,173.499 251.826,171.665 255.5,170.5 Z"/></g>
<g><path style="opacity:1" fill="#c9385b" d="M 303.5,164.5 C 294.471,169.346 285.138,173.679 275.5,177.5C 275.5,176.5 275.5,175.5 275.5,174.5C 283.832,172.439 291.832,169.273 299.5,165C 300.793,164.51 302.127,164.343 303.5,164.5 Z"/></g>
<g><path style="opacity:1" fill="#d72550" d="M 125.5,141.5 C 123.189,144.147 120.856,146.814 118.5,149.5C 127.192,158.359 136.359,166.692 146,174.5C 144.718,177.712 142.884,180.712 140.5,183.5C 140.357,181.738 140.691,180.071 141.5,178.5C 139.577,177.692 137.577,177.192 135.5,177C 136.126,176.25 136.626,175.416 137,174.5C 137.914,175.654 138.747,175.487 139.5,174C 136.124,173.693 134.79,171.86 135.5,168.5C 134.167,168.5 132.833,168.5 131.5,168.5C 131.762,167.022 131.429,165.689 130.5,164.5C 128.5,163.833 127.167,162.5 126.5,160.5C 125.311,159.571 123.978,159.238 122.5,159.5C 122.657,158.127 122.49,156.793 122,155.5C 116.561,151.915 116.061,147.748 120.5,143C 119.151,141.365 119.318,139.865 121,138.5C 121.483,139.448 121.649,140.448 121.5,141.5C 122.833,141.5 124.167,141.5 125.5,141.5 Z"/></g>
<g><path style="opacity:1" fill="#d32854" d="M 320.5,168.5 C 320.169,173.911 317.503,175.911 312.5,174.5C 306.433,176.933 300.766,180.1 295.5,184C 292.854,184.497 290.187,184.664 287.5,184.5C 298.339,178.914 309.339,173.581 320.5,168.5 Z"/></g>
<g><path style="opacity:1" fill="#bb415e" d="M 268.5,176.5 C 268.47,177.497 268.97,178.164 270,178.5C 271.44,177.852 272.94,177.519 274.5,177.5C 269.046,180.562 263.38,183.062 257.5,185C 261.061,181.927 264.728,179.094 268.5,176.5 Z"/></g>
<g><path style="opacity:1" fill="#cc3156" d="M 196.5,173.5 C 191.156,178.843 185.489,183.843 179.5,188.5C 179.5,186.833 179.5,185.167 179.5,183.5C 180.833,183.5 182.167,183.5 183.5,183.5C 183.5,182.5 183.5,181.5 183.5,180.5C 186.286,178.721 189.286,177.388 192.5,176.5C 192.5,175.5 192.5,174.5 192.5,173.5C 193.833,173.5 195.167,173.5 196.5,173.5 Z"/></g>
<g><path style="opacity:1" fill="#c43d5d" d="M 228.5,170.5 C 224.78,174.724 220.78,178.891 216.5,183C 214.922,184.094 213.255,184.928 211.5,185.5C 216.864,180.135 222.531,175.135 228.5,170.5 Z"/></g>
<g><path style="opacity:1" fill="#cd3258" d="M 330.5,193.5 C 339.104,190.913 347.771,188.58 356.5,186.5C 357.497,186.53 358.164,186.03 358.5,185C 357.713,182.901 357.38,180.734 357.5,178.5C 351.54,178.548 345.873,179.548 340.5,181.5C 331.92,182.549 323.587,184.216 315.5,186.5C 310.817,187.074 306.15,187.74 301.5,188.5C 308.397,184.971 315.897,182.971 324,182.5C 326.937,181.599 329.77,180.432 332.5,179C 340.217,179.353 347.883,178.519 355.5,176.5C 357.383,176.876 358.883,177.876 360,179.5C 360.784,182.76 360.617,185.927 359.5,189C 349.9,190.984 340.233,192.484 330.5,193.5 Z"/></g>
<g><path style="opacity:1" fill="#fed9e7" d="M 356.5,186.5 C 355.538,184.547 355.205,182.714 355.5,181C 350.512,180.913 345.512,181.08 340.5,181.5C 345.873,179.548 351.54,178.548 357.5,178.5C 357.38,180.734 357.713,182.901 358.5,185C 358.164,186.03 357.497,186.53 356.5,186.5 Z"/></g>
<g><path style="opacity:1" fill="#c4365b" d="M 176.5,172.5 C 170.226,178.939 163.726,185.272 157,191.5C 154.375,196.579 151.875,201.746 149.5,207C 148.439,213.14 148.273,219.306 149,225.5C 150.888,229.996 152.055,234.663 152.5,239.5C 146.919,226.914 146.086,213.914 150,200.5C 156.64,189.029 165.473,179.695 176.5,172.5 Z"/></g>
<g><path style="opacity:1" fill="#cb345b" d="M 287.5,184.5 C 287.34,186.199 287.506,187.866 288,189.5C 292.401,188.533 296.901,188.2 301.5,188.5C 299.5,189.167 297.5,189.833 295.5,190.5C 285.853,192.425 276.186,193.925 266.5,195C 273.274,190.946 280.274,187.446 287.5,184.5 Z"/></g>
<g><path style="opacity:1" fill="#fdd0e1" d="M 315.5,186.5 C 315.082,187.222 314.416,187.722 313.5,188C 307.567,189.368 301.567,190.201 295.5,190.5C 297.5,189.833 299.5,189.167 301.5,188.5C 306.15,187.74 310.817,187.074 315.5,186.5 Z"/></g>
<g><path style="opacity:1" fill="#cf2d57" d="M 178.5,188.5 C 174.463,191.537 171.129,195.203 168.5,199.5C 168.167,199.5 167.833,199.5 167.5,199.5C 167.162,196.843 167.829,194.51 169.5,192.5C 172.974,191.901 175.974,190.568 178.5,188.5 Z"/></g>
<g><path style="opacity:1" fill="#c83f64" d="M 329.5,193.5 C 328.909,194.151 328.243,194.818 327.5,195.5C 320.623,197.547 313.623,198.881 306.5,199.5C 313.868,196.754 321.535,194.754 329.5,193.5 Z"/></g>
<g><path style="opacity:1" fill="#d12756" d="M 304.5,199.5 C 304.047,200.458 303.381,201.292 302.5,202C 300.19,202.497 297.857,202.663 295.5,202.5C 294.373,204.917 294.373,206.917 295.5,208.5C 290.167,208.5 284.833,208.5 279.5,208.5C 279.369,207.761 279.536,207.094 280,206.5C 281.302,205.915 282.469,205.249 283.5,204.5C 290.357,202.3 297.357,200.634 304.5,199.5 Z"/></g>
<g><path style="opacity:1" fill="#c73f62" d="M 211.5,185.5 C 211.631,186.239 211.464,186.906 211,187.5C 205.188,193.297 199.354,198.964 193.5,204.5C 189.093,207.738 185.593,211.738 183,216.5C 182.333,217.833 182.333,219.167 183,220.5C 183.921,223.336 185.088,226.002 186.5,228.5C 181.445,224.111 180.278,218.777 183,212.5C 192.067,202.93 201.567,193.93 211.5,185.5 Z"/></g>
<g><path style="opacity:1" fill="#a94a69" d="M 283.5,204.5 C 282.469,205.249 281.302,205.915 280,206.5C 279.536,207.094 279.369,207.761 279.5,208.5C 275.486,208.666 271.486,208.499 267.5,208C 272.717,206.257 278.05,205.09 283.5,204.5 Z"/></g>
<g><path style="opacity:1" fill="#d6506e" d="M 279.5,208.5 C 284.833,208.5 290.167,208.5 295.5,208.5C 316.836,208.333 338.169,208.5 359.5,209C 361.437,209.122 362.77,209.955 363.5,211.5C 346.171,210.989 328.838,210.656 311.5,210.5C 300.833,209.833 290.167,209.167 279.5,208.5 Z"/></g>
<g><path style="opacity:1" fill="#c63359" d="M 212.5,203.5 C 211.027,205.395 209.36,207.061 207.5,208.5C 202.917,209.75 200.584,212.75 200.5,217.5C 199.527,215.052 199.194,212.385 199.5,209.5C 200.873,209.657 202.207,209.49 203.5,209C 206.111,206.561 209.111,204.728 212.5,203.5 Z"/></g>
<g><path style="opacity:1" fill="#c53055" d="M 167.5,199.5 C 162.236,206.978 160.236,215.311 161.5,224.5C 160.352,220.019 160.185,215.352 161,210.5C 162.674,206.979 163.84,203.313 164.5,199.5C 165.5,199.5 166.5,199.5 167.5,199.5 Z"/></g>
<g><path style="opacity:1" fill="#c92d55" d="M 140.5,183.5 C 134.777,192.334 131.444,202.001 130.5,212.5C 129.513,217.305 129.179,222.305 129.5,227.5C 128.263,219.49 128.263,211.324 129.5,203C 132.269,196.869 135.102,190.702 138,184.5C 138.671,183.748 139.504,183.414 140.5,183.5 Z"/></g>
<g><path style="opacity:1" fill="#ffe4f0" d="M 167.5,199.5 C 167.833,199.5 168.167,199.5 168.5,199.5C 168.119,202.493 166.953,205.159 165,207.5C 164.792,213.551 164.292,219.551 163.5,225.5C 164.309,227.071 164.643,228.738 164.5,230.5C 163.5,228.5 162.5,226.5 161.5,224.5C 160.236,215.311 162.236,206.978 167.5,199.5 Z"/></g>
<g><path style="opacity:1" fill="#f9d2e1" d="M 207.5,208.5 C 207.586,209.496 207.252,210.329 206.5,211C 203.206,212.342 201.872,214.842 202.5,218.5C 255.817,219.474 309.15,219.807 362.5,219.5C 362.335,217.173 361.669,215.007 360.5,213C 346.5,212.667 332.5,212.333 318.5,212C 315.964,211.814 313.631,211.314 311.5,210.5C 328.838,210.656 346.171,210.989 363.5,211.5C 363.5,214.833 363.5,218.167 363.5,221.5C 310.499,221.667 257.499,221.5 204.5,221C 203.473,220.487 202.473,219.987 201.5,219.5C 201.672,218.508 201.338,217.842 200.5,217.5C 200.584,212.75 202.917,209.75 207.5,208.5 Z"/></g>
<g><path style="opacity:1" fill="#c32b52" d="M 201.5,219.5 C 202.473,219.987 203.473,220.487 204.5,221C 257.499,221.5 310.499,221.667 363.5,221.5C 362.432,222.434 361.099,222.768 359.5,222.5C 307.166,222.667 254.832,222.5 202.5,222C 201.748,221.329 201.414,220.496 201.5,219.5 Z"/></g>
<g><path style="opacity:1" fill="#d04162" d="M 186.5,228.5 C 188.429,228.231 190.095,228.731 191.5,230C 216.331,230.695 240.998,232.195 265.5,234.5C 265.5,234.833 265.5,235.167 265.5,235.5C 240.152,234.267 214.819,232.934 189.5,231.5C 188.306,230.728 187.306,229.728 186.5,228.5 Z"/></g>
<g><path style="opacity:1" fill="#fddeec" d="M 189.5,231.5 C 214.819,232.934 240.152,234.267 265.5,235.5C 273.684,235.174 281.684,235.508 289.5,236.5C 259.475,236.597 229.475,235.763 199.5,234C 195.821,233.974 192.488,233.14 189.5,231.5 Z"/></g>
<g><path style="opacity:1" fill="#ce4a6b" d="M 130.5,212.5 C 129.124,225.1 131.124,237.1 136.5,248.5C 134.983,248.489 133.816,247.823 133,246.5C 130.736,240.43 129.57,234.096 129.5,227.5C 129.179,222.305 129.513,217.305 130.5,212.5 Z"/></g>
<g><path style="opacity:1" fill="#c3375b" d="M 265.5,235.5 C 265.5,235.167 265.5,234.833 265.5,234.5C 291.481,235.7 317.481,236.533 343.5,237C 346.365,237.183 349.031,237.683 351.5,238.5C 348.167,238.5 344.833,238.5 341.5,238.5C 334.49,238.332 327.49,237.999 320.5,237.5C 310.157,237.412 299.824,237.078 289.5,236.5C 281.684,235.508 273.684,235.174 265.5,235.5 Z"/></g>
<g><path style="opacity:1" fill="#c7365b" d="M 166.5,237.5 C 170.389,243.385 175.723,247.385 182.5,249.5C 182.5,249.833 182.5,250.167 182.5,250.5C 174.881,249.018 169.547,244.685 166.5,237.5 Z"/></g>
<g><path style="opacity:1" fill="#ce4c6b" d="M 341.5,238.5 C 344.833,238.5 348.167,238.5 351.5,238.5C 361.539,238.242 371.539,238.576 381.5,239.5C 381.665,243.182 381.499,246.848 381,250.5C 380.617,251.056 380.117,251.389 379.5,251.5C 379.724,247.821 380.058,244.154 380.5,240.5C 367.332,240.092 354.332,239.425 341.5,238.5 Z"/></g>
<g><path style="opacity:1" fill="#fee3f2" d="M 320.5,237.5 C 327.49,237.999 334.49,238.332 341.5,238.5C 354.332,239.425 367.332,240.092 380.5,240.5C 380.058,244.154 379.724,247.821 379.5,251.5C 314.125,251.826 248.792,251.493 183.5,250.5C 183.167,250.5 182.833,250.5 182.5,250.5C 182.5,250.167 182.5,249.833 182.5,249.5C 247.815,250.482 313.148,250.816 378.5,250.5C 378.5,247.833 378.5,245.167 378.5,242.5C 362.231,240.884 345.897,240.051 329.5,240C 326.203,239.796 323.203,238.963 320.5,237.5 Z"/></g>
<g><path style="opacity:1" fill="#d83557" d="M 183.5,250.5 C 248.792,251.493 314.125,251.826 379.5,251.5C 379.5,252.5 379.5,253.5 379.5,254.5C 315.157,254.877 250.824,254.377 186.5,253C 184.881,252.764 183.881,251.931 183.5,250.5 Z"/></g>
<g><path style="opacity:1" fill="#c9345d" d="M 160.5,250.5 C 163.225,251.713 165.559,253.546 167.5,256C 171.452,256.178 174.119,258.011 175.5,261.5C 169.248,259.541 164.248,255.874 160.5,250.5 Z"/></g>
<g><path style="opacity:1" fill="#cc3a5c" d="M 136.5,248.5 C 138.394,251.939 140.56,255.272 143,258.5C 146.038,261.369 148.871,264.369 151.5,267.5C 148.134,266.569 145.634,264.569 144,261.5C 138.54,258.956 136.04,254.623 136.5,248.5 Z"/></g>
<g><path style="opacity:1" fill="#cf4563" d="M 175.5,261.5 C 202.263,263.83 228.93,265.496 255.5,266.5C 255.5,266.833 255.5,267.167 255.5,267.5C 231.433,267.626 207.433,266.626 183.5,264.5C 180.754,263.749 178.087,262.749 175.5,261.5 Z"/></g>
<g><path style="opacity:1" fill="#c74764" d="M 255.5,267.5 C 255.5,267.167 255.5,266.833 255.5,266.5C 275.169,266.333 294.836,266.5 314.5,267C 316.382,267.198 318.048,267.698 319.5,268.5C 306.167,268.5 292.833,268.5 279.5,268.5C 271.684,267.508 263.684,267.174 255.5,267.5 Z"/></g>
<g><path style="opacity:1" fill="#ffe6f1" d="M 183.5,264.5 C 207.433,266.626 231.433,267.626 255.5,267.5C 263.684,267.174 271.684,267.508 279.5,268.5C 248.124,269.02 216.79,268.187 185.5,266C 184.584,265.722 183.918,265.222 183.5,264.5 Z"/></g>
<g><path style="opacity:1" fill="#cc3157" d="M 151.5,267.5 C 156.338,271.329 161.672,274.329 167.5,276.5C 170.167,277.833 172.833,279.167 175.5,280.5C 166.804,279.655 159.137,276.321 152.5,270.5C 151.873,269.583 151.539,268.583 151.5,267.5 Z"/></g>
<g><path style="opacity:1" fill="#fed7e6" d="M 167.5,276.5 C 169.857,276.337 172.19,276.503 174.5,277C 177.044,279.093 180.044,280.093 183.5,280C 225.669,280.167 267.669,280.667 309.5,281.5C 270.167,281.5 230.833,281.5 191.5,281.5C 186.13,281.608 180.797,281.275 175.5,280.5C 172.833,279.167 170.167,277.833 167.5,276.5 Z"/></g>
<g><path style="opacity:1" fill="#d5224e" d="M 175.5,280.5 C 180.797,281.275 186.13,281.608 191.5,281.5C 232.998,282.333 274.665,282.833 316.5,283C 318.708,283.191 320.708,283.691 322.5,284.5C 274.513,283.701 226.513,283.201 178.5,283C 177.058,282.623 176.058,281.79 175.5,280.5 Z"/></g>
<g><path style="opacity:1" fill="#dc2252" d="M 332.5,271.5 C 337.397,271.797 341.73,273.464 345.5,276.5C 347.101,275.835 348.601,275.501 350,275.5C 351.416,276.718 351.249,278.051 349.5,279.5C 351.654,284.159 355.154,287.159 360,288.5C 366.432,285.697 369.265,287.697 368.5,294.5C 364.5,293.833 362.833,295.5 363.5,299.5C 364.5,299.5 365.5,299.5 366.5,299.5C 366.823,305.69 366.49,311.69 365.5,317.5C 365.355,309.071 363.021,301.405 358.5,294.5C 352.307,283.971 343.641,276.304 332.5,271.5 Z"/></g>
<g><path style="opacity:1" fill="#d03e60" d="M 191.5,281.5 C 230.833,281.5 270.167,281.5 309.5,281.5C 329.383,281.06 343.716,289.727 352.5,307.5C 353.374,310.789 354.041,314.123 354.5,317.5C 351.835,310.508 348.335,303.841 344,297.5C 342.211,295.771 340.044,295.104 337.5,295.5C 335.101,288.451 330.101,284.784 322.5,284.5C 320.708,283.691 318.708,283.191 316.5,283C 274.665,282.833 232.998,282.333 191.5,281.5 Z"/></g>
<g><path style="opacity:1" fill="#fed6e4" d="M 358.5,294.5 C 363.021,301.405 365.355,309.071 365.5,317.5C 361.833,317.5 358.167,317.5 354.5,317.5C 354.041,314.123 353.374,310.789 352.5,307.5C 353.649,307.791 354.316,308.624 354.5,310C 355.077,312.137 355.41,314.304 355.5,316.5C 358.167,316.5 360.833,316.5 363.5,316.5C 363.665,313.482 363.498,310.482 363,307.5C 360.786,303.357 359.286,299.023 358.5,294.5 Z"/></g>
<g><path style="opacity:1" fill="#c63757" d="M 291.5,367.5 C 289.833,367.5 288.167,367.5 286.5,367.5C 284.672,372.802 282.838,378.136 281,383.5C 278.344,379.856 276.511,375.856 275.5,371.5C 276.81,373.435 278.143,375.435 279.5,377.5C 280.167,377.167 280.833,376.833 281.5,376.5C 283.11,373.316 284.11,369.983 284.5,366.5C 287.059,366.198 289.393,366.532 291.5,367.5 Z"/></g>
<g><path style="opacity:1" fill="#ffcadc" d="M 273.5,367.5 C 273.833,368.833 274.167,370.167 274.5,371.5C 273.265,371.279 272.265,370.612 271.5,369.5C 270.614,370.325 270.281,371.325 270.5,372.5C 269.833,372.167 269.167,371.833 268.5,371.5C 268.461,370.417 268.127,369.417 267.5,368.5C 269.396,367.534 271.396,367.201 273.5,367.5 Z"/></g>
<g><path style="opacity:1" fill="#cc3b5f" d="M 268.5,371.5 C 269.167,371.833 269.833,372.167 270.5,372.5C 271.117,375.355 272.117,378.022 273.5,380.5C 270.528,378.222 268.861,375.222 268.5,371.5 Z"/></g>
<g><path style="opacity:1" fill="#d23056" d="M 291.5,367.5 C 292.634,369.966 292.801,372.633 292,375.5C 290.365,381.781 287.865,387.781 284.5,393.5C 286.079,397.93 285.079,398.93 281.5,396.5C 280.289,397.274 280.289,398.107 281.5,399C 278.151,399.388 274.817,399.221 271.5,398.5C 271.5,397.5 271.5,396.5 271.5,395.5C 274.906,397.084 278.072,396.75 281,394.5C 285.187,385.774 288.687,376.774 291.5,367.5 Z"/></g>
<g><path style="opacity:1" fill="#ffe2eb" d="M 203.5,381.5 C 206.524,381.175 208.191,382.508 208.5,385.5C 206.167,390.833 203.833,390.833 201.5,385.5C 201.752,383.927 202.418,382.594 203.5,381.5 Z"/></g>
<g><path style="opacity:1" fill="#d32550" d="M 273.5,367.5 C 271.396,367.201 269.396,367.534 267.5,368.5C 268.127,369.417 268.461,370.417 268.5,371.5C 268.861,375.222 270.528,378.222 273.5,380.5C 275.008,382.181 276.008,384.181 276.5,386.5C 276.5,387.833 276.5,389.167 276.5,390.5C 275.5,390.5 274.5,390.5 273.5,390.5C 273.752,387.68 273.252,385.014 272,382.5C 271.667,382.833 271.333,383.167 271,383.5C 268.105,377.303 263.272,374.636 256.5,375.5C 256.5,383.167 256.5,390.833 256.5,398.5C 253.792,399.449 251.126,399.449 248.5,398.5C 246.681,393.699 246.014,388.699 246.5,383.5C 242.486,384.543 240.82,387.209 241.5,391.5C 238.129,383.73 235.129,375.73 232.5,367.5C 234.144,367.286 235.644,367.62 237,368.5C 238.691,373.468 240.024,378.468 241,383.5C 242.667,382.5 244.333,381.5 246,380.5C 246.499,375.845 246.666,371.179 246.5,366.5C 255.682,366.173 264.682,366.507 273.5,367.5 Z"/></g>
<g><path style="opacity:1" fill="#c24866" d="M 253.5,372.5 C 257.167,372.5 260.833,372.5 264.5,372.5C 261.375,373.479 258.042,373.813 254.5,373.5C 254.825,381.352 254.492,389.018 253.5,396.5C 253.5,396.167 253.5,395.833 253.5,395.5C 253.5,387.833 253.5,380.167 253.5,372.5 Z"/></g>
<g><path style="opacity:1" fill="#feeff8" d="M 249.5,368.5 C 254.5,368.5 259.5,368.5 264.5,368.5C 264.5,369.5 264.5,370.5 264.5,371.5C 260.629,371.185 256.962,371.518 253.5,372.5C 253.5,380.167 253.5,387.833 253.5,395.5C 252.178,395.67 251.011,395.337 250,394.5C 249.5,385.84 249.334,377.173 249.5,368.5 Z"/></g>
<g><path style="opacity:1" fill="#f5a2ba" d="M 248.5,368.5 C 253.975,367.511 259.642,367.178 265.5,367.5C 265.784,369.415 265.451,371.081 264.5,372.5C 260.833,372.5 257.167,372.5 253.5,372.5C 256.962,371.518 260.629,371.185 264.5,371.5C 264.5,370.5 264.5,369.5 264.5,368.5C 259.5,368.5 254.5,368.5 249.5,368.5C 249.167,368.5 248.833,368.5 248.5,368.5 Z"/></g>
<g><path style="opacity:1" fill="#c53d5f" d="M 222.5,379.5 C 220.624,385.125 218.958,390.792 217.5,396.5C 216.387,395.054 216.22,393.387 217,391.5C 218.379,387.152 220.213,383.152 222.5,379.5 Z"/></g>
<g><path style="opacity:1" fill="#ffd7ee" d="M 248.5,368.5 C 248.833,368.5 249.167,368.5 249.5,368.5C 249.334,377.173 249.5,385.84 250,394.5C 251.011,395.337 252.178,395.67 253.5,395.5C 253.5,395.833 253.5,396.167 253.5,396.5C 251.833,396.5 250.167,396.5 248.5,396.5C 248.5,387.167 248.5,377.833 248.5,368.5 Z"/></g>
<g><path style="opacity:1" fill="#cf3056" d="M 303.5,381.5 C 304.5,381.5 305.5,381.5 306.5,381.5C 306.665,384.518 306.498,387.518 306,390.5C 303.289,391.926 300.789,391.592 298.5,389.5C 293.438,381.611 295.105,378.944 303.5,381.5 Z"/></g>
<g><path style="opacity:1" fill="#ffe1e9" d="M 303.5,381.5 C 306.495,384.851 305.995,387.518 302,389.5C 298.089,387.687 297.589,385.187 300.5,382C 301.448,381.517 302.448,381.351 303.5,381.5 Z"/></g>
<g><path style="opacity:1" fill="#c43e5f" d="M 276.5,386.5 C 278.099,387.799 278.599,389.465 278,391.5C 276.333,392.833 274.667,392.833 273,391.5C 271.519,392.471 270.685,393.804 270.5,395.5C 269.179,392.765 270.179,391.098 273.5,390.5C 274.5,390.5 275.5,390.5 276.5,390.5C 276.5,389.167 276.5,387.833 276.5,386.5 Z"/></g>
<g><path style="opacity:1" fill="#cd2d55" d="M 241.5,391.5 C 243.974,394.021 243.974,396.521 241.5,399C 239.365,399.635 237.365,399.301 235.5,398C 233.813,392.574 230.313,390.74 225,392.5C 223.872,394.345 223.372,396.345 223.5,398.5C 220.918,398.975 218.918,398.308 217.5,396.5C 219.167,396.5 220.833,396.5 222.5,396.5C 222.665,394.173 223.331,392.007 224.5,390C 228.152,389.501 231.818,389.335 235.5,389.5C 235.993,391.806 236.326,394.139 236.5,396.5C 238.167,396.5 239.833,396.5 241.5,396.5C 241.5,394.833 241.5,393.167 241.5,391.5 Z"/></g>
<g><path style="opacity:1" fill="#fee8f0" d="M 232.5,367.5 C 235.129,375.73 238.129,383.73 241.5,391.5C 241.5,393.167 241.5,394.833 241.5,396.5C 239.833,396.5 238.167,396.5 236.5,396.5C 236.326,394.139 235.993,391.806 235.5,389.5C 231.818,389.335 228.152,389.501 224.5,390C 223.331,392.007 222.665,394.173 222.5,396.5C 220.833,396.5 219.167,396.5 217.5,396.5C 218.958,390.792 220.624,385.125 222.5,379.5C 223.825,375.862 225.158,372.195 226.5,368.5C 228.396,367.534 230.396,367.201 232.5,367.5 Z"/></g>
<g><path style="opacity:1" fill="#ee9ab4" d="M 232.5,382.5 C 233.404,383.209 233.737,384.209 233.5,385.5C 230.941,385.802 228.607,385.468 226.5,384.5C 229.082,384.975 231.082,384.308 232.5,382.5 Z"/></g>
<g><path style="opacity:1" fill="#be395e" d="M 232.5,382.5 C 231.082,384.308 229.082,384.975 226.5,384.5C 226.506,381.15 227.506,378.15 229.5,375.5C 231.082,377.577 232.082,379.91 232.5,382.5 Z"/></g>
<g><path style="opacity:1" fill="#feeaf2" d="M 291.5,367.5 C 288.687,376.774 285.187,385.774 281,394.5C 278.072,396.75 274.906,397.084 271.5,395.5C 271.167,395.5 270.833,395.5 270.5,395.5C 270.685,393.804 271.519,392.471 273,391.5C 274.667,392.833 276.333,392.833 278,391.5C 278.599,389.465 278.099,387.799 276.5,386.5C 276.008,384.181 275.008,382.181 273.5,380.5C 272.117,378.022 271.117,375.355 270.5,372.5C 270.281,371.325 270.614,370.325 271.5,369.5C 272.265,370.612 273.265,371.279 274.5,371.5C 274.833,371.5 275.167,371.5 275.5,371.5C 276.511,375.856 278.344,379.856 281,383.5C 282.838,378.136 284.672,372.802 286.5,367.5C 288.167,367.5 289.833,367.5 291.5,367.5 Z"/></g>
<g><path style="opacity:0.004" fill="#ffb2d6" d="M 285.5,453.5 C 284.082,451.692 282.082,451.025 279.5,451.5C 283.645,450.274 287.978,449.774 292.5,450C 290.216,451.262 287.882,452.428 285.5,453.5 Z"/></g>
<g><path style="opacity:0.004" fill="#ffc8e0" d="M 279.5,451.5 C 282.082,451.025 284.082,451.692 285.5,453.5C 280.32,455.422 274.986,456.756 269.5,457.5C 272.212,456.641 274.878,455.475 277.5,454C 276.892,453.13 276.059,452.63 275,452.5C 264.026,453.81 253.193,453.81 242.5,452.5C 254.852,452.649 267.185,452.315 279.5,451.5 Z"/></g>
<g><path style="opacity:0.006" fill="#fefffc" d="M 241.5,458.5 C 242.601,457.402 243.934,457.235 245.5,458C 244.436,459.511 243.103,459.677 241.5,458.5 Z"/></g>
<g><path style="opacity:0.325" fill="#ffa5c2" d="M 263.5,458.5 C 258.75,460.031 253.75,460.698 248.5,460.5C 252.703,459.174 257.703,458.507 263.5,458.5 Z"/></g>
</svg>
