<?xml version="1.0" encoding="UTF-8"?>
<!DOCTYPE svg PUBLIC "-//W3C//DTD SVG 1.1//EN" "http://www.w3.org/Graphics/SVG/1.1/DTD/svg11.dtd">
<svg xmlns="http://www.w3.org/2000/svg" version="1.1" width="500px" height="500px" style="shape-rendering:geometricPrecision; text-rendering:geometricPrecision; image-rendering:optimizeQuality; fill-rule:evenodd; clip-rule:evenodd" xmlns:xlink="http://www.w3.org/1999/xlink">
<g><path style="opacity:0.998" fill="#bfe2f3" d="M 255.5,499.5 C 251.833,499.5 248.167,499.5 244.5,499.5C 146.107,463.598 83.2742,394.932 56,293.5C 52.6131,278.685 50.6131,263.685 50,248.5C 49.5,165.834 49.3333,83.1673 49.5,0.5C 183.167,0.5 316.833,0.5 450.5,0.5C 450.667,86.5006 450.5,172.501 450,258.5C 437.881,350.631 393.048,421.798 315.5,472C 296.327,483.088 276.327,492.255 255.5,499.5 Z"/></g>
<g><path style="opacity:1" fill="#fcfdfe" d="M 230.5,61.5 C 304.054,58.9527 353.554,91.9527 379,160.5C 392.665,216.157 378.832,263.657 337.5,303C 299.148,334.207 255.815,343.874 207.5,332C 151.113,312.611 118.28,273.444 109,214.5C 105.345,156.308 127.845,111.475 176.5,80C 193.499,70.5014 211.499,64.3347 230.5,61.5 Z"/></g>
<g><path style="opacity:1" fill="#c1e2f3" d="M 228.5,67.5 C 281.221,62.9551 323.387,81.6218 355,123.5C 381.396,163.86 385.729,206.527 368,251.5C 342.778,303.21 301.278,329.877 243.5,331.5C 196.433,329.061 159.933,308.394 134,269.5C 111.856,230.741 108.523,190.408 124,148.5C 144.798,103.355 179.632,76.3552 228.5,67.5 Z"/></g>
<g><path style="opacity:1" fill="#f6fbfd" d="M 249.5,69.5 C 256.636,69.566 258.303,72.7327 254.5,79C 253.207,79.49 251.873,79.6567 250.5,79.5C 250.663,81.8568 250.497,84.1902 250,86.5C 249.501,80.8431 249.334,75.1764 249.5,69.5 Z"/></g>
<g><path style="opacity:1" fill="#c0e2f3" d="M 251.5,70.5 C 253.722,70.5587 254.722,71.7253 254.5,74C 254.612,75.6624 253.946,76.8291 252.5,77.5C 251.526,75.2573 251.192,72.924 251.5,70.5 Z"/></g>
<g><path style="opacity:1" fill="#f7fbfd" d="M 239.5,69.5 C 240.496,69.4142 241.329,69.7476 242,70.5C 244.07,75.6875 245.07,81.0208 245,86.5C 244.187,84.5643 243.687,82.5643 243.5,80.5C 239.241,80.1019 237.408,82.1019 238,86.5C 237.792,80.7855 238.292,75.1188 239.5,69.5 Z"/></g>
<g><path style="opacity:1" fill="#c8e6f4" d="M 240.5,72.5 C 241.924,74.5145 242.59,76.8478 242.5,79.5C 241.5,79.5 240.5,79.5 239.5,79.5C 239.993,77.1944 240.326,74.861 240.5,72.5 Z"/></g>
<g><path style="opacity:1" fill="#f1f8fc" d="M 261.5,70.5 C 262.5,70.5 263.5,70.5 264.5,70.5C 264.334,74.5138 264.501,78.5138 265,82.5C 266.306,78.5544 268.139,74.8878 270.5,71.5C 271.085,77.1767 270.585,82.8433 269,88.5C 268.814,84.4841 268.814,80.4841 269,76.5C 267.713,80.3695 266.047,84.0362 264,87.5C 263.82,84.0445 263.153,80.7111 262,77.5C 261.747,80.7896 260.747,83.7896 259,86.5C 259.243,81.1098 260.077,75.7765 261.5,70.5 Z"/></g>
<g><path style="opacity:1" fill="#f3f9fc" d="M 195.5,78.5 C 196.693,78.9704 197.36,79.9704 197.5,81.5C 197.16,83.5122 196.827,85.5122 196.5,87.5C 197.552,87.3505 198.552,87.5172 199.5,88C 200.928,90.1847 202.595,92.1847 204.5,94C 202.08,93.6284 200.08,92.2951 198.5,90C 197.5,89.3333 196.5,89.3333 195.5,90C 197.377,92.2314 198.21,94.7314 198,97.5C 195.372,92.4099 192.872,87.2432 190.5,82C 191.332,81.3123 191.998,81.479 192.5,82.5C 193.052,84.3334 193.885,86.0001 195,87.5C 195.498,84.5184 195.665,81.5184 195.5,78.5 Z"/></g>
<g><path style="opacity:1" fill="#f2f9fc" d="M 216.5,81.5 C 217.978,81.238 219.311,81.5713 220.5,82.5C 219.833,82.8333 219.167,83.1667 218.5,83.5C 217.287,83.2528 216.62,82.5862 216.5,81.5 Z"/></g>
<g><path style="opacity:1" fill="#f6fbfd" d="M 226.5,69.5 C 232.963,72.4396 235.129,77.4396 233,84.5C 229.847,88.1523 226.847,87.8189 224,83.5C 223.421,81.3513 222.921,79.1846 222.5,77C 223.625,74.3784 224.959,71.8784 226.5,69.5 Z"/></g>
<g><path style="opacity:1" fill="#c5e4f4" d="M 228.5,72.5 C 232.65,75.9153 233.316,79.9153 230.5,84.5C 229.185,80.6074 228.518,76.6074 228.5,72.5 Z"/></g>
<g><path style="opacity:1" fill="#c3e4f3" d="M 225.5,73.5 C 226.748,74.3339 227.415,75.6672 227.5,77.5C 228.114,79.9546 228.114,82.288 227.5,84.5C 224.427,81.3337 223.76,77.667 225.5,73.5 Z"/></g>
<g><path style="opacity:1" fill="#f5fafd" d="M 279.5,76.5 C 279.281,75.325 279.614,74.325 280.5,73.5C 281.833,79.5 281.833,85.5 280.5,91.5C 279.534,89.604 279.201,87.604 279.5,85.5C 276.192,84.9738 274.026,86.3072 273,89.5C 274.085,84.6631 276.252,80.3297 279.5,76.5 Z"/></g>
<g><path style="opacity:1" fill="#cee8f5" d="M 279.5,76.5 C 280.468,78.6074 280.802,80.9407 280.5,83.5C 279.5,83.5 278.5,83.5 277.5,83.5C 277.878,81.079 278.545,78.7457 279.5,76.5 Z"/></g>
<g><path style="opacity:1" fill="#f5fafd" d="M 302.5,82.5 C 304.645,82.7377 306.312,83.7377 307.5,85.5C 307.167,85.8333 306.833,86.1667 306.5,86.5C 305.5,85.8333 304.5,85.1667 303.5,84.5C 300.195,87.2332 300.195,89.5666 303.5,91.5C 302.418,91.7486 301.085,91.9152 299.5,92C 296.706,94.7547 297.039,97.0881 300.5,99C 300.333,99.5 300.167,100 300,100.5C 298.167,99.3333 296.333,98.1667 294.5,97C 297.052,92.0592 299.719,87.2258 302.5,82.5 Z"/></g>
<g><path style="opacity:1" fill="#f3f9fd" d="M 180.5,90.5 C 178.915,89.9976 178.415,88.9976 179,87.5C 180.039,88.2438 180.539,89.2438 180.5,90.5 Z"/></g>
<g><path style="opacity:1" fill="#f6fbfd" d="M 204.5,75.5 C 209.238,75.3968 212.072,77.7302 213,82.5C 214.004,85.9926 213.504,89.1592 211.5,92C 207.82,92.6816 205.32,91.1816 204,87.5C 201.88,83.2893 202.047,79.2893 204.5,75.5 Z"/></g>
<g><path style="opacity:1" fill="#c2e3f3" d="M 204.5,77.5 C 208.575,77.3986 211.075,79.3986 212,83.5C 213.477,87.9978 211.977,90.1645 207.5,90C 204.923,86.2481 203.923,82.0814 204.5,77.5 Z"/></g>
<g><path style="opacity:1" fill="#f3fafd" d="M 180.5,90.5 C 182.223,92.2528 183.723,94.2528 185,96.5C 184.819,92.4529 184.985,88.4529 185.5,84.5C 188.338,88.1718 190.671,92.1718 192.5,96.5C 192.154,97.6956 191.654,97.6956 191,96.5C 189.92,94.0038 188.586,91.6705 187,89.5C 188.801,106.189 186.634,106.522 180.5,90.5 Z"/></g>
<g><path style="opacity:1" fill="#fcfdfe" d="M 289.5,99.5 C 337.17,124.835 357.336,164.502 350,218.5C 338.732,262.102 311.232,289.268 267.5,300C 223.115,306.991 187.281,292.825 160,257.5C 131.923,212.149 134.256,168.482 167,126.5C 201.819,90.7676 242.652,81.7676 289.5,99.5 Z"/></g>
<g><path style="opacity:1" fill="#f5fbfd" d="M 289.5,99.5 C 291.143,95.7775 289.81,93.7775 285.5,93.5C 285.43,87.9036 286.93,82.5702 290,77.5C 289.543,82.2704 288.043,86.7704 285.5,91C 286.891,92.02 288.391,92.8534 290,93.5C 291.931,89.2075 293.764,84.8741 295.5,80.5C 296.167,79.1667 296.833,79.1667 297.5,80.5C 294.473,86.8622 291.807,93.1955 289.5,99.5 Z"/></g>
<g><path style="opacity:1" fill="#f4fafd" d="M 174.5,97.5 C 172.762,95.8805 172.262,93.8805 173,91.5C 177.277,95.7317 180.61,100.398 183,105.5C 180.333,102.167 177.667,98.8333 175,95.5C 174.536,96.0944 174.369,96.7611 174.5,97.5 Z"/></g>
<g><path style="opacity:1" fill="#f5fafd" d="M 311.5,87.5 C 317.562,89.4292 318.062,92.4292 313,96.5C 312.375,103.544 309.209,105.21 303.5,101.5C 306.19,96.7786 308.857,92.1119 311.5,87.5 Z"/></g>
<g><path style="opacity:1" fill="#c4e4f4" d="M 312.5,89.5 C 315.303,91.6142 315.137,93.6142 312,95.5C 311.25,94.8742 310.416,94.3742 309.5,94C 310.386,92.3853 311.386,90.8853 312.5,89.5 Z"/></g>
<g><path style="opacity:1" fill="#f5fbfd" d="M 320.5,93.5 C 322.932,94.7502 325.266,96.2502 327.5,98C 326.251,99.8241 325.085,99.6574 324,97.5C 320.667,101.5 317.333,105.5 314,109.5C 315.88,104.906 318.713,100.739 322.5,97C 321.177,96.1841 320.511,95.0174 320.5,93.5 Z"/></g>
<g><path style="opacity:1" fill="#bfe2f3" d="M 345.5,208.5 C 291.5,208.5 237.5,208.5 183.5,208.5C 183.828,197.321 183.495,186.321 182.5,175.5C 181.833,175.5 181.5,175.167 181.5,174.5C 171.013,173.506 160.346,173.172 149.5,173.5C 160.523,132.979 186.523,107.812 227.5,98C 283.11,92.0427 321.277,114.876 342,166.5C 346.329,180.293 347.496,194.293 345.5,208.5 Z"/></g>
<g><path style="opacity:1" fill="#c4e4f3" d="M 308.5,95.5 C 311.166,97.8972 310.999,100.231 308,102.5C 306.72,102.387 305.887,101.72 305.5,100.5C 306.763,98.9713 307.763,97.3046 308.5,95.5 Z"/></g>
<g><path style="opacity:1" fill="#f4fafd" d="M 174.5,97.5 C 182.125,110.897 180.625,111.897 170,100.5C 170.747,102.976 172.081,105.309 174,107.5C 174.982,108.759 175.315,110.092 175,111.5C 171.638,106.97 168.471,102.303 165.5,97.5C 165.833,97.1667 166.167,96.8333 166.5,96.5C 170.106,98.6028 173.273,101.269 176,104.5C 175.563,102.243 175.063,99.91 174.5,97.5 Z"/></g>
<g><path style="opacity:1" fill="#f3f9fd" d="M 159.5,101.5 C 160.239,101.369 160.906,101.536 161.5,102C 164.951,105.74 168.285,109.573 171.5,113.5C 171.333,113.833 171.167,114.167 171,114.5C 167.962,111.797 165.295,108.797 163,105.5C 163.742,109.841 165.242,114.008 167.5,118C 167,118.5 166.5,119 166,119.5C 162.283,115.238 158.45,111.072 154.5,107C 158.476,108.627 161.643,111.46 164,115.5C 162.831,110.822 161.331,106.155 159.5,101.5 Z"/></g>
<g><path style="opacity:1" fill="#f4fafd" d="M 330.5,100.5 C 331.525,100.897 331.692,101.563 331,102.5C 328.5,105 326,107.5 323.5,110C 327.5,108.848 331.5,107.348 335.5,105.5C 335.833,105.833 336.167,106.167 336.5,106.5C 332.849,110.652 329.016,114.652 325,118.5C 326.237,115.224 328.403,112.391 331.5,110C 327.5,111 323.5,112 319.5,113C 323.003,108.665 326.67,104.499 330.5,100.5 Z"/></g>
<g><path style="opacity:1" fill="#f6fbfd" d="M 339.5,110.5 C 340.239,110.369 340.906,110.536 341.5,111C 339.667,112.833 337.833,114.667 336,116.5C 335.383,117.449 335.549,118.282 336.5,119C 339.5,118 342.5,117 345.5,116C 341.311,119.69 336.978,123.19 332.5,126.5C 332.167,126.333 331.833,126.167 331.5,126C 333.019,124.649 334.352,123.149 335.5,121.5C 333.876,120.131 333.376,118.464 334,116.5C 336.04,114.63 337.873,112.63 339.5,110.5 Z"/></g>
<g><path style="opacity:1" fill="#f4fafd" d="M 150.5,110.5 C 152.019,113.021 153.686,115.521 155.5,118C 158.202,119.34 160.869,120.673 163.5,122C 161.331,122.429 159.331,121.929 157.5,120.5C 157.167,120.833 156.833,121.167 156.5,121.5C 158.441,123.316 159.108,125.316 158.5,127.5C 156.914,125.33 155.58,122.996 154.5,120.5C 151.681,119.257 149.014,117.757 146.5,116C 148.443,116.305 150.443,116.305 152.5,116C 151.139,114.416 150.472,112.582 150.5,110.5 Z"/></g>
<g><path style="opacity:1" fill="#f7fbfd" d="M 347.5,120.5 C 349.257,121.292 350.591,122.625 351.5,124.5C 351.167,124.833 350.833,125.167 350.5,125.5C 348.374,122.13 346.041,122.297 343.5,126C 345.26,126.965 345.594,128.132 344.5,129.5C 343.667,128.5 342.833,127.5 342,126.5C 340.846,127.743 339.512,128.743 338,129.5C 339.734,136.028 338.567,136.195 334.5,130C 339.015,126.97 343.349,123.803 347.5,120.5 Z"/></g>
<g><path style="opacity:1" fill="#f4fafd" d="M 144.5,137.5 C 145.239,137.631 145.906,137.464 146.5,137C 142.868,133.505 140.534,129.671 139.5,125.5C 144.506,128.001 149.173,131.001 153.5,134.5C 152.998,135.521 152.332,135.688 151.5,135C 148.667,132.833 145.833,130.667 143,128.5C 144.714,132.411 146.881,136.244 149.5,140C 149.333,140.5 149.167,141 149,141.5C 147.333,140.267 145.833,138.933 144.5,137.5 Z"/></g>
<g><path style="opacity:1" fill="#f1f9fc" d="M 144.5,137.5 C 141.139,136.316 138.139,134.483 135.5,132C 139.044,132.779 142.044,134.613 144.5,137.5 Z"/></g>
<g><path style="opacity:1" fill="#fdfefe" d="M 188.5,134.5 C 192,137.753 196,140.253 200.5,142C 211.657,142.699 222.657,144.365 233.5,147C 239.563,149.729 244.397,153.896 248,159.5C 251.264,152.909 256.43,148.409 263.5,146C 273.828,144.722 284.161,143.389 294.5,142C 298.873,140.287 302.707,137.787 306,134.5C 307.428,146.489 302.595,154.656 291.5,159C 278.938,158.747 267.271,161.747 256.5,168C 253.034,170.389 250.034,173.222 247.5,176.5C 236.859,164.887 223.526,159.387 207.5,160C 194.275,156.743 187.942,148.243 188.5,134.5 Z"/></g>
<g><path style="opacity:1" fill="#f7fbfd" d="M 348.5,131.5 C 351.187,131.336 353.854,131.503 356.5,132C 358.421,133.241 358.754,134.741 357.5,136.5C 354.546,131.686 350.879,131.186 346.5,135C 343.068,137.367 342.735,140.034 345.5,143C 342.035,142.943 340.869,141.109 342,137.5C 344.063,135.266 346.229,133.266 348.5,131.5 Z"/></g>
<g><path style="opacity:1" fill="#f7fbfd" d="M 358.5,140.5 C 359.552,140.351 360.552,140.517 361.5,141C 359.259,142.522 356.926,143.855 354.5,145C 366.482,145.83 366.482,146.33 354.5,146.5C 353.883,150.62 351.55,152.786 347.5,153C 350.179,151.654 352.179,149.654 353.5,147C 353.167,146.5 352.833,146 352.5,145.5C 350.5,146.5 348.5,147.5 346.5,148.5C 346.167,148.167 345.833,147.833 345.5,147.5C 350.023,145.407 354.356,143.074 358.5,140.5 Z"/></g>
<g><path style="opacity:1" fill="#f3f9fc" d="M 128.5,143.5 C 134.207,143.652 139.54,145.652 144.5,149.5C 144.333,149.833 144.167,150.167 144,150.5C 131.79,143.089 130.79,144.089 141,153.5C 141.667,154.5 141.667,155.5 141,156.5C 136.112,154.306 131.279,151.973 126.5,149.5C 126.833,149.167 127.167,148.833 127.5,148.5C 130.167,149.833 132.833,151.167 135.5,152.5C 135.833,152.167 136.167,151.833 136.5,151.5C 134.146,148.479 131.479,145.812 128.5,143.5 Z"/></g>
<g><path style="opacity:1" fill="#f5fafd" d="M 362.5,151.5 C 363.552,151.351 364.552,151.517 365.5,152C 361.615,153.853 357.615,155.52 353.5,157C 358.533,157.171 363.533,157.671 368.5,158.5C 362.919,161.258 357.252,162.925 351.5,163.5C 355.374,161.708 359.374,160.208 363.5,159C 358.798,158.828 354.132,158.328 349.5,157.5C 349.667,157.167 349.833,156.833 350,156.5C 354.289,154.909 358.456,153.242 362.5,151.5 Z"/></g>
<g><path style="opacity:1" fill="#f4fafd" d="M 130.5,157.5 C 133.625,157.865 136.625,158.698 139.5,160C 136.087,160.471 133.087,159.638 130.5,157.5 Z"/></g>
<g><path style="opacity:1" fill="#f3fafd" d="M 130.5,157.5 C 129.761,157.369 129.094,157.536 128.5,158C 131.052,160.853 133.885,163.353 137,165.5C 137.591,166.483 137.257,167.15 136,167.5C 130.981,166.327 126.148,164.661 121.5,162.5C 121.833,162.167 122.167,161.833 122.5,161.5C 125.723,163.08 129.056,163.914 132.5,164C 129.688,161.099 126.688,158.432 123.5,156C 126.212,155.174 128.545,155.674 130.5,157.5 Z"/></g>
<g><path style="opacity:1" fill="#f4fafd" d="M 367.5,164.5 C 368.239,164.369 368.906,164.536 369.5,165C 368.016,166.574 366.349,167.907 364.5,169C 367.043,169.14 369.377,169.806 371.5,171C 368.144,171.215 364.811,171.215 361.5,171C 359.333,172.5 357.167,174 355,175.5C 354.333,174.833 354.333,174.167 355,173.5C 362.431,170.373 361.931,168.706 353.5,168.5C 356.75,168.192 360.083,168.025 363.5,168C 365.093,167.051 366.426,165.885 367.5,164.5 Z"/></g>
<g><path style="opacity:1" fill="#f1f8fc" d="M 119.5,168.5 C 125.235,169.092 130.902,170.092 136.5,171.5C 133.198,172.228 129.865,172.395 126.5,172C 129.661,173.413 132.661,175.08 135.5,177C 131.167,177.333 126.833,177.667 122.5,178C 126.602,178.858 130.602,180.025 134.5,181.5C 134,181.833 133.5,182.167 133,182.5C 128.521,181.255 124.021,180.089 119.5,179C 119.043,178.586 118.709,178.086 118.5,177.5C 122.796,176.672 127.129,176.172 131.5,176C 127.714,174.607 124.048,172.941 120.5,171C 119.748,170.329 119.414,169.496 119.5,168.5 Z"/></g>
<g><path style="opacity:1" fill="#cfe9f6" d="M 149.5,173.5 C 160.346,173.172 171.013,173.506 181.5,174.5C 170.585,174.18 159.752,174.513 149,175.5C 148.308,174.563 148.475,173.897 149.5,173.5 Z"/></g>
<g><path style="opacity:1" fill="#ddf0f8" d="M 179.5,177.5 C 174.786,177.173 170.12,177.507 165.5,178.5C 166.506,179.396 166.506,180.062 165.5,180.5C 164.614,179.675 164.281,178.675 164.5,177.5C 160.167,177.5 155.833,177.5 151.5,177.5C 151.5,187.833 151.5,198.167 151.5,208.5C 150.506,198.013 150.172,187.346 150.5,176.5C 160.348,176.173 170.014,176.506 179.5,177.5 Z"/></g>
<g><path style="opacity:1" fill="#bfe2f3" d="M 179.5,177.5 C 179.5,187.833 179.5,198.167 179.5,208.5C 170.167,208.5 160.833,208.5 151.5,208.5C 151.5,198.167 151.5,187.833 151.5,177.5C 155.833,177.5 160.167,177.5 164.5,177.5C 164.281,178.675 164.614,179.675 165.5,180.5C 166.506,180.062 166.506,179.396 165.5,178.5C 170.12,177.507 174.786,177.173 179.5,177.5 Z"/></g>
<g><path style="opacity:1" fill="#f4fafd" d="M 371.5,181.5 C 372.725,182.152 373.392,183.319 373.5,185C 372.941,189.277 372.274,189.444 371.5,185.5C 366.528,186.422 361.528,186.588 356.5,186C 361.434,184.84 366.434,184.34 371.5,184.5C 371.5,183.5 371.5,182.5 371.5,181.5 Z"/></g>
<g><path style="opacity:1" fill="#f2f9fc" d="M 160.5,184.5 C 162.256,185.552 162.923,187.219 162.5,189.5C 164.167,189.5 165.833,189.5 167.5,189.5C 167.215,187.712 167.548,186.045 168.5,184.5C 169.491,188.445 169.824,192.445 169.5,196.5C 168.448,196.649 167.448,196.483 166.5,196C 167.406,194.301 167.739,192.467 167.5,190.5C 165.833,190.5 164.167,190.5 162.5,190.5C 162.5,192.5 162.5,194.5 162.5,196.5C 161.448,196.649 160.448,196.483 159.5,196C 160.46,192.27 160.793,188.437 160.5,184.5 Z"/></g>
<g><path style="opacity:1" fill="#d5ecf6" d="M 147.5,178.5 C 148.658,188.325 148.825,198.325 148,208.5C 146.861,204.342 146.361,200.009 146.5,195.5C 146.64,189.813 146.973,184.146 147.5,178.5 Z"/></g>
<g><path style="opacity:1" fill="#f3f9fd" d="M 117.5,184.5 C 122.844,184.816 128.178,185.316 133.5,186C 129.833,186.333 126.167,186.667 122.5,187C 126.327,188.746 129.993,190.746 133.5,193C 127.804,193.83 122.137,193.663 116.5,192.5C 120.812,191.747 125.145,191.581 129.5,192C 125.714,190.607 122.048,188.941 118.5,187C 117.748,186.329 117.414,185.496 117.5,184.5 Z"/></g>
<g><path style="opacity:1" fill="#f3fafc" d="M 356.5,192.5 C 362.167,192.5 367.833,192.5 373.5,192.5C 373.808,194.924 373.474,197.257 372.5,199.5C 371.548,197.955 371.215,196.288 371.5,194.5C 369.833,194.5 368.167,194.5 366.5,194.5C 365.833,199.833 365.167,199.833 364.5,194.5C 362.5,194.5 360.5,194.5 358.5,194.5C 358.785,196.288 358.452,197.955 357.5,199.5C 356.526,197.257 356.192,194.924 356.5,192.5 Z"/></g>
<g><path style="opacity:1" fill="#f5fafd" d="M 116.5,197.5 C 119.144,198.493 121.81,199.493 124.5,200.5C 127.162,199.503 129.828,198.503 132.5,197.5C 132.833,197.833 133.167,198.167 133.5,198.5C 131.713,199.316 130.046,200.316 128.5,201.5C 130.046,202.684 131.713,203.684 133.5,204.5C 133.167,204.833 132.833,205.167 132.5,205.5C 129.96,204.598 127.46,203.598 125,202.5C 122.305,204.114 119.472,204.948 116.5,205C 118.001,203.748 119.668,202.748 121.5,202C 119.308,200.933 117.642,199.433 116.5,197.5 Z"/></g>
<g><path style="opacity:1" fill="#f4fafd" d="M 356.5,201.5 C 359.247,202.956 362.08,204.289 365,205.5C 367.865,204.224 370.699,203.89 373.5,204.5C 371.376,205.149 369.376,205.983 367.5,207C 368.833,207.667 370.167,208.333 371.5,209C 372.451,209.718 372.617,210.551 372,211.5C 369.579,210.039 367.079,208.706 364.5,207.5C 362.167,208.167 359.833,208.833 357.5,209.5C 357.167,209.167 356.833,208.833 356.5,208.5C 358.369,207.376 360.369,206.543 362.5,206C 360.913,205.138 359.246,204.471 357.5,204C 356.748,203.329 356.414,202.496 356.5,201.5 Z"/></g>
<g><path style="opacity:1" fill="#ddf0f8" d="M 182.5,175.5 C 183.495,186.321 183.828,197.321 183.5,208.5C 237.5,208.5 291.5,208.5 345.5,208.5C 291.336,209.499 237.003,209.832 182.5,209.5C 182.5,198.167 182.5,186.833 182.5,175.5 Z"/></g>
<g><path style="opacity:1" fill="#d0e9f6" d="M 246.5,212.5 C 256.167,211.167 265.833,211.167 275.5,212.5C 271.003,211.945 266.836,212.611 263,214.5C 258.061,212.826 252.561,212.159 246.5,212.5 Z"/></g>
<g><path style="opacity:1" fill="#cfe9f6" d="M 278.5,212.5 C 286.984,211.507 295.651,211.174 304.5,211.5C 304.5,211.833 304.5,212.167 304.5,212.5C 300.5,212.5 296.5,212.5 292.5,212.5C 292.719,213.675 292.386,214.675 291.5,215.5C 291.264,214.753 290.93,213.92 290.5,213C 286.514,212.501 282.514,212.334 278.5,212.5 Z"/></g>
<g><path style="opacity:1" fill="#bfe2f3" d="M 157.5,242.5 C 154.709,237.129 152.709,231.462 151.5,225.5C 151.5,221.167 151.5,216.833 151.5,212.5C 155.846,212.334 160.179,212.501 164.5,213C 164.93,213.92 165.264,214.753 165.5,215.5C 166.386,214.675 166.719,213.675 166.5,212.5C 170.833,212.5 175.167,212.5 179.5,212.5C 179.5,222.5 179.5,232.5 179.5,242.5C 172.167,242.5 164.833,242.5 157.5,242.5 Z"/></g>
<g><path style="opacity:1" fill="#daeef8" d="M 157.5,242.5 C 164.833,242.5 172.167,242.5 179.5,242.5C 179.5,232.5 179.5,222.5 179.5,212.5C 175.167,212.5 170.833,212.5 166.5,212.5C 166.719,213.675 166.386,214.675 165.5,215.5C 165.264,214.753 164.93,213.92 164.5,213C 160.179,212.501 155.846,212.334 151.5,212.5C 151.5,216.833 151.5,221.167 151.5,225.5C 150.514,221.03 150.181,216.363 150.5,211.5C 160.5,211.5 170.5,211.5 180.5,211.5C 180.5,222.167 180.5,232.833 180.5,243.5C 172.648,243.825 164.982,243.492 157.5,242.5 Z"/></g>
<g><path style="opacity:1" fill="#daeef7" d="M 183.5,211.5 C 183.5,211.833 183.5,212.167 183.5,212.5C 183.5,222.5 183.5,232.5 183.5,242.5C 192.833,242.5 202.167,242.5 211.5,242.5C 211.833,242.5 212.167,242.5 212.5,242.5C 202.681,243.494 192.681,243.827 182.5,243.5C 182.172,232.654 182.506,221.987 183.5,211.5 Z"/></g>
<g><path style="opacity:1" fill="#bfe2f3" d="M 183.5,212.5 C 188.179,212.334 192.845,212.501 197.5,213C 196.346,213.914 196.513,214.747 198,215.5C 198.483,214.552 198.649,213.552 198.5,212.5C 202.833,212.5 207.167,212.5 211.5,212.5C 211.5,222.5 211.5,232.5 211.5,242.5C 202.167,242.5 192.833,242.5 183.5,242.5C 183.5,232.5 183.5,222.5 183.5,212.5 Z"/></g>
<g><path style="opacity:1" fill="#d3eaf6" d="M 183.5,212.5 C 183.5,212.167 183.5,211.833 183.5,211.5C 193.167,211.5 202.833,211.5 212.5,211.5C 212.5,221.833 212.5,232.167 212.5,242.5C 212.167,242.5 211.833,242.5 211.5,242.5C 211.5,232.5 211.5,222.5 211.5,212.5C 207.167,212.5 202.833,212.5 198.5,212.5C 198.649,213.552 198.483,214.552 198,215.5C 196.513,214.747 196.346,213.914 197.5,213C 192.845,212.501 188.179,212.334 183.5,212.5 Z"/></g>
<g><path style="opacity:1" fill="#bfe2f3" d="M 215.5,211.5 C 224.833,211.5 234.167,211.5 243.5,211.5C 243.5,221.833 243.5,232.167 243.5,242.5C 234.167,242.5 224.833,242.5 215.5,242.5C 215.5,232.167 215.5,221.833 215.5,211.5 Z"/></g>
<g><path style="opacity:1" fill="#bfe2f3" d="M 246.5,212.5 C 252.561,212.159 258.061,212.826 263,214.5C 266.836,212.611 271.003,211.945 275.5,212.5C 275.5,222.5 275.5,232.5 275.5,242.5C 265.833,242.5 256.167,242.5 246.5,242.5C 246.5,232.5 246.5,222.5 246.5,212.5 Z"/></g>
<g><path style="opacity:1" fill="#bfe2f3" d="M 278.5,212.5 C 282.514,212.334 286.514,212.501 290.5,213C 290.93,213.92 291.264,214.753 291.5,215.5C 292.386,214.675 292.719,213.675 292.5,212.5C 296.5,212.5 300.5,212.5 304.5,212.5C 304.5,222.5 304.5,232.5 304.5,242.5C 295.833,242.5 287.167,242.5 278.5,242.5C 278.5,232.5 278.5,222.5 278.5,212.5 Z"/></g>
<g><path style="opacity:1" fill="#dceff8" d="M 304.5,211.5 C 305.494,221.987 305.828,232.654 305.5,243.5C 296.318,243.827 287.318,243.493 278.5,242.5C 287.167,242.5 295.833,242.5 304.5,242.5C 304.5,232.5 304.5,222.5 304.5,212.5C 304.5,212.167 304.5,211.833 304.5,211.5 Z"/></g>
<g><path style="opacity:1" fill="#dbeef8" d="M 336.5,238.5 C 336.5,229.833 336.5,221.167 336.5,212.5C 331.588,211.974 326.922,212.641 322.5,214.5C 318.078,212.641 313.412,211.974 308.5,212.5C 308.5,222.5 308.5,232.5 308.5,242.5C 317.167,242.5 325.833,242.5 334.5,242.5C 325.682,243.493 316.682,243.827 307.5,243.5C 307.5,232.833 307.5,222.167 307.5,211.5C 317.5,211.5 327.5,211.5 337.5,211.5C 337.827,220.682 337.493,229.682 336.5,238.5 Z"/></g>
<g><path style="opacity:1" fill="#bfe2f3" d="M 336.5,238.5 C 336.34,240.153 335.674,241.486 334.5,242.5C 325.833,242.5 317.167,242.5 308.5,242.5C 308.5,232.5 308.5,222.5 308.5,212.5C 313.412,211.974 318.078,212.641 322.5,214.5C 326.922,212.641 331.588,211.974 336.5,212.5C 336.5,221.167 336.5,229.833 336.5,238.5 Z"/></g>
<g><path style="opacity:1" fill="#c5e4f4" d="M 339.5,211.5 C 341.167,211.5 342.833,211.5 344.5,211.5C 343.957,218.383 342.457,225.05 340,231.5C 339.5,224.842 339.334,218.175 339.5,211.5 Z"/></g>
<g><path style="opacity:1" fill="#f3f9fc" d="M 355.5,214.5 C 356.097,213.861 356.93,213.528 358,213.5C 362.641,214.406 367.141,215.573 371.5,217C 369.153,217.334 366.819,217.167 364.5,216.5C 363.603,221.272 365.603,223.605 370.5,223.5C 365.079,223.92 359.745,223.087 354.5,221C 357.095,220.774 359.595,220.274 362,219.5C 362.49,218.207 362.657,216.873 362.5,215.5C 360.05,215.702 357.717,215.369 355.5,214.5 Z"/></g>
<g><path style="opacity:1" fill="#eef7fb" d="M 117.5,214.5 C 119.048,214.821 119.715,215.821 119.5,217.5C 124.031,217.106 128.531,216.439 133,215.5C 133.833,215.833 134.667,216.167 135.5,216.5C 130.609,218.037 125.609,219.037 120.5,219.5C 120.762,220.978 120.429,222.311 119.5,223.5C 118.068,220.673 117.401,217.673 117.5,214.5 Z"/></g>
<g><path style="opacity:1" fill="#dbeef8" d="M 197.5,220.5 C 196.833,220.5 196.5,220.833 196.5,221.5C 195.5,221.5 194.5,221.5 193.5,221.5C 193.5,222.833 193.5,224.167 193.5,225.5C 192.983,223.49 192.316,222.157 191.5,221.5C 190.624,221.631 189.957,221.298 189.5,220.5C 192.309,219.2 194.976,219.2 197.5,220.5 Z"/></g>
<g><path style="opacity:1" fill="#f3fafd" d="M 160.5,220.5 C 162.414,223.684 163.08,227.351 162.5,231.5C 165.86,232.21 167.693,230.876 168,227.5C 168.494,229.134 168.66,230.801 168.5,232.5C 165.833,232.5 163.167,232.5 160.5,232.5C 160.5,228.5 160.5,224.5 160.5,220.5 Z"/></g>
<g><path style="opacity:1" fill="#d8edf7" d="M 231.5,220.5 C 231.5,220.833 231.5,221.167 231.5,221.5C 230.167,220.167 228.833,220.167 227.5,221.5C 226.765,224.247 226.098,227.58 225.5,231.5C 225.793,227.563 225.46,223.73 224.5,220C 227.039,219.204 229.372,219.371 231.5,220.5 Z"/></g>
<g><path style="opacity:1" fill="#f0f8fc" d="M 227.5,221.5 C 227.5,222.833 227.5,224.167 227.5,225.5C 228.833,225.5 230.167,225.5 231.5,225.5C 231.5,224.167 231.5,222.833 231.5,221.5C 231.5,221.167 231.5,220.833 231.5,220.5C 233.745,221.828 234.078,223.661 232.5,226C 235.361,230.35 234.028,232.517 228.5,232.5C 226.537,232.635 225.537,232.302 225.5,231.5C 226.098,227.58 226.765,224.247 227.5,221.5 Z"/></g>
<g><path style="opacity:1" fill="#c3e4f3" d="M 231.5,221.5 C 231.5,222.833 231.5,224.167 231.5,225.5C 230.167,225.5 228.833,225.5 227.5,225.5C 227.5,224.167 227.5,222.833 227.5,221.5C 228.833,220.167 230.167,220.167 231.5,221.5 Z"/></g>
<g><path style="opacity:1" fill="#f4fafd" d="M 260.5,219.5 C 262.117,220.038 263.784,220.371 265.5,220.5C 265.79,224.554 265.123,225.054 263.5,222C 261.888,221.28 260.388,221.446 259,222.5C 257.996,225.993 258.496,229.159 260.5,232C 260.167,232.167 259.833,232.333 259.5,232.5C 256.191,229.302 255.691,225.635 258,221.5C 258.995,220.934 259.828,220.267 260.5,219.5 Z"/></g>
<g><path style="opacity:1" fill="#f1f8fc" d="M 193.5,225.5 C 197.035,225.663 198.035,224.33 196.5,221.5C 196.5,220.833 196.833,220.5 197.5,220.5C 200.124,222.198 200.124,224.031 197.5,226C 199.602,227.733 199.935,229.733 198.5,232C 195.5,232.667 192.5,232.667 189.5,232C 191.362,228.851 192.029,225.351 191.5,221.5C 192.316,222.157 192.983,223.49 193.5,225.5 Z"/></g>
<g><path style="opacity:1" fill="#c0e2f3" d="M 196.5,221.5 C 198.035,224.33 197.035,225.663 193.5,225.5C 193.5,224.167 193.5,222.833 193.5,221.5C 194.5,221.5 195.5,221.5 196.5,221.5 Z"/></g>
<g><path style="opacity:1" fill="#eaf5fb" d="M 169.5,225.5 C 170.209,224.596 171.209,224.263 172.5,224.5C 172.813,227.247 172.48,229.914 171.5,232.5C 170.832,230.031 170.165,227.698 169.5,225.5 Z"/></g>
<g><path style="opacity:1" fill="#bfe2f3" d="M 193.5,226.5 C 196.91,226.384 198.244,228.05 197.5,231.5C 196.167,231.5 194.833,231.5 193.5,231.5C 193.5,229.833 193.5,228.167 193.5,226.5 Z"/></g>
<g><path style="opacity:1" fill="#c3e3f3" d="M 227.5,226.5 C 231.676,225.831 233.009,227.331 231.5,231C 230.207,231.49 228.873,231.657 227.5,231.5C 227.5,229.833 227.5,228.167 227.5,226.5 Z"/></g>
<g><path style="opacity:1" fill="#d4ebf6" d="M 286.5,222.5 C 287.833,223.167 288.833,224.167 289.5,225.5C 288.186,227.895 288.186,230.395 289.5,233C 288.167,233.667 286.833,233.667 285.5,233C 286.456,229.606 286.789,226.106 286.5,222.5 Z"/></g>
<g><path style="opacity:1" fill="#f1f8fc" d="M 289.5,225.5 C 288.833,224.167 287.833,223.167 286.5,222.5C 285.386,220.647 286.052,220.147 288.5,221C 290.211,223.589 292.045,226.089 294,228.5C 294.769,225.901 294.602,223.401 293.5,221C 294.833,220.333 296.167,220.333 297.5,221C 297,221.5 296.5,222 296,222.5C 295.667,225.833 295.333,229.167 295,232.5C 293.158,230.136 291.325,227.803 289.5,225.5 Z"/></g>
<g><path style="opacity:1" fill="#eef7fb" d="M 202.5,224.5 C 205.95,223.756 207.616,225.09 207.5,228.5C 201.304,228.574 200.97,229.741 206.5,232C 205.167,232.667 203.833,232.667 202.5,232C 201.221,229.502 201.221,227.002 202.5,224.5 Z"/></g>
<g><path style="opacity:1" fill="#bfe2f2" d="M 203.5,225.5 C 204.376,225.369 205.043,225.702 205.5,226.5C 203.192,227.873 202.525,227.54 203.5,225.5 Z"/></g>
<g><path style="opacity:1" fill="#f3f9fc" d="M 119.5,227.5 C 124.985,226.348 130.651,226.182 136.5,227C 137.167,227.667 137.833,228.333 138.5,229C 132.405,228.196 127.071,230.029 122.5,234.5C 121.707,233.645 122.04,232.811 123.5,232C 125.167,231 126.833,230 128.5,229C 125.413,228.741 122.413,228.241 119.5,227.5 Z"/></g>
<g><path style="opacity:1" fill="#edf6fb" d="M 319.5,220.5 C 325.74,220.294 328.24,223.294 327,229.5C 326.632,230.91 325.799,231.91 324.5,232.5C 324.73,229.179 324.397,225.679 323.5,222C 321.633,221.289 320.133,221.789 319,223.5C 318.022,226.669 318.522,229.503 320.5,232C 318.591,232.448 317.424,231.615 317,229.5C 316.131,226.007 316.964,223.007 319.5,220.5 Z"/></g>
<g><path style="opacity:1" fill="#f5fafd" d="M 353.5,225.5 C 358.864,225.337 363.53,227.004 367.5,230.5C 368.693,234.665 367.026,236.999 362.5,237.5C 357,237.435 353.333,234.935 351.5,230C 351.519,228.167 352.185,226.667 353.5,225.5 Z"/></g>
<g><path style="opacity:1" fill="#c1e3f3" d="M 354.5,227.5 C 359.701,226.936 363.701,228.77 366.5,233C 362.508,236.294 358.508,236.127 354.5,232.5C 353.334,230.833 353.334,229.166 354.5,227.5 Z"/></g>
<g><path style="opacity:1" fill="#f6fbfd" d="M 138.5,235.5 C 140.705,235.846 140.872,236.513 139,237.5C 134.963,239.346 130.796,240.68 126.5,241.5C 126.33,242.822 126.663,243.989 127.5,245C 126.256,245.456 125.423,244.956 125,243.5C 124.598,242.128 124.098,240.795 123.5,239.5C 123.833,239.167 124.167,238.833 124.5,238.5C 125.167,239.167 125.833,239.833 126.5,240.5C 130.763,239.198 134.763,237.531 138.5,235.5 Z"/></g>
<g><path style="opacity:1" fill="#d5ecf7" d="M 211.5,277.5 C 211.5,267.167 211.5,256.833 211.5,246.5C 207.833,246.5 204.167,246.5 200.5,246.5C 200.719,247.675 200.386,248.675 199.5,249.5C 199.704,248.471 199.204,247.471 198,246.5C 197.193,250.449 196.693,250.449 196.5,246.5C 192.167,246.5 187.833,246.5 183.5,246.5C 183.5,255.5 183.5,264.5 183.5,273.5C 182.506,264.348 182.173,255.015 182.5,245.5C 192.5,245.5 202.5,245.5 212.5,245.5C 212.828,256.346 212.494,267.013 211.5,277.5 Z"/></g>
<g><path style="opacity:1" fill="#d4ebf6" d="M 243.5,246.5 C 239.5,246.5 235.5,246.5 231.5,246.5C 231.55,248.59 230.55,249.923 228.5,250.5C 227.571,249.311 227.238,247.978 227.5,246.5C 223.5,246.5 219.5,246.5 215.5,246.5C 215.5,256.833 215.5,267.167 215.5,277.5C 214.506,267.013 214.172,256.346 214.5,245.5C 224.348,245.173 234.014,245.506 243.5,246.5 Z"/></g>
<g><path style="opacity:1" fill="#d0e9f6" d="M 246.5,246.5 C 256.167,245.167 265.833,245.167 275.5,246.5C 271.5,246.5 267.5,246.5 263.5,246.5C 263.719,247.675 263.386,248.675 262.5,249.5C 262.704,248.471 262.204,247.471 261,246.5C 260.193,250.449 259.693,250.449 259.5,246.5C 255.167,246.5 250.833,246.5 246.5,246.5 Z"/></g>
<g><path style="opacity:1" fill="#d3ebf6" d="M 278.5,246.5 C 287.318,245.507 296.318,245.173 305.5,245.5C 305.828,256.346 305.494,267.013 304.5,277.5C 304.5,267.167 304.5,256.833 304.5,246.5C 301.15,246.335 297.817,246.502 294.5,247C 295.784,248.297 295.617,249.464 294,250.5C 292.992,250.018 291.825,249.852 290.5,250C 291.833,249 291.833,248 290.5,247C 286.514,246.501 282.514,246.334 278.5,246.5 Z"/></g>
<g><path style="opacity:1" fill="#d3ebf6" d="M 332.5,246.5 C 330.076,246.192 327.743,246.526 325.5,247.5C 326.609,249.214 325.942,249.881 323.5,249.5C 323.307,245.551 322.807,245.551 322,249.5C 321.517,248.552 321.351,247.552 321.5,246.5C 317.167,246.5 312.833,246.5 308.5,246.5C 308.5,255.833 308.5,265.167 308.5,274.5C 307.501,265.584 307.168,255.918 307.5,245.5C 316.587,245.168 324.92,245.501 332.5,246.5 Z"/></g>
<g><path style="opacity:1" fill="#c1e2f3" d="M 160.5,246.5 C 161.5,246.5 162.5,246.5 163.5,246.5C 163.693,250.449 164.193,250.449 165,246.5C 165.807,250.449 166.307,250.449 166.5,246.5C 170.833,246.5 175.167,246.5 179.5,246.5C 179.825,254.352 179.492,262.018 178.5,269.5C 175.065,267.19 173.565,263.856 174,259.5C 173.667,261.167 173.333,262.833 173,264.5C 171.416,261.787 169.416,259.454 167,257.5C 166.383,256.551 166.549,255.718 167.5,255C 163.891,253.315 161.557,250.482 160.5,246.5 Z"/></g>
<g><path style="opacity:1" fill="#d5ecf7" d="M 178.5,269.5 C 179.492,262.018 179.825,254.352 179.5,246.5C 175.167,246.5 170.833,246.5 166.5,246.5C 166.307,250.449 165.807,250.449 165,246.5C 164.193,250.449 163.693,250.449 163.5,246.5C 162.5,246.5 161.5,246.5 160.5,246.5C 166.408,245.501 173.074,245.167 180.5,245.5C 180.666,254.173 180.5,262.84 180,271.5C 179.283,270.956 178.783,270.289 178.5,269.5 Z"/></g>
<g><path style="opacity:1" fill="#c0e2f3" d="M 211.5,277.5 C 203.493,277.666 195.493,277.5 187.5,277C 185.676,276.34 184.343,275.173 183.5,273.5C 183.5,264.5 183.5,255.5 183.5,246.5C 187.833,246.5 192.167,246.5 196.5,246.5C 196.693,250.449 197.193,250.449 198,246.5C 199.204,247.471 199.704,248.471 199.5,249.5C 200.386,248.675 200.719,247.675 200.5,246.5C 204.167,246.5 207.833,246.5 211.5,246.5C 211.5,256.833 211.5,267.167 211.5,277.5 Z"/></g>
<g><path style="opacity:1" fill="#bfe2f3" d="M 243.5,246.5 C 243.5,256.833 243.5,267.167 243.5,277.5C 234.167,277.5 224.833,277.5 215.5,277.5C 215.5,267.167 215.5,256.833 215.5,246.5C 219.5,246.5 223.5,246.5 227.5,246.5C 227.238,247.978 227.571,249.311 228.5,250.5C 230.55,249.923 231.55,248.59 231.5,246.5C 235.5,246.5 239.5,246.5 243.5,246.5 Z"/></g>
<g><path style="opacity:1" fill="#c0e2f3" d="M 246.5,246.5 C 250.833,246.5 255.167,246.5 259.5,246.5C 259.693,250.449 260.193,250.449 261,246.5C 262.204,247.471 262.704,248.471 262.5,249.5C 263.386,248.675 263.719,247.675 263.5,246.5C 267.5,246.5 271.5,246.5 275.5,246.5C 275.5,256.833 275.5,267.167 275.5,277.5C 265.833,277.5 256.167,277.5 246.5,277.5C 246.5,267.167 246.5,256.833 246.5,246.5 Z"/></g>
<g><path style="opacity:1" fill="#bfe2f3" d="M 278.5,246.5 C 282.514,246.334 286.514,246.501 290.5,247C 291.833,248 291.833,249 290.5,250C 291.825,249.852 292.992,250.018 294,250.5C 295.617,249.464 295.784,248.297 294.5,247C 297.817,246.502 301.15,246.335 304.5,246.5C 304.5,256.833 304.5,267.167 304.5,277.5C 295.833,277.5 287.167,277.5 278.5,277.5C 278.5,267.167 278.5,256.833 278.5,246.5 Z"/></g>
<g><path style="opacity:1" fill="#c0e2f3" d="M 332.5,246.5 C 331.195,250.453 328.861,253.453 325.5,255.5C 323.414,253.977 321.748,254.31 320.5,256.5C 319.035,258.546 319.368,260.38 321.5,262C 317.991,267.008 313.658,271.175 308.5,274.5C 308.5,265.167 308.5,255.833 308.5,246.5C 312.833,246.5 317.167,246.5 321.5,246.5C 321.351,247.552 321.517,248.552 322,249.5C 322.807,245.551 323.307,245.551 323.5,249.5C 325.942,249.881 326.609,249.214 325.5,247.5C 327.743,246.526 330.076,246.192 332.5,246.5 Z"/></g>
<g><path style="opacity:1" fill="#f5fafd" d="M 349.5,235.5 C 353.04,239.26 357.373,241.926 362.5,243.5C 363.987,246.221 363.32,248.221 360.5,249.5C 356.132,247.766 351.798,245.932 347.5,244C 346.304,243.346 346.304,242.846 347.5,242.5C 351.983,244.745 356.65,246.411 361.5,247.5C 361.649,246.448 361.483,245.448 361,244.5C 357.851,243.004 354.684,241.504 351.5,240C 349.963,238.89 349.297,237.39 349.5,235.5 Z"/></g>
<g><path style="opacity:1" fill="#f0f8fc" d="M 141.5,242.5 C 143.379,242.393 143.712,242.893 142.5,244C 139.167,245.667 135.833,247.333 132.5,249C 137.17,248.436 141.837,248.603 146.5,249.5C 141.884,252.814 136.884,254.981 131.5,256C 134.833,254.333 138.167,252.667 141.5,251C 136.762,250.888 132.096,250.722 127.5,250.5C 132.229,247.806 136.896,245.14 141.5,242.5 Z"/></g>
<g><path style="opacity:1" fill="#fbfdfe" d="M 234.5,255.5 C 235.196,259.231 235.862,263.065 236.5,267C 235.5,267.667 234.5,267.667 233.5,267C 234.46,263.27 234.793,259.437 234.5,255.5 Z"/></g>
<g><path style="opacity:1" fill="#f8fbfd" d="M 259.5,256.5 C 259.56,255.957 259.893,255.624 260.5,255.5C 261.583,256.365 261.749,257.365 261,258.5C 260.722,257.584 260.222,256.918 259.5,256.5 Z"/></g>
<g><path style="opacity:1" fill="#f4fafd" d="M 290.5,255.5 C 291.886,259.189 293.22,263.023 294.5,267C 292.833,267.667 291.167,267.667 289.5,267C 290.46,263.27 290.793,259.437 290.5,255.5 Z"/></g>
<g><path style="opacity:1" fill="#e1f1f9" d="M 325.5,255.5 C 325.737,256.791 325.404,257.791 324.5,258.5C 323.817,256.824 322.483,256.157 320.5,256.5C 321.748,254.31 323.414,253.977 325.5,255.5 Z"/></g>
<g><path style="opacity:1" fill="#c3e3f3" d="M 320.5,256.5 C 322.483,256.157 323.817,256.824 324.5,258.5C 321.949,261.23 320.616,260.563 320.5,256.5 Z"/></g>
<g><path style="opacity:1" fill="#f1f8fc" d="M 295.5,256.5 C 297.314,255.26 298.314,255.927 298.5,258.5C 298.547,260 297.881,261 296.5,261.5C 296.593,259.89 296.26,258.224 295.5,256.5 Z"/></g>
<g><path style="opacity:1" fill="#f5fafd" d="M 343.5,248.5 C 349.023,248.178 353.523,250.178 357,254.5C 358.416,258.508 357.082,260.841 353,261.5C 348.381,260.689 344.715,258.356 342,254.5C 341.252,252.16 341.752,250.16 343.5,248.5 Z"/></g>
<g><path style="opacity:1" fill="#c0e2f3" d="M 343.5,250.5 C 347.986,249.994 351.819,251.328 355,254.5C 356.08,257.237 355.246,258.904 352.5,259.5C 347.071,258.739 344.071,255.739 343.5,250.5 Z"/></g>
<g><path style="opacity:1" fill="#f5fafd" d="M 256.5,266.5 C 258.665,266.884 260.332,266.217 261.5,264.5C 259.573,262.898 257.406,261.565 255,260.5C 254.337,255.999 254.837,255.665 256.5,259.5C 261.355,260.15 263.022,262.65 261.5,267C 259.613,267.78 257.946,267.613 256.5,266.5 Z"/></g>
<g><path style="opacity:1" fill="#f3fafc" d="M 263.5,260.5 C 264.209,259.596 265.209,259.263 266.5,259.5C 266.232,262.119 266.565,264.619 267.5,267C 266.167,267.667 264.833,267.667 263.5,267C 264.624,266.161 265.291,264.994 265.5,263.5C 265.36,261.97 264.693,260.97 263.5,260.5 Z"/></g>
<g><path style="opacity:1" fill="#f6fbfd" d="M 148.5,255.5 C 150.379,255.393 150.712,255.893 149.5,257C 145.332,259.25 141.332,261.75 137.5,264.5C 138.59,265.609 138.59,266.609 137.5,267.5C 136.167,265.5 134.833,263.5 133.5,261.5C 133.833,261.167 134.167,260.833 134.5,260.5C 135.5,261.167 136.5,261.833 137.5,262.5C 141.401,260.392 145.067,258.059 148.5,255.5 Z"/></g>
<g><path style="opacity:1" fill="#ebf6fb" d="M 203.5,264.5 C 201.846,261.795 202.513,259.795 205.5,258.5C 206.72,259.711 207.887,259.711 209,258.5C 209.5,259 210,259.5 210.5,260C 209.151,260.772 208.318,261.939 208,263.5C 207.517,262.552 207.351,261.552 207.5,260.5C 206.5,260.5 205.5,260.5 204.5,260.5C 204.33,261.822 204.663,262.989 205.5,264C 204.906,264.464 204.239,264.631 203.5,264.5 Z"/></g>
<g><path style="opacity:1" fill="#ebf6fb" d="M 187.5,255.5 C 188.568,254.566 189.901,254.232 191.5,254.5C 192.747,265.623 194.58,265.956 197,255.5C 198.388,254.446 199.888,254.28 201.5,255C 200.267,256.698 199.6,258.698 199.5,261C 199.6,263.302 200.267,265.302 201.5,267C 199.833,267.667 198.167,267.667 196.5,267C 197.602,264.599 197.769,262.099 197,259.5C 196.197,262.244 195.197,264.911 194,267.5C 192.672,264.214 191.339,260.881 190,257.5C 188.996,260.993 189.496,264.159 191.5,267C 190.167,267.667 188.833,267.667 187.5,267C 188.821,263.066 188.821,259.233 187.5,255.5 Z"/></g>
<g><path style="opacity:1" fill="#f0f8fc" d="M 226.5,254.5 C 228.393,258.659 230.393,262.826 232.5,267C 231.167,267.667 229.833,267.667 228.5,267C 229.833,266 229.833,265 228.5,264C 226.744,263.798 225.078,263.298 223.5,262.5C 224.909,262.346 226.576,262.179 228.5,262C 225.853,259.91 225.186,257.41 226.5,254.5 Z"/></g>
<g><path style="opacity:1" fill="#f8fcfe" d="M 256.5,266.5 C 255.883,266.611 255.383,266.944 255,267.5C 254.346,262.96 254.846,262.627 256.5,266.5 Z"/></g>
<g><path style="opacity:1" fill="#f6fbfd" d="M 337.5,257.5 C 342.057,260.366 346.557,263.366 351,266.5C 351.265,268.163 350.765,269.663 349.5,271C 347.025,270.743 347.025,269.743 349.5,268C 346.113,264.947 342.447,262.28 338.5,260C 337.748,259.329 337.414,258.496 337.5,257.5 Z"/></g>
<g><path style="opacity:1" fill="#e8f4fa" d="M 203.5,264.5 C 204.997,265.306 206.664,265.972 208.5,266.5C 209.521,267.002 209.688,267.668 209,268.5C 206.733,267.065 204.733,267.398 203,269.5C 203.252,267.719 203.419,266.052 203.5,264.5 Z"/></g>
<g><path style="opacity:1" fill="#edf7fb" d="M 222.5,264.5 C 225.377,266.846 225.044,267.679 221.5,267C 222.252,266.329 222.586,265.496 222.5,264.5 Z"/></g>
<g><path style="opacity:1" fill="#f3f9fc" d="M 332.5,264.5 C 337.132,267.798 341.466,271.464 345.5,275.5C 345.333,275.833 345.167,276.167 345,276.5C 342,273.833 339,271.167 336,268.5C 337.482,272.476 339.315,276.476 341.5,280.5C 341.167,280.833 340.833,281.167 340.5,281.5C 335.848,278.179 331.515,274.513 327.5,270.5C 328.002,269.479 328.668,269.312 329.5,270C 331.727,272.935 334.394,274.935 337.5,276C 335.136,272.441 333.469,268.608 332.5,264.5 Z"/></g>
<g><path style="opacity:1" fill="#f5fafd" d="M 152.5,261.5 C 157.054,263.388 157.72,266.388 154.5,270.5C 151.341,274.275 147.341,275.775 142.5,275C 140.579,273.759 140.246,272.259 141.5,270.5C 143.441,273.334 146.107,274.168 149.5,273C 151,271.5 152.5,270 154,268.5C 154.6,265.905 154.1,263.571 152.5,261.5 Z"/></g>
<g><path style="opacity:1" fill="#f5fbfd" d="M 159.5,270.5 C 160.239,270.369 160.906,270.536 161.5,271C 159.649,272.684 157.982,274.517 156.5,276.5C 159.225,280.451 161.892,280.284 164.5,276C 165.167,275.333 165.833,275.333 166.5,276C 162.238,279.717 158.072,283.55 154,287.5C 155,285.167 156,282.833 157,280.5C 154.427,277.995 152.26,278.495 150.5,282C 149.668,282.688 149.002,282.521 148.5,281.5C 152.521,278.146 156.188,274.479 159.5,270.5 Z"/></g>
<g><path style="opacity:1" fill="#f4fafd" d="M 324.5,273.5 C 329.362,277.178 333.195,281.512 336,286.5C 333.333,283.833 330.667,281.167 328,278.5C 329.282,282.743 330.282,287.076 331,291.5C 326.984,287.652 323.151,283.652 319.5,279.5C 319.667,279.167 319.833,278.833 320,278.5C 322.667,281.167 325.333,283.833 328,286.5C 326.761,282.269 325.594,277.935 324.5,273.5 Z"/></g>
<g><path style="opacity:1" fill="#d7edf7" d="M 236.5,295.5 C 238.833,295.5 241.167,295.5 243.5,295.5C 243.5,290.833 243.5,286.167 243.5,281.5C 239.833,281.5 236.167,281.5 232.5,281.5C 232.307,285.449 231.807,285.449 231,281.5C 230.239,285.251 229.072,285.417 227.5,282C 223.514,281.501 219.514,281.334 215.5,281.5C 215.5,284.833 215.5,288.167 215.5,291.5C 214.518,288.038 214.185,284.371 214.5,280.5C 224.5,280.5 234.5,280.5 244.5,280.5C 244.5,285.833 244.5,291.167 244.5,296.5C 241.615,296.806 238.948,296.473 236.5,295.5 Z"/></g>
<g><path style="opacity:1" fill="#d3eaf6" d="M 210.5,289.5 C 211.473,287.052 211.806,284.385 211.5,281.5C 207.833,281.5 204.167,281.5 200.5,281.5C 200.5,282.833 200.5,284.167 200.5,285.5C 198.195,284.011 195.862,282.511 193.5,281C 199.825,280.5 206.158,280.334 212.5,280.5C 212.82,283.898 212.487,287.232 211.5,290.5C 210.893,290.376 210.56,290.043 210.5,289.5 Z"/></g>
<g><path style="opacity:1" fill="#bfe2f3" d="M 210.5,289.5 C 207.167,288.167 203.833,286.833 200.5,285.5C 200.5,284.167 200.5,282.833 200.5,281.5C 204.167,281.5 207.833,281.5 211.5,281.5C 211.806,284.385 211.473,287.052 210.5,289.5 Z"/></g>
<g><path style="opacity:1" fill="#c0e2f3" d="M 236.5,295.5 C 234.473,295.662 232.473,295.495 230.5,295C 229.809,293.933 229.309,292.766 229,291.5C 228.517,292.448 228.351,293.448 228.5,294.5C 224.035,293.967 219.702,292.967 215.5,291.5C 215.5,288.167 215.5,284.833 215.5,281.5C 219.514,281.334 223.514,281.501 227.5,282C 229.072,285.417 230.239,285.251 231,281.5C 231.807,285.449 232.307,285.449 232.5,281.5C 236.167,281.5 239.833,281.5 243.5,281.5C 243.5,286.167 243.5,290.833 243.5,295.5C 241.167,295.5 238.833,295.5 236.5,295.5 Z"/></g>
<g><path style="opacity:1" fill="#c0e2f3" d="M 275.5,281.5 C 275.5,285.167 275.5,288.833 275.5,292.5C 271.803,293.008 268.136,293.674 264.5,294.5C 264.67,293.178 264.337,292.011 263.5,291C 260.304,290.195 257.304,290.362 254.5,291.5C 254.5,293.167 254.5,294.833 254.5,296.5C 252.167,296.5 249.833,296.5 247.5,296.5C 247.5,291.5 247.5,286.5 247.5,281.5C 251.182,281.335 254.848,281.501 258.5,282C 258.93,282.92 259.264,283.753 259.5,284.5C 260.192,283.975 260.692,283.308 261,282.5C 261.423,283.956 262.256,284.456 263.5,284C 262.167,283.333 262.167,282.667 263.5,282C 267.486,281.501 271.486,281.334 275.5,281.5 Z"/></g>
<g><path style="opacity:1" fill="#c0e2f3" d="M 278.5,281.5 C 282.514,281.334 286.514,281.501 290.5,282C 290.043,282.414 289.709,282.914 289.5,283.5C 290.636,283.964 291.636,284.298 292.5,284.5C 288.309,287.458 283.642,289.458 278.5,290.5C 278.5,287.5 278.5,284.5 278.5,281.5 Z"/></g>
<g><path style="opacity:1" fill="#cde8f5" d="M 278.5,281.5 C 285.321,280.345 292.321,280.179 299.5,281C 297.423,282.705 295.09,283.872 292.5,284.5C 291.636,284.298 290.636,283.964 289.5,283.5C 289.709,282.914 290.043,282.414 290.5,282C 286.514,281.501 282.514,281.334 278.5,281.5 Z"/></g>
<g><path style="opacity:1" fill="#cfe9f6" d="M 275.5,281.5 C 271.486,281.334 267.486,281.501 263.5,282C 262.167,282.667 262.167,283.333 263.5,284C 262.256,284.456 261.423,283.956 261,282.5C 260.692,283.308 260.192,283.975 259.5,284.5C 259.264,283.753 258.93,282.92 258.5,282C 254.848,281.501 251.182,281.335 247.5,281.5C 247.5,286.5 247.5,291.5 247.5,296.5C 246.512,291.36 246.179,286.026 246.5,280.5C 256.348,280.173 266.014,280.506 275.5,281.5 Z"/></g>
<g><path style="opacity:1" fill="#f4fafd" d="M 166.5,293.5 C 167.543,290.944 169.21,288.777 171.5,287C 171.167,286.833 170.833,286.667 170.5,286.5C 166.833,288.5 163.167,290.5 159.5,292.5C 159.167,292.167 158.833,291.833 158.5,291.5C 161.81,287.022 165.31,282.689 169,278.5C 168.179,282.366 166.013,285.533 162.5,288C 166.732,286.386 171.066,285.053 175.5,284C 172.999,287.667 169.999,290.834 166.5,293.5 Z"/></g>
<g><path style="opacity:1" fill="#d1eaf6" d="M 254.5,291.5 C 257.304,290.362 260.304,290.195 263.5,291C 264.337,292.011 264.67,293.178 264.5,294.5C 262.958,295.301 261.292,295.634 259.5,295.5C 259.167,290.167 258.833,290.167 258.5,295.5C 257.5,295.5 256.5,295.5 255.5,295.5C 255.33,294.178 255.663,293.011 256.5,292C 255.906,291.536 255.239,291.369 254.5,291.5 Z"/></g>
<g><path style="opacity:1" fill="#e8f4fa" d="M 334.5,288.5 C 338.267,289.233 338.434,290.567 335,292.5C 333.232,291.318 333.065,289.985 334.5,288.5 Z"/></g>
<g><path style="opacity:1" fill="#eef7fc" d="M 166.5,293.5 C 166.489,295.686 165.489,296.519 163.5,296C 164.373,294.955 165.373,294.122 166.5,293.5 Z"/></g>
<g><path style="opacity:1" fill="#f9fcfd" d="M 281.5,301.5 C 282.75,301.577 283.583,302.244 284,303.5C 284.943,306.824 285.776,310.157 286.5,313.5C 287.978,313.238 289.311,313.571 290.5,314.5C 289.675,315.386 288.675,315.719 287.5,315.5C 287.833,317.5 288.167,319.5 288.5,321.5C 287.5,321.5 286.5,321.5 285.5,321.5C 285.884,319.335 285.217,317.668 283.5,316.5C 280.273,317.909 276.94,318.909 273.5,319.5C 275.118,312.94 277.784,306.94 281.5,301.5 Z"/></g>
<g><path style="opacity:1" fill="#f7fbfd" d="M 215.5,303.5 C 217.167,303.5 218.833,303.5 220.5,303.5C 219.477,310.255 218.143,316.921 216.5,323.5C 215.5,323.5 214.5,323.5 213.5,323.5C 214.34,317.805 215.34,312.139 216.5,306.5C 212.995,306.306 212.662,305.306 215.5,303.5 Z"/></g>
<g><path style="opacity:1" fill="#fbfdfe" d="M 234.5,306.5 C 245.094,306.616 248.261,311.616 244,321.5C 240.863,326.156 236.696,327.49 231.5,325.5C 236.441,325.367 240.108,323.2 242.5,319C 239.572,319.456 236.572,319.456 233.5,319C 229.379,314.537 229.713,310.37 234.5,306.5 Z"/></g>
<g><path style="opacity:1" fill="#f8fbfd" d="M 261.5,305.5 C 263.167,305.5 264.833,305.5 266.5,305.5C 263.833,312.833 261.167,320.167 258.5,327.5C 257.5,327.5 256.5,327.5 255.5,327.5C 257.637,321.09 259.97,314.756 262.5,308.5C 259.091,308.249 255.758,308.583 252.5,309.5C 251.614,308.675 251.281,307.675 251.5,306.5C 255.042,306.813 258.375,306.479 261.5,305.5 Z"/></g>
<g><path style="opacity:1" fill="#c5e4f4" d="M 280.5,305.5 C 282.41,308.452 283.41,311.786 283.5,315.5C 281.085,315.627 278.751,315.793 276.5,316C 278.33,312.676 279.663,309.176 280.5,305.5 Z"/></g>
<g><path style="opacity:1" fill="#fbfdfe" d="M 191.5,307.5 C 197.704,307.314 199.037,309.814 195.5,315C 190.632,314.711 189.299,312.211 191.5,307.5 Z"/></g>
<g><path style="opacity:1" fill="#fafcfe" d="M 300.5,307.5 C 306.488,307.664 307.821,310.164 304.5,315C 298.403,315.147 297.07,312.647 300.5,307.5 Z"/></g>
<g><path style="opacity:1" fill="#c2e3f3" d="M 235.5,308.5 C 241.989,308.156 243.989,310.99 241.5,317C 233.749,318.091 231.749,315.258 235.5,308.5 Z"/></g>
<g><path style="opacity:1" fill="#fbfdfe" d="M 219.5,371.5 C 221.467,371.261 223.301,371.594 225,372.5C 228.474,381.757 231.641,391.09 234.5,400.5C 230.078,401.021 227.745,399.021 227.5,394.5C 223.893,393.511 220.226,393.177 216.5,393.5C 216.995,399.231 214.662,401.231 209.5,399.5C 212.85,390.141 216.183,380.808 219.5,371.5 Z"/></g>
<g><path style="opacity:1" fill="#f9fcfd" d="M 240.5,372.5 C 246.167,372.5 251.833,372.5 257.5,372.5C 257.5,373.833 257.5,375.167 257.5,376.5C 253.833,376.5 250.167,376.5 246.5,376.5C 246.5,384.5 246.5,392.5 246.5,400.5C 244.5,400.5 242.5,400.5 240.5,400.5C 240.5,391.167 240.5,381.833 240.5,372.5 Z"/></g>
<g><path style="opacity:1" fill="#fafdfe" d="M 260.5,371.5 C 262.467,371.261 264.301,371.594 266,372.5C 268.246,377.326 270.746,381.992 273.5,386.5C 275.814,382.065 277.647,377.398 279,372.5C 280.699,371.594 282.533,371.261 284.5,371.5C 281.696,380.74 278.196,389.74 274,398.5C 270.414,402.468 266.914,402.468 263.5,398.5C 266.167,397.167 268.833,395.833 271.5,394.5C 267.549,386.933 263.883,379.266 260.5,371.5 Z"/></g>
<g><path style="opacity:1" fill="#c6e5f4" d="M 221.5,377.5 C 223.432,381.195 224.765,385.195 225.5,389.5C 223.167,389.5 220.833,389.5 218.5,389.5C 219.5,385.5 220.5,381.5 221.5,377.5 Z"/></g>
<g><path style="opacity:1" fill="#fafdfe" d="M 196.5,383.5 C 199.352,383.352 201.019,384.686 201.5,387.5C 199.167,392.833 196.833,392.833 194.5,387.5C 194.752,385.927 195.418,384.594 196.5,383.5 Z"/></g>
<g><path style="opacity:1" fill="#f9fcfd" d="M 293.5,383.5 C 296.352,383.352 298.019,384.686 298.5,387.5C 296.118,392.813 293.785,392.813 291.5,387.5C 291.803,385.886 292.47,384.552 293.5,383.5 Z"/></g>
</svg>
