<?xml version="1.0" encoding="UTF-8"?>
<!DOCTYPE svg PUBLIC "-//W3C//DTD SVG 1.1//EN" "http://www.w3.org/Graphics/SVG/1.1/DTD/svg11.dtd">
<svg xmlns="http://www.w3.org/2000/svg" version="1.1" width="500px" height="500px" style="shape-rendering:geometricPrecision; text-rendering:geometricPrecision; image-rendering:optimizeQuality; fill-rule:evenodd; clip-rule:evenodd" xmlns:xlink="http://www.w3.org/1999/xlink">
<g><path style="opacity:0.997" fill="#24a273" d="M 250.5,499.5 C 249.5,499.5 248.5,499.5 247.5,499.5C 161.392,470.563 101.225,413.897 67,329.5C 57.5469,305.02 51.8803,279.687 50,253.5C 49.5,169.167 49.3333,84.834 49.5,0.5C 182.833,0.5 316.167,0.5 449.5,0.5C 449.667,81.834 449.5,163.167 449,244.5C 442.425,331.162 405.258,401.329 337.5,455C 310.961,474.603 281.961,489.437 250.5,499.5 Z"/></g>
<g><path style="opacity:1" fill="#f6fbf9" d="M 227.5,61.5 C 288.271,57.2995 334.438,80.9662 366,132.5C 390.566,183.219 387.566,232.219 357,279.5C 318.781,327.132 269.615,344.632 209.5,332C 161.682,317.674 129.849,286.84 114,239.5C 98.9566,183.157 112.457,134.99 154.5,95C 175.851,77.3246 200.184,66.1579 227.5,61.5 Z"/></g>
<g><path style="opacity:1" fill="#2ea577" d="M 237.5,66.5 C 301.558,66.9217 345.725,96.5884 370,155.5C 386.053,211.8 372.886,259.967 330.5,300C 294.172,328.334 253.506,337.001 208.5,326C 154.567,307.396 123.067,269.896 114,213.5C 110.517,157.298 132.35,114.131 179.5,84C 197.67,73.798 217.003,67.9647 237.5,66.5 Z"/></g>
<g><path style="opacity:1" fill="#e0f2eb" d="M 225.5,69.5 C 231.989,72.4889 234.156,77.4889 232,84.5C 228.847,88.1523 225.847,87.8189 223,83.5C 222.421,81.3513 221.921,79.1846 221.5,77C 222.625,74.3784 223.959,71.8784 225.5,69.5 Z"/></g>
<g><path style="opacity:1" fill="#3baa7f" d="M 224.5,73.5 C 225.725,74.1522 226.392,75.3189 226.5,77C 227.29,79.5817 227.29,82.0817 226.5,84.5C 223.427,81.3337 222.76,77.667 224.5,73.5 Z"/></g>
<g><path style="opacity:1" fill="#3baa7f" d="M 227.5,72.5 C 231.838,75.8592 232.504,79.8592 229.5,84.5C 228.368,80.5736 227.701,76.5736 227.5,72.5 Z"/></g>
<g><path style="opacity:1" fill="#e2f3ec" d="M 203.5,75.5 C 208.092,74.9162 210.925,76.9162 212,81.5C 213.023,85.3169 212.523,88.8169 210.5,92C 206.796,92.0445 204.296,90.2112 203,86.5C 200.888,82.6168 201.055,78.9501 203.5,75.5 Z"/></g>
<g><path style="opacity:1" fill="#cce9dd" d="M 260.5,69.5 C 261.496,69.4142 262.329,69.7476 263,70.5C 262.503,84.9799 264.17,85.6465 268,72.5C 269.342,71.0977 270.176,71.4311 270.5,73.5C 269.929,78.5537 269.095,83.5537 268,88.5C 267.674,84.4695 267.674,80.4695 268,76.5C 262.958,91.1804 260.625,90.5138 261,74.5C 260.488,78.5734 259.655,82.5734 258.5,86.5C 258.167,85.8333 257.833,85.1667 257.5,84.5C 258.631,79.5129 259.631,74.5129 260.5,69.5 Z"/></g>
<g><path style="opacity:1" fill="#def1e9" d="M 238.5,69.5 C 239.5,69.5 240.5,69.5 241.5,69.5C 242.18,74.2206 243.18,78.8872 244.5,83.5C 244.333,84.1667 244.167,84.8333 244,85.5C 242.991,83.9751 242.491,82.3084 242.5,80.5C 241.167,80.5 239.833,80.5 238.5,80.5C 238.509,82.3084 238.009,83.9751 237,85.5C 236.731,80.1093 237.231,74.776 238.5,69.5 Z"/></g>
<g><path style="opacity:1" fill="#48ae85" d="M 239.5,72.5 C 240.612,74.5994 241.279,76.9327 241.5,79.5C 240.325,79.719 239.325,79.3857 238.5,78.5C 239.348,76.5914 239.682,74.5914 239.5,72.5 Z"/></g>
<g><path style="opacity:1" fill="#d0ebe0" d="M 248.5,68.5 C 255.199,68.3124 257.199,71.3124 254.5,77.5C 253.15,78.9501 251.484,79.6168 249.5,79.5C 249.662,81.5273 249.495,83.5273 249,85.5C 248.501,79.8431 248.334,74.1764 248.5,68.5 Z"/></g>
<g><path style="opacity:1" fill="#2ca476" d="M 250.5,70.5 C 252.722,70.5587 253.722,71.7253 253.5,74C 253.612,75.6624 252.946,76.8291 251.5,77.5C 250.526,75.2573 250.192,72.924 250.5,70.5 Z"/></g>
<g><path style="opacity:1" fill="#34a77a" d="M 204.5,76.5 C 207.99,77.3969 210.156,79.7302 211,83.5C 212.09,86.579 211.257,88.9124 208.5,90.5C 203.782,86.8357 202.449,82.169 204.5,76.5 Z"/></g>
<g><path style="opacity:1" fill="#d6ede4" d="M 278.5,73.5 C 279.816,76.0866 280.483,79.0866 280.5,82.5C 280.167,85.5 279.833,88.5 279.5,91.5C 278.218,83.5727 275.718,82.906 272,89.5C 271.833,89 271.667,88.5 271.5,88C 274.237,83.3588 276.571,78.5255 278.5,73.5 Z"/></g>
<g><path style="opacity:1" fill="#65bb99" d="M 278.5,76.5 C 279.468,78.6074 279.802,80.9407 279.5,83.5C 278.5,83.5 277.5,83.5 276.5,83.5C 276.878,81.079 277.545,78.7457 278.5,76.5 Z"/></g>
<g><path style="opacity:1" fill="#dcf0e8" d="M 215.5,81.5 C 216.978,81.238 218.311,81.5713 219.5,82.5C 218.833,82.8333 218.167,83.1667 217.5,83.5C 216.287,83.2528 215.62,82.5862 215.5,81.5 Z"/></g>
<g><path style="opacity:1" fill="#d9efe6" d="M 194.5,78.5 C 196.094,81.0609 197.094,84.0609 197.5,87.5C 200.024,89.1901 202.024,91.3568 203.5,94C 202.833,94.6667 202.167,94.6667 201.5,94C 200.442,90.7091 198.442,89.5424 195.5,90.5C 196.548,92.4559 197.048,94.4559 197,96.5C 194.713,92.0919 192.546,87.5919 190.5,83C 190.611,81.2785 191.111,81.1118 192,82.5C 192.471,84.2464 193.138,85.913 194,87.5C 194.498,84.5184 194.665,81.5184 194.5,78.5 Z"/></g>
<g><path style="opacity:1" fill="#dcf0e8" d="M 310.5,87.5 C 313.042,87.7059 314.709,89.0392 315.5,91.5C 313.032,94.4724 311.198,97.8057 310,101.5C 307.313,104.204 304.813,104.037 302.5,101C 304.979,96.3624 307.645,91.8624 310.5,87.5 Z"/></g>
<g><path style="opacity:1" fill="#f3faf7" d="M 288.5,76.5 C 288.692,81.2989 287.359,85.9656 284.5,90.5C 286.122,92.4386 287.956,92.772 290,91.5C 291.471,87.4189 293.138,83.4189 295,79.5C 295.167,80 295.333,80.5 295.5,81C 292.645,87.3097 290.812,93.8097 290,100.5C 328.169,120.309 348.335,151.809 350.5,195C 348.968,240.761 327.634,273.428 286.5,293C 235.302,310.746 192.802,298.579 159,256.5C 139.409,225.771 135.409,193.105 147,158.5C 163.085,120.429 191.585,97.9293 232.5,91C 251.512,89.5028 269.845,92.3362 287.5,99.5C 288.357,98.2643 289.023,96.931 289.5,95.5C 287.098,94.4246 284.764,93.2579 282.5,92C 284.796,86.9442 286.796,81.7776 288.5,76.5 Z"/></g>
<g><path style="opacity:1" fill="#35a87c" d="M 310.5,89.5 C 312.252,89.4176 313.252,90.2509 313.5,92C 312.499,94.5021 310.833,95.0021 308.5,93.5C 309.63,92.3777 310.297,91.0443 310.5,89.5 Z"/></g>
<g><path style="opacity:1" fill="#dcf0e8" d="M 188.5,91.5 C 190.749,93.3307 191.915,95.6641 192,98.5C 190.295,96.4234 189.128,94.09 188.5,91.5 Z"/></g>
<g><path style="opacity:1" fill="#dbefe7" d="M 188.5,91.5 C 187.883,91.3893 187.383,91.056 187,90.5C 186.997,94.5666 186.83,98.5666 186.5,102.5C 183.375,97.7505 180.375,92.9172 177.5,88C 180.899,90.4669 183.399,93.9669 185,98.5C 185.079,94.1275 184.579,89.7942 183.5,85.5C 184.274,84.2888 185.107,84.2888 186,85.5C 187.122,87.4068 187.955,89.4068 188.5,91.5 Z"/></g>
<g><path style="opacity:1" fill="#d3ece3" d="M 171.5,91.5 C 175.978,94.82 179.645,98.9867 182.5,104C 182.452,105.033 182.119,105.366 181.5,105C 173.636,93.3753 172.636,94.042 178.5,107C 178.333,107.5 178.167,108 178,108.5C 170.277,100.244 168.944,100.91 174,110.5C 170.71,106.088 167.544,101.588 164.5,97C 165.5,96.3333 166.5,96.3333 167.5,97C 169.907,99.2848 172.407,101.451 175,103.5C 173.965,99.5504 172.798,95.5504 171.5,91.5 Z"/></g>
<g><path style="opacity:1" fill="#e4f3ed" d="M 300.5,82.5 C 302.842,82.5041 304.842,83.3375 306.5,85C 302.915,83.459 300.581,84.6257 299.5,88.5C 303.567,92.0246 303.401,92.6913 299,90.5C 295.582,93.5108 295.749,96.1774 299.5,98.5C 297.316,99.1081 295.316,98.4414 293.5,96.5C 296.372,92.0901 298.705,87.4235 300.5,82.5 Z"/></g>
<g><path style="opacity:1" fill="#e0f2eb" d="M 318.5,94.5 C 319.251,93.4265 320.251,93.2599 321.5,94C 322.868,95.3402 324.201,96.6736 325.5,98C 325.333,98.5 325.167,99 325,99.5C 324.163,97.9926 322.996,97.4926 321.5,98C 318.955,101.59 316.288,105.09 313.5,108.5C 312.479,107.998 312.312,107.332 313,106.5C 315.743,103.346 318.243,100.012 320.5,96.5C 320.145,95.4777 319.478,94.811 318.5,94.5 Z"/></g>
<g><path style="opacity:1" fill="#25a273" d="M 182.5,208.5 C 183.144,196.784 182.478,185.451 180.5,174.5C 170.013,173.506 159.346,173.172 148.5,173.5C 159.452,133.382 185.118,108.215 225.5,98C 276.646,91.3189 313.812,110.819 337,156.5C 343.908,173.161 346.408,190.494 344.5,208.5C 290.5,208.5 236.5,208.5 182.5,208.5 Z"/></g>
<g><path style="opacity:1" fill="#35a77b" d="M 306.5,95.5 C 309.244,96.0717 310.077,97.7383 309,100.5C 307.506,101.747 306.006,101.747 304.5,100.5C 305.456,98.9246 306.123,97.258 306.5,95.5 Z"/></g>
<g><path style="opacity:1" fill="#cce9de" d="M 327.5,103.5 C 327.511,101.314 328.511,100.481 330.5,101C 329.627,102.045 328.627,102.878 327.5,103.5 Z"/></g>
<g><path style="opacity:1" fill="#d8eee5" d="M 159.5,101.5 C 164.362,105.178 168.195,109.512 171,114.5C 161.647,103.196 160.147,104.196 166.5,117.5C 166.167,117.833 165.833,118.167 165.5,118.5C 160.544,115.074 157.044,110.741 155,105.5C 157.295,108.797 159.962,111.797 163,114.5C 161.768,110.285 160.601,105.952 159.5,101.5 Z"/></g>
<g><path style="opacity:1" fill="#d1ebe1" d="M 327.5,103.5 C 326.797,105.716 325.464,107.549 323.5,109C 323.833,109.167 324.167,109.333 324.5,109.5C 328.035,107.598 331.702,106.431 335.5,106C 331.298,109.867 327.465,114.033 324,118.5C 323.333,117.833 323.333,117.167 324,116.5C 326.19,114.612 328.023,112.445 329.5,110C 325.566,111.199 321.566,112.199 317.5,113C 320.703,109.629 324.036,106.462 327.5,103.5 Z"/></g>
<g><path style="opacity:1" fill="#d8eee5" d="M 149.5,110.5 C 151.658,112.524 153.324,115.024 154.5,118C 157.292,118.897 159.959,120.063 162.5,121.5C 162.167,121.833 161.833,122.167 161.5,122.5C 159.669,121.071 157.669,120.571 155.5,121C 157.088,122.987 157.921,125.154 158,127.5C 156.291,124.582 154.458,121.748 152.5,119C 149.968,118.381 147.635,117.381 145.5,116C 147.587,116.218 149.587,116.051 151.5,115.5C 150.544,113.925 149.877,112.258 149.5,110.5 Z"/></g>
<g><path style="opacity:1" fill="#e1f2eb" d="M 337.5,110.5 C 338.239,110.369 338.906,110.536 339.5,111C 338,112.5 336.5,114 335,115.5C 334.562,119.534 336.062,120.367 339.5,118C 340.667,116.833 341.833,115.667 343,114.5C 343.167,114.833 343.333,115.167 343.5,115.5C 339.526,119.138 335.526,122.805 331.5,126.5C 331.167,126.167 330.833,125.833 330.5,125.5C 332.316,124.185 333.983,122.685 335.5,121C 332.8,120.051 331.967,118.217 333,115.5C 334.707,113.963 336.207,112.296 337.5,110.5 Z"/></g>
<g><path style="opacity:1" fill="#e5f4ee" d="M 345.5,120.5 C 347.973,120.736 349.64,122.069 350.5,124.5C 350.167,124.833 349.833,125.167 349.5,125.5C 347.29,121.745 344.956,121.745 342.5,125.5C 343.167,126.5 343.833,127.5 344.5,128.5C 344.167,128.833 343.833,129.167 343.5,129.5C 342.281,128.737 341.281,127.737 340.5,126.5C 338.833,127.667 337.167,128.833 335.5,130C 337.211,131.133 337.711,132.633 337,134.5C 335.471,133.271 334.304,131.771 333.5,130C 337.399,126.589 341.399,123.422 345.5,120.5 Z"/></g>
<g><path style="opacity:1" fill="#d0ebe1" d="M 143.5,128.5 C 146.778,129.809 149.778,131.642 152.5,134C 151.092,134.315 149.759,133.982 148.5,133C 146.382,131.951 144.716,130.451 143.5,128.5 Z"/></g>
<g><path style="opacity:1" fill="#e6f4ee" d="M 349.5,130.5 C 351.564,130.687 353.564,131.187 355.5,132C 356.517,133.049 356.684,134.216 356,135.5C 351.536,131.576 347.202,131.909 343,136.5C 342.843,138.995 342.676,141.328 342.5,143.5C 340.047,141.004 339.88,138.338 342,135.5C 344.426,133.548 346.926,131.881 349.5,130.5 Z"/></g>
<g><path style="opacity:1" fill="#def1ea" d="M 143.5,128.5 C 142.761,128.369 142.094,128.536 141.5,129C 145.132,132.495 147.466,136.329 148.5,140.5C 143.457,137.985 138.79,134.985 134.5,131.5C 138.167,132.437 141.667,134.437 145,137.5C 143.414,133.688 141.248,130.021 138.5,126.5C 140.578,125.693 142.245,126.359 143.5,128.5 Z"/></g>
<g><path style="opacity:1" fill="#fafdfc" d="M 187.5,133.5 C 190.39,136.553 193.724,139.053 197.5,141C 207.798,142.53 218.132,143.863 228.5,145C 237.038,146.877 243.204,151.711 247,159.5C 251.819,149.993 259.652,144.826 270.5,144C 278.842,143.066 287.175,142.066 295.5,141C 299.241,139.262 302.408,136.762 305,133.5C 306.455,147.109 300.622,155.609 287.5,159C 270.926,158.348 257.259,164.181 246.5,176.5C 239.917,168.034 231.25,162.867 220.5,161C 215.201,160.07 209.867,159.403 204.5,159C 192.367,155 186.7,146.5 187.5,133.5 Z"/></g>
<g><path style="opacity:1" fill="#c8e7db" d="M 128.5,143.5 C 128.735,142.903 129.235,142.57 130,142.5C 135.041,144.272 139.875,146.439 144.5,149C 144,149.167 143.5,149.333 143,149.5C 140.305,147.886 137.472,147.052 134.5,147C 137.206,149.371 139.539,152.037 141.5,155C 135.809,154.163 130.475,152.163 125.5,149C 126,148.833 126.5,148.667 127,148.5C 130.113,150.155 133.28,151.321 136.5,152C 133.601,149.271 130.934,146.438 128.5,143.5 Z"/></g>
<g><path style="opacity:1" fill="#d9efe7" d="M 358.5,139.5 C 359.773,140.077 359.773,140.743 358.5,141.5C 356.833,142.333 355.167,143.167 353.5,144C 365.34,145.337 365.34,146.504 353.5,147.5C 351.833,149.833 349.833,151.833 347.5,153.5C 346.479,152.998 346.312,152.332 347,151.5C 350.291,150.442 351.458,148.442 350.5,145.5C 348.669,146.929 346.669,147.429 344.5,147C 349.387,144.726 354.054,142.226 358.5,139.5 Z"/></g>
<g><path style="opacity:1" fill="#cdeadf" d="M 362.5,150.5 C 364.705,150.846 364.872,151.513 363,152.5C 359.5,153.667 356,154.833 352.5,156C 357.143,156.83 361.81,157.497 366.5,158C 361.438,160.688 356.104,162.355 350.5,163C 354.09,161.47 357.757,160.136 361.5,159C 357.179,158.501 352.846,158.334 348.5,158.5C 348.5,157.5 348.5,156.5 348.5,155.5C 353.534,154.602 358.201,152.935 362.5,150.5 Z"/></g>
<g><path style="opacity:1" fill="#d1ebe1" d="M 130.5,157.5 C 133.688,157.618 136.688,158.451 139.5,160C 136.087,160.471 133.087,159.638 130.5,157.5 Z"/></g>
<g><path style="opacity:1" fill="#d0ebe1" d="M 130.5,157.5 C 129.448,157.351 128.448,157.517 127.5,158C 130.667,160.5 133.833,163 137,165.5C 137.688,166.332 137.521,166.998 136.5,167.5C 131.296,166.12 126.296,164.286 121.5,162C 124.944,162.086 128.277,162.92 131.5,164.5C 131.833,164.333 132.167,164.167 132.5,164C 129.076,161.62 126.076,158.787 123.5,155.5C 123.667,155.167 123.833,154.833 124,154.5C 126.415,155.132 128.582,156.132 130.5,157.5 Z"/></g>
<g><path style="opacity:1" fill="#d6eee5" d="M 366.5,163.5 C 367.376,163.369 368.043,163.702 368.5,164.5C 366.833,165.833 365.167,167.167 363.5,168.5C 365.423,169.308 367.423,169.808 369.5,170C 366.167,170.333 362.833,170.667 359.5,171C 357.631,172.602 355.631,173.602 353.5,174C 354.984,172.426 356.651,171.093 358.5,170C 356.048,169.71 353.715,169.044 351.5,168C 355.167,167.667 358.833,167.333 362.5,167C 364.324,166.34 365.657,165.173 366.5,163.5 Z"/></g>
<g><path style="opacity:1" fill="#c7e7db" d="M 148.5,173.5 C 159.346,173.172 170.013,173.506 180.5,174.5C 169.781,174.19 159.115,174.523 148.5,175.5C 147.227,174.743 147.227,174.077 148.5,173.5 Z"/></g>
<g><path style="opacity:1" fill="#c8e8db" d="M 119.5,168.5 C 124.9,168.933 130.233,169.766 135.5,171C 131.787,171.405 128.121,171.405 124.5,171C 127.994,172.579 131.327,174.413 134.5,176.5C 130.878,177.325 127.211,177.825 123.5,178C 126.883,178.875 130.216,179.875 133.5,181C 128.102,180.821 122.769,179.987 117.5,178.5C 117.5,177.5 117.5,176.5 117.5,175.5C 121.514,175.666 125.514,175.499 129.5,175C 125.523,173.531 122.19,171.365 119.5,168.5 Z"/></g>
<g><path style="opacity:1" fill="#2ba476" d="M 150.5,176.5 C 160.167,176.5 169.833,176.5 179.5,176.5C 179.5,187.167 179.5,197.833 179.5,208.5C 169.833,208.5 160.167,208.5 150.5,208.5C 150.5,197.833 150.5,187.167 150.5,176.5 Z"/></g>
<g><path style="opacity:1" fill="#d3ece2" d="M 369.5,180.5 C 370.748,181.334 371.415,182.667 371.5,184.5C 371.333,185.833 371.167,187.167 371,188.5C 370.517,187.552 370.351,186.552 370.5,185.5C 365.137,186.321 359.803,186.321 354.5,185.5C 359.477,184.593 364.477,183.927 369.5,183.5C 369.5,182.5 369.5,181.5 369.5,180.5 Z"/></g>
<g><path style="opacity:1" fill="#b0ddcb" d="M 158.5,184.5 C 159.946,183.387 161.613,183.22 163.5,184C 162.594,185.699 162.261,187.533 162.5,189.5C 163.833,189.5 165.167,189.5 166.5,189.5C 166.739,187.533 166.406,185.699 165.5,184C 167.167,183.333 168.833,183.333 170.5,184C 169.267,185.698 168.6,187.698 168.5,190C 168.6,192.302 169.267,194.302 170.5,196C 168.833,196.667 167.167,196.667 165.5,196C 166.406,194.301 166.739,192.467 166.5,190.5C 165.167,190.5 163.833,190.5 162.5,190.5C 162.261,192.467 162.594,194.301 163.5,196C 161.833,196.667 160.167,196.667 158.5,196C 160.045,194.178 160.712,192.011 160.5,189.5C 160.444,187.36 159.777,185.694 158.5,184.5 Z"/></g>
<g><path style="opacity:1" fill="#dcf0e8" d="M 116.5,185.5 C 122.013,184.184 127.68,184.184 133.5,185.5C 129.157,186.46 124.824,186.627 120.5,186C 136.117,193.125 134.784,195.125 116.5,192C 120.167,191.667 123.833,191.333 127.5,191C 123.807,189.153 120.14,187.32 116.5,185.5 Z"/></g>
<g><path style="opacity:1" fill="#99d3be" d="M 180.5,174.5 C 182.478,185.451 183.144,196.784 182.5,208.5C 181.813,197.265 181.147,185.932 180.5,174.5 Z"/></g>
<g><path style="opacity:1" fill="#7ec6a8" d="M 146.5,179.5 C 147.658,188.991 147.825,198.658 147,208.5C 145.899,204.448 145.399,200.281 145.5,196C 145.691,190.484 146.024,184.984 146.5,179.5 Z"/></g>
<g><path style="opacity:1" fill="#f5fbf8" d="M 355.5,192.5 C 361.167,192.5 366.833,192.5 372.5,192.5C 372.799,194.604 372.466,196.604 371.5,198.5C 370.548,196.955 370.215,195.288 370.5,193.5C 366.169,192.451 364.003,194.118 364,198.5C 363.506,196.866 363.34,195.199 363.5,193.5C 361.167,193.5 358.833,193.5 356.5,193.5C 356.66,195.199 356.494,196.866 356,198.5C 355.505,196.527 355.338,194.527 355.5,192.5 Z"/></g>
<g><path style="opacity:1" fill="#d9efe6" d="M 115.5,198.5 C 115.735,197.903 116.235,197.57 117,197.5C 121.667,200.167 126.333,200.167 131,197.5C 132.722,197.611 132.888,198.111 131.5,199C 129.754,199.471 128.087,200.138 126.5,201C 128.833,202 131.167,203 133.5,204C 130.423,204.26 127.423,203.76 124.5,202.5C 121.869,203.553 119.202,204.053 116.5,204C 118.377,202.815 120.377,201.815 122.5,201C 120.1,200.256 117.767,199.423 115.5,198.5 Z"/></g>
<g><path style="opacity:1" fill="#53b68f" d="M 153.5,204.5 C 161.167,204.5 168.833,204.5 176.5,204.5C 176.5,205.5 176.5,206.5 176.5,207.5C 168.833,207.5 161.167,207.5 153.5,207.5C 153.5,206.5 153.5,205.5 153.5,204.5 Z"/></g>
<g><path style="opacity:1" fill="#e3f3ed" d="M 355.5,201.5 C 358.423,202.295 361.09,203.628 363.5,205.5C 366.029,204.04 368.696,203.54 371.5,204C 369.608,204.973 367.608,205.64 365.5,206C 367.5,207.333 369.5,208.667 371.5,210C 368.743,209.399 365.909,208.565 363,207.5C 360.432,207.934 357.932,208.6 355.5,209.5C 354.226,208.641 354.392,207.974 356,207.5C 357.811,206.922 359.645,206.422 361.5,206C 358.907,205.114 356.907,203.614 355.5,201.5 Z"/></g>
<g><path style="opacity:1" fill="#c3e5d8" d="M 182.5,211.5 C 192.167,210.167 201.833,210.167 211.5,211.5C 206.833,211.5 202.167,211.5 197.5,211.5C 197.167,215.5 196.833,215.5 196.5,211.5C 191.833,211.5 187.167,211.5 182.5,211.5 Z"/></g>
<g><path style="opacity:1" fill="#2ca477" d="M 157.5,242.5 C 163.645,241.51 169.978,241.177 176.5,241.5C 176.5,240.5 176.5,239.5 176.5,238.5C 169.5,238.5 162.5,238.5 155.5,238.5C 150.988,230.098 149.321,221.098 150.5,211.5C 160.167,211.5 169.833,211.5 179.5,211.5C 179.5,221.833 179.5,232.167 179.5,242.5C 172.167,242.5 164.833,242.5 157.5,242.5 Z"/></g>
<g><path style="opacity:1" fill="#31a679" d="M 182.5,211.5 C 187.167,211.5 191.833,211.5 196.5,211.5C 196.833,215.5 197.167,215.5 197.5,211.5C 202.167,211.5 206.833,211.5 211.5,211.5C 211.5,221.833 211.5,232.167 211.5,242.5C 201.833,242.5 192.167,242.5 182.5,242.5C 182.5,232.167 182.5,221.833 182.5,211.5 Z"/></g>
<g><path style="opacity:1" fill="#27a374" d="M 214.5,211.5 C 223.833,211.5 233.167,211.5 242.5,211.5C 242.5,221.833 242.5,232.167 242.5,242.5C 233.167,242.5 223.833,242.5 214.5,242.5C 214.5,232.167 214.5,221.833 214.5,211.5 Z"/></g>
<g><path style="opacity:1" fill="#2ca476" d="M 245.5,211.5 C 255.167,211.5 264.833,211.5 274.5,211.5C 274.5,221.833 274.5,232.167 274.5,242.5C 264.833,242.5 255.167,242.5 245.5,242.5C 245.5,232.167 245.5,221.833 245.5,211.5 Z"/></g>
<g><path style="opacity:1" fill="#29a375" d="M 277.5,211.5 C 286.167,211.5 294.833,211.5 303.5,211.5C 303.5,221.833 303.5,232.167 303.5,242.5C 294.833,242.5 286.167,242.5 277.5,242.5C 277.5,232.167 277.5,221.833 277.5,211.5 Z"/></g>
<g><path style="opacity:1" fill="#2aa476" d="M 334.5,240.5 C 326.436,238.578 318.103,237.912 309.5,238.5C 309.5,239.5 309.5,240.5 309.5,241.5C 317.5,241.5 325.5,241.5 333.5,241.5C 324.682,242.493 315.682,242.827 306.5,242.5C 306.5,232.167 306.5,221.833 306.5,211.5C 316.167,211.5 325.833,211.5 335.5,211.5C 335.806,221.25 335.473,230.916 334.5,240.5 Z"/></g>
<g><path style="opacity:1" fill="#31a679" d="M 338.5,211.5 C 340.167,211.5 341.833,211.5 343.5,211.5C 342.699,217.668 341.199,223.668 339,229.5C 338.501,223.509 338.334,217.509 338.5,211.5 Z"/></g>
<g><path style="opacity:1" fill="#e5f4ee" d="M 353.5,212.5 C 359.291,213.325 364.958,214.658 370.5,216.5C 370.167,216.833 369.833,217.167 369.5,217.5C 367.253,216.626 364.92,216.292 362.5,216.5C 362.5,218.167 362.5,219.833 362.5,221.5C 364.927,221.523 367.26,222.023 369.5,223C 363.579,223.282 357.912,222.282 352.5,220C 354.527,219.502 356.527,219.669 358.5,220.5C 360.767,219.638 361.767,217.971 361.5,215.5C 358.189,215.693 355.522,214.693 353.5,212.5 Z"/></g>
<g><path style="opacity:1" fill="#edf7f3" d="M 117.5,214.5 C 119.048,214.821 119.715,215.821 119.5,217.5C 124.454,216.34 129.454,215.84 134.5,216C 129.607,217.482 124.607,218.315 119.5,218.5C 119.657,219.873 119.49,221.207 119,222.5C 117.748,219.986 117.248,217.32 117.5,214.5 Z"/></g>
<g><path style="opacity:1" fill="#dbefe7" d="M 231.5,226.5 C 230.761,226.631 230.094,226.464 229.5,226C 230.406,224.301 230.739,222.467 230.5,220.5C 229.167,220.5 227.833,220.5 226.5,220.5C 226.665,224.182 226.499,227.848 226,231.5C 225.823,227.644 225.323,223.977 224.5,220.5C 226.029,219.364 228.362,219.198 231.5,220C 232.605,222.12 232.605,224.287 231.5,226.5 Z"/></g>
<g><path style="opacity:1" fill="#d2ece1" d="M 188.5,220.5 C 191.565,219.182 194.731,219.182 198,220.5C 197.401,223.175 197.568,225.842 198.5,228.5C 198.444,229.737 197.944,230.737 197,231.5C 195.923,228.112 195.59,224.779 196,221.5C 194.989,220.663 193.822,220.33 192.5,220.5C 192.823,224.226 192.489,227.893 191.5,231.5C 191.112,227.411 190.112,223.744 188.5,220.5 Z"/></g>
<g><path style="opacity:1" fill="#95d2ba" d="M 285.5,221.5 C 286.5,221.833 287.167,222.5 287.5,223.5C 285.994,226.469 286.327,229.302 288.5,232C 287.167,232.667 285.833,232.667 284.5,232C 285.456,228.606 285.789,225.106 285.5,221.5 Z"/></g>
<g><path style="opacity:1" fill="#daefe7" d="M 263.5,219.5 C 264.613,220.946 264.78,222.613 264,224.5C 262.964,222.701 262.797,221.034 263.5,219.5 Z"/></g>
<g><path style="opacity:1" fill="#d8eee6" d="M 285.5,221.5 C 285.897,220.475 286.563,220.308 287.5,221C 289.333,223.5 291.167,226 293,228.5C 293.182,225.774 293.682,223.107 294.5,220.5C 294.833,220.667 295.167,220.833 295.5,221C 294.703,224.745 294.203,228.579 294,232.5C 291.615,229.621 289.448,226.621 287.5,223.5C 287.167,222.5 286.5,221.833 285.5,221.5 Z"/></g>
<g><path style="opacity:1" fill="#ceeadf" d="M 119.5,225.5 C 124.179,225.334 128.845,225.501 133.5,226C 135.286,226.196 136.619,227.029 137.5,228.5C 137.167,228.833 136.833,229.167 136.5,229.5C 135.146,227.816 133.479,227.316 131.5,228C 128.5,229.833 125.5,231.667 122.5,233.5C 121.707,232.645 122.04,231.811 123.5,231C 125.332,230.252 126.999,229.252 128.5,228C 125.008,228.07 122.008,227.237 119.5,225.5 Z"/></g>
<g><path style="opacity:1" fill="#e2f3ec" d="M 351.5,225.5 C 356.155,225.117 360.488,226.117 364.5,228.5C 367.834,233.174 366.667,235.841 361,236.5C 355.576,236.548 351.742,234.214 349.5,229.5C 349.752,227.927 350.418,226.594 351.5,225.5 Z"/></g>
<g><path style="opacity:1" fill="#b6e0cf" d="M 204.5,224.5 C 206.104,225.287 206.771,226.62 206.5,228.5C 204.234,228.141 202.401,228.808 201,230.5C 200.333,228.833 200.333,227.167 201,225.5C 201.71,226.973 202.876,227.64 204.5,227.5C 204.5,226.5 204.5,225.5 204.5,224.5 Z"/></g>
<g><path style="opacity:1" fill="#e3f3ed" d="M 231.5,226.5 C 234.305,228.756 233.972,230.423 230.5,231.5C 231.301,229.958 231.634,228.292 231.5,226.5 Z"/></g>
<g><path style="opacity:1" fill="#d2ece2" d="M 319.5,219.5 C 325.192,221.002 327.025,224.668 325,230.5C 324.311,231.357 323.478,232.023 322.5,232.5C 323.626,229.346 323.626,225.846 322.5,222C 320.888,221.28 319.388,221.446 318,222.5C 316.996,225.993 317.496,229.159 319.5,232C 317.591,232.448 316.424,231.615 316,229.5C 314.756,225.191 315.923,221.858 319.5,219.5 Z"/></g>
<g><path style="opacity:1" fill="#32a679" d="M 353.5,226.5 C 356.688,226.618 359.688,227.451 362.5,229C 364.155,230.444 364.822,232.278 364.5,234.5C 360.208,234.965 356.208,234.132 352.5,232C 351.156,229.856 351.49,228.023 353.5,226.5 Z"/></g>
<g><path style="opacity:1" fill="#e3f3ed" d="M 257.5,220.5 C 257.388,224.008 257.555,227.674 258,231.5C 254.853,227.969 254.686,224.303 257.5,220.5 Z"/></g>
<g><path style="opacity:1" fill="#a2d7c3" d="M 169.5,224.5 C 171.154,226.56 172.154,229.06 172.5,232C 171.167,232.667 169.833,232.667 168.5,232C 169.435,229.619 169.768,227.119 169.5,224.5 Z"/></g>
<g><path style="opacity:1" fill="#b9e1d1" d="M 158.5,220.5 C 159.946,219.387 161.613,219.22 163.5,220C 161.623,223.494 160.956,227.327 161.5,231.5C 163.722,231.822 165.556,231.155 167,229.5C 167.483,230.448 167.649,231.448 167.5,232.5C 164.482,232.665 161.482,232.498 158.5,232C 159.821,228.066 159.821,224.233 158.5,220.5 Z"/></g>
<g><path style="opacity:1" fill="#63bb98" d="M 224.5,220.5 C 225.323,223.977 225.823,227.644 226,231.5C 226.499,227.848 226.665,224.182 226.5,220.5C 227.833,220.5 229.167,220.5 230.5,220.5C 230.739,222.467 230.406,224.301 229.5,226C 230.094,226.464 230.761,226.631 231.5,226.5C 231.634,228.292 231.301,229.958 230.5,231.5C 228.372,232.629 226.039,232.796 223.5,232C 224.46,228.27 224.793,224.437 224.5,220.5 Z"/></g>
<g><path style="opacity:1" fill="#def1e9" d="M 136.5,235.5 C 137.552,235.351 138.552,235.517 139.5,236C 135.76,238.201 131.76,239.868 127.5,241C 126.773,242.399 126.273,243.899 126,245.5C 124.644,243.102 123.477,240.602 122.5,238C 124.107,237.885 125.607,238.385 127,239.5C 130.471,238.629 133.638,237.296 136.5,235.5 Z"/></g>
<g><path style="opacity:1" fill="#55b691" d="M 155.5,238.5 C 162.5,238.5 169.5,238.5 176.5,238.5C 176.5,239.5 176.5,240.5 176.5,241.5C 169.978,241.177 163.645,241.51 157.5,242.5C 156.655,241.329 155.989,239.995 155.5,238.5 Z"/></g>
<g><path style="opacity:1" fill="#52b58f" d="M 216.5,238.5 C 224.5,238.5 232.5,238.5 240.5,238.5C 240.5,239.5 240.5,240.5 240.5,241.5C 232.5,241.5 224.5,241.5 216.5,241.5C 216.5,240.5 216.5,239.5 216.5,238.5 Z"/></g>
<g><path style="opacity:1" fill="#53b68f" d="M 248.5,238.5 C 256.167,238.5 263.833,238.5 271.5,238.5C 271.5,239.5 271.5,240.5 271.5,241.5C 263.833,241.5 256.167,241.5 248.5,241.5C 248.5,240.5 248.5,239.5 248.5,238.5 Z"/></g>
<g><path style="opacity:1" fill="#52b58f" d="M 278.5,238.5 C 286.5,238.5 294.5,238.5 302.5,238.5C 302.5,239.5 302.5,240.5 302.5,241.5C 294.5,241.5 286.5,241.5 278.5,241.5C 278.5,240.5 278.5,239.5 278.5,238.5 Z"/></g>
<g><path style="opacity:1" fill="#52b58f" d="M 334.5,240.5 C 334.5,241.167 334.167,241.5 333.5,241.5C 325.5,241.5 317.5,241.5 309.5,241.5C 309.5,240.5 309.5,239.5 309.5,238.5C 318.103,237.912 326.436,238.578 334.5,240.5 Z"/></g>
<g><path style="opacity:1" fill="#e1f2eb" d="M 347.5,236.5 C 347.56,235.957 347.893,235.624 348.5,235.5C 352.455,239.062 356.955,241.728 362,243.5C 361.968,245.598 361.301,247.598 360,249.5C 354.715,247.459 349.548,245.126 344.5,242.5C 349.191,243.291 353.858,244.958 358.5,247.5C 360.138,246.295 360.471,244.962 359.5,243.5C 354.776,242.147 350.776,239.814 347.5,236.5 Z"/></g>
<g><path style="opacity:1" fill="#2ea578" d="M 174.5,265.5 C 174.662,263.473 174.495,261.473 174,259.5C 172.384,258.199 170.884,258.199 169.5,259.5C 165.461,255.777 162.127,251.443 159.5,246.5C 166.134,245.503 172.8,245.17 179.5,245.5C 179.666,253.84 179.5,262.173 179,270.5C 177.264,268.937 175.764,267.27 174.5,265.5 Z"/></g>
<g><path style="opacity:1" fill="#2fa578" d="M 210.5,245.5 C 210.832,255.855 210.499,266.188 209.5,276.5C 208.614,275.675 208.281,274.675 208.5,273.5C 200.414,273.199 192.414,273.533 184.5,274.5C 183.883,274.389 183.383,274.056 183,273.5C 182.5,264.173 182.334,254.839 182.5,245.5C 191.833,245.5 201.167,245.5 210.5,245.5 Z"/></g>
<g><path style="opacity:1" fill="#2ca476" d="M 242.5,276.5 C 240.952,276.179 240.285,275.179 240.5,273.5C 232.833,273.5 225.167,273.5 217.5,273.5C 217.5,274.5 217.5,275.5 217.5,276.5C 216.5,276.5 215.5,276.5 214.5,276.5C 214.5,266.167 214.5,255.833 214.5,245.5C 223.833,245.5 233.167,245.5 242.5,245.5C 242.5,255.833 242.5,266.167 242.5,276.5 Z"/></g>
<g><path style="opacity:1" fill="#2ea577" d="M 274.5,276.5 C 273.5,276.5 272.5,276.5 271.5,276.5C 271.5,275.5 271.5,274.5 271.5,273.5C 263.833,273.5 256.167,273.5 248.5,273.5C 248.719,274.675 248.386,275.675 247.5,276.5C 246.833,267.676 246.167,259.009 245.5,250.5C 245.5,248.833 245.5,247.167 245.5,245.5C 255.167,245.5 264.833,245.5 274.5,245.5C 274.5,255.833 274.5,266.167 274.5,276.5 Z"/></g>
<g><path style="opacity:1" fill="#28a375" d="M 303.5,276.5 C 302.596,275.791 302.263,274.791 302.5,273.5C 294.5,273.5 286.5,273.5 278.5,273.5C 278.737,274.791 278.404,275.791 277.5,276.5C 277.5,266.167 277.5,255.833 277.5,245.5C 286.167,245.5 294.833,245.5 303.5,245.5C 303.5,255.833 303.5,266.167 303.5,276.5 Z"/></g>
<g><path style="opacity:1" fill="#31a679" d="M 306.5,245.5 C 314.84,245.334 323.173,245.5 331.5,246C 328.604,250.211 325.77,254.377 323,258.5C 321.667,259.833 320.333,259.833 319,258.5C 319.195,260.126 319.195,261.793 319,263.5C 315.696,267.105 311.696,270.771 307,274.5C 306.5,264.839 306.334,255.172 306.5,245.5 Z"/></g>
<g><path style="opacity:1" fill="#e6f4ef" d="M 342.5,247.5 C 350.327,247.521 354.827,251.188 356,258.5C 352.181,261.072 348.348,260.905 344.5,258C 340.151,255.091 339.484,251.591 342.5,247.5 Z"/></g>
<g><path style="opacity:1" fill="#31a679" d="M 342.5,249.5 C 347.102,249.384 350.935,251.051 354,254.5C 354.86,257.478 353.693,258.812 350.5,258.5C 346.439,257.803 343.439,255.636 341.5,252C 341.743,251.098 342.077,250.265 342.5,249.5 Z"/></g>
<g><path style="opacity:1" fill="#ddf0e9" d="M 141.5,241.5 C 142.773,242.077 142.773,242.743 141.5,243.5C 138.963,245.267 136.297,246.767 133.5,248C 137.5,248.333 141.5,248.667 145.5,249C 140.778,252.198 135.778,254.531 130.5,256C 134.007,253.746 137.673,251.746 141.5,250C 136.856,250.291 132.189,250.291 127.5,250C 132.064,246.89 136.731,244.056 141.5,241.5 Z"/></g>
<g><path style="opacity:1" fill="#fafdfc" d="M 196.5,255.5 C 196.56,254.957 196.893,254.624 197.5,254.5C 198.833,258.5 198.833,262.5 197.5,266.5C 196.893,266.376 196.56,266.043 196.5,265.5C 197.833,262.167 197.833,258.833 196.5,255.5 Z"/></g>
<g><path style="opacity:1" fill="#f9fcfb" d="M 232.5,255.5 C 232.56,254.957 232.893,254.624 233.5,254.5C 234.66,258.459 234.827,262.459 234,266.5C 233.823,262.644 233.323,258.977 232.5,255.5 Z"/></g>
<g><path style="opacity:1" fill="#dcf0e8" d="M 227.5,263.5 C 227.614,260.784 226.614,258.784 224.5,257.5C 224.461,256.244 224.961,255.244 226,254.5C 228.363,258.392 229.529,262.392 229.5,266.5C 228.824,265.398 228.158,264.398 227.5,263.5 Z"/></g>
<g><path style="opacity:1" fill="#cfeae0" d="M 287.5,255.5 C 290.796,253.973 293.962,254.307 297,256.5C 297.342,260.32 295.509,261.986 291.5,261.5C 291.141,263.766 291.808,265.599 293.5,267C 288.559,268.277 287.225,266.277 289.5,261C 289.453,258.705 288.787,256.871 287.5,255.5 Z"/></g>
<g><path style="opacity:1" fill="#25a273" d="M 291.5,255.5 C 295.161,255.35 296.161,256.85 294.5,260C 293.552,260.483 292.552,260.649 291.5,260.5C 291.5,258.833 291.5,257.167 291.5,255.5 Z"/></g>
<g><path style="opacity:1" fill="#79c5a8" d="M 190.5,254.5 C 189.761,254.369 189.094,254.536 188.5,255C 189.267,256.47 189.933,257.97 190.5,259.5C 189.234,261.694 189.234,264.028 190.5,266.5C 189.167,267.833 187.833,267.833 186.5,266.5C 187.833,262.5 187.833,258.5 186.5,254.5C 187.958,253.218 189.292,253.218 190.5,254.5 Z"/></g>
<g><path style="opacity:1" fill="#81c9ae" d="M 196.5,255.5 C 197.833,258.833 197.833,262.167 196.5,265.5C 196.662,263.473 196.495,261.473 196,259.5C 195.768,260.737 195.268,261.737 194.5,262.5C 193.508,262.672 192.842,262.338 192.5,261.5C 194.374,259.918 195.707,257.918 196.5,255.5 Z"/></g>
<g><path style="opacity:1" fill="#d9efe6" d="M 190.5,254.5 C 191.167,256.833 191.833,259.167 192.5,261.5C 192.842,262.338 193.508,262.672 194.5,262.5C 194.688,264.103 194.188,265.437 193,266.5C 192.153,264.146 191.32,261.812 190.5,259.5C 189.933,257.97 189.267,256.47 188.5,255C 189.094,254.536 189.761,254.369 190.5,254.5 Z"/></g>
<g><path style="opacity:1" fill="#b3dfce" d="M 262.5,259.5 C 263.209,258.596 264.209,258.263 265.5,258.5C 265.813,261.247 265.48,263.914 264.5,266.5C 263.832,264.031 263.165,261.698 262.5,259.5 Z"/></g>
<g><path style="opacity:1" fill="#b1ddcc" d="M 174.5,265.5 C 173.167,264.167 171.833,262.833 170.5,261.5C 169.662,261.158 169.328,260.492 169.5,259.5C 170.884,258.199 172.384,258.199 174,259.5C 174.495,261.473 174.662,263.473 174.5,265.5 Z"/></g>
<g><path style="opacity:1" fill="#24a272" d="M 170.5,261.5 C 170.639,259.663 171.306,259.33 172.5,260.5C 172.043,261.298 171.376,261.631 170.5,261.5 Z"/></g>
<g><path style="opacity:1" fill="#e4f3ed" d="M 147.5,254.5 C 148.376,254.369 149.043,254.702 149.5,255.5C 146.003,258.083 142.336,260.416 138.5,262.5C 137.269,263.651 137.269,264.817 138.5,266C 138,266.5 137.5,267 137,267.5C 134.836,265.189 133.836,262.522 134,259.5C 135.133,261.211 136.633,261.711 138.5,261C 141.567,258.812 144.567,256.645 147.5,254.5 Z"/></g>
<g><path style="opacity:1" fill="#85c9ae" d="M 224.5,257.5 C 226.614,258.784 227.614,260.784 227.5,263.5C 226.127,263.343 224.793,263.51 223.5,264C 222.167,264.667 222.167,265.333 223.5,266C 222.5,266.667 221.5,266.667 220.5,266C 221.948,263.124 223.281,260.291 224.5,257.5 Z"/></g>
<g><path style="opacity:1" fill="#cfeadf" d="M 253.5,256.5 C 255.167,258.808 257.5,260.308 260.5,261C 261.747,266.904 259.413,268.737 253.5,266.5C 253.343,265.127 253.51,263.793 254,262.5C 256.016,266.656 258.183,266.99 260.5,263.5C 259.286,261.931 257.619,261.098 255.5,261C 253.963,259.89 253.297,258.39 253.5,256.5 Z"/></g>
<g><path style="opacity:1" fill="#8bccb1" d="M 203.5,258.5 C 205.527,258.338 207.527,258.505 209.5,259C 207.864,260.434 206.864,262.267 206.5,264.5C 207.833,265.62 208.333,266.953 208,268.5C 206.89,266.963 205.39,266.297 203.5,266.5C 203.101,269.988 202.434,270.154 201.5,267C 201.982,264.083 202.649,261.249 203.5,258.5 Z"/></g>
<g><path style="opacity:1" fill="#daefe7" d="M 336.5,257.5 C 341.282,260.399 345.949,263.566 350.5,267C 349.213,268.41 348.046,269.91 347,271.5C 347.218,269.413 347.051,267.413 346.5,265.5C 342.662,263.275 339.328,260.608 336.5,257.5 Z"/></g>
<g><path style="opacity:1" fill="#e5f4ee" d="M 151.5,262.5 C 152.542,261.209 153.708,261.209 155,262.5C 155.933,267.938 153.766,271.772 148.5,274C 144.541,275.362 141.541,274.362 139.5,271C 139.833,270.833 140.167,270.667 140.5,270.5C 145.062,274.204 149.229,273.537 153,268.5C 153.941,266.011 153.441,264.011 151.5,262.5 Z"/></g>
<g><path style="opacity:1" fill="#52b58f" d="M 210.5,245.5 C 211.494,255.987 211.828,266.654 211.5,277.5C 203.493,277.666 195.493,277.5 187.5,277C 186.429,276.148 185.429,275.315 184.5,274.5C 192.414,273.533 200.414,273.199 208.5,273.5C 208.281,274.675 208.614,275.675 209.5,276.5C 210.499,266.188 210.832,255.855 210.5,245.5 Z"/></g>
<g><path style="opacity:1" fill="#53b690" d="M 242.5,276.5 C 233.167,277.833 223.833,277.833 214.5,276.5C 215.5,276.5 216.5,276.5 217.5,276.5C 217.5,275.5 217.5,274.5 217.5,273.5C 225.167,273.5 232.833,273.5 240.5,273.5C 240.285,275.179 240.952,276.179 242.5,276.5 Z"/></g>
<g><path style="opacity:1" fill="#52b58f" d="M 245.5,250.5 C 246.167,259.009 246.833,267.676 247.5,276.5C 248.386,275.675 248.719,274.675 248.5,273.5C 256.167,273.5 263.833,273.5 271.5,273.5C 271.5,274.5 271.5,275.5 271.5,276.5C 272.5,276.5 273.5,276.5 274.5,276.5C 265.014,277.494 255.348,277.827 245.5,277.5C 245.5,268.5 245.5,259.5 245.5,250.5 Z"/></g>
<g><path style="opacity:1" fill="#53b590" d="M 303.5,276.5 C 294.833,277.833 286.167,277.833 277.5,276.5C 278.404,275.791 278.737,274.791 278.5,273.5C 286.5,273.5 294.5,273.5 302.5,273.5C 302.263,274.791 302.596,275.791 303.5,276.5 Z"/></g>
<g><path style="opacity:1" fill="#daefe7" d="M 330.5,265.5 C 331.251,264.427 332.251,264.26 333.5,265C 337.356,268.1 341.023,271.433 344.5,275C 343.833,275.667 343.167,275.667 342.5,275C 340.093,272.715 337.593,270.549 335,268.5C 336.357,272.387 338.19,276.22 340.5,280C 339.5,280.667 338.5,280.667 337.5,280C 334.023,276.433 330.356,273.1 326.5,270C 327.167,269.333 327.833,269.333 328.5,270C 330.907,272.285 333.407,274.451 336,276.5C 334.737,272.64 332.903,268.973 330.5,265.5 Z"/></g>
<g><path style="opacity:1" fill="#d6ede4" d="M 321.5,281.5 C 319.554,280.746 318.721,279.412 319,277.5C 320.481,278.471 321.315,279.804 321.5,281.5 Z"/></g>
<g><path style="opacity:1" fill="#8bcdb4" d="M 211.5,280.5 C 207.5,280.5 203.5,280.5 199.5,280.5C 199.5,281.833 199.5,283.167 199.5,284.5C 196.699,283.265 194.032,281.765 191.5,280C 198.346,279.179 205.013,279.346 211.5,280.5 Z"/></g>
<g><path style="opacity:1" fill="#8cceb5" d="M 214.5,280.5 C 223.833,279.167 233.167,279.167 242.5,280.5C 238.833,280.5 235.167,280.5 231.5,280.5C 231.307,284.449 230.807,284.449 230,280.5C 228.886,284.456 228.053,284.456 227.5,280.5C 223.167,280.5 218.833,280.5 214.5,280.5 Z"/></g>
<g><path style="opacity:1" fill="#8bceb4" d="M 245.5,280.5 C 255.167,279.167 264.833,279.167 274.5,280.5C 270.486,280.334 266.486,280.501 262.5,281C 262.07,281.92 261.736,282.753 261.5,283.5C 260.808,282.975 260.308,282.308 260,281.5C 259.577,282.956 258.744,283.456 257.5,283C 258.833,282.333 258.833,281.667 257.5,281C 253.514,280.501 249.514,280.334 245.5,280.5 Z"/></g>
<g><path style="opacity:1" fill="#92d1b9" d="M 277.5,280.5 C 284.321,279.345 291.321,279.179 298.5,280C 297.956,280.717 297.289,281.217 296.5,281.5C 290.504,280.927 284.17,280.593 277.5,280.5 Z"/></g>
<g><path style="opacity:1" fill="#dcf0e8" d="M 152.5,277.5 C 151.438,279.757 149.772,280.923 147.5,281C 148.789,279.198 150.456,278.031 152.5,277.5 Z"/></g>
<g><path style="opacity:1" fill="#2ea578" d="M 211.5,280.5 C 211.817,283.572 211.484,286.572 210.5,289.5C 206.688,288.093 203.022,286.426 199.5,284.5C 199.5,283.167 199.5,281.833 199.5,280.5C 203.5,280.5 207.5,280.5 211.5,280.5 Z"/></g>
<g><path style="opacity:1" fill="#26a274" d="M 214.5,280.5 C 218.833,280.5 223.167,280.5 227.5,280.5C 228.053,284.456 228.886,284.456 230,280.5C 230.807,284.449 231.307,284.449 231.5,280.5C 235.167,280.5 238.833,280.5 242.5,280.5C 242.5,285.5 242.5,290.5 242.5,295.5C 238.143,295.414 233.81,295.08 229.5,294.5C 228.766,293.292 228.433,291.959 228.5,290.5C 226.473,290.338 224.473,290.505 222.5,291C 221.944,291.383 221.611,291.883 221.5,292.5C 219.139,292.326 216.806,291.993 214.5,291.5C 214.5,287.833 214.5,284.167 214.5,280.5 Z"/></g>
<g><path style="opacity:1" fill="#2da477" d="M 245.5,280.5 C 249.514,280.334 253.514,280.501 257.5,281C 258.833,281.667 258.833,282.333 257.5,283C 258.744,283.456 259.577,282.956 260,281.5C 260.308,282.308 260.808,282.975 261.5,283.5C 261.736,282.753 262.07,281.92 262.5,281C 266.486,280.501 270.486,280.334 274.5,280.5C 274.5,284.167 274.5,287.833 274.5,291.5C 269.626,293.124 264.626,294.124 259.5,294.5C 259.281,293.325 259.614,292.325 260.5,291.5C 261.396,292.506 262.062,292.506 262.5,291.5C 259.572,290.516 256.572,290.183 253.5,290.5C 253.343,291.873 253.51,293.207 254,294.5C 256.244,290.277 257.41,290.611 257.5,295.5C 253.5,295.5 249.5,295.5 245.5,295.5C 245.5,290.5 245.5,285.5 245.5,280.5 Z"/></g>
<g><path style="opacity:1" fill="#31a679" d="M 277.5,280.5 C 284.17,280.593 290.504,280.927 296.5,281.5C 290.681,285.159 284.515,288.159 278,290.5C 277.502,287.183 277.335,283.85 277.5,280.5 Z"/></g>
<g><path style="opacity:1" fill="#d6ede5" d="M 164.5,283.5 C 165.148,280.677 166.814,279.177 169.5,279C 167.963,280.707 166.296,282.207 164.5,283.5 Z"/></g>
<g><path style="opacity:1" fill="#e9f6f1" d="M 152.5,277.5 C 154.795,274.703 157.295,272.036 160,269.5C 159.454,272.093 157.954,274.26 155.5,276C 156.667,277.167 157.833,278.333 159,279.5C 160.5,278 162,276.5 163.5,275C 164.332,274.312 164.998,274.479 165.5,275.5C 161.526,279.138 157.526,282.805 153.5,286.5C 153.167,286.333 152.833,286.167 152.5,286C 154.167,284.333 155.833,282.667 157.5,281C 156.211,279.198 154.544,278.031 152.5,277.5 Z"/></g>
<g><path style="opacity:1" fill="#daefe7" d="M 321.5,281.5 C 323.463,282.96 325.296,284.627 327,286.5C 326.224,282.352 324.724,278.352 322.5,274.5C 322.833,274.167 323.167,273.833 323.5,273.5C 327.652,277.151 331.652,280.984 335.5,285C 332.224,283.763 329.391,281.597 327,278.5C 327.53,282.262 328.697,285.929 330.5,289.5C 330.167,289.833 329.833,290.167 329.5,290.5C 326.074,288.08 323.408,285.08 321.5,281.5 Z"/></g>
<g><path style="opacity:1" fill="#cde9de" d="M 332.5,288.5 C 336.893,288.457 337.226,288.957 333.5,290C 334.696,290.654 334.696,291.154 333.5,291.5C 332.614,290.675 332.281,289.675 332.5,288.5 Z"/></g>
<g><path style="opacity:1" fill="#dcf0e8" d="M 164.5,283.5 C 164.489,285.017 163.823,286.184 162.5,287C 166.283,286.119 169.95,284.619 173.5,282.5C 173.833,282.833 174.167,283.167 174.5,283.5C 171.236,287.687 167.736,291.687 164,295.5C 163.333,294.833 163.333,294.167 164,293.5C 166.209,291.627 168.042,289.46 169.5,287C 165.48,288.373 161.48,289.706 157.5,291C 159.333,288.002 161.666,285.502 164.5,283.5 Z"/></g>
<g><path style="opacity:1" fill="#8dccb2" d="M 229.5,294.5 C 226.659,294.44 223.993,293.774 221.5,292.5C 221.611,291.883 221.944,291.383 222.5,291C 224.473,290.505 226.473,290.338 228.5,290.5C 228.433,291.959 228.766,293.292 229.5,294.5 Z"/></g>
<g><path style="opacity:1" fill="#ecf7f2" d="M 279.5,301.5 C 280.675,301.281 281.675,301.614 282.5,302.5C 283.439,306.318 284.773,309.985 286.5,313.5C 287.609,312.41 288.609,312.41 289.5,313.5C 288.675,314.386 287.675,314.719 286.5,314.5C 286.993,316.806 287.326,319.139 287.5,321.5C 286.5,321.5 285.5,321.5 284.5,321.5C 284.714,319.856 284.38,318.356 283.5,317C 279.754,316.744 276.087,317.244 272.5,318.5C 274.254,312.564 276.588,306.898 279.5,301.5 Z"/></g>
<g><path style="opacity:1" fill="#f2f9f7" d="M 212.5,303.5 C 214.833,303.5 217.167,303.5 219.5,303.5C 218.008,309.8 216.675,316.134 215.5,322.5C 214.5,322.5 213.5,322.5 212.5,322.5C 213.287,316.851 214.621,311.351 216.5,306C 214.563,305.878 213.23,305.045 212.5,303.5 Z"/></g>
<g><path style="opacity:1" fill="#e7f5ef" d="M 253.5,305.5 C 257.167,305.5 260.833,305.5 264.5,305.5C 262.923,311.997 260.757,318.331 258,324.5C 257.29,325.973 256.124,326.64 254.5,326.5C 256.238,320.627 258.571,314.961 261.5,309.5C 257.833,308.833 254.167,308.167 250.5,307.5C 251.602,306.824 252.602,306.158 253.5,305.5 Z"/></g>
<g><path style="opacity:1" fill="#e6f4ef" d="M 234.5,305.5 C 243.192,305.701 246.359,310.035 244,318.5C 241.48,324.349 236.98,327.015 230.5,326.5C 230.5,325.5 230.5,324.5 230.5,323.5C 234.849,324.423 238.183,323.09 240.5,319.5C 237.893,318.682 235.226,318.182 232.5,318C 228.125,313.08 228.792,308.913 234.5,305.5 Z"/></g>
<g><path style="opacity:1" fill="#3ba97e" d="M 279.5,304.5 C 281.277,307.505 282.277,310.838 282.5,314.5C 280.131,314.851 277.797,315.018 275.5,315C 277.33,311.676 278.663,308.176 279.5,304.5 Z"/></g>
<g><path style="opacity:1" fill="#eef8f4" d="M 191.5,306.5 C 197.488,306.664 198.821,309.164 195.5,314C 189.403,314.147 188.07,311.647 191.5,306.5 Z"/></g>
<g><path style="opacity:1" fill="#f0f8f5" d="M 299.5,306.5 C 305.488,306.664 306.821,309.164 303.5,314C 297.403,314.147 296.07,311.647 299.5,306.5 Z"/></g>
<g><path style="opacity:1" fill="#33a67a" d="M 235.5,307.5 C 241.263,307.783 242.93,310.616 240.5,316C 232.221,316.938 230.554,314.104 235.5,307.5 Z"/></g>
<g><path style="opacity:1" fill="#f7fbfa" d="M 218.5,371.5 C 220.604,371.201 222.604,371.534 224.5,372.5C 227.709,381.461 230.709,390.461 233.5,399.5C 229.078,400.021 226.745,398.021 226.5,393.5C 222.893,392.511 219.226,392.177 215.5,392.5C 215.892,397.141 213.892,399.474 209.5,399.5C 211.7,389.9 214.7,380.567 218.5,371.5 Z"/></g>
<g><path style="opacity:1" fill="#fefefe" d="M 245.5,375.5 C 244.508,383.316 244.174,391.316 244.5,399.5C 243.167,399.5 241.833,399.5 240.5,399.5C 240.5,390.167 240.5,380.833 240.5,371.5C 245.833,371.5 251.167,371.5 256.5,371.5C 256.5,372.833 256.5,374.167 256.5,375.5C 252.833,375.5 249.167,375.5 245.5,375.5 Z"/></g>
<g><path style="opacity:1" fill="#f7fbfa" d="M 259.5,372.5 C 261.364,371.207 263.364,371.207 265.5,372.5C 267.393,377.287 269.56,381.953 272,386.5C 274.719,381.844 276.553,376.844 277.5,371.5C 279.527,371.338 281.527,371.505 283.5,372C 280.147,380.542 276.647,389.042 273,397.5C 270.388,400.576 267.221,401.243 263.5,399.5C 262.417,398.635 262.251,397.635 263,396.5C 265.069,395.736 267.236,395.236 269.5,395C 269.957,394.586 270.291,394.086 270.5,393.5C 267.059,386.281 263.392,379.281 259.5,372.5 Z"/></g>
<g><path style="opacity:1" fill="#bbe2d4" d="M 245.5,375.5 C 245.5,383.833 245.5,392.167 245.5,400.5C 243.585,400.784 241.919,400.451 240.5,399.5C 241.833,399.5 243.167,399.5 244.5,399.5C 244.174,391.316 244.508,383.316 245.5,375.5 Z"/></g>
<g><path style="opacity:1" fill="#43ad83" d="M 220.5,376.5 C 222.806,380.085 224.139,384.085 224.5,388.5C 222.076,388.808 219.743,388.474 217.5,387.5C 219.117,383.986 220.117,380.319 220.5,376.5 Z"/></g>
<g><path style="opacity:1" fill="#f2f9f6" d="M 195.5,382.5 C 198.352,382.352 200.019,383.686 200.5,386.5C 198.167,391.833 195.833,391.833 193.5,386.5C 193.752,384.927 194.418,383.594 195.5,382.5 Z"/></g>
<g><path style="opacity:1" fill="#e4f3ed" d="M 291.5,382.5 C 297.488,382.664 298.821,385.164 295.5,390C 293.888,390.72 292.388,390.554 291,389.5C 290.297,387.071 290.463,384.738 291.5,382.5 Z"/></g>
</svg>
