<?xml version="1.0" encoding="UTF-8"?>
<!DOCTYPE svg PUBLIC "-//W3C//DTD SVG 1.1//EN" "http://www.w3.org/Graphics/SVG/1.1/DTD/svg11.dtd">
<svg xmlns="http://www.w3.org/2000/svg" version="1.1" width="90px" height="90px" style="shape-rendering:geometricPrecision; text-rendering:geometricPrecision; image-rendering:optimizeQuality; fill-rule:evenodd; clip-rule:evenodd" xmlns:xlink="http://www.w3.org/1999/xlink">
<g><path style="opacity:0.954" fill="#a0ba1c" d="M 38.5,-0.5 C 54.5,-0.5 70.5,-0.5 86.5,-0.5C 87.1667,0.833333 88.1667,1.83333 89.5,2.5C 89.5,24.8333 89.5,47.1667 89.5,69.5C 88.2823,70.7311 86.949,71.8978 85.5,73C 74.1716,73.4999 62.8382,73.6665 51.5,73.5C 52.1685,79.2549 51.1685,84.5883 48.5,89.5C 32.8333,89.5 17.1667,89.5 1.5,89.5C 1.16667,88.5 0.5,87.8333 -0.5,87.5C -0.5,63.5 -0.5,39.5 -0.5,15.5C 0.626561,14.8783 1.62656,14.045 2.5,13C 13.1615,12.5002 23.8281,12.3335 34.5,12.5C 34.1495,7.54861 35.4828,3.21527 38.5,-0.5 Z M 40.5,3.5 C 55.4116,3.17604 70.245,3.50937 85,4.5C 85.6667,25.5 85.6667,46.5 85,67.5C 84.5,68 84,68.5 83.5,69C 72.8385,69.4998 62.1719,69.6665 51.5,69.5C 51.169,61.4723 51.5023,53.4723 52.5,45.5C 66.2632,50.8744 76.4299,46.8744 83,33.5C 86.3358,20.5153 81.8358,11.3486 69.5,6C 60.6385,3.83058 52.9719,5.83058 46.5,12C 43.854,12.4974 41.1873,12.6641 38.5,12.5C 38.2069,9.24571 38.8736,6.24571 40.5,3.5 Z M 56.5,9.5 C 72.8216,7.98919 80.3216,15.3225 79,31.5C 77.5253,38.8616 75.3586,39.195 72.5,32.5C 77.1805,30.7144 78.6805,27.3811 77,22.5C 73.9407,18.8644 70.7741,15.3644 67.5,12C 60.2107,9.73191 54.8774,11.8986 51.5,18.5C 50.7379,17.3717 50.0712,16.2051 49.5,15C 51.9025,13.147 54.2359,11.3137 56.5,9.5 Z M 59.5,15.5 C 62.3198,15.2475 64.9865,15.7475 67.5,17C 69.0356,18.5994 69.5356,20.4328 69,22.5C 67.4106,18.1777 65.2439,17.6777 62.5,21C 54.4446,22.3068 53.4446,20.4735 59.5,15.5 Z M 4.5,16.5 C 18.1707,16.3334 31.8374,16.5001 45.5,17C 46,17.5 46.5,18 47,18.5C 47.8221,40.5431 47.6555,62.5431 46.5,84.5C 32.1821,85.4993 17.8488,85.8326 3.5,85.5C 3.17759,62.425 3.51092,39.425 4.5,16.5 Z M 63.5,24.5 C 69.3389,25.341 70.6723,28.1743 67.5,33C 59.7419,36.2938 55.7419,33.7938 55.5,25.5C 58.3854,25.8064 61.0521,25.4731 63.5,24.5 Z M 13.5,27.5 C 21.1667,27.5 28.8333,27.5 36.5,27.5C 36.5,28.8333 36.5,30.1667 36.5,31.5C 28.8333,31.5 21.1667,31.5 13.5,31.5C 13.5,30.1667 13.5,28.8333 13.5,27.5 Z M 55.5,36.5 C 59.9053,38.8043 64.572,39.1377 69.5,37.5C 73.3416,39.6071 73.0083,41.4405 68.5,43C 64.5,43.6667 60.5,43.6667 56.5,43C 51.6488,41.5336 51.3155,39.3669 55.5,36.5 Z"/></g>
<g><path style="opacity:0.846" fill="#a2be1a" d="M 12.5,22.5 C 20.84,22.3336 29.1733,22.5003 37.5,23C 38.4162,23.3742 39.2496,23.8742 40,24.5C 40.6667,27.8333 40.6667,31.1667 40,34.5C 30.2441,35.6515 20.4107,35.8181 10.5,35C 9.37809,31.5915 9.21143,28.0915 10,24.5C 10.9947,23.9341 11.828,23.2674 12.5,22.5 Z M 13.5,27.5 C 13.5,28.8333 13.5,30.1667 13.5,31.5C 21.1667,31.5 28.8333,31.5 36.5,31.5C 36.5,30.1667 36.5,28.8333 36.5,27.5C 28.8333,27.5 21.1667,27.5 13.5,27.5 Z"/></g>
<g><path style="opacity:0.95" fill="#a1ba19" d="M 13.5,39.5 C 21.5,39.5 29.5,39.5 37.5,39.5C 37.5,40.8333 37.5,42.1667 37.5,43.5C 29.1667,43.5 20.8333,43.5 12.5,43.5C 12.4326,42.0413 12.7659,40.7079 13.5,39.5 Z"/></g>
<g><path style="opacity:0.984" fill="#9dbd16" d="M 15.5,47.5 C 21.8333,47.5 28.1667,47.5 34.5,47.5C 34.67,48.8221 34.3366,49.9887 33.5,51C 28.1667,51.6667 22.8333,51.6667 17.5,51C 16.0267,50.2904 15.3601,49.1238 15.5,47.5 Z"/></g>
<g><path style="opacity:0.951" fill="#a2bb19" d="M 53.5,51.5 C 60.5,51.5 67.5,51.5 74.5,51.5C 74.5,52.8333 74.5,54.1667 74.5,55.5C 67.5,55.5 60.5,55.5 53.5,55.5C 53.5,54.1667 53.5,52.8333 53.5,51.5 Z"/></g>
<g><path style="opacity:0.928" fill="#a0b919" d="M 53.5,59.5 C 60.0139,59.0446 66.3473,59.5446 72.5,61C 71.8333,61.6667 71.1667,62.3333 70.5,63C 65.1667,63.6667 59.8333,63.6667 54.5,63C 53.6634,61.9887 53.33,60.8221 53.5,59.5 Z"/></g>
</svg>
