<?xml version="1.0" encoding="UTF-8"?>
<!DOCTYPE svg PUBLIC "-//W3C//DTD SVG 1.1//EN" "http://www.w3.org/Graphics/SVG/1.1/DTD/svg11.dtd">
<svg xmlns="http://www.w3.org/2000/svg" version="1.1" width="500px" height="500px" style="shape-rendering:geometricPrecision; text-rendering:geometricPrecision; image-rendering:optimizeQuality; fill-rule:evenodd; clip-rule:evenodd" xmlns:xlink="http://www.w3.org/1999/xlink">
<g><path style="opacity:0.998" fill="#a81824" d="M 49.5,0.5 C 182.833,0.5 316.167,0.5 449.5,0.5C 449.128,130.167 448.628,259.834 448,389.5C 444.811,419.082 429.311,438.916 401.5,449C 393.638,451.306 385.638,452.972 377.5,454C 354.782,454.648 332.115,455.981 309.5,458C 283.195,462.308 263.195,475.808 249.5,498.5C 230.465,471.308 204.131,457.141 170.5,456C 154.83,455.413 139.163,454.747 123.5,454C 77.3409,449.842 52.8409,424.675 50,378.5C 49.5,252.5 49.3333,126.5 49.5,0.5 Z"/></g>
<g><path style="opacity:1" fill="#fbf7f7" d="M 253.5,211.5 C 253.062,211.565 252.728,211.399 252.5,211C 271.224,194.039 293.224,187.205 318.5,190.5C 323.74,161.152 329.074,131.819 334.5,102.5C 329.156,102.334 323.823,102.501 318.5,103C 326.62,136.736 316.953,164.069 289.5,185C 268.318,197.595 245.985,199.929 222.5,192C 185.341,173.345 171.341,143.679 180.5,103C 175.177,102.501 169.844,102.334 164.5,102.5C 169.962,131.808 175.295,161.142 180.5,190.5C 200.645,188.371 219.312,192.538 236.5,203C 240.025,205.698 243.358,208.531 246.5,211.5C 235.514,206.782 224.181,202.949 212.5,200C 198.108,199.124 183.774,199.624 169.5,201.5C 163.983,166.43 157.983,131.43 151.5,96.5C 162.358,94.2191 173.358,92.8857 184.5,92.5C 202.394,60.8891 229.394,48.0558 265.5,54C 287.581,59.5873 303.914,72.4206 314.5,92.5C 325.32,92.9304 335.987,94.4304 346.5,97C 341.4,131.835 335.4,166.669 328.5,201.5C 302.205,195.988 277.205,199.321 253.5,211.5 Z"/></g>
<g><path style="opacity:1" fill="#ad2a30" d="M 229.5,61.5 C 230.873,61.3433 232.207,61.51 233.5,62C 229.132,66.033 225.132,70.3663 221.5,75C 220.833,75.6667 220.167,75.6667 219.5,75C 217.5,73.3333 215.5,71.6667 213.5,70C 218.768,66.8683 224.101,64.0349 229.5,61.5 Z"/></g>
<g><path style="opacity:1" fill="#aa1f28" d="M 244.5,61.5 C 245.492,69.3159 245.826,77.3159 245.5,85.5C 238.957,85.0333 232.957,83.0333 227.5,79.5C 231.837,72.1653 237.504,66.1653 244.5,61.5 Z"/></g>
<g><path style="opacity:1" fill="#ab232b" d="M 252.5,61.5 C 261.072,65.7365 267.739,72.0698 272.5,80.5C 266.421,84.3532 259.754,86.0198 252.5,85.5C 252.5,77.5 252.5,69.5 252.5,61.5 Z"/></g>
<g><path style="opacity:1" fill="#ac272e" d="M 265.5,62.5 C 273.825,63.3057 281.491,66.4724 288.5,72C 285.576,74.7958 282.243,76.4624 278.5,77C 275.042,71.3758 270.709,66.5424 265.5,62.5 Z"/></g>
<g><path style="opacity:1" fill="#aa1f28" d="M 252.5,103.5 C 253.479,100.375 253.813,97.0419 253.5,93.5C 254.791,93.7373 255.791,93.404 256.5,92.5C 263.087,91.8608 269.421,90.1941 275.5,87.5C 278.853,91.8841 280.853,96.8841 281.5,102.5C 283.833,102.5 286.167,102.5 288.5,102.5C 287.495,96.1502 285.495,90.1502 282.5,84.5C 286.421,81.9566 290.254,79.2899 294,76.5C 306.505,88.5116 313.339,103.178 314.5,120.5C 312.5,120.5 310.5,120.5 308.5,120.5C 308.5,123.167 308.5,125.833 308.5,128.5C 310.5,128.5 312.5,128.5 314.5,128.5C 313.423,145.319 306.923,159.652 295,171.5C 290.032,168.938 285.532,165.772 281.5,162C 283.879,156.697 285.546,151.197 286.5,145.5C 284.167,145.5 281.833,145.5 279.5,145.5C 278.167,150.167 276.833,154.833 275.5,159.5C 268.256,157.418 260.922,155.751 253.5,154.5C 252.513,151.232 252.18,147.898 252.5,144.5C 250.167,144.5 247.833,144.5 245.5,144.5C 245.5,147.833 245.5,151.167 245.5,154.5C 238.745,155.147 232.245,156.814 226,159.5C 222.692,155.589 220.525,151.089 219.5,146C 217.098,145.186 214.765,145.353 212.5,146.5C 213.938,152.043 215.938,157.376 218.5,162.5C 214.305,166.187 209.805,169.521 205,172.5C 192.506,160.51 185.672,145.843 184.5,128.5C 186.5,128.5 188.5,128.5 190.5,128.5C 190.5,125.833 190.5,123.167 190.5,120.5C 188.5,120.5 186.5,120.5 184.5,120.5C 185.734,101.697 193.567,86.364 208,74.5C 211.528,77.033 214.694,79.8664 217.5,83C 214.387,89.1701 212.387,95.6701 211.5,102.5C 213.924,102.808 216.257,102.474 218.5,101.5C 219.496,96.6782 220.996,92.0116 223,87.5C 223.561,86.9781 224.228,86.6448 225,86.5C 231.47,89.8243 238.304,91.8243 245.5,92.5C 245.5,96.1667 245.5,99.8333 245.5,103.5C 247.833,103.5 250.167,103.5 252.5,103.5 Z"/></g>
<g><path style="opacity:1" fill="#ca747b" d="M 256.5,92.5 C 255.791,93.404 254.791,93.7373 253.5,93.5C 253.813,97.0419 253.479,100.375 252.5,103.5C 252.5,99.8333 252.5,96.1667 252.5,92.5C 253.833,92.5 255.167,92.5 256.5,92.5 Z"/></g>
<g><path style="opacity:1" fill="#aa1f28" d="M 253.5,211.5 C 251.084,214.034 248.75,214.034 246.5,211.5C 243.358,208.531 240.025,205.698 236.5,203C 219.312,192.538 200.645,188.371 180.5,190.5C 175.295,161.142 169.962,131.808 164.5,102.5C 169.844,102.334 175.177,102.501 180.5,103C 171.341,143.679 185.341,173.345 222.5,192C 245.985,199.929 268.318,197.595 289.5,185C 316.953,164.069 326.62,136.736 318.5,103C 323.823,102.501 329.156,102.334 334.5,102.5C 329.074,131.819 323.74,161.152 318.5,190.5C 293.224,187.205 271.224,194.039 252.5,211C 252.728,211.399 253.062,211.565 253.5,211.5 Z"/></g>
<g><path style="opacity:1" fill="#fcf9fa" d="M 212.5,141.5 C 212.666,135.824 212.499,130.157 212,124.5C 210.961,125.244 210.461,126.244 210.5,127.5C 208.788,131.927 206.788,136.26 204.5,140.5C 202.604,141.466 200.604,141.799 198.5,141.5C 198.5,130.167 198.5,118.833 198.5,107.5C 200.833,107.5 203.167,107.5 205.5,107.5C 205.334,112.844 205.501,118.177 206,123.5C 208.665,118.331 210.832,112.998 212.5,107.5C 214.833,107.5 217.167,107.5 219.5,107.5C 219.5,118.833 219.5,130.167 219.5,141.5C 217.167,141.5 214.833,141.5 212.5,141.5 Z"/></g>
<g><path style="opacity:1" fill="#fcf9fa" d="M 238.5,141.5 C 238.666,135.824 238.499,130.157 238,124.5C 236.961,125.244 236.461,126.244 236.5,127.5C 234.788,131.927 232.788,136.26 230.5,140.5C 228.604,141.466 226.604,141.799 224.5,141.5C 224.5,130.167 224.5,118.833 224.5,107.5C 226.833,107.5 229.167,107.5 231.5,107.5C 231.334,112.844 231.501,118.177 232,123.5C 234.665,118.331 236.832,112.998 238.5,107.5C 240.833,107.5 243.167,107.5 245.5,107.5C 245.5,118.833 245.5,130.167 245.5,141.5C 243.167,141.5 240.833,141.5 238.5,141.5 Z"/></g>
<g><path style="opacity:1" fill="#fdfbfb" d="M 269.5,141.5 C 269.666,136.156 269.499,130.823 269,125.5C 267.961,126.244 267.461,127.244 267.5,128.5C 267.028,131.809 265.361,134.142 262.5,135.5C 259.843,132.766 258.009,129.432 257,125.5C 256.501,130.823 256.334,136.156 256.5,141.5C 254.5,141.5 252.5,141.5 250.5,141.5C 250.5,130.167 250.5,118.833 250.5,107.5C 252.604,107.201 254.604,107.534 256.5,108.5C 258.569,113.873 260.736,119.207 263,124.5C 265,119.167 267,113.833 269,108.5C 271.041,107.577 273.208,107.244 275.5,107.5C 275.5,118.833 275.5,130.167 275.5,141.5C 273.5,141.5 271.5,141.5 269.5,141.5 Z"/></g>
<g><path style="opacity:1" fill="#faf2f3" d="M 287.5,106.5 C 292.907,106.125 297.073,108.125 300,112.5C 300.667,120.5 300.667,128.5 300,136.5C 296.153,142.388 290.987,143.888 284.5,141C 282.622,139.457 281.122,137.624 280,135.5C 279.333,128.167 279.333,120.833 280,113.5C 281.767,110.228 284.267,107.895 287.5,106.5 Z"/></g>
<g><path style="opacity:1" fill="#a81a25" d="M 288.5,112.5 C 289.93,112.421 291.264,112.754 292.5,113.5C 293.664,120.476 293.831,127.476 293,134.5C 291.688,136.658 290.022,136.991 288,135.5C 287.202,127.754 287.369,120.087 288.5,112.5 Z"/></g>
<g><path style="opacity:1" fill="#fcf8f8" d="M 143.5,116.5 C 144.496,116.414 145.329,116.748 146,117.5C 151.816,148.879 157.816,180.212 164,211.5C 175.236,206.286 187.069,203.953 199.5,204.5C 213.727,203.984 227.393,206.484 240.5,212C 230.692,211.605 220.859,211.105 211,210.5C 190.674,210.666 171.84,215.999 154.5,226.5C 147.445,191.936 141.278,157.269 136,122.5C 138.688,120.636 141.188,118.636 143.5,116.5 Z"/></g>
<g><path style="opacity:1" fill="#fbf7f7" d="M 352.5,115.5 C 355.444,117.311 358.444,119.144 361.5,121C 362.944,122.126 363.61,123.626 363.5,125.5C 357.414,159.275 350.914,192.941 344,226.5C 325.581,215.475 305.581,210.142 284,210.5C 274.381,210.799 264.881,211.632 255.5,213C 274.042,204.977 293.376,202.31 313.5,205C 320.764,206.321 327.764,208.488 334.5,211.5C 341.142,179.623 347.142,147.623 352.5,115.5 Z"/></g>
<g><path style="opacity:1" fill="#da9ca1" d="M 314.5,120.5 C 313.081,121.451 311.415,121.784 309.5,121.5C 309.5,123.5 309.5,125.5 309.5,127.5C 311.415,127.216 313.081,127.549 314.5,128.5C 312.5,128.5 310.5,128.5 308.5,128.5C 308.5,125.833 308.5,123.167 308.5,120.5C 310.5,120.5 312.5,120.5 314.5,120.5 Z"/></g>
<g><path style="opacity:1" fill="#e2b1b4" d="M 184.5,120.5 C 186.5,120.5 188.5,120.5 190.5,120.5C 190.5,123.167 190.5,125.833 190.5,128.5C 188.5,128.5 186.5,128.5 184.5,128.5C 185.919,127.549 187.585,127.216 189.5,127.5C 189.5,125.5 189.5,123.5 189.5,121.5C 187.585,121.784 185.919,121.451 184.5,120.5 Z"/></g>
<g><path style="opacity:1" fill="#c15c63" d="M 212.5,141.5 C 211.833,136.833 211.167,132.167 210.5,127.5C 210.461,126.244 210.961,125.244 212,124.5C 212.499,130.157 212.666,135.824 212.5,141.5 Z"/></g>
<g><path style="opacity:1" fill="#c25e65" d="M 238.5,141.5 C 237.833,136.833 237.167,132.167 236.5,127.5C 236.461,126.244 236.961,125.244 238,124.5C 238.499,130.157 238.666,135.824 238.5,141.5 Z"/></g>
<g><path style="opacity:1" fill="#cf8187" d="M 269.5,141.5 C 268.833,137.167 268.167,132.833 267.5,128.5C 267.461,127.244 267.961,126.244 269,125.5C 269.499,130.823 269.666,136.156 269.5,141.5 Z"/></g>
<g><path style="opacity:1" fill="#ab232b" d="M 252.5,161.5 C 258.932,161.717 264.932,163.383 270.5,166.5C 265.825,174.184 259.992,180.851 253,186.5C 252.5,178.173 252.334,169.84 252.5,161.5 Z"/></g>
<g><path style="opacity:1" fill="#aa1f28" d="M 242.5,162.5 C 243.5,162.5 244.5,162.5 245.5,162.5C 245.825,170.352 245.492,178.018 244.5,185.5C 238.497,179.822 233.164,173.489 228.5,166.5C 232.828,164.033 237.495,162.7 242.5,162.5 Z"/></g>
<g><path style="opacity:1" fill="#e1b0b4" d="M 242.5,162.5 C 243.568,161.566 244.901,161.232 246.5,161.5C 246.831,169.86 246.498,178.193 245.5,186.5C 244.893,186.376 244.56,186.043 244.5,185.5C 245.492,178.018 245.825,170.352 245.5,162.5C 244.5,162.5 243.5,162.5 242.5,162.5 Z"/></g>
<g><path style="opacity:1" fill="#ac252c" d="M 277.5,168.5 C 281.304,171.239 285.304,173.739 289.5,176C 281.517,182.67 272.517,186.503 262.5,187.5C 268.636,182.034 273.636,175.701 277.5,168.5 Z"/></g>
<g><path style="opacity:1" fill="#ab242c" d="M 220.5,169.5 C 221.496,169.414 222.329,169.748 223,170.5C 226.549,176.886 231.049,182.553 236.5,187.5C 227.372,186.791 219.039,183.458 211.5,177.5C 214.52,174.811 217.52,172.144 220.5,169.5 Z"/></g>
<g><path style="opacity:1" fill="#fbf6f7" d="M 204.5,357.5 C 202.5,357.5 200.5,357.5 198.5,357.5C 198.831,335.327 198.497,313.327 197.5,291.5C 195.833,291.5 194.167,291.5 192.5,291.5C 192.5,289.167 192.5,286.833 192.5,284.5C 194.167,284.5 195.833,284.5 197.5,284.5C 197.5,280.5 197.5,276.5 197.5,272.5C 175.306,272.134 165.14,260.8 167,238.5C 171.197,226.308 179.697,219.141 192.5,217C 230.167,216.333 267.833,216.333 305.5,217C 324.959,220.447 333.792,231.947 332,251.5C 327.175,266.146 317.008,273.146 301.5,272.5C 301.5,276.5 301.5,280.5 301.5,284.5C 303.833,284.5 306.167,284.5 308.5,284.5C 308.5,286.833 308.5,289.167 308.5,291.5C 306.167,291.5 303.833,291.5 301.5,291.5C 301.5,313.833 301.5,336.167 301.5,358.5C 299.167,358.5 296.833,358.5 294.5,358.5C 294.5,336.167 294.5,313.833 294.5,291.5C 264.5,291.5 234.5,291.5 204.5,291.5C 204.5,313.5 204.5,335.5 204.5,357.5 Z"/></g>
<g><path style="opacity:1" fill="#aa2029" d="M 192.5,222.5 C 230.168,222.333 267.835,222.5 305.5,223C 324.306,228.097 330.14,239.597 323,257.5C 316.45,265.906 307.95,268.739 297.5,266C 286.312,260.383 283.145,251.883 288,240.5C 292.608,234.44 298.441,232.94 305.5,236C 312.559,241.398 313.226,247.398 307.5,254C 301.646,256.739 297.646,255.072 295.5,249C 295.759,247.739 296.426,246.739 297.5,246C 300.475,245.956 303.475,246.123 306.5,246.5C 307.165,241.353 304.832,239.02 299.5,239.5C 289.159,242.518 286.993,248.518 293,257.5C 303.568,264.225 311.568,261.892 317,250.5C 318.979,239.296 314.479,232.13 303.5,229C 266.835,229.659 230.168,229.659 193.5,229C 180.36,236.127 178.026,245.793 186.5,258C 194.866,263.561 202.033,262.395 208,254.5C 210.104,243.95 205.938,239.116 195.5,240C 192.782,241.415 192.115,243.415 193.5,246C 196.409,245.716 199.242,245.883 202,246.5C 203.764,251.947 201.597,254.947 195.5,255.5C 188.569,253.309 186.069,248.642 188,241.5C 193.068,234.132 199.568,232.632 207.5,237C 215.771,246.536 215.104,255.536 205.5,264C 190.76,270.305 179.927,266.139 173,251.5C 170.345,241.649 173.178,233.816 181.5,228C 185.017,225.674 188.683,223.84 192.5,222.5 Z"/></g>
<g><path style="opacity:1" fill="#d28a90" d="M 282.5,237.5 C 260.5,236.167 238.5,236.167 216.5,237.5C 215.957,237.44 215.624,237.107 215.5,236.5C 238.167,235.167 260.833,235.167 283.5,236.5C 283.376,237.107 283.043,237.44 282.5,237.5 Z"/></g>
<g><path style="opacity:1" fill="#a81824" d="M 282.5,237.5 C 278.211,245.864 278.545,254.031 283.5,262C 260.826,262.833 238.159,262.666 215.5,261.5C 220.348,253.685 220.682,245.685 216.5,237.5C 238.5,236.167 260.5,236.167 282.5,237.5 Z"/></g>
<g><path style="opacity:1" fill="#c86d73" d="M 254.5,274.5 C 254.5,272.5 254.5,270.5 254.5,268.5C 251.167,268.5 247.833,268.5 244.5,268.5C 244.5,270.5 244.5,272.5 244.5,274.5C 243.532,272.393 243.198,270.059 243.5,267.5C 247.5,267.5 251.5,267.5 255.5,267.5C 255.802,270.059 255.468,272.393 254.5,274.5 Z"/></g>
<g><path style="opacity:1" fill="#ac262e" d="M 208.5,268.5 C 209.5,268.5 210.5,268.5 211.5,268.5C 211.664,271.187 211.497,273.854 211,276.5C 210.395,278.481 209.395,278.815 208,277.5C 207.264,274.408 207.431,271.408 208.5,268.5 Z"/></g>
<g><path style="opacity:1" fill="#ac252d" d="M 216.5,267.5 C 218.167,267.5 219.833,267.5 221.5,267.5C 221.665,270.85 221.498,274.183 221,277.5C 219.667,278.833 218.333,278.833 217,277.5C 216.502,274.183 216.335,270.85 216.5,267.5 Z"/></g>
<g><path style="opacity:1" fill="#ab222b" d="M 229.5,267.5 C 232.5,267.5 235.5,267.5 238.5,267.5C 238.929,271.257 238.263,274.757 236.5,278C 233.975,278.896 231.808,278.396 230,276.5C 229.502,273.518 229.335,270.518 229.5,267.5 Z"/></g>
<g><path style="opacity:1" fill="#a91e27" d="M 254.5,274.5 C 253.043,278.049 250.377,279.216 246.5,278C 245.177,277.184 244.511,276.017 244.5,274.5C 244.5,272.5 244.5,270.5 244.5,268.5C 247.833,268.5 251.167,268.5 254.5,268.5C 254.5,270.5 254.5,272.5 254.5,274.5 Z"/></g>
<g><path style="opacity:1" fill="#ad282e" d="M 260.5,267.5 C 263.5,267.5 266.5,267.5 269.5,267.5C 269.665,270.518 269.498,273.518 269,276.5C 265.844,279.399 263.178,279.065 261,275.5C 260.503,272.854 260.336,270.187 260.5,267.5 Z"/></g>
<g><path style="opacity:1" fill="#ad282f" d="M 277.5,267.5 C 279.167,267.5 280.833,267.5 282.5,267.5C 282.665,270.85 282.498,274.183 282,277.5C 280.667,278.833 279.333,278.833 278,277.5C 277.502,274.183 277.335,270.85 277.5,267.5 Z"/></g>
<g><path style="opacity:1" fill="#ad2930" d="M 287.5,267.5 C 289.017,267.511 290.184,268.177 291,269.5C 291.936,272.792 291.436,275.792 289.5,278.5C 288.914,278.291 288.414,277.957 288,277.5C 287.502,274.183 287.335,270.85 287.5,267.5 Z"/></g>
<g><path style="opacity:1" fill="#b9464c" d="M 224.5,278.5 C 229.666,284.161 235.499,284.827 242,280.5C 247.414,284.694 252.58,284.361 257.5,279.5C 262.983,283.76 268.15,283.427 273,278.5C 276.003,283.275 279.836,284.275 284.5,281.5C 287.699,282.799 290.865,282.799 294,281.5C 294.483,282.448 294.649,283.448 294.5,284.5C 264.5,284.5 234.5,284.5 204.5,284.5C 204.281,283.325 204.614,282.325 205.5,281.5C 208.5,282.833 211.5,282.833 214.5,281.5C 219.106,284.519 222.439,283.519 224.5,278.5 Z"/></g>
<g><path style="opacity:1" fill="#fdfdfd" d="M 215.5,302.5 C 215.5,320.833 215.5,339.167 215.5,357.5C 213.5,357.5 211.5,357.5 209.5,357.5C 209.5,338.833 209.5,320.167 209.5,301.5C 210.659,299.623 212.326,299.123 214.5,300C 215.252,300.671 215.586,301.504 215.5,302.5 Z"/></g>
<g><path style="opacity:1" fill="#fdfdfd" d="M 278.5,302.5 C 278.5,320.833 278.5,339.167 278.5,357.5C 275.833,357.5 273.167,357.5 270.5,357.5C 270.333,338.83 270.5,320.164 271,301.5C 272.808,299.604 274.975,299.104 277.5,300C 278.252,300.671 278.586,301.504 278.5,302.5 Z"/></g>
<g><path style="opacity:1" fill="#fcf8f8" d="M 222.5,299.5 C 225.044,299.104 227.211,299.771 229,301.5C 229.5,320.497 229.667,339.497 229.5,358.5C 226.5,358.5 223.5,358.5 220.5,358.5C 220.333,339.497 220.5,320.497 221,301.5C 221.717,300.956 222.217,300.289 222.5,299.5 Z"/></g>
<g><path style="opacity:1" fill="#fdfafb" d="M 237.5,299.5 C 240.652,298.959 243.152,299.959 245,302.5C 245.5,321.164 245.667,339.83 245.5,358.5C 241.833,358.5 238.167,358.5 234.5,358.5C 234.333,339.83 234.5,321.164 235,302.5C 235.698,301.309 236.531,300.309 237.5,299.5 Z"/></g>
<g><path style="opacity:1" fill="#fdfdfd" d="M 264.5,303.5 C 264.5,321.5 264.5,339.5 264.5,357.5C 261.167,357.5 257.833,357.5 254.5,357.5C 254.333,338.83 254.5,320.164 255,301.5C 257.153,299.556 259.653,299.056 262.5,300C 263.823,300.816 264.489,301.983 264.5,303.5 Z"/></g>
<g><path style="opacity:1" fill="#fcfafa" d="M 285.5,299.5 C 287.144,299.286 288.644,299.62 290,300.5C 290.5,319.83 290.667,339.164 290.5,358.5C 288.167,358.5 285.833,358.5 283.5,358.5C 282.864,338.6 283.531,318.933 285.5,299.5 Z"/></g>
<g><path style="opacity:1" fill="#d7979c" d="M 209.5,301.5 C 209.5,320.167 209.5,338.833 209.5,357.5C 211.5,357.5 213.5,357.5 215.5,357.5C 215.5,339.167 215.5,320.833 215.5,302.5C 216.497,320.993 216.83,339.659 216.5,358.5C 213.833,358.5 211.167,358.5 208.5,358.5C 208.17,339.326 208.503,320.326 209.5,301.5 Z"/></g>
<g><path style="opacity:1" fill="#e5babe" d="M 197.5,291.5 C 198.497,313.327 198.831,335.327 198.5,357.5C 200.5,357.5 202.5,357.5 204.5,357.5C 202.393,358.468 200.059,358.802 197.5,358.5C 197.5,336.167 197.5,313.833 197.5,291.5 Z"/></g>
<g><path style="opacity:1" fill="#d7969b" d="M 264.5,303.5 C 265.497,321.659 265.83,339.992 265.5,358.5C 261.629,358.815 257.962,358.482 254.5,357.5C 257.833,357.5 261.167,357.5 264.5,357.5C 264.5,339.5 264.5,321.5 264.5,303.5 Z"/></g>
<g><path style="opacity:1" fill="#d7979c" d="M 278.5,302.5 C 279.497,320.993 279.83,339.659 279.5,358.5C 276.287,358.81 273.287,358.477 270.5,357.5C 273.167,357.5 275.833,357.5 278.5,357.5C 278.5,339.167 278.5,320.833 278.5,302.5 Z"/></g>
<g><path style="opacity:1" fill="#f9eeef" d="M 222.5,366.5 C 224.604,366.201 226.604,366.534 228.5,367.5C 231.937,376.645 235.27,385.812 238.5,395C 236.527,395.495 234.527,395.662 232.5,395.5C 232.984,390.199 230.651,387.866 225.5,388.5C 220.349,387.866 218.016,390.199 218.5,395.5C 216.473,395.662 214.473,395.495 212.5,395C 216.328,385.682 219.662,376.182 222.5,366.5 Z"/></g>
<g><path style="opacity:1" fill="#c66971" d="M 260.5,367.5 C 255.167,367.5 249.833,367.5 244.5,367.5C 244.5,376.833 244.5,386.167 244.5,395.5C 243.506,386.014 243.173,376.348 243.5,366.5C 249.358,366.178 255.025,366.511 260.5,367.5 Z"/></g>
<g><path style="opacity:1" fill="#fcf9fa" d="M 260.5,367.5 C 260.5,368.833 260.5,370.167 260.5,371.5C 256.833,371.5 253.167,371.5 249.5,371.5C 249.5,379.5 249.5,387.5 249.5,395.5C 247.833,395.5 246.167,395.5 244.5,395.5C 244.5,386.167 244.5,376.833 244.5,367.5C 249.833,367.5 255.167,367.5 260.5,367.5 Z"/></g>
<g><path style="opacity:1" fill="#f9eeef" d="M 263.5,366.5 C 265.467,366.261 267.301,366.594 269,367.5C 271.246,372.326 273.746,376.992 276.5,381.5C 278.605,376.954 280.439,372.287 282,367.5C 283.814,366.24 285.647,366.24 287.5,367.5C 284.765,374.873 281.931,382.206 279,389.5C 276.983,394.924 273.15,396.758 267.5,395C 266.352,391.482 267.518,390.315 271,391.5C 272.434,391.07 273.601,390.236 274.5,389C 270.422,381.678 266.755,374.178 263.5,366.5 Z"/></g>
<g><path style="opacity:1" fill="#ad282f" d="M 228.5,382.5 C 226.5,383.833 224.5,383.833 222.5,382.5C 224.549,371.886 226.549,371.886 228.5,382.5 Z"/></g>
<g><path style="opacity:1" fill="#faf2f2" d="M 199.5,382.5 C 204.328,382.385 205.661,384.552 203.5,389C 197.339,389.878 196.006,387.711 199.5,382.5 Z"/></g>
<g><path style="opacity:1" fill="#d99ba0" d="M 222.5,382.5 C 224.5,383.833 226.5,383.833 228.5,382.5C 229.043,382.56 229.376,382.893 229.5,383.5C 226.833,384.833 224.167,384.833 221.5,383.5C 221.624,382.893 221.957,382.56 222.5,382.5 Z"/></g>
<g><path style="opacity:1" fill="#f9f0f0" d="M 295.5,382.5 C 300.486,382.305 302.152,384.472 300.5,389C 294.741,390.139 293.074,387.972 295.5,382.5 Z"/></g>
</svg>
