<?xml version="1.0" encoding="UTF-8"?>
<!DOCTYPE svg PUBLIC "-//W3C//DTD SVG 1.1//EN" "http://www.w3.org/Graphics/SVG/1.1/DTD/svg11.dtd">
<svg xmlns="http://www.w3.org/2000/svg" version="1.1" width="500px" height="500px" style="shape-rendering:geometricPrecision; text-rendering:geometricPrecision; image-rendering:optimizeQuality; fill-rule:evenodd; clip-rule:evenodd" xmlns:xlink="http://www.w3.org/1999/xlink">
<g><path style="opacity:0.999" fill="#bce2f3" d="M 251.5,499.5 C 250.5,499.5 249.5,499.5 248.5,499.5C 239.031,483.213 225.365,471.713 207.5,465C 198.083,461.65 188.417,459.316 178.5,458C 159.515,456.751 140.515,455.751 121.5,455C 76.1967,449.557 52.3633,424.057 50,378.5C 49.5,252.5 49.3333,126.5 49.5,0.5C 183.167,0.5 316.833,0.5 450.5,0.5C 450.667,128.834 450.5,257.167 450,385.5C 445.924,427.576 422.757,450.743 380.5,455C 359.833,456 339.167,457 318.5,458C 294.16,460.086 273.993,470.253 258,488.5C 255.607,492.054 253.44,495.72 251.5,499.5 Z"/></g>
<g><path style="opacity:1" fill="#fcfdfd" d="M 253.5,212.5 C 263.692,201.721 276.692,194.888 292.5,192C 301.494,191.5 310.494,191.334 319.5,191.5C 324.448,162.094 329.781,132.76 335.5,103.5C 330.101,103.087 324.767,103.087 319.5,103.5C 328.397,142.532 315.397,171.698 280.5,191C 247.246,203.977 218.412,197.477 194,171.5C 178.154,150.755 173.654,127.755 180.5,102.5C 175.482,102.613 170.482,102.947 165.5,103.5C 170.343,131.869 175.343,160.202 180.5,188.5C 180.5,189.5 180.5,190.5 180.5,191.5C 186.5,191.5 192.5,191.5 198.5,191.5C 217.658,192.254 233.991,199.254 247.5,212.5C 223.064,199.819 197.397,196.486 170.5,202.5C 164.176,167.208 158.176,131.875 152.5,96.5C 157.216,95.9917 161.882,95.1584 166.5,94C 172.22,93.2124 177.886,93.3791 183.5,94.5C 202.487,60.5093 231.154,47.3426 269.5,55C 290.31,61.1519 305.643,73.8186 315.5,93C 326.438,92.7687 337.105,94.2687 347.5,97.5C 347.833,98.1667 348.167,98.8333 348.5,99.5C 341.888,133.783 335.555,168.116 329.5,202.5C 302.797,195.844 277.464,199.177 253.5,212.5 Z"/></g>
<g><path style="opacity:1" fill="#c0e3f3" d="M 230.5,61.5 C 231.873,61.3433 233.207,61.51 234.5,62C 230.132,66.033 226.132,70.3663 222.5,75C 219.158,74.7028 216.491,73.0361 214.5,70C 219.768,66.8683 225.101,64.0349 230.5,61.5 Z"/></g>
<g><path style="opacity:1" fill="#bde2f3" d="M 245.5,61.5 C 246.492,69.3159 246.826,77.3159 246.5,85.5C 239.698,85.6172 233.698,83.6172 228.5,79.5C 232.837,72.1653 238.504,66.1653 245.5,61.5 Z"/></g>
<g><path style="opacity:1" fill="#bde2f3" d="M 253.5,61.5 C 261.435,66.4337 268.102,72.7671 273.5,80.5C 271.584,82.3173 269.251,83.484 266.5,84C 262.246,85.3141 257.913,86.1474 253.5,86.5C 253.5,78.1667 253.5,69.8333 253.5,61.5 Z"/></g>
<g><path style="opacity:1" fill="#bee3f3" d="M 266.5,62.5 C 266.56,61.9569 266.893,61.6236 267.5,61.5C 271.539,62.9017 275.539,64.4017 279.5,66C 282.943,67.6179 285.943,69.7846 288.5,72.5C 285.909,75.1295 282.909,76.6295 279.5,77C 275.735,71.6225 271.402,66.7891 266.5,62.5 Z"/></g>
<g><path style="opacity:1" fill="#bde2f3" d="M 246.5,92.5 C 246.5,96.5 246.5,100.5 246.5,104.5C 249.059,104.802 251.393,104.468 253.5,103.5C 253.5,99.8333 253.5,96.1667 253.5,92.5C 261.564,92.7019 269.23,91.0353 276.5,87.5C 277.799,88.09 278.632,89.09 279,90.5C 280.269,94.1414 281.436,97.8081 282.5,101.5C 284.743,102.474 287.076,102.808 289.5,102.5C 288.503,96.1772 286.503,90.1772 283.5,84.5C 287.747,82.4179 291.581,79.7512 295,76.5C 307.791,88.7504 314.624,103.75 315.5,121.5C 313.5,121.5 311.5,121.5 309.5,121.5C 309.5,123.833 309.5,126.167 309.5,128.5C 311.5,128.5 313.5,128.5 315.5,128.5C 314.473,145.053 308.139,159.22 296.5,171C 291.618,169.469 287.118,166.969 283,163.5C 284.359,158.579 285.859,153.579 287.5,148.5C 286.037,145.592 283.87,144.925 281,146.5C 278.921,150.653 277.421,154.986 276.5,159.5C 269.015,157.24 261.348,155.906 253.5,155.5C 253.5,151.833 253.5,148.167 253.5,144.5C 251.167,144.5 248.833,144.5 246.5,144.5C 246.5,148.167 246.5,151.833 246.5,155.5C 239.285,155.679 232.452,157.345 226,160.5C 223.688,156.405 221.854,152.072 220.5,147.5C 218.257,146.526 215.924,146.192 213.5,146.5C 214.7,152.434 216.7,158.1 219.5,163.5C 214.771,167.12 209.771,169.953 204.5,172C 192.546,159.99 185.88,145.49 184.5,128.5C 186.5,128.5 188.5,128.5 190.5,128.5C 190.5,126.167 190.5,123.833 190.5,121.5C 188.833,121.5 187.167,121.5 185.5,121.5C 185.695,106.744 190.529,93.7443 200,82.5C 202.703,79.462 205.703,76.7954 209,74.5C 211.727,77.7306 214.894,80.3972 218.5,82.5C 215.257,88.806 213.257,95.4727 212.5,102.5C 214.833,102.5 217.167,102.5 219.5,102.5C 219.856,96.4705 221.856,91.1371 225.5,86.5C 232.113,89.9028 239.113,91.9028 246.5,92.5 Z"/></g>
<g><path style="opacity:1" fill="#e8f5fa" d="M 246.5,92.5 C 247.482,95.9619 247.815,99.6286 247.5,103.5C 249.5,103.5 251.5,103.5 253.5,103.5C 251.393,104.468 249.059,104.802 246.5,104.5C 246.5,100.5 246.5,96.5 246.5,92.5 Z"/></g>
<g><path style="opacity:1" fill="#bde2f3" d="M 253.5,212.5 C 251.406,214.994 249.406,214.994 247.5,212.5C 233.991,199.254 217.658,192.254 198.5,191.5C 192.401,191.077 186.401,190.077 180.5,188.5C 175.343,160.202 170.343,131.869 165.5,103.5C 170.482,102.947 175.482,102.613 180.5,102.5C 173.654,127.755 178.154,150.755 194,171.5C 218.412,197.477 247.246,203.977 280.5,191C 315.397,171.698 328.397,142.532 319.5,103.5C 324.767,103.087 330.101,103.087 335.5,103.5C 329.781,132.76 324.448,162.094 319.5,191.5C 310.494,191.334 301.494,191.5 292.5,192C 276.692,194.888 263.692,201.721 253.5,212.5 Z"/></g>
<g><path style="opacity:1" fill="#edf6fa" d="M 199.5,107.5 C 199.5,118.833 199.5,130.167 199.5,141.5C 201.5,141.5 203.5,141.5 205.5,141.5C 203.393,142.468 201.059,142.802 198.5,142.5C 198.172,130.655 198.505,118.988 199.5,107.5 Z"/></g>
<g><path style="opacity:1" fill="#fdfdfd" d="M 199.5,107.5 C 201.5,107.5 203.5,107.5 205.5,107.5C 205.334,113.509 205.501,119.509 206,125.5C 207.039,124.756 207.539,123.756 207.5,122.5C 209.485,117.859 211.485,113.193 213.5,108.5C 215.396,107.534 217.396,107.201 219.5,107.5C 219.5,118.833 219.5,130.167 219.5,141.5C 217.5,141.5 215.5,141.5 213.5,141.5C 213.666,135.824 213.499,130.157 213,124.5C 212.283,125.044 211.783,125.711 211.5,126.5C 209.223,131.387 207.223,136.387 205.5,141.5C 203.5,141.5 201.5,141.5 199.5,141.5C 199.5,130.167 199.5,118.833 199.5,107.5 Z"/></g>
<g><path style="opacity:1" fill="#daeff8" d="M 205.5,107.5 C 206.167,112.5 206.833,117.5 207.5,122.5C 207.539,123.756 207.039,124.756 206,125.5C 205.501,119.509 205.334,113.509 205.5,107.5 Z"/></g>
<g><path style="opacity:1" fill="#e3f2f9" d="M 219.5,107.5 C 220.495,118.988 220.828,130.655 220.5,142.5C 217.833,142.5 215.167,142.5 212.5,142.5C 212.821,136.974 212.488,131.64 211.5,126.5C 211.783,125.711 212.283,125.044 213,124.5C 213.499,130.157 213.666,135.824 213.5,141.5C 215.5,141.5 217.5,141.5 219.5,141.5C 219.5,130.167 219.5,118.833 219.5,107.5 Z"/></g>
<g><path style="opacity:1" fill="#e8f4fa" d="M 225.5,107.5 C 225.5,118.833 225.5,130.167 225.5,141.5C 227.5,141.5 229.5,141.5 231.5,141.5C 229.393,142.468 227.059,142.802 224.5,142.5C 224.172,130.655 224.505,118.988 225.5,107.5 Z"/></g>
<g><path style="opacity:1" fill="#fdfdfd" d="M 225.5,107.5 C 227.5,107.5 229.5,107.5 231.5,107.5C 231.334,113.509 231.501,119.509 232,125.5C 232.717,124.956 233.217,124.289 233.5,123.5C 235.21,118.409 237.21,113.409 239.5,108.5C 241.396,107.534 243.396,107.201 245.5,107.5C 245.5,118.833 245.5,130.167 245.5,141.5C 243.5,141.5 241.5,141.5 239.5,141.5C 239.666,135.824 239.499,130.157 239,124.5C 238.283,125.044 237.783,125.711 237.5,126.5C 235.5,131.5 233.5,136.5 231.5,141.5C 229.5,141.5 227.5,141.5 225.5,141.5C 225.5,130.167 225.5,118.833 225.5,107.5 Z"/></g>
<g><path style="opacity:1" fill="#def0f8" d="M 231.5,107.5 C 232.167,112.833 232.833,118.167 233.5,123.5C 233.217,124.289 232.717,124.956 232,125.5C 231.501,119.509 231.334,113.509 231.5,107.5 Z"/></g>
<g><path style="opacity:1" fill="#e7f4f9" d="M 245.5,107.5 C 246.495,118.988 246.828,130.655 246.5,142.5C 243.833,142.5 241.167,142.5 238.5,142.5C 238.821,136.974 238.488,131.64 237.5,126.5C 237.783,125.711 238.283,125.044 239,124.5C 239.499,130.157 239.666,135.824 239.5,141.5C 241.5,141.5 243.5,141.5 245.5,141.5C 245.5,130.167 245.5,118.833 245.5,107.5 Z"/></g>
<g><path style="opacity:1" fill="#fbfcfd" d="M 270.5,142.5 C 270.666,136.824 270.499,131.157 270,125.5C 268.961,126.244 268.461,127.244 268.5,128.5C 267.829,131.852 266.163,134.519 263.5,136.5C 260.843,133.766 259.009,130.432 258,126.5C 257.501,131.823 257.334,137.156 257.5,142.5C 255.167,142.5 252.833,142.5 250.5,142.5C 250.5,130.833 250.5,119.167 250.5,107.5C 252.792,107.244 254.959,107.577 257,108.5C 259.345,114.212 261.678,119.878 264,125.5C 265.799,119.769 267.799,114.102 270,108.5C 272.041,107.577 274.208,107.244 276.5,107.5C 276.5,119.167 276.5,130.833 276.5,142.5C 274.5,142.5 272.5,142.5 270.5,142.5 Z"/></g>
<g><path style="opacity:1" fill="#fbfcfd" d="M 286.5,107.5 C 292.43,106.341 297.263,108.007 301,112.5C 301.667,120.5 301.667,128.5 301,136.5C 297.723,142.109 292.89,143.942 286.5,142C 283.619,140.749 281.786,138.583 281,135.5C 280.333,128.167 280.333,120.833 281,113.5C 282.36,110.977 284.193,108.977 286.5,107.5 Z"/></g>
<g><path style="opacity:1" fill="#bde2f3" d="M 289.5,112.5 C 290.93,112.421 292.264,112.754 293.5,113.5C 294.664,120.476 294.831,127.476 294,134.5C 292.599,136.192 290.766,136.859 288.5,136.5C 288.199,128.414 288.533,120.414 289.5,112.5 Z"/></g>
<g><path style="opacity:1" fill="#fcfdfd" d="M 353.5,116.5 C 358.976,117.859 362.643,121.025 364.5,126C 358.489,159.255 352.155,192.421 345.5,225.5C 345.167,225.833 344.833,226.167 344.5,226.5C 317.347,212.504 288.68,208.004 258.5,213C 270.538,207.359 283.204,204.859 296.5,205.5C 310.27,204.822 323.437,207.155 336,212.5C 342.16,180.546 347.993,148.546 353.5,116.5 Z"/></g>
<g><path style="opacity:1" fill="#fcfdfd" d="M 144.5,116.5 C 145.931,116.881 146.764,117.881 147,119.5C 152.951,150.087 158.451,180.754 163.5,211.5C 189.988,203.161 216.321,203.661 242.5,213C 227.527,212.127 212.527,211.794 197.5,212C 190.386,213.195 183.386,214.862 176.5,217C 169.22,220.476 161.886,223.642 154.5,226.5C 148.118,192.321 141.785,158.154 135.5,124C 138.539,121.49 141.539,118.99 144.5,116.5 Z"/></g>
<g><path style="opacity:1" fill="#e2f1f8" d="M 270.5,142.5 C 269.833,137.833 269.167,133.167 268.5,128.5C 268.461,127.244 268.961,126.244 270,125.5C 270.499,131.157 270.666,136.824 270.5,142.5 Z"/></g>
<g><path style="opacity:1" fill="#bde2f3" d="M 239.5,162.5 C 241.833,162.5 244.167,162.5 246.5,162.5C 246.666,170.507 246.5,178.507 246,186.5C 239.625,180.956 234.125,174.623 229.5,167.5C 232.615,165.349 235.948,163.683 239.5,162.5 Z"/></g>
<g><path style="opacity:1" fill="#bde2f3" d="M 253.5,162.5 C 259.59,162.985 265.59,163.985 271.5,165.5C 267.763,174.085 261.93,181.085 254,186.5C 253.5,178.507 253.334,170.507 253.5,162.5 Z"/></g>
<g><path style="opacity:1" fill="#bee3f3" d="M 278.5,169.5 C 282.64,171.739 286.64,174.239 290.5,177C 282.116,183.346 272.783,187.346 262.5,189C 268.424,182.917 273.757,176.417 278.5,169.5 Z"/></g>
<g><path style="opacity:1" fill="#bfe3f3" d="M 220.5,170.5 C 221.822,170.33 222.989,170.663 224,171.5C 227.702,178.208 232.535,184.041 238.5,189C 228.59,187.975 219.923,184.141 212.5,177.5C 215.212,175.115 217.878,172.782 220.5,170.5 Z"/></g>
<g><path style="opacity:1" fill="#daeff7" d="M 180.5,188.5 C 186.401,190.077 192.401,191.077 198.5,191.5C 192.5,191.5 186.5,191.5 180.5,191.5C 180.5,190.5 180.5,189.5 180.5,188.5 Z"/></g>
<g><path style="opacity:1" fill="#fcfdfd" d="M 193.5,285.5 C 195.167,285.5 196.833,285.5 198.5,285.5C 198.5,281.5 198.5,277.5 198.5,273.5C 196.167,273.5 193.833,273.5 191.5,273.5C 172.385,268.948 164.551,256.948 168,237.5C 173.554,225.292 183.054,218.458 196.5,217C 232.5,216.333 268.5,216.333 304.5,217C 330.065,222.512 338.232,237.345 329,261.5C 322.343,270.244 313.509,274.244 302.5,273.5C 302.5,277.167 302.5,280.833 302.5,284.5C 304.833,284.5 307.167,284.5 309.5,284.5C 309.5,287.167 309.5,289.833 309.5,292.5C 307.167,292.5 304.833,292.5 302.5,292.5C 302.5,314.833 302.5,337.167 302.5,359.5C 300.167,359.5 297.833,359.5 295.5,359.5C 295.5,337.167 295.5,314.833 295.5,292.5C 265.5,292.5 235.5,292.5 205.5,292.5C 205.5,314.833 205.5,337.167 205.5,359.5C 203.167,359.5 200.833,359.5 198.5,359.5C 198.5,337.167 198.5,314.833 198.5,292.5C 196.833,292.5 195.167,292.5 193.5,292.5C 193.5,290.167 193.5,287.833 193.5,285.5 Z"/></g>
<g><path style="opacity:1" fill="#bfe3f3" d="M 194.5,222.5 C 231.502,222.333 268.502,222.5 305.5,223C 325.34,227.849 331.507,239.683 324,258.5C 315.306,268.274 305.14,270.108 293.5,264C 285.726,256.751 284.559,248.584 290,239.5C 295.759,233.612 301.926,233.112 308.5,238C 314.376,244.854 313.709,250.854 306.5,256C 301.328,257.08 297.995,255.08 296.5,250C 296.759,248.739 297.426,247.739 298.5,247C 301.507,246.699 304.507,246.865 307.5,247.5C 307.739,245.533 307.406,243.699 306.5,242C 298.079,238.411 292.746,241.078 290.5,250C 292.607,259.114 298.274,263.114 307.5,262C 316.724,257.717 320.224,250.55 318,240.5C 314.726,235.226 310.226,231.392 304.5,229C 286.249,230.083 267.916,230.583 249.5,230.5C 234.833,230.333 220.167,230.167 205.5,230C 195.689,227.484 188.189,230.651 183,239.5C 179.632,254.29 185.465,261.79 200.5,262C 207.841,259.315 210.674,254.148 209,246.5C 206.185,240.831 201.685,238.998 195.5,241C 191.381,243.574 191.548,245.74 196,247.5C 201.285,245.391 203.618,247.057 203,252.5C 196.934,258.222 191.934,257.222 188,249.5C 187.223,240.267 191.556,235.267 201,234.5C 215.093,239.703 218.093,248.703 210,261.5C 200.004,269.289 189.837,269.456 179.5,262C 169.647,250.347 170.314,239.347 181.5,229C 185.407,225.792 189.74,223.625 194.5,222.5 Z"/></g>
<g><path style="opacity:1" fill="#cde9f6" d="M 283.5,237.5 C 261.327,237.169 239.327,237.503 217.5,238.5C 216.957,238.44 216.624,238.107 216.5,237.5C 227.833,237.167 239.167,236.833 250.5,236.5C 262.241,236.489 273.241,236.823 283.5,237.5 Z"/></g>
<g><path style="opacity:1" fill="#bce2f3" d="M 283.5,237.5 C 279.204,246.162 279.538,254.662 284.5,263C 261.826,263.833 239.159,263.666 216.5,262.5C 221.319,254.639 221.653,246.639 217.5,238.5C 239.327,237.503 261.327,237.169 283.5,237.5 Z"/></g>
<g><path style="opacity:1" fill="#c1e4f4" d="M 216.5,268.5 C 218.5,268.5 220.5,268.5 222.5,268.5C 222.665,271.518 222.498,274.518 222,277.5C 220.333,280.167 218.667,280.167 217,277.5C 216.502,274.518 216.335,271.518 216.5,268.5 Z"/></g>
<g><path style="opacity:1" fill="#bfe3f3" d="M 229.5,268.5 C 232.833,268.5 236.167,268.5 239.5,268.5C 239.664,271.187 239.497,273.854 239,276.5C 236,280.5 233,280.5 230,276.5C 229.503,273.854 229.336,271.187 229.5,268.5 Z"/></g>
<g><path style="opacity:1" fill="#bde2f3" d="M 244.5,268.5 C 248.167,268.5 251.833,268.5 255.5,268.5C 257.031,274.318 255.031,277.984 249.5,279.5C 247.234,279.069 245.734,277.736 245,275.5C 244.503,273.19 244.337,270.857 244.5,268.5 Z"/></g>
<g><path style="opacity:1" fill="#bde2f3" d="M 261.5,268.5 C 264.5,268.5 267.5,268.5 270.5,268.5C 270.664,271.187 270.497,273.854 270,276.5C 267.679,279.917 265.012,280.25 262,277.5C 261.502,274.518 261.335,271.518 261.5,268.5 Z"/></g>
<g><path style="opacity:1" fill="#bee3f3" d="M 278.5,268.5 C 280.167,268.5 281.833,268.5 283.5,268.5C 283.665,271.85 283.498,275.183 283,278.5C 281.667,279.833 280.333,279.833 279,278.5C 278.502,275.183 278.335,271.85 278.5,268.5 Z"/></g>
<g><path style="opacity:1" fill="#c0e3f3" d="M 288.5,268.5 C 290.017,268.511 291.184,269.177 292,270.5C 292.936,273.792 292.436,276.792 290.5,279.5C 289.914,279.291 289.414,278.957 289,278.5C 288.502,275.183 288.335,271.85 288.5,268.5 Z"/></g>
<g><path style="opacity:1" fill="#c1e4f3" d="M 210.5,268.5 C 211.765,269.514 212.431,271.014 212.5,273C 212.66,275.47 211.993,277.636 210.5,279.5C 209.914,279.291 209.414,278.957 209,278.5C 208.063,274.833 208.563,271.499 210.5,268.5 Z"/></g>
<g><path style="opacity:1" fill="#cde9f5" d="M 191.5,273.5 C 193.833,273.5 196.167,273.5 198.5,273.5C 198.5,277.5 198.5,281.5 198.5,285.5C 196.833,285.5 195.167,285.5 193.5,285.5C 194.568,284.566 195.901,284.232 197.5,284.5C 197.5,281.167 197.5,277.833 197.5,274.5C 195.265,274.795 193.265,274.461 191.5,273.5 Z"/></g>
<g><path style="opacity:1" fill="#bfe3f3" d="M 279.5,283.5 C 275.833,284.833 272.167,284.833 268.5,283.5C 270.735,282.772 272.568,281.439 274,279.5C 275.451,281.464 277.284,282.797 279.5,283.5 Z"/></g>
<g><path style="opacity:1" fill="#c1e4f3" d="M 232.5,283.5 C 228.833,284.833 225.167,284.833 221.5,283.5C 223.461,282.54 225.127,281.207 226.5,279.5C 228.214,281.35 230.214,282.684 232.5,283.5 Z"/></g>
<g><path style="opacity:1" fill="#bfe3f3" d="M 263.5,283.5 C 259.833,284.833 256.167,284.833 252.5,283.5C 254.757,283.038 256.757,282.038 258.5,280.5C 259.94,281.952 261.606,282.952 263.5,283.5 Z"/></g>
<g><path style="opacity:1" fill="#bfe3f3" d="M 248.5,283.5 C 244.833,284.833 241.167,284.833 237.5,283.5C 239.679,283.16 241.512,282.16 243,280.5C 244.488,282.16 246.321,283.16 248.5,283.5 Z"/></g>
<g><path style="opacity:1" fill="#c1e4f4" d="M 218.5,283.5 C 216.5,284.833 214.5,284.833 212.5,283.5C 214.451,282.359 216.451,282.359 218.5,283.5 Z"/></g>
<g><path style="opacity:1" fill="#daeef7" d="M 212.5,283.5 C 214.5,284.833 216.5,284.833 218.5,283.5C 219.5,283.5 220.5,283.5 221.5,283.5C 225.167,284.833 228.833,284.833 232.5,283.5C 234.167,283.5 235.833,283.5 237.5,283.5C 241.167,284.833 244.833,284.833 248.5,283.5C 249.833,283.5 251.167,283.5 252.5,283.5C 256.167,284.833 259.833,284.833 263.5,283.5C 265.167,283.5 266.833,283.5 268.5,283.5C 272.167,284.833 275.833,284.833 279.5,283.5C 280.5,283.5 281.5,283.5 282.5,283.5C 286.634,284.485 290.968,284.818 295.5,284.5C 265.671,285.498 235.671,285.831 205.5,285.5C 205.281,284.325 205.614,283.325 206.5,282.5C 208.409,283.348 210.409,283.682 212.5,283.5 Z"/></g>
<g><path style="opacity:1" fill="#c3e5f4" d="M 295.5,284.5 C 290.968,284.818 286.634,284.485 282.5,283.5C 286.061,283.252 289.728,283.085 293.5,283C 295.131,281.164 295.798,281.664 295.5,284.5 Z"/></g>
<g><path style="opacity:1" fill="#fdfdfd" d="M 210.5,300.5 C 212.467,300.261 214.301,300.594 216,301.5C 216.5,320.497 216.667,339.497 216.5,358.5C 214.167,358.5 211.833,358.5 209.5,358.5C 209.18,339.091 209.513,319.757 210.5,300.5 Z"/></g>
<g><path style="opacity:1" fill="#fdfdfd" d="M 229.5,302.5 C 229.5,321.167 229.5,339.833 229.5,358.5C 226.833,358.5 224.167,358.5 221.5,358.5C 221.333,339.83 221.5,321.164 222,302.5C 224.621,299.86 227.121,299.86 229.5,302.5 Z"/></g>
<g><path style="opacity:1" fill="#fdfdfd" d="M 245.5,303.5 C 245.5,321.833 245.5,340.167 245.5,358.5C 242.167,358.5 238.833,358.5 235.5,358.5C 235.333,339.83 235.5,321.164 236,302.5C 239.579,299.627 242.745,299.96 245.5,303.5 Z"/></g>
<g><path style="opacity:1" fill="#fdfdfd" d="M 265.5,304.5 C 265.5,322.5 265.5,340.5 265.5,358.5C 262.167,358.5 258.833,358.5 255.5,358.5C 255.5,340.5 255.5,322.5 255.5,304.5C 256.828,300.746 259.494,299.579 263.5,301C 264.823,301.816 265.489,302.983 265.5,304.5 Z"/></g>
<g><path style="opacity:1" fill="#fdfdfd" d="M 279.5,303.5 C 279.5,321.833 279.5,340.167 279.5,358.5C 276.833,358.5 274.167,358.5 271.5,358.5C 271.5,340.167 271.5,321.833 271.5,303.5C 274.096,299.612 276.763,299.612 279.5,303.5 Z"/></g>
<g><path style="opacity:1" fill="#fdfdfd" d="M 286.5,300.5 C 288.144,300.286 289.644,300.62 291,301.5C 291.5,320.497 291.667,339.497 291.5,358.5C 289.167,358.5 286.833,358.5 284.5,358.5C 283.865,338.932 284.532,319.599 286.5,300.5 Z"/></g>
<g><path style="opacity:1" fill="#edf6fb" d="M 245.5,303.5 C 246.497,321.993 246.83,340.659 246.5,359.5C 242.629,359.815 238.962,359.482 235.5,358.5C 238.833,358.5 242.167,358.5 245.5,358.5C 245.5,340.167 245.5,321.833 245.5,303.5 Z"/></g>
<g><path style="opacity:1" fill="#d9eef8" d="M 271.5,303.5 C 271.5,321.833 271.5,340.167 271.5,358.5C 274.167,358.5 276.833,358.5 279.5,358.5C 279.5,340.167 279.5,321.833 279.5,303.5C 280.497,321.993 280.83,340.659 280.5,359.5C 277.167,359.5 273.833,359.5 270.5,359.5C 270.17,340.659 270.503,321.993 271.5,303.5 Z"/></g>
<g><path style="opacity:1" fill="#dceff8" d="M 255.5,304.5 C 255.5,322.5 255.5,340.5 255.5,358.5C 258.833,358.5 262.167,358.5 265.5,358.5C 265.5,340.5 265.5,322.5 265.5,304.5C 266.497,322.659 266.83,340.992 266.5,359.5C 262.5,359.5 258.5,359.5 254.5,359.5C 254.17,340.992 254.503,322.659 255.5,304.5 Z"/></g>
<g><path style="opacity:1" fill="#e3f2f9" d="M 229.5,302.5 C 230.497,321.326 230.83,340.326 230.5,359.5C 227.287,359.81 224.287,359.477 221.5,358.5C 224.167,358.5 226.833,358.5 229.5,358.5C 229.5,339.833 229.5,321.167 229.5,302.5 Z"/></g>
<g><path style="opacity:1" fill="#f9fcfd" d="M 222.5,366.5 C 224.604,366.201 226.604,366.534 228.5,367.5C 231.937,376.645 235.27,385.812 238.5,395C 236.527,395.495 234.527,395.662 232.5,395.5C 232.984,390.199 230.651,387.866 225.5,388.5C 220.349,387.866 218.016,390.199 218.5,395.5C 216.833,395.5 215.167,395.5 213.5,395.5C 216.292,385.79 219.292,376.124 222.5,366.5 Z"/></g>
<g><path style="opacity:1" fill="#fafcfd" d="M 244.5,366.5 C 249.833,366.5 255.167,366.5 260.5,366.5C 260.5,368.167 260.5,369.833 260.5,371.5C 256.833,371.5 253.167,371.5 249.5,371.5C 249.5,379.5 249.5,387.5 249.5,395.5C 247.833,395.5 246.167,395.5 244.5,395.5C 244.5,385.833 244.5,376.167 244.5,366.5 Z"/></g>
<g><path style="opacity:1" fill="#f9fcfd" d="M 263.5,366.5 C 265.467,366.261 267.301,366.594 269,367.5C 271.246,372.326 273.746,376.992 276.5,381.5C 278.605,376.954 280.439,372.287 282,367.5C 283.814,366.24 285.647,366.24 287.5,367.5C 284.389,374.722 281.556,382.056 279,389.5C 276.983,394.924 273.15,396.758 267.5,395C 266.352,391.482 267.518,390.315 271,391.5C 272.434,391.07 273.601,390.236 274.5,389C 270.422,381.678 266.755,374.178 263.5,366.5 Z"/></g>
<g><path style="opacity:1" fill="#bfe3f3" d="M 228.5,382.5 C 226.5,383.833 224.5,383.833 222.5,382.5C 224.549,371.886 226.549,371.886 228.5,382.5 Z"/></g>
<g><path style="opacity:1" fill="#e1f1f8" d="M 222.5,382.5 C 224.5,383.833 226.5,383.833 228.5,382.5C 229.043,382.56 229.376,382.893 229.5,383.5C 226.833,384.833 224.167,384.833 221.5,383.5C 221.624,382.893 221.957,382.56 222.5,382.5 Z"/></g>
<g><path style="opacity:1" fill="#f9fbfd" d="M 200.5,383.5 C 203.352,383.352 205.019,384.686 205.5,387.5C 203.167,392.833 200.833,392.833 198.5,387.5C 198.752,385.927 199.418,384.594 200.5,383.5 Z"/></g>
<g><path style="opacity:1" fill="#f5fafc" d="M 296.5,383.5 C 302.488,383.664 303.821,386.164 300.5,391C 298.888,391.72 297.388,391.554 296,390.5C 295.297,388.071 295.463,385.738 296.5,383.5 Z"/></g>
</svg>
