<svg width="82" height="81" viewBox="0 0 82 81" fill="none" xmlns="http://www.w3.org/2000/svg">
<mask id="mask0_30_10" style="mask-type:luminance" maskUnits="userSpaceOnUse" x="0" y="0" width="82" height="81">
<path d="M0.666504 0H81.6665V81H0.666504V0Z" fill="white"/>
</mask>
<g mask="url(#mask0_30_10)">
<path fill-rule="evenodd" clip-rule="evenodd" d="M18.8358 48.9544C15.8168 48.2059 13.1352 46.4683 11.2185 44.0185C9.30186 41.5688 8.26044 38.5479 8.26025 35.4375V34.1719C8.26025 30.4796 9.72702 26.9385 12.3379 24.3276C14.9487 21.7168 18.4898 20.25 22.1821 20.25H23.4478C27.0593 20.2468 30.5305 21.6486 33.1269 24.159C35.7233 26.6694 37.2412 30.0914 37.3595 33.7011V33.7163H37.3696V35.4375C37.3696 36.1007 37.319 36.7538 37.2329 37.3916C37.1317 38.7129 36.9798 40.014 36.7773 41.2898C36.242 44.6316 35.2913 47.8935 33.9474 50.9996C31.5338 56.5623 27.7721 61.4358 23.0023 65.1797C22.838 65.3094 22.6726 65.4377 22.5061 65.5644C22.297 65.725 22.0408 65.8122 21.7771 65.8125C21.5598 65.8103 21.3468 65.7523 21.1582 65.6443C20.9697 65.5362 20.812 65.3816 20.7003 65.1952C20.5886 65.0088 20.5265 64.7969 20.5201 64.5797C20.5136 64.3625 20.5629 64.1473 20.6634 63.9546C21.8646 61.6695 22.9626 59.3317 23.954 56.9481C24.9513 54.5484 25.9588 51.8198 26.7738 48.9594C25.6856 49.228 24.5686 49.3623 23.4478 49.3594H22.1821C21.0279 49.3594 19.904 49.2176 18.8358 48.9544ZM16.0565 56.0672C11.6112 54.7453 7.71178 52.023 4.93868 48.3058C2.16559 44.5886 0.667164 40.0752 0.666504 35.4375L0.666504 34.1719C0.666504 28.4656 2.93332 22.993 6.96828 18.958C11.0032 14.9231 16.4758 12.6563 22.1821 12.6563H23.4478C30.7985 12.6563 37.2836 16.3418 41.1665 21.9611C43.1435 19.0891 45.7897 16.7413 48.8766 15.1202C51.9635 13.4991 55.3986 12.6535 58.8853 12.6563H60.1509C65.7825 12.6551 71.1902 14.8621 75.2128 18.8033C79.2355 22.7446 81.5525 28.106 81.6665 33.7365V35.4375C81.6665 36.3639 81.6058 37.2853 81.4893 38.1864C80.4414 51.4502 74.6144 63.3268 63.8313 71.5939C62.2954 72.7698 60.4147 73.4068 58.4803 73.4063C51.6914 73.4063 47.6161 66.1922 50.6435 60.426C51.2054 59.3578 51.9598 57.8543 52.7596 56.0723C48.8185 54.8981 45.2961 52.6195 42.6093 49.5062C39.8665 58.2971 34.456 66.0166 27.1282 71.5939C25.5922 72.7698 23.7115 73.4068 21.7771 73.4063C14.9883 73.4063 10.913 66.1922 13.9404 60.426C14.5023 59.3578 15.2566 57.8543 16.0565 56.0723V56.0672ZM55.544 48.9544C56.6122 49.2176 57.7361 49.3594 58.8903 49.3594H60.1559C61.2767 49.3599 62.3934 49.2257 63.482 48.9594C62.553 52.182 61.4027 55.3367 60.0395 58.401C59.2133 60.2819 58.3235 62.1341 57.3716 63.9546C57.2711 64.1473 57.2218 64.3625 57.2283 64.5797C57.2347 64.7969 57.2968 65.0088 57.4085 65.1952C57.5202 65.3816 57.6779 65.5362 57.8664 65.6443C58.0549 65.7523 58.268 65.8103 58.4853 65.8125C58.7489 65.8118 59.005 65.7246 59.2143 65.5644L59.7104 65.1797C64.6847 61.2765 68.5593 56.1476 70.9543 50.2959C72.1419 47.4013 72.9913 44.3793 73.4855 41.2898C73.6932 39.9975 73.8453 38.6969 73.9411 37.3916C74.0329 36.7443 74.0785 36.0913 74.0778 35.4375V33.7213H74.0728V33.7011C73.9544 30.0897 72.435 26.6662 69.8365 24.1555C67.2379 21.6448 63.7642 20.2441 60.1509 20.25H58.8802C55.1879 20.25 51.6468 21.7168 49.0359 24.3276C46.4251 26.9385 44.9583 30.4796 44.9583 34.1719V35.4375C44.9583 41.9681 49.4639 47.4559 55.5339 48.9544H55.544Z" fill="white"/>
</g>
</svg>
