<?xml version="1.0" encoding="UTF-8"?>
<!DOCTYPE svg PUBLIC "-//W3C//DTD SVG 1.1//EN" "http://www.w3.org/Graphics/SVG/1.1/DTD/svg11.dtd">
<svg xmlns="http://www.w3.org/2000/svg" version="1.1" width="512px" height="512px" style="shape-rendering:geometricPrecision; text-rendering:geometricPrecision; image-rendering:optimizeQuality; fill-rule:evenodd; clip-rule:evenodd" xmlns:xlink="http://www.w3.org/1999/xlink">
<g><path style="opacity:0.92" fill="#000000" d="M 511.5,426.5 C 511.5,433.5 511.5,440.5 511.5,447.5C 501.598,482.875 478.264,498.708 441.5,495C 427.274,491.803 415.441,484.636 406,473.5C 372.039,433.871 337.706,394.537 303,355.5C 254.663,384.691 203.163,391.857 148.5,377C 83.2641,356.097 40.4308,312.931 20,247.5C 1.07284,168.293 21.9062,101.793 82.5,48C 145.603,1.32185 213.27,-6.34482 285.5,25C 348.906,58.7896 384.073,111.623 391,183.5C 393.236,220.886 385.236,255.886 367,288.5C 366.333,289.5 366.333,290.5 367,291.5C 409.167,325.667 451.333,359.833 493.5,394C 502.527,403.226 508.527,414.059 511.5,426.5 Z M 194.5,20.5 C 258.158,20.2451 308.658,45.5785 346,96.5C 382.869,154.927 386.202,215.26 356,277.5C 315.707,344.898 256.207,375.065 177.5,368C 114.388,356.876 69.2208,322.376 42,264.5C 17.5358,201.76 24.8691,143.093 64,88.5C 97.5587,46.9689 141.059,24.3023 194.5,20.5 Z M 190.5,64.5 C 247.178,63.081 289.678,86.7477 318,135.5C 341.572,187.356 335.905,235.689 301,280.5C 263.105,320.77 217.271,333.937 163.5,320C 110.175,300.665 79.6745,262.832 72,206.5C 69.6355,151.384 91.8021,109.551 138.5,81C 154.901,72.1423 172.234,66.6423 190.5,64.5 Z M 357.5,303.5 C 398.003,336.5 438.67,369.333 479.5,402C 499.831,421.138 502.331,442.305 487,465.5C 467.065,484.844 445.898,486.344 423.5,470C 387.5,429 351.5,388 315.5,347C 332.085,334.917 346.085,320.417 357.5,303.5 Z"/></g>
<g><path style="opacity:0.92" fill="#000000" d="M 184.5,50.5 C 245.887,46.2788 293.387,69.6122 327,120.5C 353.53,168.832 354.197,217.499 329,266.5C 296.82,318.511 249.987,343.011 188.5,340C 138.466,333.925 100.633,309.425 75,266.5C 46.9354,209.825 51.2687,155.825 88,104.5C 113.214,74.1415 145.381,56.1415 184.5,50.5 Z M 190.5,64.5 C 172.234,66.6423 154.901,72.1423 138.5,81C 91.8021,109.551 69.6355,151.384 72,206.5C 79.6745,262.832 110.175,300.665 163.5,320C 217.271,333.937 263.105,320.77 301,280.5C 335.905,235.689 341.572,187.356 318,135.5C 289.678,86.7477 247.178,63.081 190.5,64.5 Z"/></g>
</svg>
