<?xml version="1.0" encoding="UTF-8"?>
<!DOCTYPE svg PUBLIC "-//W3C//DTD SVG 1.1//EN" "http://www.w3.org/Graphics/SVG/1.1/DTD/svg11.dtd">
<svg xmlns="http://www.w3.org/2000/svg" version="1.1" width="60px" height="60px" style="shape-rendering:geometricPrecision; text-rendering:geometricPrecision; image-rendering:optimizeQuality; fill-rule:evenodd; clip-rule:evenodd" xmlns:xlink="http://www.w3.org/1999/xlink">
<g><path style="opacity:0.006" fill="#000000" d="M 23.5,3.5 C 23.9382,3.43456 24.2716,3.60123 24.5,4C 23.244,4.41691 22.5774,5.25025 22.5,6.5C 21.8333,6.16667 21.1667,5.83333 20.5,5.5C 20.5,4.83333 20.5,4.16667 20.5,3.5C 21.3478,2.37505 22.3478,2.37505 23.5,3.5 Z"/></g>
<g><path style="opacity:0.004" fill="#acacac" d="M 20.5,3.5 C 20.5,4.16667 20.5,4.83333 20.5,5.5C 19.5084,5.67158 18.8417,5.33825 18.5,4.5C 18.8417,3.66175 19.5084,3.32842 20.5,3.5 Z"/></g>
<g><path style="opacity:0.004" fill="#e8e8e8" d="M 53.5,14.5 C 51.0065,14.8693 50.3398,14.2027 51.5,12.5C 51.4346,12.0618 51.6012,11.7284 52,11.5C 52.5133,12.5266 53.0133,13.5266 53.5,14.5 Z"/></g>
<g><path style="opacity:0.024" fill="#1a1a1a" d="M 26.5,2.5 C 27.9245,4.03105 28.5912,3.69772 28.5,1.5C 37.65,0.896268 45.3167,4.56293 51.5,12.5C 50.3398,14.2027 51.0065,14.8693 53.5,14.5C 54.6843,15.6879 54.6843,16.8545 53.5,18C 56.0468,19.316 56.7135,21.1493 55.5,23.5C 57.7508,25.5303 58.0842,27.8636 56.5,30.5C 55.375,31.6522 55.375,32.6522 56.5,33.5C 56.9382,33.4346 57.2716,33.6012 57.5,34C 56.0437,36.2658 55.2104,38.7658 55,41.5C 53.2626,42.831 51.7626,44.831 50.5,47.5C 50.5,46.8333 50.5,46.1667 50.5,45.5C 47.6678,46.271 47.3345,46.9377 49.5,47.5C 45.38,53.8724 40.0467,56.8724 33.5,56.5C 31.9826,56.4894 30.8159,55.8228 30,54.5C 29.5357,55.0944 29.369,55.7611 29.5,56.5C 28.0755,54.9689 27.4088,55.3023 27.5,57.5C 24.5739,56.5392 21.5739,55.8726 18.5,55.5C 19.895,54.3523 19.7284,53.3523 18,52.5C 17.5357,53.0944 17.369,53.7611 17.5,54.5C 15.5956,54.2624 14.2623,53.2624 13.5,51.5C 15.8312,51.1407 15.6645,50.474 13,49.5C 12.5357,50.0944 12.369,50.7611 12.5,51.5C 9.83342,49.8266 7.83342,47.4933 6.5,44.5C 7.83333,43.8333 7.83333,43.1667 6.5,42.5C 4.22823,40.9819 2.89489,38.8152 2.5,36C 2.83333,35.6667 3.16667,35.3333 3.5,35C 2.83333,33.3333 2.16667,31.6667 1.5,30C 1.30666,19.42 5.97332,11.0867 15.5,5C 16.448,4.51722 17.448,4.35055 18.5,4.5C 18.8417,5.33825 19.5084,5.67158 20.5,5.5C 17.8765,8.5915 15.0431,11.5915 12,14.5C 6.99436,25.759 9.16102,35.259 18.5,43C 32.5668,48.9833 42.7334,45.15 49,31.5C 50.6296,11.961 41.7963,3.62771 22.5,6.5C 22.5774,5.25025 23.244,4.41691 24.5,4C 24.2716,3.60123 23.9382,3.43456 23.5,3.5C 24.1054,1.51877 25.1054,1.18543 26.5,2.5 Z"/></g>
<g><path style="opacity:0.984" fill="#fcfcfc" d="M 20.5,5.5 C 21.1667,5.83333 21.8333,6.16667 22.5,6.5C 41.7963,3.62771 50.6296,11.961 49,31.5C 42.7334,45.15 32.5668,48.9833 18.5,43C 9.16102,35.259 6.99436,25.759 12,14.5C 15.0431,11.5915 17.8765,8.5915 20.5,5.5 Z"/></g>
<g><path style="opacity:1" fill="#282828" d="M 19.5,16.5 C 26.175,16.3337 32.8417,16.5004 39.5,17C 40.8059,22.4462 40.8059,27.9462 39.5,33.5C 32.8593,34.7955 26.1926,34.7955 19.5,33.5C 18.1706,27.8033 18.1706,22.1366 19.5,16.5 Z"/></g>
<g><path style="opacity:1" fill="#f3f3f3" d="M 20.5,19.5 C 26.3188,18.3475 32.3188,18.1808 38.5,19C 35.7955,21.3506 32.7955,23.184 29.5,24.5C 26.3488,23.0914 23.3488,21.4247 20.5,19.5 Z"/></g>
<g><path style="opacity:0.004" fill="#dddddd" d="M 26.5,2.5 C 26.8417,1.66175 27.5084,1.32842 28.5,1.5C 28.5912,3.69772 27.9245,4.03105 26.5,2.5 Z"/></g>
<g><path style="opacity:1" fill="#f9f9f9" d="M 20.5,21.5 C 23.4822,23.4742 26.4822,25.4742 29.5,27.5C 32.472,25.6944 35.3053,23.6944 38,21.5C 38.4986,25.1516 38.6653,28.8183 38.5,32.5C 32.5,32.5 26.5,32.5 20.5,32.5C 20.5,28.8333 20.5,25.1667 20.5,21.5 Z"/></g>
<g><path style="opacity:0.004" fill="#fefffe" d="M 56.5,30.5 C 57.625,31.3478 57.625,32.3478 56.5,33.5C 55.375,32.6522 55.375,31.6522 56.5,30.5 Z"/></g>
<g><path style="opacity:0.004" fill="#fefffe" d="M 6.5,42.5 C 7.83333,43.1667 7.83333,43.8333 6.5,44.5C 5.49367,44.0623 5.49367,43.3957 6.5,42.5 Z"/></g>
<g><path style="opacity:0.004" fill="#e4e4e4" d="M 50.5,45.5 C 50.5,46.1667 50.5,46.8333 50.5,47.5C 50.1667,47.5 49.8333,47.5 49.5,47.5C 47.3345,46.9377 47.6678,46.271 50.5,45.5 Z"/></g>
<g><path style="opacity:0.004" fill="#fefffe" d="M 13.5,51.5 C 13.1667,51.5 12.8333,51.5 12.5,51.5C 12.369,50.7611 12.5357,50.0944 13,49.5C 15.6645,50.474 15.8312,51.1407 13.5,51.5 Z"/></g>
<g><path style="opacity:0.004" fill="#fefffe" d="M 18.5,55.5 C 17.8333,55.5 17.5,55.1667 17.5,54.5C 17.369,53.7611 17.5357,53.0944 18,52.5C 19.7284,53.3523 19.895,54.3523 18.5,55.5 Z"/></g>
<g><path style="opacity:0.004" fill="#fefffe" d="M 29.5,56.5 C 29.5,56.8333 29.5,57.1667 29.5,57.5C 28.8333,57.5 28.1667,57.5 27.5,57.5C 27.4088,55.3023 28.0755,54.9689 29.5,56.5 Z"/></g>
<g><path style="opacity:0.004" fill="#aeaeae" d="M 33.5,56.5 C 32.4324,57.4345 31.099,57.7678 29.5,57.5C 29.5,57.1667 29.5,56.8333 29.5,56.5C 29.369,55.7611 29.5357,55.0944 30,54.5C 30.8159,55.8228 31.9826,56.4894 33.5,56.5 Z"/></g>
</svg>
