<?xml version="1.0" encoding="UTF-8"?>
<!DOCTYPE svg PUBLIC "-//W3C//DTD SVG 1.1//EN" "http://www.w3.org/Graphics/SVG/1.1/DTD/svg11.dtd">
<svg xmlns="http://www.w3.org/2000/svg" version="1.1" width="500px" height="500px" style="shape-rendering:geometricPrecision; text-rendering:geometricPrecision; image-rendering:optimizeQuality; fill-rule:evenodd; clip-rule:evenodd" xmlns:xlink="http://www.w3.org/1999/xlink">
<g><path style="opacity:0.999" fill="#bce2f3" d="M 117.5,-0.5 C 132.5,-0.5 147.5,-0.5 162.5,-0.5C 179.357,0.411668 196.024,3.245 212.5,8C 235.463,16.9639 250.963,33.1306 259,56.5C 259.013,50.2549 258.18,44.0882 256.5,38C 266.806,21.4976 281.473,10.831 300.5,6C 308.391,4.01815 316.391,2.68481 324.5,2C 366.489,0.699423 408.489,0.199423 450.5,0.5C 449.892,104.948 449.725,209.614 450,314.5C 441.837,392.709 402.67,449.209 332.5,484C 316.585,490.918 300.252,496.085 283.5,499.5C 260.5,499.5 237.5,499.5 214.5,499.5C 145.206,485.373 95.3722,446.373 65,382.5C 56.5371,362.649 51.2038,341.982 49,320.5C 48.5,213.834 48.3333,107.167 48.5,0.5C 71.6727,0.830839 94.6727,0.497505 117.5,-0.5 Z"/></g>
<g><path style="opacity:1" fill="#fbfcfd" d="M 415.5,169.5 C 399.851,164.806 383.517,161.639 366.5,160C 349.547,158.103 332.547,156.936 315.5,156.5C 312.713,155.523 309.713,155.19 306.5,155.5C 287.842,154.535 269.175,154.368 250.5,155C 265.476,156.198 280.476,156.698 295.5,156.5C 301.979,157.491 308.646,157.824 315.5,157.5C 346.532,158.406 377.199,162.24 407.5,169C 410.237,170.076 412.904,171.243 415.5,172.5C 419.439,174.514 419.439,176.681 415.5,179C 410.394,181.535 405.06,183.369 399.5,184.5C 394.728,182.28 390.062,179.78 385.5,177C 356.559,170.532 327.226,167.365 297.5,167.5C 282.005,166.339 266.339,166.172 250.5,167C 263.818,167.954 277.151,168.454 290.5,168.5C 316.652,168.916 342.652,171.082 368.5,175C 360.132,175.08 351.799,174.413 343.5,173C 338.5,172.333 333.5,172.333 328.5,173C 345.154,175.184 361.82,176.851 378.5,178C 375.471,177.461 372.471,176.794 369.5,176C 373.999,175.499 378.332,176.166 382.5,178C 381.5,178.333 380.5,178.667 379.5,179C 384.937,180.526 390.27,182.359 395.5,184.5C 396.614,185.723 396.781,187.056 396,188.5C 392.571,185.939 389.737,186.605 387.5,190.5C 386.448,190.649 385.448,190.483 384.5,190C 385.769,187.861 385.769,185.695 384.5,183.5C 384.877,185.712 384.377,188.045 383,190.5C 374.264,197.784 364.431,202.784 353.5,205.5C 344.596,207.812 335.596,209.312 326.5,210C 332.598,208.809 338.598,207.309 344.5,205.5C 354.926,201.789 364.26,196.289 372.5,189C 371.692,188.692 371.025,188.192 370.5,187.5C 371.735,185.684 371.735,184.017 370.5,182.5C 370.262,186.138 368.596,188.971 365.5,191C 358.347,196.241 350.681,200.407 342.5,203.5C 334.555,205.704 326.555,207.704 318.5,209.5C 317.761,209.631 317.094,209.464 316.5,209C 319.544,208.641 319.878,207.974 317.5,207C 318.167,206.667 318.833,206.333 319.5,206C 317.5,206 315.5,206 313.5,206C 325.412,201.884 335.412,195.051 343.5,185.5C 343.333,185.167 343.167,184.833 343,184.5C 342,185.5 341,186.5 340,187.5C 339.536,186.906 339.369,186.239 339.5,185.5C 342.837,182.995 343.17,180.162 340.5,177C 337.073,175.834 334.407,176.668 332.5,179.5C 331.542,179.953 330.708,180.619 330,181.5C 329.8,179.68 328.966,178.347 327.5,177.5C 327.856,180.564 327.023,183.231 325,185.5C 320.078,191.016 314.578,195.682 308.5,199.5C 303.521,201.654 298.521,203.821 293.5,206C 292.5,206.667 291.5,206.667 290.5,206C 296.337,202.582 302.004,198.916 307.5,195C 309.79,193.223 311.457,191.056 312.5,188.5C 310.37,190.127 308.37,191.96 306.5,194C 305.833,194.667 305.167,194.667 304.5,194C 307.447,191.564 309.78,188.731 311.5,185.5C 303.041,195.232 292.708,202.232 280.5,206.5C 279.833,206.5 279.5,206.167 279.5,205.5C 289.432,200.068 297.266,192.402 303,182.5C 303.667,181.5 303.667,180.5 303,179.5C 301.503,183.165 299.503,186.498 297,189.5C 297,188.167 297,186.833 297,185.5C 291.929,193.406 285.429,199.739 277.5,204.5C 274.404,205.547 271.404,206.88 268.5,208.5C 267.893,208.376 267.56,208.043 267.5,207.5C 274.857,202.476 280.857,196.142 285.5,188.5C 284.807,187.482 284.141,186.482 283.5,185.5C 278.969,193.703 272.969,200.703 265.5,206.5C 263.856,207.366 262.189,207.866 260.5,208C 262.954,206.26 264.454,204.093 265,201.5C 262.628,203.703 260.461,206.037 258.5,208.5C 257.395,209.6 256.062,210.267 254.5,210.5C 254.953,209.542 255.619,208.708 256.5,208C 255.692,207.692 255.025,207.192 254.5,206.5C 257.635,196.723 259.135,186.723 259,176.5C 257.45,184.764 256.117,193.097 255,201.5C 253.155,206.158 251.655,210.824 250.5,215.5C 255.5,215.5 260.5,215.5 265.5,215.5C 269.846,215.334 274.179,215.501 278.5,216C 281.076,216.782 283.076,218.282 284.5,220.5C 283.311,221.429 281.978,221.762 280.5,221.5C 270.675,220.342 260.675,220.175 250.5,221C 260.15,221.877 269.817,222.377 279.5,222.5C 280.873,222.343 282.207,222.51 283.5,223C 278.591,223.788 274.591,226.121 271.5,230C 307.498,230.5 343.498,230.667 379.5,230.5C 379.34,228.801 379.506,227.134 380,225.5C 385.534,227.734 391.034,230.067 396.5,232.5C 391.164,234.502 385.831,236.502 380.5,238.5C 379.549,237.081 379.216,235.415 379.5,233.5C 342.663,233.168 305.996,233.502 269.5,234.5C 268.735,237.096 268.401,239.763 268.5,242.5C 262.491,242.334 256.491,242.501 250.5,243C 275.637,243.531 275.637,244.531 250.5,246C 256.528,246.17 262.528,246.67 268.5,247.5C 268.043,248.298 267.376,248.631 266.5,248.5C 261.125,248.172 255.792,248.505 250.5,249.5C 255.985,250.167 261.319,250.833 266.5,251.5C 264.833,251.5 263.167,251.5 261.5,251.5C 257.774,251.177 254.107,251.511 250.5,252.5C 255.318,253.812 259.985,253.812 264.5,252.5C 266.167,252.5 267.833,252.5 269.5,252.5C 271.734,266.071 279.4,275.071 292.5,279.5C 289.988,280.795 287.321,281.461 284.5,281.5C 273.187,282.326 261.854,282.66 250.5,282.5C 250.5,284.167 250.5,285.833 250.5,287.5C 259.506,287.666 268.506,287.5 277.5,287C 282.788,286.988 287.788,286.155 292.5,284.5C 293.822,284.67 294.989,284.337 296,283.5C 297.309,285.976 299.142,287.976 301.5,289.5C 301.376,290.107 301.043,290.44 300.5,290.5C 299.833,290.5 299.5,290.833 299.5,291.5C 283.248,293.792 266.915,295.292 250.5,296C 258.159,296.5 265.826,296.666 273.5,296.5C 274.492,296.328 275.158,296.662 275.5,297.5C 267.135,297.447 258.802,297.947 250.5,299C 267.833,299.667 267.833,300.333 250.5,301C 266.991,301.927 283.325,300.76 299.5,297.5C 300.492,297.672 301.158,297.338 301.5,296.5C 306.068,295.102 306.402,295.602 302.5,298C 286.106,302.223 269.44,304.056 252.5,303.5C 250.519,316.458 249.852,329.791 250.5,343.5C 249.5,343.5 248.5,343.5 247.5,343.5C 247.5,330.167 247.5,316.833 247.5,303.5C 241.5,303.5 235.5,303.5 229.5,303.5C 229.5,303.167 229.5,302.833 229.5,302.5C 231.167,302.5 232.833,302.5 234.5,302.5C 245.167,301.833 245.167,301.167 234.5,300.5C 232.302,300.591 231.969,299.925 233.5,298.5C 236.408,299.569 239.408,299.736 242.5,299C 241.584,298.722 240.918,298.222 240.5,297.5C 241.675,297.719 242.675,297.386 243.5,296.5C 240.914,295.52 238.247,295.187 235.5,295.5C 233.265,295.795 231.265,295.461 229.5,294.5C 231.415,294.784 233.081,294.451 234.5,293.5C 235.167,293.833 235.833,294.167 236.5,294.5C 238.833,294.5 241.167,294.5 243.5,294.5C 243.5,291.833 243.5,289.167 243.5,286.5C 243.414,285.504 243.748,284.671 244.5,284C 242.098,283.186 239.765,283.353 237.5,284.5C 238.602,285.176 239.602,285.842 240.5,286.5C 239.5,286.5 238.5,286.5 237.5,286.5C 234.941,286.198 232.607,286.532 230.5,287.5C 228.883,286.962 227.216,286.629 225.5,286.5C 221.985,285.761 218.652,285.761 215.5,286.5C 214.167,286.5 212.833,286.5 211.5,286.5C 212.688,284.009 212.688,282.009 211.5,280.5C 215.399,280.966 219.399,280.966 223.5,280.5C 228.267,280.966 232.934,280.966 237.5,280.5C 237.833,280.5 238.167,280.5 238.5,280.5C 238.5,280.833 238.5,281.167 238.5,281.5C 240.607,282.468 242.941,282.802 245.5,282.5C 247.402,279.663 248.069,276.329 247.5,272.5C 247.795,270.265 247.461,268.265 246.5,266.5C 246.5,264.833 246.5,263.167 246.5,261.5C 246.5,260.833 246.5,260.167 246.5,259.5C 246.808,257.076 246.474,254.743 245.5,252.5C 244.893,252.624 244.56,252.957 244.5,253.5C 244.167,253.5 243.833,253.5 243.5,253.5C 242.833,252.167 242.167,252.167 241.5,253.5C 241.167,253.5 240.833,253.5 240.5,253.5C 239.791,252.596 238.791,252.263 237.5,252.5C 237.5,253.833 237.5,255.167 237.5,256.5C 237.167,256.5 236.833,256.5 236.5,256.5C 236.843,254.517 236.176,253.183 234.5,252.5C 233.833,252.5 233.167,252.5 232.5,252.5C 232.5,251.5 232.5,250.5 232.5,249.5C 230.708,249.366 229.042,249.699 227.5,250.5C 227.366,248.708 227.699,247.042 228.5,245.5C 230.896,243.977 233.562,242.977 236.5,242.5C 237.167,242.5 237.833,242.5 238.5,242.5C 239.167,242.5 239.833,242.5 240.5,242.5C 240.833,242.5 241.167,242.5 241.5,242.5C 242.167,242.5 242.833,242.5 243.5,242.5C 243.833,242.5 244.167,242.5 244.5,242.5C 246.308,241.082 246.975,239.082 246.5,236.5C 246.5,236.167 246.5,235.833 246.5,235.5C 246.5,232.5 246.5,229.5 246.5,226.5C 247.473,224.932 247.64,223.265 247,221.5C 246.722,222.416 246.222,223.082 245.5,223.5C 245.5,223.167 245.5,222.833 245.5,222.5C 243.611,221.258 241.611,221.258 239.5,222.5C 239.167,221.833 238.833,221.167 238.5,220.5C 238.989,219.005 239.655,217.671 240.5,216.5C 237.334,216.166 234,216.166 230.5,216.5C 230.5,215.833 230.167,215.5 229.5,215.5C 227.784,215.629 226.117,215.962 224.5,216.5C 223.833,216.5 223.167,216.5 222.5,216.5C 219.01,216.245 216.343,217.578 214.5,220.5C 216.636,221.793 218.636,221.793 220.5,220.5C 221.71,220.932 222.71,221.599 223.5,222.5C 221.066,222.648 218.399,222.814 215.5,223C 226.259,226.072 230.759,232.905 229,243.5C 228.79,241.942 228.29,240.609 227.5,239.5C 227.5,237.833 227.5,236.167 227.5,234.5C 186.833,234.5 146.167,234.5 105.5,234.5C 105.5,233.167 105.5,231.833 105.5,230.5C 145.172,230.833 184.839,230.5 224.5,229.5C 220.982,227.039 217.149,225.039 213,223.5C 212.542,220.904 213.375,218.737 215.5,217C 210.845,216.501 206.179,216.334 201.5,216.5C 208.5,215.833 215.5,215.167 222.5,214.5C 221.708,213.482 220.041,213.149 217.5,213.5C 217.833,212.5 218.5,211.833 219.5,211.5C 222.187,211.664 224.854,211.497 227.5,211C 225.509,210.626 223.842,209.793 222.5,208.5C 225.568,209.022 228.568,209.855 231.5,211C 230.5,211.333 229.5,211.667 228.5,212C 229.167,212.167 229.833,212.333 230.5,212.5C 236.215,212.405 241.881,212.405 247.5,212.5C 247.5,209.167 247.5,205.833 247.5,202.5C 247.5,202.167 247.5,201.833 247.5,201.5C 247.5,198.833 247.5,196.167 247.5,193.5C 247.5,192.833 247.5,192.167 247.5,191.5C 247.5,188.167 247.5,184.833 247.5,181.5C 247.5,181.167 247.5,180.833 247.5,180.5C 247.5,177.5 247.5,174.5 247.5,171.5C 241.833,171.5 236.167,171.5 230.5,171.5C 226.154,171.666 221.821,171.499 217.5,171C 221.486,170.501 225.486,170.334 229.5,170.5C 229.833,170.5 230.167,170.5 230.5,170.5C 236.206,170.829 241.872,170.495 247.5,169.5C 242.208,168.505 236.875,168.172 231.5,168.5C 227.298,168.817 223.298,168.483 219.5,167.5C 222.833,167.5 226.167,167.5 229.5,167.5C 229.833,167.5 230.167,167.5 230.5,167.5C 236.167,167.5 241.833,167.5 247.5,167.5C 247.5,165.5 247.5,163.5 247.5,161.5C 247.5,161.167 247.5,160.833 247.5,160.5C 247.5,159.5 247.5,158.5 247.5,157.5C 247.5,156.833 247.5,156.167 247.5,155.5C 247.5,152.833 247.5,150.167 247.5,147.5C 247.5,146.833 247.5,146.167 247.5,145.5C 247.5,132.167 247.5,118.833 247.5,105.5C 245.833,105.5 244.167,105.5 242.5,105.5C 244.164,99.3446 246.33,93.3446 249,87.5C 251.67,93.3446 253.836,99.3446 255.5,105.5C 253.833,105.5 252.167,105.5 250.5,105.5C 250.5,118.833 250.5,132.167 250.5,145.5C 284.574,145.921 318.574,147.755 352.5,151C 366.973,153.019 381.306,155.686 395.5,159C 402.955,161.225 409.622,164.725 415.5,169.5 Z"/></g>
<g><path style="opacity:1" fill="#e6f4fa" d="M 214.5,146.5 C 225.321,145.505 236.321,145.172 247.5,145.5C 247.5,146.167 247.5,146.833 247.5,147.5C 241.491,147.334 235.491,147.501 229.5,148C 228.956,148.717 228.289,149.217 227.5,149.5C 226.448,147.744 224.781,147.077 222.5,147.5C 220.052,146.527 217.385,146.194 214.5,146.5 Z"/></g>
<g><path style="opacity:1" fill="#bce2f3" d="M 222.5,147.5 C 224.781,147.077 226.448,147.744 227.5,149.5C 226.262,151.214 225.595,153.214 225.5,155.5C 219.31,155.177 213.31,155.51 207.5,156.5C 202.456,156.827 197.456,156.494 192.5,155.5C 193.592,152.906 195.259,150.739 197.5,149C 205.853,148.666 214.186,148.166 222.5,147.5 Z"/></g>
<g><path style="opacity:1" fill="#bce2f3" d="M 247.5,147.5 C 247.5,150.167 247.5,152.833 247.5,155.5C 240.468,155.83 233.468,155.497 226.5,154.5C 227.309,152.929 227.643,151.262 227.5,149.5C 228.289,149.217 228.956,148.717 229.5,148C 235.491,147.501 241.491,147.334 247.5,147.5 Z"/></g>
<g><path style="opacity:1" fill="#bfe3f3" d="M 133.5,165.5 C 125.906,167.422 118.072,168.755 110,169.5C 101.765,168.824 101.598,167.657 109.5,166C 106.639,166.03 104.305,165.197 102.5,163.5C 105.168,161.499 108.168,159.999 111.5,159C 118.734,156.803 126.067,155.469 133.5,155C 130.637,156.364 128.637,158.53 127.5,161.5C 121.82,162.621 116.153,163.787 110.5,165C 115.906,165.489 121.24,164.989 126.5,163.5C 128.762,164.467 131.095,165.134 133.5,165.5 Z"/></g>
<g><path style="opacity:1" fill="#cfeaf6" d="M 306.5,155.5 C 303.038,156.482 299.371,156.815 295.5,156.5C 280.476,156.698 265.476,156.198 250.5,155C 269.175,154.368 287.842,154.535 306.5,155.5 Z"/></g>
<g><path style="opacity:1" fill="#def0f8" d="M 306.5,155.5 C 309.713,155.19 312.713,155.523 315.5,156.5C 315.5,156.833 315.5,157.167 315.5,157.5C 308.646,157.824 301.979,157.491 295.5,156.5C 299.371,156.815 303.038,156.482 306.5,155.5 Z"/></g>
<g><path style="opacity:1" fill="#bfe3f3" d="M 216.5,157.5 C 219.833,157.5 223.167,157.5 226.5,157.5C 226.5,158.833 226.5,160.167 226.5,161.5C 216.161,161.666 205.828,161.5 195.5,161C 194.956,160.283 194.289,159.783 193.5,159.5C 200.76,157.535 208.427,156.868 216.5,157.5 Z"/></g>
<g><path style="opacity:1" fill="#bce2f3" d="M 247.5,157.5 C 247.5,158.5 247.5,159.5 247.5,160.5C 241.158,160.666 234.825,160.5 228.5,160C 228.043,159.586 227.709,159.086 227.5,158.5C 234.134,157.503 240.8,157.17 247.5,157.5 Z"/></g>
<g><path style="opacity:1" fill="#bee2f3" d="M 193.5,159.5 C 193.414,160.496 193.748,161.329 194.5,162C 185.48,162.251 176.48,162.751 167.5,163.5C 165.307,163.281 163.307,162.615 161.5,161.5C 161.389,160.883 161.056,160.383 160.5,160C 171.566,158.938 182.566,158.771 193.5,159.5 Z"/></g>
<g><path style="opacity:1" fill="#bde2f3" d="M 161.5,161.5 C 162.953,162.825 162.619,163.658 160.5,164C 151.523,164.965 142.523,165.465 133.5,165.5C 133.082,164.778 132.416,164.278 131.5,164C 141.371,161.33 151.371,160.496 161.5,161.5 Z"/></g>
<g><path style="opacity:1" fill="#bfe3f3" d="M 102.5,163.5 C 101.188,164.145 100.188,165.145 99.5,166.5C 96.2371,167.467 93.2371,168.801 90.5,170.5C 84.303,172.109 83.9696,170.942 89.5,167C 93.7925,165.069 98.1259,163.236 102.5,161.5C 103.463,161.97 103.463,162.637 102.5,163.5 Z"/></g>
<g><path style="opacity:1" fill="#e5f3f9" d="M 227.5,149.5 C 227.643,151.262 227.309,152.929 226.5,154.5C 233.468,155.497 240.468,155.83 247.5,155.5C 247.5,156.167 247.5,156.833 247.5,157.5C 240.8,157.17 234.134,157.503 227.5,158.5C 227.709,159.086 228.043,159.586 228.5,160C 234.825,160.5 241.158,160.666 247.5,160.5C 247.5,160.833 247.5,161.167 247.5,161.5C 241.5,161.5 235.5,161.5 229.5,161.5C 229.833,163.5 230.167,165.5 230.5,167.5C 230.167,167.5 229.833,167.5 229.5,167.5C 228.962,165.883 228.629,164.216 228.5,162.5C 218.395,162.051 208.395,162.551 198.5,164C 199.5,165 200.5,166 201.5,167C 207.491,167.499 213.491,167.666 219.5,167.5C 223.298,168.483 227.298,168.817 231.5,168.5C 231.167,169.167 230.833,169.833 230.5,170.5C 230.167,170.5 229.833,170.5 229.5,170.5C 220.348,169.506 211.015,169.173 201.5,169.5C 192.833,169.917 184.166,170.417 175.5,171C 174.944,171.383 174.611,171.883 174.5,172.5C 174.167,172.5 173.833,172.5 173.5,172.5C 168.653,171.381 163.653,171.381 158.5,172.5C 157.791,171.596 156.791,171.263 155.5,171.5C 161.409,170.741 167.409,169.741 173.5,168.5C 175.273,169.087 177.106,169.42 179,169.5C 186.155,168.844 193.321,168.344 200.5,168C 196.915,164.402 192.415,162.902 187,163.5C 171.61,163.974 156.11,165.307 140.5,167.5C 141.025,168.192 141.692,168.692 142.5,169C 142,169.167 141.5,169.333 141,169.5C 138.834,168.25 136.501,167.584 134,167.5C 126.47,168.481 118.97,169.647 111.5,171C 113.595,171.556 113.762,172.056 112,172.5C 108.546,171.727 105.046,171.727 101.5,172.5C 105.395,170.459 104.895,169.126 100,168.5C 96.8882,169.483 93.7215,170.15 90.5,170.5C 93.2371,168.801 96.2371,167.467 99.5,166.5C 100.188,165.145 101.188,164.145 102.5,163.5C 104.305,165.197 106.639,166.03 109.5,166C 101.598,167.657 101.765,168.824 110,169.5C 118.072,168.755 125.906,167.422 133.5,165.5C 142.523,165.465 151.523,164.965 160.5,164C 162.619,163.658 162.953,162.825 161.5,161.5C 163.307,162.615 165.307,163.281 167.5,163.5C 176.48,162.751 185.48,162.251 194.5,162C 193.748,161.329 193.414,160.496 193.5,159.5C 194.289,159.783 194.956,160.283 195.5,161C 205.828,161.5 216.161,161.666 226.5,161.5C 226.5,160.167 226.5,158.833 226.5,157.5C 223.167,157.5 219.833,157.5 216.5,157.5C 213.713,156.523 210.713,156.19 207.5,156.5C 213.31,155.51 219.31,155.177 225.5,155.5C 225.595,153.214 226.262,151.214 227.5,149.5 Z"/></g>
<g><path style="opacity:1" fill="#bce2f3" d="M 229.5,167.5 C 226.167,167.5 222.833,167.5 219.5,167.5C 213.491,167.666 207.491,167.499 201.5,167C 200.5,166 199.5,165 198.5,164C 208.395,162.551 218.395,162.051 228.5,162.5C 228.629,164.216 228.962,165.883 229.5,167.5 Z"/></g>
<g><path style="opacity:1" fill="#c0e3f3" d="M 247.5,161.5 C 247.5,163.5 247.5,165.5 247.5,167.5C 241.833,167.5 236.167,167.5 230.5,167.5C 230.167,165.5 229.833,163.5 229.5,161.5C 235.5,161.5 241.5,161.5 247.5,161.5 Z"/></g>
<g><path style="opacity:1" fill="#cee9f6" d="M 315.5,157.5 C 315.5,157.167 315.5,156.833 315.5,156.5C 332.547,156.936 349.547,158.103 366.5,160C 383.517,161.639 399.851,164.806 415.5,169.5C 416.625,170.348 416.625,171.348 415.5,172.5C 412.904,171.243 410.237,170.076 407.5,169C 377.199,162.24 346.532,158.406 315.5,157.5 Z"/></g>
<g><path style="opacity:1" fill="#d0eaf6" d="M 297.5,167.5 C 294.941,167.198 292.607,167.532 290.5,168.5C 277.151,168.454 263.818,167.954 250.5,167C 266.339,166.172 282.005,166.339 297.5,167.5 Z"/></g>
<g><path style="opacity:1" fill="#bee2f3" d="M 101.5,172.5 C 97.5598,172.758 93.8931,173.924 90.5,176C 88.9963,177.491 88.1629,179.324 88,181.5C 85.6921,180.359 83.8587,178.692 82.5,176.5C 84.8388,174.004 87.5055,172.004 90.5,170.5C 93.7215,170.15 96.8882,169.483 100,168.5C 104.895,169.126 105.395,170.459 101.5,172.5 Z"/></g>
<g><path style="opacity:1" fill="#c2e4f4" d="M 231.5,168.5 C 236.875,168.172 242.208,168.505 247.5,169.5C 241.872,170.495 236.206,170.829 230.5,170.5C 230.833,169.833 231.167,169.167 231.5,168.5 Z"/></g>
<g><path style="opacity:1" fill="#c0e3f3" d="M 201.5,169.5 C 201.167,170.167 200.833,170.833 200.5,171.5C 191.805,171.327 183.138,171.66 174.5,172.5C 174.611,171.883 174.944,171.383 175.5,171C 184.166,170.417 192.833,169.917 201.5,169.5 Z"/></g>
<g><path style="opacity:1" fill="#cce8f5" d="M 250.5,170.5 C 276.029,169.441 301.696,169.941 327.5,172C 301.836,171.742 276.169,171.242 250.5,170.5 Z"/></g>
<g><path style="opacity:1" fill="#bee3f3" d="M 155.5,171.5 C 145.023,171.714 134.689,173.048 124.5,175.5C 122.845,174.772 121.179,174.605 119.5,175C 122.167,175.667 122.167,176.333 119.5,177C 120.167,177.333 120.833,177.667 121.5,178C 119.956,179.187 118.289,179.52 116.5,179C 118.595,178.444 118.762,177.944 117,177.5C 115.5,178 114,178.5 112.5,179C 109.011,181.826 105.178,183.993 101,185.5C 98.1098,184.87 95.2764,184.037 92.5,183C 89.0069,181.522 88.6736,179.522 91.5,177C 94.8932,175.38 98.2265,173.88 101.5,172.5C 105.046,171.727 108.546,171.727 112,172.5C 113.762,172.056 113.595,171.556 111.5,171C 118.97,169.647 126.47,168.481 134,167.5C 136.501,167.584 138.834,168.25 141,169.5C 141.5,169.333 142,169.167 142.5,169C 141.692,168.692 141.025,168.192 140.5,167.5C 156.11,165.307 171.61,163.974 187,163.5C 192.415,162.902 196.915,164.402 200.5,168C 193.321,168.344 186.155,168.844 179,169.5C 177.106,169.42 175.273,169.087 173.5,168.5C 167.409,169.741 161.409,170.741 155.5,171.5 Z"/></g>
<g><path style="opacity:1" fill="#bce2f3" d="M 230.5,171.5 C 236.167,171.5 241.833,171.5 247.5,171.5C 247.5,174.5 247.5,177.5 247.5,180.5C 241.833,180.5 236.167,180.5 230.5,180.5C 230.5,177.5 230.5,174.5 230.5,171.5 Z"/></g>
<g><path style="opacity:1" fill="#bce2f3" d="M 207.5,172.5 C 214.833,172.5 222.167,172.5 229.5,172.5C 229.5,175.167 229.5,177.833 229.5,180.5C 220.494,180.7 211.494,181.034 202.5,181.5C 201.597,178.609 201.264,175.609 201.5,172.5C 203.5,172.5 205.5,172.5 207.5,172.5 Z"/></g>
<g><path style="opacity:1" fill="#d7edf7" d="M 284.5,176.5 C 280.908,173.801 277.574,174.135 274.5,177.5C 275.242,174.862 277.075,173.529 280,173.5C 282.352,173.414 283.852,174.414 284.5,176.5 Z"/></g>
<g><path style="opacity:1" fill="#d8eef7" d="M 290.5,176.5 C 290.611,175.883 290.944,175.383 291.5,175C 293.5,174.333 295.5,174.333 297.5,175C 295.134,175.44 292.801,175.94 290.5,176.5 Z"/></g>
<g><path style="opacity:1" fill="#cee9f6" d="M 327.5,177.5 C 323.64,176.001 320.473,177.001 318,180.5C 317.91,178.232 319.077,176.732 321.5,176C 323.989,175.059 325.989,175.559 327.5,177.5 Z"/></g>
<g><path style="opacity:1" fill="#bde2f3" d="M 145.5,181.5 C 146.234,182.708 146.567,184.041 146.5,185.5C 138.488,186.035 130.488,186.701 122.5,187.5C 122.38,185.801 122.046,184.135 121.5,182.5C 121.818,181.353 122.484,180.519 123.5,180C 130.875,178.995 138.208,177.829 145.5,176.5C 145.5,178.167 145.5,179.833 145.5,181.5 Z"/></g>
<g><path style="opacity:1" fill="#fcfdfd" d="M 339.5,185.5 C 327.38,197.227 313.047,204.727 296.5,208C 300.363,206.442 304.03,204.609 307.5,202.5C 318.738,197.927 327.071,190.26 332.5,179.5C 339.654,175.65 341.988,177.65 339.5,185.5 Z"/></g>
<g><path style="opacity:1" fill="#d9eef7" d="M 266.5,191.5 C 267.492,187.518 268.492,183.518 269.5,179.5C 269.24,177.813 268.573,176.313 267.5,175C 267.833,174.833 268.167,174.667 268.5,174.5C 269.896,175.852 270.563,177.519 270.5,179.5C 270.071,183.915 268.738,187.915 266.5,191.5 Z"/></g>
<g><path style="opacity:1" fill="#dbeff8" d="M 339.5,185.5 C 341.988,177.65 339.654,175.65 332.5,179.5C 334.407,176.668 337.073,175.834 340.5,177C 343.17,180.162 342.837,182.995 339.5,185.5 Z"/></g>
<g><path style="opacity:1" fill="#d6edf7" d="M 354.5,185.5 C 354.739,183.533 354.406,181.699 353.5,180C 351.102,179.626 348.769,179.626 346.5,180C 348.955,178.46 351.621,178.126 354.5,179C 355.811,181.274 355.811,183.44 354.5,185.5 Z"/></g>
<g><path style="opacity:1" fill="#d3ecf6" d="M 290.5,176.5 C 289.438,179.516 288.271,182.516 287,185.5C 286.699,181.899 287.866,178.899 290.5,176.5 Z"/></g>
<g><path style="opacity:1" fill="#cce9f5" d="M 290.5,168.5 C 292.607,167.532 294.941,167.198 297.5,167.5C 327.226,167.365 356.559,170.532 385.5,177C 390.062,179.78 394.728,182.28 399.5,184.5C 397.561,190.183 394.228,195.017 389.5,199C 376.74,206.106 363.074,209.94 348.5,210.5C 359.965,208.297 371.298,205.13 382.5,201C 386.956,199.021 390.79,196.187 394,192.5C 394.49,191.207 394.657,189.873 394.5,188.5C 391.892,188.4 389.558,189.067 387.5,190.5C 389.737,186.605 392.571,185.939 396,188.5C 396.781,187.056 396.614,185.723 395.5,184.5C 390.27,182.359 384.937,180.526 379.5,179C 380.5,178.667 381.5,178.333 382.5,178C 378.332,176.166 373.999,175.499 369.5,176C 372.471,176.794 375.471,177.461 378.5,178C 361.82,176.851 345.154,175.184 328.5,173C 333.5,172.333 338.5,172.333 343.5,173C 351.799,174.413 360.132,175.08 368.5,175C 342.652,171.082 316.652,168.916 290.5,168.5 Z"/></g>
<g><path style="opacity:1" fill="#bde2f3" d="M 122.5,187.5 C 117.952,188.978 113.286,190.478 108.5,192C 107.944,192.383 107.611,192.883 107.5,193.5C 104.246,192.327 103.08,189.994 104,186.5C 108.861,182.823 114.361,180.823 120.5,180.5C 120.171,183.228 120.837,185.562 122.5,187.5 Z"/></g>
<g><path style="opacity:1" fill="#dbeff8" d="M 370.5,182.5 C 367.927,181.445 365.261,181.278 362.5,182C 360.963,183.707 359.296,185.207 357.5,186.5C 359.324,181.276 362.991,179.109 368.5,180C 369.756,180.417 370.423,181.25 370.5,182.5 Z"/></g>
<g><path style="opacity:1" fill="#eef7fb" d="M 214.5,146.5 C 217.385,146.194 220.052,146.527 222.5,147.5C 214.186,148.166 205.853,148.666 197.5,149C 195.259,150.739 193.592,152.906 192.5,155.5C 197.456,156.494 202.456,156.827 207.5,156.5C 210.713,156.19 213.713,156.523 216.5,157.5C 208.427,156.868 200.76,157.535 193.5,159.5C 182.566,158.771 171.566,158.938 160.5,160C 161.056,160.383 161.389,160.883 161.5,161.5C 151.371,160.496 141.371,161.33 131.5,164C 132.416,164.278 133.082,164.778 133.5,165.5C 131.095,165.134 128.762,164.467 126.5,163.5C 121.24,164.989 115.906,165.489 110.5,165C 116.153,163.787 121.82,162.621 127.5,161.5C 128.637,158.53 130.637,156.364 133.5,155C 126.067,155.469 118.734,156.803 111.5,159C 108.168,159.999 105.168,161.499 102.5,163.5C 103.463,162.637 103.463,161.97 102.5,161.5C 98.1259,163.236 93.7925,165.069 89.5,167C 83.9696,170.942 84.303,172.109 90.5,170.5C 87.5055,172.004 84.8388,174.004 82.5,176.5C 83.8587,178.692 85.6921,180.359 88,181.5C 88.1629,179.324 88.9963,177.491 90.5,176C 93.8931,173.924 97.5598,172.758 101.5,172.5C 98.2265,173.88 94.8932,175.38 91.5,177C 88.6736,179.522 89.0069,181.522 92.5,183C 95.2764,184.037 98.1098,184.87 101,185.5C 105.178,183.993 109.011,181.826 112.5,179C 114,178.5 115.5,178 117,177.5C 118.762,177.944 118.595,178.444 116.5,179C 118.289,179.52 119.956,179.187 121.5,178C 120.833,177.667 120.167,177.333 119.5,177C 122.167,176.333 122.167,175.667 119.5,175C 121.179,174.605 122.845,174.772 124.5,175.5C 134.689,173.048 145.023,171.714 155.5,171.5C 156.791,171.263 157.791,171.596 158.5,172.5C 155.059,172.301 151.726,172.801 148.5,174C 156.832,173.834 165.165,173.334 173.5,172.5C 173.833,172.5 174.167,172.5 174.5,172.5C 183.138,171.66 191.805,171.327 200.5,171.5C 203.059,171.198 205.393,171.532 207.5,172.5C 205.5,172.5 203.5,172.5 201.5,172.5C 201.264,175.609 201.597,178.609 202.5,181.5C 202.5,181.833 202.5,182.167 202.5,182.5C 202.167,186.5 201.833,186.5 201.5,182.5C 200.167,182.5 198.833,182.5 197.5,182.5C 197.5,182.167 197.5,181.833 197.5,181.5C 198.5,181.5 199.5,181.5 200.5,181.5C 200.5,178.5 200.5,175.5 200.5,172.5C 191.502,172.881 182.502,173.214 173.5,173.5C 173.5,175.833 173.5,178.167 173.5,180.5C 173.167,180.5 172.833,180.5 172.5,180.5C 172.5,178.5 172.5,176.5 172.5,174.5C 163.795,174.746 155.128,175.413 146.5,176.5C 146.5,178.167 146.5,179.833 146.5,181.5C 146.167,181.5 145.833,181.5 145.5,181.5C 145.5,179.833 145.5,178.167 145.5,176.5C 138.208,177.829 130.875,178.995 123.5,180C 122.484,180.519 121.818,181.353 121.5,182.5C 122.046,184.135 122.38,185.801 122.5,187.5C 120.837,185.562 120.171,183.228 120.5,180.5C 114.361,180.823 108.861,182.823 104,186.5C 103.08,189.994 104.246,192.327 107.5,193.5C 107.389,194.117 107.056,194.617 106.5,195C 110.013,199.425 114.346,201.591 119.5,201.5C 119.389,202.117 119.056,202.617 118.5,203C 124.58,205.749 130.913,207.583 137.5,208.5C 137.5,209.167 137.833,209.5 138.5,209.5C 166.312,213.972 194.312,215.639 222.5,214.5C 215.5,215.167 208.5,215.833 201.5,216.5C 178.619,216.445 155.953,214.279 133.5,210C 122.018,207.844 112.184,202.677 104,194.5C 102.688,192.045 101.522,189.545 100.5,187C 93.4617,185.884 87.295,183.051 82,178.5C 81.3333,176.5 81.3333,174.5 82,172.5C 85.3148,168.182 89.4814,165.015 94.5,163C 101.374,160.264 108.374,157.931 115.5,156C 148.229,150.186 181.229,147.019 214.5,146.5 Z"/></g>
<g><path style="opacity:1" fill="#bfe3f3" d="M 144.5,173.5 C 147.598,173.413 147.932,173.913 145.5,175C 138.854,176.237 132.188,176.903 125.5,177C 131.962,175.773 138.295,174.606 144.5,173.5 Z"/></g>
<g><path style="opacity:1" fill="#bde2f3" d="M 172.5,180.5 C 172.119,181.931 171.119,182.764 169.5,183C 162.185,183.832 154.852,184.332 147.5,184.5C 147.737,183.209 147.404,182.209 146.5,181.5C 146.5,179.833 146.5,178.167 146.5,176.5C 155.128,175.413 163.795,174.746 172.5,174.5C 172.5,176.5 172.5,178.5 172.5,180.5 Z"/></g>
<g><path style="opacity:1" fill="#bce2f3" d="M 197.5,181.5 C 191.818,181.532 186.152,181.865 180.5,182.5C 177.887,182.357 175.553,181.69 173.5,180.5C 173.5,178.167 173.5,175.833 173.5,173.5C 182.502,173.214 191.502,172.881 200.5,172.5C 200.5,175.5 200.5,178.5 200.5,181.5C 199.5,181.5 198.5,181.5 197.5,181.5 Z"/></g>
<g><path style="opacity:1" fill="#bee3f3" d="M 173.5,172.5 C 165.165,173.334 156.832,173.834 148.5,174C 151.726,172.801 155.059,172.301 158.5,172.5C 163.653,171.381 168.653,171.381 173.5,172.5 Z"/></g>
<g><path style="opacity:1" fill="#bee2f3" d="M 159.5,156.5 C 158.596,157.209 158.263,158.209 158.5,159.5C 149.611,159.433 140.777,160.099 132,161.5C 131.167,161.167 130.333,160.833 129.5,160.5C 133.138,156.18 137.804,153.68 143.5,153C 149.821,152.067 156.154,151.734 162.5,152C 160.859,153.129 159.859,154.629 159.5,156.5 Z"/></g>
<g><path style="opacity:1" fill="#bde2f3" d="M 159.5,156.5 C 161.671,154.5 164.004,152.666 166.5,151C 176.11,149.363 185.776,148.697 195.5,149C 192.976,150.883 191.642,153.383 191.5,156.5C 181.986,156.938 172.486,157.605 163,158.5C 161.319,158.392 160.152,157.725 159.5,156.5 Z"/></g>
<g><path style="opacity:1" fill="#def0f8" d="M 201.5,169.5 C 211.015,169.173 220.348,169.506 229.5,170.5C 225.486,170.334 221.486,170.501 217.5,171C 221.821,171.499 226.154,171.666 230.5,171.5C 230.5,174.5 230.5,177.5 230.5,180.5C 236.167,180.5 241.833,180.5 247.5,180.5C 247.5,180.833 247.5,181.167 247.5,181.5C 242.167,181.5 236.833,181.5 231.5,181.5C 231.26,184.579 231.593,187.579 232.5,190.5C 237.456,191.494 242.456,191.827 247.5,191.5C 247.5,192.167 247.5,192.833 247.5,193.5C 242.456,193.173 237.456,193.506 232.5,194.5C 233.428,195.768 233.595,197.101 233,198.5C 231.991,196.975 231.491,195.308 231.5,193.5C 222.73,192.882 214.23,193.548 206,195.5C 204.647,194.296 202.981,193.629 201,193.5C 193.997,193.984 187.164,194.651 180.5,195.5C 172.889,194.87 165.223,195.203 157.5,196.5C 158.5,197.333 159.5,198.167 160.5,199C 160.167,199.167 159.833,199.333 159.5,199.5C 157.51,197.749 155.177,196.749 152.5,196.5C 146.106,197.223 139.772,198.223 133.5,199.5C 132.583,198.873 131.583,198.539 130.5,198.5C 130.369,197.761 130.536,197.094 131,196.5C 138.247,197.116 145.414,196.282 152.5,194C 151.748,193.329 151.414,192.496 151.5,191.5C 149.661,190.492 148.328,188.992 147.5,187C 133.539,187.103 120.205,189.269 107.5,193.5C 107.611,192.883 107.944,192.383 108.5,192C 113.286,190.478 117.952,188.978 122.5,187.5C 130.488,186.701 138.488,186.035 146.5,185.5C 146.567,184.041 146.234,182.708 145.5,181.5C 145.833,181.5 146.167,181.5 146.5,181.5C 147.404,182.209 147.737,183.209 147.5,184.5C 154.852,184.332 162.185,183.832 169.5,183C 171.119,182.764 172.119,181.931 172.5,180.5C 172.833,180.5 173.167,180.5 173.5,180.5C 175.553,181.69 177.887,182.357 180.5,182.5C 186.152,181.865 191.818,181.532 197.5,181.5C 197.5,181.833 197.5,182.167 197.5,182.5C 190.223,183.43 182.89,183.764 175.5,183.5C 176.092,186.691 177.259,189.691 179,192.5C 179.893,193.081 180.893,193.415 182,193.5C 198.017,192.265 214.183,191.598 230.5,191.5C 230.5,188.5 230.5,185.5 230.5,182.5C 221.167,182.5 211.833,182.5 202.5,182.5C 202.5,182.167 202.5,181.833 202.5,181.5C 211.494,181.034 220.494,180.7 229.5,180.5C 229.5,177.833 229.5,175.167 229.5,172.5C 222.167,172.5 214.833,172.5 207.5,172.5C 205.393,171.532 203.059,171.198 200.5,171.5C 200.833,170.833 201.167,170.167 201.5,169.5 Z"/></g>
<g><path style="opacity:1" fill="#bce2f3" d="M 197.5,182.5 C 198.833,182.5 200.167,182.5 201.5,182.5C 201.833,186.5 202.167,186.5 202.5,182.5C 211.833,182.5 221.167,182.5 230.5,182.5C 230.5,185.5 230.5,188.5 230.5,191.5C 214.183,191.598 198.017,192.265 182,193.5C 180.893,193.415 179.893,193.081 179,192.5C 177.259,189.691 176.092,186.691 175.5,183.5C 182.89,183.764 190.223,183.43 197.5,182.5 Z"/></g>
<g><path style="opacity:1" fill="#bde2f3" d="M 247.5,181.5 C 247.5,184.833 247.5,188.167 247.5,191.5C 242.456,191.827 237.456,191.494 232.5,190.5C 231.593,187.579 231.26,184.579 231.5,181.5C 236.833,181.5 242.167,181.5 247.5,181.5 Z"/></g>
<g><path style="opacity:1" fill="#d7edf7" d="M 311.5,185.5 C 312.606,182.946 313.439,180.279 314,177.5C 314.977,180.817 314.144,183.484 311.5,185.5 Z"/></g>
<g><path style="opacity:1" fill="#bce2f3" d="M 151.5,191.5 C 150.758,189.574 149.758,187.741 148.5,186C 157.151,185.168 165.817,184.668 174.5,184.5C 174.924,187.354 175.924,190.021 177.5,192.5C 169.932,194.369 162.265,194.869 154.5,194C 153.627,192.955 152.627,192.122 151.5,191.5 Z"/></g>
<g><path style="opacity:1" fill="#d4ecf6" d="M 284.5,176.5 C 285.152,177.449 285.486,178.615 285.5,180C 285.607,182.221 284.94,184.054 283.5,185.5C 284.159,182.545 284.492,179.545 284.5,176.5 Z"/></g>
<g><path style="opacity:1" fill="#d3ebf6" d="M 312.5,188.5 C 313.391,186.391 314.558,184.391 316,182.5C 316.149,185.196 314.982,187.196 312.5,188.5 Z"/></g>
<g><path style="opacity:1" fill="#bde2f3" d="M 151.5,191.5 C 151.414,192.496 151.748,193.329 152.5,194C 145.414,196.282 138.247,197.116 131,196.5C 130.536,197.094 130.369,197.761 130.5,198.5C 126.466,198.517 122.799,199.517 119.5,201.5C 114.346,201.591 110.013,199.425 106.5,195C 107.056,194.617 107.389,194.117 107.5,193.5C 120.205,189.269 133.539,187.103 147.5,187C 148.328,188.992 149.661,190.492 151.5,191.5 Z"/></g>
<g><path style="opacity:1" fill="#d9eef7" d="M 251.5,175.5 C 252.566,174.308 253.399,174.641 254,176.5C 254.563,185.666 253.563,194.666 251,203.5C 251.496,196.174 252.33,188.841 253.5,181.5C 253.639,179.117 252.972,177.117 251.5,175.5 Z"/></g>
<g><path style="opacity:1" fill="#d6edf7" d="M 274.5,177.5 C 274.408,183.535 272.908,189.201 270,194.5C 271.313,188.762 272.813,183.095 274.5,177.5 Z"/></g>
<g><path style="opacity:1" fill="#e4f2f9" d="M 327.5,177.5 C 328.966,178.347 329.8,179.68 330,181.5C 330.708,180.619 331.542,179.953 332.5,179.5C 327.071,190.26 318.738,197.927 307.5,202.5C 307.557,201.391 307.89,200.391 308.5,199.5C 314.578,195.682 320.078,191.016 325,185.5C 327.023,183.231 327.856,180.564 327.5,177.5 Z"/></g>
<g><path style="opacity:1" fill="#dbeef7" d="M 354.5,185.5 C 353.833,188.167 352.167,189.833 349.5,190.5C 350.833,188.5 352.5,186.833 354.5,185.5 Z"/></g>
<g><path style="opacity:1" fill="#fafcfd" d="M 348.5,210.5 C 340.841,211.249 333.174,211.916 325.5,212.5C 335.053,210.925 344.719,209.258 354.5,207.5C 363.487,204.891 372.153,201.391 380.5,197C 383.331,195.334 385.664,193.168 387.5,190.5C 389.558,189.067 391.892,188.4 394.5,188.5C 394.657,189.873 394.49,191.207 394,192.5C 390.79,196.187 386.956,199.021 382.5,201C 371.298,205.13 359.965,208.297 348.5,210.5 Z"/></g>
<g><path style="opacity:1" fill="#bce2f3" d="M 247.5,193.5 C 247.5,196.167 247.5,198.833 247.5,201.5C 242.678,202.065 238.178,201.399 234,199.5C 230.429,200.792 226.595,201.458 222.5,201.5C 218.833,201.333 215.167,201.167 211.5,201C 208.966,197.568 208.299,197.735 209.5,201.5C 201.627,203.056 193.96,202.722 186.5,200.5C 185.089,198.086 183.089,196.419 180.5,195.5C 187.164,194.651 193.997,193.984 201,193.5C 202.981,193.629 204.647,194.296 206,195.5C 214.23,193.548 222.73,192.882 231.5,193.5C 231.491,195.308 231.991,196.975 233,198.5C 233.595,197.101 233.428,195.768 232.5,194.5C 237.456,193.506 242.456,193.173 247.5,193.5 Z"/></g>
<g><path style="opacity:1" fill="#e4f2f9" d="M 180.5,195.5 C 183.089,196.419 185.089,198.086 186.5,200.5C 183.911,199.581 181.911,197.914 180.5,195.5 Z"/></g>
<g><path style="opacity:1" fill="#d6ecf7" d="M 266.5,191.5 C 265.738,195.691 263.904,199.358 261,202.5C 262.263,198.64 264.097,194.973 266.5,191.5 Z"/></g>
<g><path style="opacity:1" fill="#bde2f3" d="M 180.5,195.5 C 181.911,197.914 183.911,199.581 186.5,200.5C 186.611,201.117 186.944,201.617 187.5,202C 180.232,204.102 173.065,203.936 166,201.5C 165.651,202.473 164.818,203.306 163.5,204C 155.429,205.174 147.596,204.34 140,201.5C 139.5,201.667 139,201.833 138.5,202C 141.089,203.197 143.756,204.197 146.5,205C 143.416,206.107 140.416,207.273 137.5,208.5C 130.913,207.583 124.58,205.749 118.5,203C 119.056,202.617 119.389,202.117 119.5,201.5C 123.427,201.074 127.093,200.074 130.5,198.5C 131.583,198.539 132.583,198.873 133.5,199.5C 139.772,198.223 146.106,197.223 152.5,196.5C 155.177,196.749 157.51,197.749 159.5,199.5C 159.833,199.333 160.167,199.167 160.5,199C 159.5,198.167 158.5,197.333 157.5,196.5C 165.223,195.203 172.889,194.87 180.5,195.5 Z"/></g>
<g><path style="opacity:1" fill="#d7edf7" d="M 254.5,210.5 C 253.77,211.712 252.77,212.712 251.5,213.5C 256.317,214.167 260.983,214.834 265.5,215.5C 260.5,215.5 255.5,215.5 250.5,215.5C 251.655,210.824 253.155,206.158 255,201.5C 256.117,193.097 257.45,184.764 259,176.5C 259.135,186.723 257.635,196.723 254.5,206.5C 255.025,207.192 255.692,207.692 256.5,208C 255.619,208.708 254.953,209.542 254.5,210.5 Z"/></g>
<g><path style="opacity:1" fill="#ddf0f8" d="M 370.5,182.5 C 371.735,184.017 371.735,185.684 370.5,187.5C 371.025,188.192 371.692,188.692 372.5,189C 364.26,196.289 354.926,201.789 344.5,205.5C 343.833,204.833 343.167,204.167 342.5,203.5C 350.681,200.407 358.347,196.241 365.5,191C 368.596,188.971 370.262,186.138 370.5,182.5 Z"/></g>
<g><path style="opacity:1" fill="#def0f8" d="M 387.5,190.5 C 385.664,193.168 383.331,195.334 380.5,197C 372.153,201.391 363.487,204.891 354.5,207.5C 354.672,206.508 354.338,205.842 353.5,205.5C 364.431,202.784 374.264,197.784 383,190.5C 384.377,188.045 384.877,185.712 384.5,183.5C 385.769,185.695 385.769,187.861 384.5,190C 385.448,190.483 386.448,190.649 387.5,190.5 Z"/></g>
<g><path style="opacity:1" fill="#eaf5fa" d="M 357.5,186.5 C 356.457,189.056 354.79,191.223 352.5,193C 342.803,200.006 332.136,204.672 320.5,207C 323.167,206.333 323.167,205.667 320.5,205C 330.778,201.195 340.444,196.361 349.5,190.5C 349.783,191.289 350.283,191.956 351,192.5C 353.037,190.294 355.203,188.294 357.5,186.5 Z"/></g>
<g><path style="opacity:1" fill="#d9eef7" d="M 279.5,205.5 C 279.158,204.662 278.492,204.328 277.5,204.5C 285.429,199.739 291.929,193.406 297,185.5C 297,186.833 297,188.167 297,189.5C 299.503,186.498 301.503,183.165 303,179.5C 303.667,180.5 303.667,181.5 303,182.5C 297.266,192.402 289.432,200.068 279.5,205.5 Z"/></g>
<g><path style="opacity:1" fill="#e4f3f9" d="M 130.5,198.5 C 127.093,200.074 123.427,201.074 119.5,201.5C 122.799,199.517 126.466,198.517 130.5,198.5 Z"/></g>
<g><path style="opacity:1" fill="#bfe3f3" d="M 247.5,202.5 C 247.5,205.833 247.5,209.167 247.5,212.5C 241.881,212.405 236.215,212.405 230.5,212.5C 229.833,212.333 229.167,212.167 228.5,212C 229.5,211.667 230.5,211.333 231.5,211C 228.568,209.855 225.568,209.022 222.5,208.5C 220.664,206.412 218.331,205.079 215.5,204.5C 215.389,203.883 215.056,203.383 214.5,203C 225.64,202.949 236.64,202.783 247.5,202.5 Z"/></g>
<g><path style="opacity:1" fill="#bde2f3" d="M 215.5,204.5 C 217.336,206.588 219.669,207.921 222.5,208.5C 223.842,209.793 225.509,210.626 227.5,211C 224.854,211.497 222.187,211.664 219.5,211.5C 211.988,209.206 204.322,207.373 196.5,206C 200.392,207.64 204.392,208.973 208.5,210C 197.65,209.765 186.984,208.098 176.5,205C 189.415,203.674 202.415,203.507 215.5,204.5 Z"/></g>
<g><path style="opacity:1" fill="#e2f2f9" d="M 215.5,204.5 C 218.331,205.079 220.664,206.412 222.5,208.5C 219.669,207.921 217.336,206.588 215.5,204.5 Z"/></g>
<g><path style="opacity:1" fill="#daeef7" d="M 283.5,185.5 C 284.141,186.482 284.807,187.482 285.5,188.5C 280.857,196.142 274.857,202.476 267.5,207.5C 267.158,206.662 266.492,206.328 265.5,206.5C 272.969,200.703 278.969,193.703 283.5,185.5 Z"/></g>
<g><path style="opacity:1" fill="#e6f4fa" d="M 265.5,206.5 C 266.492,206.328 267.158,206.662 267.5,207.5C 267.56,208.043 267.893,208.376 268.5,208.5C 271.404,206.88 274.404,205.547 277.5,204.5C 278.492,204.328 279.158,204.662 279.5,205.5C 279.5,206.167 279.833,206.5 280.5,206.5C 280.918,207.222 281.584,207.722 282.5,208C 279.408,209.546 276.408,211.046 273.5,212.5C 271.801,212.66 270.134,212.494 268.5,212C 270.878,211.489 273.212,210.822 275.5,210C 274.975,209.308 274.308,208.808 273.5,208.5C 269.634,210.628 265.634,211.795 261.5,212C 263.087,211.138 264.754,210.471 266.5,210C 266,209.5 265.5,209 265,208.5C 262.112,210.794 258.945,211.961 255.5,212C 256.833,211.333 258.167,210.667 259.5,210C 258.944,209.617 258.611,209.117 258.5,208.5C 260.461,206.037 262.628,203.703 265,201.5C 264.454,204.093 262.954,206.26 260.5,208C 262.189,207.866 263.856,207.366 265.5,206.5 Z"/></g>
<g><path style="opacity:1" fill="#bee3f3" d="M 217.5,213.5 C 220.041,213.149 221.708,213.482 222.5,214.5C 194.312,215.639 166.312,213.972 138.5,209.5C 144.023,206.945 149.857,206.278 156,207.5C 159.104,207.149 158.937,206.649 155.5,206C 160.372,205.754 165.205,205.254 170,204.5C 179.577,207.815 189.41,209.982 199.5,211C 186.87,211.387 174.37,210.22 162,207.5C 158.896,207.851 159.063,208.351 162.5,209C 180.682,212.299 199.016,213.799 217.5,213.5 Z"/></g>
<g><path style="opacity:1" fill="#e6f3f9" d="M 247.5,201.5 C 247.5,201.833 247.5,202.167 247.5,202.5C 236.64,202.783 225.64,202.949 214.5,203C 215.056,203.383 215.389,203.883 215.5,204.5C 202.415,203.507 189.415,203.674 176.5,205C 186.984,208.098 197.65,209.765 208.5,210C 204.392,208.973 200.392,207.64 196.5,206C 204.322,207.373 211.988,209.206 219.5,211.5C 218.5,211.833 217.833,212.5 217.5,213.5C 199.016,213.799 180.682,212.299 162.5,209C 159.063,208.351 158.896,207.851 162,207.5C 174.37,210.22 186.87,211.387 199.5,211C 189.41,209.982 179.577,207.815 170,204.5C 165.205,205.254 160.372,205.754 155.5,206C 158.937,206.649 159.104,207.149 156,207.5C 149.857,206.278 144.023,206.945 138.5,209.5C 137.833,209.5 137.5,209.167 137.5,208.5C 140.416,207.273 143.416,206.107 146.5,205C 143.756,204.197 141.089,203.197 138.5,202C 139,201.833 139.5,201.667 140,201.5C 147.596,204.34 155.429,205.174 163.5,204C 164.818,203.306 165.651,202.473 166,201.5C 173.065,203.936 180.232,204.102 187.5,202C 186.944,201.617 186.611,201.117 186.5,200.5C 193.96,202.722 201.627,203.056 209.5,201.5C 208.299,197.735 208.966,197.568 211.5,201C 215.167,201.167 218.833,201.333 222.5,201.5C 226.595,201.458 230.429,200.792 234,199.5C 238.178,201.399 242.678,202.065 247.5,201.5 Z"/></g>
<g><path style="opacity:1" fill="#dceff8" d="M 318.5,209.5 C 320.292,210.309 322.292,210.809 324.5,211C 322.5,211.333 320.5,211.667 318.5,212C 319.416,212.278 320.082,212.778 320.5,213.5C 316.904,213.847 313.571,213.18 310.5,211.5C 307.203,212.496 303.869,212.663 300.5,212C 301.5,211.667 302.5,211.333 303.5,211C 302.833,210.833 302.167,210.667 301.5,210.5C 298.713,211.402 296.047,211.735 293.5,211.5C 291.941,210.926 290.441,210.26 289,209.5C 283.955,212.231 278.788,213.231 273.5,212.5C 276.408,211.046 279.408,209.546 282.5,208C 281.584,207.722 280.918,207.222 280.5,206.5C 292.708,202.232 303.041,195.232 311.5,185.5C 309.78,188.731 307.447,191.564 304.5,194C 305.167,194.667 305.833,194.667 306.5,194C 308.37,191.96 310.37,190.127 312.5,188.5C 311.457,191.056 309.79,193.223 307.5,195C 302.004,198.916 296.337,202.582 290.5,206C 291.5,206.667 292.5,206.667 293.5,206C 298.521,203.821 303.521,201.654 308.5,199.5C 307.89,200.391 307.557,201.391 307.5,202.5C 304.03,204.609 300.363,206.442 296.5,208C 313.047,204.727 327.38,197.227 339.5,185.5C 339.369,186.239 339.536,186.906 340,187.5C 341,186.5 342,185.5 343,184.5C 343.167,184.833 343.333,185.167 343.5,185.5C 335.412,195.051 325.412,201.884 313.5,206C 315.5,206 317.5,206 319.5,206C 318.833,206.333 318.167,206.667 317.5,207C 319.878,207.974 319.544,208.641 316.5,209C 317.094,209.464 317.761,209.631 318.5,209.5 Z"/></g>
<g><path style="opacity:1" fill="#cce8f5" d="M 342.5,203.5 C 343.167,204.167 343.833,204.833 344.5,205.5C 338.598,207.309 332.598,208.809 326.5,210C 335.596,209.312 344.596,207.812 353.5,205.5C 354.338,205.842 354.672,206.508 354.5,207.5C 344.719,209.258 335.053,210.925 325.5,212.5C 323.958,213.301 322.292,213.634 320.5,213.5C 320.082,212.778 319.416,212.278 318.5,212C 320.5,211.667 322.5,211.333 324.5,211C 322.292,210.809 320.292,210.309 318.5,209.5C 326.555,207.704 334.555,205.704 342.5,203.5 Z"/></g>
<g><path style="opacity:1" fill="#bfe3f3" d="M 240.5,216.5 C 239.655,217.671 238.989,219.005 238.5,220.5C 236.549,220.773 235.049,220.107 234,218.5C 232.507,220.56 230.674,220.893 228.5,219.5C 229.193,218.482 229.859,217.482 230.5,216.5C 234,216.166 237.334,216.166 240.5,216.5 Z"/></g>
<g><path style="opacity:1" fill="#c5e5f4" d="M 240.5,216.5 C 242.694,215.877 244.861,215.543 247,215.5C 247.667,217.167 247.667,218.833 247,220.5C 245.044,220.216 242.877,220.216 240.5,220.5C 240.5,219.167 240.5,217.833 240.5,216.5 Z"/></g>
<g><path style="opacity:1" fill="#c1e4f3" d="M 222.5,216.5 C 221.833,217.833 221.167,219.167 220.5,220.5C 218.636,221.793 216.636,221.793 214.5,220.5C 216.343,217.578 219.01,216.245 222.5,216.5 Z"/></g>
<g><path style="opacity:1" fill="#bfe3f3" d="M 229.5,215.5 C 228.058,216.82 227.392,218.486 227.5,220.5C 222.831,221.01 221.831,219.677 224.5,216.5C 226.117,215.962 227.784,215.629 229.5,215.5 Z"/></g>
<g><path style="opacity:1" fill="#d5ecf7" d="M 280.5,221.5 C 279.833,221.5 279.5,221.833 279.5,222.5C 269.817,222.377 260.15,221.877 250.5,221C 260.675,220.175 270.675,220.342 280.5,221.5 Z"/></g>
<g><path style="opacity:1" fill="#c9e7f5" d="M 223.5,222.5 C 226.451,222.287 229.118,222.954 231.5,224.5C 231.389,225.117 231.056,225.617 230.5,226C 231.624,226.249 232.624,226.749 233.5,227.5C 234.73,229.933 235.73,232.433 236.5,235C 235.552,235.483 234.552,235.649 233.5,235.5C 231.862,228.878 231.529,228.878 232.5,235.5C 233.689,236.429 235.022,236.762 236.5,236.5C 236.5,238.5 236.5,240.5 236.5,242.5C 233.562,242.977 230.896,243.977 228.5,245.5C 227.539,243.735 227.205,241.735 227.5,239.5C 228.29,240.609 228.79,241.942 229,243.5C 230.759,232.905 226.259,226.072 215.5,223C 218.399,222.814 221.066,222.648 223.5,222.5 Z"/></g>
<g><path style="opacity:1" fill="#bee2f3" d="M 246.5,226.5 C 246.5,229.5 246.5,232.5 246.5,235.5C 244.149,233.159 243.149,230.159 243.5,226.5C 244.5,226.5 245.5,226.5 246.5,226.5 Z"/></g>
<g><path style="opacity:1" fill="#dceff7" d="M 269.5,234.5 C 305.996,233.502 342.663,233.168 379.5,233.5C 379.216,235.415 379.549,237.081 380.5,238.5C 380.44,239.043 380.107,239.376 379.5,239.5C 378.548,237.955 378.215,236.288 378.5,234.5C 342.167,234.5 305.833,234.5 269.5,234.5 Z"/></g>
<g><path style="opacity:1" fill="#e7f4fa" d="M 229.5,215.5 C 230.167,215.5 230.5,215.833 230.5,216.5C 229.859,217.482 229.193,218.482 228.5,219.5C 230.674,220.893 232.507,220.56 234,218.5C 235.049,220.107 236.549,220.773 238.5,220.5C 238.833,221.167 239.167,221.833 239.5,222.5C 241.611,221.258 243.611,221.258 245.5,222.5C 240.971,222.042 240.471,223.042 244,225.5C 245.03,225.164 245.53,224.497 245.5,223.5C 246.222,223.082 246.722,222.416 247,221.5C 247.64,223.265 247.473,224.932 246.5,226.5C 245.5,226.5 244.5,226.5 243.5,226.5C 243.149,230.159 244.149,233.159 246.5,235.5C 246.5,235.833 246.5,236.167 246.5,236.5C 244.692,237.918 244.025,239.918 244.5,242.5C 244.167,242.5 243.833,242.5 243.5,242.5C 242.833,234.5 242.167,234.5 241.5,242.5C 241.167,242.5 240.833,242.5 240.5,242.5C 240.5,240.5 240.5,238.5 240.5,236.5C 239.5,236.5 238.5,236.5 237.5,236.5C 237.833,238.5 238.167,240.5 238.5,242.5C 237.833,242.5 237.167,242.5 236.5,242.5C 236.5,240.5 236.5,238.5 236.5,236.5C 235.022,236.762 233.689,236.429 232.5,235.5C 231.529,228.878 231.862,228.878 233.5,235.5C 234.552,235.649 235.552,235.483 236.5,235C 235.73,232.433 234.73,229.933 233.5,227.5C 232.624,226.749 231.624,226.249 230.5,226C 231.056,225.617 231.389,225.117 231.5,224.5C 229.118,222.954 226.451,222.287 223.5,222.5C 222.71,221.599 221.71,220.932 220.5,220.5C 221.167,219.167 221.833,217.833 222.5,216.5C 223.167,216.5 223.833,216.5 224.5,216.5C 221.831,219.677 222.831,221.01 227.5,220.5C 227.392,218.486 228.058,216.82 229.5,215.5 Z"/></g>
<g><path style="opacity:1" fill="#bde2f3" d="M 234.5,227.5 C 235.542,226.209 236.708,226.209 238,227.5C 239.436,230.143 239.602,232.81 238.5,235.5C 237.341,232.652 236.008,229.985 234.5,227.5 Z"/></g>
<g><path style="opacity:1" fill="#bee3f3" d="M 239.5,226.5 C 240.496,226.414 241.329,226.748 242,227.5C 242.373,229.698 242.873,231.865 243.5,234C 242.99,235.826 242.156,235.993 241,234.5C 240.433,231.832 239.933,229.166 239.5,226.5 Z"/></g>
<g><path style="opacity:1" fill="#bfe3f3" d="M 245.5,222.5 C 245.5,222.833 245.5,223.167 245.5,223.5C 245.53,224.497 245.03,225.164 244,225.5C 240.471,223.042 240.971,222.042 245.5,222.5 Z"/></g>
<g><path style="opacity:1" fill="#bee3f3" d="M 239.5,222.5 C 242.157,225.383 241.49,226.05 237.5,224.5C 236.391,222.786 237.058,222.119 239.5,222.5 Z"/></g>
<g><path style="opacity:1" fill="#bfe3f3" d="M 231.5,224.5 C 229.946,223.105 230.279,222.439 232.5,222.5C 237.874,225.256 237.541,225.923 231.5,224.5 Z"/></g>
<g><path style="opacity:1" fill="#c0e3f3" d="M 240.5,242.5 C 239.833,242.5 239.167,242.5 238.5,242.5C 238.167,240.5 237.833,238.5 237.5,236.5C 238.5,236.5 239.5,236.5 240.5,236.5C 240.5,238.5 240.5,240.5 240.5,242.5 Z"/></g>
<g><path style="opacity:1" fill="#bee2f3" d="M 243.5,242.5 C 242.833,242.5 242.167,242.5 241.5,242.5C 242.167,234.5 242.833,234.5 243.5,242.5 Z"/></g>
<g><path style="opacity:1" fill="#bee2f3" d="M 246.5,236.5 C 246.975,239.082 246.308,241.082 244.5,242.5C 244.025,239.918 244.692,237.918 246.5,236.5 Z"/></g>
<g><path style="opacity:1" fill="#dff0f8" d="M 233.5,244.5 C 236.687,243.194 240.02,243.194 243.5,244.5C 242.675,245.386 241.675,245.719 240.5,245.5C 240.5,246.5 240.5,247.5 240.5,248.5C 237.167,248.5 233.833,248.5 230.5,248.5C 230.5,247.5 230.5,246.5 230.5,245.5C 232.226,245.815 233.893,245.981 235.5,246C 234.956,245.283 234.289,244.783 233.5,244.5 Z"/></g>
<g><path style="opacity:1" fill="#bde2f3" d="M 243.5,246.5 C 243.672,247.492 243.338,248.158 242.5,248.5C 241.243,247.377 241.576,246.711 243.5,246.5 Z"/></g>
<g><path style="opacity:1" fill="#bfe3f3" d="M 244.5,246.5 C 245.833,246.5 246.5,247.167 246.5,248.5C 246.5,247.167 245.833,246.5 244.5,246.5 Z"/></g>
<g><path style="opacity:1" fill="#e5f3fa" d="M 243.5,246.5 C 243.833,246.5 244.167,246.5 244.5,246.5C 244.5,247.833 245.167,248.5 246.5,248.5C 246.586,249.496 246.252,250.329 245.5,251C 242.773,251.818 240.106,251.652 237.5,250.5C 239.291,249.83 240.958,249.163 242.5,248.5C 243.338,248.158 243.672,247.492 243.5,246.5 Z"/></g>
<g><path style="opacity:1" fill="#d6edf7" d="M 266.5,248.5 C 267.398,249.158 268.398,249.824 269.5,250.5C 268.675,251.386 267.675,251.719 266.5,251.5C 261.319,250.833 255.985,250.167 250.5,249.5C 255.792,248.505 261.125,248.172 266.5,248.5 Z"/></g>
<g><path style="opacity:1" fill="#bee3f3" d="M 232.5,252.5 C 232.682,254.591 232.348,256.591 231.5,258.5C 230.675,259.386 229.675,259.719 228.5,259.5C 228.674,257.139 229.007,254.806 229.5,252.5C 230.5,252.5 231.5,252.5 232.5,252.5 Z"/></g>
<g><path style="opacity:1" fill="#bde2f3" d="M 234.5,252.5 C 236.176,253.183 236.843,254.517 236.5,256.5C 235.596,257.209 235.263,258.209 235.5,259.5C 234.448,259.649 233.448,259.483 232.5,259C 233.23,256.846 233.897,254.679 234.5,252.5 Z"/></g>
<g><path style="opacity:1" fill="#d5ecf7" d="M 261.5,251.5 C 262.209,252.404 263.209,252.737 264.5,252.5C 259.985,253.812 255.318,253.812 250.5,252.5C 254.107,251.511 257.774,251.177 261.5,251.5 Z"/></g>
<g><path style="opacity:1" fill="#c1e4f3" d="M 240.5,253.5 C 239.85,255.435 239.517,257.435 239.5,259.5C 238.448,259.649 237.448,259.483 236.5,259C 237.252,258.329 237.586,257.496 237.5,256.5C 237.5,255.167 237.5,253.833 237.5,252.5C 238.791,252.263 239.791,252.596 240.5,253.5 Z"/></g>
<g><path style="opacity:1" fill="#c0e3f3" d="M 243.5,253.5 C 243.5,255.5 243.5,257.5 243.5,259.5C 242.325,259.719 241.325,259.386 240.5,258.5C 241.309,256.929 241.643,255.262 241.5,253.5C 242.167,252.167 242.833,252.167 243.5,253.5 Z"/></g>
<g><path style="opacity:1" fill="#bee2f3" d="M 246.5,259.5 C 244.692,258.082 244.025,256.082 244.5,253.5C 244.56,252.957 244.893,252.624 245.5,252.5C 246.474,254.743 246.808,257.076 246.5,259.5 Z"/></g>
<g><path style="opacity:1" fill="#e4f3f9" d="M 232.5,252.5 C 233.167,252.5 233.833,252.5 234.5,252.5C 233.897,254.679 233.23,256.846 232.5,259C 233.448,259.483 234.448,259.649 235.5,259.5C 235.263,258.209 235.596,257.209 236.5,256.5C 236.833,256.5 237.167,256.5 237.5,256.5C 237.586,257.496 237.252,258.329 236.5,259C 237.448,259.483 238.448,259.649 239.5,259.5C 239.517,257.435 239.85,255.435 240.5,253.5C 240.833,253.5 241.167,253.5 241.5,253.5C 241.643,255.262 241.309,256.929 240.5,258.5C 241.325,259.386 242.325,259.719 243.5,259.5C 243.5,257.5 243.5,255.5 243.5,253.5C 243.833,253.5 244.167,253.5 244.5,253.5C 244.025,256.082 244.692,258.082 246.5,259.5C 246.5,260.167 246.5,260.833 246.5,261.5C 245.5,261.5 244.5,261.5 243.5,261.5C 243.54,264.881 243.207,268.214 242.5,271.5C 245.47,271.254 246.803,269.588 246.5,266.5C 247.461,268.265 247.795,270.265 247.5,272.5C 246.419,275.627 245.753,278.96 245.5,282.5C 242.941,282.802 240.607,282.468 238.5,281.5C 240.5,281.5 242.5,281.5 244.5,281.5C 244.963,278.518 245.296,275.518 245.5,272.5C 244.167,272.5 242.833,272.5 241.5,272.5C 241.585,275.649 240.585,278.316 238.5,280.5C 238.167,280.5 237.833,280.5 237.5,280.5C 239.06,278.046 240.06,275.38 240.5,272.5C 237.708,272.452 235.875,273.785 235,276.5C 234.508,275.451 234.674,274.451 235.5,273.5C 233.833,272.334 232.166,272.334 230.5,273.5C 229.545,271.29 228.045,270.957 226,272.5C 224.186,271.149 224.519,270.149 227,269.5C 228.303,267.06 229.47,264.56 230.5,262C 230.164,260.97 229.497,260.47 228.5,260.5C 228.5,260.167 228.5,259.833 228.5,259.5C 229.675,259.719 230.675,259.386 231.5,258.5C 232.348,256.591 232.682,254.591 232.5,252.5 Z"/></g>
<g><path style="opacity:1" fill="#c0e3f3" d="M 232.5,260.5 C 234.854,260.838 237.187,261.338 239.5,262C 238.826,265.212 237.492,268.045 235.5,270.5C 234.815,268.219 234.649,265.886 235,263.5C 234.069,265.459 233.236,267.459 232.5,269.5C 231.167,270.833 229.833,270.833 228.5,269.5C 230.122,266.592 231.456,263.592 232.5,260.5 Z"/></g>
<g><path style="opacity:1" fill="#bfe3f3" d="M 240.5,260.5 C 241.693,260.97 242.36,261.97 242.5,263.5C 241.905,266.14 241.572,268.807 241.5,271.5C 240.5,271.5 239.5,271.5 238.5,271.5C 239.008,267.803 239.674,264.136 240.5,260.5 Z"/></g>
<g><path style="opacity:1" fill="#c0e3f3" d="M 246.5,261.5 C 246.5,263.167 246.5,264.833 246.5,266.5C 246.803,269.588 245.47,271.254 242.5,271.5C 243.207,268.214 243.54,264.881 243.5,261.5C 244.5,261.5 245.5,261.5 246.5,261.5 Z"/></g>
<g><path style="opacity:1" fill="#c1e4f3" d="M 228.5,260.5 C 229.497,260.47 230.164,260.97 230.5,262C 229.47,264.56 228.303,267.06 227,269.5C 224.519,270.149 224.186,271.149 226,272.5C 228.045,270.957 229.545,271.29 230.5,273.5C 227.833,275.5 225.5,277.833 223.5,280.5C 219.399,280.966 215.399,280.966 211.5,280.5C 209.958,279.837 208.291,279.17 206.5,278.5C 210.411,277.142 214.077,275.308 217.5,273C 221.545,269.011 225.211,264.844 228.5,260.5 Z"/></g>
<g><path style="opacity:1" fill="#bee2f3" d="M 237.5,280.5 C 232.934,280.966 228.267,280.966 223.5,280.5C 226.833,279.167 229.167,276.833 230.5,273.5C 232.166,272.334 233.833,272.334 235.5,273.5C 234.674,274.451 234.508,275.451 235,276.5C 235.875,273.785 237.708,272.452 240.5,272.5C 240.06,275.38 239.06,278.046 237.5,280.5 Z"/></g>
<g><path style="opacity:1" fill="#bce2f3" d="M 238.5,281.5 C 238.5,281.167 238.5,280.833 238.5,280.5C 240.585,278.316 241.585,275.649 241.5,272.5C 242.833,272.5 244.167,272.5 245.5,272.5C 245.296,275.518 244.963,278.518 244.5,281.5C 242.5,281.5 240.5,281.5 238.5,281.5 Z"/></g>
<g><path style="opacity:1" fill="#bfe3f3" d="M 247.5,272.5 C 248.069,276.329 247.402,279.663 245.5,282.5C 245.753,278.96 246.419,275.627 247.5,272.5 Z"/></g>
<g><path style="opacity:1" fill="#e3f2f9" d="M 230.5,273.5 C 229.167,276.833 226.833,279.167 223.5,280.5C 225.5,277.833 227.833,275.5 230.5,273.5 Z"/></g>
<g><path style="opacity:1" fill="#f0f8fb" d="M 232.5,252.5 C 231.5,252.5 230.5,252.5 229.5,252.5C 229.007,254.806 228.674,257.139 228.5,259.5C 228.5,259.833 228.5,260.167 228.5,260.5C 225.211,264.844 221.545,269.011 217.5,273C 214.077,275.308 210.411,277.142 206.5,278.5C 208.291,279.17 209.958,279.837 211.5,280.5C 212.688,282.009 212.688,284.009 211.5,286.5C 211.672,287.492 211.338,288.158 210.5,288.5C 210.461,289.583 210.127,290.583 209.5,291.5C 214.307,293.478 217.641,292.145 219.5,287.5C 218.311,286.571 216.978,286.238 215.5,286.5C 218.652,285.761 221.985,285.761 225.5,286.5C 221.901,286.896 219.568,288.896 218.5,292.5C 221.645,293.995 224.478,293.662 227,291.5C 227.236,293.119 228.069,294.119 229.5,294.5C 231.265,295.461 233.265,295.795 235.5,295.5C 236.552,297.256 238.219,297.923 240.5,297.5C 240.918,298.222 241.584,298.722 242.5,299C 239.408,299.736 236.408,299.569 233.5,298.5C 232.551,297.848 231.385,297.514 230,297.5C 227.824,297.877 225.991,298.543 224.5,299.5C 224.5,300.5 224.5,301.5 224.5,302.5C 226.167,302.5 227.833,302.5 229.5,302.5C 229.5,302.833 229.5,303.167 229.5,303.5C 225.452,303.605 221.452,303.272 217.5,302.5C 219.369,301.835 221.369,301.169 223.5,300.5C 222.271,299.719 220.938,299.219 219.5,299C 226.167,298.333 226.167,297.667 219.5,297C 227.086,296.567 227.253,295.734 220,294.5C 217.435,294.843 216.601,296.01 217.5,298C 216.552,298.483 215.552,298.649 214.5,298.5C 214.5,299.5 214.5,300.5 214.5,301.5C 213.167,301.5 211.833,301.5 210.5,301.5C 205.007,301.084 199.674,299.918 194.5,298C 191.174,295.627 190.841,293.127 193.5,290.5C 195.17,287.998 197.336,285.998 200,284.5C 201.29,282.041 202.79,279.708 204.5,277.5C 218.348,273.66 226.014,264.66 227.5,250.5C 229.042,249.699 230.708,249.366 232.5,249.5C 232.5,250.5 232.5,251.5 232.5,252.5 Z"/></g>
<g><path style="opacity:1" fill="#bde2f3" d="M 210.5,288.5 C 206.477,292.161 202.144,292.328 197.5,289C 199.376,286.954 201.376,285.121 203.5,283.5C 205.782,284.223 208.116,284.557 210.5,284.5C 210.5,285.833 210.5,287.167 210.5,288.5 Z"/></g>
<g><path style="opacity:1" fill="#e5f3f9" d="M 243.5,286.5 C 242.5,286.5 241.5,286.5 240.5,286.5C 239.602,285.842 238.602,285.176 237.5,284.5C 239.765,283.353 242.098,283.186 244.5,284C 243.748,284.671 243.414,285.504 243.5,286.5 Z"/></g>
<g><path style="opacity:1" fill="#c8e7f5" d="M 284.5,281.5 C 286.137,282.38 287.97,283.046 290,283.5C 291.011,283.108 291.511,282.441 291.5,281.5C 292.5,282 293.5,282.5 294.5,283C 293.584,283.278 292.918,283.778 292.5,284.5C 287.788,286.155 282.788,286.988 277.5,287C 268.506,287.5 259.506,287.666 250.5,287.5C 250.5,285.833 250.5,284.167 250.5,282.5C 261.854,282.66 273.187,282.326 284.5,281.5 Z"/></g>
<g><path style="opacity:1" fill="#bde2f3" d="M 211.5,286.5 C 212.833,286.5 214.167,286.5 215.5,286.5C 216.978,286.238 218.311,286.571 219.5,287.5C 217.641,292.145 214.307,293.478 209.5,291.5C 210.127,290.583 210.461,289.583 210.5,288.5C 211.338,288.158 211.672,287.492 211.5,286.5 Z"/></g>
<g><path style="opacity:1" fill="#dff1f8" d="M 230.5,287.5 C 232.607,286.532 234.941,286.198 237.5,286.5C 236.612,289.054 236.279,291.721 236.5,294.5C 235.833,294.167 235.167,293.833 234.5,293.5C 235.15,291.565 235.483,289.565 235.5,287.5C 233.833,287.5 232.167,287.5 230.5,287.5 Z"/></g>
<g><path style="opacity:1" fill="#c0e3f3" d="M 225.5,286.5 C 227.216,286.629 228.883,286.962 230.5,287.5C 232.167,287.5 233.833,287.5 235.5,287.5C 235.483,289.565 235.15,291.565 234.5,293.5C 233.081,294.451 231.415,294.784 229.5,294.5C 228.069,294.119 227.236,293.119 227,291.5C 224.478,293.662 221.645,293.995 218.5,292.5C 219.568,288.896 221.901,286.896 225.5,286.5 Z"/></g>
<g><path style="opacity:1" fill="#bfe3f3" d="M 237.5,286.5 C 238.5,286.5 239.5,286.5 240.5,286.5C 241.5,286.5 242.5,286.5 243.5,286.5C 243.5,289.167 243.5,291.833 243.5,294.5C 241.167,294.5 238.833,294.5 236.5,294.5C 236.279,291.721 236.612,289.054 237.5,286.5 Z"/></g>
<g><path style="opacity:1" fill="#bce2f3" d="M 244.5,287.5 C 245.5,287.5 246.5,287.5 247.5,287.5C 247.5,289.833 247.5,292.167 247.5,294.5C 246.5,294.5 245.5,294.5 244.5,294.5C 244.5,292.167 244.5,289.833 244.5,287.5 Z"/></g>
<g><path style="opacity:1" fill="#c7e6f4" d="M 299.5,291.5 C 297.524,293.011 295.191,293.844 292.5,294C 286.023,294.862 279.689,295.695 273.5,296.5C 265.826,296.666 258.159,296.5 250.5,296C 266.915,295.292 283.248,293.792 299.5,291.5 Z"/></g>
<g><path style="opacity:1" fill="#cee9f6" d="M 193.5,290.5 C 195.132,291.446 196.799,292.446 198.5,293.5C 198.489,292.559 198.989,291.892 200,291.5C 205.487,292.72 210.987,293.887 216.5,295C 211.781,295.271 207.115,294.771 202.5,293.5C 199.937,293.737 199.937,294.237 202.5,295C 201.833,295.333 201.167,295.667 200.5,296C 203.375,296.895 203.708,297.728 201.5,298.5C 199.058,297.964 196.725,297.131 194.5,296C 193.304,295.346 193.304,294.846 194.5,294.5C 201.069,295.617 201.069,295.117 194.5,293C 193.748,292.329 193.414,291.496 193.5,290.5 Z"/></g>
<g><path style="opacity:1" fill="#daeef8" d="M 217.5,302.5 C 214.941,302.802 212.607,302.468 210.5,301.5C 211.833,301.5 213.167,301.5 214.5,301.5C 214.5,300.5 214.5,299.5 214.5,298.5C 215.552,298.649 216.552,298.483 217.5,298C 216.601,296.01 217.435,294.843 220,294.5C 227.253,295.734 227.086,296.567 219.5,297C 226.167,297.667 226.167,298.333 219.5,299C 220.938,299.219 222.271,299.719 223.5,300.5C 221.369,301.169 219.369,301.835 217.5,302.5 Z"/></g>
<g><path style="opacity:1" fill="#cfe9f6" d="M 244.5,295.5 C 245.675,295.281 246.675,295.614 247.5,296.5C 245.948,297.798 244.948,297.465 244.5,295.5 Z"/></g>
<g><path style="opacity:1" fill="#e6f3f9" d="M 300.5,290.5 C 301.484,294.465 302.484,294.465 303.5,290.5C 304.5,290.833 305.167,291.5 305.5,292.5C 304.221,294.146 302.555,295.313 300.5,296C 300.728,296.399 301.062,296.565 301.5,296.5C 301.158,297.338 300.492,297.672 299.5,297.5C 298.737,296.732 297.737,296.232 296.5,296C 297.5,295.667 298.5,295.333 299.5,295C 293.845,295.329 288.178,295.996 282.5,297C 284.833,297.333 287.167,297.667 289.5,298C 282.535,299.254 275.535,299.587 268.5,299C 272.167,298.667 275.833,298.333 279.5,298C 278.207,297.51 276.873,297.343 275.5,297.5C 275.158,296.662 274.492,296.328 273.5,296.5C 279.689,295.695 286.023,294.862 292.5,294C 295.191,293.844 297.524,293.011 299.5,291.5C 299.5,290.833 299.833,290.5 300.5,290.5 Z"/></g>
<g><path style="opacity:1" fill="#d5ecf6" d="M 235.5,295.5 C 238.247,295.187 240.914,295.52 243.5,296.5C 242.675,297.386 241.675,297.719 240.5,297.5C 238.219,297.923 236.552,297.256 235.5,295.5 Z"/></g>
<g><path style="opacity:1" fill="#c2e4f4" d="M 204.5,297.5 C 207.609,297.655 210.609,298.322 213.5,299.5C 211.926,300.631 210.259,300.798 208.5,300C 206.563,299.878 205.23,299.045 204.5,297.5 Z"/></g>
<g><path style="opacity:1" fill="#c9e7f5" d="M 299.5,297.5 C 283.325,300.76 266.991,301.927 250.5,301C 267.833,300.333 267.833,299.667 250.5,299C 258.802,297.947 267.135,297.447 275.5,297.5C 276.873,297.343 278.207,297.51 279.5,298C 275.833,298.333 272.167,298.667 268.5,299C 275.535,299.587 282.535,299.254 289.5,298C 287.167,297.667 284.833,297.333 282.5,297C 288.178,295.996 293.845,295.329 299.5,295C 298.5,295.333 297.5,295.667 296.5,296C 297.737,296.232 298.737,296.732 299.5,297.5 Z"/></g>
<g><path style="opacity:1" fill="#bfe3f3" d="M 234.5,300.5 C 245.167,301.167 245.167,301.833 234.5,302.5C 234.5,301.833 234.5,301.167 234.5,300.5 Z"/></g>
<g><path style="opacity:1" fill="#c3e4f4" d="M 243.5,300.5 C 244.978,300.238 246.311,300.571 247.5,301.5C 246.833,301.833 246.167,302.167 245.5,302.5C 244.287,302.253 243.62,301.586 243.5,300.5 Z"/></g>
<g><path style="opacity:1" fill="#d6edf7" d="M 233.5,298.5 C 231.969,299.925 232.302,300.591 234.5,300.5C 234.5,301.167 234.5,301.833 234.5,302.5C 232.833,302.5 231.167,302.5 229.5,302.5C 227.833,302.5 226.167,302.5 224.5,302.5C 224.5,301.5 224.5,300.5 224.5,299.5C 225.991,298.543 227.824,297.877 230,297.5C 231.385,297.514 232.551,297.848 233.5,298.5 Z"/></g>
<g><path style="opacity:1" fill="#cfeaf6" d="M 252.5,303.5 C 251.85,316.932 251.184,330.265 250.5,343.5C 249.852,329.791 250.519,316.458 252.5,303.5 Z"/></g>
<g><path style="opacity:1" fill="#f9fcfd" d="M 221.5,367.5 C 223.5,367.5 225.5,367.5 227.5,367.5C 230.704,377.112 233.704,386.779 236.5,396.5C 234.833,396.5 233.167,396.5 231.5,396.5C 231.335,394.173 230.669,392.007 229.5,390C 225.848,389.501 222.182,389.335 218.5,389.5C 218.007,391.806 217.674,394.139 217.5,396.5C 215.396,396.799 213.396,396.466 211.5,395.5C 215.038,386.219 218.371,376.886 221.5,367.5 Z"/></g>
<g><path style="opacity:1" fill="#dff0f8" d="M 259.5,368.5 C 254.167,368.5 248.833,368.5 243.5,368.5C 243.5,377.833 243.5,387.167 243.5,396.5C 242.506,387.014 242.173,377.348 242.5,367.5C 248.358,367.178 254.025,367.511 259.5,368.5 Z"/></g>
<g><path style="opacity:1" fill="#fafcfd" d="M 259.5,368.5 C 259.5,369.833 259.5,371.167 259.5,372.5C 255.833,372.5 252.167,372.5 248.5,372.5C 248.5,380.5 248.5,388.5 248.5,396.5C 246.833,396.5 245.167,396.5 243.5,396.5C 243.5,387.167 243.5,377.833 243.5,368.5C 248.833,368.5 254.167,368.5 259.5,368.5 Z"/></g>
<g><path style="opacity:1" fill="#f9fcfd" d="M 262.5,367.5 C 264.5,367.5 266.5,367.5 268.5,367.5C 270.27,373.044 272.603,378.377 275.5,383.5C 277.33,378.505 279.163,373.505 281,368.5C 282.814,367.24 284.647,367.24 286.5,368.5C 283.277,377.28 279.777,385.946 276,394.5C 272.826,396.621 269.493,396.954 266,395.5C 265.508,394.451 265.674,393.451 266.5,392.5C 268.021,392.12 269.687,391.954 271.5,392C 272.167,391.333 272.833,390.667 273.5,390C 269.422,382.678 265.755,375.178 262.5,367.5 Z"/></g>
<g><path style="opacity:1" fill="#c1e4f3" d="M 223.5,373.5 C 224.117,373.611 224.617,373.944 225,374.5C 225.943,377.824 226.776,381.157 227.5,384.5C 225.5,384.5 223.5,384.5 221.5,384.5C 222.167,380.833 222.833,377.167 223.5,373.5 Z"/></g>
<g><path style="opacity:1" fill="#f6fafc" d="M 198.5,384.5 C 204.488,384.664 205.821,387.164 202.5,392C 200.888,392.72 199.388,392.554 198,391.5C 197.297,389.071 197.463,386.738 198.5,384.5 Z"/></g>
<g><path style="opacity:1" fill="#f9fcfd" d="M 296.5,384.5 C 299.352,384.352 301.019,385.686 301.5,388.5C 299.167,393.833 296.833,393.833 294.5,388.5C 294.752,386.927 295.418,385.594 296.5,384.5 Z"/></g>
</svg>
