<?xml version="1.0" encoding="UTF-8"?>
<!DOCTYPE svg PUBLIC "-//W3C//DTD SVG 1.1//EN" "http://www.w3.org/Graphics/SVG/1.1/DTD/svg11.dtd">
<svg xmlns="http://www.w3.org/2000/svg" version="1.1" width="500px" height="500px" style="shape-rendering:geometricPrecision; text-rendering:geometricPrecision; image-rendering:optimizeQuality; fill-rule:evenodd; clip-rule:evenodd" xmlns:xlink="http://www.w3.org/1999/xlink">
<g><path style="opacity:0.997" fill="#2e94d2" d="M 104.5,-0.5 C 125.5,-0.5 146.5,-0.5 167.5,-0.5C 186.966,0.198725 205.632,4.69872 223.5,13C 240.119,23.386 251.619,37.886 258,56.5C 257.99,50.4282 257.157,44.4282 255.5,38.5C 264.592,23.2719 277.592,12.7719 294.5,7C 308.56,3.11739 322.893,1.11739 337.5,1C 367.669,0.832363 397.669,0.332363 427.5,-0.5C 434.5,-0.5 441.5,-0.5 448.5,-0.5C 447.661,103.163 447.494,206.83 448,310.5C 440.361,392.68 399.194,450.846 324.5,485C 305.965,492.217 286.965,497.05 267.5,499.5C 254.5,499.5 241.5,499.5 228.5,499.5C 148.601,488.303 92.7676,445.636 61,371.5C 52.6811,348.905 48.3477,325.572 48,301.5C 47.5,201.167 47.3333,100.834 47.5,0.5C 66.674,0.830293 85.674,0.49696 104.5,-0.5 Z"/></g>
<g><path style="opacity:1" fill="#f8fafc" d="M 254.5,104.5 C 252.833,104.5 251.167,104.5 249.5,104.5C 249.5,118.167 249.5,131.833 249.5,145.5C 258.167,145.5 266.833,145.5 275.5,145.5C 306.682,145.992 337.682,148.492 368.5,153C 382.002,154.958 395.002,158.625 407.5,164C 409.996,165.331 411.996,167.164 413.5,169.5C 397.623,164.074 381.29,160.574 364.5,159C 326.241,155.253 287.908,153.753 249.5,154.5C 282.193,155.425 314.859,156.925 347.5,159C 361.903,160.489 376.237,162.489 390.5,165C 398.515,166.086 406.182,168.253 413.5,171.5C 416.267,172.638 416.934,174.472 415.5,177C 410.262,180.247 404.595,182.413 398.5,183.5C 393.642,182.404 389.309,180.238 385.5,177C 383.26,176.023 380.927,175.523 378.5,175.5C 366.899,171.935 354.899,169.935 342.5,169.5C 311.742,165.988 280.742,164.822 249.5,166C 272.167,167 294.833,168 317.5,169C 294.839,168.652 272.173,168.652 249.5,169C 269.155,170.142 288.822,170.976 308.5,171.5C 330.663,172.144 352.663,174.31 374.5,178C 382.101,179.139 389.101,181.639 395.5,185.5C 395.5,186.167 395.5,186.833 395.5,187.5C 393.906,187.08 392.406,186.414 391,185.5C 387.761,186.902 384.928,188.902 382.5,191.5C 382.167,191.333 381.833,191.167 381.5,191C 385.953,186.365 385.12,183.198 379,181.5C 374.504,182.825 371.004,185.492 368.5,189.5C 366.343,188.947 366.51,187.947 369,186.5C 370.055,179.435 367.222,177.268 360.5,180C 363.095,180.226 365.595,180.726 368,181.5C 368.667,182.833 368.667,184.167 368,185.5C 357.886,194.977 346.053,201.477 332.5,205C 326.972,207.04 321.305,208.04 315.5,208C 327.639,204.735 338.972,199.735 349.5,193C 352.597,190.609 354.763,187.776 356,184.5C 353.609,187.597 350.776,189.763 347.5,191C 350.04,188.795 352.207,186.295 354,183.5C 354.443,177.96 351.943,176.127 346.5,178C 344.249,178.748 342.916,180.248 342.5,182.5C 341.542,182.953 340.708,183.619 340,184.5C 340.611,182.038 340.445,179.704 339.5,177.5C 337.989,175.559 335.989,175.059 333.5,176C 331.249,176.748 329.916,178.248 329.5,180.5C 328.883,180.611 328.383,180.944 328,181.5C 327.79,179.942 327.29,178.609 326.5,177.5C 324.554,174.186 321.887,173.686 318.5,176C 315.928,178.313 314.261,181.146 313.5,184.5C 312.206,185.29 311.039,186.29 310,187.5C 309.536,186.906 309.369,186.239 309.5,185.5C 300.321,195.415 289.321,202.248 276.5,206C 287.016,200.65 295.016,192.817 300.5,182.5C 299.115,183.574 297.949,184.907 297,186.5C 298.254,183.02 298.587,179.353 298,175.5C 295.05,172.855 292.217,172.855 289.5,175.5C 293.749,173.382 296.416,174.549 297.5,179C 296.168,184.165 293.668,188.665 290,192.5C 283.235,199.288 275.402,204.121 266.5,207C 273.246,202.272 278.413,196.439 282,189.5C 281.346,190.696 280.846,190.696 280.5,189.5C 282.628,186.117 283.961,182.45 284.5,178.5C 284.523,176.933 284.023,175.6 283,174.5C 281.65,188.814 274.483,199.481 261.5,206.5C 261.167,206.333 260.833,206.167 260.5,206C 262.329,204.887 263.163,203.387 263,201.5C 260.167,204.333 257.333,207.167 254.5,210C 256.32,209.524 257.987,209.691 259.5,210.5C 256.398,211.255 253.398,211.589 250.5,211.5C 252.094,210.017 253.76,208.517 255.5,207C 254.692,206.692 254.025,206.192 253.5,205.5C 256.122,195.646 257.955,185.646 259,175.5C 261.228,173.887 263.728,173.22 266.5,173.5C 262.534,171.697 259.367,172.697 257,176.5C 256.333,182.5 255.667,188.5 255,194.5C 253.638,201.403 251.804,208.07 249.5,214.5C 254.5,214.5 259.5,214.5 264.5,214.5C 270.011,214.205 275.344,215.038 280.5,217C 283.468,219.178 283.135,220.344 279.5,220.5C 269.659,219.177 259.659,219.177 249.5,220.5C 257.472,221.498 265.472,221.831 273.5,221.5C 276.187,221.336 278.854,221.503 281.5,222C 276.756,222.762 273.09,225.095 270.5,229C 306.165,229.5 341.832,229.667 377.5,229.5C 377.34,227.801 377.506,226.134 378,224.5C 383.429,226.796 388.929,228.963 394.5,231C 389.053,233.723 383.386,235.89 377.5,237.5C 377.5,235.833 377.5,234.167 377.5,232.5C 341.161,232.167 304.827,232.5 268.5,233.5C 267.607,236.084 267.274,238.751 267.5,241.5C 243.537,241.503 243.537,242.17 267.5,243.5C 261.528,244.33 255.528,244.83 249.5,245C 255.196,245.17 260.862,245.67 266.5,246.5C 266.376,247.107 266.043,247.44 265.5,247.5C 260.125,247.172 254.792,247.505 249.5,248.5C 254.886,249.782 260.219,249.782 265.5,248.5C 266.675,248.281 267.675,248.614 268.5,249.5C 243.202,250.831 243.202,251.497 268.5,251.5C 269.229,260.454 273.229,267.621 280.5,273C 284.259,274.879 287.925,276.713 291.5,278.5C 277.659,280.746 263.659,281.746 249.5,281.5C 249.5,283.167 249.5,284.833 249.5,286.5C 261.194,286.651 272.861,286.151 284.5,285C 287.797,284.796 290.797,283.963 293.5,282.5C 295.417,283.909 297.25,285.576 299,287.5C 299.692,288.437 299.525,289.103 298.5,289.5C 282.369,292.619 266.036,294.452 249.5,295C 262.527,294.829 271.527,294.996 276.5,295.5C 274.901,295.232 273.568,295.566 272.5,296.5C 264.833,296.5 257.167,296.5 249.5,296.5C 249.5,297.833 249.5,299.167 249.5,300.5C 254.833,300.5 260.167,300.5 265.5,300.5C 268.059,300.198 270.393,300.532 272.5,301.5C 264.854,302.207 257.187,302.54 249.5,302.5C 249.5,315.5 249.5,328.5 249.5,341.5C 248.5,341.5 247.5,341.5 246.5,341.5C 246.5,328.5 246.5,315.5 246.5,302.5C 244.167,302.5 241.833,302.5 239.5,302.5C 241.607,301.532 243.941,301.198 246.5,301.5C 246.5,299.167 246.5,296.833 246.5,294.5C 242.445,294.176 238.445,294.509 234.5,295.5C 234.121,297.213 233.121,298.213 231.5,298.5C 228.753,298.187 226.086,298.52 223.5,299.5C 223.624,300.107 223.957,300.44 224.5,300.5C 224.5,301.167 224.167,301.5 223.5,301.5C 218.507,301.084 213.507,300.751 208.5,300.5C 209.209,299.596 210.209,299.263 211.5,299.5C 212.338,299.158 212.672,298.492 212.5,297.5C 213.598,296.603 213.598,295.77 212.5,295C 213.5,294.667 214.5,294.333 215.5,294C 213.389,293.155 211.389,292.322 209.5,291.5C 212.059,291.802 214.393,291.468 216.5,290.5C 216.833,290.5 217.167,290.5 217.5,290.5C 219.988,292.388 222.988,293.055 226.5,292.5C 223.359,293.321 220.025,293.821 216.5,294C 218.878,294.974 218.544,295.641 215.5,296C 216.5,296.333 217.5,296.667 218.5,297C 216.744,297.202 215.078,297.702 213.5,298.5C 216.398,300.284 219.398,300.618 222.5,299.5C 219.924,298.117 220.258,297.283 223.5,297C 223.167,296.667 222.833,296.333 222.5,296C 226.152,295.501 229.818,295.335 233.5,295.5C 233.5,294.5 233.5,293.5 233.5,292.5C 234.219,290.236 234.552,287.903 234.5,285.5C 232.167,285.5 229.833,285.5 227.5,285.5C 227.119,284.069 226.119,283.236 224.5,283C 225.833,282.667 227.167,282.333 228.5,282C 225.901,281.231 223.401,281.398 221,282.5C 220.517,281.552 220.351,280.552 220.5,279.5C 223.43,280.299 226.43,280.632 229.5,280.5C 231.193,282.766 233.36,283.1 236,281.5C 236.483,282.448 236.649,283.448 236.5,284.5C 238.5,284.5 240.5,284.5 242.5,284.5C 243.004,280.665 244.004,280.665 245.5,284.5C 246.496,278.202 246.83,271.868 246.5,265.5C 246.819,260.637 246.486,255.97 245.5,251.5C 243.952,251.821 243.285,252.821 243.5,254.5C 243.167,254.5 242.833,254.5 242.5,254.5C 242.715,252.821 242.048,251.821 240.5,251.5C 240.167,251.5 239.833,251.5 239.5,251.5C 238.5,251.5 237.5,251.5 236.5,251.5C 236.5,252.833 236.5,254.167 236.5,255.5C 236.167,255.5 235.833,255.5 235.5,255.5C 235.843,253.517 235.176,252.183 233.5,251.5C 232.833,251.5 232.167,251.5 231.5,251.5C 231.64,249.876 230.973,248.71 229.5,248C 232.817,247.502 236.15,247.335 239.5,247.5C 239.5,246.5 239.5,245.5 239.5,244.5C 243.422,243.883 243.422,243.216 239.5,242.5C 238.006,242.709 236.839,243.376 236,244.5C 235.275,242.842 234.108,242.342 232.5,243C 233.791,246.025 233.124,246.359 230.5,244C 231.078,242.583 232.078,241.75 233.5,241.5C 234.167,241.5 234.833,241.5 235.5,241.5C 236.167,241.5 236.833,241.5 237.5,241.5C 238.167,241.5 238.833,241.5 239.5,241.5C 239.833,241.5 240.167,241.5 240.5,241.5C 241.167,241.5 241.833,241.5 242.5,241.5C 242.833,241.5 243.167,241.5 243.5,241.5C 245.308,240.082 245.975,238.082 245.5,235.5C 245.5,235.167 245.5,234.833 245.5,234.5C 245.5,231.5 245.5,228.5 245.5,225.5C 243.833,225.5 242.167,225.5 240.5,225.5C 240.5,225.167 240.5,224.833 240.5,224.5C 242.19,224.242 244.19,224.242 246.5,224.5C 246.5,223.167 246.5,221.833 246.5,220.5C 244.833,220.5 243.167,220.5 241.5,220.5C 241.5,220.167 241.5,219.833 241.5,219.5C 243.201,219.034 244.701,219.034 246,219.5C 246.667,217.833 246.667,216.167 246,214.5C 243.861,214.543 241.694,214.877 239.5,215.5C 236.334,215.166 233,215.166 229.5,215.5C 229.5,214.833 229.167,214.5 228.5,214.5C 226.784,214.629 225.117,214.962 223.5,215.5C 222.833,215.5 222.167,215.5 221.5,215.5C 218.01,215.245 215.343,216.578 213.5,219.5C 215.636,220.793 217.636,220.793 219.5,219.5C 220.71,219.932 221.71,220.599 222.5,221.5C 220.066,221.648 217.399,221.814 214.5,222C 217.208,223.069 219.875,224.236 222.5,225.5C 223.298,225.957 223.631,226.624 223.5,227.5C 219.744,226.026 216.077,224.359 212.5,222.5C 211.49,219.974 212.157,217.808 214.5,216C 209.177,215.501 203.844,215.334 198.5,215.5C 206.167,214.833 213.833,214.167 221.5,213.5C 220.708,212.482 219.041,212.149 216.5,212.5C 217.167,211.833 217.833,211.167 218.5,210.5C 220.833,210.5 223.167,210.5 225.5,210.5C 228.625,211.479 231.958,211.813 235.5,211.5C 239.263,210.913 242.929,210.913 246.5,211.5C 246.5,208.167 246.5,204.833 246.5,201.5C 246.5,201.167 246.5,200.833 246.5,200.5C 246.5,197.833 246.5,195.167 246.5,192.5C 246.5,191.833 246.5,191.167 246.5,190.5C 246.5,183.833 246.5,177.167 246.5,170.5C 240.642,170.178 234.975,170.511 229.5,171.5C 229.167,171.5 228.833,171.5 228.5,171.5C 228.5,170.833 228.5,170.167 228.5,169.5C 228.833,169.5 229.167,169.5 229.5,169.5C 235.206,169.829 240.872,169.495 246.5,168.5C 244.257,167.526 241.924,167.192 239.5,167.5C 239.5,167.167 239.5,166.833 239.5,166.5C 241.833,166.5 244.167,166.5 246.5,166.5C 246.5,164.833 246.5,163.167 246.5,161.5C 246.5,160.833 246.5,160.167 246.5,159.5C 246.5,158.5 246.5,157.5 246.5,156.5C 239.382,155.895 232.548,156.562 226,158.5C 220.464,156.575 214.631,155.908 208.5,156.5C 205.615,156.806 202.948,156.473 200.5,155.5C 205.167,155.5 209.833,155.5 214.5,155.5C 225.346,155.828 236.013,155.494 246.5,154.5C 246.5,151.833 246.5,149.167 246.5,146.5C 240.491,146.334 234.491,146.501 228.5,147C 227.956,147.717 227.289,148.217 226.5,148.5C 225.306,147.223 223.64,146.556 221.5,146.5C 213.098,147.028 204.765,147.695 196.5,148.5C 195.005,148.011 193.671,147.345 192.5,146.5C 204.807,145.605 217.141,145.272 229.5,145.5C 235.167,145.5 240.833,145.5 246.5,145.5C 246.5,131.833 246.5,118.167 246.5,104.5C 244.585,104.784 242.919,104.451 241.5,103.5C 243.365,97.7398 245.532,92.0731 248,86.5C 250.272,92.4854 252.439,98.4854 254.5,104.5 Z"/></g>
<g><path style="opacity:1" fill="#5fabdc" d="M 241.5,103.5 C 242.919,104.451 244.585,104.784 246.5,104.5C 246.5,118.167 246.5,131.833 246.5,145.5C 240.833,145.5 235.167,145.5 229.5,145.5C 234.64,144.512 239.974,144.179 245.5,144.5C 245.5,131.5 245.5,118.5 245.5,105.5C 243.712,105.785 242.045,105.452 240.5,104.5C 240.624,103.893 240.957,103.56 241.5,103.5 Z"/></g>
<g><path style="opacity:1" fill="#63addc" d="M 254.5,104.5 C 253.432,105.434 252.099,105.768 250.5,105.5C 250.5,118.5 250.5,131.5 250.5,144.5C 259.017,144.174 267.35,144.507 275.5,145.5C 266.833,145.5 258.167,145.5 249.5,145.5C 249.5,131.833 249.5,118.167 249.5,104.5C 251.167,104.5 252.833,104.5 254.5,104.5 Z"/></g>
<g><path style="opacity:1" fill="#3295d2" d="M 226.5,148.5 C 225.262,150.214 224.595,152.214 224.5,154.5C 220.958,154.187 217.625,154.521 214.5,155.5C 209.833,155.5 205.167,155.5 200.5,155.5C 197.833,155.5 195.167,155.5 192.5,155.5C 192.5,154.167 192.5,152.833 192.5,151.5C 193.872,150.488 195.205,149.488 196.5,148.5C 204.765,147.695 213.098,147.028 221.5,146.5C 223.64,146.556 225.306,147.223 226.5,148.5 Z"/></g>
<g><path style="opacity:1" fill="#2f94d2" d="M 246.5,154.5 C 239.492,154.666 232.492,154.5 225.5,154C 226.406,152.301 226.739,150.467 226.5,148.5C 227.289,148.217 227.956,147.717 228.5,147C 234.491,146.501 240.491,146.334 246.5,146.5C 246.5,149.167 246.5,151.833 246.5,154.5 Z"/></g>
<g><path style="opacity:1" fill="#92c7e7" d="M 226.5,148.5 C 226.739,150.467 226.406,152.301 225.5,154C 232.492,154.5 239.492,154.666 246.5,154.5C 236.013,155.494 225.346,155.828 214.5,155.5C 217.625,154.521 220.958,154.187 224.5,154.5C 224.595,152.214 225.262,150.214 226.5,148.5 Z"/></g>
<g><path style="opacity:1" fill="#b5d8ee" d="M 246.5,159.5 C 246.5,160.167 246.5,160.833 246.5,161.5C 240.463,161.171 234.463,161.504 228.5,162.5C 229.246,163.736 229.579,165.07 229.5,166.5C 232.833,166.5 236.167,166.5 239.5,166.5C 239.5,166.833 239.5,167.167 239.5,167.5C 235.878,167.322 232.544,167.989 229.5,169.5C 229.167,169.5 228.833,169.5 228.5,169.5C 222.355,168.51 216.022,168.177 209.5,168.5C 207.735,167.539 205.735,167.205 203.5,167.5C 211.676,166.833 220.01,166.167 228.5,165.5C 227.754,164.264 227.421,162.93 227.5,161.5C 218.494,161.666 209.494,161.5 200.5,161C 215.83,160.321 231.163,159.821 246.5,159.5 Z"/></g>
<g><path style="opacity:1" fill="#6fb2de" d="M 413.5,169.5 C 414.506,169.938 414.506,170.604 413.5,171.5C 406.182,168.253 398.515,166.086 390.5,165C 376.237,162.489 361.903,160.489 347.5,159C 314.859,156.925 282.193,155.425 249.5,154.5C 287.908,153.753 326.241,155.253 364.5,159C 381.29,160.574 397.623,164.074 413.5,169.5 Z"/></g>
<g><path style="opacity:1" fill="#3295d2" d="M 208.5,156.5 C 214.631,155.908 220.464,156.575 226,158.5C 232.548,156.562 239.382,155.895 246.5,156.5C 246.5,157.5 246.5,158.5 246.5,159.5C 231.163,159.821 215.83,160.321 200.5,161C 209.494,161.5 218.494,161.666 227.5,161.5C 227.421,162.93 227.754,164.264 228.5,165.5C 220.01,166.167 211.676,166.833 203.5,167.5C 201.114,166.627 199.114,165.127 197.5,163C 198.167,162.667 198.833,162.333 199.5,162C 196.596,161.867 194.262,160.7 192.5,158.5C 197.833,157.833 203.167,157.167 208.5,156.5 Z"/></g>
<g><path style="opacity:1" fill="#2e94d2" d="M 246.5,161.5 C 246.5,163.167 246.5,164.833 246.5,166.5C 244.167,166.5 241.833,166.5 239.5,166.5C 236.167,166.5 232.833,166.5 229.5,166.5C 229.579,165.07 229.246,163.736 228.5,162.5C 234.463,161.504 240.463,161.171 246.5,161.5 Z"/></g>
<g><path style="opacity:1" fill="#7cb8e1" d="M 342.5,169.5 C 340.265,169.205 338.265,169.539 336.5,170.5C 330.349,169.336 324.349,169.336 318.5,170.5C 314.958,170.187 311.625,170.521 308.5,171.5C 288.822,170.976 269.155,170.142 249.5,169C 272.173,168.652 294.839,168.652 317.5,169C 294.833,168 272.167,167 249.5,166C 280.742,164.822 311.742,165.988 342.5,169.5 Z"/></g>
<g><path style="opacity:1" fill="#449dd6" d="M 239.5,167.5 C 241.924,167.192 244.257,167.526 246.5,168.5C 240.872,169.495 235.206,169.829 229.5,169.5C 232.544,167.989 235.878,167.322 239.5,167.5 Z"/></g>
<g><path style="opacity:1" fill="#90c2e5" d="M 209.5,168.5 C 216.022,168.177 222.355,168.51 228.5,169.5C 228.5,170.167 228.5,170.833 228.5,171.5C 224.167,171.5 219.833,171.5 215.5,171.5C 210.983,170.834 206.317,170.167 201.5,169.5C 204.086,168.52 206.753,168.187 209.5,168.5 Z"/></g>
<g><path style="opacity:1" fill="#4fa2d8" d="M 336.5,170.5 C 338.265,169.539 340.265,169.205 342.5,169.5C 354.899,169.935 366.899,171.935 378.5,175.5C 364.568,173.272 350.568,171.605 336.5,170.5 Z"/></g>
<g><path style="opacity:1" fill="#3195d2" d="M 215.5,171.5 C 219.833,171.5 224.167,171.5 228.5,171.5C 228.5,174.5 228.5,177.5 228.5,180.5C 219.475,180.832 210.475,180.498 201.5,179.5C 201.137,178.817 200.804,178.15 200.5,177.5C 200.5,175.5 200.5,173.5 200.5,171.5C 205.5,171.5 210.5,171.5 215.5,171.5 Z"/></g>
<g><path style="opacity:1" fill="#d9ebf6" d="M 318.5,170.5 C 324.349,169.336 330.349,169.336 336.5,170.5C 350.568,171.605 364.568,173.272 378.5,175.5C 378.918,176.222 379.584,176.722 380.5,177C 359.994,173.855 339.328,171.688 318.5,170.5 Z"/></g>
<g><path style="opacity:1" fill="#3396d2" d="M 199.5,177.5 C 199.5,178.5 199.5,179.5 199.5,180.5C 190.624,181.765 181.79,181.765 173,180.5C 167.609,182.111 162.109,183.111 156.5,183.5C 153.482,183.665 150.482,183.498 147.5,183C 146.446,180.618 145.779,178.118 145.5,175.5C 154.133,174.437 162.799,173.77 171.5,173.5C 171.34,175.199 171.506,176.866 172,178.5C 172.495,176.527 172.662,174.527 172.5,172.5C 181.528,172.68 190.528,172.347 199.5,171.5C 199.5,173.5 199.5,175.5 199.5,177.5 Z"/></g>
<g><path style="opacity:1" fill="#58a6d9" d="M 308.5,171.5 C 311.625,170.521 314.958,170.187 318.5,170.5C 339.328,171.688 359.994,173.855 380.5,177C 379.584,176.722 378.918,176.222 378.5,175.5C 380.927,175.523 383.26,176.023 385.5,177C 389.309,180.238 393.642,182.404 398.5,183.5C 397.5,184.167 396.5,184.833 395.5,185.5C 389.101,181.639 382.101,179.139 374.5,178C 352.663,174.31 330.663,172.144 308.5,171.5 Z"/></g>
<g><path style="opacity:1" fill="#83bde3" d="M 326.5,177.5 C 324.262,176.463 321.929,176.297 319.5,177C 317.361,179.478 315.361,181.978 313.5,184.5C 314.261,181.146 315.928,178.313 318.5,176C 321.887,173.686 324.554,174.186 326.5,177.5 Z"/></g>
<g><path style="opacity:1" fill="#f8fafc" d="M 326.5,177.5 C 326.327,180.179 325.327,182.513 323.5,184.5C 323.846,185.696 324.346,185.696 325,184.5C 325.464,185.094 325.631,185.761 325.5,186.5C 324.206,187.29 323.039,188.29 322,189.5C 321.667,188.833 321.333,188.167 321,187.5C 312.331,194.912 302.831,200.912 292.5,205.5C 290.784,205.629 289.117,205.962 287.5,206.5C 292.658,202.863 297.991,199.363 303.5,196C 307.429,192.612 310.762,188.778 313.5,184.5C 315.361,181.978 317.361,179.478 319.5,177C 321.929,176.297 324.262,176.463 326.5,177.5 Z"/></g>
<g><path style="opacity:1" fill="#f9fbfc" d="M 339.5,177.5 C 339.453,180.928 338.287,183.928 336,186.5C 329.877,191.805 323.377,196.472 316.5,200.5C 310.294,202.902 303.961,204.902 297.5,206.5C 307.572,201.936 316.739,195.936 325,188.5C 325.464,187.906 325.631,187.239 325.5,186.5C 327.326,184.853 328.66,182.853 329.5,180.5C 332.193,177.143 335.526,176.143 339.5,177.5 Z"/></g>
<g><path style="opacity:1" fill="#7fbbe2" d="M 300.5,182.5 C 300.504,180.158 301.337,178.158 303,176.5C 303.008,178.821 302.175,180.821 300.5,182.5 Z"/></g>
<g><path style="opacity:1" fill="#87bfe4" d="M 339.5,177.5 C 335.526,176.143 332.193,177.143 329.5,180.5C 329.916,178.248 331.249,176.748 333.5,176C 335.989,175.059 337.989,175.559 339.5,177.5 Z"/></g>
<g><path style="opacity:1" fill="#f9fbfd" d="M 312.5,204.5 C 312.833,204.5 313.167,204.5 313.5,204.5C 321.293,201.104 328.627,196.938 335.5,192C 338.848,189.499 341.182,186.332 342.5,182.5C 344.354,180.404 346.687,179.071 349.5,178.5C 351.739,178.574 352.739,179.741 352.5,182C 349.548,187.619 345.215,191.952 339.5,195C 340.549,195.492 341.549,195.326 342.5,194.5C 343.696,194.846 343.696,195.346 342.5,196C 340.833,196.833 339.167,197.667 337.5,198.5C 337.167,197.833 336.833,197.167 336.5,196.5C 328.818,201.054 320.818,203.72 312.5,204.5 Z"/></g>
<g><path style="opacity:1" fill="#3596d3" d="M 119.5,179.5 C 119.756,181.937 120.423,184.271 121.5,186.5C 117.161,188.327 112.828,189.994 108.5,191.5C 104.055,192.387 102.555,190.387 104,185.5C 108.573,182.03 113.74,180.03 119.5,179.5 Z"/></g>
<g><path style="opacity:1" fill="#99c8e8" d="M 326.5,177.5 C 327.29,178.609 327.79,179.942 328,181.5C 328.383,180.944 328.883,180.611 329.5,180.5C 328.66,182.853 327.326,184.853 325.5,186.5C 325.631,185.761 325.464,185.094 325,184.5C 324.346,185.696 323.846,185.696 323.5,184.5C 325.327,182.513 326.327,180.179 326.5,177.5 Z"/></g>
<g><path style="opacity:1" fill="#3696d3" d="M 246.5,190.5 C 241.5,190.5 236.5,190.5 231.5,190.5C 230.253,184.273 229.586,177.94 229.5,171.5C 234.975,170.511 240.642,170.178 246.5,170.5C 246.5,177.167 246.5,183.833 246.5,190.5 Z"/></g>
<g><path style="opacity:1" fill="#96c7e7" d="M 309.5,185.5 C 311.097,182.681 311.597,179.681 311,176.5C 308.931,175.736 306.764,175.236 304.5,175C 308.149,172.789 310.982,173.622 313,177.5C 313.204,180.76 312.037,183.427 309.5,185.5 Z"/></g>
<g><path style="opacity:1" fill="#f8fbfc" d="M 351.5,204.5 C 344.859,205.962 338.192,207.295 331.5,208.5C 330.833,208.5 330.5,208.167 330.5,207.5C 339.82,205.761 349.487,202.261 359.5,197C 362.94,194.958 365.94,192.458 368.5,189.5C 371.839,187.007 375.339,184.674 379,182.5C 381.164,182.666 382.331,183.833 382.5,186C 382.01,188.503 380.677,190.503 378.5,192C 370.091,197.627 361.091,201.794 351.5,204.5 Z"/></g>
<g><path style="opacity:1" fill="#93c6e6" d="M 266.5,173.5 C 268.405,174.464 269.405,176.131 269.5,178.5C 268.822,181.544 267.989,184.544 267,187.5C 267.619,182.785 267.453,178.119 266.5,173.5 Z"/></g>
<g><path style="opacity:1" fill="#8dc3e5" d="M 252.5,176.5 C 253.254,185.122 252.42,193.788 250,202.5C 250.686,193.853 251.52,185.186 252.5,176.5 Z"/></g>
<g><path style="opacity:1" fill="#82bce2" d="M 273.5,174.5 C 273.402,182.979 270.902,190.979 266,198.5C 269.176,190.8 271.676,182.8 273.5,174.5 Z"/></g>
<g><path style="opacity:1" fill="#3596d3" d="M 207.5,197.5 C 207.511,199.017 208.177,200.184 209.5,201C 201.274,202.063 193.274,201.563 185.5,199.5C 184.04,197.537 182.373,195.704 180.5,194C 183.833,193.667 187.167,193.333 190.5,193C 186.247,192.8 182.08,192.3 178,191.5C 176.644,192.38 175.144,192.714 173.5,192.5C 166.611,193.641 159.777,193.641 153,192.5C 151.991,193.658 150.658,194.325 149,194.5C 143.988,195.094 138.988,195.761 134,196.5C 132.188,196.507 130.688,195.84 129.5,194.5C 129.167,194.667 128.833,194.833 128.5,195C 129.381,195.708 130.047,196.542 130.5,197.5C 125.446,197.596 120.779,198.929 116.5,201.5C 113.249,199.625 110.082,197.625 107,195.5C 106.415,194.002 106.915,193.002 108.5,192.5C 112.758,191.017 117.091,189.684 121.5,188.5C 122.814,189.313 123.981,190.313 125,191.5C 124.852,190.175 125.018,189.008 125.5,188C 130.988,187.226 136.321,186.393 141.5,185.5C 144.079,185.083 146.246,185.75 148,187.5C 148.5,186.333 149.333,185.5 150.5,185C 153.146,184.503 155.813,184.336 158.5,184.5C 163.463,183.746 168.463,183.413 173.5,183.5C 173.504,185.842 174.337,187.842 176,189.5C 176.14,187.744 175.64,186.078 174.5,184.5C 176.423,183.692 178.423,183.192 180.5,183C 196.225,182.405 212.225,182.072 228.5,182C 229.833,185 229.833,188 228.5,191C 220.254,191.815 212.088,191.648 204,190.5C 201.26,191.282 198.426,191.782 195.5,192C 198.553,192.179 201.553,192.679 204.5,193.5C 205.035,195.261 206.035,196.594 207.5,197.5 Z"/></g>
<g><path style="opacity:1" fill="#acd3ec" d="M 228.5,171.5 C 228.833,171.5 229.167,171.5 229.5,171.5C 229.586,177.94 230.253,184.273 231.5,190.5C 231.5,191.167 231.5,191.833 231.5,192.5C 232.15,194.435 232.483,196.435 232.5,198.5C 231.262,196.786 230.595,194.786 230.5,192.5C 222.16,192.334 213.827,192.5 205.5,193C 206.582,194.33 207.249,195.83 207.5,197.5C 206.035,196.594 205.035,195.261 204.5,193.5C 201.553,192.679 198.553,192.179 195.5,192C 198.426,191.782 201.26,191.282 204,190.5C 212.088,191.648 220.254,191.815 228.5,191C 229.833,188 229.833,185 228.5,182C 212.225,182.072 196.225,182.405 180.5,183C 178.423,183.192 176.423,183.692 174.5,184.5C 175.64,186.078 176.14,187.744 176,189.5C 174.337,187.842 173.504,185.842 173.5,183.5C 168.463,183.413 163.463,183.746 158.5,184.5C 158.158,183.662 157.492,183.328 156.5,183.5C 162.109,183.111 167.609,182.111 173,180.5C 181.79,181.765 190.624,181.765 199.5,180.5C 199.5,179.5 199.5,178.5 199.5,177.5C 199.833,177.5 200.167,177.5 200.5,177.5C 200.804,178.15 201.137,178.817 201.5,179.5C 210.475,180.498 219.475,180.832 228.5,180.5C 228.5,177.5 228.5,174.5 228.5,171.5 Z"/></g>
<g><path style="opacity:1" fill="#94c5e6" d="M 395.5,187.5 C 395.21,190.127 393.876,191.794 391.5,192.5C 392.301,190.958 392.634,189.292 392.5,187.5C 391.127,187.343 389.793,187.51 388.5,188C 378.044,197.062 366.044,203.229 352.5,206.5C 352.672,205.508 352.338,204.842 351.5,204.5C 361.091,201.794 370.091,197.627 378.5,192C 380.677,190.503 382.01,188.503 382.5,186C 382.331,183.833 381.164,182.666 379,182.5C 375.339,184.674 371.839,187.007 368.5,189.5C 371.004,185.492 374.504,182.825 379,181.5C 385.12,183.198 385.953,186.365 381.5,191C 381.833,191.167 382.167,191.333 382.5,191.5C 384.928,188.902 387.761,186.902 391,185.5C 392.406,186.414 393.906,187.08 395.5,187.5 Z"/></g>
<g><path style="opacity:1" fill="#87c0e4" d="M 266.5,173.5 C 263.728,173.22 261.228,173.887 259,175.5C 257.955,185.646 256.122,195.646 253.5,205.5C 254.025,206.192 254.692,206.692 255.5,207C 253.76,208.517 252.094,210.017 250.5,211.5C 254.913,213.138 259.579,214.138 264.5,214.5C 259.5,214.5 254.5,214.5 249.5,214.5C 251.804,208.07 253.638,201.403 255,194.5C 255.667,188.5 256.333,182.5 257,176.5C 259.367,172.697 262.534,171.697 266.5,173.5 Z"/></g>
<g><path style="opacity:1" fill="#f7fafc" d="M 391.5,192.5 C 391.5,192.833 391.5,193.167 391.5,193.5C 383.441,198.851 374.774,202.851 365.5,205.5C 359.231,206.887 352.898,207.887 346.5,208.5C 346.5,208.167 346.5,207.833 346.5,207.5C 348.435,206.85 350.435,206.517 352.5,206.5C 366.044,203.229 378.044,197.062 388.5,188C 389.793,187.51 391.127,187.343 392.5,187.5C 392.634,189.292 392.301,190.958 391.5,192.5 Z"/></g>
<g><path style="opacity:1" fill="#98c8e8" d="M 119.5,179.5 C 120.167,179.5 120.833,179.5 121.5,179.5C 120.578,183.565 122.078,185.898 126,186.5C 130.54,185.954 135.04,185.287 139.5,184.5C 139.842,185.338 140.508,185.672 141.5,185.5C 136.321,186.393 130.988,187.226 125.5,188C 125.018,189.008 124.852,190.175 125,191.5C 123.981,190.313 122.814,189.313 121.5,188.5C 117.091,189.684 112.758,191.017 108.5,192.5C 108.5,192.167 108.5,191.833 108.5,191.5C 112.828,189.994 117.161,188.327 121.5,186.5C 120.423,184.271 119.756,181.937 119.5,179.5 Z"/></g>
<g><path style="opacity:1" fill="#a5cdea" d="M 339.5,177.5 C 340.445,179.704 340.611,182.038 340,184.5C 340.708,183.619 341.542,182.953 342.5,182.5C 341.182,186.332 338.848,189.499 335.5,192C 328.627,196.938 321.293,201.104 313.5,204.5C 313.389,203.883 313.056,203.383 312.5,203C 314.066,202.392 315.4,201.558 316.5,200.5C 323.377,196.472 329.877,191.805 336,186.5C 338.287,183.928 339.453,180.928 339.5,177.5 Z"/></g>
<g><path style="opacity:1" fill="#6eb5df" d="M 231.5,190.5 C 236.5,190.5 241.5,190.5 246.5,190.5C 246.5,191.167 246.5,191.833 246.5,192.5C 241.5,192.5 236.5,192.5 231.5,192.5C 231.5,191.833 231.5,191.167 231.5,190.5 Z"/></g>
<g><path style="opacity:1" fill="#c8e2f2" d="M 185.5,199.5 C 182.775,198.287 180.441,196.454 178.5,194C 177.207,193.51 175.873,193.343 174.5,193.5C 173.833,193.5 173.5,193.167 173.5,192.5C 175.144,192.714 176.644,192.38 178,191.5C 182.08,192.3 186.247,192.8 190.5,193C 187.167,193.333 183.833,193.667 180.5,194C 182.373,195.704 184.04,197.537 185.5,199.5 Z"/></g>
<g><path style="opacity:1" fill="#2e94d2" d="M 231.5,192.5 C 236.5,192.5 241.5,192.5 246.5,192.5C 246.5,195.167 246.5,197.833 246.5,200.5C 241.52,201.015 236.854,200.348 232.5,198.5C 232.483,196.435 232.15,194.435 231.5,192.5 Z"/></g>
<g><path style="opacity:1" fill="#82bce2" d="M 263.5,192.5 C 264.629,194.666 264.129,196.666 262,198.5C 262.15,196.494 262.65,194.494 263.5,192.5 Z"/></g>
<g><path style="opacity:1" fill="#3998d3" d="M 174.5,193.5 C 175.873,193.343 177.207,193.51 178.5,194C 180.441,196.454 182.775,198.287 185.5,199.5C 185.611,200.117 185.944,200.617 186.5,201C 178.42,203.455 170.587,202.955 163,199.5C 162.5,199.667 162,199.833 161.5,200C 163.002,200.583 164.335,201.416 165.5,202.5C 159.65,203.809 153.817,204.142 148,203.5C 144.362,204.65 140.862,205.983 137.5,207.5C 130.737,207.06 124.404,205.227 118.5,202C 122.461,200.185 126.461,198.685 130.5,197.5C 132.044,197.703 133.378,198.37 134.5,199.5C 135.696,199.154 135.696,198.654 134.5,198C 140.146,197.027 145.813,196.193 151.5,195.5C 153.808,195.365 155.808,196.031 157.5,197.5C 158.506,197.062 158.506,196.396 157.5,195.5C 163.319,194.833 168.986,194.167 174.5,193.5 Z"/></g>
<g><path style="opacity:1" fill="#acd3ec" d="M 173.5,192.5 C 173.5,193.167 173.833,193.5 174.5,193.5C 168.986,194.167 163.319,194.833 157.5,195.5C 158.506,196.396 158.506,197.062 157.5,197.5C 155.808,196.031 153.808,195.365 151.5,195.5C 145.813,196.193 140.146,197.027 134.5,198C 135.696,198.654 135.696,199.154 134.5,199.5C 133.378,198.37 132.044,197.703 130.5,197.5C 130.047,196.542 129.381,195.708 128.5,195C 128.833,194.833 129.167,194.667 129.5,194.5C 130.688,195.84 132.188,196.507 134,196.5C 138.988,195.761 143.988,195.094 149,194.5C 150.658,194.325 151.991,193.658 153,192.5C 159.777,193.641 166.611,193.641 173.5,192.5 Z"/></g>
<g><path style="opacity:1" fill="#7dbae2" d="M 391.5,193.5 C 392.332,194.329 391.999,195.162 390.5,196C 382.847,201.707 374.513,204.874 365.5,205.5C 374.774,202.851 383.441,198.851 391.5,193.5 Z"/></g>
<g><path style="opacity:1" fill="#bcdcf0" d="M 232.5,198.5 C 236.854,200.348 241.52,201.015 246.5,200.5C 246.5,200.833 246.5,201.167 246.5,201.5C 242.486,201.334 238.486,201.501 234.5,202C 235.621,204.923 235.287,205.089 233.5,202.5C 228.198,201.671 222.864,201.171 217.5,201C 222.933,201.118 227.933,200.285 232.5,198.5 Z"/></g>
<g><path style="opacity:1" fill="#cce4f3" d="M 192.5,146.5 C 193.671,147.345 195.005,148.011 196.5,148.5C 195.205,149.488 193.872,150.488 192.5,151.5C 192.5,152.833 192.5,154.167 192.5,155.5C 195.167,155.5 197.833,155.5 200.5,155.5C 202.948,156.473 205.615,156.806 208.5,156.5C 203.167,157.167 197.833,157.833 192.5,158.5C 194.262,160.7 196.596,161.867 199.5,162C 198.833,162.333 198.167,162.667 197.5,163C 199.114,165.127 201.114,166.627 203.5,167.5C 205.735,167.205 207.735,167.539 209.5,168.5C 206.753,168.187 204.086,168.52 201.5,169.5C 206.317,170.167 210.983,170.834 215.5,171.5C 210.5,171.5 205.5,171.5 200.5,171.5C 200.5,173.5 200.5,175.5 200.5,177.5C 200.167,177.5 199.833,177.5 199.5,177.5C 199.5,175.5 199.5,173.5 199.5,171.5C 190.528,172.347 181.528,172.68 172.5,172.5C 172.662,174.527 172.495,176.527 172,178.5C 171.506,176.866 171.34,175.199 171.5,173.5C 162.799,173.77 154.133,174.437 145.5,175.5C 145.779,178.118 146.446,180.618 147.5,183C 150.482,183.498 153.482,183.665 156.5,183.5C 157.492,183.328 158.158,183.662 158.5,184.5C 155.813,184.336 153.146,184.503 150.5,185C 149.333,185.5 148.5,186.333 148,187.5C 146.246,185.75 144.079,185.083 141.5,185.5C 140.508,185.672 139.842,185.338 139.5,184.5C 141.5,184.5 143.5,184.5 145.5,184.5C 145.425,181.794 145.092,179.127 144.5,176.5C 136.573,176.563 128.906,177.563 121.5,179.5C 120.833,179.5 120.167,179.5 119.5,179.5C 113.74,180.03 108.573,182.03 104,185.5C 102.555,190.387 104.055,192.387 108.5,191.5C 108.5,191.833 108.5,192.167 108.5,192.5C 106.915,193.002 106.415,194.002 107,195.5C 110.082,197.625 113.249,199.625 116.5,201.5C 120.779,198.929 125.446,197.596 130.5,197.5C 126.461,198.685 122.461,200.185 118.5,202C 124.404,205.227 130.737,207.06 137.5,207.5C 149.532,210.377 161.866,212.21 174.5,213C 190.163,213.5 205.83,213.667 221.5,213.5C 213.833,214.167 206.167,214.833 198.5,215.5C 181.782,215.056 165.115,213.889 148.5,212C 133.776,210.314 120.109,205.648 107.5,198C 104.535,194.574 102.202,190.741 100.5,186.5C 94.6222,184.895 88.9555,182.728 83.5,180C 79.4208,176.073 79.7541,172.573 84.5,169.5C 86.8694,165.805 90.2027,163.305 94.5,162C 108.717,156.446 123.384,152.779 138.5,151C 156.478,149.169 174.478,147.669 192.5,146.5 Z"/></g>
<g><path style="opacity:1" fill="#3095d2" d="M 139.5,184.5 C 135.04,185.287 130.54,185.954 126,186.5C 122.078,185.898 120.578,183.565 121.5,179.5C 128.906,177.563 136.573,176.563 144.5,176.5C 145.092,179.127 145.425,181.794 145.5,184.5C 143.5,184.5 141.5,184.5 139.5,184.5 Z"/></g>
<g><path style="opacity:1" fill="#4da1d7" d="M 142.5,172.5 C 147.766,173.134 147.766,173.801 142.5,174.5C 136.088,175.393 129.755,176.226 123.5,177C 129.798,175.066 136.132,173.566 142.5,172.5 Z"/></g>
<g><path style="opacity:1" fill="#479ed6" d="M 172.5,172.5 C 164.483,172.735 156.483,172.902 148.5,173C 154.787,171.838 161.121,171.005 167.5,170.5C 169.64,170.556 171.306,171.223 172.5,172.5 Z"/></g>
<g><path style="opacity:1" fill="#3696d3" d="M 141.5,168.5 C 142.6,169.558 143.934,170.392 145.5,171C 138.328,172.126 131.161,173.292 124,174.5C 121.178,173.549 118.345,173.049 115.5,173C 117.087,173.862 118.754,174.529 120.5,175C 113.773,177.781 107.273,180.947 101,184.5C 97.771,183.901 94.6043,183.068 91.5,182C 89.7888,180.867 89.2888,179.367 90,177.5C 96.938,173.073 104.438,170.906 112.5,171C 112.167,170.667 111.833,170.333 111.5,170C 113.167,169.667 114.833,169.333 116.5,169C 106.61,168.93 97.4429,171.43 89,176.5C 88.7811,177.938 88.2811,179.271 87.5,180.5C 85.3542,179.444 83.6875,177.944 82.5,176C 84.3547,173.057 87.0214,171.057 90.5,170C 94.4257,168.174 98.4257,167.674 102.5,168.5C 103.696,168.154 103.696,167.654 102.5,167C 112.104,164.086 121.771,163.419 131.5,165C 126.919,166.275 122.252,167.275 117.5,168C 123.209,168.246 128.876,167.746 134.5,166.5C 136.762,167.467 139.095,168.134 141.5,168.5 Z"/></g>
<g><path style="opacity:1" fill="#479ed6" d="M 196.5,168.5 C 197.978,168.238 199.311,168.571 200.5,169.5C 191.529,170.79 182.529,171.29 173.5,171C 181.18,169.866 188.846,169.033 196.5,168.5 Z"/></g>
<g><path style="opacity:1" fill="#3897d3" d="M 141.5,168.5 C 138.186,166.228 134.519,164.395 130.5,163C 138.533,161.148 146.7,159.981 155,159.5C 157.544,159.384 159.711,160.217 161.5,162C 154.865,163.109 148.198,164.109 141.5,165C 150.202,164.562 158.868,164.729 167.5,165.5C 174.966,163.682 182.632,162.682 190.5,162.5C 194.484,161.974 197.484,163.474 199.5,167C 190.471,168.223 181.471,168.39 172.5,167.5C 166.233,169.459 159.733,170.459 153,170.5C 149.001,170.568 145.168,169.901 141.5,168.5 Z"/></g>
<g><path style="opacity:1" fill="#3b99d4" d="M 84.5,169.5 C 87.4443,167.689 90.4443,165.856 93.5,164C 96.0893,162.686 98.7559,162.019 101.5,162C 100.257,163.154 99.2567,164.488 98.5,166C 93.7421,167.251 89.2421,169.085 85,171.5C 84.5357,170.906 84.369,170.239 84.5,169.5 Z"/></g>
<g><path style="opacity:1" fill="#3a98d4" d="M 192.5,158.5 C 192.414,159.496 192.748,160.329 193.5,161C 183.493,161.667 173.493,162.001 163.5,162C 162.672,161.085 161.672,160.419 160.5,160C 171.147,157.929 181.813,157.429 192.5,158.5 Z"/></g>
<g><path style="opacity:1" fill="#3897d3" d="M 126.5,154.5 C 128.199,154.34 129.866,154.506 131.5,155C 129.473,157.027 127.473,159.027 125.5,161C 117.193,162.831 108.86,164.165 100.5,165C 102.601,162.23 105.268,160.23 108.5,159C 114.547,157.169 120.547,155.669 126.5,154.5 Z"/></g>
<g><path style="opacity:1" fill="#3596d3" d="M 160.5,153.5 C 159.035,154.406 158.035,155.739 157.5,157.5C 147.849,158.866 138.182,159.699 128.5,160C 131.168,156.67 134.502,154.337 138.5,153C 146.472,151.669 154.472,151.002 162.5,151C 161.619,151.708 160.953,152.542 160.5,153.5 Z"/></g>
<g><path style="opacity:1" fill="#3697d3" d="M 192.5,151.5 C 191.069,152.78 190.402,154.447 190.5,156.5C 182.485,156.442 174.485,156.775 166.5,157.5C 164.167,157.167 161.833,156.833 159.5,156.5C 160.127,155.583 160.461,154.583 160.5,153.5C 162.78,152.36 165.114,151.193 167.5,150C 176.125,148.581 184.792,148.248 193.5,149C 192.748,149.671 192.414,150.504 192.5,151.5 Z"/></g>
<g><path style="opacity:1" fill="#3b98d3" d="M 232.5,198.5 C 227.933,200.285 222.933,201.118 217.5,201C 222.864,201.171 228.198,201.671 233.5,202.5C 235.287,205.089 235.621,204.923 234.5,202C 238.486,201.501 242.486,201.334 246.5,201.5C 246.5,204.833 246.5,208.167 246.5,211.5C 242.929,210.913 239.263,210.913 235.5,211.5C 231.028,209.715 226.362,208.549 221.5,208C 223.707,208.625 225.04,209.459 225.5,210.5C 223.167,210.5 220.833,210.5 218.5,210.5C 210.141,208.488 201.807,205.988 193.5,203C 200.082,202.19 206.582,202.357 213,203.5C 211.847,201.166 210.013,199.166 207.5,197.5C 207.249,195.83 206.582,194.33 205.5,193C 213.827,192.5 222.16,192.334 230.5,192.5C 230.595,194.786 231.262,196.786 232.5,198.5 Z"/></g>
<g><path style="opacity:1" fill="#a4ceea" d="M 325.5,186.5 C 325.631,187.239 325.464,187.906 325,188.5C 316.739,195.936 307.572,201.936 297.5,206.5C 295.274,208.525 292.941,208.691 290.5,207C 291.416,206.722 292.082,206.222 292.5,205.5C 302.831,200.912 312.331,194.912 321,187.5C 321.333,188.167 321.667,188.833 322,189.5C 323.039,188.29 324.206,187.29 325.5,186.5 Z"/></g>
<g><path style="opacity:1" fill="#95c6e7" d="M 368.5,189.5 C 365.94,192.458 362.94,194.958 359.5,197C 349.487,202.261 339.82,205.761 330.5,207.5C 324.969,208.368 324.635,209.202 329.5,210C 327.618,210.198 325.952,210.698 324.5,211.5C 319.373,212.902 314.206,212.568 309,210.5C 305.879,211.536 302.713,211.703 299.5,211C 302.833,210.333 306.167,209.667 309.5,209C 308.756,207.961 307.756,207.461 306.5,207.5C 307.685,206.229 309.685,205.229 312.5,204.5C 320.818,203.72 328.818,201.054 336.5,196.5C 336.833,197.167 337.167,197.833 337.5,198.5C 339.167,197.667 340.833,196.833 342.5,196C 343.696,195.346 343.696,194.846 342.5,194.5C 341.549,195.326 340.549,195.492 339.5,195C 345.215,191.952 349.548,187.619 352.5,182C 352.739,179.741 351.739,178.574 349.5,178.5C 346.687,179.071 344.354,180.404 342.5,182.5C 342.916,180.248 344.249,178.748 346.5,178C 351.943,176.127 354.443,177.96 354,183.5C 352.207,186.295 350.04,188.795 347.5,191C 350.776,189.763 353.609,187.597 356,184.5C 354.763,187.776 352.597,190.609 349.5,193C 338.972,199.735 327.639,204.735 315.5,208C 321.305,208.04 326.972,207.04 332.5,205C 346.053,201.477 357.886,194.977 368,185.5C 368.667,184.167 368.667,182.833 368,181.5C 365.595,180.726 363.095,180.226 360.5,180C 367.222,177.268 370.055,179.435 369,186.5C 366.51,187.947 366.343,188.947 368.5,189.5 Z"/></g>
<g><path style="opacity:1" fill="#b1d6ed" d="M 207.5,197.5 C 210.013,199.166 211.847,201.166 213,203.5C 206.582,202.357 200.082,202.19 193.5,203C 201.807,205.988 210.141,208.488 218.5,210.5C 217.833,211.167 217.167,211.833 216.5,212.5C 193.716,212.837 171.216,210.504 149,205.5C 145.189,206.362 141.356,207.029 137.5,207.5C 140.862,205.983 144.362,204.65 148,203.5C 153.817,204.142 159.65,203.809 165.5,202.5C 164.335,201.416 163.002,200.583 161.5,200C 162,199.833 162.5,199.667 163,199.5C 170.587,202.955 178.42,203.455 186.5,201C 185.944,200.617 185.611,200.117 185.5,199.5C 193.274,201.563 201.274,202.063 209.5,201C 208.177,200.184 207.511,199.017 207.5,197.5 Z"/></g>
<g><path style="opacity:1" fill="#3597d3" d="M 158.5,204.5 C 163.511,204.334 168.511,204.501 173.5,205C 181.682,207.436 190.015,209.103 198.5,210C 185.872,210.387 173.372,209.221 161,206.5C 159.624,206.316 158.791,205.649 158.5,204.5 Z"/></g>
<g><path style="opacity:1" fill="#3496d3" d="M 174.5,204.5 C 180.319,203.347 186.319,203.181 192.5,204C 197.363,206.066 202.363,207.732 207.5,209C 204.833,209.667 202.167,209.667 199.5,209C 191.126,207.656 182.792,206.156 174.5,204.5 Z"/></g>
<g><path style="opacity:1" fill="#3998d3" d="M 216.5,212.5 C 219.041,212.149 220.708,212.482 221.5,213.5C 205.83,213.667 190.163,213.5 174.5,213C 161.866,212.21 149.532,210.377 137.5,207.5C 141.356,207.029 145.189,206.362 149,205.5C 171.216,210.504 193.716,212.837 216.5,212.5 Z"/></g>
<g><path style="opacity:1" fill="#9dcae8" d="M 300.5,182.5 C 295.016,192.817 287.016,200.65 276.5,206C 289.321,202.248 300.321,195.415 309.5,185.5C 309.369,186.239 309.536,186.906 310,187.5C 311.039,186.29 312.206,185.29 313.5,184.5C 310.762,188.778 307.429,192.612 303.5,196C 297.991,199.363 292.658,202.863 287.5,206.5C 287.082,207.222 286.416,207.722 285.5,208C 286.056,208.383 286.389,208.883 286.5,209.5C 282.747,210.73 278.914,211.73 275,212.5C 269.628,211.289 264.461,210.622 259.5,210.5C 257.987,209.691 256.32,209.524 254.5,210C 257.333,207.167 260.167,204.333 263,201.5C 263.163,203.387 262.329,204.887 260.5,206C 260.833,206.167 261.167,206.333 261.5,206.5C 274.483,199.481 281.65,188.814 283,174.5C 284.023,175.6 284.523,176.933 284.5,178.5C 283.961,182.45 282.628,186.117 280.5,189.5C 280.846,190.696 281.346,190.696 282,189.5C 278.413,196.439 273.246,202.272 266.5,207C 275.402,204.121 283.235,199.288 290,192.5C 293.668,188.665 296.168,184.165 297.5,179C 296.416,174.549 293.749,173.382 289.5,175.5C 292.217,172.855 295.05,172.855 298,175.5C 298.587,179.353 298.254,183.02 297,186.5C 297.949,184.907 299.115,183.574 300.5,182.5 Z"/></g>
<g><path style="opacity:1" fill="#7fbbe2" d="M 289.5,175.5 C 287.955,179.637 286.122,183.637 284,187.5C 284.757,184.216 285.757,180.883 287,177.5C 287.708,176.619 288.542,175.953 289.5,175.5 Z"/></g>
<g><path style="opacity:1" fill="#499fd6" d="M 351.5,204.5 C 352.338,204.842 352.672,205.508 352.5,206.5C 350.435,206.517 348.435,206.85 346.5,207.5C 342.69,208.228 338.857,208.895 335,209.5C 333.615,209.486 332.449,209.152 331.5,208.5C 338.192,207.295 344.859,205.962 351.5,204.5 Z"/></g>
<g><path style="opacity:1" fill="#7bbae2" d="M 316.5,200.5 C 315.4,201.558 314.066,202.392 312.5,203C 313.056,203.383 313.389,203.883 313.5,204.5C 313.167,204.5 312.833,204.5 312.5,204.5C 309.685,205.229 307.685,206.229 306.5,207.5C 303.717,209.272 300.717,209.606 297.5,208.5C 297.511,209.441 297.011,210.108 296,210.5C 292.636,210.506 289.47,210.173 286.5,209.5C 286.389,208.883 286.056,208.383 285.5,208C 286.416,207.722 287.082,207.222 287.5,206.5C 289.117,205.962 290.784,205.629 292.5,205.5C 292.082,206.222 291.416,206.722 290.5,207C 292.941,208.691 295.274,208.525 297.5,206.5C 303.961,204.902 310.294,202.902 316.5,200.5 Z"/></g>
<g><path style="opacity:1" fill="#bcdbef" d="M 330.5,207.5 C 330.5,208.167 330.833,208.5 331.5,208.5C 332.449,209.152 333.615,209.486 335,209.5C 338.857,208.895 342.69,208.228 346.5,207.5C 346.5,207.833 346.5,208.167 346.5,208.5C 339.424,210.415 332.091,211.415 324.5,211.5C 325.952,210.698 327.618,210.198 329.5,210C 324.635,209.202 324.969,208.368 330.5,207.5 Z"/></g>
<g><path style="opacity:1" fill="#a0cde9" d="M 235.5,211.5 C 231.958,211.813 228.625,211.479 225.5,210.5C 225.04,209.459 223.707,208.625 221.5,208C 226.362,208.549 231.028,209.715 235.5,211.5 Z"/></g>
<g><path style="opacity:1" fill="#3f9ad4" d="M 239.5,215.5 C 238.732,216.263 238.232,217.263 238,218.5C 235.978,219.991 234.312,219.658 233,217.5C 231.507,219.56 229.674,219.893 227.5,218.5C 228.193,217.482 228.859,216.482 229.5,215.5C 233,215.166 236.334,215.166 239.5,215.5 Z"/></g>
<g><path style="opacity:1" fill="#3c99d4" d="M 228.5,214.5 C 227.058,215.82 226.392,217.486 226.5,219.5C 221.831,220.01 220.831,218.677 223.5,215.5C 225.117,214.962 226.784,214.629 228.5,214.5 Z"/></g>
<g><path style="opacity:1" fill="#50a1d7" d="M 241.5,219.5 C 239.824,218.817 239.157,217.483 239.5,215.5C 241.694,214.877 243.861,214.543 246,214.5C 246.667,216.167 246.667,217.833 246,219.5C 244.701,219.034 243.201,219.034 241.5,219.5 Z"/></g>
<g><path style="opacity:1" fill="#429cd5" d="M 221.5,215.5 C 220.833,216.833 220.167,218.167 219.5,219.5C 217.636,220.793 215.636,220.793 213.5,219.5C 215.343,216.578 218.01,215.245 221.5,215.5 Z"/></g>
<g><path style="opacity:1" fill="#bddcf0" d="M 228.5,214.5 C 229.167,214.5 229.5,214.833 229.5,215.5C 228.859,216.482 228.193,217.482 227.5,218.5C 229.674,219.893 231.507,219.56 233,217.5C 234.312,219.658 235.978,219.991 238,218.5C 238.232,217.263 238.732,216.263 239.5,215.5C 239.157,217.483 239.824,218.817 241.5,219.5C 241.5,219.833 241.5,220.167 241.5,220.5C 237.427,221.76 233.427,222.26 229.5,222C 230.056,222.383 230.389,222.883 230.5,223.5C 228.118,221.954 225.451,221.287 222.5,221.5C 221.71,220.599 220.71,219.932 219.5,219.5C 220.167,218.167 220.833,216.833 221.5,215.5C 222.167,215.5 222.833,215.5 223.5,215.5C 220.831,218.677 221.831,220.01 226.5,219.5C 226.392,217.486 227.058,215.82 228.5,214.5 Z"/></g>
<g><path style="opacity:1" fill="#8bc0e4" d="M 279.5,220.5 C 277.265,220.205 275.265,220.539 273.5,221.5C 265.472,221.831 257.472,221.498 249.5,220.5C 259.659,219.177 269.659,219.177 279.5,220.5 Z"/></g>
<g><path style="opacity:1" fill="#81b7e1" d="M 241.5,220.5 C 243.167,220.5 244.833,220.5 246.5,220.5C 246.5,221.833 246.5,223.167 246.5,224.5C 244.19,224.242 242.19,224.242 240.5,224.5C 237.205,224.095 233.871,223.762 230.5,223.5C 230.389,222.883 230.056,222.383 229.5,222C 233.427,222.26 237.427,221.76 241.5,220.5 Z"/></g>
<g><path style="opacity:1" fill="#78b5e0" d="M 222.5,221.5 C 225.451,221.287 228.118,221.954 230.5,223.5C 230.389,224.117 230.056,224.617 229.5,225C 230.737,225.232 231.737,225.732 232.5,226.5C 231.069,226.881 230.236,227.881 230,229.5C 229.051,226.8 227.217,225.967 224.5,227C 225.056,227.383 225.389,227.883 225.5,228.5C 224.833,228.833 224.167,229.167 223.5,229.5C 223.5,228.833 223.5,228.167 223.5,227.5C 223.631,226.624 223.298,225.957 222.5,225.5C 219.875,224.236 217.208,223.069 214.5,222C 217.399,221.814 220.066,221.648 222.5,221.5 Z"/></g>
<g><path style="opacity:1" fill="#4ca0d7" d="M 240.5,225.5 C 242.167,225.5 243.833,225.5 245.5,225.5C 245.5,228.5 245.5,231.5 245.5,234.5C 243.611,233.62 241.611,233.62 239.5,234.5C 239.656,231.934 239.322,229.434 238.5,227C 238.836,225.97 239.503,225.47 240.5,225.5 Z"/></g>
<g><path style="opacity:1" fill="#479dd6" d="M 232.5,226.5 C 232.932,227.71 233.599,228.71 234.5,229.5C 234.785,231.288 234.452,232.955 233.5,234.5C 231.995,231.869 231.329,232.203 231.5,235.5C 232.833,235.5 234.167,235.5 235.5,235.5C 235.5,237.5 235.5,239.5 235.5,241.5C 234.833,241.5 234.167,241.5 233.5,241.5C 233.649,240.448 233.483,239.448 233,238.5C 231.951,240.107 230.451,240.773 228.5,240.5C 228.5,238.833 228.5,237.167 228.5,235.5C 228.938,235.565 229.272,235.399 229.5,235C 227.339,233.364 226.006,231.197 225.5,228.5C 225.389,227.883 225.056,227.383 224.5,227C 227.217,225.967 229.051,226.8 230,229.5C 230.236,227.881 231.069,226.881 232.5,226.5 Z"/></g>
<g><path style="opacity:1" fill="#f4f9fb" d="M 225.5,228.5 C 226.006,231.197 227.339,233.364 229.5,235C 229.272,235.399 228.938,235.565 228.5,235.5C 227.833,236.167 227.167,236.833 226.5,237.5C 226.5,236.167 226.5,234.833 226.5,233.5C 186.167,233.5 145.833,233.5 105.5,233.5C 105.5,232.167 105.5,230.833 105.5,229.5C 144.833,229.5 184.167,229.5 223.5,229.5C 224.167,229.167 224.833,228.833 225.5,228.5 Z"/></g>
<g><path style="opacity:1" fill="#c4e0f1" d="M 230.5,223.5 C 233.871,223.762 237.205,224.095 240.5,224.5C 240.5,224.833 240.5,225.167 240.5,225.5C 239.503,225.47 238.836,225.97 238.5,227C 239.322,229.434 239.656,231.934 239.5,234.5C 241.611,233.62 243.611,233.62 245.5,234.5C 245.5,234.833 245.5,235.167 245.5,235.5C 243.692,236.918 243.025,238.918 243.5,241.5C 243.167,241.5 242.833,241.5 242.5,241.5C 241.833,233.5 241.167,233.5 240.5,241.5C 240.167,241.5 239.833,241.5 239.5,241.5C 239.5,239.5 239.5,237.5 239.5,235.5C 238.5,235.5 237.5,235.5 236.5,235.5C 236.325,237.621 236.659,239.621 237.5,241.5C 236.833,241.5 236.167,241.5 235.5,241.5C 235.5,239.5 235.5,237.5 235.5,235.5C 234.167,235.5 232.833,235.5 231.5,235.5C 231.329,232.203 231.995,231.869 233.5,234.5C 234.452,232.955 234.785,231.288 234.5,229.5C 233.599,228.71 232.932,227.71 232.5,226.5C 231.737,225.732 230.737,225.232 229.5,225C 230.056,224.617 230.389,224.117 230.5,223.5 Z"/></g>
<g><path style="opacity:1" fill="#3b99d4" d="M 234.5,229.5 C 234.67,228.178 234.337,227.011 233.5,226C 234.784,225.316 235.951,225.483 237,226.5C 238.436,229.143 238.602,231.81 237.5,234.5C 236.304,232.855 235.304,231.189 234.5,229.5 Z"/></g>
<g><path style="opacity:1" fill="#439dd5" d="M 239.5,241.5 C 238.833,241.5 238.167,241.5 237.5,241.5C 236.659,239.621 236.325,237.621 236.5,235.5C 237.5,235.5 238.5,235.5 239.5,235.5C 239.5,237.5 239.5,239.5 239.5,241.5 Z"/></g>
<g><path style="opacity:1" fill="#3898d3" d="M 242.5,241.5 C 241.833,241.5 241.167,241.5 240.5,241.5C 241.167,233.5 241.833,233.5 242.5,241.5 Z"/></g>
<g><path style="opacity:1" fill="#3797d3" d="M 245.5,235.5 C 245.975,238.082 245.308,240.082 243.5,241.5C 243.025,238.918 243.692,236.918 245.5,235.5 Z"/></g>
<g><path style="opacity:1" fill="#2e94d2" d="M 240.5,245.5 C 242.337,245.639 242.67,246.306 241.5,247.5C 240.702,247.043 240.369,246.376 240.5,245.5 Z"/></g>
<g><path style="opacity:1" fill="#3396d2" d="M 243.5,245.5 C 245.337,245.639 245.67,246.306 244.5,247.5C 243.702,247.043 243.369,246.376 243.5,245.5 Z"/></g>
<g><path style="opacity:1" fill="#74b7e0" d="M 265.5,247.5 C 265.5,247.833 265.5,248.167 265.5,248.5C 260.219,249.782 254.886,249.782 249.5,248.5C 254.792,247.505 260.125,247.172 265.5,247.5 Z"/></g>
<g><path style="opacity:1" fill="#97c8e7" d="M 236.5,248.5 C 239.518,248.335 242.518,248.502 245.5,249C 244.056,250.064 242.389,250.564 240.5,250.5C 238.667,250.415 237.334,249.748 236.5,248.5 Z"/></g>
<g><path style="opacity:1" fill="#4ea0d7" d="M 241.5,265.5 C 240.566,266.568 240.232,267.901 240.5,269.5C 238.167,269.5 235.833,269.5 233.5,269.5C 235.007,260.957 234.34,260.623 231.5,268.5C 229.701,269.788 228.035,269.788 226.5,268.5C 228.746,266.351 230.246,263.684 231,260.5C 231.561,259.978 232.228,259.645 233,259.5C 235.52,259.598 238.02,259.598 240.5,259.5C 241.466,261.396 241.799,263.396 241.5,265.5 Z"/></g>
<g><path style="opacity:1" fill="#3898d3" d="M 245.5,265.5 C 244.566,266.568 244.232,267.901 244.5,269.5C 243.325,269.719 242.325,269.386 241.5,268.5C 242.127,267.583 242.461,266.583 242.5,265.5C 242.051,263.023 242.717,261.023 244.5,259.5C 245.466,261.396 245.799,263.396 245.5,265.5 Z"/></g>
<g><path style="opacity:1" fill="#459cd5" d="M 226.5,268.5 C 223.745,270.992 224.079,271.659 227.5,270.5C 228.713,270.747 229.38,271.414 229.5,272.5C 233.393,270.753 234.726,271.753 233.5,275.5C 231.413,276.585 230.08,278.251 229.5,280.5C 226.43,280.632 223.43,280.299 220.5,279.5C 215.121,279.229 209.788,278.562 204.5,277.5C 214.079,274.895 221.079,269.228 225.5,260.5C 226.689,259.571 228.022,259.238 229.5,259.5C 228.787,262.594 227.787,265.594 226.5,268.5 Z"/></g>
<g><path style="opacity:1" fill="#b2d7ee" d="M 229.5,272.5 C 228.526,275.648 226.526,277.481 223.5,278C 225.37,275.96 227.37,274.127 229.5,272.5 Z"/></g>
<g><path style="opacity:1" fill="#b0d5ed" d="M 241.5,265.5 C 241.833,265.5 242.167,265.5 242.5,265.5C 242.461,266.583 242.127,267.583 241.5,268.5C 242.325,269.386 243.325,269.719 244.5,269.5C 244.232,267.901 244.566,266.568 245.5,265.5C 245.833,265.5 246.167,265.5 246.5,265.5C 246.83,271.868 246.496,278.202 245.5,284.5C 244.004,280.665 243.004,280.665 242.5,284.5C 240.5,284.5 238.5,284.5 236.5,284.5C 236.649,283.448 236.483,282.448 236,281.5C 233.36,283.1 231.193,282.766 229.5,280.5C 230.08,278.251 231.413,276.585 233.5,275.5C 234.726,271.753 233.393,270.753 229.5,272.5C 229.38,271.414 228.713,270.747 227.5,270.5C 224.079,271.659 223.745,270.992 226.5,268.5C 228.035,269.788 229.701,269.788 231.5,268.5C 234.34,260.623 235.007,260.957 233.5,269.5C 235.833,269.5 238.167,269.5 240.5,269.5C 240.232,267.901 240.566,266.568 241.5,265.5 Z"/></g>
<g><path style="opacity:1" fill="#3095d2" d="M 240.5,271.5 C 241.833,271.5 243.167,271.5 244.5,271.5C 244.037,274.482 243.704,277.482 243.5,280.5C 241.473,280.662 239.473,280.495 237.5,280C 239.497,277.508 240.497,274.675 240.5,271.5 Z"/></g>
<g><path style="opacity:1" fill="#3597d3" d="M 233.5,275.5 C 234.965,274.594 235.965,273.261 236.5,271.5C 237.325,270.614 238.325,270.281 239.5,270.5C 239.105,273.686 238.105,276.686 236.5,279.5C 234.579,280.641 232.579,280.808 230.5,280C 232.141,278.871 233.141,277.371 233.5,275.5 Z"/></g>
<g><path style="opacity:1" fill="#3b98d4" d="M 216.5,290.5 C 214.393,291.468 212.059,291.802 209.5,291.5C 208.811,290.293 208.645,288.959 209,287.5C 205.927,290.799 202.427,291.132 198.5,288.5C 197.957,288.44 197.624,288.107 197.5,287.5C 199.192,285.641 200.692,283.641 202,281.5C 207.34,283.58 212.84,285.247 218.5,286.5C 217.82,287.86 217.153,289.193 216.5,290.5 Z"/></g>
<g><path style="opacity:1" fill="#59a7da" d="M 291.5,278.5 C 289.828,281.337 290.494,282.004 293.5,280.5C 294.463,280.97 294.463,281.637 293.5,282.5C 290.797,283.963 287.797,284.796 284.5,285C 272.861,286.151 261.194,286.651 249.5,286.5C 249.5,284.833 249.5,283.167 249.5,281.5C 263.659,281.746 277.659,280.746 291.5,278.5 Z"/></g>
<g><path style="opacity:1" fill="#489dd6" d="M 227.5,285.5 C 229.833,285.5 232.167,285.5 234.5,285.5C 234.552,287.903 234.219,290.236 233.5,292.5C 231.167,292.5 228.833,292.5 226.5,292.5C 222.988,293.055 219.988,292.388 217.5,290.5C 219.383,286.225 222.716,284.558 227.5,285.5 Z"/></g>
<g><path style="opacity:1" fill="#3095d2" d="M 242.5,285.5 C 242.5,287.833 242.5,290.167 242.5,292.5C 239.833,292.5 237.167,292.5 234.5,292.5C 234.047,286.62 236.714,284.287 242.5,285.5 Z"/></g>
<g><path style="opacity:1" fill="#d5e8f5" d="M 228.5,235.5 C 228.5,237.167 228.5,238.833 228.5,240.5C 230.451,240.773 231.951,240.107 233,238.5C 233.483,239.448 233.649,240.448 233.5,241.5C 232.078,241.75 231.078,242.583 230.5,244C 233.124,246.359 233.791,246.025 232.5,243C 234.108,242.342 235.275,242.842 236,244.5C 236.839,243.376 238.006,242.709 239.5,242.5C 243.422,243.216 243.422,243.883 239.5,244.5C 239.5,245.5 239.5,246.5 239.5,247.5C 236.15,247.335 232.817,247.502 229.5,248C 230.973,248.71 231.64,249.876 231.5,251.5C 232.167,251.5 232.833,251.5 233.5,251.5C 232.838,253.47 232.172,255.47 231.5,257.5C 232.325,258.386 233.325,258.719 234.5,258.5C 234.263,257.209 234.596,256.209 235.5,255.5C 235.833,255.5 236.167,255.5 236.5,255.5C 236.586,256.496 236.252,257.329 235.5,258C 236.448,258.483 237.448,258.649 238.5,258.5C 238.674,256.139 239.007,253.806 239.5,251.5C 239.833,251.5 240.167,251.5 240.5,251.5C 240.567,253.401 240.233,255.234 239.5,257C 241.735,258.645 242.735,257.812 242.5,254.5C 242.833,254.5 243.167,254.5 243.5,254.5C 243.238,255.978 243.571,257.311 244.5,258.5C 245.474,256.257 245.808,253.924 245.5,251.5C 246.486,255.97 246.819,260.637 246.5,265.5C 246.167,265.5 245.833,265.5 245.5,265.5C 245.799,263.396 245.466,261.396 244.5,259.5C 242.717,261.023 242.051,263.023 242.5,265.5C 242.167,265.5 241.833,265.5 241.5,265.5C 241.799,263.396 241.466,261.396 240.5,259.5C 238.02,259.598 235.52,259.598 233,259.5C 232.228,259.645 231.561,259.978 231,260.5C 230.246,263.684 228.746,266.351 226.5,268.5C 227.787,265.594 228.787,262.594 229.5,259.5C 228.022,259.238 226.689,259.571 225.5,260.5C 221.079,269.228 214.079,274.895 204.5,277.5C 209.788,278.562 215.121,279.229 220.5,279.5C 220.351,280.552 220.517,281.552 221,282.5C 223.401,281.398 225.901,281.231 228.5,282C 227.167,282.333 225.833,282.667 224.5,283C 226.119,283.236 227.119,284.069 227.5,285.5C 222.716,284.558 219.383,286.225 217.5,290.5C 217.167,290.5 216.833,290.5 216.5,290.5C 217.153,289.193 217.82,287.86 218.5,286.5C 212.84,285.247 207.34,283.58 202,281.5C 200.692,283.641 199.192,285.641 197.5,287.5C 197.624,288.107 197.957,288.44 198.5,288.5C 197.531,289.309 196.698,290.309 196,291.5C 195.397,288.094 194.231,287.761 192.5,290.5C 195.092,292.042 197.092,293.376 198.5,294.5C 196.323,294.414 194.323,293.747 192.5,292.5C 191.304,292.846 191.304,293.346 192.5,294C 195.595,296.415 198.929,297.248 202.5,296.5C 202.043,295.702 201.376,295.369 200.5,295.5C 201.263,294.732 202.263,294.232 203.5,294C 202.5,293.667 201.5,293.333 200.5,293C 203.515,292.799 206.515,293.132 209.5,294C 208.5,294.333 207.5,294.667 206.5,295C 207.416,295.278 208.082,295.778 208.5,296.5C 206.712,296.215 205.045,296.548 203.5,297.5C 206.306,298.168 208.972,298.834 211.5,299.5C 210.209,299.263 209.209,299.596 208.5,300.5C 202.068,300.104 196.235,298.104 191,294.5C 190.333,292.833 190.333,291.167 191,289.5C 193.667,287.5 196.333,285.5 199,283.5C 200.07,280.758 201.57,278.258 203.5,276C 219.178,271.657 227.178,261.324 227.5,245C 226.565,242.619 226.232,240.119 226.5,237.5C 227.167,236.833 227.833,236.167 228.5,235.5 Z"/></g>
<g><path style="opacity:1" fill="#3697d3" d="M 245.5,251.5 C 245.808,253.924 245.474,256.257 244.5,258.5C 243.571,257.311 243.238,255.978 243.5,254.5C 243.285,252.821 243.952,251.821 245.5,251.5 Z"/></g>
<g><path style="opacity:1" fill="#3e9bd5" d="M 240.5,251.5 C 242.048,251.821 242.715,252.821 242.5,254.5C 242.735,257.812 241.735,258.645 239.5,257C 240.233,255.234 240.567,253.401 240.5,251.5 Z"/></g>
<g><path style="opacity:1" fill="#3e9ad4" d="M 239.5,251.5 C 239.007,253.806 238.674,256.139 238.5,258.5C 237.448,258.649 236.448,258.483 235.5,258C 236.252,257.329 236.586,256.496 236.5,255.5C 236.5,254.167 236.5,252.833 236.5,251.5C 237.5,251.5 238.5,251.5 239.5,251.5 Z"/></g>
<g><path style="opacity:1" fill="#3496d3" d="M 233.5,251.5 C 235.176,252.183 235.843,253.517 235.5,255.5C 234.596,256.209 234.263,257.209 234.5,258.5C 233.325,258.719 232.325,258.386 231.5,257.5C 232.172,255.47 232.838,253.47 233.5,251.5 Z"/></g>
<g><path style="opacity:1" fill="#3d9ad4" d="M 231.5,251.5 C 231.326,253.861 230.993,256.194 230.5,258.5C 229.5,258.5 228.5,258.5 227.5,258.5C 227.318,256.409 227.652,254.409 228.5,252.5C 229.325,251.614 230.325,251.281 231.5,251.5 Z"/></g>
<g><path style="opacity:1" fill="#3c99d4" d="M 243.5,285.5 C 244.5,285.5 245.5,285.5 246.5,285.5C 246.5,288.167 246.5,290.833 246.5,293.5C 245.5,293.5 244.5,293.5 243.5,293.5C 243.5,290.833 243.5,288.167 243.5,285.5 Z"/></g>
<g><path style="opacity:1" fill="#9fcbe9" d="M 209.5,291.5 C 211.389,292.322 213.389,293.155 215.5,294C 214.5,294.333 213.5,294.667 212.5,295C 213.598,295.77 213.598,296.603 212.5,297.5C 210.901,297.768 209.568,297.434 208.5,296.5C 208.082,295.778 207.416,295.278 206.5,295C 207.5,294.667 208.5,294.333 209.5,294C 206.515,293.132 203.515,292.799 200.5,293C 201.5,293.333 202.5,293.667 203.5,294C 202.263,294.232 201.263,294.732 200.5,295.5C 199.508,295.672 198.842,295.338 198.5,294.5C 197.092,293.376 195.092,292.042 192.5,290.5C 194.231,287.761 195.397,288.094 196,291.5C 196.698,290.309 197.531,289.309 198.5,288.5C 202.427,291.132 205.927,290.799 209,287.5C 208.645,288.959 208.811,290.293 209.5,291.5 Z"/></g>
<g><path style="opacity:1" fill="#93c6e7" d="M 242.5,285.5 C 242.833,285.5 243.167,285.5 243.5,285.5C 243.5,288.167 243.5,290.833 243.5,293.5C 240.287,293.81 237.287,293.477 234.5,292.5C 237.167,292.5 239.833,292.5 242.5,292.5C 242.5,290.167 242.5,287.833 242.5,285.5 Z"/></g>
<g><path style="opacity:1" fill="#93c4e6" d="M 226.5,292.5 C 228.833,292.5 231.167,292.5 233.5,292.5C 233.5,293.5 233.5,294.5 233.5,295.5C 229.818,295.335 226.152,295.501 222.5,296C 222.833,296.333 223.167,296.667 223.5,297C 220.258,297.283 219.924,298.117 222.5,299.5C 219.398,300.618 216.398,300.284 213.5,298.5C 215.078,297.702 216.744,297.202 218.5,297C 217.5,296.667 216.5,296.333 215.5,296C 218.544,295.641 218.878,294.974 216.5,294C 220.025,293.821 223.359,293.321 226.5,292.5 Z"/></g>
<g><path style="opacity:1" fill="#489ed6" d="M 198.5,294.5 C 198.842,295.338 199.508,295.672 200.5,295.5C 201.376,295.369 202.043,295.702 202.5,296.5C 198.929,297.248 195.595,296.415 192.5,294C 191.304,293.346 191.304,292.846 192.5,292.5C 194.323,293.747 196.323,294.414 198.5,294.5 Z"/></g>
<g><path style="opacity:1" fill="#abd1eb" d="M 239.5,302.5 C 233.974,302.821 228.64,302.488 223.5,301.5C 224.167,301.5 224.5,301.167 224.5,300.5C 227.388,301.01 229.721,300.344 231.5,298.5C 233.121,298.213 234.121,297.213 234.5,295.5C 238.445,294.509 242.445,294.176 246.5,294.5C 246.5,296.833 246.5,299.167 246.5,301.5C 243.941,301.198 241.607,301.532 239.5,302.5 Z"/></g>
<g><path style="opacity:1" fill="#68aedd" d="M 298.5,289.5 C 298.5,289.833 298.5,290.167 298.5,290.5C 294.409,292.083 290.076,293.25 285.5,294C 289.177,294.108 292.843,294.108 296.5,294C 292.815,294.914 293.148,295.581 297.5,296C 291.321,298.168 284.988,298.834 278.5,298C 280.833,297.667 283.167,297.333 285.5,297C 282.305,296.819 279.305,296.319 276.5,295.5C 271.527,294.996 262.527,294.829 249.5,295C 266.036,294.452 282.369,292.619 298.5,289.5 Z"/></g>
<g><path style="opacity:1" fill="#429cd5" d="M 208.5,296.5 C 209.568,297.434 210.901,297.768 212.5,297.5C 212.672,298.492 212.338,299.158 211.5,299.5C 208.972,298.834 206.306,298.168 203.5,297.5C 205.045,296.548 206.712,296.215 208.5,296.5 Z"/></g>
<g><path style="opacity:1" fill="#69b0dd" d="M 272.5,296.5 C 269.023,297.323 265.356,297.823 261.5,298C 266.833,298.333 272.167,298.667 277.5,299C 273.312,299.176 269.312,299.676 265.5,300.5C 260.167,300.5 254.833,300.5 249.5,300.5C 249.5,299.167 249.5,297.833 249.5,296.5C 257.167,296.5 264.833,296.5 272.5,296.5 Z"/></g>
<g><path style="opacity:1" fill="#d5e8f5" d="M 272.5,301.5 C 270.393,300.532 268.059,300.198 265.5,300.5C 269.312,299.676 273.312,299.176 277.5,299C 272.167,298.667 266.833,298.333 261.5,298C 265.356,297.823 269.023,297.323 272.5,296.5C 273.568,295.566 274.901,295.232 276.5,295.5C 279.305,296.319 282.305,296.819 285.5,297C 283.167,297.333 280.833,297.667 278.5,298C 284.988,298.834 291.321,298.168 297.5,296C 293.148,295.581 292.815,294.914 296.5,294C 292.843,294.108 289.177,294.108 285.5,294C 290.076,293.25 294.409,292.083 298.5,290.5C 299.239,290.369 299.906,290.536 300.5,291C 299.304,291.654 299.304,292.154 300.5,292.5C 301.167,291.5 301.833,290.5 302.5,289.5C 302.833,290 303.167,290.5 303.5,291C 302.48,293.026 300.813,294.359 298.5,295C 300.567,295.536 302.401,295.036 304,293.5C 304.167,293.833 304.333,294.167 304.5,294.5C 303.335,295.584 302.002,296.417 300.5,297C 291.28,299.259 281.947,300.759 272.5,301.5 Z"/></g>
<g><path style="opacity:1" fill="#459dd6" d="M 231.5,298.5 C 229.721,300.344 227.388,301.01 224.5,300.5C 223.957,300.44 223.624,300.107 223.5,299.5C 226.086,298.52 228.753,298.187 231.5,298.5 Z"/></g>
<g><path style="opacity:1" fill="#f0f6fb" d="M 221.5,367.5 C 223.5,367.5 225.5,367.5 227.5,367.5C 230.704,377.112 233.704,386.779 236.5,396.5C 234.833,396.5 233.167,396.5 231.5,396.5C 231.335,394.173 230.669,392.007 229.5,390C 225.848,389.501 222.182,389.335 218.5,389.5C 218.007,391.806 217.674,394.139 217.5,396.5C 215.396,396.799 213.396,396.466 211.5,395.5C 215.038,386.219 218.371,376.886 221.5,367.5 Z"/></g>
<g><path style="opacity:1" fill="#9fcde9" d="M 259.5,368.5 C 254.167,368.5 248.833,368.5 243.5,368.5C 243.5,377.833 243.5,387.167 243.5,396.5C 242.506,387.014 242.173,377.348 242.5,367.5C 248.358,367.178 254.025,367.511 259.5,368.5 Z"/></g>
<g><path style="opacity:1" fill="#f4f8fb" d="M 259.5,368.5 C 259.5,369.833 259.5,371.167 259.5,372.5C 255.833,372.5 252.167,372.5 248.5,372.5C 248.5,380.5 248.5,388.5 248.5,396.5C 246.833,396.5 245.167,396.5 243.5,396.5C 243.5,387.167 243.5,377.833 243.5,368.5C 248.833,368.5 254.167,368.5 259.5,368.5 Z"/></g>
<g><path style="opacity:1" fill="#f2f8fb" d="M 262.5,367.5 C 264.467,367.261 266.301,367.594 268,368.5C 270.504,373.509 273.004,378.509 275.5,383.5C 277.627,378.621 279.46,373.621 281,368.5C 282.814,367.24 284.647,367.24 286.5,368.5C 283.389,375.722 280.556,383.056 278,390.5C 275.983,395.924 272.15,397.758 266.5,396C 265.352,392.482 266.518,391.315 270,392.5C 271.434,392.07 272.601,391.236 273.5,390C 269.422,382.678 265.755,375.178 262.5,367.5 Z"/></g>
<g><path style="opacity:1" fill="#429bd5" d="M 223.5,373.5 C 224.117,373.611 224.617,373.944 225,374.5C 225.943,377.824 226.776,381.157 227.5,384.5C 225.5,384.5 223.5,384.5 221.5,384.5C 222.167,380.833 222.833,377.167 223.5,373.5 Z"/></g>
<g><path style="opacity:1" fill="#f5f9fc" d="M 197.5,383.5 C 202.214,383.201 203.88,385.201 202.5,389.5C 196.74,391.213 195.074,389.213 197.5,383.5 Z"/></g>
<g><path style="opacity:1" fill="#f1f7fb" d="M 294.5,383.5 C 300.016,383.473 301.349,385.64 298.5,390C 292.738,390.418 291.404,388.251 294.5,383.5 Z"/></g>
</svg>
