<?xml version="1.0" encoding="UTF-8"?>
<!DOCTYPE svg PUBLIC "-//W3C//DTD SVG 1.1//EN" "http://www.w3.org/Graphics/SVG/1.1/DTD/svg11.dtd">
<svg xmlns="http://www.w3.org/2000/svg" version="1.1" width="684px" height="575px" style="shape-rendering:geometricPrecision; text-rendering:geometricPrecision; image-rendering:optimizeQuality; fill-rule:evenodd; clip-rule:evenodd" xmlns:xlink="http://www.w3.org/1999/xlink">
<g><path style="opacity:1" fill="#fedae1" d="M 585.5,92.5 C 585.427,94.0269 586.094,95.0269 587.5,95.5C 591.121,100.569 594.121,106.069 596.5,112C 617.445,119.8 634.445,132.633 647.5,150.5C 647.427,152.027 648.094,153.027 649.5,153.5C 653.714,159.795 656.381,166.795 657.5,174.5C 657.41,177.152 658.076,179.485 659.5,181.5C 662.102,187.891 664.102,194.557 665.5,201.5C 665.41,204.152 666.076,206.485 667.5,208.5C 668.404,209.209 668.737,210.209 668.5,211.5C 668.41,214.152 669.076,216.485 670.5,218.5C 673.626,235.165 671.793,251.499 665,267.5C 655.844,288.312 643.178,306.645 627,322.5C 624.879,348.536 615.879,371.87 600,392.5C 580.173,416.982 557.34,438.148 531.5,456C 420.66,528.043 299.326,558.043 167.5,546C 143.265,542.477 120.265,535.144 98.5,524C 95.5932,522.391 92.9266,520.558 90.5,518.5C 90.0269,517.094 89.0269,516.427 87.5,516.5C 72.6328,506.791 61.4661,493.791 54,477.5C 49.0232,462.259 44.3565,446.926 40,431.5C 34.8244,403.702 40.3244,378.202 56.5,355C 48.4754,347.128 42.3087,337.961 38,327.5C 33.131,311.893 28.4643,296.226 24,280.5C 19.7957,256.393 23.7957,233.726 36,212.5C 46.083,194.916 58.583,179.249 73.5,165.5C 77.1002,163.57 80.1002,160.903 82.5,157.5C 106.109,136.081 132.109,117.914 160.5,103C 257.614,51.5539 360.948,29.8872 470.5,38C 498.257,40.8552 524.591,48.5218 549.5,61C 557.69,65.5939 565.357,70.9273 572.5,77C 577.797,81.4548 582.13,86.6214 585.5,92.5 Z M 405.5,50.5 C 445.495,48.4525 484.495,53.6192 522.5,66C 588.494,93.3236 601.66,136.824 562,196.5C 544.715,218.787 524.548,237.954 501.5,254C 410.181,314.603 309.514,346.436 199.5,349.5C 163.401,350.034 128.401,344.201 94.5,332C 76.4735,324.629 61.3068,313.463 49,298.5C 34.7629,275.483 33.7629,251.816 46,227.5C 58.8977,203.568 75.731,182.734 96.5,165C 147.966,123.761 205.633,93.7614 269.5,75C 314.026,61.5254 359.359,53.3588 405.5,50.5 Z M 609.5,271.5 C 607.167,273.167 605.167,275.167 603.5,277.5C 602.512,278.795 601.512,280.128 600.5,281.5C 596.9,283.43 593.9,286.097 591.5,289.5C 550.581,323.645 504.915,350.145 454.5,369C 382.406,397.127 307.739,409.46 230.5,406C 218.769,404.909 207.102,403.409 195.5,401.5C 198.287,400.523 201.287,400.19 204.5,400.5C 304.112,399.098 397.445,374.264 484.5,326C 518.453,307.057 548.619,283.224 575,254.5C 591.554,236.065 602.887,214.732 609,190.5C 612.343,171.052 610.176,152.218 602.5,134C 602.833,133.5 603.167,133 603.5,132.5C 644.728,155.682 655.894,189.016 637,232.5C 629.558,246.766 620.391,259.766 609.5,271.5 Z M 303.5,147.5 C 324.646,146.806 333.479,156.806 330,177.5C 328.92,179.996 327.586,182.33 326,184.5C 317.421,190.541 308.588,196.207 299.5,201.5C 291.45,189.234 283.784,176.734 276.5,164C 285.234,157.971 294.234,152.471 303.5,147.5 Z M 595.5,168.5 C 595.498,181.345 592.998,193.678 588,205.5C 584.729,212.378 581.229,219.045 577.5,225.5C 576.094,225.973 575.427,226.973 575.5,228.5C 572.112,232.249 568.945,236.249 566,240.5C 564.064,234.859 562.231,229.192 560.5,223.5C 573.238,209.04 583.738,193.04 592,175.5C 592.813,173.564 593.313,171.564 593.5,169.5C 594.167,169.167 594.833,168.833 595.5,168.5 Z M 655.5,227.5 C 656.485,231.634 656.818,235.968 656.5,240.5C 651.774,261.953 642.274,280.953 628,297.5C 625.782,292.181 623.949,286.681 622.5,281C 636.662,265.187 647.662,247.354 655.5,227.5 Z M 553.5,253.5 C 550.5,256.833 547.5,260.167 544.5,263.5C 531.067,275.432 516.9,286.432 502,296.5C 499.906,289.947 497.739,283.447 495.5,277C 514.438,265.071 531.938,251.238 548,235.5C 549.744,241.564 551.578,247.564 553.5,253.5 Z M 480.5,285.5 C 481.497,285.47 482.164,285.97 482.5,287C 484.268,292.804 485.935,298.637 487.5,304.5C 487.167,305.167 486.833,305.833 486.5,306.5C 469.187,316.741 451.354,326.074 433,334.5C 430.449,328.181 428.282,321.681 426.5,315C 438.618,308.44 450.951,302.107 463.5,296C 469.566,292.976 475.232,289.476 480.5,285.5 Z M 608.5,294.5 C 609.167,294.5 609.833,294.5 610.5,294.5C 611.663,300.488 613.33,306.322 615.5,312C 612.961,314.37 610.628,316.87 608.5,319.5C 605.236,321.094 602.569,323.427 600.5,326.5C 588.779,336.384 576.613,345.717 564,354.5C 561.828,347.983 559.661,341.483 557.5,335C 575.551,322.778 592.551,309.278 608.5,294.5 Z M 410.5,320.5 C 411.117,320.611 411.617,320.944 412,321.5C 413.833,327.667 415.667,333.833 417.5,340C 417.167,340.5 416.833,341 416.5,341.5C 394.361,351.104 371.695,358.437 348.5,363.5C 346.655,357.12 344.655,350.786 342.5,344.5C 365.766,337.858 388.433,329.858 410.5,320.5 Z M 56.5,328.5 C 59.5886,330.925 62.9219,332.925 66.5,334.5C 66.9731,335.906 67.9731,336.573 69.5,336.5C 75.2692,340.405 81.4359,343.738 88,346.5C 89.8248,351.472 91.1581,356.472 92,361.5C 77.0839,353.748 65.2506,342.748 56.5,328.5 Z M 607.5,340.5 C 608.167,340.5 608.5,340.833 608.5,341.5C 603.04,359.426 594.206,375.426 582,389.5C 579.306,383.755 577.639,377.755 577,371.5C 581.38,366.789 585.38,361.789 589,356.5C 595.064,350.928 601.231,345.595 607.5,340.5 Z M 542.5,343.5 C 546.127,349.55 548.293,356.216 549,363.5C 531.446,373.945 513.446,383.611 495,392.5C 492.547,387.04 490.547,381.373 489,375.5C 488.333,374.167 488.333,372.833 489,371.5C 507.415,363.045 525.248,353.711 542.5,343.5 Z M 324.5,348.5 C 325.959,348.433 327.292,348.766 328.5,349.5C 329.54,355.657 331.206,361.657 333.5,367.5C 333.291,368.086 332.957,368.586 332.5,369C 311.468,374.073 290.301,378.24 269,381.5C 266.832,374.828 264.666,368.161 262.5,361.5C 283.289,357.812 303.955,353.479 324.5,348.5 Z M 160.5,362.5 C 163.053,363.255 165.72,363.922 168.5,364.5C 170.011,370.877 171.677,377.21 173.5,383.5C 159.309,382.095 145.309,379.595 131.5,376C 122.416,370.264 115.583,362.764 111,353.5C 127.179,358.169 143.679,361.169 160.5,362.5 Z M 244.5,362.5 C 245.609,362.557 246.609,362.89 247.5,363.5C 249.167,370.167 250.833,376.833 252.5,383.5C 234.844,384.42 217.177,385.087 199.5,385.5C 196.275,384.763 192.941,384.097 189.5,383.5C 188.247,377.404 186.58,371.404 184.5,365.5C 204.529,364.857 224.529,363.857 244.5,362.5 Z M 136.5,426.5 C 136.973,427.906 137.973,428.573 139.5,428.5C 152.557,436.522 166.557,442.689 181.5,447C 225.938,458.124 270.938,461.124 316.5,456C 392.67,448.107 464.67,426.607 532.5,391.5C 496.341,419.596 456.675,442.096 413.5,459C 349.532,484.094 283.199,497.594 214.5,499.5C 179.887,499.633 146.22,494.133 113.5,483C 92.8916,475.46 76.0583,462.96 63,445.5C 51.4834,424.709 50.4834,403.376 60,381.5C 62.1784,375.781 65.0117,370.448 68.5,365.5C 78.0183,371.762 88.0183,377.262 98.5,382C 106.393,401.049 119.06,415.882 136.5,426.5 Z M 471.5,378.5 C 472.496,378.414 473.329,378.748 474,379.5C 475.734,385.536 477.568,391.536 479.5,397.5C 479.291,398.086 478.957,398.586 478.5,399C 456.308,408.676 433.641,416.176 410.5,421.5C 408.5,415.167 406.5,408.833 404.5,402.5C 427.356,395.661 449.69,387.661 471.5,378.5 Z M 566.5,407.5 C 562.229,410.101 558.563,413.434 555.5,417.5C 543.753,427.577 531.419,436.911 518.5,445.5C 517.914,445.291 517.414,444.957 517,444.5C 514.685,438.122 513.185,431.789 512.5,425.5C 530.628,413.88 547.461,400.547 563,385.5C 565.547,391.514 567.714,397.681 569.5,404C 568.29,405.039 567.29,406.206 566.5,407.5 Z M 122.5,390.5 C 131.405,394.952 140.405,399.452 149.5,404C 151.34,408.687 152.673,413.52 153.5,418.5C 142.147,412.986 132.481,405.32 124.5,395.5C 124.573,393.973 123.906,392.973 122.5,392.5C 122.5,391.833 122.5,391.167 122.5,390.5 Z M 333.5,438.5 C 332.041,438.567 330.708,438.234 329.5,437.5C 328.247,431.404 326.58,425.404 324.5,419.5C 324.709,418.914 325.043,418.414 325.5,418C 346.981,415.237 368.147,411.07 389,405.5C 390.974,412.422 393.141,419.255 395.5,426C 375.14,431.639 354.473,435.805 333.5,438.5 Z M 169.5,410.5 C 189.188,415.922 209.188,419.755 229.5,422C 231.969,428.397 233.803,434.897 235,441.5C 214.568,439.346 194.568,435.013 175,428.5C 174.055,428.095 173.388,427.428 173,426.5C 171.494,421.798 169.994,417.132 168.5,412.5C 168.328,411.508 168.662,410.842 169.5,410.5 Z M 300.5,420.5 C 303.609,420.264 306.609,420.597 309.5,421.5C 310.753,427.596 312.42,433.596 314.5,439.5C 307.626,441.159 300.626,442.159 293.5,442.5C 279.421,442.815 265.421,442.482 251.5,441.5C 250.233,435.37 248.567,429.37 246.5,423.5C 258.167,422.833 269.833,422.167 281.5,421.5C 287.878,421.705 294.211,421.372 300.5,420.5 Z M 495.5,435.5 C 496.5,435.5 497.5,435.5 498.5,435.5C 499.852,441.728 501.519,447.894 503.5,454C 503.355,454.772 503.022,455.439 502.5,456C 484.853,466.407 466.687,475.907 448,484.5C 445.841,477.534 444.174,470.534 443,463.5C 461.244,455.298 478.744,445.965 495.5,435.5 Z M 425.5,470.5 C 426.496,470.414 427.329,470.748 428,471.5C 429.734,477.536 431.568,483.536 433.5,489.5C 418.452,496.912 402.786,503.078 386.5,508C 379.464,510.068 372.464,512.234 365.5,514.5C 362.783,508.017 360.449,501.35 358.5,494.5C 381.18,487.275 403.514,479.275 425.5,470.5 Z M 72.5,478.5 C 73.8333,479.167 75.1667,479.833 76.5,480.5C 76.9731,481.906 77.9731,482.573 79.5,482.5C 86.4966,487.669 94.1633,491.836 102.5,495C 105.054,499.831 106.721,504.997 107.5,510.5C 92.6556,503.323 80.989,492.656 72.5,478.5 Z M 341.5,497.5 C 342.497,497.47 343.164,497.97 343.5,499C 345.308,505.422 347.308,511.755 349.5,518C 328.16,523.935 306.494,527.935 284.5,530C 281.997,523.323 279.997,516.49 278.5,509.5C 300.007,507.529 321.007,503.529 341.5,497.5 Z M 124.5,502.5 C 143.834,507.933 163.5,511.767 183.5,514C 185.969,520.397 187.803,526.897 189,533.5C 168.373,531.174 148.206,526.674 128.5,520C 125.672,514.889 123.672,509.389 122.5,503.5C 122.842,502.662 123.508,502.328 124.5,502.5 Z M 268.5,531.5 C 266.833,532.167 265.167,532.833 263.5,533.5C 255.16,533.691 246.826,534.024 238.5,534.5C 227.419,534.81 216.419,534.477 205.5,533.5C 204.233,527.37 202.567,521.37 200.5,515.5C 211.167,514.833 221.833,514.167 232.5,513.5C 242.447,513.735 252.28,513.068 262,511.5C 264.171,518.19 266.338,524.857 268.5,531.5 Z"/></g>
<g><path style="opacity:0.502" fill="#feedf0" d="M 585.5,92.5 C 586.906,92.9731 587.573,93.9731 587.5,95.5C 586.094,95.0269 585.427,94.0269 585.5,92.5 Z"/></g>
<g><path style="opacity:1" fill="#fedbe1" d="M 303.5,131.5 C 324.761,130.289 338.928,139.622 346,159.5C 349.321,175.054 345.154,188.221 333.5,199C 324.833,204.333 316.167,209.667 307.5,215C 309.006,217.333 310.673,219.5 312.5,221.5C 319.666,216.749 327,212.249 334.5,208C 342.718,206.885 346.218,210.385 345,218.5C 344.167,219.5 343.333,220.5 342.5,221.5C 334.876,225.806 327.543,230.473 320.5,235.5C 326.266,244.596 331.599,253.929 336.5,263.5C 334.016,271.943 329.183,273.609 322,268.5C 316.916,259.997 311.583,251.664 306,243.5C 301.203,248.251 296.203,248.584 291,244.5C 289,241.5 289,238.5 291,235.5C 293.234,233.3 295.734,231.467 298.5,230C 286.447,210.72 274.28,191.553 262,172.5C 256.266,176.815 250.933,176.482 246,171.5C 244.973,167.82 245.806,164.653 248.5,162C 261.667,154.251 274.667,146.251 287.5,138C 292.607,134.935 297.94,132.769 303.5,131.5 Z M 303.5,147.5 C 294.234,152.471 285.234,157.971 276.5,164C 283.784,176.734 291.45,189.234 299.5,201.5C 308.588,196.207 317.421,190.541 326,184.5C 327.586,182.33 328.92,179.996 330,177.5C 333.479,156.806 324.646,146.806 303.5,147.5 Z"/></g>
<g><path style="opacity:0.565" fill="#feedef" d="M 647.5,150.5 C 648.906,150.973 649.573,151.973 649.5,153.5C 648.094,153.027 647.427,152.027 647.5,150.5 Z"/></g>
<g><path style="opacity:0.812" fill="#fde7ec" d="M 82.5,157.5 C 80.1002,160.903 77.1002,163.57 73.5,165.5C 75.8998,162.097 78.8998,159.43 82.5,157.5 Z"/></g>
<g><path style="opacity:0.376" fill="#fef1f3" d="M 595.5,168.5 C 594.833,168.833 594.167,169.167 593.5,169.5C 594.032,166.54 594.699,166.207 595.5,168.5 Z"/></g>
<g><path style="opacity:0.941" fill="#fee7ec" d="M 657.5,174.5 C 658.924,176.515 659.59,178.848 659.5,181.5C 658.076,179.485 657.41,177.152 657.5,174.5 Z"/></g>
<g><path style="opacity:0.941" fill="#fee7ec" d="M 665.5,201.5 C 666.924,203.515 667.59,205.848 667.5,208.5C 666.076,206.485 665.41,204.152 665.5,201.5 Z"/></g>
<g><path style="opacity:0.941" fill="#fee8ed" d="M 668.5,211.5 C 669.924,213.515 670.59,215.848 670.5,218.5C 669.076,216.485 668.41,214.152 668.5,211.5 Z"/></g>
<g><path style="opacity:0.251" fill="#fef1f3" d="M 656.5,240.5 C 656.818,235.968 656.485,231.634 655.5,227.5C 655.312,225.897 655.812,224.563 657,223.5C 657.818,229.349 657.652,235.015 656.5,240.5 Z"/></g>
<g><path style="opacity:0.565" fill="#feecef" d="M 577.5,225.5 C 577.573,227.027 576.906,228.027 575.5,228.5C 575.427,226.973 576.094,225.973 577.5,225.5 Z"/></g>
<g><path style="opacity:0.937" fill="#fde4ea" d="M 553.5,253.5 C 554.525,253.897 554.692,254.563 554,255.5C 551.234,258.777 548.067,261.443 544.5,263.5C 547.5,260.167 550.5,256.833 553.5,253.5 Z"/></g>
<g><path style="opacity:0.812" fill="#fde9ee" d="M 609.5,271.5 C 608.5,274.5 606.5,276.5 603.5,277.5C 605.167,275.167 607.167,273.167 609.5,271.5 Z"/></g>
<g><path style="opacity:0.812" fill="#fde7ec" d="M 600.5,281.5 C 598.1,284.903 595.1,287.57 591.5,289.5C 593.9,286.097 596.9,283.43 600.5,281.5 Z"/></g>
<g><path style="opacity:0.094" fill="#fff8f9" d="M 610.5,294.5 C 609.833,294.5 609.167,294.5 608.5,294.5C 609.548,292.067 610.214,292.067 610.5,294.5 Z"/></g>
<g><path style="opacity:0.812" fill="#fde8ec" d="M 608.5,319.5 C 606.431,322.573 603.764,324.906 600.5,326.5C 602.569,323.427 605.236,321.094 608.5,319.5 Z"/></g>
<g><path style="opacity:0.565" fill="#feecef" d="M 66.5,334.5 C 68.0269,334.427 69.0269,335.094 69.5,336.5C 67.9731,336.573 66.9731,335.906 66.5,334.5 Z"/></g>
<g><path style="opacity:0.314" fill="#fef1f3" d="M 608.5,341.5 C 608.5,340.833 608.167,340.5 607.5,340.5C 607.783,339.711 608.283,339.044 609,338.5C 609.74,339.749 609.573,340.749 608.5,341.5 Z"/></g>
<g><path style="opacity:0.439" fill="#feedf0" d="M 324.5,348.5 C 324.917,347.876 325.584,347.543 326.5,347.5C 327.713,347.747 328.38,348.414 328.5,349.5C 327.292,348.766 325.959,348.433 324.5,348.5 Z"/></g>
<g><path style="opacity:0.502" fill="#feedf0" d="M 244.5,362.5 C 245.947,361.115 246.947,361.448 247.5,363.5C 246.609,362.89 245.609,362.557 244.5,362.5 Z"/></g>
<g><path style="opacity:0.502" fill="#feedf0" d="M 160.5,362.5 C 163.698,361.964 166.365,362.631 168.5,364.5C 165.72,363.922 163.053,363.255 160.5,362.5 Z"/></g>
<g><path style="opacity:0.247" fill="#fef3f5" d="M 189.5,383.5 C 192.941,384.097 196.275,384.763 199.5,385.5C 195.671,386.069 192.337,385.402 189.5,383.5 Z"/></g>
<g><path style="opacity:0.565" fill="#feecef" d="M 122.5,392.5 C 123.906,392.973 124.573,393.973 124.5,395.5C 123.094,395.027 122.427,394.027 122.5,392.5 Z"/></g>
<g><path style="opacity:0.502" fill="#feedf0" d="M 204.5,400.5 C 201.287,400.19 198.287,400.523 195.5,401.5C 192.478,401.196 189.478,400.696 186.5,400C 192.681,399.181 198.681,399.347 204.5,400.5 Z"/></g>
<g><path style="opacity:0.314" fill="#fef0f2" d="M 169.5,410.5 C 168.662,410.842 168.328,411.508 168.5,412.5C 167.224,411.614 167.224,410.614 168.5,409.5C 169.107,409.624 169.44,409.957 169.5,410.5 Z"/></g>
<g><path style="opacity:0.812" fill="#fde8ec" d="M 566.5,407.5 C 563.437,411.566 559.771,414.899 555.5,417.5C 558.563,413.434 562.229,410.101 566.5,407.5 Z"/></g>
<g><path style="opacity:0.251" fill="#feeff2" d="M 300.5,420.5 C 301.793,419.842 303.293,419.508 305,419.5C 306.986,419.569 308.486,420.235 309.5,421.5C 306.609,420.597 303.609,420.264 300.5,420.5 Z"/></g>
<g><path style="opacity:0.502" fill="#feedf0" d="M 281.5,421.5 C 269.833,422.167 258.167,422.833 246.5,423.5C 245.957,423.44 245.624,423.107 245.5,422.5C 257.482,421.501 269.482,421.168 281.5,421.5 Z"/></g>
<g><path style="opacity:0.565" fill="#feecef" d="M 136.5,426.5 C 138.027,426.427 139.027,427.094 139.5,428.5C 137.973,428.573 136.973,427.906 136.5,426.5 Z"/></g>
<g><path style="opacity:0.435" fill="#feeef2" d="M 329.5,437.5 C 330.708,438.234 332.041,438.567 333.5,438.5C 333.083,439.124 332.416,439.457 331.5,439.5C 330.287,439.253 329.62,438.586 329.5,437.5 Z"/></g>
<g><path style="opacity:0.247" fill="#feeff2" d="M 251.5,441.5 C 265.421,442.482 279.421,442.815 293.5,442.5C 286.675,443.166 279.675,443.5 272.5,443.5C 265.133,443.497 258.133,442.83 251.5,441.5 Z"/></g>
<g><path style="opacity:0.502" fill="#feedf0" d="M 76.5,480.5 C 78.0269,480.427 79.0269,481.094 79.5,482.5C 77.9731,482.573 76.9731,481.906 76.5,480.5 Z"/></g>
<g><path style="opacity:0.627" fill="#feedf1" d="M 124.5,502.5 C 123.508,502.328 122.842,502.662 122.5,503.5C 121.115,502.698 121.282,502.031 123,501.5C 123.765,501.57 124.265,501.903 124.5,502.5 Z"/></g>
<g><path style="opacity:0.502" fill="#feeef1" d="M 232.5,513.5 C 221.833,514.167 211.167,514.833 200.5,515.5C 199.957,515.44 199.624,515.107 199.5,514.5C 210.48,513.501 221.48,513.168 232.5,513.5 Z"/></g>
<g><path style="opacity:0.565" fill="#feedf0" d="M 87.5,516.5 C 89.0269,516.427 90.0269,517.094 90.5,518.5C 88.9731,518.573 87.9731,517.906 87.5,516.5 Z"/></g>
<g><path style="opacity:0.498" fill="#feedf1" d="M 268.5,531.5 C 269.043,531.56 269.376,531.893 269.5,532.5C 267.604,533.466 265.604,533.799 263.5,533.5C 265.167,532.833 266.833,532.167 268.5,531.5 Z"/></g>
<g><path style="opacity:0.498" fill="#feeaee" d="M 205.5,533.5 C 216.419,534.477 227.419,534.81 238.5,534.5C 233.177,535.166 227.677,535.499 222,535.5C 216.124,535.495 210.624,534.829 205.5,533.5 Z"/></g>
</svg>
