<?xml version="1.0" encoding="UTF-8"?>
<!DOCTYPE svg PUBLIC "-//W3C//DTD SVG 1.1//EN" "http://www.w3.org/Graphics/SVG/1.1/DTD/svg11.dtd">
<svg xmlns="http://www.w3.org/2000/svg" version="1.1" width="408px" height="303px" style="shape-rendering:geometricPrecision; text-rendering:geometricPrecision; image-rendering:optimizeQuality; fill-rule:evenodd; clip-rule:evenodd" xmlns:xlink="http://www.w3.org/1999/xlink">
<g><path style="opacity:1" fill="#fedbe2" d="M 361.5,56.5 C 361.427,58.0269 362.094,59.0269 363.5,59.5C 372.77,68.4302 377.936,79.4302 379,92.5C 390.453,101.409 398.453,112.742 403,126.5C 403.942,143.553 403.609,160.553 402,177.5C 396.474,190.029 388.308,200.529 377.5,209C 371.833,212.833 366.167,216.667 360.5,220.5C 355.405,234.093 347.072,245.26 335.5,254C 314.904,268.627 292.237,278.961 267.5,285C 208.331,299.447 149.331,298.78 90.5,283C 61.6087,275.647 36.7754,261.48 16,240.5C 10.1349,233.102 6.13485,224.768 4,215.5C 3.33333,202.167 3.33333,188.833 4,175.5C 5.1762,168.83 7.6762,162.83 11.5,157.5C 12.9063,157.027 13.573,156.027 13.5,154.5C 17.0388,149.412 21.0388,144.745 25.5,140.5C 8.63698,96.2491 20.3036,62.0825 60.5,38C 97.1764,19.0802 136.176,8.74691 177.5,7C 226.871,3.6239 274.538,10.9572 320.5,29C 335.957,35.7118 349.624,44.8784 361.5,56.5 Z M 348.5,57.5 C 348.973,58.9063 349.973,59.573 351.5,59.5C 355.834,64.6713 360,70.0046 364,75.5C 372.188,92.3671 370.354,108.034 358.5,122.5C 357.094,122.973 356.427,123.973 356.5,125.5C 336.048,143.73 312.381,156.23 285.5,163C 220.122,179.886 155.455,177.553 91.5,156C 71.6774,148.831 54.5107,137.664 40,122.5C 27.8984,107.048 26.565,90.7151 36,73.5C 42.8769,63.6226 51.3769,55.456 61.5,49C 90.029,32.6018 120.696,22.6018 153.5,19C 206.817,11.7255 258.817,17.0589 309.5,35C 323.803,40.4771 336.803,47.9771 348.5,57.5 Z M 194.5,93.5 C 193.391,93.4431 192.391,93.1098 191.5,92.5C 189.658,84.1315 187.658,75.7982 185.5,67.5C 191.555,66.4867 197.555,65.1533 203.5,63.5C 217.03,67.3835 220.03,75.2168 212.5,87C 206.734,89.7761 200.734,91.9428 194.5,93.5 Z M 382.5,168.5 C 379.167,171.167 376.167,174.167 373.5,177.5C 342.484,198.566 308.151,211.066 270.5,215C 218.325,222.014 167.325,217.014 117.5,200C 111.955,197.725 106.622,195.225 101.5,192.5C 173.205,212.798 244.205,210.631 314.5,186C 337.451,177.624 356.284,163.791 371,144.5C 377.726,132.375 380.393,119.375 379,105.5C 398.29,125.589 399.456,146.589 382.5,168.5 Z M 31.5,126.5 C 34.7923,131.46 38.7923,135.793 43.5,139.5C 45.6732,143.05 46.0065,146.717 44.5,150.5C 44.1667,149.5 43.5,148.833 42.5,148.5C 42.573,146.973 41.9063,145.973 40.5,145.5C 39.396,143.611 38.0627,141.945 36.5,140.5C 36.573,138.973 35.9063,137.973 34.5,137.5C 33.164,134.162 31.8307,130.829 30.5,127.5C 30.5,126.833 30.8333,126.5 31.5,126.5 Z M 366.5,127.5 C 367.338,127.842 367.672,128.508 367.5,129.5C 361.445,142.563 352.445,153.23 340.5,161.5C 339.518,158.038 339.185,154.371 339.5,150.5C 350.025,144.643 359.025,136.976 366.5,127.5 Z M 39.5,158.5 C 39.9731,159.906 40.9731,160.573 42.5,160.5C 43.1217,161.627 43.955,162.627 45,163.5C 46.8294,176.822 52.1628,188.489 61,198.5C 75.9207,212.72 93.0874,223.554 112.5,231C 170.324,250.72 229.324,255.22 289.5,244.5C 290.167,244.5 290.5,244.833 290.5,245.5C 219.577,269.271 148.577,269.438 77.5,246C 57.708,239.283 40.3747,228.783 25.5,214.5C 25.573,212.973 24.9063,211.973 23.5,211.5C 7.57185,188.714 10.0718,168.047 31,149.5C 33.8494,152.574 36.6828,155.574 39.5,158.5 Z M 58.5,150.5 C 67.9943,156.247 77.9943,160.914 88.5,164.5C 89.0894,168.971 88.4228,172.971 86.5,176.5C 79.8599,173.18 73.1932,169.847 66.5,166.5C 62.2477,162.249 59.2477,157.249 57.5,151.5C 57.5,150.833 57.8333,150.5 58.5,150.5 Z M 328.5,156.5 C 329.809,160.351 329.809,164.351 328.5,168.5C 317.055,174.474 305.222,179.474 293,183.5C 292.501,179.179 292.334,174.846 292.5,170.5C 305.255,167.585 317.255,162.919 328.5,156.5 Z M 98.5,168.5 C 110.167,172.75 122.167,175.75 134.5,177.5C 134.826,181.884 134.492,186.217 133.5,190.5C 121.782,187.654 110.115,184.654 98.5,181.5C 98.5,177.167 98.5,172.833 98.5,168.5 Z M 392.5,170.5 C 393.167,170.5 393.5,170.833 393.5,171.5C 391.277,177.615 388.277,183.281 384.5,188.5C 383.094,188.973 382.427,189.973 382.5,191.5C 377.646,196.079 372.646,200.413 367.5,204.5C 365.598,201.663 364.931,198.329 365.5,194.5C 376.381,188.619 385.381,180.619 392.5,170.5 Z M 57.5,172.5 C 62.1312,176.63 66.6312,180.963 71,185.5C 71.6667,188.5 71.6667,191.5 71,194.5C 64.6296,188.3 60.1296,180.967 57.5,172.5 Z M 281.5,173.5 C 283.43,177.373 284.097,181.706 283.5,186.5C 271.55,189.09 259.55,191.423 247.5,193.5C 246.508,189.217 246.174,184.884 246.5,180.5C 258.514,179.297 270.181,176.964 281.5,173.5 Z M 176.5,182.5 C 178.607,183.468 180.941,183.802 183.5,183.5C 183.5,187.833 183.5,192.167 183.5,196.5C 170.154,195.388 156.821,194.054 143.5,192.5C 143.5,188.167 143.5,183.833 143.5,179.5C 154.422,181.306 165.422,182.306 176.5,182.5 Z M 236.5,181.5 C 236.5,185.833 236.5,190.167 236.5,194.5C 234.901,194.232 233.568,194.566 232.5,195.5C 219.177,196.179 205.844,196.512 192.5,196.5C 192.5,192.167 192.5,187.833 192.5,183.5C 207.272,183.853 221.939,183.186 236.5,181.5 Z M 114.5,208.5 C 115.089,212.971 114.423,216.971 112.5,220.5C 102.112,215.804 92.1122,210.304 82.5,204C 80.9546,202.178 80.288,200.011 80.5,197.5C 80.8333,195.833 81.1667,194.167 81.5,192.5C 91.8596,199.18 102.86,204.513 114.5,208.5 Z M 354.5,200.5 C 355.791,204.399 355.791,208.399 354.5,212.5C 343.57,218.143 332.237,222.81 320.5,226.5C 318.577,222.971 317.911,218.971 318.5,214.5C 331.225,211.462 343.225,206.795 354.5,200.5 Z M 123.5,212.5 C 135.577,216.525 147.911,219.525 160.5,221.5C 160.826,225.884 160.492,230.217 159.5,234.5C 147.614,231.945 135.947,228.612 124.5,224.5C 123.509,220.555 123.176,216.555 123.5,212.5 Z M 15.5,216.5 C 18.8333,221.833 23.1667,226.167 28.5,229.5C 28.81,232.713 28.4767,235.713 27.5,238.5C 22.1448,232.445 17.8115,225.779 14.5,218.5C 14.3284,217.508 14.6618,216.842 15.5,216.5 Z M 307.5,217.5 C 308.794,219.048 309.461,221.048 309.5,223.5C 309.468,225.759 309.134,227.925 308.5,230C 296.733,233.02 284.9,235.52 273,237.5C 272.501,233.179 272.334,228.846 272.5,224.5C 284.464,223.041 296.13,220.707 307.5,217.5 Z M 169.5,223.5 C 182.779,225.346 196.112,226.679 209.5,227.5C 209.826,231.884 209.492,236.217 208.5,240.5C 195.511,239.234 182.511,237.901 169.5,236.5C 169.5,232.167 169.5,227.833 169.5,223.5 Z M 259.5,225.5 C 260.5,225.5 261.5,225.5 262.5,225.5C 262.5,229.833 262.5,234.167 262.5,238.5C 247.874,239.943 233.208,240.609 218.5,240.5C 218.5,236.167 218.5,231.833 218.5,227.5C 232.371,227.852 246.038,227.185 259.5,225.5 Z M 345.5,229.5 C 344.094,229.973 343.427,230.973 343.5,232.5C 337.623,239.532 330.79,245.532 323,250.5C 322.175,246.789 322.341,243.122 323.5,239.5C 330.114,234.229 337.447,230.229 345.5,227.5C 346.463,227.97 346.463,228.637 345.5,229.5 Z M 71.5,253.5 C 71.8168,257.702 71.4834,261.702 70.5,265.5C 59.4236,261.13 49.0902,255.463 39.5,248.5C 38.3414,244.878 38.1747,241.211 39,237.5C 49.1119,244.306 59.9452,249.639 71.5,253.5 Z M 312.5,245.5 C 313.791,249.399 313.791,253.399 312.5,257.5C 300.959,263.181 289.126,268.181 277,272.5C 276.501,268.179 276.334,263.846 276.5,259.5C 289.225,256.462 301.225,251.795 312.5,245.5 Z M 82.5,257.5 C 93.7807,261.571 105.447,264.571 117.5,266.5C 117.826,270.884 117.492,275.217 116.5,279.5C 105.071,276.81 93.7381,273.81 82.5,270.5C 81.2057,266.066 81.2057,261.733 82.5,257.5 Z M 265.5,262.5 C 266.485,266.634 266.818,270.968 266.5,275.5C 254.241,278.218 241.908,280.552 229.5,282.5C 229.5,278.167 229.5,273.833 229.5,269.5C 241.867,268.426 253.867,266.093 265.5,262.5 Z M 158.5,271.5 C 160.948,272.473 163.615,272.806 166.5,272.5C 166.5,276.833 166.5,281.167 166.5,285.5C 153.473,284.46 140.473,283.127 127.5,281.5C 127.5,277.167 127.5,272.833 127.5,268.5C 137.747,270.305 148.08,271.305 158.5,271.5 Z M 198.5,285.5 C 191.167,285.5 183.833,285.5 176.5,285.5C 176.5,281.167 176.5,276.833 176.5,272.5C 190.911,272.876 205.245,272.209 219.5,270.5C 220.492,274.783 220.826,279.116 220.5,283.5C 213.174,284.217 205.841,284.884 198.5,285.5 Z"/></g>
<g><path style="opacity:1" fill="#fedce2" d="M 196.5,54.5 C 218.798,53.2919 228.298,63.6253 225,85.5C 222.642,91.0667 218.809,95.2334 213.5,98C 207.613,100.019 201.613,101.519 195.5,102.5C 195.5,104.167 195.5,105.833 195.5,107.5C 200.963,106.093 206.463,104.759 212,103.5C 215.071,103.738 216.571,105.404 216.5,108.5C 216.43,109.772 216.097,110.938 215.5,112C 209.864,113.934 204.198,115.767 198.5,117.5C 200.322,123.121 201.989,128.788 203.5,134.5C 201.634,139.705 198.467,140.705 194,137.5C 192.471,131.381 190.638,125.381 188.5,119.5C 182.697,121.518 179.864,119.518 180,113.5C 181.925,111.787 184.092,110.453 186.5,109.5C 183.001,96.839 179.501,84.1723 176,71.5C 173.695,71.421 171.195,71.2543 168.5,71C 165.389,67.1114 166.056,64.1114 170.5,62C 179.374,59.7859 188.041,57.2859 196.5,54.5 Z M 194.5,93.5 C 193.391,93.4431 192.391,93.1098 191.5,92.5C 189.658,84.1315 187.658,75.7982 185.5,67.5C 191.555,66.4867 197.555,65.1533 203.5,63.5C 217.03,67.3835 220.03,75.2168 212.5,87C 206.734,89.7761 200.734,91.9428 194.5,93.5 Z"/></g>
<g><path style="opacity:0.816" fill="#feecef" d="M 348.5,57.5 C 350.027,57.427 351.027,58.0937 351.5,59.5C 349.973,59.573 348.973,58.9063 348.5,57.5 Z"/></g>
<g><path style="opacity:0.812" fill="#feecef" d="M 361.5,56.5 C 362.906,56.9731 363.573,57.9731 363.5,59.5C 362.094,59.0269 361.427,58.0269 361.5,56.5 Z"/></g>
<g><path style="opacity:0.498" fill="#feedf1" d="M 191.5,92.5 C 192.391,93.1098 193.391,93.4431 194.5,93.5C 193.053,94.8852 192.053,94.5518 191.5,92.5 Z"/></g>
<g><path style="opacity:0.812" fill="#feecf0" d="M 358.5,122.5 C 358.573,124.027 357.906,125.027 356.5,125.5C 356.427,123.973 357.094,122.973 358.5,122.5 Z"/></g>
<g><path style="opacity:0.408" fill="#feeef1" d="M 31.5,126.5 C 30.8333,126.5 30.5,126.833 30.5,127.5C 29.4265,126.749 29.2599,125.749 30,124.5C 30.7172,125.044 31.2172,125.711 31.5,126.5 Z"/></g>
<g><path style="opacity:0.69" fill="#feeef1" d="M 367.5,129.5 C 367.672,128.508 367.338,127.842 366.5,127.5C 366.783,126.711 367.283,126.044 368,125.5C 368.765,127.066 368.598,128.399 367.5,129.5 Z"/></g>
<g><path style="opacity:0.502" fill="#feedf0" d="M 34.5,137.5 C 35.9063,137.973 36.573,138.973 36.5,140.5C 35.0937,140.027 34.427,139.027 34.5,137.5 Z"/></g>
<g><path style="opacity:0.741" fill="#fde4e9" d="M 43.5,139.5 C 44.4959,139.414 45.3292,139.748 46,140.5C 46.8253,144.211 46.6586,147.878 45.5,151.5C 44.8933,151.376 44.56,151.043 44.5,150.5C 46.0065,146.717 45.6732,143.05 43.5,139.5 Z"/></g>
<g><path style="opacity:0.812" fill="#feecef" d="M 40.5,145.5 C 41.9063,145.973 42.573,146.973 42.5,148.5C 41.0937,148.027 40.427,147.027 40.5,145.5 Z"/></g>
<g><path style="opacity:0.125" fill="#fff6f8" d="M 58.5,150.5 C 57.8333,150.5 57.5,150.833 57.5,151.5C 56.9569,151.44 56.6236,151.107 56.5,150.5C 57.2565,149.227 57.9232,149.227 58.5,150.5 Z"/></g>
<g><path style="opacity:0.502" fill="#feebee" d="M 339.5,150.5 C 339.185,154.371 339.518,158.038 340.5,161.5C 340.44,162.043 340.107,162.376 339.5,162.5C 338.191,158.351 338.191,154.351 339.5,150.5 Z"/></g>
<g><path style="opacity:0.502" fill="#feedf0" d="M 13.5,154.5 C 13.573,156.027 12.9063,157.027 11.5,157.5C 11.427,155.973 12.0937,154.973 13.5,154.5 Z"/></g>
<g><path style="opacity:0.816" fill="#feecef" d="M 39.5,158.5 C 41.0269,158.427 42.0269,159.094 42.5,160.5C 40.9731,160.573 39.9731,159.906 39.5,158.5 Z"/></g>
<g><path style="opacity:0.502" fill="#feecef" d="M 88.5,164.5 C 89.4849,168.634 89.8182,172.968 89.5,177.5C 88.209,177.737 87.209,177.404 86.5,176.5C 88.4228,172.971 89.0894,168.971 88.5,164.5 Z"/></g>
<g><path style="opacity:0.188" fill="#fef2f4" d="M 393.5,171.5 C 393.5,170.833 393.167,170.5 392.5,170.5C 392.783,169.711 393.283,169.044 394,168.5C 394.74,169.749 394.573,170.749 393.5,171.5 Z"/></g>
<g><path style="opacity:0.812" fill="#fde7ec" d="M 382.5,168.5 C 380.5,172.5 377.5,175.5 373.5,177.5C 376.167,174.167 379.167,171.167 382.5,168.5 Z"/></g>
<g><path style="opacity:0.502" fill="#feecef" d="M 236.5,181.5 C 237.486,185.97 237.819,190.637 237.5,195.5C 235.833,195.5 234.167,195.5 232.5,195.5C 233.568,194.566 234.901,194.232 236.5,194.5C 236.5,190.167 236.5,185.833 236.5,181.5 Z"/></g>
<g><path style="opacity:0.753" fill="#fde6eb" d="M 176.5,182.5 C 179.167,182.5 181.833,182.5 184.5,182.5C 184.819,187.363 184.486,192.03 183.5,196.5C 183.5,192.167 183.5,187.833 183.5,183.5C 180.941,183.802 178.607,183.468 176.5,182.5 Z"/></g>
<g><path style="opacity:0.812" fill="#feecf0" d="M 384.5,188.5 C 384.573,190.027 383.906,191.027 382.5,191.5C 382.427,189.973 383.094,188.973 384.5,188.5 Z"/></g>
<g><path style="opacity:0.314" fill="#fef1f4" d="M 100.5,191.5 C 100.5,191.833 100.5,192.167 100.5,192.5C 98.4068,191.955 96.4068,191.122 94.5,190C 96.6951,189.591 98.6951,190.091 100.5,191.5 Z"/></g>
<g><path style="opacity:0.251" fill="#fef4f6" d="M 365.5,194.5 C 364.931,198.329 365.598,201.663 367.5,204.5C 366.828,205.267 365.995,205.934 365,206.5C 364.188,202.311 364.355,198.311 365.5,194.5 Z"/></g>
<g><path style="opacity:0.502" fill="#feebee" d="M 354.5,200.5 C 354.56,199.957 354.893,199.624 355.5,199.5C 355.833,201.667 356.167,203.833 356.5,206C 356.467,208.61 355.8,210.777 354.5,212.5C 355.791,208.399 355.791,204.399 354.5,200.5 Z"/></g>
<g><path style="opacity:0.753" fill="#fde4e9" d="M 114.5,208.5 C 115.485,212.634 115.818,216.968 115.5,221.5C 114.209,221.737 113.209,221.404 112.5,220.5C 114.423,216.971 115.089,212.971 114.5,208.5 Z"/></g>
<g><path style="opacity:0.812" fill="#feecf0" d="M 23.5,211.5 C 24.9063,211.973 25.573,212.973 25.5,214.5C 24.0937,214.027 23.427,213.027 23.5,211.5 Z"/></g>
<g><path style="opacity:0.753" fill="#fde4e9" d="M 318.5,214.5 C 317.911,218.971 318.577,222.971 320.5,226.5C 319.791,227.404 318.791,227.737 317.5,227.5C 317.182,222.968 317.515,218.634 318.5,214.5 Z"/></g>
<g><path style="opacity:0.753" fill="#feecf0" d="M 13.5,215.5 C 14.4916,215.328 15.1583,215.662 15.5,216.5C 14.6618,216.842 14.3284,217.508 14.5,218.5C 13.596,217.791 13.2627,216.791 13.5,215.5 Z"/></g>
<g><path style="opacity:0.245" fill="#fff4f6" d="M 28.5,229.5 C 29.6433,232.976 29.8099,236.642 29,240.5C 28.2828,239.956 27.7828,239.289 27.5,238.5C 28.4767,235.713 28.81,232.713 28.5,229.5 Z"/></g>
<g><path style="opacity:0.565" fill="#feedf0" d="M 345.5,229.5 C 345.573,231.027 344.906,232.027 343.5,232.5C 343.427,230.973 344.094,229.973 345.5,229.5 Z"/></g>
<g><path style="opacity:0.063" fill="#fff8f9" d="M 289.5,244.5 C 289.842,243.662 290.508,243.328 291.5,243.5C 291.672,244.492 291.338,245.158 290.5,245.5C 290.5,244.833 290.167,244.5 289.5,244.5 Z"/></g>
<g><path style="opacity:0.435" fill="#fef1f3" d="M 292.5,244.5 C 293.204,242.656 294.537,242.156 296.5,243C 295.255,243.791 293.922,244.291 292.5,244.5 Z"/></g>
<g><path style="opacity:0.753" fill="#fde2e8" d="M 312.5,245.5 C 312.56,244.957 312.893,244.624 313.5,244.5C 313.833,246.667 314.167,248.833 314.5,251C 314.467,253.61 313.8,255.777 312.5,257.5C 313.791,253.399 313.791,249.399 312.5,245.5 Z"/></g>
<g><path style="opacity:0.251" fill="#fff4f6" d="M 71.5,253.5 C 72.8111,257.683 72.8111,262.016 71.5,266.5C 70.8933,266.376 70.56,266.043 70.5,265.5C 71.4834,261.702 71.8168,257.702 71.5,253.5 Z"/></g>
<g><path style="opacity:0.753" fill="#fde3e8" d="M 82.5,257.5 C 81.2057,261.733 81.2057,266.066 82.5,270.5C 81.1952,268.603 80.5286,266.269 80.5,263.5C 80.8333,261.167 81.1667,258.833 81.5,256.5C 82.1067,256.624 82.44,256.957 82.5,257.5 Z"/></g>
<g><path style="opacity:0.251" fill="#fef3f5" d="M 158.5,271.5 C 161.5,271.5 164.5,271.5 167.5,271.5C 167.819,276.363 167.486,281.03 166.5,285.5C 166.5,281.167 166.5,276.833 166.5,272.5C 163.615,272.806 160.948,272.473 158.5,271.5 Z"/></g>
<g><path style="opacity:0.498" fill="#feeaee" d="M 176.5,272.5 C 176.5,276.833 176.5,281.167 176.5,285.5C 183.833,285.5 191.167,285.5 198.5,285.5C 191.018,286.492 183.352,286.825 175.5,286.5C 175.181,281.637 175.514,276.97 176.5,272.5 Z"/></g>
</svg>
