<?xml version="1.0" encoding="UTF-8"?>
<!DOCTYPE svg PUBLIC "-//W3C//DTD SVG 1.1//EN" "http://www.w3.org/Graphics/SVG/1.1/DTD/svg11.dtd">
<svg xmlns="http://www.w3.org/2000/svg" version="1.1" width="90px" height="90px" style="shape-rendering:geometricPrecision; text-rendering:geometricPrecision; image-rendering:optimizeQuality; fill-rule:evenodd; clip-rule:evenodd" xmlns:xlink="http://www.w3.org/1999/xlink">
<g><path style="opacity:0.94" fill="#3988d2" d="M 89.5,9.5 C 89.5,28.1667 89.5,46.8333 89.5,65.5C 88.36,66.8014 87.0267,67.9681 85.5,69C 74.1716,69.4999 62.8382,69.6665 51.5,69.5C 51.9629,72.4824 52.2962,75.4824 52.5,78.5C 54.5,78.5 56.5,78.5 58.5,78.5C 58.5,79.8333 58.5,81.1667 58.5,82.5C 48.4944,82.6665 38.4944,82.4998 28.5,82C 27.1667,81 27.1667,80 28.5,79C 30.1341,78.5065 31.8008,78.3398 33.5,78.5C 33.8516,75.5716 34.5183,72.7383 35.5,70C 24.8333,69.6667 14.1667,69.3333 3.5,69C 2.01608,68.3378 0.682751,67.5045 -0.5,66.5C -0.5,47.5 -0.5,28.5 -0.5,9.5C 0.626561,8.87833 1.62656,8.04499 2.5,7C 30.1667,6.33333 57.8333,6.33333 85.5,7C 86.9839,7.66218 88.3172,8.49551 89.5,9.5 Z M 6.5,10.5 C 31.8355,10.3334 57.1689,10.5 82.5,11C 83.91,11.3678 84.91,12.2011 85.5,13.5C 58.1667,14.8333 30.8333,14.8333 3.5,13.5C 4.33977,12.265 5.33977,11.265 6.5,10.5 Z M 3.5,18.5 C 8.5,18.5 13.5,18.5 18.5,18.5C 18.5,31.5 18.5,44.5 18.5,57.5C 13.5,57.5 8.5,57.5 3.5,57.5C 3.5,44.5 3.5,31.5 3.5,18.5 Z M 22.5,18.5 C 36.8333,18.5 51.1667,18.5 65.5,18.5C 65.8288,24.2055 65.4954,29.8722 64.5,35.5C 61.9923,37.2724 60.9923,39.7724 61.5,43C 61.773,48.2936 63.1063,53.127 65.5,57.5C 51.1667,57.5 36.8333,57.5 22.5,57.5C 22.5,44.5 22.5,31.5 22.5,18.5 Z M 70.5,18.5 C 75.5,18.5 80.5,18.5 85.5,18.5C 85.5,31.5 85.5,44.5 85.5,57.5C 80.5,57.5 75.5,57.5 70.5,57.5C 70.3398,55.8008 70.5065,54.1341 71,52.5C 72.8083,54.3959 74.975,54.8959 77.5,54C 80.3428,50.3813 80.0095,47.048 76.5,44C 78.5446,38.5287 76.5446,36.0287 70.5,36.5C 70.5,30.5 70.5,24.5 70.5,18.5 Z M 70.5,45.5 C 69.1779,45.33 68.0113,45.6634 67,46.5C 63.9863,40.3274 65.4863,38.9941 71.5,42.5C 70.8728,43.4168 70.5394,44.4168 70.5,45.5 Z M 3.5,61.5 C 30.8415,61.1669 58.1748,61.5002 85.5,62.5C 85.2907,63.086 84.9574,63.586 84.5,64C 57.8333,64.6667 31.1667,64.6667 4.5,64C 3.74756,63.3292 3.41423,62.4959 3.5,61.5 Z M 39.5,69.5 C 41.8333,69.5 44.1667,69.5 46.5,69.5C 46.8516,72.4284 47.5183,75.2617 48.5,78C 45.1832,78.4983 41.8499,78.665 38.5,78.5C 38.9629,75.5176 39.2962,72.5176 39.5,69.5 Z"/></g>
<g><path style="opacity:0.92" fill="#3988d2" d="M 32.5,23.5 C 42.5,23.5 52.5,23.5 62.5,23.5C 62.5,24.8333 62.5,26.1667 62.5,27.5C 52.5,27.5 42.5,27.5 32.5,27.5C 32.5,26.1667 32.5,24.8333 32.5,23.5 Z"/></g>
<g><path style="opacity:0.978" fill="#3988d2" d="M 26.5,31.5 C 38.1714,31.3335 49.8381,31.5001 61.5,32C 62.8333,33.3333 62.8333,34.6667 61.5,36C 50.1667,36.6667 38.8333,36.6667 27.5,36C 25.4523,34.7741 25.119,33.2741 26.5,31.5 Z"/></g>
<g><path style="opacity:0.981" fill="#3988d2" d="M 26.5,40.5 C 34.8333,40.5 43.1667,40.5 51.5,40.5C 51.5,41.8333 51.5,43.1667 51.5,44.5C 43.16,44.6664 34.8267,44.4997 26.5,44C 25.3157,42.8545 25.3157,41.6879 26.5,40.5 Z"/></g>
<g><path style="opacity:0.95" fill="#3889d1" d="M 54.5,40.5 C 55.8333,40.5 57.1667,40.5 58.5,40.5C 58.8333,43.5 57.5,44.8333 54.5,44.5C 54.5,43.1667 54.5,41.8333 54.5,40.5 Z"/></g>
<g><path style="opacity:0.931" fill="#4d88c6" d="M 26.5,48.5 C 36.1724,48.3335 45.8391,48.5002 55.5,49C 56.727,50.5874 56.3937,51.9207 54.5,53C 45.5,53.6667 36.5,53.6667 27.5,53C 25.4523,51.7741 25.119,50.2741 26.5,48.5 Z"/></g>
</svg>
