<svg width="61" height="61" viewBox="0 0 61 61" fill="none" xmlns="http://www.w3.org/2000/svg">
<g filter="url(#filter0_d_264_160)">
<rect x="10" y="6" width="41" height="41" rx="20.5" fill="white" shape-rendering="crispEdges"/>
<path d="M33.0504 20C34.0272 20.1906 34.9248 20.6683 35.6285 21.3719C36.3322 22.0756 36.8099 22.9733 37.0004 23.95M33.0504 16C35.0797 16.2254 36.972 17.1342 38.4167 18.577C39.8613 20.0198 40.7724 21.911 41.0004 23.94M40.0004 31.92V34.92C40.0016 35.1985 39.9445 35.4742 39.8329 35.7293C39.7214 35.9845 39.5577 36.2136 39.3525 36.4019C39.1473 36.5901 38.905 36.7335 38.6412 36.8227C38.3773 36.9119 38.0978 36.9451 37.8204 36.92C34.7433 36.5856 31.7874 35.5341 29.1904 33.85C26.7742 32.3147 24.7258 30.2662 23.1904 27.85C21.5004 25.2412 20.4487 22.271 20.1204 19.18C20.0954 18.9035 20.1283 18.6248 20.2169 18.3616C20.3055 18.0985 20.448 17.8567 20.6352 17.6516C20.8224 17.4466 21.0502 17.2827 21.3042 17.1705C21.5582 17.0583 21.8328 17.0003 22.1104 17H25.1104C25.5957 16.9952 26.0662 17.1671 26.4342 17.4835C26.8022 17.8 27.0425 18.2394 27.1104 18.72C27.237 19.6801 27.4719 20.6227 27.8104 21.53C27.945 21.8879 27.9741 22.2769 27.8943 22.6509C27.8146 23.0248 27.6293 23.3681 27.3604 23.64L26.0904 24.91C27.514 27.4135 29.5869 29.4864 32.0904 30.91L33.3604 29.64C33.6323 29.3711 33.9756 29.1858 34.3495 29.1061C34.7235 29.0263 35.1125 29.0555 35.4704 29.19C36.3777 29.5286 37.3204 29.7634 38.2804 29.89C38.7662 29.9585 39.2098 30.2032 39.527 30.5775C39.8441 30.9518 40.0126 31.4296 40.0004 31.92Z" stroke="#222222" stroke-width="2" stroke-linecap="round" stroke-linejoin="round"/>
</g>
<defs>
<filter id="filter0_d_264_160" x="0" y="0" width="61" height="61" filterUnits="userSpaceOnUse" color-interpolation-filters="sRGB">
<feFlood flood-opacity="0" result="BackgroundImageFix"/>
<feColorMatrix in="SourceAlpha" type="matrix" values="0 0 0 0 0 0 0 0 0 0 0 0 0 0 0 0 0 0 127 0" result="hardAlpha"/>
<feOffset dy="4"/>
<feGaussianBlur stdDeviation="5"/>
<feComposite in2="hardAlpha" operator="out"/>
<feColorMatrix type="matrix" values="0 0 0 0 0 0 0 0 0 0 0 0 0 0 0 0 0 0 0.1 0"/>
<feBlend mode="normal" in2="BackgroundImageFix" result="effect1_dropShadow_264_160"/>
<feBlend mode="normal" in="SourceGraphic" in2="effect1_dropShadow_264_160" result="shape"/>
</filter>
</defs>
</svg>
