<?xml version="1.0" encoding="UTF-8"?>
<!DOCTYPE svg PUBLIC "-//W3C//DTD SVG 1.1//EN" "http://www.w3.org/Graphics/SVG/1.1/DTD/svg11.dtd">
<svg xmlns="http://www.w3.org/2000/svg" version="1.1" width="61px" height="61px" style="shape-rendering:geometricPrecision; text-rendering:geometricPrecision; image-rendering:optimizeQuality; fill-rule:evenodd; clip-rule:evenodd" xmlns:xlink="http://www.w3.org/1999/xlink">
<g><path style="opacity:0.006" fill="#000000" d="M 23.5,3.5 C 23.9382,3.43456 24.2716,3.60123 24.5,4C 23.244,4.41691 22.5774,5.25025 22.5,6.5C 21.8333,6.16667 21.1667,5.83333 20.5,5.5C 20.5,4.83333 20.5,4.16667 20.5,3.5C 21.5,2.16667 22.5,2.16667 23.5,3.5 Z"/></g>
<g><path style="opacity:0.004" fill="#c6c6c6" d="M 20.5,3.5 C 20.5,4.16667 20.5,4.83333 20.5,5.5C 19.5084,5.67158 18.8417,5.33825 18.5,4.5C 18.8417,3.66175 19.5084,3.32842 20.5,3.5 Z"/></g>
<g><path style="opacity:0.023" fill="#181818" d="M 26.5,2.5 C 27.9245,4.03105 28.5912,3.69772 28.5,1.5C 31.0408,2.64893 33.5408,2.64893 36,1.5C 37.5548,3.14579 39.2215,3.47913 41,2.5C 45.6963,5.30569 49.5297,8.30569 52.5,11.5C 50.4433,13.0433 50.4433,14.0433 52.5,14.5C 52.8333,14.5 53.1667,14.5 53.5,14.5C 53.5,14.8333 53.5,15.1667 53.5,15.5C 53.3284,16.4916 53.6618,17.1583 54.5,17.5C 55.635,18.4745 56.635,19.6412 57.5,21C 57.2716,21.3988 56.9382,21.5654 56.5,21.5C 55.2848,22.779 55.6182,23.779 57.5,24.5C 57.5,24.8333 57.5,25.1667 57.5,25.5C 56.4937,25.9377 56.4937,26.6043 57.5,27.5C 57.9183,32.0429 57.9183,35.8762 57.5,39C 55.0657,40.3487 54.2324,42.182 55,44.5C 53.6288,46.0414 52.1288,47.3747 50.5,48.5C 45.8688,54.6536 39.5354,57.9869 31.5,58.5C 28.1835,58.6527 24.8502,57.9861 21.5,56.5C 20.439,55.9595 19.439,55.6262 18.5,55.5C 19.895,54.3523 19.7284,53.3523 18,52.5C 17.5172,53.448 17.3505,54.448 17.5,55.5C 14.8183,54.099 12.1517,52.599 9.5,51C 8.39611,48.7554 7.39611,46.5888 6.5,44.5C 7.83333,43.8333 7.83333,43.1667 6.5,42.5C 5.13012,42.1435 4.13012,41.3102 3.5,40C -0.247452,27.1338 2.41922,16.3005 11.5,7.5C 13.9565,6.23908 16.2898,5.23908 18.5,4.5C 18.8417,5.33825 19.5084,5.67158 20.5,5.5C 18.2827,8.22432 15.7827,10.891 13,13.5C 5.50464,28.012 9.00464,38.8454 23.5,46C 42.9688,47.8645 51.8022,39.0312 50,19.5C 47.0531,12.8867 42.3864,7.88668 36,4.5C 31.5026,5.19413 27.0026,5.8608 22.5,6.5C 22.5774,5.25025 23.244,4.41691 24.5,4C 24.2716,3.60123 23.9382,3.43456 23.5,3.5C 24.1054,1.51877 25.1054,1.18543 26.5,2.5 Z"/></g>
<g><path style="opacity:0.986" fill="#fbfbfb" d="M 20.5,5.5 C 21.1667,5.83333 21.8333,6.16667 22.5,6.5C 27.0026,5.8608 31.5026,5.19413 36,4.5C 42.3864,7.88668 47.0531,12.8867 50,19.5C 51.8022,39.0312 42.9688,47.8645 23.5,46C 9.00464,38.8454 5.50464,28.012 13,13.5C 15.7827,10.891 18.2827,8.22432 20.5,5.5 Z"/></g>
<g><path style="opacity:0.004" fill="#dddddd" d="M 26.5,2.5 C 26.8417,1.66175 27.5084,1.32842 28.5,1.5C 28.5912,3.69772 27.9245,4.03105 26.5,2.5 Z"/></g>
<g><path style="opacity:0.004" fill="#e8e8e8" d="M 52.5,11.5 C 52.8333,12.1667 53.1667,12.8333 53.5,13.5C 52.8333,13.5 52.5,13.8333 52.5,14.5C 50.4433,14.0433 50.4433,13.0433 52.5,11.5 Z"/></g>
<g><path style="opacity:0.004" fill="#fefffe" d="M 53.5,13.5 C 54.8333,14.1667 54.8333,14.1667 53.5,13.5 Z"/></g>
<g><path style="opacity:1" fill="#363636" d="M 19.5,15.5 C 27.0947,14.4063 29.7614,17.5729 27.5,25C 28.8255,28.4982 31.1588,29.3315 34.5,27.5C 40.3343,28.0523 42.001,31.0523 39.5,36.5C 29.0112,36.8839 22.1779,31.8839 19,21.5C 18.3224,19.4024 18.4891,17.4024 19.5,15.5 Z"/></g>
<g><path style="opacity:0.004" fill="#b8b8b8" d="M 53.5,15.5 C 55.6977,15.4088 56.0311,16.0755 54.5,17.5C 53.6618,17.1583 53.3284,16.4916 53.5,15.5 Z"/></g>
<g><path style="opacity:1" fill="#414141" d="M 31.5,18.5 C 35.5433,18.8526 37.21,20.8526 36.5,24.5C 34.7575,22.4366 33.0908,20.4366 31.5,18.5 Z"/></g>
<g><path style="opacity:1" fill="#3a3a3a" d="M 31.5,14.5 C 38.2274,14.877 41.2274,18.2104 40.5,24.5C 39.5726,22.8872 38.7393,21.2205 38,19.5C 35.5943,17.9134 33.4276,16.2467 31.5,14.5 Z"/></g>
<g><path style="opacity:0.004" fill="#c6c6c6" d="M 56.5,21.5 C 57.1098,22.391 57.4431,23.391 57.5,24.5C 55.6182,23.779 55.2848,22.779 56.5,21.5 Z"/></g>
<g><path style="opacity:0.004" fill="#fefffe" d="M 57.5,25.5 C 58.8333,26.1667 58.8333,26.8333 57.5,27.5C 56.4937,26.6043 56.4937,25.9377 57.5,25.5 Z"/></g>
<g><path style="opacity:1" fill="#ebebeb" d="M 20.5,17.5 C 26.2945,17.427 27.6278,19.7604 24.5,24.5C 26.316,26.8169 28.316,28.9835 30.5,31C 32.0468,31.3334 33.3801,30.8334 34.5,29.5C 35.7362,30.2458 37.0695,30.5792 38.5,30.5C 38.5,32.1667 38.5,33.8333 38.5,35.5C 27.635,34.4796 21.635,28.4796 20.5,17.5 Z"/></g>
<g><path style="opacity:0.008" fill="#969696" d="M 56.5,29.5 C 57.7965,30.8488 57.6298,32.1821 56,33.5C 55.805,32.1807 55.9717,30.8474 56.5,29.5 Z"/></g>
<g><path style="opacity:0.004" fill="#fefffe" d="M 6.5,42.5 C 7.83333,43.1667 7.83333,43.8333 6.5,44.5C 5.49367,44.0623 5.49367,43.3957 6.5,42.5 Z"/></g>
<g><path style="opacity:0.008" fill="#8c8c8c" d="M 50.5,48.5 C 46.9713,47.7027 46.8047,46.7027 50,45.5C 50.4828,46.448 50.6495,47.448 50.5,48.5 Z"/></g>
<g><path style="opacity:0.004" fill="#fefffe" d="M 12.5,49.5 C 13.4734,49.9867 14.4734,50.4867 15.5,51C 13.8425,51.7252 12.8425,51.2252 12.5,49.5 Z"/></g>
<g><path style="opacity:0.008" fill="#b0b0b0" d="M 18.5,55.5 C 18.1667,55.5 17.8333,55.5 17.5,55.5C 17.3505,54.448 17.5172,53.448 18,52.5C 19.7284,53.3523 19.895,54.3523 18.5,55.5 Z"/></g>
<g><path style="opacity:0.004" fill="#c4c4c4" d="M 35.5,54.5 C 36.0431,54.56 36.3764,54.8933 36.5,55.5C 35.635,56.5827 34.635,56.7494 33.5,56C 34.4158,55.7216 35.0825,55.2216 35.5,54.5 Z"/></g>
<g><path style="opacity:0.004" fill="#000000" d="M 21.5,56.5 C 20.8333,57.1667 20.8333,57.1667 21.5,56.5 Z"/></g>
</svg>
