<?xml version="1.0" encoding="UTF-8"?>
<!DOCTYPE svg PUBLIC "-//W3C//DTD SVG 1.1//EN" "http://www.w3.org/Graphics/SVG/1.1/DTD/svg11.dtd">
<svg xmlns="http://www.w3.org/2000/svg" version="1.1" width="500px" height="500px" style="shape-rendering:geometricPrecision; text-rendering:geometricPrecision; image-rendering:optimizeQuality; fill-rule:evenodd; clip-rule:evenodd" xmlns:xlink="http://www.w3.org/1999/xlink">
<g><path style="opacity:0.545" fill="#a5153b" d="M 374.5,116.5 C 372.584,118.977 369.917,119.977 366.5,119.5C 368.684,117.415 371.351,116.415 374.5,116.5 Z"/></g>
<g><path style="opacity:1" fill="#f0123f" d="M 388.5,116.5 C 390.068,119.454 392.401,120.454 395.5,119.5C 396.71,119.932 397.71,120.599 398.5,121.5C 402.033,125.899 404.533,130.899 406,136.5C 407.61,144.858 406.11,152.525 401.5,159.5C 401.167,160.167 400.833,160.833 400.5,161.5C 399.008,164.323 396.674,165.99 393.5,166.5C 384.419,168.057 375.419,167.724 366.5,165.5C 366.027,164.094 365.027,163.427 363.5,163.5C 361.833,162.5 360.5,161.167 359.5,159.5C 357.612,155.715 356.279,151.715 355.5,147.5C 355.253,146.287 354.586,145.62 353.5,145.5C 353.5,144.167 353.5,142.833 353.5,141.5C 355.731,134.371 359.064,127.704 363.5,121.5C 364.29,120.599 365.29,119.932 366.5,119.5C 369.917,119.977 372.584,118.977 374.5,116.5C 379.066,115.203 383.733,115.203 388.5,116.5 Z"/></g>
<g><path style="opacity:0.629" fill="#8e1a36" d="M 388.5,116.5 C 391.241,116.707 393.574,117.707 395.5,119.5C 392.401,120.454 390.068,119.454 388.5,116.5 Z"/></g>
<g><path style="opacity:0.424" fill="#7a1437" d="M 363.5,121.5 C 359.064,127.704 355.731,134.371 353.5,141.5C 353.658,133.184 356.991,126.518 363.5,121.5 Z"/></g>
<g><path style="opacity:0.465" fill="#7e1632" d="M 353.5,145.5 C 354.586,145.62 355.253,146.287 355.5,147.5C 356.279,151.715 357.612,155.715 359.5,159.5C 355.403,155.838 353.403,151.171 353.5,145.5 Z"/></g>
<g><path style="opacity:0.082" fill="#871435" d="M 398.5,121.5 C 407.317,128.781 410.483,138.115 408,149.5C 407.297,153.236 405.797,156.569 403.5,159.5C 402.833,159.5 402.167,159.5 401.5,159.5C 406.11,152.525 407.61,144.858 406,136.5C 404.533,130.899 402.033,125.899 398.5,121.5 Z"/></g>
<g><path style="opacity:0.004" fill="#1a0a16" d="M 401.5,159.5 C 402.167,159.5 402.833,159.5 403.5,159.5C 403.027,160.906 402.027,161.573 400.5,161.5C 400.833,160.833 401.167,160.167 401.5,159.5 Z"/></g>
<g><path style="opacity:0.537" fill="#7c203a" d="M 363.5,163.5 C 365.027,163.427 366.027,164.094 366.5,165.5C 364.973,165.573 363.973,164.906 363.5,163.5 Z"/></g>
<g><path style="opacity:0.554" fill="#959da8" d="M 117.5,165.5 C 183.669,165.168 249.669,165.501 315.5,166.5C 249.669,167.499 183.669,167.832 117.5,167.5C 117.5,166.833 117.5,166.167 117.5,165.5 Z"/></g>
<g><path style="opacity:0.997" fill="#fefefe" d="M 315.5,166.5 C 316.833,166.5 318.167,166.5 319.5,166.5C 319.791,167.649 320.624,168.316 322,168.5C 325.501,169.234 329.001,169.9 332.5,170.5C 334.553,170.402 336.22,171.069 337.5,172.5C 339.818,174.956 342.818,176.289 346.5,176.5C 348.191,177.864 349.858,179.197 351.5,180.5C 352.01,183.674 353.677,186.008 356.5,187.5C 358.245,189.033 359.245,191.033 359.5,193.5C 361.216,198.196 362.55,203.029 363.5,208C 363.684,209.376 364.351,210.209 365.5,210.5C 365.5,211.167 365.5,211.833 365.5,212.5C 364.844,213.622 364.511,214.955 364.5,216.5C 364.585,218.333 365.252,219.666 366.5,220.5C 366.5,231.833 366.5,243.167 366.5,254.5C 364.156,256.718 363.823,259.385 365.5,262.5C 365.583,266.335 364.917,270.002 363.5,273.5C 361.044,275.818 359.711,278.818 359.5,282.5C 358.054,287.061 355.387,290.728 351.5,293.5C 347.856,296.326 343.856,298.66 339.5,300.5C 338.702,300.957 338.369,301.624 338.5,302.5C 338.167,302.5 337.833,302.5 337.5,302.5C 337.44,301.957 337.107,301.624 336.5,301.5C 331.918,303.145 327.251,304.479 322.5,305.5C 321.479,306.002 321.312,306.668 322,307.5C 323.113,308.305 324.279,308.972 325.5,309.5C 324.891,312.878 326.224,314.878 329.5,315.5C 331.262,316.262 332.262,317.596 332.5,319.5C 335.163,324.827 338.33,329.827 342,334.5C 342.671,335.252 343.504,335.586 344.5,335.5C 347.975,339.104 350.975,343.104 353.5,347.5C 354.723,351.049 356.723,354.049 359.5,356.5C 360.189,359.189 361.856,360.856 364.5,361.5C 366.226,363.228 367.559,365.228 368.5,367.5C 368.84,369.679 369.84,371.512 371.5,373C 351.836,373.5 332.169,373.667 312.5,373.5C 311.599,372.71 310.932,371.71 310.5,370.5C 310.715,368.821 310.048,367.821 308.5,367.5C 306.336,365.178 304.669,362.511 303.5,359.5C 303.573,357.973 302.906,356.973 301.5,356.5C 299.902,354.302 298.569,351.969 297.5,349.5C 295.008,345.185 292.508,340.852 290,336.5C 288.887,335.695 287.721,335.028 286.5,334.5C 283.441,330.772 280.774,326.772 278.5,322.5C 277.62,318.048 275.286,314.714 271.5,312.5C 271.683,310.064 271.016,307.897 269.5,306C 235.997,305.169 202.664,305.336 169.5,306.5C 169.5,328.833 169.5,351.167 169.5,373.5C 152.167,373.5 134.833,373.5 117.5,373.5C 117.5,304.833 117.5,236.167 117.5,167.5C 183.669,167.832 249.669,167.499 315.5,166.5 Z M 297.5,213.5 C 298.167,213.5 298.833,213.5 299.5,213.5C 303.008,214.229 306.341,215.562 309.5,217.5C 310.801,218.882 311.634,220.548 312,222.5C 312.667,232.167 312.667,241.833 312,251.5C 311.59,252.901 311.09,254.234 310.5,255.5C 309.251,257.136 307.584,258.303 305.5,259C 302.833,259.333 300.167,259.667 297.5,260C 255.168,260.5 212.835,260.667 170.5,260.5C 170.5,244.833 170.5,229.167 170.5,213.5C 212.833,213.5 255.167,213.5 297.5,213.5 Z"/></g>
<g><path style="opacity:0.975" fill="#c9173d" d="M 366.5,165.5 C 375.419,167.724 384.419,168.057 393.5,166.5C 392.4,167.558 391.066,168.392 389.5,169C 383.833,169.667 378.167,169.667 372.5,169C 370.121,168.284 368.121,167.117 366.5,165.5 Z"/></g>
<g><path style="opacity:0.808" fill="#989faa" d="M 319.5,166.5 C 322.839,166.89 326.173,167.39 329.5,168C 331.119,168.236 332.119,169.069 332.5,170.5C 329.001,169.9 325.501,169.234 322,168.5C 320.624,168.316 319.791,167.649 319.5,166.5 Z"/></g>
<g><path style="opacity:0.969" fill="#aaafb9" d="M 337.5,172.5 C 340.912,173.042 343.912,174.375 346.5,176.5C 342.818,176.289 339.818,174.956 337.5,172.5 Z"/></g>
<g><path style="opacity:0.62" fill="#9497a5" d="M 351.5,180.5 C 353.547,182.55 355.214,184.883 356.5,187.5C 353.677,186.008 352.01,183.674 351.5,180.5 Z"/></g>
<g><path style="opacity:0.541" fill="#989faa" d="M 359.5,193.5 C 361.335,194.122 362.502,195.456 363,197.5C 364.412,201.728 365.246,206.061 365.5,210.5C 364.351,210.209 363.684,209.376 363.5,208C 362.55,203.029 361.216,198.196 359.5,193.5 Z"/></g>
<g><path style="opacity:0.897" fill="#c6cad0" d="M 297.5,213.5 C 255.167,213.5 212.833,213.5 170.5,213.5C 170.5,229.167 170.5,244.833 170.5,260.5C 169.504,244.342 169.17,228.009 169.5,211.5C 212.513,210.839 255.18,211.505 297.5,213.5 Z"/></g>
<g><path style="opacity:0.631" fill="#878f9c" d="M 309.5,217.5 C 306.341,215.562 303.008,214.229 299.5,213.5C 302.068,212.357 304.735,212.524 307.5,214C 308.823,214.816 309.489,215.983 309.5,217.5 Z"/></g>
<g><path style="opacity:0.224" fill="#a4aab5" d="M 365.5,212.5 C 366.473,214.948 366.806,217.615 366.5,220.5C 365.252,219.666 364.585,218.333 364.5,216.5C 364.511,214.955 364.844,213.622 365.5,212.5 Z"/></g>
<g><path style="opacity:0.475" fill="#959ba7" d="M 309.5,217.5 C 312.346,217.809 313.846,219.475 314,222.5C 314.928,233.24 314.595,243.907 313,254.5C 312.329,255.252 311.496,255.586 310.5,255.5C 311.09,254.234 311.59,252.901 312,251.5C 312.667,241.833 312.667,232.167 312,222.5C 311.634,220.548 310.801,218.882 309.5,217.5 Z"/></g>
<g><path style="opacity:0.502" fill="#9199a4" d="M 366.5,254.5 C 366.806,257.385 366.473,260.052 365.5,262.5C 363.823,259.385 364.156,256.718 366.5,254.5 Z"/></g>
<g><path style="opacity:0.165" fill="#90949b" d="M 363.5,273.5 C 363.308,277.102 361.974,280.102 359.5,282.5C 359.711,278.818 361.044,275.818 363.5,273.5 Z"/></g>
<g><path style="opacity:0.329" fill="#8f93a3" d="M 351.5,293.5 C 351.141,295.371 350.141,296.871 348.5,298C 345.467,300.208 342.134,301.708 338.5,302.5C 338.369,301.624 338.702,300.957 339.5,300.5C 343.856,298.66 347.856,296.326 351.5,293.5 Z"/></g>
<g><path style="opacity:0.71" fill="#d9dbe0" d="M 169.5,306.5 C 202.664,305.336 235.997,305.169 269.5,306C 271.016,307.897 271.683,310.064 271.5,312.5C 270.11,311.101 269.11,309.434 268.5,307.5C 235.671,306.502 202.671,306.168 169.5,306.5 Z"/></g>
<g><path style="opacity:0.839" fill="#afb5bf" d="M 337.5,302.5 C 333.544,304.749 329.211,306.249 324.5,307C 325.252,307.671 325.586,308.504 325.5,309.5C 324.279,308.972 323.113,308.305 322,307.5C 321.312,306.668 321.479,306.002 322.5,305.5C 327.251,304.479 331.918,303.145 336.5,301.5C 337.107,301.624 337.44,301.957 337.5,302.5 Z"/></g>
<g><path style="opacity:0.376" fill="#747a87" d="M 271.5,312.5 C 275.286,314.714 277.62,318.048 278.5,322.5C 275.687,319.554 273.354,316.221 271.5,312.5 Z"/></g>
<g><path style="opacity:0.882" fill="#adb5ba" d="M 325.5,309.5 C 327.822,310.802 329.155,312.802 329.5,315.5C 326.224,314.878 324.891,312.878 325.5,309.5 Z"/></g>
<g><path style="opacity:0.729" fill="#969ba6" d="M 332.5,319.5 C 335.757,323.656 339.257,327.656 343,331.5C 343.791,332.745 344.291,334.078 344.5,335.5C 343.504,335.586 342.671,335.252 342,334.5C 338.33,329.827 335.163,324.827 332.5,319.5 Z"/></g>
<g><path style="opacity:0.059" fill="#9096a0" d="M 286.5,334.5 C 287.721,335.028 288.887,335.695 290,336.5C 292.508,340.852 295.008,345.185 297.5,349.5C 292.77,345.414 289.104,340.414 286.5,334.5 Z"/></g>
<g><path style="opacity:0.095" fill="#3c4a5e" d="M 169.5,306.5 C 202.671,306.168 235.671,306.502 268.5,307.5C 235.833,307.5 203.167,307.5 170.5,307.5C 170.831,330.006 170.497,352.34 169.5,374.5C 169.5,374.167 169.5,373.833 169.5,373.5C 169.5,351.167 169.5,328.833 169.5,306.5 Z"/></g>
<g><path style="opacity:0.231" fill="#707a83" d="M 353.5,347.5 C 356.277,349.951 358.277,352.951 359.5,356.5C 356.723,354.049 354.723,351.049 353.5,347.5 Z"/></g>
<g><path style="opacity:0.027" fill="#47495e" d="M 301.5,356.5 C 302.906,356.973 303.573,357.973 303.5,359.5C 302.094,359.027 301.427,358.027 301.5,356.5 Z"/></g>
<g><path style="opacity:0.365" fill="#717e87" d="M 359.5,356.5 C 361.452,357.785 363.118,359.451 364.5,361.5C 361.856,360.856 360.189,359.189 359.5,356.5 Z"/></g>
<g><path style="opacity:0.376" fill="#7a7697" d="M 308.5,367.5 C 310.048,367.821 310.715,368.821 310.5,370.5C 309.599,369.71 308.932,368.71 308.5,367.5 Z"/></g>
<g><path style="opacity:0.305" fill="#485368" d="M 117.5,165.5 C 117.5,166.167 117.5,166.833 117.5,167.5C 117.5,236.167 117.5,304.833 117.5,373.5C 134.833,373.5 152.167,373.5 169.5,373.5C 169.5,373.833 169.5,374.167 169.5,374.5C 151.833,374.5 134.167,374.5 116.5,374.5C 116.167,304.665 116.501,234.998 117.5,165.5 Z"/></g>
<g><path style="opacity:0.302" fill="#657181" d="M 368.5,367.5 C 370.669,369.34 372.002,371.674 372.5,374.5C 352.326,374.83 332.326,374.497 312.5,373.5C 332.169,373.667 351.836,373.5 371.5,373C 369.84,371.512 368.84,369.679 368.5,367.5 Z"/></g>
</svg>
