<?xml version="1.0" encoding="UTF-8"?>
<!DOCTYPE svg PUBLIC "-//W3C//DTD SVG 1.1//EN" "http://www.w3.org/Graphics/SVG/1.1/DTD/svg11.dtd">
<svg xmlns="http://www.w3.org/2000/svg" version="1.1" width="293px" height="293px" style="shape-rendering:geometricPrecision; text-rendering:geometricPrecision; image-rendering:optimizeQuality; fill-rule:evenodd; clip-rule:evenodd" xmlns:xlink="http://www.w3.org/1999/xlink">
<g><path style="opacity:1" fill="#2c8ed0" d="M 29.5,55.5 C 30.9063,55.0269 31.573,54.0269 31.5,52.5C 32.0256,50.7697 33.0256,49.4363 34.5,48.5C 35.9063,48.0269 36.573,47.0269 36.5,45.5C 38.2733,42.9401 40.2733,40.6068 42.5,38.5C 45.0892,37.5806 47.0892,35.914 48.5,33.5C 65.239,17.6366 85.239,8.46997 108.5,6C 163.184,2.91526 201.351,26.4153 223,76.5C 235.389,114.413 229.889,149.413 206.5,181.5C 232.153,207.653 257.986,233.653 284,259.5C 288.368,267.432 286.868,273.932 279.5,279C 274.889,280.007 270.555,279.34 266.5,277C 240.653,250.986 214.653,225.153 188.5,199.5C 156.08,223.014 120.746,228.514 82.5,216C 37.6474,196.449 13.9808,162.116 11.5,113C 12.2059,92.0553 18.2059,72.8886 29.5,55.5 Z M 176.5,51.5 C 176.973,52.9063 177.973,53.573 179.5,53.5C 207.075,84.6285 211.741,118.962 193.5,156.5C 192.094,156.973 191.427,157.973 191.5,159.5C 188.936,162.28 186.603,165.28 184.5,168.5C 182.738,169.262 181.738,170.596 181.5,172.5C 154.717,197.09 124.051,203.59 89.5,192C 46.9377,171.04 30.4377,137.206 40,90.5C 53.7413,52.7745 80.7413,32.4411 121,29.5C 142.146,30.3285 160.646,37.6618 176.5,51.5 Z"/></g>
<g><path style="opacity:0.792" fill="#8cbfe5" d="M 48.5,33.5 C 47.0892,35.914 45.0892,37.5806 42.5,38.5C 43.9108,36.086 45.9108,34.4194 48.5,33.5 Z"/></g>
<g><path style="opacity:0.78" fill="#a0caea" d="M 36.5,45.5 C 36.573,47.0269 35.9063,48.0269 34.5,48.5C 34.427,46.9731 35.0937,45.9731 36.5,45.5 Z"/></g>
<g><path style="opacity:0.678" fill="#a8cfeb" d="M 176.5,51.5 C 178.027,51.427 179.027,52.0937 179.5,53.5C 177.973,53.573 176.973,52.9063 176.5,51.5 Z"/></g>
<g><path style="opacity:0.486" fill="#a3cdeb" d="M 31.5,52.5 C 31.573,54.0269 30.9063,55.0269 29.5,55.5C 29.427,53.9731 30.0937,52.9731 31.5,52.5 Z"/></g>
<g><path style="opacity:0.431" fill="#a7cfeb" d="M 193.5,156.5 C 193.573,158.027 192.906,159.027 191.5,159.5C 191.427,157.973 192.094,156.973 193.5,156.5 Z"/></g>
<g><path style="opacity:0.663" fill="#9ac8e9" d="M 184.5,168.5 C 184.262,170.404 183.262,171.738 181.5,172.5C 181.738,170.596 182.738,169.262 184.5,168.5 Z"/></g>
</svg>
