<?xml version="1.0" encoding="UTF-8"?>
<!DOCTYPE svg PUBLIC "-//W3C//DTD SVG 1.1//EN" "http://www.w3.org/Graphics/SVG/1.1/DTD/svg11.dtd">
<svg xmlns="http://www.w3.org/2000/svg" version="1.1" width="291px" height="500px" style="shape-rendering:geometricPrecision; text-rendering:geometricPrecision; image-rendering:optimizeQuality; fill-rule:evenodd; clip-rule:evenodd" xmlns:xlink="http://www.w3.org/1999/xlink">
<g><path style="opacity:0.999" fill="#dbeff7" d="M 221.5,167.5 C 221.427,169.027 222.094,170.027 223.5,170.5C 233.788,184.874 238.788,201.04 238.5,219C 238.133,248.735 226.133,272.402 202.5,290C 233.729,289.195 257.895,301.695 275,327.5C 289.536,354.166 290.203,381.166 277,408.5C 264.659,429.598 246.493,442.764 222.5,448C 198.864,449.13 175.197,449.63 151.5,449.5C 130.167,449.333 108.833,449.167 87.5,449C 51.21,443.379 28.0433,422.879 18,387.5C 11.2822,344.096 27.7822,313.263 67.5,295C 78.1668,291.239 89.1668,289.573 100.5,290C 69.7982,266.051 58.6315,234.884 67,196.5C 70.3912,184.384 75.8912,173.384 83.5,163.5C 80.0285,160.225 77.8618,156.225 77,151.5C 76.5002,141.839 76.3335,132.172 76.5,122.5C 59.5045,117.668 42.6711,112.335 26,106.5C 25.3333,112.167 25.3333,117.833 26,123.5C 37.083,132.321 41.4163,143.654 39,157.5C 37.8906,159.815 36.0573,161.315 33.5,162C 25.1667,162.667 16.8333,162.667 8.5,162C 5,161.167 2.83333,159 2,155.5C 0.631843,142.907 4.79851,132.574 14.5,124.5C 15.3323,114.183 15.8323,103.849 16,93.5C 17.0314,90.4605 18.8647,87.9605 21.5,86C 55.2923,74.4027 89.2923,63.4027 123.5,53C 142.167,48.3333 160.833,48.3333 179.5,53C 210.105,62.8685 240.772,72.5352 271.5,82C 277.487,83.5659 282.32,86.7325 286,91.5C 287.369,96.4374 286.203,100.604 282.5,104C 264.129,111.068 245.462,117.235 226.5,122.5C 226.666,131.839 226.5,141.173 226,150.5C 225.364,155.626 223.197,159.959 219.5,163.5C 220.18,164.86 220.847,166.193 221.5,167.5 Z M 138.5,59.5 C 151.705,58.6732 164.705,59.8399 177.5,63C 209.833,73.3333 242.167,83.6667 274.5,94C 274.957,94.414 275.291,94.914 275.5,95.5C 272.495,97.671 269.161,99.171 265.5,100C 233.5,110 201.5,120 169.5,130C 156.09,132.243 142.757,131.91 129.5,129C 100.894,119.798 72.2277,110.798 43.5,102C 37.4766,100.439 31.8099,98.1059 26.5,95C 63.733,82.4203 101.066,70.587 138.5,59.5 Z M 86.5,126.5 C 100.239,130.357 113.905,134.523 127.5,139C 143.496,142.307 159.496,142.307 175.5,139C 189.095,134.523 202.761,130.357 216.5,126.5C 216.666,134.174 216.5,141.841 216,149.5C 215.31,152.196 213.81,154.363 211.5,156C 191.562,157.149 171.562,157.649 151.5,157.5C 131.438,157.649 111.438,157.149 91.5,156C 89.6217,154.457 88.1217,152.624 87,150.5C 86.5003,142.507 86.3336,134.507 86.5,126.5 Z M 19.5,132.5 C 21.3904,132.297 22.8904,132.963 24,134.5C 27.4628,140.057 29.6295,146.057 30.5,152.5C 24.1667,152.5 17.8333,152.5 11.5,152.5C 11.9532,144.93 14.6199,138.263 19.5,132.5 Z M 88.5,264.5 C 88.573,262.973 87.9063,261.973 86.5,261.5C 86.573,259.973 85.9063,258.973 84.5,258.5C 68.6308,226.363 71.6308,196.196 93.5,168C 132.171,167.167 170.838,167.333 209.5,168.5C 231.037,195.754 234.203,225.087 219,256.5C 197.528,289.808 167.361,301.975 128.5,293C 112.222,287.544 98.8891,278.044 88.5,264.5 Z M 85.5,300.5 C 97.1714,300.333 108.838,300.5 120.5,301C 140.854,308.299 161.187,308.299 181.5,301C 207.106,296.186 230.439,301.186 251.5,316C 277.836,341.179 283.336,370.346 268,403.5C 255.851,423.673 238.017,435.507 214.5,439C 172.5,439.667 130.5,439.667 88.5,439C 54.6813,433.515 34.1813,414.015 27,380.5C 23.6381,346.384 37.1381,321.551 67.5,306C 73.5345,303.818 79.5345,301.985 85.5,300.5 Z"/></g>
<g><path style="opacity:0.565" fill="#ecf6fa" d="M 221.5,167.5 C 222.906,167.973 223.573,168.973 223.5,170.5C 222.094,170.027 221.427,169.027 221.5,167.5 Z"/></g>
<g><path style="opacity:0.565" fill="#ecf6fa" d="M 84.5,258.5 C 85.9063,258.973 86.573,259.973 86.5,261.5C 85.0937,261.027 84.427,260.027 84.5,258.5 Z"/></g>
<g><path style="opacity:0.565" fill="#ecf6fb" d="M 86.5,261.5 C 87.9063,261.973 88.573,262.973 88.5,264.5C 87.0937,264.027 86.427,263.027 86.5,261.5 Z"/></g>
</svg>
