<?xml version="1.0" encoding="UTF-8"?>
<!DOCTYPE svg PUBLIC "-//W3C//DTD SVG 1.1//EN" "http://www.w3.org/Graphics/SVG/1.1/DTD/svg11.dtd">
<svg xmlns="http://www.w3.org/2000/svg" version="1.1" width="407px" height="500px" style="shape-rendering:geometricPrecision; text-rendering:geometricPrecision; image-rendering:optimizeQuality; fill-rule:evenodd; clip-rule:evenodd" xmlns:xlink="http://www.w3.org/1999/xlink">
<g><path style="opacity:0.999" fill="#dceff7" d="M 297.5,170.5 C 295.52,182.789 294.853,195.456 295.5,208.5C 295.553,213.007 294.22,217.007 291.5,220.5C 290.957,220.56 290.624,220.893 290.5,221.5C 313.49,222.5 336.49,222.833 359.5,222.5C 365.907,223.202 370.907,226.202 374.5,231.5C 374.427,233.027 375.094,234.027 376.5,234.5C 378.446,236.734 379.613,239.401 380,242.5C 380.667,262.167 380.667,281.833 380,301.5C 379.203,305.75 377.37,309.417 374.5,312.5C 373.711,312.783 373.044,313.283 372.5,314C 375.146,314.497 377.813,314.664 380.5,314.5C 390.712,316.031 397.545,321.698 401,331.5C 401.667,353.167 401.667,374.833 401,396.5C 397.224,406.475 390.057,412.308 379.5,414C 278.798,414.989 178.131,414.655 77.5,413C 68.5992,409.765 62.7659,403.598 60,394.5C 59.3333,374.167 59.3333,353.833 60,333.5C 61.0859,329.654 62.9193,326.32 65.5,323.5C 66.0431,323.44 66.3764,323.107 66.5,322.5C 65.3112,321.571 63.9778,321.238 62.5,321.5C 57.0318,321.791 52.3651,320.124 48.5,316.5C 48.0269,315.094 47.0269,314.427 45.5,314.5C 41.5463,310.687 39.0463,306.021 38,300.5C 37.3333,281.167 37.3333,261.833 38,242.5C 38.3874,239.401 39.5541,236.734 41.5,234.5C 42.9063,234.027 43.573,233.027 43.5,231.5C 47.0928,226.202 52.0928,223.202 58.5,222.5C 74.8469,222.833 91.1803,222.499 107.5,221.5C 107.376,220.893 107.043,220.56 106.5,220.5C 104.503,217.84 103.003,214.84 102,211.5C 101.833,198.154 101.333,184.821 100.5,171.5C 76.4998,163.878 52.6665,155.878 29,147.5C 28.1679,156.851 28.3346,166.184 29.5,175.5C 43.2507,186.263 49.084,200.263 47,217.5C 45.7494,220.381 43.5827,222.214 40.5,223C 29.0944,223.933 17.761,223.6 6.5,222C 2.59159,218.783 0.924926,214.616 1.5,209.5C 1.66015,201.686 3.99349,194.686 8.5,188.5C 9.90632,188.027 10.573,187.027 10.5,185.5C 12.5,181.5 15.5,178.5 19.5,176.5C 21.4828,162.539 22.1495,148.206 21.5,133.5C 24.1821,128.134 28.5154,124.634 34.5,123C 78.7864,108.845 123.12,94.8452 167.5,81C 189.582,76.1146 211.582,76.4479 233.5,82C 276.772,95.8685 320.105,109.535 363.5,123C 370.687,125.022 375.354,129.522 377.5,136.5C 375.823,142.348 372.156,146.514 366.5,149C 343.634,156.678 320.634,163.845 297.5,170.5 Z M 194.5,85.5 C 206.672,85.6807 218.672,87.1807 230.5,90C 273.772,103.869 317.105,117.535 360.5,131C 363.726,132.106 366.393,133.939 368.5,136.5C 367.307,138.527 365.64,140.027 363.5,141C 316.956,156.07 270.289,170.737 223.5,185C 204.341,188.711 185.341,188.044 166.5,183C 123.228,169.131 79.8945,155.465 36.5,142C 27.0839,137.772 27.4173,134.105 37.5,131C 83.4391,116.465 129.439,102.131 175.5,88C 181.977,87.1379 188.311,86.3046 194.5,85.5 Z M 286.5,174.5 C 287.495,185.988 287.828,197.655 287.5,209.5C 286.833,211.167 286.167,212.833 285.5,214.5C 284.094,214.973 283.427,215.973 283.5,217.5C 281.002,218.912 278.336,220.079 275.5,221C 224.167,221.667 172.833,221.667 121.5,221C 116.427,219.594 112.927,216.428 111,211.5C 109.606,199.22 109.106,186.886 109.5,174.5C 129.905,180.357 150.238,186.523 170.5,193C 189.17,196.312 207.836,196.312 226.5,193C 246.609,187.13 266.609,180.963 286.5,174.5 Z M 22.5,183.5 C 24.1992,183.34 25.8659,183.506 27.5,184C 34.0861,191.247 38.0861,199.747 39.5,209.5C 39.6738,211.693 39.0071,213.527 37.5,215C 28.8333,215.667 20.1667,215.667 11.5,215C 10.8742,214.25 10.3742,213.416 10,212.5C 10.3207,201.19 14.4874,191.524 22.5,183.5 Z M 62.5,229.5 C 160.167,229.333 257.834,229.5 355.5,230C 365,231.5 370.5,237 372,246.5C 372.932,264.878 372.599,283.211 371,301.5C 368.414,307.088 364.247,310.921 358.5,313C 258.833,313.667 159.167,313.667 59.5,313C 53.7531,310.921 49.5864,307.088 47,301.5C 45.4023,283.544 45.069,265.544 46,247.5C 47.2234,237.448 52.7234,231.448 62.5,229.5 Z M 386.5,325.5 C 387.167,326.833 388.167,327.833 389.5,328.5C 391.18,330.527 392.347,332.861 393,335.5C 393.667,354.5 393.667,373.5 393,392.5C 390.833,398.667 386.667,402.833 380.5,405C 280.5,405.667 180.5,405.667 80.5,405C 73.4545,402.623 69.2878,397.79 68,390.5C 67.3333,372.833 67.3333,355.167 68,337.5C 69.2878,330.21 73.4545,325.377 80.5,323C 180.833,322.333 281.167,322.333 381.5,323C 383.193,323.847 384.86,324.68 386.5,325.5 Z"/></g>
<g><path style="opacity:0.504" fill="#ebf6fb" d="M 21.5,133.5 C 22.1495,148.206 21.4828,162.539 19.5,176.5C 20.1509,162.068 20.8176,147.735 21.5,133.5 Z"/></g>
<g><path style="opacity:0.251" fill="#f4fafc" d="M 297.5,170.5 C 296.851,183.265 296.185,195.932 295.5,208.5C 294.853,195.456 295.52,182.789 297.5,170.5 Z"/></g>
<g><path style="opacity:0.251" fill="#f3fafc" d="M 286.5,174.5 C 286.56,173.957 286.893,173.624 287.5,173.5C 288.825,185.66 288.825,197.66 287.5,209.5C 287.828,197.655 287.495,185.988 286.5,174.5 Z"/></g>
<g><path style="opacity:0.565" fill="#ecf6fa" d="M 10.5,185.5 C 10.573,187.027 9.90632,188.027 8.5,188.5C 8.42702,186.973 9.09368,185.973 10.5,185.5 Z"/></g>
<g><path style="opacity:0.812" fill="#ecf6fb" d="M 285.5,214.5 C 285.573,216.027 284.906,217.027 283.5,217.5C 283.427,215.973 284.094,214.973 285.5,214.5 Z"/></g>
<g><path style="opacity:0.749" fill="#e3f2f8" d="M 106.5,220.5 C 107.043,220.56 107.376,220.893 107.5,221.5C 91.1803,222.499 74.8469,222.833 58.5,222.5C 74.5,221.833 90.5,221.167 106.5,220.5 Z"/></g>
<g><path style="opacity:0.749" fill="#e3f2f8" d="M 291.5,220.5 C 314.167,221.167 336.833,221.833 359.5,222.5C 336.49,222.833 313.49,222.5 290.5,221.5C 290.624,220.893 290.957,220.56 291.5,220.5 Z"/></g>
<g><path style="opacity:0.502" fill="#edf7fb" d="M 43.5,231.5 C 43.573,233.027 42.9063,234.027 41.5,234.5C 41.427,232.973 42.0937,231.973 43.5,231.5 Z"/></g>
<g><path style="opacity:0.565" fill="#ecf6fa" d="M 374.5,231.5 C 375.906,231.973 376.573,232.973 376.5,234.5C 375.094,234.027 374.427,233.027 374.5,231.5 Z"/></g>
<g><path style="opacity:1" fill="#daeff7" d="M 72.5,250.5 C 162.167,250.333 251.834,250.5 341.5,251C 343.648,253.075 343.982,255.408 342.5,258C 252.165,258.833 161.831,258.667 71.5,257.5C 70.073,254.884 70.4063,252.551 72.5,250.5 Z"/></g>
<g><path style="opacity:1" fill="#d9eef7" d="M 72.5,285.5 C 162.167,285.333 251.834,285.5 341.5,286C 343.673,287.865 344.007,290.031 342.5,292.5C 252.502,293.667 162.502,293.833 72.5,293C 69.9142,290.506 69.9142,288.006 72.5,285.5 Z"/></g>
<g><path style="opacity:0.498" fill="#f0f8fb" d="M 374.5,312.5 C 376.5,313.167 378.5,313.833 380.5,314.5C 377.813,314.664 375.146,314.497 372.5,314C 373.044,313.283 373.711,312.783 374.5,312.5 Z"/></g>
<g><path style="opacity:0.816" fill="#ecf6fa" d="M 45.5,314.5 C 47.0269,314.427 48.0269,315.094 48.5,316.5C 46.9731,316.573 45.9731,315.906 45.5,314.5 Z"/></g>
<g><path style="opacity:0.251" fill="#f5fbfd" d="M 62.5,321.5 C 63.9778,321.238 65.3112,321.571 66.5,322.5C 66.3764,323.107 66.0431,323.44 65.5,323.5C 64.5,322.833 63.5,322.167 62.5,321.5 Z"/></g>
<g><path style="opacity:0.816" fill="#eef7fb" d="M 386.5,325.5 C 388.5,325.5 389.5,326.5 389.5,328.5C 388.167,327.833 387.167,326.833 386.5,325.5 Z"/></g>
<g><path style="opacity:1" fill="#ddf0f8" d="M 95.5,341.5 C 184.501,341.333 273.501,341.5 362.5,342C 365.306,343.305 366.14,345.472 365,348.5C 364.25,349.126 363.416,349.626 362.5,350C 273.5,350.667 184.5,350.667 95.5,350C 91.5329,347.034 91.5329,344.201 95.5,341.5 Z"/></g>
<g><path style="opacity:0.498" fill="#ecf7fb" d="M 363.5,377.5 C 273.459,377.172 183.459,377.505 93.5,378.5C 93.6107,377.883 93.944,377.383 94.5,377C 184.334,376.168 274.001,376.334 363.5,377.5 Z"/></g>
<g><path style="opacity:1" fill="#dbeff7" d="M 363.5,377.5 C 365.441,379.011 365.941,381.011 365,383.5C 364.25,384.126 363.416,384.626 362.5,385C 273.5,385.667 184.5,385.667 95.5,385C 92.7082,383.313 92.0415,381.147 93.5,378.5C 183.459,377.505 273.459,377.172 363.5,377.5 Z"/></g>
</svg>
