<?xml version="1.0" encoding="UTF-8"?>
<!DOCTYPE svg PUBLIC "-//W3C//DTD SVG 1.1//EN" "http://www.w3.org/Graphics/SVG/1.1/DTD/svg11.dtd">
<svg xmlns="http://www.w3.org/2000/svg" version="1.1" width="289px" height="500px" style="shape-rendering:geometricPrecision; text-rendering:geometricPrecision; image-rendering:optimizeQuality; fill-rule:evenodd; clip-rule:evenodd" xmlns:xlink="http://www.w3.org/1999/xlink">
<g><path style="opacity:1" fill="#dbeff7" d="M 16.5,138.5 C 17.9063,138.027 18.573,137.027 18.5,135.5C 23.9183,127.945 31.2516,123.112 40.5,121C 54.1626,120.5 67.8293,120.333 81.5,120.5C 81.3334,107.163 81.5001,93.8292 82,80.5C 85.0474,65.8778 93.5474,56.0445 107.5,51C 155.121,49.3529 202.788,49.0195 250.5,50C 267.456,54.9527 277.289,66.1194 280,83.5C 280.667,194.167 280.667,304.833 280,415.5C 277.289,432.881 267.456,444.047 250.5,449C 180.5,449.667 110.5,449.667 40.5,449C 24.275,445.073 14.4417,434.907 11,418.5C 10.3333,329.5 10.3333,240.5 11,151.5C 11.7838,146.627 13.6171,142.294 16.5,138.5 Z M 241.5,440.5 C 226.324,440.829 211.324,440.496 196.5,439.5C 204.062,433.38 208.229,425.38 209,415.5C 209.985,326.47 209.651,237.47 208,148.5C 203.429,134.263 193.929,125.096 179.5,121C 149.835,120.5 120.169,120.333 90.5,120.5C 90.3335,109.495 90.5002,98.495 91,87.5C 92.1565,73.991 98.9898,64.8243 111.5,60C 156.129,58.3595 200.795,58.0261 245.5,59C 258.589,61.7569 266.756,69.5902 270,82.5C 270.667,193.833 270.667,305.167 270,416.5C 266.169,431.16 256.669,439.16 241.5,440.5 Z M 136.5,387.5 C 136.573,385.973 135.906,384.973 134.5,384.5C 133.118,383.199 131.452,382.366 129.5,382C 116.167,381.333 102.833,381.333 89.5,382C 85.2518,383.413 82.5852,386.246 81.5,390.5C 80.5035,406.992 80.1702,423.658 80.5,440.5C 69.8333,440.5 59.1667,440.5 48.5,440.5C 34.7173,438.879 25.5506,431.546 21,418.5C 20.3333,329.5 20.3333,240.5 21,151.5C 25.0186,139.578 33.1853,132.412 45.5,130C 88.1667,129.333 130.833,129.333 173.5,130C 187.135,132.303 195.635,140.137 199,153.5C 199.167,197.333 199.333,241.167 199.5,285C 199.657,330.211 199.157,375.378 198,420.5C 194.434,429.732 187.934,435.899 178.5,439C 165.202,440.737 151.868,440.904 138.5,439.5C 139.65,424.211 139.817,408.878 139,393.5C 138.76,391.148 137.927,389.148 136.5,387.5 Z M 46.5,169.5 C 53.1667,169.5 59.8333,169.5 66.5,169.5C 66.5,173.5 66.5,177.5 66.5,181.5C 59.8333,181.5 53.1667,181.5 46.5,181.5C 46.5,177.5 46.5,173.5 46.5,169.5 Z M 120.5,169.5 C 120.5,173.5 120.5,177.5 120.5,181.5C 113.5,181.5 106.5,181.5 99.5,181.5C 99.5,177.5 99.5,173.5 99.5,169.5C 106.5,169.5 113.5,169.5 120.5,169.5 Z M 152.5,169.5 C 159.5,169.5 166.5,169.5 173.5,169.5C 173.5,173.5 173.5,177.5 173.5,181.5C 166.5,181.5 159.5,181.5 152.5,181.5C 152.5,177.5 152.5,173.5 152.5,169.5 Z M 99.5,211.5 C 106.5,211.5 113.5,211.5 120.5,211.5C 120.5,215.5 120.5,219.5 120.5,223.5C 113.5,223.5 106.5,223.5 99.5,223.5C 99.5,219.5 99.5,215.5 99.5,211.5 Z M 173.5,211.5 C 173.5,215.5 173.5,219.5 173.5,223.5C 166.5,223.5 159.5,223.5 152.5,223.5C 152.5,219.5 152.5,215.5 152.5,211.5C 159.5,211.5 166.5,211.5 173.5,211.5 Z M 46.5,211.5 C 53.1667,211.5 59.8333,211.5 66.5,211.5C 66.5,215.5 66.5,219.5 66.5,223.5C 59.8333,223.5 53.1667,223.5 46.5,223.5C 46.5,219.5 46.5,215.5 46.5,211.5 Z M 99.5,254.5 C 106.5,254.5 113.5,254.5 120.5,254.5C 120.5,258.167 120.5,261.833 120.5,265.5C 113.5,265.5 106.5,265.5 99.5,265.5C 99.5,261.833 99.5,258.167 99.5,254.5 Z M 173.5,254.5 C 173.5,258.167 173.5,261.833 173.5,265.5C 166.5,265.5 159.5,265.5 152.5,265.5C 152.5,261.833 152.5,258.167 152.5,254.5C 159.5,254.5 166.5,254.5 173.5,254.5 Z M 46.5,254.5 C 53.1667,254.5 59.8333,254.5 66.5,254.5C 66.5,258.167 66.5,261.833 66.5,265.5C 59.8333,265.5 53.1667,265.5 46.5,265.5C 46.5,261.833 46.5,258.167 46.5,254.5 Z M 99.5,296.5 C 106.5,296.5 113.5,296.5 120.5,296.5C 120.5,300.5 120.5,304.5 120.5,308.5C 113.5,308.5 106.5,308.5 99.5,308.5C 99.5,304.5 99.5,300.5 99.5,296.5 Z M 152.5,296.5 C 159.5,296.5 166.5,296.5 173.5,296.5C 173.5,300.5 173.5,304.5 173.5,308.5C 166.5,308.5 159.5,308.5 152.5,308.5C 152.5,304.5 152.5,300.5 152.5,296.5 Z M 46.5,296.5 C 53.1667,296.5 59.8333,296.5 66.5,296.5C 66.5,300.5 66.5,304.5 66.5,308.5C 59.8333,308.5 53.1667,308.5 46.5,308.5C 46.5,304.5 46.5,300.5 46.5,296.5 Z M 46.5,339.5 C 53.1667,339.5 59.8333,339.5 66.5,339.5C 66.5,343.167 66.5,346.833 66.5,350.5C 59.8333,350.5 53.1667,350.5 46.5,350.5C 46.5,346.833 46.5,343.167 46.5,339.5 Z M 120.5,339.5 C 120.5,343.167 120.5,346.833 120.5,350.5C 113.5,350.5 106.5,350.5 99.5,350.5C 99.5,346.833 99.5,343.167 99.5,339.5C 106.5,339.5 113.5,339.5 120.5,339.5 Z M 152.5,339.5 C 159.5,339.5 166.5,339.5 173.5,339.5C 173.5,343.167 173.5,346.833 173.5,350.5C 166.5,350.5 159.5,350.5 152.5,350.5C 152.5,346.833 152.5,343.167 152.5,339.5 Z M 91.5,391.5 C 103.851,391.168 116.185,391.501 128.5,392.5C 129.827,408.03 129.827,423.53 128.5,439C 122.27,440.127 115.937,440.627 109.5,440.5C 103.833,440.333 98.1667,440.167 92.5,440C 92,439.5 91.5,439 91,438.5C 90.1835,422.759 90.3501,407.092 91.5,391.5 Z"/></g>
<g><path style="opacity:0.565" fill="#ecf6fa" d="M 18.5,135.5 C 18.573,137.027 17.9063,138.027 16.5,138.5C 16.427,136.973 17.0937,135.973 18.5,135.5 Z"/></g>
<g><path style="opacity:1" fill="#daeff7" d="M 74.5,163.5 C 75.4304,170.777 75.7637,178.11 75.5,185.5C 75.0844,187.752 73.751,189.252 71.5,190C 61.5,190.667 51.5,190.667 41.5,190C 39.3333,189.167 37.8333,187.667 37,185.5C 36.3333,178.833 36.3333,172.167 37,165.5C 38.1667,163 40,161.167 42.5,160C 51.5,159.333 60.5,159.333 69.5,160C 71.8808,160.223 73.5475,161.39 74.5,163.5 Z M 46.5,169.5 C 46.5,173.5 46.5,177.5 46.5,181.5C 53.1667,181.5 59.8333,181.5 66.5,181.5C 66.5,177.5 66.5,173.5 66.5,169.5C 59.8333,169.5 53.1667,169.5 46.5,169.5 Z"/></g>
<g><path style="opacity:1" fill="#daeef7" d="M 126.5,161.5 C 126.427,163.027 127.094,164.027 128.5,164.5C 129.655,171.655 129.822,178.988 129,186.5C 127.833,187.667 126.667,188.833 125.5,190C 115.167,190.667 104.833,190.667 94.5,190C 92.4476,189.07 90.9476,187.57 90,185.5C 89.3333,178.833 89.3333,172.167 90,165.5C 90.7845,163.714 91.9512,162.214 93.5,161C 98.5583,159.884 103.725,159.384 109,159.5C 113.5,159.667 118,159.833 122.5,160C 123.901,160.41 125.234,160.91 126.5,161.5 Z M 120.5,169.5 C 120.5,173.5 120.5,177.5 120.5,181.5C 113.5,181.5 106.5,181.5 99.5,181.5C 99.5,177.5 99.5,173.5 99.5,169.5C 106.5,169.5 113.5,169.5 120.5,169.5 Z"/></g>
<g><path style="opacity:1" fill="#daeef7" d="M 180.5,162.5 C 180.427,164.027 181.094,165.027 182.5,165.5C 183.653,171.653 183.82,177.986 183,184.5C 182.293,186.081 181.46,187.581 180.5,189C 169.598,190.62 158.598,190.954 147.5,190C 146.333,188.833 145.167,187.667 144,186.5C 143.333,179.167 143.333,171.833 144,164.5C 144.93,162.448 146.43,160.948 148.5,160C 157.5,159.333 166.5,159.333 175.5,160C 177.653,160.099 179.319,160.933 180.5,162.5 Z M 152.5,169.5 C 159.5,169.5 166.5,169.5 173.5,169.5C 173.5,173.5 173.5,177.5 173.5,181.5C 166.5,181.5 159.5,181.5 152.5,181.5C 152.5,177.5 152.5,173.5 152.5,169.5 Z"/></g>
<g><path style="opacity:0.565" fill="#edf6fb" d="M 126.5,161.5 C 127.906,161.973 128.573,162.973 128.5,164.5C 127.094,164.027 126.427,163.027 126.5,161.5 Z"/></g>
<g><path style="opacity:0.565" fill="#ecf6fb" d="M 180.5,162.5 C 181.906,162.973 182.573,163.973 182.5,165.5C 181.094,165.027 180.427,164.027 180.5,162.5 Z"/></g>
<g><path style="opacity:0.749" fill="#e4f2f9" d="M 74.5,163.5 C 75.1174,163.611 75.6174,163.944 76,164.5C 76.8213,171.679 76.6546,178.679 75.5,185.5C 75.7637,178.11 75.4304,170.777 74.5,163.5 Z"/></g>
<g><path style="opacity:0.753" fill="#e4f2f9" d="M 120.5,169.5 C 113.5,169.5 106.5,169.5 99.5,169.5C 99.5,173.5 99.5,177.5 99.5,181.5C 98.5151,177.366 98.1818,173.032 98.5,168.5C 106.019,168.175 113.352,168.508 120.5,169.5 Z"/></g>
<g><path style="opacity:0.753" fill="#e4f2f9" d="M 152.5,169.5 C 159.648,168.508 166.981,168.175 174.5,168.5C 174.818,173.032 174.485,177.366 173.5,181.5C 173.5,177.5 173.5,173.5 173.5,169.5C 166.5,169.5 159.5,169.5 152.5,169.5 Z"/></g>
<g><path style="opacity:1" fill="#daeef7" d="M 41.5,202.5 C 52.2702,202.047 62.9369,202.547 73.5,204C 74.7014,204.903 75.5348,206.069 76,207.5C 76.6667,214.5 76.6667,221.5 76,228.5C 74.8333,230.333 73.3333,231.833 71.5,233C 61.8333,233.667 52.1667,233.667 42.5,233C 40.0607,232.226 38.2273,230.726 37,228.5C 36.3333,221.5 36.3333,214.5 37,207.5C 38.025,205.313 39.525,203.646 41.5,202.5 Z M 46.5,211.5 C 53.1667,211.5 59.8333,211.5 66.5,211.5C 66.5,215.5 66.5,219.5 66.5,223.5C 59.8333,223.5 53.1667,223.5 46.5,223.5C 46.5,219.5 46.5,215.5 46.5,211.5 Z"/></g>
<g><path style="opacity:1" fill="#daeff7" d="M 94.5,202.5 C 104.839,202.334 115.172,202.5 125.5,203C 126.667,204.167 127.833,205.333 129,206.5C 129.934,214.605 129.601,222.605 128,230.5C 126.745,231.211 125.579,232.044 124.5,233C 114.067,233.95 103.734,233.617 93.5,232C 91.9512,230.786 90.7845,229.286 90,227.5C 89.3333,221.167 89.3333,214.833 90,208.5C 90.9793,206.032 92.4793,204.032 94.5,202.5 Z M 99.5,211.5 C 106.5,211.5 113.5,211.5 120.5,211.5C 120.5,215.5 120.5,219.5 120.5,223.5C 113.5,223.5 106.5,223.5 99.5,223.5C 99.5,219.5 99.5,215.5 99.5,211.5 Z"/></g>
<g><path style="opacity:0.999" fill="#daeff7" d="M 179.5,203.5 C 179.427,205.027 180.094,206.027 181.5,206.5C 182.117,206.611 182.617,206.944 183,207.5C 183.667,213.833 183.667,220.167 183,226.5C 182.654,228.848 181.487,230.681 179.5,232C 169.6,233.615 159.6,233.949 149.5,233C 147.671,232.727 146.171,231.893 145,230.5C 143.399,222.605 143.066,214.605 144,206.5C 145.167,205.333 146.333,204.167 147.5,203C 158.243,202.192 168.91,202.358 179.5,203.5 Z M 173.5,211.5 C 173.5,215.5 173.5,219.5 173.5,223.5C 166.5,223.5 159.5,223.5 152.5,223.5C 152.5,219.5 152.5,215.5 152.5,211.5C 159.5,211.5 166.5,211.5 173.5,211.5 Z"/></g>
<g><path style="opacity:0.565" fill="#edf6fb" d="M 179.5,203.5 C 180.906,203.973 181.573,204.973 181.5,206.5C 180.094,206.027 179.427,205.027 179.5,203.5 Z"/></g>
<g><path style="opacity:0.498" fill="#eff8fb" d="M 46.5,211.5 C 46.5,215.5 46.5,219.5 46.5,223.5C 53.1667,223.5 59.8333,223.5 66.5,223.5C 66.5,219.5 66.5,215.5 66.5,211.5C 67.4849,215.634 67.8182,219.968 67.5,224.5C 60.1667,224.5 52.8333,224.5 45.5,224.5C 45.1818,219.968 45.5151,215.634 46.5,211.5 Z M 46.5,211.5 C 53.1667,211.5 59.8333,211.5 66.5,211.5C 66.5,215.5 66.5,219.5 66.5,223.5C 59.8333,223.5 53.1667,223.5 46.5,223.5C 46.5,219.5 46.5,215.5 46.5,211.5 Z"/></g>
<g><path style="opacity:0.498" fill="#ebf6fa" d="M 99.5,211.5 C 99.5,215.5 99.5,219.5 99.5,223.5C 106.5,223.5 113.5,223.5 120.5,223.5C 113.352,224.492 106.019,224.825 98.5,224.5C 98.1818,219.968 98.5151,215.634 99.5,211.5 Z"/></g>
<g><path style="opacity:0.498" fill="#ebf6fa" d="M 173.5,211.5 C 174.485,215.634 174.818,219.968 174.5,224.5C 166.981,224.825 159.648,224.492 152.5,223.5C 159.5,223.5 166.5,223.5 173.5,223.5C 173.5,219.5 173.5,215.5 173.5,211.5 Z"/></g>
<g><path style="opacity:1" fill="#daeef7" d="M 41.5,244.5 C 51.1724,244.334 60.8391,244.5 70.5,245C 72.9393,245.774 74.7727,247.274 76,249.5C 76.9313,257.272 76.5979,264.939 75,272.5C 74.0975,273.701 72.9308,274.535 71.5,275C 60.7347,275.952 50.0681,275.619 39.5,274C 38.2986,273.097 37.4652,271.931 37,270.5C 36.3333,263.5 36.3333,256.5 37,249.5C 38.3657,247.638 39.8657,245.972 41.5,244.5 Z M 46.5,254.5 C 46.5,258.167 46.5,261.833 46.5,265.5C 53.1667,265.5 59.8333,265.5 66.5,265.5C 66.5,261.833 66.5,258.167 66.5,254.5C 59.8333,254.5 53.1667,254.5 46.5,254.5 Z"/></g>
<g><path style="opacity:0.999" fill="#daeff7" d="M 94.5,274.5 C 94.0269,273.094 93.0269,272.427 91.5,272.5C 91.2172,271.711 90.7172,271.044 90,270.5C 89.3333,263.833 89.3333,257.167 90,250.5C 90.7845,248.714 91.9512,247.214 93.5,246C 98.7258,244.882 104.059,244.382 109.5,244.5C 115.246,244.406 120.913,244.906 126.5,246C 127.701,246.903 128.535,248.069 129,249.5C 129.667,256.833 129.667,264.167 129,271.5C 127.833,272.667 126.667,273.833 125.5,275C 114.992,275.825 104.658,275.659 94.5,274.5 Z M 99.5,254.5 C 106.5,254.5 113.5,254.5 120.5,254.5C 120.5,258.167 120.5,261.833 120.5,265.5C 113.5,265.5 106.5,265.5 99.5,265.5C 99.5,261.833 99.5,258.167 99.5,254.5 Z"/></g>
<g><path style="opacity:1" fill="#daeff7" d="M 148.5,244.5 C 158.938,244.049 169.271,244.549 179.5,246C 181.049,247.214 182.215,248.714 183,250.5C 183.667,256.833 183.667,263.167 183,269.5C 182.226,271.939 180.726,273.773 178.5,275C 168.167,275.667 157.833,275.667 147.5,275C 146.333,273.833 145.167,272.667 144,271.5C 143.333,264.167 143.333,256.833 144,249.5C 145.025,247.313 146.525,245.646 148.5,244.5 Z M 173.5,254.5 C 173.5,258.167 173.5,261.833 173.5,265.5C 166.5,265.5 159.5,265.5 152.5,265.5C 152.5,261.833 152.5,258.167 152.5,254.5C 159.5,254.5 166.5,254.5 173.5,254.5 Z"/></g>
<g><path style="opacity:0.247" fill="#f2f9fc" d="M 45.5,253.5 C 52.8333,253.5 60.1667,253.5 67.5,253.5C 67.5,257.833 67.5,262.167 67.5,266.5C 60.1667,266.5 52.8333,266.5 45.5,266.5C 45.5,262.167 45.5,257.833 45.5,253.5 Z M 46.5,254.5 C 46.5,258.167 46.5,261.833 46.5,265.5C 53.1667,265.5 59.8333,265.5 66.5,265.5C 66.5,261.833 66.5,258.167 66.5,254.5C 59.8333,254.5 53.1667,254.5 46.5,254.5 Z"/></g>
<g><path style="opacity:0.247" fill="#f2f9fc" d="M 99.5,254.5 C 99.5,258.167 99.5,261.833 99.5,265.5C 106.5,265.5 113.5,265.5 120.5,265.5C 113.352,266.492 106.019,266.825 98.5,266.5C 98.1832,262.298 98.5166,258.298 99.5,254.5 Z"/></g>
<g><path style="opacity:0.247" fill="#f2f9fc" d="M 173.5,254.5 C 174.483,258.298 174.817,262.298 174.5,266.5C 166.981,266.825 159.648,266.492 152.5,265.5C 159.5,265.5 166.5,265.5 173.5,265.5C 173.5,261.833 173.5,258.167 173.5,254.5 Z"/></g>
<g><path style="opacity:0.565" fill="#edf6fa" d="M 91.5,272.5 C 93.0269,272.427 94.0269,273.094 94.5,274.5C 92.9731,274.573 91.9731,273.906 91.5,272.5 Z"/></g>
<g><path style="opacity:1" fill="#d9eef7" d="M 38.5,314.5 C 37.5696,307.223 37.2363,299.89 37.5,292.5C 37.8588,290.629 38.8588,289.129 40.5,288C 51.1667,287.333 61.8333,287.333 72.5,288C 74.0488,289.214 75.2155,290.714 76,292.5C 76.6667,299.167 76.6667,305.833 76,312.5C 74.8333,315 73,316.833 70.5,318C 60.4394,318.895 50.4394,318.562 40.5,317C 39.6195,316.292 38.9528,315.458 38.5,314.5 Z M 46.5,296.5 C 53.1667,296.5 59.8333,296.5 66.5,296.5C 66.5,300.5 66.5,304.5 66.5,308.5C 59.8333,308.5 53.1667,308.5 46.5,308.5C 46.5,304.5 46.5,300.5 46.5,296.5 Z"/></g>
<g><path style="opacity:0.999" fill="#daeff7" d="M 94.5,287.5 C 104.839,287.334 115.172,287.5 125.5,288C 126.667,289.167 127.833,290.333 129,291.5C 129.934,299.605 129.601,307.605 128,315.5C 126.745,316.211 125.579,317.044 124.5,318C 114.107,318.899 103.773,318.566 93.5,317C 91.9512,315.786 90.7845,314.286 90,312.5C 89.3333,306.167 89.3333,299.833 90,293.5C 90.5985,290.746 92.0985,288.746 94.5,287.5 Z M 99.5,296.5 C 99.5,300.5 99.5,304.5 99.5,308.5C 106.5,308.5 113.5,308.5 120.5,308.5C 120.5,304.5 120.5,300.5 120.5,296.5C 113.5,296.5 106.5,296.5 99.5,296.5 Z"/></g>
<g><path style="opacity:0.999" fill="#daeff7" d="M 147.5,287.5 C 158.603,287.046 169.603,287.546 180.5,289C 181.211,290.255 182.044,291.421 183,292.5C 183.89,299.914 183.557,307.247 182,314.5C 180.59,315.787 179.09,316.954 177.5,318C 168.5,318.667 159.5,318.667 150.5,318C 147.506,317.594 145.339,316.094 144,313.5C 143.333,306.167 143.333,298.833 144,291.5C 145.102,290.051 146.269,288.718 147.5,287.5 Z M 152.5,296.5 C 159.5,296.5 166.5,296.5 173.5,296.5C 173.5,300.5 173.5,304.5 173.5,308.5C 166.5,308.5 159.5,308.5 152.5,308.5C 152.5,304.5 152.5,300.5 152.5,296.5 Z"/></g>
<g><path style="opacity:0.753" fill="#e5f2f9" d="M 37.5,292.5 C 37.2363,299.89 37.5696,307.223 38.5,314.5C 37.8826,314.389 37.3826,314.056 37,313.5C 36.1787,306.321 36.3454,299.321 37.5,292.5 Z"/></g>
<g><path style="opacity:0.753" fill="#e4f2f9" d="M 152.5,296.5 C 159.648,295.508 166.981,295.175 174.5,295.5C 174.818,300.032 174.485,304.366 173.5,308.5C 173.5,304.5 173.5,300.5 173.5,296.5C 166.5,296.5 159.5,296.5 152.5,296.5 Z"/></g>
<g><path style="opacity:0.749" fill="#e9f5fa" d="M 46.5,296.5 C 46.5,300.5 46.5,304.5 46.5,308.5C 53.1667,308.5 59.8333,308.5 66.5,308.5C 66.5,304.5 66.5,300.5 66.5,296.5C 67.4849,300.634 67.8182,304.968 67.5,309.5C 60.1667,309.5 52.8333,309.5 45.5,309.5C 45.1818,304.968 45.5151,300.634 46.5,296.5 Z M 46.5,296.5 C 53.1667,296.5 59.8333,296.5 66.5,296.5C 66.5,300.5 66.5,304.5 66.5,308.5C 59.8333,308.5 53.1667,308.5 46.5,308.5C 46.5,304.5 46.5,300.5 46.5,296.5 Z"/></g>
<g><path style="opacity:1" fill="#daeef7" d="M 41.5,359.5 C 41.0269,358.094 40.0269,357.427 38.5,357.5C 38.2172,356.711 37.7172,356.044 37,355.5C 36.3333,348.5 36.3333,341.5 37,334.5C 37.9299,332.448 39.4299,330.948 41.5,330C 46.5,329.833 51.5,329.667 56.5,329.5C 62.2727,329.379 67.9394,329.879 73.5,331C 74.7014,331.903 75.5348,333.069 76,334.5C 76.6667,341.5 76.6667,348.5 76,355.5C 75.0701,357.552 73.5701,359.052 71.5,360C 61.4229,360.807 51.4229,360.64 41.5,359.5 Z M 46.5,339.5 C 46.5,343.167 46.5,346.833 46.5,350.5C 53.1667,350.5 59.8333,350.5 66.5,350.5C 66.5,346.833 66.5,343.167 66.5,339.5C 59.8333,339.5 53.1667,339.5 46.5,339.5 Z"/></g>
<g><path style="opacity:1" fill="#daeff7" d="M 94.5,329.5 C 105.27,329.047 115.937,329.547 126.5,331C 127.701,331.903 128.535,333.069 129,334.5C 129.931,342.272 129.598,349.939 128,357.5C 127.097,358.701 125.931,359.535 124.5,360C 114.067,360.95 103.734,360.617 93.5,359C 92.3333,357.833 91.1667,356.667 90,355.5C 89.3333,348.833 89.3333,342.167 90,335.5C 90.9793,333.032 92.4793,331.032 94.5,329.5 Z M 120.5,339.5 C 120.5,343.167 120.5,346.833 120.5,350.5C 113.5,350.5 106.5,350.5 99.5,350.5C 99.5,346.833 99.5,343.167 99.5,339.5C 106.5,339.5 113.5,339.5 120.5,339.5 Z"/></g>
<g><path style="opacity:1" fill="#daeff7" d="M 148.5,329.5 C 158.938,329.049 169.271,329.549 179.5,331C 181.049,332.214 182.215,333.714 183,335.5C 183.924,342.608 183.591,349.608 182,356.5C 180.786,358.049 179.286,359.215 177.5,360C 167.067,360.95 156.734,360.617 146.5,359C 145.667,358.167 144.833,357.333 144,356.5C 143.333,348.833 143.333,341.167 144,333.5C 145.397,331.93 146.897,330.596 148.5,329.5 Z M 152.5,339.5 C 159.5,339.5 166.5,339.5 173.5,339.5C 173.5,343.167 173.5,346.833 173.5,350.5C 166.5,350.5 159.5,350.5 152.5,350.5C 152.5,346.833 152.5,343.167 152.5,339.5 Z"/></g>
<g><path style="opacity:0.251" fill="#f4fafc" d="M 45.5,338.5 C 52.8333,338.5 60.1667,338.5 67.5,338.5C 67.5,342.833 67.5,347.167 67.5,351.5C 60.1667,351.5 52.8333,351.5 45.5,351.5C 45.5,347.167 45.5,342.833 45.5,338.5 Z M 46.5,339.5 C 46.5,343.167 46.5,346.833 46.5,350.5C 53.1667,350.5 59.8333,350.5 66.5,350.5C 66.5,346.833 66.5,343.167 66.5,339.5C 59.8333,339.5 53.1667,339.5 46.5,339.5 Z"/></g>
<g><path style="opacity:0.251" fill="#f2f9fc" d="M 120.5,339.5 C 113.5,339.5 106.5,339.5 99.5,339.5C 99.5,343.167 99.5,346.833 99.5,350.5C 106.5,350.5 113.5,350.5 120.5,350.5C 113.352,351.492 106.019,351.825 98.5,351.5C 98.5,347.167 98.5,342.833 98.5,338.5C 106.019,338.175 113.352,338.508 120.5,339.5 Z"/></g>
<g><path style="opacity:0.251" fill="#f2f9fc" d="M 152.5,339.5 C 159.648,338.508 166.981,338.175 174.5,338.5C 174.5,342.833 174.5,347.167 174.5,351.5C 166.981,351.825 159.648,351.492 152.5,350.5C 159.5,350.5 166.5,350.5 173.5,350.5C 173.5,346.833 173.5,343.167 173.5,339.5C 166.5,339.5 159.5,339.5 152.5,339.5 Z"/></g>
<g><path style="opacity:0.502" fill="#eef7fb" d="M 38.5,357.5 C 40.0269,357.427 41.0269,358.094 41.5,359.5C 39.9731,359.573 38.9731,358.906 38.5,357.5 Z"/></g>
<g><path style="opacity:0.812" fill="#ecf6fb" d="M 134.5,384.5 C 135.906,384.973 136.573,385.973 136.5,387.5C 135.094,387.027 134.427,386.027 134.5,384.5 Z"/></g>
<g><path style="opacity:0.749" fill="#e5f3f9" d="M 81.5,390.5 C 81.5,407.5 81.5,424.5 81.5,441.5C 70.3206,441.828 59.3206,441.495 48.5,440.5C 59.1667,440.5 69.8333,440.5 80.5,440.5C 80.1702,423.658 80.5035,406.992 81.5,390.5 Z"/></g>
<g><path style="opacity:0.749" fill="#e2f2f8" d="M 196.5,439.5 C 211.324,440.496 226.324,440.829 241.5,440.5C 226.328,441.826 210.995,441.826 195.5,440.5C 195.624,439.893 195.957,439.56 196.5,439.5 Z"/></g>
</svg>
