<?xml version="1.0" encoding="UTF-8"?>
<!DOCTYPE svg PUBLIC "-//W3C//DTD SVG 1.1//EN" "http://www.w3.org/Graphics/SVG/1.1/DTD/svg11.dtd">
<svg xmlns="http://www.w3.org/2000/svg" version="1.1" width="100px" height="100px" style="shape-rendering:geometricPrecision; text-rendering:geometricPrecision; image-rendering:optimizeQuality; fill-rule:evenodd; clip-rule:evenodd" xmlns:xlink="http://www.w3.org/1999/xlink">
<g><path style="opacity:1" fill="#fff5f7" d="M -0.5,-0.5 C 2.83333,-0.5 6.16667,-0.5 9.5,-0.5C 5.19179,1.80818 1.85846,5.14152 -0.5,9.5C -0.5,6.16667 -0.5,2.83333 -0.5,-0.5 Z"/></g>
<g><path style="opacity:1" fill="#ff2151" d="M 9.5,-0.5 C 36.1667,-0.5 62.8333,-0.5 89.5,-0.5C 93.8333,1.83333 97.1667,5.16667 99.5,9.5C 99.5,35.8333 99.5,62.1667 99.5,88.5C 97.5851,93.4168 94.2517,97.0835 89.5,99.5C 62.8333,99.5 36.1667,99.5 9.5,99.5C 4.74828,97.0835 1.41495,93.4168 -0.5,88.5C -0.5,62.1667 -0.5,35.8333 -0.5,9.5C 1.85846,5.14152 5.19179,1.80818 9.5,-0.5 Z"/></g>
<g><path style="opacity:1" fill="#fff4f6" d="M 89.5,-0.5 C 92.8333,-0.5 96.1667,-0.5 99.5,-0.5C 99.5,2.83333 99.5,6.16667 99.5,9.5C 97.1667,5.16667 93.8333,1.83333 89.5,-0.5 Z"/></g>
<g><path style="opacity:1" fill="#fff5f7" d="M 42.5,19.5 C 61.6834,17.2009 74.1834,25.2009 80,43.5C 81.031,64.9669 70.8644,76.6335 49.5,78.5C 44.2797,78.536 39.2797,77.536 34.5,75.5C 30.1844,76.6077 25.8511,77.6077 21.5,78.5C 21.1667,78.1667 20.8333,77.8333 20.5,77.5C 21.8314,73.1721 23.1647,68.8388 24.5,64.5C 16.0236,43.5803 22.0236,28.5803 42.5,19.5 Z"/></g>
<g><path style="opacity:1" fill="#ff2854" d="M 45.5,23.5 C 60.5328,22.5936 70.3662,29.2603 75,43.5C 75.5216,64.976 65.0216,74.8093 43.5,73C 40.9149,71.8723 38.2482,71.039 35.5,70.5C 32.779,71.4545 30.1124,71.4545 27.5,70.5C 28.3209,68.2172 28.9876,65.8838 29.5,63.5C 21.005,44.5043 26.3384,31.171 45.5,23.5 Z"/></g>
<g><path style="opacity:1" fill="#fff7f8" d="M 36.5,36.5 C 38.288,36.2148 39.9547,36.5481 41.5,37.5C 42.4803,38.9814 43.647,40.3147 45,41.5C 44.76,43.4665 43.9266,45.2998 42.5,47C 44.4171,51.8815 47.9171,55.0481 53,56.5C 56.8453,52.5234 60.512,52.8568 64,57.5C 64.7112,59.3668 64.2112,60.8668 62.5,62C 56.4653,63.4055 51.132,62.0721 46.5,58C 41.5246,54.0299 37.6912,49.1965 35,43.5C 34.3911,40.9348 34.8911,38.6015 36.5,36.5 Z"/></g>
<g><path style="opacity:1" fill="#fff2f4" d="M -0.5,88.5 C 1.41495,93.4168 4.74828,97.0835 9.5,99.5C 6.16667,99.5 2.83333,99.5 -0.5,99.5C -0.5,95.8333 -0.5,92.1667 -0.5,88.5 Z"/></g>
<g><path style="opacity:1" fill="#fff2f4" d="M 99.5,88.5 C 99.5,92.1667 99.5,95.8333 99.5,99.5C 96.1667,99.5 92.8333,99.5 89.5,99.5C 94.2517,97.0835 97.5851,93.4168 99.5,88.5 Z"/></g>
</svg>
