<?xml version="1.0" encoding="UTF-8"?>
<!DOCTYPE svg PUBLIC "-//W3C//DTD SVG 1.1//EN" "http://www.w3.org/Graphics/SVG/1.1/DTD/svg11.dtd">
<svg xmlns="http://www.w3.org/2000/svg" version="1.1" width="100px" height="100px" style="shape-rendering:geometricPrecision; text-rendering:geometricPrecision; image-rendering:optimizeQuality; fill-rule:evenodd; clip-rule:evenodd" xmlns:xlink="http://www.w3.org/1999/xlink">
<g><path style="opacity:1" fill="#fff5f7" d="M -0.5,-0.5 C 2.83333,-0.5 6.16667,-0.5 9.5,-0.5C 5.19179,1.80818 1.85846,5.14152 -0.5,9.5C -0.5,6.16667 -0.5,2.83333 -0.5,-0.5 Z"/></g>
<g><path style="opacity:1" fill="#fe2251" d="M 9.5,-0.5 C 36.1667,-0.5 62.8333,-0.5 89.5,-0.5C 93.8333,1.83333 97.1667,5.16667 99.5,9.5C 99.5,35.8333 99.5,62.1667 99.5,88.5C 97.5851,93.4168 94.2517,97.0835 89.5,99.5C 62.8333,99.5 36.1667,99.5 9.5,99.5C 4.74828,97.0835 1.41495,93.4168 -0.5,88.5C -0.5,62.1667 -0.5,35.8333 -0.5,9.5C 1.85846,5.14152 5.19179,1.80818 9.5,-0.5 Z"/></g>
<g><path style="opacity:1" fill="#fff4f6" d="M 89.5,-0.5 C 92.8333,-0.5 96.1667,-0.5 99.5,-0.5C 99.5,2.83333 99.5,6.16667 99.5,9.5C 97.1667,5.16667 93.8333,1.83333 89.5,-0.5 Z"/></g>
<g><path style="opacity:1" fill="#fef9fa" d="M 78.5,15.5 C 88.7455,14.5697 91.7455,18.7364 87.5,28C 78.2424,31.2948 74.4091,28.1282 76,18.5C 77.045,17.6266 77.8783,16.6266 78.5,15.5 Z"/></g>
<g><path style="opacity:1" fill="#fefbfb" d="M 66.5,29.5 C 71.4439,29.6021 74.9439,31.9354 77,36.5C 77.8176,42.9017 77.4842,49.235 76,55.5C 73.9327,58.07 71.4327,60.07 68.5,61.5C 71.1769,65.5286 73.8435,69.5286 76.5,73.5C 73.3157,75.4136 69.649,76.0803 65.5,75.5C 62.0658,70.8198 58.7325,65.9865 55.5,61C 47.8406,60.5003 40.1739,60.3336 32.5,60.5C 32.5,65.5 32.5,70.5 32.5,75.5C 28.8333,75.5 25.1667,75.5 21.5,75.5C 21.5,60.1667 21.5,44.8333 21.5,29.5C 36.5,29.5 51.5,29.5 66.5,29.5 Z"/></g>
<g><path style="opacity:1" fill="#f7b5c4" d="M 66.5,29.5 C 51.5,29.5 36.5,29.5 21.5,29.5C 21.5,44.8333 21.5,60.1667 21.5,75.5C 25.1667,75.5 28.8333,75.5 32.5,75.5C 28.7016,76.4834 24.7016,76.8168 20.5,76.5C 20.5,60.5 20.5,44.5 20.5,28.5C 36.0091,28.1705 51.3424,28.5038 66.5,29.5 Z"/></g>
<g><path style="opacity:1" fill="#fe2554" d="M 32.5,39.5 C 43.1719,39.3335 53.8385,39.5002 64.5,40C 65.8333,43.3333 65.8333,46.6667 64.5,50C 53.8385,50.4998 43.1719,50.6665 32.5,50.5C 32.5,46.8333 32.5,43.1667 32.5,39.5 Z"/></g>
<g><path style="opacity:1" fill="#f7c6d1" d="M 76.5,73.5 C 77.4778,73.811 78.1445,74.4777 78.5,75.5C 74.0162,76.8111 69.6829,76.8111 65.5,75.5C 69.649,76.0803 73.3157,75.4136 76.5,73.5 Z"/></g>
<g><path style="opacity:1" fill="#fff2f4" d="M -0.5,88.5 C 1.41495,93.4168 4.74828,97.0835 9.5,99.5C 6.16667,99.5 2.83333,99.5 -0.5,99.5C -0.5,95.8333 -0.5,92.1667 -0.5,88.5 Z"/></g>
<g><path style="opacity:1" fill="#fff2f4" d="M 99.5,88.5 C 99.5,92.1667 99.5,95.8333 99.5,99.5C 96.1667,99.5 92.8333,99.5 89.5,99.5C 94.2517,97.0835 97.5851,93.4168 99.5,88.5 Z"/></g>
</svg>
