<?xml version="1.0" encoding="UTF-8"?>
<!DOCTYPE svg PUBLIC "-//W3C//DTD SVG 1.1//EN" "http://www.w3.org/Graphics/SVG/1.1/DTD/svg11.dtd">
<svg xmlns="http://www.w3.org/2000/svg" version="1.1" width="100px" height="100px" style="shape-rendering:geometricPrecision; text-rendering:geometricPrecision; image-rendering:optimizeQuality; fill-rule:evenodd; clip-rule:evenodd" xmlns:xlink="http://www.w3.org/1999/xlink">
<g><path style="opacity:1" fill="#fff5f7" d="M -0.5,-0.5 C 2.83333,-0.5 6.16667,-0.5 9.5,-0.5C 5.19179,1.80818 1.85846,5.14152 -0.5,9.5C -0.5,6.16667 -0.5,2.83333 -0.5,-0.5 Z"/></g>
<g><path style="opacity:1" fill="#ff2251" d="M 9.5,-0.5 C 36.1667,-0.5 62.8333,-0.5 89.5,-0.5C 93.8333,1.83333 97.1667,5.16667 99.5,9.5C 99.5,35.8333 99.5,62.1667 99.5,88.5C 97.5851,93.4168 94.2517,97.0835 89.5,99.5C 62.8333,99.5 36.1667,99.5 9.5,99.5C 4.74828,97.0835 1.41495,93.4168 -0.5,88.5C -0.5,62.1667 -0.5,35.8333 -0.5,9.5C 1.85846,5.14152 5.19179,1.80818 9.5,-0.5 Z"/></g>
<g><path style="opacity:1" fill="#fff4f6" d="M 89.5,-0.5 C 92.8333,-0.5 96.1667,-0.5 99.5,-0.5C 99.5,2.83333 99.5,6.16667 99.5,9.5C 97.1667,5.16667 93.8333,1.83333 89.5,-0.5 Z"/></g>
<g><path style="opacity:1" fill="#fffcfc" d="M 71.5,22.5 C 74.1667,22.5 76.8333,22.5 79.5,22.5C 78.3065,42.0491 75.6399,61.3824 71.5,80.5C 70.4406,81.6964 69.1073,82.363 67.5,82.5C 59.1122,77.6204 51.1122,72.1204 43.5,66C 42.4238,64.2739 42.2571,62.4406 43,60.5C 50.0317,53.8028 56.6984,46.8028 63,39.5C 63.5908,38.5165 63.2575,37.8499 62,37.5C 52.0964,44.2043 42.2631,51.0377 32.5,58C 30.1667,58.6667 27.8333,58.6667 25.5,58C 22.5945,56.7138 19.5945,55.7138 16.5,55C 12.4776,52.3341 12.8109,50.0008 17.5,48C 35.7118,39.725 53.7118,31.225 71.5,22.5 Z"/></g>
<g><path style="opacity:1" fill="#fff2f4" d="M -0.5,88.5 C 1.41495,93.4168 4.74828,97.0835 9.5,99.5C 6.16667,99.5 2.83333,99.5 -0.5,99.5C -0.5,95.8333 -0.5,92.1667 -0.5,88.5 Z"/></g>
<g><path style="opacity:1" fill="#fff2f4" d="M 99.5,88.5 C 99.5,92.1667 99.5,95.8333 99.5,99.5C 96.1667,99.5 92.8333,99.5 89.5,99.5C 94.2517,97.0835 97.5851,93.4168 99.5,88.5 Z"/></g>
</svg>
