<?xml version="1.0" encoding="UTF-8"?>
<!DOCTYPE svg PUBLIC "-//W3C//DTD SVG 1.1//EN" "http://www.w3.org/Graphics/SVG/1.1/DTD/svg11.dtd">
<svg xmlns="http://www.w3.org/2000/svg" version="1.1" width="100px" height="100px" style="shape-rendering:geometricPrecision; text-rendering:geometricPrecision; image-rendering:optimizeQuality; fill-rule:evenodd; clip-rule:evenodd" xmlns:xlink="http://www.w3.org/1999/xlink">
<g><path style="opacity:1" fill="#fff5f7" d="M -0.5,-0.5 C 2.83333,-0.5 6.16667,-0.5 9.5,-0.5C 5.19179,1.80818 1.85846,5.14152 -0.5,9.5C -0.5,6.16667 -0.5,2.83333 -0.5,-0.5 Z"/></g>
<g><path style="opacity:1" fill="#fe2151" d="M 9.5,-0.5 C 36.1667,-0.5 62.8333,-0.5 89.5,-0.5C 93.8333,1.83333 97.1667,5.16667 99.5,9.5C 99.5,35.8333 99.5,62.1667 99.5,88.5C 97.5851,93.4168 94.2517,97.0835 89.5,99.5C 62.8333,99.5 36.1667,99.5 9.5,99.5C 4.74828,97.0835 1.41495,93.4168 -0.5,88.5C -0.5,62.1667 -0.5,35.8333 -0.5,9.5C 1.85846,5.14152 5.19179,1.80818 9.5,-0.5 Z"/></g>
<g><path style="opacity:1" fill="#fff4f6" d="M 89.5,-0.5 C 92.8333,-0.5 96.1667,-0.5 99.5,-0.5C 99.5,2.83333 99.5,6.16667 99.5,9.5C 97.1667,5.16667 93.8333,1.83333 89.5,-0.5 Z"/></g>
<g><path style="opacity:1" fill="#fefbfc" d="M 39.5,59.5 C 39.56,60.0431 39.8933,60.3764 40.5,60.5C 41.4988,49.5202 41.8321,38.5202 41.5,27.5C 45.1667,27.5 48.8333,27.5 52.5,27.5C 52.5,33.8333 52.5,40.1667 52.5,46.5C 53.791,46.7373 54.791,46.404 55.5,45.5C 63.4013,41.9309 68.4013,35.9309 70.5,27.5C 74.5,27.5 78.5,27.5 82.5,27.5C 80.9592,37.5409 75.9592,45.3742 67.5,51C 76.2473,56.3414 82.2473,63.8414 85.5,73.5C 81.3656,74.4849 77.0323,74.8182 72.5,74.5C 70.0351,65.7671 64.3684,60.4338 55.5,58.5C 54.791,57.596 53.791,57.2627 52.5,57.5C 52.5,63.1667 52.5,68.8333 52.5,74.5C 50.1667,74.5 47.8333,74.5 45.5,74.5C 29.7399,72.2426 19.2399,63.5759 14,48.5C 12.042,41.6267 10.8754,34.6267 10.5,27.5C 14.8333,27.5 19.1667,27.5 23.5,27.5C 23.1007,39.4807 27.1007,49.6473 35.5,58C 36.745,58.7914 38.0783,59.2914 39.5,59.5 Z"/></g>
<g><path style="opacity:1" fill="#f392ad" d="M 41.5,27.5 C 41.8321,38.5202 41.4988,49.5202 40.5,60.5C 39.8933,60.3764 39.56,60.0431 39.5,59.5C 40.1667,48.8333 40.8333,38.1667 41.5,27.5 Z"/></g>
<g><path style="opacity:1" fill="#f494ae" d="M 52.5,27.5 C 52.8526,33.7355 53.8526,39.7355 55.5,45.5C 54.791,46.404 53.791,46.7373 52.5,46.5C 52.5,40.1667 52.5,33.8333 52.5,27.5 Z"/></g>
<g><path style="opacity:1" fill="#f589a4" d="M 55.5,58.5 C 53.55,63.7351 52.8833,69.4018 53.5,75.5C 50.6146,75.8064 47.9479,75.4731 45.5,74.5C 47.8333,74.5 50.1667,74.5 52.5,74.5C 52.5,68.8333 52.5,63.1667 52.5,57.5C 53.791,57.2627 54.791,57.596 55.5,58.5 Z"/></g>
<g><path style="opacity:1" fill="#f36b8e" d="M 85.5,73.5 C 86.0431,73.56 86.3764,73.8933 86.5,74.5C 81.6819,75.8124 77.0152,75.8124 72.5,74.5C 77.0323,74.8182 81.3656,74.4849 85.5,73.5 Z"/></g>
<g><path style="opacity:1" fill="#fff2f4" d="M -0.5,88.5 C 1.41495,93.4168 4.74828,97.0835 9.5,99.5C 6.16667,99.5 2.83333,99.5 -0.5,99.5C -0.5,95.8333 -0.5,92.1667 -0.5,88.5 Z"/></g>
<g><path style="opacity:1" fill="#fff2f4" d="M 99.5,88.5 C 99.5,92.1667 99.5,95.8333 99.5,99.5C 96.1667,99.5 92.8333,99.5 89.5,99.5C 94.2517,97.0835 97.5851,93.4168 99.5,88.5 Z"/></g>
</svg>
