<svg width="24" height="24" viewBox="0 0 24 24" fill="none" xmlns="http://www.w3.org/2000/svg">
<path fill-rule="evenodd" clip-rule="evenodd" d="M12.3428 22.1052L13.1 21.252C13.9592 20.268 14.732 19.3344 15.4196 18.4464L15.9872 17.6976C18.3572 14.5044 19.5428 11.97 19.5428 10.0968C19.5428 6.09838 16.3196 2.85718 12.3428 2.85718C8.36602 2.85718 5.14282 6.09838 5.14282 10.0968C5.14282 11.97 6.32842 14.5044 8.69842 17.6976L9.26602 18.4464C10.2469 19.7032 11.2732 20.9229 12.3428 22.1052Z" stroke="black" stroke-width="2" stroke-linecap="round" stroke-linejoin="round"/>
<path d="M12.3428 13.0571C13.9996 13.0571 15.3428 11.714 15.3428 10.0571C15.3428 8.40027 13.9996 7.05713 12.3428 7.05713C10.6859 7.05713 9.34277 8.40027 9.34277 10.0571C9.34277 11.714 10.6859 13.0571 12.3428 13.0571Z" stroke="black" stroke-width="2" stroke-linecap="round" stroke-linejoin="round"/>
</svg>
