<?xml version="1.0" encoding="UTF-8"?>
<!DOCTYPE svg PUBLIC "-//W3C//DTD SVG 1.1//EN" "http://www.w3.org/Graphics/SVG/1.1/DTD/svg11.dtd">
<svg xmlns="http://www.w3.org/2000/svg" version="1.1" width="500px" height="500px" style="shape-rendering:geometricPrecision; text-rendering:geometricPrecision; image-rendering:optimizeQuality; fill-rule:evenodd; clip-rule:evenodd" xmlns:xlink="http://www.w3.org/1999/xlink">
<g><path style="opacity:0.985" fill="#fefffe" d="M 389.5,102.5 C 397.677,101.385 404.177,104.052 409,110.5C 410.537,118.77 410.87,127.103 410,135.5C 400.773,211.757 389.773,287.757 377,363.5C 375.555,374.528 371.055,384.028 363.5,392C 353.428,395.798 343.761,394.798 334.5,389C 300.04,364.351 266.206,338.851 233,312.5C 226.425,302.428 227.425,293.095 236,284.5C 265.667,253.5 295.333,222.5 325,191.5C 327,188.833 329,186.167 331,183.5C 332.026,178.024 329.859,175.857 324.5,177C 280.659,207.173 237.659,238.507 195.5,271C 185.901,277.867 175.235,280.867 163.5,280C 140.052,275.073 117.385,267.74 95.5,258C 89.0557,253.223 87.889,247.39 92,240.5C 95.5518,237.281 99.3851,234.448 103.5,232C 173.925,198.121 244.592,164.787 315.5,132C 339.708,120.661 364.375,110.827 389.5,102.5 Z"/></g>
</svg>
