<?xml version="1.0" encoding="UTF-8"?>
<!DOCTYPE svg PUBLIC "-//W3C//DTD SVG 1.1//EN" "http://www.w3.org/Graphics/SVG/1.1/DTD/svg11.dtd">
<svg xmlns="http://www.w3.org/2000/svg" version="1.1" width="500px" height="500px" style="shape-rendering:geometricPrecision; text-rendering:geometricPrecision; image-rendering:optimizeQuality; fill-rule:evenodd; clip-rule:evenodd" xmlns:xlink="http://www.w3.org/1999/xlink">
<g><path style="opacity:0.243" fill="#93aff1" d="M 136.5,154.5 C 135.517,150.702 135.183,146.702 135.5,142.5C 116.833,142.5 98.1667,142.5 79.5,142.5C 79.347,153.521 79.6803,164.521 80.5,175.5C 78.5347,164.403 77.5347,153.069 77.5,141.5C 97.1667,141.5 116.833,141.5 136.5,141.5C 136.5,145.833 136.5,150.167 136.5,154.5 Z"/></g>
<g><path style="opacity:0.243" fill="#a0bcf5" d="M 344.5,142.5 C 362.671,141.173 381.004,141.173 399.5,142.5C 398.933,144.982 398.266,147.316 397.5,149.5C 397.5,147.167 397.5,144.833 397.5,142.5C 379.833,142.5 362.167,142.5 344.5,142.5 Z"/></g>
<g><path style="opacity:1" fill="#fcfcfe" d="M 136.5,154.5 C 136.5,155.833 136.5,157.167 136.5,158.5C 136.418,166.45 137.418,174.116 139.5,181.5C 141.166,189.495 142.833,197.495 144.5,205.5C 144.259,207.898 144.926,209.898 146.5,211.5C 151.024,223.548 156.358,235.214 162.5,246.5C 164.646,251.813 167.979,256.146 172.5,259.5C 178.247,265.585 184.581,270.918 191.5,275.5C 191.821,277.048 192.821,277.715 194.5,277.5C 198.206,279.506 201.873,281.506 205.5,283.5C 207.515,284.924 209.848,285.59 212.5,285.5C 212.5,237.833 212.5,190.167 212.5,142.5C 230.167,142.5 247.833,142.5 265.5,142.5C 265.5,169.833 265.5,197.167 265.5,224.5C 267.898,224.741 269.898,224.074 271.5,222.5C 272.167,222.5 272.833,222.5 273.5,222.5C 276.716,222.655 279.383,221.655 281.5,219.5C 281.833,219.5 282.167,219.5 282.5,219.5C 284.027,219.573 285.027,218.906 285.5,217.5C 304.787,206.713 319.954,191.713 331,172.5C 336.361,162.786 340.861,152.786 344.5,142.5C 362.167,142.5 379.833,142.5 397.5,142.5C 397.5,144.833 397.5,147.167 397.5,149.5C 388.095,185.47 368.761,214.97 339.5,238C 336.167,240 332.833,242 329.5,244C 328.748,244.671 328.414,245.504 328.5,246.5C 330.26,248.559 332.594,249.892 335.5,250.5C 338.738,251.738 341.738,253.404 344.5,255.5C 344.821,257.048 345.821,257.715 347.5,257.5C 356.079,263.076 363.745,269.743 370.5,277.5C 370.5,279.5 371.5,280.5 373.5,280.5C 375.514,282.183 377.18,284.183 378.5,286.5C 378.731,289.063 380.065,290.73 382.5,291.5C 383.167,292.167 383.833,292.833 384.5,293.5C 384.241,295.989 385.241,297.656 387.5,298.5C 387.427,300.027 388.094,301.027 389.5,301.5C 394.708,308.076 398.708,315.409 401.5,323.5C 401.427,325.027 402.094,326.027 403.5,326.5C 404.446,328.89 405.779,331.056 407.5,333C 406.748,333.671 406.414,334.504 406.5,335.5C 406.844,339.62 408.177,343.286 410.5,346.5C 410.5,347.5 410.5,348.5 410.5,349.5C 390.833,349.5 371.167,349.5 351.5,349.5C 349.926,347.898 349.259,345.898 349.5,343.5C 349.379,340.895 348.379,338.895 346.5,337.5C 338.512,319.852 326.846,305.186 311.5,293.5C 311.027,292.094 310.027,291.427 308.5,291.5C 297.087,284.051 284.754,279.051 271.5,276.5C 269.735,275.539 267.735,275.205 265.5,275.5C 265.5,300.167 265.5,324.833 265.5,349.5C 258.167,349.5 250.833,349.5 243.5,349.5C 242.833,349.5 242.167,349.5 241.5,349.5C 236.731,348.111 231.731,347.444 226.5,347.5C 222.026,347.732 217.693,347.066 213.5,345.5C 211.604,347.106 210.271,346.773 209.5,344.5C 207.485,343.076 205.152,342.41 202.5,342.5C 201.833,342.5 201.167,342.5 200.5,342.5C 200.423,341.25 199.756,340.417 198.5,340C 195.522,339.304 192.522,338.804 189.5,338.5C 186.088,337.925 183.088,336.592 180.5,334.5C 178.815,332.182 176.481,331.182 173.5,331.5C 173.027,330.094 172.027,329.427 170.5,329.5C 167.008,328.59 164.008,326.924 161.5,324.5C 161.027,323.094 160.027,322.427 158.5,322.5C 155.403,320.919 152.403,319.086 149.5,317C 147.959,315.629 146.625,314.129 145.5,312.5C 144.415,310.413 142.749,309.08 140.5,308.5C 139.167,308.5 138.5,307.833 138.5,306.5C 137.73,304.065 136.063,302.731 133.5,302.5C 117.42,286.085 105.42,267.085 97.5,245.5C 97.5358,242.539 96.5358,240.206 94.5,238.5C 94.5905,235.848 93.9238,233.515 92.5,231.5C 91.9886,226.291 90.322,221.624 87.5,217.5C 87.5,216.5 87.5,215.5 87.5,214.5C 87.4349,211.572 86.7682,208.905 85.5,206.5C 85.4512,202.922 84.7846,199.589 83.5,196.5C 82.5386,194.735 82.2053,192.735 82.5,190.5C 82.5621,185.924 81.8955,181.591 80.5,177.5C 80.5,176.833 80.5,176.167 80.5,175.5C 79.6803,164.521 79.347,153.521 79.5,142.5C 98.1667,142.5 116.833,142.5 135.5,142.5C 135.183,146.702 135.517,150.702 136.5,154.5 Z"/></g>
<g><path style="opacity:0.51" fill="#b8d6f9" d="M 212.5,142.5 C 212.5,142.167 212.5,141.833 212.5,141.5C 230.5,141.5 248.5,141.5 266.5,141.5C 266.333,168.835 266.5,196.169 267,223.5C 268.356,222.62 269.856,222.286 271.5,222.5C 269.898,224.074 267.898,224.741 265.5,224.5C 265.5,197.167 265.5,169.833 265.5,142.5C 247.833,142.5 230.167,142.5 212.5,142.5 Z"/></g>
<g><path style="opacity:0.067" fill="#77a1f3" d="M 136.5,158.5 C 137.951,165.971 138.951,173.638 139.5,181.5C 137.418,174.116 136.418,166.45 136.5,158.5 Z"/></g>
<g><path style="opacity:0.106" fill="#6b8df2" d="M 80.5,177.5 C 81.8955,181.591 82.5621,185.924 82.5,190.5C 80.9462,186.433 80.2796,182.1 80.5,177.5 Z"/></g>
<g><path style="opacity:0.412" fill="#6a90e4" d="M 83.5,196.5 C 84.7846,199.589 85.4512,202.922 85.5,206.5C 83.8255,203.493 83.1588,200.16 83.5,196.5 Z"/></g>
<g><path style="opacity:0.337" fill="#6f92ed" d="M 85.5,206.5 C 86.7682,208.905 87.4349,211.572 87.5,214.5C 85.9605,212.162 85.2938,209.495 85.5,206.5 Z"/></g>
<g><path style="opacity:0.675" fill="#7f9fe4" d="M 144.5,205.5 C 146.074,207.102 146.741,209.102 146.5,211.5C 144.926,209.898 144.259,207.898 144.5,205.5 Z"/></g>
<g><path style="opacity:0.392" fill="#597ae9" d="M 285.5,217.5 C 285.027,218.906 284.027,219.573 282.5,219.5C 282.973,218.094 283.973,217.427 285.5,217.5 Z"/></g>
<g><path style="opacity:0.627" fill="#8facf9" d="M 281.5,219.5 C 279.383,221.655 276.716,222.655 273.5,222.5C 275.936,221.129 278.603,220.129 281.5,219.5 Z"/></g>
<g><path style="opacity:0.502" fill="#819bf9" d="M 87.5,217.5 C 90.322,221.624 91.9886,226.291 92.5,231.5C 90.3199,227.115 88.6532,222.448 87.5,217.5 Z"/></g>
<g><path style="opacity:0.235" fill="#6d93e4" d="M 92.5,231.5 C 93.9238,233.515 94.5905,235.848 94.5,238.5C 93.0762,236.485 92.4095,234.152 92.5,231.5 Z"/></g>
<g><path style="opacity:0.396" fill="#8199ec" d="M 94.5,238.5 C 96.5358,240.206 97.5358,242.539 97.5,245.5C 95.9348,243.491 94.9348,241.157 94.5,238.5 Z"/></g>
<g><path style="opacity:0.906" fill="#8ca9f5" d="M 328.5,246.5 C 331.317,247.095 333.65,248.428 335.5,250.5C 332.594,249.892 330.26,248.559 328.5,246.5 Z"/></g>
<g><path style="opacity:0.773" fill="#95b1f7" d="M 162.5,246.5 C 166.064,250.614 169.397,254.948 172.5,259.5C 167.979,256.146 164.646,251.813 162.5,246.5 Z"/></g>
<g><path style="opacity:0.592" fill="#7386f4" d="M 344.5,255.5 C 345.71,255.932 346.71,256.599 347.5,257.5C 345.821,257.715 344.821,257.048 344.5,255.5 Z"/></g>
<g><path style="opacity:0.133" fill="#3488e9" d="M 212.5,141.5 C 212.5,141.833 212.5,142.167 212.5,142.5C 212.5,190.167 212.5,237.833 212.5,285.5C 209.848,285.59 207.515,284.924 205.5,283.5C 207.262,283.357 208.929,283.691 210.5,284.5C 211.167,236.668 211.833,189.002 212.5,141.5 Z"/></g>
<g><path style="opacity:0.502" fill="#7a8dfb" d="M 191.5,275.5 C 192.71,275.932 193.71,276.599 194.5,277.5C 192.821,277.715 191.821,277.048 191.5,275.5 Z"/></g>
<g><path style="opacity:0.459" fill="#6f82ed" d="M 370.5,277.5 C 371.833,278.167 372.833,279.167 373.5,280.5C 371.5,280.5 370.5,279.5 370.5,277.5 Z"/></g>
<g><path style="opacity:0.875" fill="#8ca4f9" d="M 378.5,286.5 C 380.207,287.873 381.54,289.539 382.5,291.5C 380.065,290.73 378.731,289.063 378.5,286.5 Z"/></g>
<g><path style="opacity:0.071" fill="#5268e8" d="M 308.5,291.5 C 310.027,291.427 311.027,292.094 311.5,293.5C 309.973,293.573 308.973,292.906 308.5,291.5 Z"/></g>
<g><path style="opacity:0.165" fill="#799aea" d="M 384.5,293.5 C 385.89,294.899 386.89,296.566 387.5,298.5C 385.241,297.656 384.241,295.989 384.5,293.5 Z"/></g>
<g><path style="opacity:0.267" fill="#6788f5" d="M 387.5,298.5 C 388.906,298.973 389.573,299.973 389.5,301.5C 388.094,301.027 387.427,300.027 387.5,298.5 Z"/></g>
<g><path style="opacity:0.827" fill="#7f9ee7" d="M 133.5,302.5 C 136.063,302.731 137.73,304.065 138.5,306.5C 136.539,305.54 134.873,304.207 133.5,302.5 Z"/></g>
<g><path style="opacity:0.655" fill="#81a5fa" d="M 140.5,308.5 C 142.749,309.08 144.415,310.413 145.5,312.5C 143.251,311.92 141.585,310.587 140.5,308.5 Z"/></g>
<g><path style="opacity:0.463" fill="#6582ef" d="M 158.5,322.5 C 160.027,322.427 161.027,323.094 161.5,324.5C 159.973,324.573 158.973,323.906 158.5,322.5 Z"/></g>
<g><path style="opacity:0.467" fill="#6389f8" d="M 401.5,323.5 C 402.906,323.973 403.573,324.973 403.5,326.5C 402.094,326.027 401.427,325.027 401.5,323.5 Z"/></g>
<g><path style="opacity:0.067" fill="#5875f0" d="M 170.5,329.5 C 172.027,329.427 173.027,330.094 173.5,331.5C 171.973,331.573 170.973,330.906 170.5,329.5 Z"/></g>
<g><path style="opacity:0.51" fill="#b3d5f9" d="M 271.5,276.5 C 269.833,276.5 268.167,276.5 266.5,276.5C 266.5,301.167 266.5,325.833 266.5,350.5C 258.648,350.825 250.982,350.492 243.5,349.5C 250.833,349.5 258.167,349.5 265.5,349.5C 265.5,324.833 265.5,300.167 265.5,275.5C 267.735,275.205 269.735,275.539 271.5,276.5 Z"/></g>
<g><path style="opacity:0.341" fill="#82a9f7" d="M 173.5,331.5 C 176.481,331.182 178.815,332.182 180.5,334.5C 177.937,333.912 175.604,332.912 173.5,331.5 Z"/></g>
<g><path style="opacity:0.922" fill="#a6bcf9" d="M 189.5,338.5 C 192.522,338.804 195.522,339.304 198.5,340C 199.756,340.417 200.423,341.25 200.5,342.5C 196.693,341.307 193.026,339.974 189.5,338.5 Z"/></g>
<g><path style="opacity:0.224" fill="#7896dc" d="M 346.5,337.5 C 348.379,338.895 349.379,340.895 349.5,343.5C 347.755,341.967 346.755,339.967 346.5,337.5 Z"/></g>
<g><path style="opacity:0.882" fill="#8eaae8" d="M 406.5,335.5 C 407.117,335.611 407.617,335.944 408,336.5C 409.143,339.777 409.977,343.11 410.5,346.5C 408.177,343.286 406.844,339.62 406.5,335.5 Z"/></g>
<g><path style="opacity:0.557" fill="#6f97ec" d="M 202.5,342.5 C 205.152,342.41 207.485,343.076 209.5,344.5C 206.848,344.59 204.515,343.924 202.5,342.5 Z"/></g>
<g><path style="opacity:0.369" fill="#7fb0f7" d="M 226.5,347.5 C 231.731,347.444 236.731,348.111 241.5,349.5C 236.234,349.811 231.234,349.145 226.5,347.5 Z"/></g>
<g><path style="opacity:0.267" fill="#77b3f8" d="M 410.5,346.5 C 411.434,347.568 411.768,348.901 411.5,350.5C 391.326,350.83 371.326,350.497 351.5,349.5C 371.167,349.5 390.833,349.5 410.5,349.5C 410.5,348.5 410.5,347.5 410.5,346.5 Z"/></g>
</svg>
