<?xml version="1.0" encoding="UTF-8"?>
<!DOCTYPE svg PUBLIC "-//W3C//DTD SVG 1.1//EN" "http://www.w3.org/Graphics/SVG/1.1/DTD/svg11.dtd">
<svg xmlns="http://www.w3.org/2000/svg" version="1.1" width="747px" height="734px" style="shape-rendering:geometricPrecision; text-rendering:geometricPrecision; image-rendering:optimizeQuality; fill-rule:evenodd; clip-rule:evenodd" xmlns:xlink="http://www.w3.org/1999/xlink">
<g><path style="opacity:1" fill="#addbef" d="M 406.5,24.5 C 415.145,24.2742 423.478,25.7742 431.5,29C 483.775,53.4709 535.775,78.4709 587.5,104C 608.2,121.471 613.7,142.971 604,168.5C 601.356,173.621 598.856,178.788 596.5,184C 623.347,192.181 641.847,209.348 652,235.5C 658.667,256.833 665.333,278.167 672,299.5C 687.368,302.537 696.368,311.87 699,327.5C 705.869,349.106 712.535,370.773 719,392.5C 719.696,396.905 719.363,401.239 718,405.5C 715.757,410.239 712.923,414.572 709.5,418.5C 716.968,441.403 724.134,464.403 731,487.5C 737.407,528.522 722.24,558.355 685.5,577C 540.547,622.821 395.547,668.488 250.5,714C 208.037,723.846 176.537,709.68 156,671.5C 128.267,584.967 100.933,498.3 74,411.5C 70.4854,393.278 72.6521,375.778 80.5,359C 62.5668,297.101 44.4001,235.268 26,173.5C 19.7613,147.818 27.5947,127.652 49.5,113C 53.2707,110.781 57.2707,109.115 61.5,108C 109.212,94.1553 156.879,80.1553 204.5,66C 210.059,56.1072 217.393,47.7739 226.5,41C 238.277,33.9748 250.944,31.6414 264.5,34C 297.702,40.0057 330.868,46.1724 364,52.5C 374.022,36.7475 388.189,27.4142 406.5,24.5 Z M 383.5,56.5 C 382.833,55.8333 382.167,55.1667 381.5,54.5C 391.887,41.5373 405.22,37.0373 421.5,41C 474.926,65.5474 527.926,90.8807 580.5,117C 593.885,129.461 597.385,144.295 591,161.5C 587.56,168.045 584.394,174.712 581.5,181.5C 574.489,182.267 567.489,183.101 560.5,184C 522.901,195.606 485.401,207.44 448,219.5C 453.139,185.798 458.806,152.131 465,118.5C 465.174,89.0129 451.007,70.5129 422.5,63C 409.54,60.5076 396.54,58.341 383.5,56.5 Z M 432.5,219.5 C 431.842,221.639 430.842,223.639 429.5,225.5C 396.074,235.523 362.741,245.857 329.5,256.5C 328.391,256.443 327.391,256.11 326.5,255.5C 310.981,201.428 295.148,147.428 279,93.5C 268.805,71.1392 251.305,59.9726 226.5,60C 237.096,49.2463 249.763,45.5796 264.5,49C 317.167,58.6667 369.833,68.3333 422.5,78C 440.318,83.6518 449.651,95.8185 450.5,114.5C 444.608,149.519 438.608,184.519 432.5,219.5 Z M 223.5,75.5 C 242.705,73.6818 256.538,81.3485 265,98.5C 281.25,152.672 297.417,206.839 313.5,261C 251.739,281.253 189.739,300.92 127.5,320C 113.342,324.484 101.509,332.317 92,343.5C 74.0345,284.315 56.3678,224.982 39,165.5C 36.2656,145.467 44.0989,131.301 62.5,123C 116.33,107.298 169.997,91.4643 223.5,75.5 Z M 577.5,196.5 C 605.625,198.145 625.458,211.812 637,237.5C 643.834,258.839 650.668,280.172 657.5,301.5C 654.568,303.654 651.234,305.154 647.5,306C 612.292,316.736 577.292,328.069 542.5,340C 533.401,346.965 529.567,356.131 531,367.5C 538.872,394.448 547.538,421.114 557,447.5C 564.193,456.792 573.693,460.625 585.5,459C 622.549,447.594 659.549,436.094 696.5,424.5C 702.155,444.633 708.322,464.633 715,484.5C 722.763,513.207 715.263,537.041 692.5,556C 687.659,558.921 682.659,561.588 677.5,564C 531.307,610.465 384.974,656.465 238.5,702C 202.26,705.061 178.094,689.561 166,655.5C 139.798,572.561 113.798,489.561 88,406.5C 84.4039,369.432 100.237,344.932 135.5,333C 275.228,289.202 414.895,245.202 554.5,201C 562.197,198.893 569.863,197.393 577.5,196.5 Z M 668.5,314.5 C 675.113,314.386 679.613,317.386 682,323.5C 689.488,346.453 696.821,369.453 704,392.5C 705.534,398.899 703.701,404.065 698.5,408C 660.5,420 622.5,432 584.5,444C 576.872,445.933 571.372,443.433 568,436.5C 559.989,411.969 552.489,387.302 545.5,362.5C 545.582,356.828 548.248,352.994 553.5,351C 591.977,338.895 630.311,326.728 668.5,314.5 Z M 330.5,593.5 C 346.536,594.358 352.036,602.358 347,617.5C 344.736,620.433 341.902,622.6 338.5,624C 302.5,635.333 266.5,646.667 230.5,658C 215.876,658.712 209.71,651.879 212,637.5C 213.833,633 217,629.833 221.5,628C 257.977,616.561 294.311,605.061 330.5,593.5 Z"/></g>
<g><path style="opacity:0.537" fill="#e2f2f9" d="M 381.5,54.5 C 382.167,55.1667 382.833,55.8333 383.5,56.5C 382.325,56.719 381.325,56.3857 380.5,55.5C 380.624,54.8933 380.957,54.56 381.5,54.5 Z"/></g>
<g><path style="opacity:0.965" fill="#cbe7f5" d="M 432.5,219.5 C 432.5,221.5 432.5,223.5 432.5,225.5C 431.5,225.5 430.5,225.5 429.5,225.5C 430.842,223.639 431.842,221.639 432.5,219.5 Z"/></g>
<g><path style="opacity:0.333" fill="#ebf6fb" d="M 326.5,255.5 C 327.391,256.11 328.391,256.443 329.5,256.5C 328.053,257.885 327.053,257.552 326.5,255.5 Z"/></g>
<g><path style="opacity:1" fill="#addbf0" d="M 329.5,578.5 C 350.036,578.538 361.702,588.704 364.5,609C 363.862,619.276 359.529,627.609 351.5,634C 311.566,648.2 271.232,661.2 230.5,673C 206.028,672.523 194.861,660.023 197,635.5C 200.474,624.026 207.974,616.526 219.5,613C 256.29,601.477 292.957,589.977 329.5,578.5 Z M 330.5,593.5 C 294.311,605.061 257.977,616.561 221.5,628C 217,629.833 213.833,633 212,637.5C 209.71,651.879 215.876,658.712 230.5,658C 266.5,646.667 302.5,635.333 338.5,624C 341.902,622.6 344.736,620.433 347,617.5C 352.036,602.358 346.536,594.358 330.5,593.5 Z"/></g>
</svg>
