<?xml version="1.0" encoding="UTF-8"?>
<!DOCTYPE svg PUBLIC "-//W3C//DTD SVG 1.1//EN" "http://www.w3.org/Graphics/SVG/1.1/DTD/svg11.dtd">
<svg xmlns="http://www.w3.org/2000/svg" version="1.1" width="500px" height="500px" style="shape-rendering:geometricPrecision; text-rendering:geometricPrecision; image-rendering:optimizeQuality; fill-rule:evenodd; clip-rule:evenodd" xmlns:xlink="http://www.w3.org/1999/xlink">
<g><path style="opacity:0.961" fill="#fefffe" d="M 241.5,99.5 C 311.189,96.1228 361.356,125.456 392,187.5C 413,241.834 406,292.168 371,338.5C 328.941,385.515 277.107,401.348 215.5,386C 205.369,382.432 195.369,378.598 185.5,374.5C 161.443,379.912 137.443,385.578 113.5,391.5C 112.833,391.167 112.167,390.833 111.5,390.5C 118.167,367.167 124.833,343.833 131.5,320.5C 102.404,267.805 103.571,215.805 135,164.5C 161,127.346 196.5,105.68 241.5,99.5 Z M 254.5,123.5 C 315.388,126.004 355.554,156.004 375,213.5C 387.404,274.328 367.238,320.828 314.5,353C 272.074,373.199 230.574,371.366 190,347.5C 175.589,351.396 161.089,354.563 146.5,357C 150.593,343.551 154.593,330.051 158.5,316.5C 136.784,283.871 130.951,248.538 141,210.5C 160.299,157.272 198.132,128.272 254.5,123.5 Z"/></g>
<g><path style="opacity:0.96" fill="#fefffe" d="M 197.5,181.5 C 202.095,181.719 206.429,182.885 210.5,185C 218.086,192.582 224.919,200.748 231,209.5C 234.333,213.5 234.333,217.5 231,221.5C 226.069,224.76 222.235,228.927 219.5,234C 229.074,258.735 246.741,274.568 272.5,281.5C 274.258,280.872 275.758,279.872 277,278.5C 279.5,274.667 282,270.833 284.5,267C 288.302,264.172 292.302,263.839 296.5,266C 306.259,270.959 315.426,276.793 324,283.5C 330.894,295.469 328.061,304.302 315.5,310C 301.231,317.177 286.897,317.177 272.5,310C 242.836,294.343 217.336,273.51 196,247.5C 189.469,238.77 184.802,229.104 182,218.5C 180.114,206.38 182.78,195.38 190,185.5C 192.255,183.501 194.755,182.168 197.5,181.5 Z"/></g>
</svg>
