<?xml version="1.0" encoding="UTF-8"?>
<!DOCTYPE svg PUBLIC "-//W3C//DTD SVG 1.1//EN" "http://www.w3.org/Graphics/SVG/1.1/DTD/svg11.dtd">
<svg xmlns="http://www.w3.org/2000/svg" version="1.1" width="500px" height="500px" style="shape-rendering:geometricPrecision; text-rendering:geometricPrecision; image-rendering:optimizeQuality; fill-rule:evenodd; clip-rule:evenodd" xmlns:xlink="http://www.w3.org/1999/xlink">
<g><path style="opacity:0.914" fill="#fefefe" d="M 346.5,203.5 C 345.167,203.833 345.167,204.167 346.5,204.5C 349.525,210.22 352.192,215.72 354.5,221C 354.167,221.333 353.833,221.667 353.5,222C 355.917,223.144 356.584,224.81 355.5,227C 358.262,228.345 359.262,230.345 358.5,233C 359.833,233.667 360.833,234.667 361.5,236C 361.5,237.333 361.5,238.667 361.5,240C 363.661,241.636 364.994,243.803 365.5,246.5C 364.167,246.833 364.167,247.167 365.5,247.5C 369.206,255.521 372.872,263.521 376.5,271.5C 375.167,271.833 375.167,272.167 376.5,272.5C 382.705,286.635 389.038,300.635 395.5,314.5C 394.167,314.833 394.167,315.167 395.5,315.5C 396.953,318.298 398.62,321.465 400.5,325C 400.043,325.414 399.709,325.914 399.5,326.5C 402.193,328.132 403.193,330.299 402.5,333C 404.776,334.03 405.443,335.53 404.5,337.5C 405.242,338.287 406.075,338.953 407,339.5C 407.765,342.196 408.932,344.696 410.5,347C 410.5,348.333 410.5,349.667 410.5,351C 413.041,353.409 414.374,356.076 414.5,359C 414.689,361.295 416.023,363.295 418.5,365C 418.167,365.333 417.833,365.667 417.5,366C 391.494,366.833 365.494,366.667 339.5,365.5C 337.23,359.423 334.896,353.756 332.5,348.5C 333.282,346.671 332.616,345.171 330.5,344C 330.833,343.667 331.167,343.333 331.5,343C 329.045,340.617 328.045,337.951 328.5,335C 327.667,334.167 326.833,333.333 326,332.5C 324.358,327.903 322.524,323.403 320.5,319C 286.167,318.333 251.833,318.333 217.5,319C 218.061,320.566 217.394,321.899 215.5,323C 215.957,323.414 216.291,323.914 216.5,324.5C 212.885,333.987 208.885,342.82 204.5,351C 204.5,352.333 204.5,353.667 204.5,355C 202.963,357.28 201.797,359.78 201,362.5C 199.334,361.66 199.167,362.16 200.5,364C 199.884,366.179 198.717,368.012 197,369.5C 195.915,367.343 194.749,367.176 193.5,369C 169.833,369.667 146.167,369.667 122.5,369C 121.874,368.25 121.374,367.416 121,366.5C 120.333,367.833 119.667,367.833 119,366.5C 118.667,367.5 118.333,368.5 118,369.5C 105.43,353.068 92.9303,336.401 80.5,319.5C 80.7093,318.914 81.0426,318.414 81.5,318C 105.5,317.333 129.5,317.333 153.5,318C 153.93,318.92 154.264,319.753 154.5,320.5C 158.001,319.623 161.668,318.29 165.5,316.5C 155.691,302.79 145.691,289.29 135.5,276C 135.833,275.667 136.167,275.333 136.5,275C 134.084,274.339 132.418,272.839 131.5,270.5C 131.833,269.833 132.167,269.167 132.5,268.5C 152.825,267.667 173.158,267.167 193.5,267C 181.979,251.376 170.646,236.376 159.5,222C 160.833,221.333 160.833,220.667 159.5,220C 171.682,218.841 184.015,218.341 196.5,218.5C 208.74,218.505 220.907,218.838 233,219.5C 233.456,220.744 232.956,221.577 231.5,222C 231.833,222.333 232.167,222.667 232.5,223C 220.982,238.394 209.982,253.061 199.5,267C 201.167,267.667 202.833,267.667 204.5,267C 216.015,251.826 227.015,236.993 237.5,222.5C 224.433,206.425 212.1,189.758 200.5,172.5C 200.59,170.575 201.59,169.408 203.5,169C 203.323,165.773 204.99,163.44 208.5,162C 208.167,161.667 207.833,161.333 207.5,161C 212.549,154.352 217.549,148.352 222.5,143C 222.167,142.667 221.833,142.333 221.5,142C 226.029,135.814 230.863,129.981 236,124.5C 237.15,125.424 238.15,125.424 239,124.5C 239.833,127 241,127.167 242.5,125C 265.498,124.5 288.498,124.333 311.5,124.5C 323.564,151.626 335.231,177.96 346.5,203.5 Z M 269.5,192.5 C 271.379,192.393 271.712,192.893 270.5,194C 272.284,197.876 273.951,201.709 275.5,205.5C 279.198,214.819 282.698,223.819 286,232.5C 286.654,231.304 287.154,231.304 287.5,232.5C 287.306,234.07 287.306,235.57 287.5,237C 289.562,242.377 291.895,247.544 294.5,252.5C 297.086,256.976 299.086,261.81 300.5,267C 279.836,267.5 259.169,267.667 238.5,267.5C 241.555,261.335 244.222,255.001 246.5,248.5C 248.049,244.709 249.716,240.876 251.5,237C 250.939,235.434 251.606,234.101 253.5,233C 253.694,231.57 253.694,230.07 253.5,228.5C 253.846,227.304 254.346,227.304 255,228.5C 255.309,227.234 255.809,226.067 256.5,225C 256.36,223.403 256.36,221.903 256.5,220.5C 257.718,220.891 258.552,220.224 259,218.5C 262.326,209.263 265.826,200.597 269.5,192.5 Z M 132.5,350.5 C 133.368,352.892 132.701,353.059 130.5,351C 131.094,350.536 131.761,350.369 132.5,350.5 Z"/></g>
<g><path style="opacity:0.711" fill="#fefefe" d="M 167.5,151.5 C 167.24,149.056 167.907,146.556 169.5,144C 169.065,141.602 169.731,139.269 171.5,137C 171.327,134.593 171.327,132.26 171.5,130C 172.672,127.945 174.339,127.278 176.5,128C 179.755,132.082 182.755,135.915 185.5,139.5C 186.641,140.425 186.641,141.259 185.5,142C 188.481,143.38 189.147,145.546 187.5,148.5C 185.587,149.373 183.753,150.373 182,151.5C 181.667,151.167 181.333,150.833 181,150.5C 177.555,153.149 173.555,155.816 169,158.5C 165.152,157.073 164.652,154.74 167.5,151.5 Z"/></g>
<g><path style="opacity:0.601" fill="#fefefe" d="M 143.5,137.5 C 148.321,141.089 153.321,145.255 158.5,150C 154.563,154.369 149.73,158.536 144,162.5C 143.333,161.833 142.667,161.167 142,160.5C 141.333,153.5 141.333,146.5 142,139.5C 142.717,138.956 143.217,138.289 143.5,137.5 Z"/></g>
<g><path style="opacity:0.004" fill="#fefffe" d="M 167.5,151.5 C 166.833,150.167 166.833,150.167 167.5,151.5 Z"/></g>
<g><path style="opacity:0.678" fill="#fefefe" d="M 127.5,164.5 C 133.603,169.428 139.603,174.594 145.5,180C 144.809,181.067 144.309,182.234 144,183.5C 139.032,187.797 134.032,192.13 129,196.5C 127.701,196.034 126.201,196.034 124.5,196.5C 124.5,186.167 124.5,175.833 124.5,165.5C 125.791,165.737 126.791,165.404 127.5,164.5 Z"/></g>
<g><path style="opacity:0.846" fill="#fefefe" d="M 187.5,166.5 C 189.017,166.511 190.184,167.177 191,168.5C 202.199,183.774 213.699,199.274 225.5,215C 224.833,215.667 224.167,216.333 223.5,217C 199.353,217.989 175.353,217.655 151.5,216C 154.626,210.6 158.293,205.1 162.5,199.5C 170.945,187.837 179.278,176.837 187.5,166.5 Z"/></g>
<g><path style="opacity:0.004" fill="#fefffe" d="M 346.5,203.5 C 347.833,204.167 347.833,204.167 346.5,203.5 Z"/></g>
<g><path style="opacity:0.679" fill="#fefefe" d="M 146.5,242.5 C 145.833,242.5 145.5,242.833 145.5,243.5C 140.221,248.606 134.721,253.606 129,258.5C 128.333,257.833 127.667,257.167 127,256.5C 126.333,246.5 126.333,236.5 127,226.5C 128.049,225.483 129.216,225.316 130.5,226C 135.189,230.665 140.356,235.165 146,239.5C 146.483,240.448 146.649,241.448 146.5,242.5 Z"/></g>
<g><path style="opacity:0.004" fill="#fefffe" d="M 146.5,242.5 C 147.833,243.167 147.833,243.167 146.5,242.5 Z"/></g>
<g><path style="opacity:0.004" fill="#fefffe" d="M 145.5,243.5 C 145.833,243.5 146.167,243.5 146.5,243.5C 146.315,244.17 145.981,244.17 145.5,243.5 Z"/></g>
<g><path style="opacity:0.004" fill="#fefffe" d="M 365.5,246.5 C 366.833,247.167 366.833,247.167 365.5,246.5 Z"/></g>
<g><path style="opacity:0.004" fill="#fefffe" d="M 376.5,271.5 C 377.833,272.167 377.833,272.167 376.5,271.5 Z"/></g>
<g><path style="opacity:0.004" fill="#fefffe" d="M 395.5,314.5 C 396.833,315.167 396.833,315.167 395.5,314.5 Z"/></g>
</svg>
