<?xml version="1.0" encoding="UTF-8"?>
<!DOCTYPE svg PUBLIC "-//W3C//DTD SVG 1.1//EN" "http://www.w3.org/Graphics/SVG/1.1/DTD/svg11.dtd">
<svg xmlns="http://www.w3.org/2000/svg" version="1.1" width="300px" height="276px" style="shape-rendering:geometricPrecision; text-rendering:geometricPrecision; image-rendering:optimizeQuality; fill-rule:evenodd; clip-rule:evenodd" xmlns:xlink="http://www.w3.org/1999/xlink">
<g><path style="opacity:0.931" fill="#fefefe" d="M 288.5,275.5 C 196.167,275.5 103.833,275.5 11.5,275.5C 5.72705,270.971 2.22705,264.971 1,257.5C 0.333333,179.833 0.333333,102.167 1,24.5C 3.42934,13.1461 10.2627,5.97939 21.5,3C 106.833,2.33333 192.167,2.33333 277.5,3C 288.779,5.94527 295.612,13.1119 298,24.5C 298.667,102.5 298.667,180.5 298,258.5C 296.375,265.089 293.208,270.756 288.5,275.5 Z M 23.5,19.5 C 107.501,19.3333 191.501,19.5 275.5,20C 277.917,21.6626 279.75,23.8293 281,26.5C 281.667,103.167 281.667,179.833 281,256.5C 279.75,259.171 277.917,261.337 275.5,263C 191.5,263.667 107.5,263.667 23.5,263C 21.0833,261.337 19.25,259.171 18,256.5C 17.3333,179.833 17.3333,103.167 18,26.5C 19.371,23.7339 21.2043,21.4006 23.5,19.5 Z"/></g>
<g><path style="opacity:0.963" fill="#fefefe" d="M 166.5,78.5 C 179.998,78.5016 187.165,85.1683 188,98.5C 187.529,100.246 186.862,101.913 186,103.5C 172.506,115.495 159.339,127.828 146.5,140.5C 158.848,153.682 171.682,166.349 185,178.5C 189.74,188.276 187.573,196.109 178.5,202C 173.657,204.835 168.657,205.168 163.5,203C 142.653,182.32 121.986,161.486 101.5,140.5C 122.581,119.082 144.248,98.4154 166.5,78.5 Z"/></g>
</svg>
