<?xml version="1.0" encoding="UTF-8"?>
<!DOCTYPE svg PUBLIC "-//W3C//DTD SVG 1.1//EN" "http://www.w3.org/Graphics/SVG/1.1/DTD/svg11.dtd">
<svg xmlns="http://www.w3.org/2000/svg" version="1.1" width="300px" height="279px" style="shape-rendering:geometricPrecision; text-rendering:geometricPrecision; image-rendering:optimizeQuality; fill-rule:evenodd; clip-rule:evenodd" xmlns:xlink="http://www.w3.org/1999/xlink">
<g><path style="opacity:0.93" fill="#fefefe" d="M 299.5,24.5 C 299.5,102.167 299.5,179.833 299.5,257.5C 296.528,267.118 290.528,274.118 281.5,278.5C 194.167,278.5 106.833,278.5 19.5,278.5C 15.297,276.472 11.4636,273.805 8,270.5C 5.19011,266.547 3.19011,262.213 2,257.5C 1.33333,179.5 1.33333,101.5 2,23.5C 4.42934,12.1461 11.2627,4.97939 22.5,2C 107.833,1.33333 193.167,1.33333 278.5,2C 289.954,5.45184 296.954,12.9518 299.5,24.5 Z M 24.5,18.5 C 108.501,18.3333 192.501,18.5 276.5,19C 278.917,20.6626 280.75,22.8293 282,25.5C 282.667,102.167 282.667,178.833 282,255.5C 280.75,258.171 278.917,260.337 276.5,262C 192.5,262.667 108.5,262.667 24.5,262C 22.0833,260.337 20.25,258.171 19,255.5C 18.3333,178.833 18.3333,102.167 19,25.5C 20.371,22.7339 22.2043,20.4006 24.5,18.5 Z"/></g>
<g><path style="opacity:0.963" fill="#fefefe" d="M 125.5,77.5 C 129.308,77.1632 132.974,77.6632 136.5,79C 157.347,99.6805 178.014,120.514 198.5,141.5C 178.346,161.487 158.012,181.321 137.5,201C 123.372,205.425 114.706,200.259 111.5,185.5C 111.899,183.803 112.399,182.137 113,180.5C 126.17,167.164 139.67,154.164 153.5,141.5C 141.152,128.318 128.318,115.651 115,103.5C 110.93,95.4577 112.096,88.2911 118.5,82C 120.898,80.4758 123.231,78.9758 125.5,77.5 Z"/></g>
</svg>
