<?xml version="1.0" encoding="UTF-8"?>
<!DOCTYPE svg PUBLIC "-//W3C//DTD SVG 1.1//EN" "http://www.w3.org/Graphics/SVG/1.1/DTD/svg11.dtd">
<svg xmlns="http://www.w3.org/2000/svg" version="1.1" width="500px" height="500px" style="shape-rendering:geometricPrecision; text-rendering:geometricPrecision; image-rendering:optimizeQuality; fill-rule:evenodd; clip-rule:evenodd" xmlns:xlink="http://www.w3.org/1999/xlink">
<g><path style="opacity:0.999" fill="#bce2f3" d="M 251.5,499.5 C 250.5,499.5 249.5,499.5 248.5,499.5C 237.331,481.186 221.331,469.019 200.5,463C 192.637,460.694 184.637,459.027 176.5,458C 157.489,457.092 138.489,456.092 119.5,455C 75.9771,449.144 52.8104,424.311 50,380.5C 49.5,253.834 49.3333,127.167 49.5,0.5C 183.167,0.5 316.833,0.5 450.5,0.5C 450.667,129.5 450.5,258.5 450,387.5C 445.65,427.517 423.483,450.017 383.5,455C 362.503,456.034 341.503,457.034 320.5,458C 296.589,459.875 276.423,469.375 260,486.5C 256.944,490.716 254.111,495.049 251.5,499.5 Z"/></g>
<g><path style="opacity:1" fill="#fbfcfd" d="M 204.5,41.5 C 205.117,41.6107 205.617,41.944 206,42.5C 208.215,53.5683 204.381,61.7349 194.5,67C 204.667,65.5843 212.333,69.2509 217.5,78C 206.638,81.4961 198.138,78.3294 192,68.5C 190.951,69.5171 189.784,69.6838 188.5,69C 190.081,68.2935 191.581,67.4601 193,66.5C 191.586,55.5109 195.419,47.1776 204.5,41.5 Z"/></g>
<g><path style="opacity:1" fill="#fbfdfd" d="M 309.5,67.5 C 309.5,67.8333 309.5,68.1667 309.5,68.5C 306.045,71.7791 302.379,74.9458 298.5,78C 293.905,79.3929 289.239,79.7262 284.5,79C 283.465,77.4931 283.632,75.9931 285,74.5C 290.266,67.6343 297.099,65.1343 305.5,67C 304.756,65.9614 303.756,65.4614 302.5,65.5C 302.5,63.5 301.5,62.5 299.5,62.5C 294.626,56.2957 293.293,49.2957 295.5,41.5C 304.982,47.0689 308.815,55.4022 307,66.5C 307.671,67.2524 308.504,67.5858 309.5,67.5 Z"/></g>
<g><path style="opacity:1" fill="#fbfdfd" d="M 179.5,74.5 C 178.426,75.8846 177.093,77.0513 175.5,78C 183.305,76.2158 190.305,77.8824 196.5,83C 199.284,85.7841 198.617,87.4508 194.5,88C 185.322,90.0751 177.655,87.5751 171.5,80.5C 167.167,83.8333 162.833,87.1667 158.5,90.5C 157.167,91.1667 157.167,91.8333 158.5,92.5C 167.12,89.0711 174.786,90.5711 181.5,97C 178.02,99.9074 174.02,101.407 169.5,101.5C 163.419,101.065 157.753,99.5651 152.5,97C 142.263,106.699 134.429,117.865 129,130.5C 135.823,124.546 143.656,122.879 152.5,125.5C 152.219,127.963 151.219,130.13 149.5,132C 142.267,137.271 134.267,138.938 125.5,137C 122.446,142.163 120.612,147.663 120,153.5C 125.698,144.989 133.531,142.322 143.5,145.5C 138.072,155.885 129.406,160.551 117.5,159.5C 115.56,165.361 114.727,171.361 115,177.5C 119.21,168.471 126.376,164.138 136.5,164.5C 134.065,176.92 126.398,183.253 113.5,183.5C 113.334,189.509 113.501,195.509 114,201.5C 116.751,190.917 123.584,185.25 134.5,184.5C 134.436,189.627 132.936,194.294 130,198.5C 125.375,202.889 120.208,206.389 114.5,209C 115.519,214.13 116.352,219.297 117,224.5C 118.662,214.329 124.495,207.663 134.5,204.5C 135.87,209.673 135.37,214.673 133,219.5C 129.285,224.716 124.785,229.049 119.5,232.5C 121.235,237.538 123.068,242.538 125,247.5C 124.541,236.754 129.041,228.754 138.5,223.5C 140.484,228.3 140.984,233.3 140,238.5C 136.991,244.385 133.157,249.552 128.5,254C 130.027,258.223 132.193,262.056 135,265.5C 135.13,261.049 135.796,256.716 137,252.5C 139.5,249.333 142,246.167 144.5,243C 145.449,242.383 146.282,242.549 147,243.5C 151.284,254.995 149.117,265.161 140.5,274C 143.667,277.833 146.833,281.667 150,285.5C 148.854,280.966 148.521,276.3 149,271.5C 150.763,266.959 153.263,262.959 156.5,259.5C 160.729,263.338 162.729,268.172 162.5,274C 161.18,280.277 159.68,286.444 158,292.5C 160.703,295.538 163.703,298.205 167,300.5C 163.323,292.038 163.823,283.704 168.5,275.5C 169.365,274.417 170.365,274.251 171.5,275C 179.278,284.387 180.612,294.72 175.5,306C 178.877,309.111 182.71,311.611 187,313.5C 186.004,310.494 184.671,307.494 183,304.5C 182.833,302.5 182.667,300.5 182.5,298.5C 182.257,294.137 183.257,290.137 185.5,286.5C 196.646,293.592 200.313,303.592 196.5,316.5C 196.818,317.647 197.484,318.481 198.5,319C 202.015,320.843 205.682,321.843 209.5,322C 201.764,314.697 199.43,305.864 202.5,295.5C 214.945,301.04 220.779,310.707 220,324.5C 220.5,325 221,325.5 221.5,326C 231.678,327.127 241.345,329.961 250.5,334.5C 260.007,329.995 270.007,326.995 280.5,325.5C 279.597,314.349 283.43,305.349 292,298.5C 294.228,300.113 296.728,300.78 299.5,300.5C 299.885,309.17 296.885,316.337 290.5,322C 294.693,321.772 298.693,320.605 302.5,318.5C 302.064,311.843 302.564,305.176 304,298.5C 306.114,292.217 310.281,288.217 316.5,286.5C 317.427,292.811 317.594,299.144 317,305.5C 315.877,308.249 314.377,310.749 312.5,313C 317.358,311.995 321.358,309.495 324.5,305.5C 318.762,293.141 320.929,282.475 331,273.5C 335.715,281.829 336.715,290.496 334,299.5C 337.485,297.18 340.651,294.513 343.5,291.5C 338.897,283.742 337.397,275.408 339,266.5C 340.377,264.246 341.877,262.08 343.5,260C 344.449,259.383 345.282,259.549 346,260.5C 351.601,268.21 352.935,276.544 350,285.5C 353.407,281.682 356.574,277.682 359.5,273.5C 353.183,266.715 350.35,258.715 351,249.5C 351.557,247.385 352.391,245.385 353.5,243.5C 354.002,242.479 354.668,242.312 355.5,243C 358.933,246.042 361.766,249.542 364,253.5C 365.663,257.784 365.996,262.117 365,266.5C 368.005,262.494 370.505,258.16 372.5,253.5C 361.914,245.907 358.414,235.907 362,223.5C 365.966,226.464 369.633,229.797 373,233.5C 374.969,237.232 375.969,241.232 376,245.5C 378.784,240.825 380.117,235.825 380,230.5C 368.828,225.153 364.328,216.486 366.5,204.5C 375.905,208.061 381.405,214.727 383,224.5C 384.874,218.902 385.374,213.235 384.5,207.5C 372.687,204.354 366.354,196.688 365.5,184.5C 376.066,185.1 382.733,190.433 385.5,200.5C 385.783,201.289 386.283,201.956 387,202.5C 387.82,195.986 387.653,189.653 386.5,183.5C 373.849,183.029 366.182,176.696 363.5,164.5C 372.915,163.791 380.082,167.457 385,175.5C 385.049,170.133 384.549,164.8 383.5,159.5C 372.327,160.995 363.827,156.995 358,147.5C 357.316,146.216 357.483,145.049 358.5,144C 367.649,141.996 374.816,144.83 380,152.5C 379.441,147.314 377.941,142.314 375.5,137.5C 369.528,136.67 363.528,136.17 357.5,136C 353.028,134.028 349.695,130.862 347.5,126.5C 355.982,123.041 363.815,124.041 371,129.5C 369.267,124.7 366.934,120.034 364,115.5C 363.586,115.043 363.086,114.709 362.5,114.5C 351.967,119.62 342.634,118.12 334.5,110C 342.816,103.857 350.983,104.024 359,110.5C 359.315,109.092 358.982,107.759 358,106.5C 354.833,103.333 351.667,100.167 348.5,97C 343.075,99.0235 337.408,100.524 331.5,101.5C 326.81,101.488 322.81,99.8217 319.5,96.5C 326.684,89.7533 334.684,88.7533 343.5,93.5C 343.833,93.3333 344.167,93.1667 344.5,93C 339.646,88.645 334.646,84.4783 329.5,80.5C 325.494,83.5053 321.16,86.0053 316.5,88C 299.085,88.8362 298.085,85.1696 313.5,77C 317.603,76.7134 321.603,77.0468 325.5,78C 323.253,76.7225 321.253,75.2225 319.5,73.5C 320.767,74.087 321.767,74.087 322.5,73.5C 317.1,67.1927 316.1,60.1927 319.5,52.5C 320.365,51.4173 321.365,51.2506 322.5,52C 329.624,59.3507 331.457,67.8507 328,77.5C 332.333,80.8333 336.667,84.1667 341,87.5C 339.596,82.6886 339.262,77.6886 340,72.5C 340.806,69.5544 342.139,66.8877 344,64.5C 351.787,72.9329 352.621,82.0996 346.5,92C 350.235,96.278 354.068,100.445 358,104.5C 356.275,95.933 358.609,88.5997 365,82.5C 369.135,87.4738 370.468,93.1404 369,99.5C 367.56,103.547 365.726,107.38 363.5,111C 365.922,115.756 368.756,120.256 372,124.5C 372.083,116.501 375.25,110.001 381.5,105C 382.449,104.383 383.282,104.549 384,105.5C 385.29,110.11 385.624,114.777 385,119.5C 382.721,124.263 379.888,128.596 376.5,132.5C 378.233,137.533 380.067,142.533 382,147.5C 383.461,138.571 388.294,132.238 396.5,128.5C 399.227,140.55 395.227,149.717 384.5,156C 386.062,160.745 387.395,165.578 388.5,170.5C 391.734,162.212 397.734,157.212 406.5,155.5C 406.675,167.146 401.341,175.146 390.5,179.5C 389.548,181.045 389.215,182.712 389.5,184.5C 389.334,188.514 389.501,192.514 390,196.5C 390.717,195.956 391.217,195.289 391.5,194.5C 395.51,186.99 401.843,183.323 410.5,183.5C 408.721,195.583 401.721,202.583 389.5,204.5C 388.984,209.873 388.484,215.207 388,220.5C 393.294,212.453 400.794,209.12 410.5,210.5C 409.512,215.973 406.846,220.473 402.5,224C 397.088,226.603 391.421,228.437 385.5,229.5C 383.927,234.055 382.26,238.555 380.5,243C 383.858,240.814 387.525,238.814 391.5,237C 396.184,236.539 400.851,236.705 405.5,237.5C 404.569,241.841 402.236,245.341 398.5,248C 391.458,250.909 384.125,252.743 376.5,253.5C 374.315,257.524 372.482,261.524 371,265.5C 374.737,262.366 379.07,261.033 384,261.5C 387.999,261.432 391.832,262.099 395.5,263.5C 393.711,268.786 390.044,272.286 384.5,274C 382.302,274.373 380.135,274.873 378,275.5C 373.469,274.631 368.969,274.131 364.5,274C 361.5,277.667 358.5,281.333 355.5,285C 358.54,284.087 361.707,283.253 365,282.5C 370.922,283.418 376.422,285.418 381.5,288.5C 375.467,295.677 367.801,298.177 358.5,296C 355.382,295.127 352.382,293.961 349.5,292.5C 345.46,295.194 341.793,298.361 338.5,302C 342.425,301.482 346.425,301.482 350.5,302C 354.828,303.829 358.828,306.162 362.5,309C 363.833,310 363.833,311 362.5,312C 350.949,317.435 340.116,316.268 330,308.5C 326.098,310.869 322.265,313.369 318.5,316C 327.945,315.973 335.445,319.806 341,327.5C 341.617,328.449 341.451,329.282 340.5,330C 334.167,332 327.833,332 321.5,330C 316.737,327.721 312.404,324.888 308.5,321.5C 304.06,322.702 299.726,324.202 295.5,326C 305.999,327.491 313.332,333.158 317.5,343C 308.006,346.247 299.673,344.414 292.5,337.5C 289.805,334.474 287.138,331.474 284.5,328.5C 275.006,330.109 266.006,333.109 257.5,337.5C 264.155,341.837 270.488,346.67 276.5,352C 274.691,354.409 272.358,355.409 269.5,355C 264.061,348.883 257.561,344.383 250,341.5C 242.009,345.006 235.009,350.006 229,356.5C 227.981,355.313 226.814,354.313 225.5,353.5C 224.417,352.635 224.251,351.635 225,350.5C 230.782,346.033 236.616,341.7 242.5,337.5C 233.973,333.602 225.14,330.602 216,328.5C 212.143,334.023 207.31,338.523 201.5,342C 195.26,344.695 188.927,345.028 182.5,343C 185.812,336.69 190.478,331.69 196.5,328C 199.101,327.08 201.768,326.413 204.5,326C 200.385,324.775 196.385,323.275 192.5,321.5C 188.056,324.101 183.722,326.934 179.5,330C 172.819,331.951 166.152,331.951 159.5,330C 158.549,329.282 158.383,328.449 159,327.5C 164.819,319.507 172.653,315.673 182.5,316C 178.234,313.619 174.068,311.119 170,308.5C 160.685,315.79 150.518,317.29 139.5,313C 138.5,312.167 137.5,311.333 136.5,310.5C 143.393,303.208 151.727,300.208 161.5,301.5C 158.136,298.299 154.636,295.299 151,292.5C 141.552,297.525 132.052,297.692 122.5,293C 121.167,291.667 119.833,290.333 118.5,289C 125.561,282.451 133.561,280.951 142.5,284.5C 143.521,283.998 143.688,283.332 143,282.5C 140.265,280.268 138.098,277.601 136.5,274.5C 132.259,273.365 128.092,273.699 124,275.5C 116.371,275.185 110.037,272.185 105,266.5C 104.517,265.552 104.351,264.552 104.5,263.5C 110.371,261.677 116.371,261.177 122.5,262C 125.034,262.516 127.2,263.683 129,265.5C 127.909,261.137 126.075,256.971 123.5,253C 114.343,253.493 106.177,250.993 99,245.5C 97.3029,243.301 95.8029,240.968 94.5,238.5C 103.198,234.951 111.031,236.285 118,242.5C 117.507,237.83 116.674,233.163 115.5,228.5C 102.541,229.356 93.8745,223.69 89.5,211.5C 98.6818,209.394 106.182,212.06 112,219.5C 112.168,214.828 111.834,210.161 111,205.5C 99.3368,203.003 92.1702,196.003 89.5,184.5C 98.7185,183.528 105.552,187.195 110,195.5C 110.499,190.177 110.666,184.844 110.5,179.5C 99.0584,175.629 93.8918,167.629 95,155.5C 104.027,157.86 109.693,163.527 112,172.5C 113.374,167.379 114.54,162.212 115.5,157C 110.989,153.15 107.156,148.65 104,143.5C 102.775,138.915 102.275,134.248 102.5,129.5C 112.697,132.212 117.864,138.879 118,149.5C 119.971,143.921 122.137,138.421 124.5,133C 116.692,126.206 113.859,117.706 116,107.5C 116.249,106.376 116.749,105.376 117.5,104.5C 125.562,109.626 129.062,116.959 128,126.5C 131.167,121.333 134.333,116.167 137.5,111C 131.181,102.807 130.014,93.9742 134,84.5C 134.718,83.5494 135.551,83.3828 136.5,84C 142.202,90.1544 144.035,97.3211 142,105.5C 146.597,101.576 150.43,97.0763 153.5,92C 149.86,84.1866 149.693,76.3533 153,68.5C 154.019,67.3128 155.186,66.3128 156.5,65.5C 162.037,72.7773 162.87,80.444 159,88.5C 163.048,84.7838 167.382,81.4504 172,78.5C 171.594,72.528 171.594,66.528 172,60.5C 173.588,56.745 176.088,53.745 179.5,51.5C 180.971,52.3805 181.804,53.7139 182,55.5C 183.745,62.564 182.245,68.7307 177.5,74C 178.094,74.4643 178.761,74.631 179.5,74.5 Z"/></g>
<g><path style="opacity:1" fill="#eef7fb" d="M 179.5,74.5 C 181.331,72.2513 183.664,71.0846 186.5,71C 184.423,72.705 182.09,73.8717 179.5,74.5 Z"/></g>
<g><path style="opacity:1" fill="#e8f5fa" d="M 309.5,67.5 C 313.201,69.0116 316.534,71.0116 319.5,73.5C 315.849,72.3411 312.515,70.6744 309.5,68.5C 309.5,68.1667 309.5,67.8333 309.5,67.5 Z"/></g>
<g><path style="opacity:1" fill="#d7edf7" d="M 299.5,62.5 C 301.5,62.5 302.5,63.5 302.5,65.5C 300.407,64.9553 298.407,64.122 296.5,63C 297.448,62.5172 298.448,62.3505 299.5,62.5 Z"/></g>
<g><path style="opacity:1" fill="#fbfcfd" d="M 275.5,55.5 C 283.272,53.8181 289.605,55.9848 294.5,62C 286.89,65.8801 280.057,64.7135 274,58.5C 273.761,57.212 274.261,56.212 275.5,55.5 Z"/></g>
<g><path style="opacity:1" fill="#fbfdfd" d="M 213.5,55.5 C 218.051,55.0527 222.384,55.7194 226.5,57.5C 220.91,64.3172 214.244,65.8172 206.5,62C 208.444,59.3705 210.777,57.2039 213.5,55.5 Z"/></g>
<g><path style="opacity:1" fill="#fcfdfd" d="M 152.5,102.5 C 154.592,102.561 156.092,103.561 157,105.5C 157.507,106.996 157.007,108.163 155.5,109C 161.497,113.824 166.163,119.657 169.5,126.5C 167.54,128.156 165.54,129.823 163.5,131.5C 157.937,127.106 153.27,121.939 149.5,116C 147.023,117.131 144.857,116.631 143,114.5C 142.333,113.5 142.333,112.5 143,111.5C 146.145,108.368 149.312,105.368 152.5,102.5 Z"/></g>
<g><path style="opacity:1" fill="#fbfcfd" d="M 232.5,105.5 C 236.833,105.5 241.167,105.5 245.5,105.5C 245.5,107.833 245.5,110.167 245.5,112.5C 229.869,112.405 214.535,114.405 199.5,118.5C 199.922,141.978 189.422,158.645 168,168.5C 164.954,200.659 172.954,229.659 192,255.5C 206.542,271.355 224.375,281.355 245.5,285.5C 245.5,287.833 245.5,290.167 245.5,292.5C 207.378,285.549 181.544,263.882 168,227.5C 161.282,207.477 158.782,186.977 160.5,166C 165.967,162.095 171.634,158.428 177.5,155C 189.878,144.364 195.045,130.864 193,114.5C 205.755,109.184 218.921,106.184 232.5,105.5 Z"/></g>
<g><path style="opacity:1" fill="#f9fcfd" d="M 276.5,106.5 C 289.067,105.793 300.733,108.626 311.5,115C 315.347,116.616 319.347,117.616 323.5,118C 321.047,118.738 318.547,119.238 316,119.5C 308.406,118.08 300.906,116.247 293.5,114C 275.994,110.498 261.827,115.664 251,129.5C 252.574,123.231 256.074,118.064 261.5,114C 266.324,110.921 271.324,108.421 276.5,106.5 Z"/></g>
<g><path style="opacity:1" fill="#fdfdfd" d="M 244.5,117.5 C 244.832,172.003 244.499,226.336 243.5,280.5C 221.465,276.072 203.965,264.739 191,246.5C 176.2,223.673 169.7,198.673 171.5,171.5C 192.197,161.793 203.197,145.459 204.5,122.5C 217.515,118.498 230.848,116.831 244.5,117.5 Z"/></g>
<g><path style="opacity:1" fill="#f4fafc" d="M 244.5,117.5 C 245.831,172.002 245.831,226.668 244.5,281.5C 243.893,281.376 243.56,281.043 243.5,280.5C 244.499,226.336 244.832,172.003 244.5,117.5 Z"/></g>
<g><path style="opacity:1" fill="#f9fcfd" d="M 318.5,127.5 C 320.833,128.167 323.167,128.833 325.5,129.5C 314.503,131.41 303.837,130.244 293.5,126C 276.916,122.306 263.083,126.806 252,139.5C 254.614,130.546 260.447,124.379 269.5,121C 275.997,118.705 282.664,118.039 289.5,119C 299.089,122.141 308.756,124.975 318.5,127.5 Z"/></g>
<g><path style="opacity:1" fill="#fcfdfd" d="M 181.5,120.5 C 185,120.495 186.5,122.162 186,125.5C 178.677,133.727 170.51,140.893 161.5,147C 157.609,149.112 155.776,147.946 156,143.5C 164.101,135.231 172.601,127.565 181.5,120.5 Z"/></g>
<g><path style="opacity:1" fill="#e0f1f8" d="M 318.5,127.5 C 322.182,127.335 325.848,127.501 329.5,128C 328.255,128.791 326.922,129.291 325.5,129.5C 323.167,128.833 320.833,128.167 318.5,127.5 Z"/></g>
<g><path style="opacity:1" fill="#fafcfd" d="M 320.5,137.5 C 324.167,138.167 327.833,138.833 331.5,139.5C 317.645,142.374 303.978,141.541 290.5,137C 274.539,134.32 261.372,139.153 251,151.5C 253.95,142.21 260.117,135.71 269.5,132C 277.111,130.522 284.778,130.188 292.5,131C 301.63,134.066 310.963,136.233 320.5,137.5 Z"/></g>
<g><path style="opacity:1" fill="#fafcfd" d="M 182.5,133.5 C 184.384,133.712 185.717,134.712 186.5,136.5C 185.334,139.503 183.667,142.17 181.5,144.5C 179.973,142.807 178.64,140.973 177.5,139C 179.373,137.296 181.04,135.463 182.5,133.5 Z"/></g>
<g><path style="opacity:1" fill="#e0f1f8" d="M 320.5,137.5 C 325.179,137.334 329.845,137.501 334.5,138C 333.473,138.513 332.473,139.013 331.5,139.5C 327.833,138.833 324.167,138.167 320.5,137.5 Z"/></g>
<g><path style="opacity:1" fill="#f9fcfd" d="M 173.5,141.5 C 175.584,143.077 177.584,144.91 179.5,147C 177.317,149.35 174.984,151.517 172.5,153.5C 170.833,151.5 169.167,149.5 167.5,147.5C 169.533,145.493 171.533,143.493 173.5,141.5 Z"/></g>
<g><path style="opacity:1" fill="#fdfdfd" d="M 274.5,142.5 C 279.179,142.334 283.845,142.501 288.5,143C 296.86,145.383 305.36,146.883 314,147.5C 321.34,147.109 328.507,145.776 335.5,143.5C 333.909,180.509 332.075,217.509 330,254.5C 325.498,257.333 320.665,259.5 315.5,261C 305.865,262.078 296.199,262.745 286.5,263C 269.468,265.697 257.301,274.864 250,290.5C 249.333,247.833 249.333,205.167 250,162.5C 255.648,152.68 263.815,146.013 274.5,142.5 Z"/></g>
<g><path style="opacity:1" fill="#bee2f3" d="M 204.5,208.5 C 204.5,205.833 204.5,203.167 204.5,200.5C 202.585,200.216 200.919,200.549 199.5,201.5C 199.5,206.833 199.5,212.167 199.5,217.5C 197.167,217.5 194.833,217.5 192.5,217.5C 192.5,204.5 192.5,191.5 192.5,178.5C 194.833,178.5 197.167,178.5 199.5,178.5C 199.5,183.833 199.5,189.167 199.5,194.5C 200.919,195.451 202.585,195.784 204.5,195.5C 204.5,193.167 204.5,190.833 204.5,188.5C 207.329,180.418 212.996,176.918 221.5,178C 230.272,182.041 233.938,188.874 232.5,198.5C 233.987,210.14 229.154,217.14 218,219.5C 210.841,219.014 206.341,215.347 204.5,208.5 Z"/></g>
<g><path style="opacity:1" fill="#bee2f3" d="M 280.5,178.5 C 280.334,187.506 280.5,196.506 281,205.5C 281.717,204.956 282.217,204.289 282.5,203.5C 287.443,195.383 292.61,187.383 298,179.5C 300.381,178.565 302.881,178.232 305.5,178.5C 305.5,191.5 305.5,204.5 305.5,217.5C 303.5,217.5 301.5,217.5 299.5,217.5C 299.666,208.161 299.5,198.827 299,189.5C 298.487,190.527 297.987,191.527 297.5,192.5C 292.55,200.894 287.217,209.061 281.5,217C 278.854,217.497 276.187,217.664 273.5,217.5C 273.5,204.5 273.5,191.5 273.5,178.5C 275.833,178.5 278.167,178.5 280.5,178.5 Z"/></g>
<g><path style="opacity:1" fill="#daeff8" d="M 280.5,178.5 C 281.167,186.833 281.833,195.167 282.5,203.5C 282.217,204.289 281.717,204.956 281,205.5C 280.5,196.506 280.334,187.506 280.5,178.5 Z"/></g>
<g><path style="opacity:1" fill="#fdfdfd" d="M 214.5,185.5 C 218.954,184.617 222.454,185.95 225,189.5C 225.667,195.5 225.667,201.5 225,207.5C 220.38,212.823 215.714,212.823 211,207.5C 210.333,201.5 210.333,195.5 211,189.5C 212.032,187.973 213.199,186.64 214.5,185.5 Z"/></g>
<g><path style="opacity:1" fill="#e2f2f9" d="M 386.5,183.5 C 387.653,189.653 387.82,195.986 387,202.5C 386.283,201.956 385.783,201.289 385.5,200.5C 386.489,195.025 386.822,189.358 386.5,183.5 Z"/></g>
<g><path style="opacity:1" fill="#d8edf7" d="M 389.5,184.5 C 390.167,187.833 390.833,191.167 391.5,194.5C 391.217,195.289 390.717,195.956 390,196.5C 389.501,192.514 389.334,188.514 389.5,184.5 Z"/></g>
<g><path style="opacity:1" fill="#d2ebf7" d="M 299.5,217.5 C 298.833,209.167 298.167,200.833 297.5,192.5C 297.987,191.527 298.487,190.527 299,189.5C 299.5,198.827 299.666,208.161 299.5,217.5 Z"/></g>
<g><path style="opacity:1" fill="#dbeff8" d="M 204.5,188.5 C 204.5,190.833 204.5,193.167 204.5,195.5C 202.585,195.784 200.919,195.451 199.5,194.5C 200.833,194.5 202.167,194.5 203.5,194.5C 203.205,192.265 203.539,190.265 204.5,188.5 Z"/></g>
<g><path style="opacity:1" fill="#dbeff8" d="M 199.5,201.5 C 200.919,200.549 202.585,200.216 204.5,200.5C 204.5,203.167 204.5,205.833 204.5,208.5C 203.532,206.393 203.198,204.059 203.5,201.5C 202.167,201.5 200.833,201.5 199.5,201.5 Z"/></g>
<g><path style="opacity:1" fill="#fafcfd" d="M 281.5,267.5 C 284.777,267.216 287.943,267.549 291,268.5C 294.841,274.178 298.174,280.178 301,286.5C 302.25,289.077 302.584,291.743 302,294.5C 294.715,286.093 287.548,277.593 280.5,269C 281.056,268.617 281.389,268.117 281.5,267.5 Z"/></g>
<g><path style="opacity:1" fill="#fbfdfd" d="M 274.5,269.5 C 283.473,278.147 291.807,287.48 299.5,297.5C 299,297.833 298.5,298.167 298,298.5C 285.485,293.324 275.318,285.157 267.5,274C 269.898,272.476 272.231,270.976 274.5,269.5 Z"/></g>
<g><path style="opacity:1" fill="#fbfcfd" d="M 222.5,372.5 C 224.833,372.5 227.167,372.5 229.5,372.5C 232.5,381.833 235.5,391.167 238.5,400.5C 234.078,401.021 231.745,399.021 231.5,394.5C 227.893,393.511 224.226,393.177 220.5,393.5C 220.995,399.231 218.662,401.231 213.5,399.5C 217.105,390.686 220.105,381.686 222.5,372.5 Z"/></g>
<g><path style="opacity:1" fill="#f8fbfc" d="M 244.5,372.5 C 250.167,372.5 255.833,372.5 261.5,372.5C 261.5,373.833 261.5,375.167 261.5,376.5C 257.833,376.5 254.167,376.5 250.5,376.5C 250.5,384.5 250.5,392.5 250.5,400.5C 248.5,400.5 246.5,400.5 244.5,400.5C 244.5,391.167 244.5,381.833 244.5,372.5 Z"/></g>
<g><path style="opacity:1" fill="#fafcfd" d="M 264.5,372.5 C 266.604,372.201 268.604,372.534 270.5,373.5C 272.281,378.216 274.614,382.549 277.5,386.5C 279.963,382.111 281.629,377.445 282.5,372.5C 284.527,372.338 286.527,372.505 288.5,373C 285.147,381.542 281.647,390.042 278,398.5C 274.334,402.355 270.834,402.355 267.5,398.5C 267.709,397.914 268.043,397.414 268.5,397C 270.473,396.505 272.473,396.338 274.5,396.5C 274.66,394.801 274.494,393.134 274,391.5C 270.807,385.114 267.64,378.78 264.5,372.5 Z"/></g>
<g><path style="opacity:1" fill="#c3e5f4" d="M 225.5,378.5 C 226.117,378.611 226.617,378.944 227,379.5C 227.943,382.824 228.776,386.157 229.5,389.5C 227.167,389.5 224.833,389.5 222.5,389.5C 223.297,385.777 224.297,382.11 225.5,378.5 Z"/></g>
<g><path style="opacity:1" fill="#f9fcfd" d="M 200.5,383.5 C 203.352,383.352 205.019,384.686 205.5,387.5C 203.167,392.833 200.833,392.833 198.5,387.5C 198.752,385.927 199.418,384.594 200.5,383.5 Z"/></g>
<g><path style="opacity:1" fill="#f6fafc" d="M 296.5,383.5 C 302.488,383.664 303.821,386.164 300.5,391C 298.888,391.72 297.388,391.554 296,390.5C 295.297,388.071 295.463,385.738 296.5,383.5 Z"/></g>
</svg>
