<?xml version="1.0" encoding="UTF-8"?>
<!DOCTYPE svg PUBLIC "-//W3C//DTD SVG 1.1//EN" "http://www.w3.org/Graphics/SVG/1.1/DTD/svg11.dtd">
<svg xmlns="http://www.w3.org/2000/svg" version="1.1" width="500px" height="500px" style="shape-rendering:geometricPrecision; text-rendering:geometricPrecision; image-rendering:optimizeQuality; fill-rule:evenodd; clip-rule:evenodd" xmlns:xlink="http://www.w3.org/1999/xlink">
<g><path style="opacity:0.997" fill="#e21f23" d="M 49.5,0.5 C 182.833,0.5 316.167,0.5 449.5,0.5C 449.251,118.659 449.251,236.659 449.5,354.5C 449.428,366.519 448.928,378.519 448,390.5C 444.131,421.44 427.297,441.273 397.5,450C 390.246,451.764 382.913,453.098 375.5,454C 355.118,454.131 334.785,455.131 314.5,457C 285.848,460.196 264.181,474.03 249.5,498.5C 230.989,471.9 205.322,457.734 172.5,456C 154.167,455 135.833,454 117.5,453C 76.0098,446.51 53.5098,422.343 50,380.5C 49.5,253.834 49.3333,127.167 49.5,0.5 Z"/></g>
<g><path style="opacity:1" fill="#fdf8f8" d="M 199.5,62.5 C 198.094,62.9731 197.427,63.9731 197.5,65.5C 196.167,65.8333 194.833,66.1667 193.5,66.5C 190.958,55.2637 194.624,46.9304 204.5,41.5C 206.925,49.6226 205.259,56.6226 199.5,62.5 Z"/></g>
<g><path style="opacity:1" fill="#fdf5f5" d="M 293.5,41.5 C 298.761,43.5921 302.594,47.2588 305,52.5C 305.172,57.2018 305.672,61.8685 306.5,66.5C 310.386,67.5881 310.386,68.4215 306.5,69C 300.4,77.9749 292.4,80.8082 282.5,77.5C 286.884,68.9735 293.884,65.1401 303.5,66C 300.694,63.1937 297.86,60.3604 295,57.5C 293.661,52.2636 293.161,46.9302 293.5,41.5 Z"/></g>
<g><path style="opacity:1" fill="#fdf6f6" d="M 133.5,204.5 C 134.473,206.948 134.806,209.615 134.5,212.5C 133.908,215.691 132.741,218.691 131,221.5C 127.179,224.971 123.346,228.304 119.5,231.5C 120.84,235.851 122.173,240.184 123.5,244.5C 123.783,245.289 124.283,245.956 125,246.5C 125.498,243.518 125.665,240.518 125.5,237.5C 127.669,231.326 131.669,226.659 137.5,223.5C 139.66,225.637 140.66,228.304 140.5,231.5C 138.918,240.266 134.585,247.432 127.5,253C 129.623,257.415 132.123,261.582 135,265.5C 133.877,255.418 137.377,247.418 145.5,241.5C 150.204,248.148 150.704,255.148 147,262.5C 145.082,266.004 142.916,269.337 140.5,272.5C 143.426,276.682 146.593,280.682 150,284.5C 146.885,275.394 148.385,267.061 154.5,259.5C 155.5,258.167 156.5,258.167 157.5,259.5C 160.412,263.159 162.079,267.325 162.5,272C 161.233,278.784 159.399,285.284 157,291.5C 160.115,293.647 162.948,296.147 165.5,299C 166.167,299.667 166.833,299.667 167.5,299C 163.46,290.812 163.627,282.645 168,274.5C 168.718,273.549 169.551,273.383 170.5,274C 177.177,280.846 179.343,289.012 177,298.5C 175.564,301.143 175.398,303.81 176.5,306.5C 180.034,308.934 183.701,310.767 187.5,312C 183.555,307.772 181.888,302.772 182.5,297C 182.353,292.999 183.02,289.166 184.5,285.5C 195.588,292.23 199.588,302.064 196.5,315C 196.755,316.326 197.422,317.326 198.5,318C 202.015,319.843 205.682,320.843 209.5,321C 201.119,313.701 198.786,304.867 202.5,294.5C 214.707,300.398 220.374,310.232 219.5,324C 229.652,326.162 239.486,329.328 249,333.5C 258.662,328.801 268.829,325.801 279.5,324.5C 278.601,313.331 282.435,304.331 291,297.5C 293.319,298.871 295.819,299.538 298.5,299.5C 298.89,308.133 295.89,315.3 289.5,321C 293.85,320.166 298.183,318.999 302.5,317.5C 298.751,304.584 302.085,294.084 312.5,286C 314.409,285.552 315.576,286.385 316,288.5C 316.667,293.833 316.667,299.167 316,304.5C 314.999,307.173 313.499,309.507 311.5,311.5C 312.002,312.521 312.668,312.688 313.5,312C 316.58,309.71 319.747,307.543 323,305.5C 321.058,299.027 320.391,292.36 321,285.5C 322.768,280.292 325.768,275.958 330,272.5C 335.154,281.327 335.821,290.327 332,299.5C 335.333,296.833 338.667,294.167 342,291.5C 339.415,285.514 337.582,279.18 336.5,272.5C 339.676,255.363 344.176,254.697 350,270.5C 350.609,275.323 350.276,279.99 349,284.5C 352.357,280.644 355.524,276.644 358.5,272.5C 349.721,263.568 347.721,253.401 352.5,242C 357.579,244.09 361.079,247.924 363,253.5C 363.333,257.5 363.667,261.5 364,265.5C 366.374,261.25 368.874,257.084 371.5,253C 362.003,246.178 357.837,237.012 359,225.5C 359.249,224.376 359.749,223.376 360.5,222.5C 366.696,226.02 371.03,231.02 373.5,237.5C 373.335,240.518 373.502,243.518 374,246.5C 374.513,245.473 375.013,244.473 375.5,243.5C 377.025,239.592 378.358,235.592 379.5,231.5C 375.046,227.846 370.879,223.846 367,219.5C 360.237,200.932 363.903,198.599 378,212.5C 379.528,215.417 380.861,218.417 382,221.5C 383.565,216.654 384.065,211.821 383.5,207C 372.714,203.717 366.381,196.55 364.5,185.5C 364.833,184.833 365.167,184.167 365.5,183.5C 375.783,184.883 382.283,190.55 385,200.5C 385.499,194.509 385.666,188.509 385.5,182.5C 372.618,182.272 364.952,175.939 362.5,163.5C 372.64,163.145 379.807,167.478 384,176.5C 383.823,170.443 382.99,164.443 381.5,158.5C 370.855,160.09 362.688,156.423 357,147.5C 356.51,146.207 356.343,144.873 356.5,143.5C 366.274,141.146 373.774,144.146 379,152.5C 378.388,146.663 376.554,141.163 373.5,136C 370.362,135.92 367.196,136.087 364,136.5C 356.108,136.641 350.274,133.307 346.5,126.5C 354.954,121.755 362.787,122.755 370,129.5C 368.224,124.453 365.724,119.619 362.5,115C 359.315,114.612 356.315,115.279 353.5,117C 345.448,118.641 338.782,116.308 333.5,110C 337.005,107.22 341.005,105.72 345.5,105.5C 350.576,106.23 355.243,107.73 359.5,110C 355.33,104.798 350.83,99.9645 346,95.5C 337.921,100.992 329.421,101.826 320.5,98C 318.193,96.1724 318.526,94.5057 321.5,93C 326.106,89.9668 331.106,88.9668 336.5,90C 338.402,91.3011 340.402,91.9678 342.5,92C 337.943,87.7722 333.11,83.9388 328,80.5C 322.226,85.9731 315.393,88.4731 307.5,88C 304.823,87.7506 302.49,86.7506 300.5,85C 306.52,77.4855 314.187,74.8188 323.5,77C 322.058,76.6232 321.058,75.7899 320.5,74.5C 321.043,74.44 321.376,74.1067 321.5,73.5C 316.585,67.5271 315.418,60.8604 318,53.5C 320.194,50.9825 322.194,51.3159 324,54.5C 328.799,61.6961 329.799,69.3628 327,77.5C 331.618,80.4504 335.952,83.7838 340,87.5C 336.081,79.3245 337.081,71.6578 343,64.5C 350.748,72.7449 351.581,81.7449 345.5,91.5C 349.519,95.6848 353.353,100.018 357,104.5C 355.186,96.6915 356.853,89.6915 362,83.5C 363,82.1667 364,82.1667 365,83.5C 367.072,86.8834 368.239,90.5501 368.5,94.5C 367.484,100.217 365.484,105.55 362.5,110.5C 365.067,115.295 367.9,119.962 371,124.5C 370.777,115.613 374.277,108.613 381.5,103.5C 384.72,108.927 385.22,114.594 383,120.5C 381.011,124.987 378.177,128.821 374.5,132C 376.658,137.133 378.825,142.299 381,147.5C 381.938,137.581 387.105,131.248 396.5,128.5C 397.209,134.892 396.043,140.892 393,146.5C 389.767,149.733 386.6,152.9 383.5,156C 384.874,161.121 386.04,166.288 387,171.5C 389.094,162.571 394.594,157.238 403.5,155.5C 404.461,157.265 404.795,159.265 404.5,161.5C 402.575,170.424 397.242,176.09 388.5,178.5C 388.334,184.176 388.501,189.843 389,195.5C 392.928,186.455 399.761,182.455 409.5,183.5C 407.455,195.358 400.455,202.024 388.5,203.5C 387.772,208.518 387.272,213.518 387,218.5C 390.485,213.342 395.318,210.675 401.5,210.5C 404.388,209.99 406.721,210.656 408.5,212.5C 406.864,217.975 403.53,222.142 398.5,225C 393.714,226.537 388.881,227.704 384,228.5C 382.491,233.027 380.991,237.527 379.5,242C 382.387,240.52 385.387,238.854 388.5,237C 393.864,236.171 399.198,236.337 404.5,237.5C 402.363,242.803 398.697,246.637 393.5,249C 387.644,250.823 381.644,251.99 375.5,252.5C 373.315,256.524 371.482,260.524 370,264.5C 373.311,261.181 377.311,259.848 382,260.5C 386.315,260.483 390.482,261.149 394.5,262.5C 392.698,267.771 389.032,271.271 383.5,273C 376.756,273.584 370.089,273.584 363.5,273C 360.833,276.333 358.167,279.667 355.5,283C 364.572,280.456 372.905,282.123 380.5,288C 376.391,292.597 371.224,295.097 365,295.5C 359.117,295.021 353.451,293.687 348,291.5C 344.178,294.653 340.345,297.82 336.5,301C 346.706,299.124 355.373,301.958 362.5,309.5C 354.681,315.082 346.348,315.915 337.5,312C 334.657,310.483 331.823,308.983 329,307.5C 325.51,309.651 322.01,311.818 318.5,314C 328.243,314.699 335.576,319.199 340.5,327.5C 332.467,331.607 324.467,331.44 316.5,327C 313.354,324.688 310.354,322.188 307.5,319.5C 303.289,321.626 298.956,323.459 294.5,325C 304.804,326.463 312.137,331.963 316.5,341.5C 308.799,344.562 301.466,343.729 294.5,339C 290.765,334.235 286.265,330.735 281,328.5C 272.858,329.713 265.025,332.046 257.5,335.5C 256.167,336.167 256.167,336.833 257.5,337.5C 263.7,340.533 269.2,344.533 274,349.5C 273.95,351.752 272.784,353.418 270.5,354.5C 263.737,348.901 256.57,343.901 249,339.5C 241.715,343.231 235.215,348.065 229.5,354C 226.131,354.293 224.298,352.793 224,349.5C 229.716,344.942 235.549,340.609 241.5,336.5C 233.215,332.238 224.382,329.238 215,327.5C 211.522,332.311 207.355,336.478 202.5,340C 195.948,343.758 189.281,344.258 182.5,341.5C 186.03,334.805 191.03,329.638 197.5,326C 199.5,325.667 201.5,325.333 203.5,325C 199.259,323.296 195.093,321.462 191,319.5C 182.525,329.493 172.025,332.659 159.5,329C 158.483,327.951 158.316,326.784 159,325.5C 162.824,320.009 167.991,316.676 174.5,315.5C 176.857,315.663 179.19,315.497 181.5,315C 180.956,314.283 180.289,313.783 179.5,313.5C 176.474,311.313 173.307,309.313 170,307.5C 165.714,310.059 161.214,312.226 156.5,314C 151.411,314.826 146.411,314.492 141.5,313C 139.445,312.313 137.779,311.146 136.5,309.5C 143.081,301.544 151.415,298.711 161.5,301C 158.069,297.221 154.236,294.054 150,291.5C 142.405,295.091 134.571,295.924 126.5,294C 123.438,292.939 120.938,291.106 119,288.5C 118.312,287.668 118.479,287.002 119.5,286.5C 124.947,282.626 130.947,281.126 137.5,282C 139.844,283.028 142.177,283.694 144.5,284C 141.022,280.701 138.022,277.034 135.5,273C 128.856,273.378 122.189,273.378 115.5,273C 110.633,271.466 106.966,268.466 104.5,264C 104.905,263.055 105.572,262.388 106.5,262C 114.506,259.301 122.006,260.135 129,264.5C 127.518,260.524 125.685,256.524 123.5,252.5C 115.704,252.41 108.37,250.577 101.5,247C 98.5564,244.278 96.2231,241.111 94.5,237.5C 103.039,235.249 110.872,236.583 118,241.5C 117.299,237.204 116.465,232.871 115.5,228.5C 102.064,228.468 93.3969,222.135 89.5,209.5C 98.9686,208.655 106.469,211.989 112,219.5C 112.161,214.782 111.661,210.115 110.5,205.5C 103.941,202.972 98.1079,199.305 93,194.5C 91.2103,190.673 90.0436,186.673 89.5,182.5C 97.8682,182.845 104.201,186.511 108.5,193.5C 108.783,194.289 109.283,194.956 110,195.5C 110.497,192.854 110.664,190.187 110.5,187.5C 110.664,184.813 110.497,182.146 110,179.5C 100.306,175.482 94.8061,168.315 93.5,158C 93.8333,156.833 94.1667,155.667 94.5,154.5C 103.636,157.467 109.47,163.467 112,172.5C 112.751,166.913 113.918,161.413 115.5,156C 111.355,153.189 107.855,149.689 105,145.5C 102.461,140.03 101.961,134.363 103.5,128.5C 109.544,131.21 113.877,135.543 116.5,141.5C 116.192,143.924 116.526,146.257 117.5,148.5C 118.107,148.376 118.44,148.043 118.5,147.5C 119.808,142.077 121.808,136.911 124.5,132C 115.733,124.988 112.899,116.154 116,105.5C 116.718,104.549 117.551,104.383 118.5,105C 125.289,109.745 128.456,116.245 128,124.5C 130.965,120.068 133.798,115.568 136.5,111C 134.246,106.66 132.413,102.16 131,97.5C 129.708,91.7644 131.041,86.7644 135,82.5C 137.826,85.4835 140.159,88.8168 142,92.5C 142.186,96.5159 142.186,100.516 142,104.5C 146.202,100.633 150.035,96.4668 153.5,92C 147.379,82.0996 148.213,72.9329 156,64.5C 157.861,66.8877 159.194,69.5544 160,72.5C 160.648,77.6576 160.315,82.6576 159,87.5C 163.333,84.1667 167.667,80.8333 172,77.5C 170.866,72.2724 170.533,66.939 171,61.5C 176.85,48.7008 180.683,48.8675 182.5,62C 182.463,66.4079 180.796,70.0746 177.5,73C 180.167,72.3333 182.833,71.6667 185.5,71C 181.664,73.0836 177.997,75.417 174.5,78C 183.978,74.7301 191.644,77.2301 197.5,85.5C 193.267,88.3617 188.6,89.195 183.5,88C 178.872,86.0191 174.539,83.5191 170.5,80.5C 166.022,83.8104 161.689,87.3104 157.5,91C 166.278,87.9777 173.944,89.8111 180.5,96.5C 171.163,103.245 161.996,102.911 153,95.5C 142.319,105.306 134.485,116.639 129.5,129.5C 135.328,124.743 141.994,123.243 149.5,125C 150.624,125.249 151.624,125.749 152.5,126.5C 150.637,130.53 147.637,133.363 143.5,135C 137.303,136.452 131.136,136.952 125,136.5C 122.296,141.606 120.629,146.94 120,152.5C 124.195,146.069 130.195,143.069 138,143.5C 139.833,143.833 141.667,144.167 143.5,144.5C 138.265,155.288 129.598,160.122 117.5,159C 115.373,164.301 114.54,169.801 115,175.5C 119.68,167.239 126.846,163.239 136.5,163.5C 133.991,176.004 126.325,182.337 113.5,182.5C 113.334,188.509 113.501,194.509 114,200.5C 116.559,190.31 123.059,184.977 133.5,184.5C 132.893,196.774 126.56,204.107 114.5,206.5C 114.682,212.257 115.515,217.924 117,223.5C 118.39,213.609 123.89,207.276 133.5,204.5 Z"/></g>
<g><path style="opacity:1" fill="#fdf6f6" d="M 152.5,101.5 C 156.093,103.114 157.26,105.781 156,109.5C 161.635,114.129 166.135,119.629 169.5,126C 166.809,129.785 163.476,130.785 159.5,129C 155.286,124.454 151.453,119.621 148,114.5C 147.311,115.357 146.478,116.023 145.5,116.5C 143.639,115.472 142.305,113.972 141.5,112C 145.241,108.484 148.908,104.984 152.5,101.5 Z"/></g>
<g><path style="opacity:1" fill="#f8c5c5" d="M 320.5,74.5 C 317.91,73.8717 315.577,72.705 313.5,71C 316.336,71.0846 318.669,72.2513 320.5,74.5 Z"/></g>
<g><path style="opacity:1" fill="#fdf6f6" d="M 193.5,66.5 C 203.047,65.1532 210.547,68.4865 216,76.5C 216.667,77.1667 216.667,77.8333 216,78.5C 209.821,80.3005 203.988,79.4672 198.5,76C 195.797,72.962 192.797,70.2954 189.5,68C 190.745,67.2086 192.078,66.7086 193.5,66.5 Z"/></g>
<g><path style="opacity:1" fill="#ee7e7f" d="M 204.5,61.5 C 204.5,61.8333 204.5,62.1667 204.5,62.5C 202.321,63.6772 199.987,64.6772 197.5,65.5C 197.427,63.9731 198.094,62.9731 199.5,62.5C 199.435,62.9382 199.601,63.2716 200,63.5C 201.47,62.7334 202.97,62.0668 204.5,61.5 Z"/></g>
<g><path style="opacity:1" fill="#fdeded" d="M 276.5,54.5 C 283.668,53.481 289.335,55.981 293.5,62C 285.236,66.0533 278.236,64.3866 272.5,57C 273.858,56.0656 275.192,55.2323 276.5,54.5 Z"/></g>
<g><path style="opacity:1" fill="#fdf2f2" d="M 204.5,62.5 C 204.5,62.1667 204.5,61.8333 204.5,61.5C 207.663,59.1888 210.997,57.0222 214.5,55C 218.696,54.3809 222.696,55.0475 226.5,57C 220.362,63.8678 213.029,65.7012 204.5,62.5 Z"/></g>
<g><path style="opacity:1" fill="#fdf6f6" d="M 227.5,105.5 C 233.167,105.5 238.833,105.5 244.5,105.5C 244.5,107.833 244.5,110.167 244.5,112.5C 229.519,112.318 214.853,114.318 200.5,118.5C 199.385,141.595 188.385,157.929 167.5,167.5C 164.149,196.919 170.649,223.919 187,248.5C 201.618,267.728 220.784,279.728 244.5,284.5C 244.5,286.5 244.5,288.5 244.5,290.5C 205.836,284.35 180.002,262.684 167,225.5C 160.361,205.691 158.028,185.357 160,164.5C 170.765,159.731 179.765,152.731 187,143.5C 191.242,134.001 193.408,124.001 193.5,113.5C 204.513,108.911 215.847,106.245 227.5,105.5 Z"/></g>
<g><path style="opacity:1" fill="#fdf3f2" d="M 273.5,106.5 C 279.176,106.334 284.843,106.501 290.5,107C 301.227,110.707 311.893,114.374 322.5,118C 311.513,118.59 300.847,116.923 290.5,113C 274.695,110.653 261.528,115.486 251,127.5C 252.291,122.774 254.791,118.607 258.5,115C 262.978,111.098 267.978,108.265 273.5,106.5 Z"/></g>
<g><path style="opacity:1" fill="#fdfcfc" d="M 226.5,116.5 C 232.5,116.5 238.5,116.5 244.5,116.5C 244.833,171.171 244.5,225.837 243.5,280.5C 207.685,271.519 184.852,249.186 175,213.5C 170.814,199.4 169.647,185.067 171.5,170.5C 192.252,160.645 202.585,144.312 202.5,121.5C 210.619,119.811 218.619,118.144 226.5,116.5 Z"/></g>
<g><path style="opacity:1" fill="#fdf4f4" d="M 273.5,118.5 C 278.844,118.334 284.177,118.501 289.5,119C 298.299,121.266 306.965,123.933 315.5,127C 329.932,127.653 329.765,128.487 315,129.5C 306.246,129.347 297.746,127.847 289.5,125C 273.323,122.506 260.156,127.672 250,140.5C 254.059,129.278 261.893,121.945 273.5,118.5 Z"/></g>
<g><path style="opacity:1" fill="#fdf6f6" d="M 181.5,119.5 C 184.323,120.148 185.823,121.814 186,124.5C 177.256,133.249 167.922,141.249 158,148.5C 156.017,147.234 155.017,145.568 155,143.5C 163.245,134.665 172.078,126.665 181.5,119.5 Z"/></g>
<g><path style="opacity:1" fill="#fdf2f2" d="M 273.5,129.5 C 278.179,129.334 282.845,129.501 287.5,130C 297.454,132.54 307.454,134.874 317.5,137C 322.884,137.505 328.218,137.505 333.5,137C 326.897,139.406 320.064,140.573 313,140.5C 303.697,139.883 294.53,138.383 285.5,136C 270.889,134.72 259.056,139.887 250,151.5C 254.068,140.269 261.901,132.936 273.5,129.5 Z"/></g>
<g><path style="opacity:1" fill="#fdf6f6" d="M 182.5,132.5 C 184.022,133.191 185.022,134.358 185.5,136C 184.556,138.722 183.223,141.222 181.5,143.5C 179.625,142.46 178.292,140.96 177.5,139C 178.985,136.683 180.652,134.516 182.5,132.5 Z"/></g>
<g><path style="opacity:1" fill="#fdf5f5" d="M 172.5,141.5 C 175.069,142.396 177.069,144.062 178.5,146.5C 176.833,148.833 174.833,150.833 172.5,152.5C 170.295,151.129 168.628,149.296 167.5,147C 169.137,145.172 170.803,143.339 172.5,141.5 Z"/></g>
<g><path style="opacity:1" fill="#fdfbfb" d="M 250.5,287.5 C 249.833,281.833 249.167,276.167 248.5,270.5C 248.333,234.165 248.5,197.832 249,161.5C 256.055,149.121 266.722,142.455 281,141.5C 291.386,143.888 301.886,145.555 312.5,146.5C 319.8,146.707 326.8,145.373 333.5,142.5C 333.272,179.518 331.772,216.518 329,253.5C 324.271,256.611 319.105,258.778 313.5,260C 304.204,261.109 294.87,261.776 285.5,262C 269.161,264.183 257.494,272.683 250.5,287.5 Z"/></g>
<g><path style="opacity:1" fill="#f0898b" d="M 116.5,141.5 C 117.167,143.5 117.833,145.5 118.5,147.5C 118.44,148.043 118.107,148.376 117.5,148.5C 116.526,146.257 116.192,143.924 116.5,141.5 Z"/></g>
<g><path style="opacity:1" fill="#f29b9d" d="M 403.5,155.5 C 403.56,154.957 403.893,154.624 404.5,154.5C 405.797,156.973 405.797,159.307 404.5,161.5C 404.795,159.265 404.461,157.265 403.5,155.5 Z"/></g>
<g><path style="opacity:1" fill="#e32b2b" d="M 198.5,177.5 C 198.5,183.167 198.5,188.833 198.5,194.5C 200.167,194.5 201.833,194.5 203.5,194.5C 203.5,193.167 203.5,191.833 203.5,190.5C 205.452,179.849 211.785,175.682 222.5,178C 230.187,182.189 233.187,188.689 231.5,197.5C 232.811,213.365 225.811,219.865 210.5,217C 204.458,213.082 202.125,207.582 203.5,200.5C 201.833,200.5 200.167,200.5 198.5,200.5C 198.5,205.833 198.5,211.167 198.5,216.5C 196.167,216.5 193.833,216.5 191.5,216.5C 191.5,203.5 191.5,190.5 191.5,177.5C 193.833,177.5 196.167,177.5 198.5,177.5 Z"/></g>
<g><path style="opacity:1" fill="#f29d9f" d="M 198.5,177.5 C 199.488,182.64 199.821,187.974 199.5,193.5C 200.5,193.5 201.5,193.5 202.5,193.5C 202.263,192.209 202.596,191.209 203.5,190.5C 203.5,191.833 203.5,193.167 203.5,194.5C 201.833,194.5 200.167,194.5 198.5,194.5C 198.5,188.833 198.5,183.167 198.5,177.5 Z"/></g>
<g><path style="opacity:1" fill="#e22125" d="M 298.5,216.5 C 298.666,207.494 298.5,198.494 298,189.5C 297.283,190.044 296.783,190.711 296.5,191.5C 291.527,199.483 286.527,207.483 281.5,215.5C 278.914,216.48 276.247,216.813 273.5,216.5C 273.5,203.833 273.5,191.167 273.5,178.5C 275.5,178.5 277.5,178.5 279.5,178.5C 279.334,187.506 279.5,196.506 280,205.5C 280.513,204.473 281.013,203.473 281.5,202.5C 286.415,194.246 291.749,186.246 297.5,178.5C 299.743,177.526 302.076,177.192 304.5,177.5C 304.5,190.5 304.5,203.5 304.5,216.5C 302.5,216.5 300.5,216.5 298.5,216.5 Z"/></g>
<g><path style="opacity:1" fill="#ef7f81" d="M 281.5,202.5 C 281.013,203.473 280.513,204.473 280,205.5C 279.5,196.506 279.334,187.506 279.5,178.5C 277.5,178.5 275.5,178.5 273.5,178.5C 273.5,191.167 273.5,203.833 273.5,216.5C 272.505,203.677 272.171,190.677 272.5,177.5C 275.167,177.5 277.833,177.5 280.5,177.5C 280.174,186.017 280.507,194.35 281.5,202.5 Z"/></g>
<g><path style="opacity:1" fill="#fdf8f8" d="M 213.5,184.5 C 215.857,184.337 218.19,184.503 220.5,185C 222.333,185.5 223.5,186.667 224,188.5C 224.667,194.833 224.667,201.167 224,207.5C 218.513,213.133 213.846,212.466 210,205.5C 209.333,200.167 209.333,194.833 210,189.5C 210.997,187.677 212.164,186.01 213.5,184.5 Z"/></g>
<g><path style="opacity:1" fill="#f18a8b" d="M 110.5,187.5 C 110.664,190.187 110.497,192.854 110,195.5C 109.283,194.956 108.783,194.289 108.5,193.5C 109.167,191.5 109.833,189.5 110.5,187.5 Z"/></g>
<g><path style="opacity:1" fill="#ec6d70" d="M 298.5,216.5 C 297.833,208.167 297.167,199.833 296.5,191.5C 296.783,190.711 297.283,190.044 298,189.5C 298.5,198.494 298.666,207.494 298.5,216.5 Z"/></g>
<g><path style="opacity:1" fill="#ed7375" d="M 133.5,204.5 C 133.56,203.957 133.893,203.624 134.5,203.5C 135.803,206.645 135.803,209.645 134.5,212.5C 134.806,209.615 134.473,206.948 133.5,204.5 Z"/></g>
<g><path style="opacity:1" fill="#f3a8a9" d="M 401.5,210.5 C 403.948,209.527 406.615,209.194 409.5,209.5C 409.737,210.791 409.404,211.791 408.5,212.5C 406.721,210.656 404.388,209.99 401.5,210.5 Z"/></g>
<g><path style="opacity:1" fill="#ef8688" d="M 373.5,237.5 C 374.167,239.5 374.833,241.5 375.5,243.5C 375.013,244.473 374.513,245.473 374,246.5C 373.502,243.518 373.335,240.518 373.5,237.5 Z"/></g>
<g><path style="opacity:1" fill="#f19597" d="M 125.5,237.5 C 125.665,240.518 125.498,243.518 125,246.5C 124.283,245.956 123.783,245.289 123.5,244.5C 124.167,242.167 124.833,239.833 125.5,237.5 Z"/></g>
<g><path style="opacity:1" fill="#fdf2f2" d="M 280.5,266.5 C 283.518,266.335 286.518,266.502 289.5,267C 295.707,274.903 299.54,283.737 301,293.5C 293.715,285.093 286.548,276.593 279.5,268C 280.056,267.617 280.389,267.117 280.5,266.5 Z"/></g>
<g><path style="opacity:1" fill="#fdf3f3" d="M 273.5,268.5 C 274.496,268.414 275.329,268.748 276,269.5C 281.96,277.128 288.293,284.462 295,291.5C 296.602,293.369 297.602,295.369 298,297.5C 285.244,292.356 274.744,284.189 266.5,273C 268.898,271.476 271.231,269.976 273.5,268.5 Z"/></g>
<g><path style="opacity:1" fill="#f7c4c5" d="M 248.5,270.5 C 249.167,276.167 249.833,281.833 250.5,287.5C 250.217,288.289 249.717,288.956 249,289.5C 248.5,283.175 248.334,276.842 248.5,270.5 Z"/></g>
<g><path style="opacity:1" fill="#ee7d7f" d="M 179.5,313.5 C 180.289,313.783 180.956,314.283 181.5,315C 179.19,315.497 176.857,315.663 174.5,315.5C 176.167,314.833 177.833,314.167 179.5,313.5 Z"/></g>
<g><path style="opacity:1" fill="#fdeeee" d="M 222.5,370.5 C 224.604,370.201 226.604,370.534 228.5,371.5C 231.543,380.798 234.876,389.965 238.5,399C 236.527,399.495 234.527,399.662 232.5,399.5C 232.335,397.173 231.669,395.007 230.5,393C 226.848,392.501 223.182,392.335 219.5,392.5C 219.007,394.806 218.674,397.139 218.5,399.5C 216.473,399.662 214.473,399.495 212.5,399C 215.934,389.531 219.267,380.031 222.5,370.5 Z"/></g>
<g><path style="opacity:1" fill="#fdf3f3" d="M 244.5,370.5 C 249.833,370.5 255.167,370.5 260.5,370.5C 260.5,372.167 260.5,373.833 260.5,375.5C 256.833,375.5 253.167,375.5 249.5,375.5C 249.5,383.5 249.5,391.5 249.5,399.5C 247.833,399.5 246.167,399.5 244.5,399.5C 244.5,389.833 244.5,380.167 244.5,370.5 Z"/></g>
<g><path style="opacity:1" fill="#fdf0f0" d="M 263.5,370.5 C 265.604,370.201 267.604,370.534 269.5,371.5C 271.306,376.446 273.639,381.112 276.5,385.5C 278.605,380.954 280.439,376.287 282,371.5C 283.814,370.24 285.647,370.24 287.5,371.5C 284.168,381.008 280.168,390.174 275.5,399C 272.833,399.667 270.167,399.667 267.5,399C 266.352,395.482 267.518,394.315 271,395.5C 272.434,395.07 273.601,394.236 274.5,393C 270.422,385.678 266.755,378.178 263.5,370.5 Z"/></g>
<g><path style="opacity:1" fill="#e32c2c" d="M 224.5,377.5 C 226.785,380.335 228.118,383.668 228.5,387.5C 226.5,387.5 224.5,387.5 222.5,387.5C 222.959,384.123 223.626,380.789 224.5,377.5 Z"/></g>
<g><path style="opacity:1" fill="#fdf2f2" d="M 198.5,382.5 C 204.158,381.679 205.825,383.846 203.5,389C 198.126,389.762 196.459,387.595 198.5,382.5 Z"/></g>
<g><path style="opacity:1" fill="#fdf7f7" d="M 295.5,382.5 C 301.016,382.473 302.349,384.64 299.5,389C 294.57,389.427 293.237,387.26 295.5,382.5 Z"/></g>
</svg>
