<?xml version="1.0" encoding="UTF-8"?>
<!DOCTYPE svg PUBLIC "-//W3C//DTD SVG 1.1//EN" "http://www.w3.org/Graphics/SVG/1.1/DTD/svg11.dtd">
<svg xmlns="http://www.w3.org/2000/svg" version="1.1" width="1920px" height="620px" style="shape-rendering:geometricPrecision; text-rendering:geometricPrecision; image-rendering:optimizeQuality; fill-rule:evenodd; clip-rule:evenodd" xmlns:xlink="http://www.w3.org/1999/xlink">
<g><path style="opacity:0.89" fill="#fefefe" d="M 143.5,165.5 C 144.482,166.141 145.482,166.807 146.5,167.5C 163.833,166.167 181.167,166.167 198.5,167.5C 224.55,225.606 250.217,283.439 275.5,341C 274.663,342.011 274.33,343.178 274.5,344.5C 256.164,344.667 237.83,344.5 219.5,344C 218.572,343.612 217.905,342.945 217.5,342C 213.358,331.236 209.024,320.57 204.5,310C 179.167,309.333 153.833,309.333 128.5,310C 128.833,310.333 129.167,310.667 129.5,311C 127.684,314.793 125.684,318.46 123.5,322C 123.5,323.333 123.5,324.667 123.5,326C 122.178,328.634 120.511,331.3 118.5,334C 118.833,334.333 119.167,334.667 119.5,335C 118.5,336.667 117.5,338.333 116.5,340C 117.345,341.558 116.679,342.558 114.5,343C 115.654,343.914 115.487,344.747 114,345.5C 95.3333,344.833 76.6667,344.167 58,343.5C 55.9251,346.028 55.0918,345.861 55.5,343C 52.2012,341.035 49.5346,338.368 47.5,335C 47.8333,334.667 48.1667,334.333 48.5,334C 46.5172,332.886 44.8505,331.386 43.5,329.5C 39.014,322.869 34.014,316.035 28.5,309C 28.9574,308.586 29.2907,308.086 29.5,307.5C 47.1572,306.334 64.8239,306.167 82.5,307C 83,307.5 83.5,308 84,308.5C 86.3506,307.286 88.8506,306.452 91.5,306C 83.3277,296.518 75.4944,286.685 68,276.5C 66.9914,274.975 66.4914,273.308 66.5,271.5C 81.5037,271.667 96.5037,271.5 111.5,271C 102.805,259.884 94.1383,248.217 85.5,236C 86.1667,235.667 86.8333,235.333 87.5,235C 84.7111,234.759 82.0444,234.092 79.5,233C 88.638,219.944 98.138,207.778 108,196.5C 117.089,208.159 125.755,219.492 134,230.5C 134.684,231.784 134.517,232.951 133.5,234C 135.5,234.667 137.5,234.667 139.5,234C 130.878,222.935 122.878,211.935 115.5,201C 122.57,191.155 130.07,180.988 138,170.5C 139.422,168.258 141.255,166.591 143.5,165.5 Z M 170.5,223.5 C 169.167,223.833 169.167,224.167 170.5,224.5C 171.323,226.987 172.323,229.321 173.5,231.5C 176.113,236.694 178.113,241.694 179.5,246.5C 180.274,250.276 181.941,253.609 184.5,256.5C 184.291,257.086 183.957,257.586 183.5,258C 186.047,262.138 187.714,266.638 188.5,271.5C 174.163,271.667 159.829,271.5 145.5,271C 145.694,269.57 145.694,268.07 145.5,266.5C 147.494,265.219 148.828,262.886 149.5,259.5C 151.004,257.287 152.004,255.12 152.5,253C 151.378,251.387 151.878,250.22 154,249.5C 154.608,247.846 155.108,246.179 155.5,244.5C 156.578,242.461 157.578,240.294 158.5,238C 157.742,236.636 158.242,235.469 160,234.5C 162.187,227.501 164.854,221.167 168,215.5C 168.617,216.449 168.451,217.282 167.5,218C 168.312,219.823 169.312,221.656 170.5,223.5 Z M 140.5,235.5 C 141.391,236.261 142.058,237.261 142.5,238.5C 140.063,241.8 138.063,244.8 136.5,247.5C 135.026,248.436 134.026,249.77 133.5,251.5C 130.655,254.989 127.655,258.989 124.5,263.5C 123.15,266.421 121.15,268.921 118.5,271C 116.025,270.743 116.025,269.743 118.5,268C 121.637,262.565 125.637,257.231 130.5,252C 130.167,251.667 129.833,251.333 129.5,251C 133.631,247.078 137.298,242.745 140.5,238C 139.402,237.23 139.402,236.397 140.5,235.5 Z"/></g>
<g><path style="opacity:0.649" fill="#fefefe" d="M 93.5,180.5 C 92.9704,178.284 93.637,176.118 95.5,174C 95.0426,173.586 94.7093,173.086 94.5,172.5C 94.953,170.435 95.953,168.768 97.5,167.5C 102.253,171.944 105.92,176.611 108.5,181.5C 106.718,184.319 104.218,186.319 101,187.5C 100.667,187.167 100.333,186.833 100,186.5C 98.0569,188.645 95.7236,190.312 93,191.5C 91.3238,187.953 91.4905,184.286 93.5,180.5 Z"/></g>
<g><path style="opacity:0.972" fill="#fdfefd" d="M 292.5,172.5 C 340.5,172.5 388.5,172.5 436.5,172.5C 436.5,185.5 436.5,198.5 436.5,211.5C 404.833,211.5 373.167,211.5 341.5,211.5C 341.5,220.167 341.5,228.833 341.5,237.5C 361.521,237.223 381.521,237.723 401.5,239C 437.41,243.984 453.243,264.484 449,300.5C 445.345,318.315 435.179,330.815 418.5,338C 412.952,340.072 407.285,341.738 401.5,343C 365.202,344.461 328.868,344.961 292.5,344.5C 292.5,287.167 292.5,229.833 292.5,172.5 Z M 341.5,273.5 C 356.891,273.065 372.225,273.565 387.5,275C 395.862,277.057 400.195,282.39 400.5,291C 399.868,299.967 395.201,305.634 386.5,308C 371.55,309.416 356.55,309.916 341.5,309.5C 341.5,297.5 341.5,285.5 341.5,273.5 Z"/></g>
<g><path style="opacity:0.974" fill="#fdfefd" d="M 473.5,172.5 C 489.833,172.5 506.167,172.5 522.5,172.5C 522.333,205.502 522.5,238.502 523,271.5C 545.778,238.389 568.945,205.556 592.5,173C 607.83,172.5 623.163,172.333 638.5,172.5C 638.5,229.833 638.5,287.167 638.5,344.5C 622.167,344.5 605.833,344.5 589.5,344.5C 589.667,312.165 589.5,279.832 589,247.5C 566.305,279.362 543.805,311.362 521.5,343.5C 505.514,344.499 489.514,344.833 473.5,344.5C 473.5,287.167 473.5,229.833 473.5,172.5 Z"/></g>
<g><path style="opacity:0.968" fill="#fdfefd" d="M 659.5,172.5 C 710.5,172.5 761.5,172.5 812.5,172.5C 812.5,185.833 812.5,199.167 812.5,212.5C 795.167,212.5 777.833,212.5 760.5,212.5C 760.5,256.5 760.5,300.5 760.5,344.5C 744.167,344.5 727.833,344.5 711.5,344.5C 711.5,300.5 711.5,256.5 711.5,212.5C 694.167,212.5 676.833,212.5 659.5,212.5C 659.5,199.167 659.5,185.833 659.5,172.5 Z"/></g>
<g><path style="opacity:0.967" fill="#fdfefd" d="M 817.5,172.5 C 834.846,172.167 852.179,172.5 869.5,173.5C 882.667,200.5 895.833,227.5 909,254.5C 922.5,227.5 936,200.5 949.5,173.5C 965.486,172.501 981.486,172.167 997.5,172.5C 974.634,216.562 951.467,260.562 928,304.5C 907.292,344.573 875.459,357.573 832.5,343.5C 836.369,331.226 840.036,318.893 843.5,306.5C 849.45,307.714 855.45,308.714 861.5,309.5C 871.335,309.254 878.668,304.921 883.5,296.5C 861.04,255.384 839.04,214.05 817.5,172.5 Z"/></g>
<g><path style="opacity:0.972" fill="#fdfefd" d="M 1015.5,172.5 C 1042.17,172.333 1068.84,172.5 1095.5,173C 1115.31,172.45 1133.31,177.783 1149.5,189C 1167.06,204.996 1173.89,224.829 1170,248.5C 1166.9,266.226 1157.73,279.726 1142.5,289C 1130.35,295.621 1117.35,299.288 1103.5,300C 1090.84,300.5 1078.17,300.667 1065.5,300.5C 1065.5,315.167 1065.5,329.833 1065.5,344.5C 1048.83,344.5 1032.17,344.5 1015.5,344.5C 1015.5,287.167 1015.5,229.833 1015.5,172.5 Z M 1065.5,212.5 C 1077.17,212.333 1088.84,212.5 1100.5,213C 1113.52,215.689 1120.52,223.689 1121.5,237C 1119.78,253.044 1110.78,261.044 1094.5,261C 1084.84,261.5 1075.17,261.666 1065.5,261.5C 1065.5,245.167 1065.5,228.833 1065.5,212.5 Z"/></g>
<g><path style="opacity:0.985" fill="#fdfefd" d="M 1194.5,172.5 C 1210.5,172.5 1226.5,172.5 1242.5,172.5C 1242.33,205.502 1242.5,238.502 1243,271.5C 1266.04,238.579 1289.21,205.746 1312.5,173C 1327.83,172.5 1343.16,172.333 1358.5,172.5C 1358.5,229.833 1358.5,287.167 1358.5,344.5C 1342.5,344.5 1326.5,344.5 1310.5,344.5C 1310.67,311.832 1310.5,279.165 1310,246.5C 1287.04,278.912 1264.21,311.412 1241.5,344C 1225.84,344.5 1210.17,344.667 1194.5,344.5C 1194.5,287.167 1194.5,229.833 1194.5,172.5 Z"/></g>
<g><path style="opacity:0.976" fill="#fdfefd" d="M 1394.5,172.5 C 1439.5,172.5 1484.5,172.5 1529.5,172.5C 1529.5,185.5 1529.5,198.5 1529.5,211.5C 1500.83,211.5 1472.17,211.5 1443.5,211.5C 1443.5,220.833 1443.5,230.167 1443.5,239.5C 1468.83,239.5 1494.17,239.5 1519.5,239.5C 1519.5,251.833 1519.5,264.167 1519.5,276.5C 1494.17,276.5 1468.83,276.5 1443.5,276.5C 1443.5,286.5 1443.5,296.5 1443.5,306.5C 1473.17,306.5 1502.83,306.5 1532.5,306.5C 1532.5,319.167 1532.5,331.833 1532.5,344.5C 1486.5,344.5 1440.5,344.5 1394.5,344.5C 1394.5,287.167 1394.5,229.833 1394.5,172.5 Z"/></g>
<g><path style="opacity:0.976" fill="#fdfefd" d="M 1559.5,172.5 C 1575.83,172.5 1592.17,172.5 1608.5,172.5C 1608.5,194.167 1608.5,215.833 1608.5,237.5C 1630.17,237.5 1651.83,237.5 1673.5,237.5C 1673.33,216.164 1673.5,194.831 1674,173.5C 1690.42,172.508 1706.92,172.175 1723.5,172.5C 1723.5,229.833 1723.5,287.167 1723.5,344.5C 1706.83,344.5 1690.17,344.5 1673.5,344.5C 1673.5,322.5 1673.5,300.5 1673.5,278.5C 1651.83,278.5 1630.17,278.5 1608.5,278.5C 1608.5,300.5 1608.5,322.5 1608.5,344.5C 1592.17,344.5 1575.83,344.5 1559.5,344.5C 1559.5,287.167 1559.5,229.833 1559.5,172.5 Z"/></g>
<g><path style="opacity:0.969" fill="#fdfefd" d="M 1744.5,172.5 C 1795.5,172.5 1846.5,172.5 1897.5,172.5C 1897.5,185.833 1897.5,199.167 1897.5,212.5C 1880.17,212.5 1862.83,212.5 1845.5,212.5C 1845.5,256.5 1845.5,300.5 1845.5,344.5C 1829.17,344.5 1812.83,344.5 1796.5,344.5C 1796.5,300.5 1796.5,256.5 1796.5,212.5C 1779.17,212.5 1761.83,212.5 1744.5,212.5C 1744.5,199.167 1744.5,185.833 1744.5,172.5 Z"/></g>
<g><path style="opacity:0.56" fill="#fefefe" d="M 74.5,176.5 C 75.552,176.351 76.552,176.517 77.5,177C 80.2716,179.688 82.9383,182.354 85.5,185C 82.3563,188.309 79.023,191.476 75.5,194.5C 74.914,194.291 74.414,193.957 74,193.5C 73.2153,187.751 73.3819,182.084 74.5,176.5 Z"/></g>
<g><path style="opacity:0.004" fill="#fefffe" d="M 93.5,180.5 C 92.8333,179.167 92.8333,179.167 93.5,180.5 Z"/></g>
<g><path style="opacity:0.606" fill="#fefefe" d="M 60.5,196.5 C 67.5677,197.709 72.901,201.542 76.5,208C 72.3647,212.465 67.8647,216.632 63,220.5C 62.3333,219.833 61.6667,219.167 61,218.5C 60.5003,211.174 60.3337,203.841 60.5,196.5 Z"/></g>
<g><path style="opacity:0.711" fill="#fefefe" d="M 64.5,239.5 C 65.2679,240.263 65.7679,241.263 66,242.5C 66.3333,242.167 66.6667,241.833 67,241.5C 70.8397,244.309 74.673,247.809 78.5,252C 73.8619,257.11 69.0286,261.276 64,264.5C 63.5,264 63,263.5 62.5,263C 63.8333,255.667 63.8333,248.333 62.5,241C 63.4158,240.722 64.0825,240.222 64.5,239.5 Z"/></g>
<g><path style="opacity:0.805" fill="#fdfefd" d="M 239.5,428.5 C 241.527,428.338 243.527,428.505 245.5,429C 250.167,436.333 254.833,436.333 259.5,429C 261.579,428.192 263.579,428.359 265.5,429.5C 263.828,436.18 259.495,439.18 252.5,438.5C 244.912,439.222 240.578,435.889 239.5,428.5 Z"/></g>
<g><path style="opacity:0.827" fill="#fdfefd" d="M 457.5,428.5 C 459.5,428.5 461.5,428.5 463.5,428.5C 463.837,432.333 466.004,434.333 470,434.5C 473.996,434.333 476.163,432.333 476.5,428.5C 478.5,428.5 480.5,428.5 482.5,428.5C 481.798,436.027 477.631,439.36 470,438.5C 462.369,439.36 458.202,436.027 457.5,428.5 Z"/></g>
<g><path style="opacity:0.805" fill="#fdfefd" d="M 1275.5,428.5 C 1277.53,428.338 1279.53,428.505 1281.5,429C 1286.17,436.333 1290.83,436.333 1295.5,429C 1297.58,428.192 1299.58,428.359 1301.5,429.5C 1299.83,436.18 1295.49,439.18 1288.5,438.5C 1280.91,439.222 1276.58,435.889 1275.5,428.5 Z"/></g>
<g><path style="opacity:0.847" fill="#fdfefd" d="M 309.5,440.5 C 317.307,440.158 324.141,442.491 330,447.5C 330.365,450.494 329.031,452.494 326,453.5C 318.339,447.925 310.173,447.091 301.5,451C 294.053,456.403 291.553,463.57 294,472.5C 298.829,483.229 306.996,487.062 318.5,484C 320.844,483.163 322.844,481.829 324.5,480C 330.833,480.667 331.833,483.333 327.5,488C 312.942,495.666 300.108,493.499 289,481.5C 279.922,459.656 286.755,445.99 309.5,440.5 Z"/></g>
<g><path style="opacity:0.86" fill="#fdfefd" d="M 586.5,440.5 C 604.296,440.302 614.296,448.969 616.5,466.5C 613.816,485.678 602.816,494.178 583.5,492C 567.485,487.626 560.652,477.126 563,460.5C 566.766,448.891 574.599,442.224 586.5,440.5 Z M 583.5,448.5 C 594.457,446.561 602.29,450.561 607,460.5C 608.86,478.975 600.694,486.809 582.5,484C 571.808,478.928 568.308,470.761 572,459.5C 574.412,454.252 578.246,450.586 583.5,448.5 Z"/></g>
<g><path style="opacity:0.853" fill="#fdfefd" d="M 646.5,440.5 C 655.371,440.006 662.704,443.006 668.5,449.5C 666.796,451.041 664.963,452.375 663,453.5C 654.86,447.519 646.36,447.019 637.5,452C 630.178,459.07 628.678,467.237 633,476.5C 637.92,483.045 644.42,485.878 652.5,485C 656.795,483.619 660.795,481.952 664.5,480C 669.918,483.529 669.584,486.529 663.5,489C 650.378,494.98 638.544,493.147 628,483.5C 618.66,467.985 621.16,454.818 635.5,444C 639.161,442.407 642.828,441.241 646.5,440.5 Z"/></g>
<g><path style="opacity:0.852" fill="#fdfefd" d="M 907.5,440.5 C 916.147,440.102 923.48,442.935 929.5,449C 927.946,450.892 926.112,452.392 924,453.5C 917.184,448.392 909.684,447.225 901.5,450C 890.41,458.01 888.577,467.844 896,479.5C 901.045,483.886 906.879,485.719 913.5,485C 917.801,483.606 921.801,481.94 925.5,480C 926.833,481.333 928.167,482.667 929.5,484C 922.403,491.475 913.736,494.142 903.5,492C 887.694,486.905 881.194,476.072 884,459.5C 888.135,448.527 895.968,442.194 907.5,440.5 Z"/></g>
<g><path style="opacity:0.853" fill="#fdfefd" d="M 1679.5,440.5 C 1688.37,440.006 1695.7,443.006 1701.5,449.5C 1699.8,451.041 1697.96,452.375 1696,453.5C 1687.86,447.519 1679.36,447.019 1670.5,452C 1663.18,459.07 1661.68,467.237 1666,476.5C 1670.92,483.045 1677.42,485.878 1685.5,485C 1689.79,483.619 1693.79,481.952 1697.5,480C 1702.92,483.529 1702.58,486.529 1696.5,489C 1683.38,494.98 1671.54,493.147 1661,483.5C 1651.66,467.985 1654.16,454.818 1668.5,444C 1672.16,442.407 1675.83,441.241 1679.5,440.5 Z"/></g>
<g><path style="opacity:0.865" fill="#fdfefd" d="M 40.5,441.5 C 43.4475,441.223 46.2809,441.556 49,442.5C 56.2431,458.651 63.7431,474.651 71.5,490.5C 72.4656,488.604 72.7989,486.604 72.5,484.5C 76.4896,485.384 79.3229,484.051 81,480.5C 83.1288,467.602 84.2955,454.602 84.5,441.5C 96.5,441.5 108.5,441.5 120.5,441.5C 120.5,458.167 120.5,474.833 120.5,491.5C 117.833,491.5 115.167,491.5 112.5,491.5C 112.5,477.167 112.5,462.833 112.5,448.5C 105.5,448.5 98.5,448.5 91.5,448.5C 91.1155,459.204 90.2822,469.871 89,480.5C 88.1001,488.007 83.9334,492.007 76.5,492.5C 71.8406,491.934 67.1739,491.434 62.5,491C 60.9334,487.475 59.2667,483.975 57.5,480.5C 48.8333,479.167 40.1667,479.167 31.5,480.5C 29.7257,483.715 28.2257,487.048 27,490.5C 24.2053,491.783 21.3719,491.783 18.5,490.5C 25.84,474.137 33.1733,457.804 40.5,441.5 Z M 43.5,451.5 C 47.9537,457.805 51.2871,464.805 53.5,472.5C 47.4632,472.829 41.4632,472.496 35.5,471.5C 38.3721,464.877 41.0387,458.211 43.5,451.5 Z"/></g>
<g><path style="opacity:0.882" fill="#fdfefd" d="M 127.5,441.5 C 141.5,441.5 155.5,441.5 169.5,441.5C 169.5,443.833 169.5,446.167 169.5,448.5C 163.833,448.5 158.167,448.5 152.5,448.5C 152.5,462.833 152.5,477.167 152.5,491.5C 149.833,491.5 147.167,491.5 144.5,491.5C 144.5,477.167 144.5,462.833 144.5,448.5C 138.833,448.5 133.167,448.5 127.5,448.5C 127.5,446.167 127.5,443.833 127.5,441.5 Z"/></g>
<g><path style="opacity:0.86" fill="#fdfefd" d="M 192.5,441.5 C 195.448,441.223 198.281,441.556 201,442.5C 208.371,458.742 215.871,474.909 223.5,491C 220.446,491.821 217.446,491.655 214.5,490.5C 212.689,487.045 211.022,483.545 209.5,480C 200.814,479.168 192.147,479.335 183.5,480.5C 181.868,484.09 180.534,487.757 179.5,491.5C 176.428,491.817 173.428,491.484 170.5,490.5C 178.12,474.263 185.453,457.93 192.5,441.5 Z M 196.5,451.5 C 199.93,458.196 203.264,465.029 206.5,472C 200.141,472.831 193.807,472.664 187.5,471.5C 190.514,464.807 193.514,458.141 196.5,451.5 Z"/></g>
<g><path style="opacity:0.876" fill="#fdfefd" d="M 230.5,441.5 C 233.167,441.5 235.833,441.5 238.5,441.5C 238.333,453.838 238.5,466.171 239,478.5C 248,466.5 257,454.5 266,442.5C 268.719,441.556 271.552,441.223 274.5,441.5C 274.5,458.167 274.5,474.833 274.5,491.5C 271.833,491.5 269.167,491.5 266.5,491.5C 266.667,479.495 266.5,467.495 266,455.5C 257.196,467.604 248.029,479.438 238.5,491C 235.854,491.497 233.187,491.664 230.5,491.5C 230.5,474.833 230.5,458.167 230.5,441.5 Z"/></g>
<g><path style="opacity:0.854" fill="#fdfefd" d="M 339.5,441.5 C 342.167,441.5 344.833,441.5 347.5,441.5C 347.5,448.5 347.5,455.5 347.5,462.5C 350.85,462.665 354.183,462.498 357.5,462C 362.743,455.512 367.743,448.846 372.5,442C 375.5,441.333 378.5,441.333 381.5,442C 375.5,450 369.5,458 363.5,466C 369.833,474.333 376.167,482.667 382.5,491C 379.167,491.667 375.833,491.667 372.5,491C 367.743,484.154 362.743,477.488 357.5,471C 354.183,470.502 350.85,470.335 347.5,470.5C 347.5,477.5 347.5,484.5 347.5,491.5C 344.833,491.5 342.167,491.5 339.5,491.5C 339.5,474.833 339.5,458.167 339.5,441.5 Z"/></g>
<g><path style="opacity:0.873" fill="#fdfefd" d="M 390.5,441.5 C 393.167,441.5 395.833,441.5 398.5,441.5C 398.333,453.505 398.5,465.505 399,477.5C 408.167,465.667 417.333,453.833 426.5,442C 429.146,441.503 431.813,441.336 434.5,441.5C 434.5,458.167 434.5,474.833 434.5,491.5C 431.833,491.5 429.167,491.5 426.5,491.5C 426.667,479.495 426.5,467.495 426,455.5C 417,467.167 408,478.833 399,490.5C 396.281,491.444 393.448,491.777 390.5,491.5C 390.5,474.833 390.5,458.167 390.5,441.5 Z"/></g>
<g><path style="opacity:0.873" fill="#fdfefd" d="M 448.5,441.5 C 451.167,441.5 453.833,441.5 456.5,441.5C 456.333,453.505 456.5,465.505 457,477.5C 466.167,465.667 475.333,453.833 484.5,442C 487.146,441.503 489.813,441.336 492.5,441.5C 492.5,458.167 492.5,474.833 492.5,491.5C 489.833,491.5 487.167,491.5 484.5,491.5C 484.667,479.495 484.5,467.495 484,455.5C 475,467.167 466,478.833 457,490.5C 454.281,491.444 451.448,491.777 448.5,491.5C 448.5,474.833 448.5,458.167 448.5,441.5 Z"/></g>
<g><path style="opacity:0.889" fill="#fdfefd" d="M 525.5,441.5 C 536.5,441.5 547.5,441.5 558.5,441.5C 558.5,443.833 558.5,446.167 558.5,448.5C 550.167,448.5 541.833,448.5 533.5,448.5C 533.5,462.833 533.5,477.167 533.5,491.5C 530.833,491.5 528.167,491.5 525.5,491.5C 525.5,474.833 525.5,458.167 525.5,441.5 Z"/></g>
<g><path style="opacity:0.84" fill="#fdfefd" d="M 670.5,441.5 C 673.572,441.183 676.572,441.516 679.5,442.5C 684.667,452.167 689.833,461.833 695,471.5C 700.167,461.833 705.333,452.167 710.5,442.5C 713.167,441.167 715.833,441.167 718.5,442.5C 710.921,457.325 703.088,471.992 695,486.5C 689.773,492.311 683.44,493.977 676,491.5C 675.64,488.909 676.307,486.576 678,484.5C 683.687,486.842 687.854,485.175 690.5,479.5C 683.808,466.78 677.141,454.113 670.5,441.5 Z"/></g>
<g><path style="opacity:0.878" fill="#fdfefd" d="M 731.5,441.5 C 743.5,441.5 755.5,441.5 767.5,441.5C 767.5,455.833 767.5,470.167 767.5,484.5C 769.833,484.5 772.167,484.5 774.5,484.5C 774.5,490.5 774.5,496.5 774.5,502.5C 771.833,502.5 769.167,502.5 766.5,502.5C 766.5,498.833 766.5,495.167 766.5,491.5C 753.5,491.5 740.5,491.5 727.5,491.5C 727.665,494.85 727.498,498.183 727,501.5C 724.619,502.435 722.119,502.768 719.5,502.5C 719.5,496.5 719.5,490.5 719.5,484.5C 723.683,485.154 726.516,483.488 728,479.5C 730.161,466.939 731.328,454.273 731.5,441.5 Z M 738.5,448.5 C 745.5,448.5 752.5,448.5 759.5,448.5C 759.5,460.5 759.5,472.5 759.5,484.5C 750.827,484.666 742.16,484.5 733.5,484C 735.358,480.41 736.524,476.576 737,472.5C 737.73,464.51 738.23,456.51 738.5,448.5 Z"/></g>
<g><path style="opacity:0.856" fill="#fdfefd" d="M 798.5,441.5 C 801.448,441.223 804.281,441.556 807,442.5C 814.371,458.742 821.871,474.909 829.5,491C 826.5,491.667 823.5,491.667 820.5,491C 818.933,487.475 817.267,483.975 815.5,480.5C 806.833,479.167 798.167,479.167 789.5,480.5C 787.733,483.975 786.067,487.475 784.5,491C 781.773,491.818 779.106,491.652 776.5,490.5C 783.84,474.137 791.173,457.804 798.5,441.5 Z M 801.5,451.5 C 805.954,457.805 809.287,464.805 811.5,472.5C 805.463,472.829 799.463,472.496 793.5,471.5C 796.372,464.877 799.039,458.211 801.5,451.5 Z"/></g>
<g><path style="opacity:0.884" fill="#fdfefd" d="M 836.5,441.5 C 846.566,441.105 856.566,441.605 866.5,443C 876.08,447.027 879.58,454.193 877,464.5C 875.092,470.74 870.925,474.573 864.5,476C 857.842,476.5 851.175,476.666 844.5,476.5C 844.5,481.5 844.5,486.5 844.5,491.5C 841.833,491.5 839.167,491.5 836.5,491.5C 836.5,474.833 836.5,458.167 836.5,441.5 Z M 844.5,448.5 C 850.925,448.13 857.258,448.63 863.5,450C 870.017,454.245 871.183,459.745 867,466.5C 865.581,467.46 864.081,468.293 862.5,469C 856.509,469.499 850.509,469.666 844.5,469.5C 844.5,462.5 844.5,455.5 844.5,448.5 Z"/></g>
<g><path style="opacity:0.876" fill="#fdfefd" d="M 931.5,441.5 C 945.5,441.5 959.5,441.5 973.5,441.5C 973.5,443.833 973.5,446.167 973.5,448.5C 967.833,448.5 962.167,448.5 956.5,448.5C 956.5,462.833 956.5,477.167 956.5,491.5C 953.833,491.5 951.167,491.5 948.5,491.5C 948.5,477.167 948.5,462.833 948.5,448.5C 942.833,448.5 937.167,448.5 931.5,448.5C 931.5,446.167 931.5,443.833 931.5,441.5 Z"/></g>
<g><path style="opacity:0.88" fill="#fdfefd" d="M 980.5,441.5 C 989.839,441.334 999.173,441.5 1008.5,442C 1018.38,444.589 1021.88,450.756 1019,460.5C 1017.96,462.585 1016.46,464.252 1014.5,465.5C 1022.85,470.678 1024.68,477.678 1020,486.5C 1017.74,488.43 1015.24,489.93 1012.5,491C 1001.84,491.5 991.172,491.667 980.5,491.5C 980.5,474.833 980.5,458.167 980.5,441.5 Z M 988.5,448.5 C 994.842,448.334 1001.18,448.5 1007.5,449C 1011.21,451.513 1012.38,455.013 1011,459.5C 1009.2,461.317 1007.03,462.484 1004.5,463C 999.177,463.499 993.844,463.666 988.5,463.5C 988.5,458.5 988.5,453.5 988.5,448.5 Z M 988.5,469.5 C 994.842,469.334 1001.18,469.5 1007.5,470C 1013.54,471.916 1015.38,475.749 1013,481.5C 1011.68,483.487 1009.85,484.654 1007.5,485C 1001.18,485.5 994.842,485.666 988.5,485.5C 988.5,480.167 988.5,474.833 988.5,469.5 Z"/></g>
<g><path style="opacity:0.886" fill="#fdfefd" d="M 1033.5,441.5 C 1045.5,441.5 1057.5,441.5 1069.5,441.5C 1069.5,443.833 1069.5,446.167 1069.5,448.5C 1060.17,448.5 1050.83,448.5 1041.5,448.5C 1041.5,453.167 1041.5,457.833 1041.5,462.5C 1049.83,462.5 1058.17,462.5 1066.5,462.5C 1066.5,464.833 1066.5,467.167 1066.5,469.5C 1058.17,469.5 1049.83,469.5 1041.5,469.5C 1041.5,474.5 1041.5,479.5 1041.5,484.5C 1051.17,484.5 1060.83,484.5 1070.5,484.5C 1070.5,486.833 1070.5,489.167 1070.5,491.5C 1058.17,491.5 1045.83,491.5 1033.5,491.5C 1033.5,474.833 1033.5,458.167 1033.5,441.5 Z"/></g>
<g><path style="opacity:0.891" fill="#fdfefd" d="M 1080.5,441.5 C 1083.17,441.5 1085.83,441.5 1088.5,441.5C 1088.5,448.5 1088.5,455.5 1088.5,462.5C 1097.83,462.5 1107.17,462.5 1116.5,462.5C 1116.5,455.5 1116.5,448.5 1116.5,441.5C 1119.17,441.5 1121.83,441.5 1124.5,441.5C 1124.5,458.167 1124.5,474.833 1124.5,491.5C 1121.83,491.5 1119.17,491.5 1116.5,491.5C 1116.5,484.167 1116.5,476.833 1116.5,469.5C 1107.17,469.5 1097.83,469.5 1088.5,469.5C 1088.5,476.833 1088.5,484.167 1088.5,491.5C 1085.83,491.5 1083.17,491.5 1080.5,491.5C 1080.5,474.833 1080.5,458.167 1080.5,441.5 Z"/></g>
<g><path style="opacity:0.891" fill="#fdfefd" d="M 1138.5,441.5 C 1141.17,441.5 1143.83,441.5 1146.5,441.5C 1146.5,448.5 1146.5,455.5 1146.5,462.5C 1155.83,462.5 1165.17,462.5 1174.5,462.5C 1174.5,455.5 1174.5,448.5 1174.5,441.5C 1177.17,441.5 1179.83,441.5 1182.5,441.5C 1182.5,458.167 1182.5,474.833 1182.5,491.5C 1179.83,491.5 1177.17,491.5 1174.5,491.5C 1174.5,484.167 1174.5,476.833 1174.5,469.5C 1165.17,469.5 1155.83,469.5 1146.5,469.5C 1146.5,476.833 1146.5,484.167 1146.5,491.5C 1143.83,491.5 1141.17,491.5 1138.5,491.5C 1138.5,474.833 1138.5,458.167 1138.5,441.5 Z"/></g>
<g><path style="opacity:0.881" fill="#fdfefd" d="M 1196.5,441.5 C 1199.17,441.5 1201.83,441.5 1204.5,441.5C 1204.5,447.167 1204.5,452.833 1204.5,458.5C 1213.33,457.92 1222,458.753 1230.5,461C 1238.37,468.495 1239.54,476.995 1234,486.5C 1231.53,488.652 1228.7,490.152 1225.5,491C 1215.84,491.5 1206.17,491.666 1196.5,491.5C 1196.5,474.833 1196.5,458.167 1196.5,441.5 Z M 1204.5,465.5 C 1210.51,465.334 1216.51,465.501 1222.5,466C 1229.04,468.947 1230.87,473.781 1228,480.5C 1226.79,482.049 1225.29,483.215 1223.5,484C 1217.26,485.37 1210.93,485.87 1204.5,485.5C 1204.5,478.833 1204.5,472.167 1204.5,465.5 Z"/></g>
<g><path style="opacity:0.882" fill="#fdfefd" d="M 1244.5,441.5 C 1247.17,441.5 1249.83,441.5 1252.5,441.5C 1252.5,458.167 1252.5,474.833 1252.5,491.5C 1249.83,491.5 1247.17,491.5 1244.5,491.5C 1244.5,474.833 1244.5,458.167 1244.5,441.5 Z"/></g>
<g><path style="opacity:0.876" fill="#fdfefd" d="M 1266.5,441.5 C 1269.17,441.5 1271.83,441.5 1274.5,441.5C 1274.33,453.838 1274.5,466.171 1275,478.5C 1284,466.5 1293,454.5 1302,442.5C 1304.72,441.556 1307.55,441.223 1310.5,441.5C 1310.5,458.167 1310.5,474.833 1310.5,491.5C 1307.83,491.5 1305.17,491.5 1302.5,491.5C 1302.67,479.495 1302.5,467.495 1302,455.5C 1293.2,467.604 1284.03,479.438 1274.5,491C 1271.85,491.497 1269.19,491.664 1266.5,491.5C 1266.5,474.833 1266.5,458.167 1266.5,441.5 Z"/></g>
<g><path style="opacity:0.844" fill="#fdfefd" d="M 1337.5,441.5 C 1340.57,441.183 1343.57,441.516 1346.5,442.5C 1351.16,452.484 1356.32,462.151 1362,471.5C 1366.74,461.676 1371.74,452.01 1377,442.5C 1379.79,441.217 1382.63,441.217 1385.5,442.5C 1377.21,458.242 1368.55,473.742 1359.5,489C 1354.42,492.523 1348.92,493.356 1343,491.5C 1342.39,488.955 1342.89,486.622 1344.5,484.5C 1350.33,486.969 1354.33,485.303 1356.5,479.5C 1350.16,466.816 1343.82,454.15 1337.5,441.5 Z"/></g>
<g><path style="opacity:0.893" fill="#fdfefd" d="M 1392.5,441.5 C 1395.17,441.5 1397.83,441.5 1400.5,441.5C 1400.5,448.5 1400.5,455.5 1400.5,462.5C 1409.83,462.5 1419.17,462.5 1428.5,462.5C 1428.5,455.5 1428.5,448.5 1428.5,441.5C 1431.17,441.5 1433.83,441.5 1436.5,441.5C 1436.5,458.167 1436.5,474.833 1436.5,491.5C 1433.83,491.5 1431.17,491.5 1428.5,491.5C 1428.5,484.167 1428.5,476.833 1428.5,469.5C 1419.17,469.5 1409.83,469.5 1400.5,469.5C 1400.5,476.833 1400.5,484.167 1400.5,491.5C 1397.83,491.5 1395.17,491.5 1392.5,491.5C 1392.5,474.833 1392.5,458.167 1392.5,441.5 Z"/></g>
<g><path style="opacity:0.876" fill="#fdfefd" d="M 1450.5,441.5 C 1453.17,441.5 1455.83,441.5 1458.5,441.5C 1458.33,453.838 1458.5,466.171 1459,478.5C 1468,466.5 1477,454.5 1486,442.5C 1488.72,441.556 1491.55,441.223 1494.5,441.5C 1494.5,458.167 1494.5,474.833 1494.5,491.5C 1491.83,491.5 1489.17,491.5 1486.5,491.5C 1486.67,479.495 1486.5,467.495 1486,455.5C 1477.2,467.604 1468.03,479.438 1458.5,491C 1455.85,491.497 1453.19,491.664 1450.5,491.5C 1450.5,474.833 1450.5,458.167 1450.5,441.5 Z"/></g>
<g><path style="opacity:0.873" fill="#fdfefd" d="M 1508.5,441.5 C 1517.84,441.334 1527.17,441.5 1536.5,442C 1547.18,444.523 1550.68,451.023 1547,461.5C 1545.5,463 1544,464.5 1542.5,466C 1548.15,467.984 1551.15,471.984 1551.5,478C 1550.74,484.765 1547.07,489.099 1540.5,491C 1529.84,491.5 1519.17,491.667 1508.5,491.5C 1508.5,474.833 1508.5,458.167 1508.5,441.5 Z M 1516.5,448.5 C 1522.84,448.334 1529.18,448.5 1535.5,449C 1541.7,452.829 1542.04,457.162 1536.5,462C 1529.92,463.377 1523.26,463.877 1516.5,463.5C 1516.5,458.5 1516.5,453.5 1516.5,448.5 Z M 1516.5,469.5 C 1522.84,469.334 1529.18,469.5 1535.5,470C 1542.07,471.239 1544.24,475.073 1542,481.5C 1540.2,483.317 1538.03,484.484 1535.5,485C 1529.18,485.5 1522.84,485.666 1516.5,485.5C 1516.5,480.167 1516.5,474.833 1516.5,469.5 Z"/></g>
<g><path style="opacity:0.885" fill="#fdfefd" d="M 1561.5,441.5 C 1573.5,441.5 1585.5,441.5 1597.5,441.5C 1597.5,443.833 1597.5,446.167 1597.5,448.5C 1588.17,448.5 1578.83,448.5 1569.5,448.5C 1569.5,453.167 1569.5,457.833 1569.5,462.5C 1577.83,462.5 1586.17,462.5 1594.5,462.5C 1594.5,464.833 1594.5,467.167 1594.5,469.5C 1586.17,469.5 1577.83,469.5 1569.5,469.5C 1569.5,474.5 1569.5,479.5 1569.5,484.5C 1579.17,484.5 1588.83,484.5 1598.5,484.5C 1598.5,486.833 1598.5,489.167 1598.5,491.5C 1586.17,491.5 1573.83,491.5 1561.5,491.5C 1561.5,474.833 1561.5,458.167 1561.5,441.5 Z"/></g>
<g><path style="opacity:0.846" fill="#fdfefd" d="M 1608.5,441.5 C 1617.51,441.334 1626.51,441.5 1635.5,442C 1647.58,445.307 1652.08,453.14 1649,465.5C 1646.74,470.757 1642.91,474.257 1637.5,476C 1630.84,476.5 1624.17,476.666 1617.5,476.5C 1617.5,481.5 1617.5,486.5 1617.5,491.5C 1614.5,491.5 1611.5,491.5 1608.5,491.5C 1608.5,474.833 1608.5,458.167 1608.5,441.5 Z M 1617.5,448.5 C 1623.59,448.139 1629.59,448.639 1635.5,450C 1641.67,453.656 1643.17,458.822 1640,465.5C 1638.42,467.041 1636.59,468.208 1634.5,469C 1628.84,469.499 1623.18,469.666 1617.5,469.5C 1617.5,462.5 1617.5,455.5 1617.5,448.5 Z"/></g>
<g><path style="opacity:0.873" fill="#fdfefd" d="M 1710.5,441.5 C 1713.17,441.5 1715.83,441.5 1718.5,441.5C 1718.33,453.505 1718.5,465.505 1719,477.5C 1728.17,465.667 1737.33,453.833 1746.5,442C 1749.15,441.503 1751.81,441.336 1754.5,441.5C 1754.5,458.167 1754.5,474.833 1754.5,491.5C 1751.83,491.5 1749.17,491.5 1746.5,491.5C 1746.67,479.495 1746.5,467.495 1746,455.5C 1737,467.167 1728,478.833 1719,490.5C 1716.28,491.444 1713.45,491.777 1710.5,491.5C 1710.5,474.833 1710.5,458.167 1710.5,441.5 Z"/></g>
<g><path style="opacity:0.882" fill="#fdfefd" d="M 1761.5,441.5 C 1775.5,441.5 1789.5,441.5 1803.5,441.5C 1803.5,443.833 1803.5,446.167 1803.5,448.5C 1797.83,448.5 1792.17,448.5 1786.5,448.5C 1786.5,462.833 1786.5,477.167 1786.5,491.5C 1783.83,491.5 1781.17,491.5 1778.5,491.5C 1778.5,477.167 1778.5,462.833 1778.5,448.5C 1772.83,448.5 1767.17,448.5 1761.5,448.5C 1761.5,446.167 1761.5,443.833 1761.5,441.5 Z"/></g>
<g><path style="opacity:0.857" fill="#fdfefd" d="M 1810.5,441.5 C 1822.5,441.5 1834.5,441.5 1846.5,441.5C 1846.5,443.833 1846.5,446.167 1846.5,448.5C 1837.5,448.5 1828.5,448.5 1819.5,448.5C 1819.5,453.167 1819.5,457.833 1819.5,462.5C 1827.5,462.5 1835.5,462.5 1843.5,462.5C 1843.5,464.833 1843.5,467.167 1843.5,469.5C 1835.5,469.5 1827.5,469.5 1819.5,469.5C 1819.5,474.5 1819.5,479.5 1819.5,484.5C 1828.83,484.5 1838.17,484.5 1847.5,484.5C 1847.5,486.833 1847.5,489.167 1847.5,491.5C 1835.17,491.5 1822.83,491.5 1810.5,491.5C 1810.5,474.833 1810.5,458.167 1810.5,441.5 Z"/></g>
<g><path style="opacity:0.876" fill="#fdfefd" d="M 1851.5,441.5 C 1865.5,441.5 1879.5,441.5 1893.5,441.5C 1893.5,443.833 1893.5,446.167 1893.5,448.5C 1887.83,448.5 1882.17,448.5 1876.5,448.5C 1876.5,462.833 1876.5,477.167 1876.5,491.5C 1873.83,491.5 1871.17,491.5 1868.5,491.5C 1868.5,477.167 1868.5,462.833 1868.5,448.5C 1862.83,448.5 1857.17,448.5 1851.5,448.5C 1851.5,446.167 1851.5,443.833 1851.5,441.5 Z"/></g>
</svg>
